<svg version="1.1" xmlns="http://www.w3.org/2000/svg" xmlns:xlink="http://www.w3.org/1999/xlink" width="1281" height="826"><defs><clipPath id="HTFQGTaWdOOL"><path fill="none" stroke="none" d=" M 0 0 L 1281 0 L 1281 826 L 0 826 L 0 0 Z"/></clipPath></defs><g transform="scale(1,1)" clip-path="url(#HTFQGTaWdOOL)"><g><rect fill="rgb(255,255,255)" stroke="none" x="0" y="0" width="1281" height="826" fill-opacity="1"/><path fill="none" stroke="rgb(192,192,192)" paint-order="fill stroke markers" d=" M 41.5 0.5 L 41.5 826.5 M 41.5 0.5 L 41.5 826.5 M 130.5 0.5 L 130.5 826.5 M 219.5 0.5 L 219.5 826.5 M 308.5 0.5 L 308.5 826.5 M 398.5 0.5 L 398.5 826.5 M 487.5 0.5 L 487.5 826.5 M 576.5 0.5 L 576.5 826.5 M 755.5 0.5 L 755.5 826.5 M 844.5 0.5 L 844.5 826.5 M 933.5 0.5 L 933.5 826.5 M 1022.5 0.5 L 1022.5 826.5 M 1112.5 0.5 L 1112.5 826.5 M 1201.5 0.5 L 1201.5 826.5" stroke-opacity="1" stroke-linecap="round" stroke-linejoin="round" stroke-miterlimit="10"/><path fill="none" stroke="rgb(192,192,192)" paint-order="fill stroke markers" d=" M 5.5 0.5 L 5.5 826.5 M 23.5 0.5 L 23.5 826.5 M 58.5 0.5 L 58.5 826.5 M 76.5 0.5 L 76.5 826.5 M 94.5 0.5 L 94.5 826.5 M 112.5 0.5 L 112.5 826.5 M 148.5 0.5 L 148.5 826.5 M 166.5 0.5 L 166.5 826.5 M 183.5 0.5 L 183.5 826.5 M 201.5 0.5 L 201.5 826.5 M 237.5 0.5 L 237.5 826.5 M 255.5 0.5 L 255.5 826.5 M 273.5 0.5 L 273.5 826.5 M 291.5 0.5 L 291.5 826.5 M 326.5 0.5 L 326.5 826.5 M 344.5 0.5 L 344.5 826.5 M 362.5 0.5 L 362.5 826.5 M 380.5 0.5 L 380.5 826.5 M 415.5 0.5 L 415.5 826.5 M 433.5 0.5 L 433.5 826.5 M 451.5 0.5 L 451.5 826.5 M 469.5 0.5 L 469.5 826.5 M 505.5 0.5 L 505.5 826.5 M 523.5 0.5 L 523.5 826.5 M 540.5 0.5 L 540.5 826.5 M 558.5 0.5 L 558.5 826.5 M 594.5 0.5 L 594.5 826.5 M 612.5 0.5 L 612.5 826.5 M 630.5 0.5 L 630.5 826.5 M 648.5 0.5 L 648.5 826.5 M 683.5 0.5 L 683.5 826.5 M 701.5 0.5 L 701.5 826.5 M 719.5 0.5 L 719.5 826.5 M 737.5 0.5 L 737.5 826.5 M 772.5 0.5 L 772.5 826.5 M 790.5 0.5 L 790.5 826.5 M 808.5 0.5 L 808.5 826.5 M 826.5 0.5 L 826.5 826.5 M 862.5 0.5 L 862.5 826.5 M 880.5 0.5 L 880.5 826.5 M 897.5 0.5 L 897.5 826.5 M 915.5 0.5 L 915.5 826.5 M 951.5 0.5 L 951.5 826.5 M 969.5 0.5 L 969.5 826.5 M 987.5 0.5 L 987.5 826.5 M 1005.5 0.5 L 1005.5 826.5 M 1040.5 0.5 L 1040.5 826.5 M 1058.5 0.5 L 1058.5 826.5 M 1076.5 0.5 L 1076.5 826.5 M 1094.5 0.5 L 1094.5 826.5 M 1129.5 0.5 L 1129.5 826.5 M 1147.5 0.5 L 1147.5 826.5 M 1165.5 0.5 L 1165.5 826.5 M 1183.5 0.5 L 1183.5 826.5 M 1219.5 0.5 L 1219.5 826.5 M 1237.5 0.5 L 1237.5 826.5 M 1254.5 0.5 L 1254.5 826.5 M 1272.5 0.5 L 1272.5 826.5" stroke-opacity="0.23529411764705882" stroke-linecap="round" stroke-linejoin="round" stroke-miterlimit="10"/><path fill="none" stroke="rgb(192,192,192)" paint-order="fill stroke markers" d=" M 0.5 51.5 L 1281.5 51.5 M 0.5 51.5 L 1281.5 51.5 M 0.5 141.5 L 1281.5 141.5 M 0.5 230.5 L 1281.5 230.5 M 0.5 408.5 L 1281.5 408.5 M 0.5 498.5 L 1281.5 498.5 M 0.5 587.5 L 1281.5 587.5 M 0.5 676.5 L 1281.5 676.5 M 0.5 765.5 L 1281.5 765.5" stroke-opacity="1" stroke-linecap="round" stroke-linejoin="round" stroke-miterlimit="10"/><path fill="none" stroke="rgb(192,192,192)" paint-order="fill stroke markers" d=" M 0.5 16.5 L 1281.5 16.5 M 0.5 16.5 L 1281.5 16.5 M 0.5 34.5 L 1281.5 34.5 M 0.5 69.5 L 1281.5 69.5 M 0.5 87.5 L 1281.5 87.5 M 0.5 105.5 L 1281.5 105.5 M 0.5 123.5 L 1281.5 123.5 M 0.5 158.5 L 1281.5 158.5 M 0.5 176.5 L 1281.5 176.5 M 0.5 194.5 L 1281.5 194.5 M 0.5 212.5 L 1281.5 212.5 M 0.5 248.5 L 1281.5 248.5 M 0.5 266.5 L 1281.5 266.5 M 0.5 283.5 L 1281.5 283.5 M 0.5 301.5 L 1281.5 301.5 M 0.5 337.5 L 1281.5 337.5 M 0.5 355.5 L 1281.5 355.5 M 0.5 373.5 L 1281.5 373.5 M 0.5 391.5 L 1281.5 391.5 M 0.5 426.5 L 1281.5 426.5 M 0.5 444.5 L 1281.5 444.5 M 0.5 462.5 L 1281.5 462.5 M 0.5 480.5 L 1281.5 480.5 M 0.5 515.5 L 1281.5 515.5 M 0.5 533.5 L 1281.5 533.5 M 0.5 551.5 L 1281.5 551.5 M 0.5 569.5 L 1281.5 569.5 M 0.5 605.5 L 1281.5 605.5 M 0.5 623.5 L 1281.5 623.5 M 0.5 640.5 L 1281.5 640.5 M 0.5 658.5 L 1281.5 658.5 M 0.5 694.5 L 1281.5 694.5 M 0.5 712.5 L 1281.5 712.5 M 0.5 730.5 L 1281.5 730.5 M 0.5 748.5 L 1281.5 748.5 M 0.5 783.5 L 1281.5 783.5 M 0.5 801.5 L 1281.5 801.5 M 0.5 819.5 L 1281.5 819.5" stroke-opacity="0.23529411764705882" stroke-linecap="round" stroke-linejoin="round" stroke-miterlimit="10"/><path fill="none" stroke="rgb(37,37,37)" paint-order="fill stroke markers" d=" M 665.5 2.5 L 665.5 826.5" stroke-opacity="1" stroke-miterlimit="10"/><path fill="none" stroke="rgb(37,37,37)" paint-order="fill stroke markers" d=" M 665.5 1.5 L 661.5 5.5" stroke-opacity="1" stroke-miterlimit="10"/><path fill="none" stroke="rgb(37,37,37)" paint-order="fill stroke markers" d=" M 665.5 1.5 L 669.5 5.5" stroke-opacity="1" stroke-miterlimit="10"/><path fill="none" stroke="rgb(37,37,37)" paint-order="fill stroke markers" d=" M 0.5 319.5 L 1279.5 319.5" stroke-opacity="1" stroke-miterlimit="10"/><path fill="none" stroke="rgb(37,37,37)" paint-order="fill stroke markers" d=" M 1280.5 319.5 L 1276.5 315.5" stroke-opacity="1" stroke-miterlimit="10"/><path fill="none" stroke="rgb(37,37,37)" paint-order="fill stroke markers" d=" M 1280.5 319.5 L 1276.5 323.5" stroke-opacity="1" stroke-miterlimit="10"/><text fill="rgb(37,37,37)" stroke="none" font-family="geogebra-sans-serif, sans-serif" font-size="12px" font-style="normal" font-weight="normal" text-decoration="normal" x="33" y="335" text-anchor="start" dominant-baseline="alphabetic" fill-opacity="1">–14</text><text fill="none" stroke="rgb(255,255,255)" font-family="geogebra-sans-serif, sans-serif" font-size="12px" font-style="normal" font-weight="normal" text-decoration="normal" x="33" y="335" text-anchor="start" dominant-baseline="alphabetic" stroke-opacity="1" stroke-linejoin="bevel" stroke-miterlimit="10" stroke-width="3">–14</text><text fill="rgb(37,37,37)" stroke="none" font-family="geogebra-sans-serif, sans-serif" font-size="12px" font-style="normal" font-weight="normal" text-decoration="normal" x="33" y="335" text-anchor="start" dominant-baseline="alphabetic" fill-opacity="1">–14</text><text fill="rgb(37,37,37)" stroke="none" font-family="geogebra-sans-serif, sans-serif" font-size="12px" font-style="normal" font-weight="normal" text-decoration="normal" x="122" y="335" text-anchor="start" dominant-baseline="alphabetic" fill-opacity="1">–12</text><text fill="none" stroke="rgb(255,255,255)" font-family="geogebra-sans-serif, sans-serif" font-size="12px" font-style="normal" font-weight="normal" text-decoration="normal" x="122" y="335" text-anchor="start" dominant-baseline="alphabetic" stroke-opacity="1" stroke-linejoin="bevel" stroke-miterlimit="10" stroke-width="3">–12</text><text fill="rgb(37,37,37)" stroke="none" font-family="geogebra-sans-serif, sans-serif" font-size="12px" font-style="normal" font-weight="normal" text-decoration="normal" x="122" y="335" text-anchor="start" dominant-baseline="alphabetic" fill-opacity="1">–12</text><text fill="rgb(37,37,37)" stroke="none" font-family="geogebra-sans-serif, sans-serif" font-size="12px" font-style="normal" font-weight="normal" text-decoration="normal" x="211" y="335" text-anchor="start" dominant-baseline="alphabetic" fill-opacity="1">–10</text><text fill="none" stroke="rgb(255,255,255)" font-family="geogebra-sans-serif, sans-serif" font-size="12px" font-style="normal" font-weight="normal" text-decoration="normal" x="211" y="335" text-anchor="start" dominant-baseline="alphabetic" stroke-opacity="1" stroke-linejoin="bevel" stroke-miterlimit="10" stroke-width="3">–10</text><text fill="rgb(37,37,37)" stroke="none" font-family="geogebra-sans-serif, sans-serif" font-size="12px" font-style="normal" font-weight="normal" text-decoration="normal" x="211" y="335" text-anchor="start" dominant-baseline="alphabetic" fill-opacity="1">–10</text><text fill="rgb(37,37,37)" stroke="none" font-family="geogebra-sans-serif, sans-serif" font-size="12px" font-style="normal" font-weight="normal" text-decoration="normal" x="303" y="335" text-anchor="start" dominant-baseline="alphabetic" fill-opacity="1">–8</text><text fill="none" stroke="rgb(255,255,255)" font-family="geogebra-sans-serif, sans-serif" font-size="12px" font-style="normal" font-weight="normal" text-decoration="normal" x="303" y="335" text-anchor="start" dominant-baseline="alphabetic" stroke-opacity="1" stroke-linejoin="bevel" stroke-miterlimit="10" stroke-width="3">–8</text><text fill="rgb(37,37,37)" stroke="none" font-family="geogebra-sans-serif, sans-serif" font-size="12px" font-style="normal" font-weight="normal" text-decoration="normal" x="303" y="335" text-anchor="start" dominant-baseline="alphabetic" fill-opacity="1">–8</text><text fill="rgb(37,37,37)" stroke="none" font-family="geogebra-sans-serif, sans-serif" font-size="12px" font-style="normal" font-weight="normal" text-decoration="normal" x="393" y="335" text-anchor="start" dominant-baseline="alphabetic" fill-opacity="1">–6</text><text fill="none" stroke="rgb(255,255,255)" font-family="geogebra-sans-serif, sans-serif" font-size="12px" font-style="normal" font-weight="normal" text-decoration="normal" x="393" y="335" text-anchor="start" dominant-baseline="alphabetic" stroke-opacity="1" stroke-linejoin="bevel" stroke-miterlimit="10" stroke-width="3">–6</text><text fill="rgb(37,37,37)" stroke="none" font-family="geogebra-sans-serif, sans-serif" font-size="12px" font-style="normal" font-weight="normal" text-decoration="normal" x="393" y="335" text-anchor="start" dominant-baseline="alphabetic" fill-opacity="1">–6</text><text fill="rgb(37,37,37)" stroke="none" font-family="geogebra-sans-serif, sans-serif" font-size="12px" font-style="normal" font-weight="normal" text-decoration="normal" x="482" y="335" text-anchor="start" dominant-baseline="alphabetic" fill-opacity="1">–4</text><text fill="none" stroke="rgb(255,255,255)" font-family="geogebra-sans-serif, sans-serif" font-size="12px" font-style="normal" font-weight="normal" text-decoration="normal" x="482" y="335" text-anchor="start" dominant-baseline="alphabetic" stroke-opacity="1" stroke-linejoin="bevel" stroke-miterlimit="10" stroke-width="3">–4</text><text fill="rgb(37,37,37)" stroke="none" font-family="geogebra-sans-serif, sans-serif" font-size="12px" font-style="normal" font-weight="normal" text-decoration="normal" x="482" y="335" text-anchor="start" dominant-baseline="alphabetic" fill-opacity="1">–4</text><text fill="rgb(37,37,37)" stroke="none" font-family="geogebra-sans-serif, sans-serif" font-size="12px" font-style="normal" font-weight="normal" text-decoration="normal" x="571" y="335" text-anchor="start" dominant-baseline="alphabetic" fill-opacity="1">–2</text><text fill="none" stroke="rgb(255,255,255)" font-family="geogebra-sans-serif, sans-serif" font-size="12px" font-style="normal" font-weight="normal" text-decoration="normal" x="571" y="335" text-anchor="start" dominant-baseline="alphabetic" stroke-opacity="1" stroke-linejoin="bevel" stroke-miterlimit="10" stroke-width="3">–2</text><text fill="rgb(37,37,37)" stroke="none" font-family="geogebra-sans-serif, sans-serif" font-size="12px" font-style="normal" font-weight="normal" text-decoration="normal" x="571" y="335" text-anchor="start" dominant-baseline="alphabetic" fill-opacity="1">–2</text><text fill="rgb(37,37,37)" stroke="none" font-family="geogebra-sans-serif, sans-serif" font-size="12px" font-style="normal" font-weight="normal" text-decoration="normal" x="753" y="335" text-anchor="start" dominant-baseline="alphabetic" fill-opacity="1">2</text><text fill="none" stroke="rgb(255,255,255)" font-family="geogebra-sans-serif, sans-serif" font-size="12px" font-style="normal" font-weight="normal" text-decoration="normal" x="753" y="335" text-anchor="start" dominant-baseline="alphabetic" stroke-opacity="1" stroke-linejoin="bevel" stroke-miterlimit="10" stroke-width="3">2</text><text fill="rgb(37,37,37)" stroke="none" font-family="geogebra-sans-serif, sans-serif" font-size="12px" font-style="normal" font-weight="normal" text-decoration="normal" x="753" y="335" text-anchor="start" dominant-baseline="alphabetic" fill-opacity="1">2</text><text fill="rgb(37,37,37)" stroke="none" font-family="geogebra-sans-serif, sans-serif" font-size="12px" font-style="normal" font-weight="normal" text-decoration="normal" x="842" y="335" text-anchor="start" dominant-baseline="alphabetic" fill-opacity="1">4</text><text fill="none" stroke="rgb(255,255,255)" font-family="geogebra-sans-serif, sans-serif" font-size="12px" font-style="normal" font-weight="normal" text-decoration="normal" x="842" y="335" text-anchor="start" dominant-baseline="alphabetic" stroke-opacity="1" stroke-linejoin="bevel" stroke-miterlimit="10" stroke-width="3">4</text><text fill="rgb(37,37,37)" stroke="none" font-family="geogebra-sans-serif, sans-serif" font-size="12px" font-style="normal" font-weight="normal" text-decoration="normal" x="842" y="335" text-anchor="start" dominant-baseline="alphabetic" fill-opacity="1">4</text><text fill="rgb(37,37,37)" stroke="none" font-family="geogebra-sans-serif, sans-serif" font-size="12px" font-style="normal" font-weight="normal" text-decoration="normal" x="931" y="335" text-anchor="start" dominant-baseline="alphabetic" fill-opacity="1">6</text><text fill="none" stroke="rgb(255,255,255)" font-family="geogebra-sans-serif, sans-serif" font-size="12px" font-style="normal" font-weight="normal" text-decoration="normal" x="931" y="335" text-anchor="start" dominant-baseline="alphabetic" stroke-opacity="1" stroke-linejoin="bevel" stroke-miterlimit="10" stroke-width="3">6</text><text fill="rgb(37,37,37)" stroke="none" font-family="geogebra-sans-serif, sans-serif" font-size="12px" font-style="normal" font-weight="normal" text-decoration="normal" x="931" y="335" text-anchor="start" dominant-baseline="alphabetic" fill-opacity="1">6</text><text fill="rgb(37,37,37)" stroke="none" font-family="geogebra-sans-serif, sans-serif" font-size="12px" font-style="normal" font-weight="normal" text-decoration="normal" x="1020" y="335" text-anchor="start" dominant-baseline="alphabetic" fill-opacity="1">8</text><text fill="none" stroke="rgb(255,255,255)" font-family="geogebra-sans-serif, sans-serif" font-size="12px" font-style="normal" font-weight="normal" text-decoration="normal" x="1020" y="335" text-anchor="start" dominant-baseline="alphabetic" stroke-opacity="1" stroke-linejoin="bevel" stroke-miterlimit="10" stroke-width="3">8</text><text fill="rgb(37,37,37)" stroke="none" font-family="geogebra-sans-serif, sans-serif" font-size="12px" font-style="normal" font-weight="normal" text-decoration="normal" x="1020" y="335" text-anchor="start" dominant-baseline="alphabetic" fill-opacity="1">8</text><text fill="rgb(37,37,37)" stroke="none" font-family="geogebra-sans-serif, sans-serif" font-size="12px" font-style="normal" font-weight="normal" text-decoration="normal" x="1107" y="335" text-anchor="start" dominant-baseline="alphabetic" fill-opacity="1">10</text><text fill="none" stroke="rgb(255,255,255)" font-family="geogebra-sans-serif, sans-serif" font-size="12px" font-style="normal" font-weight="normal" text-decoration="normal" x="1107" y="335" text-anchor="start" dominant-baseline="alphabetic" stroke-opacity="1" stroke-linejoin="bevel" stroke-miterlimit="10" stroke-width="3">10</text><text fill="rgb(37,37,37)" stroke="none" font-family="geogebra-sans-serif, sans-serif" font-size="12px" font-style="normal" font-weight="normal" text-decoration="normal" x="1107" y="335" text-anchor="start" dominant-baseline="alphabetic" fill-opacity="1">10</text><text fill="rgb(37,37,37)" stroke="none" font-family="geogebra-sans-serif, sans-serif" font-size="12px" font-style="normal" font-weight="normal" text-decoration="normal" x="1196" y="335" text-anchor="start" dominant-baseline="alphabetic" fill-opacity="1">12</text><text fill="none" stroke="rgb(255,255,255)" font-family="geogebra-sans-serif, sans-serif" font-size="12px" font-style="normal" font-weight="normal" text-decoration="normal" x="1196" y="335" text-anchor="start" dominant-baseline="alphabetic" stroke-opacity="1" stroke-linejoin="bevel" stroke-miterlimit="10" stroke-width="3">12</text><text fill="rgb(37,37,37)" stroke="none" font-family="geogebra-sans-serif, sans-serif" font-size="12px" font-style="normal" font-weight="normal" text-decoration="normal" x="1196" y="335" text-anchor="start" dominant-baseline="alphabetic" fill-opacity="1">12</text><text fill="rgb(37,37,37)" stroke="none" font-family="geogebra-sans-serif, sans-serif" font-size="12px" font-style="normal" font-weight="normal" text-decoration="normal" x="638" y="770" text-anchor="start" dominant-baseline="alphabetic" fill-opacity="1">–10</text><text fill="none" stroke="rgb(255,255,255)" font-family="geogebra-sans-serif, sans-serif" font-size="12px" font-style="normal" font-weight="normal" text-decoration="normal" x="638" y="770" text-anchor="start" dominant-baseline="alphabetic" stroke-opacity="1" stroke-linejoin="bevel" stroke-miterlimit="10" stroke-width="3">–10</text><text fill="rgb(37,37,37)" stroke="none" font-family="geogebra-sans-serif, sans-serif" font-size="12px" font-style="normal" font-weight="normal" text-decoration="normal" x="638" y="770" text-anchor="start" dominant-baseline="alphabetic" fill-opacity="1">–10</text><text fill="rgb(37,37,37)" stroke="none" font-family="geogebra-sans-serif, sans-serif" font-size="12px" font-style="normal" font-weight="normal" text-decoration="normal" x="645" y="681" text-anchor="start" dominant-baseline="alphabetic" fill-opacity="1">–8</text><text fill="none" stroke="rgb(255,255,255)" font-family="geogebra-sans-serif, sans-serif" font-size="12px" font-style="normal" font-weight="normal" text-decoration="normal" x="645" y="681" text-anchor="start" dominant-baseline="alphabetic" stroke-opacity="1" stroke-linejoin="bevel" stroke-miterlimit="10" stroke-width="3">–8</text><text fill="rgb(37,37,37)" stroke="none" font-family="geogebra-sans-serif, sans-serif" font-size="12px" font-style="normal" font-weight="normal" text-decoration="normal" x="645" y="681" text-anchor="start" dominant-baseline="alphabetic" fill-opacity="1">–8</text><text fill="rgb(37,37,37)" stroke="none" font-family="geogebra-sans-serif, sans-serif" font-size="12px" font-style="normal" font-weight="normal" text-decoration="normal" x="645" y="592" text-anchor="start" dominant-baseline="alphabetic" fill-opacity="1">–6</text><text fill="none" stroke="rgb(255,255,255)" font-family="geogebra-sans-serif, sans-serif" font-size="12px" font-style="normal" font-weight="normal" text-decoration="normal" x="645" y="592" text-anchor="start" dominant-baseline="alphabetic" stroke-opacity="1" stroke-linejoin="bevel" stroke-miterlimit="10" stroke-width="3">–6</text><text fill="rgb(37,37,37)" stroke="none" font-family="geogebra-sans-serif, sans-serif" font-size="12px" font-style="normal" font-weight="normal" text-decoration="normal" x="645" y="592" text-anchor="start" dominant-baseline="alphabetic" fill-opacity="1">–6</text><text fill="rgb(37,37,37)" stroke="none" font-family="geogebra-sans-serif, sans-serif" font-size="12px" font-style="normal" font-weight="normal" text-decoration="normal" x="645" y="503" text-anchor="start" dominant-baseline="alphabetic" fill-opacity="1">–4</text><text fill="none" stroke="rgb(255,255,255)" font-family="geogebra-sans-serif, sans-serif" font-size="12px" font-style="normal" font-weight="normal" text-decoration="normal" x="645" y="503" text-anchor="start" dominant-baseline="alphabetic" stroke-opacity="1" stroke-linejoin="bevel" stroke-miterlimit="10" stroke-width="3">–4</text><text fill="rgb(37,37,37)" stroke="none" font-family="geogebra-sans-serif, sans-serif" font-size="12px" font-style="normal" font-weight="normal" text-decoration="normal" x="645" y="503" text-anchor="start" dominant-baseline="alphabetic" fill-opacity="1">–4</text><text fill="rgb(37,37,37)" stroke="none" font-family="geogebra-sans-serif, sans-serif" font-size="12px" font-style="normal" font-weight="normal" text-decoration="normal" x="645" y="413" text-anchor="start" dominant-baseline="alphabetic" fill-opacity="1">–2</text><text fill="none" stroke="rgb(255,255,255)" font-family="geogebra-sans-serif, sans-serif" font-size="12px" font-style="normal" font-weight="normal" text-decoration="normal" x="645" y="413" text-anchor="start" dominant-baseline="alphabetic" stroke-opacity="1" stroke-linejoin="bevel" stroke-miterlimit="10" stroke-width="3">–2</text><text fill="rgb(37,37,37)" stroke="none" font-family="geogebra-sans-serif, sans-serif" font-size="12px" font-style="normal" font-weight="normal" text-decoration="normal" x="645" y="413" text-anchor="start" dominant-baseline="alphabetic" fill-opacity="1">–2</text><text fill="rgb(37,37,37)" stroke="none" font-family="geogebra-sans-serif, sans-serif" font-size="12px" font-style="normal" font-weight="normal" text-decoration="normal" x="651" y="235" text-anchor="start" dominant-baseline="alphabetic" fill-opacity="1">2</text><text fill="none" stroke="rgb(255,255,255)" font-family="geogebra-sans-serif, sans-serif" font-size="12px" font-style="normal" font-weight="normal" text-decoration="normal" x="651" y="235" text-anchor="start" dominant-baseline="alphabetic" stroke-opacity="1" stroke-linejoin="bevel" stroke-miterlimit="10" stroke-width="3">2</text><text fill="rgb(37,37,37)" stroke="none" font-family="geogebra-sans-serif, sans-serif" font-size="12px" font-style="normal" font-weight="normal" text-decoration="normal" x="651" y="235" text-anchor="start" dominant-baseline="alphabetic" fill-opacity="1">2</text><text fill="rgb(37,37,37)" stroke="none" font-family="geogebra-sans-serif, sans-serif" font-size="12px" font-style="normal" font-weight="normal" text-decoration="normal" x="651" y="146" text-anchor="start" dominant-baseline="alphabetic" fill-opacity="1">4</text><text fill="none" stroke="rgb(255,255,255)" font-family="geogebra-sans-serif, sans-serif" font-size="12px" font-style="normal" font-weight="normal" text-decoration="normal" x="651" y="146" text-anchor="start" dominant-baseline="alphabetic" stroke-opacity="1" stroke-linejoin="bevel" stroke-miterlimit="10" stroke-width="3">4</text><text fill="rgb(37,37,37)" stroke="none" font-family="geogebra-sans-serif, sans-serif" font-size="12px" font-style="normal" font-weight="normal" text-decoration="normal" x="651" y="146" text-anchor="start" dominant-baseline="alphabetic" fill-opacity="1">4</text><text fill="rgb(37,37,37)" stroke="none" font-family="geogebra-sans-serif, sans-serif" font-size="12px" font-style="normal" font-weight="normal" text-decoration="normal" x="651" y="56" text-anchor="start" dominant-baseline="alphabetic" fill-opacity="1">6</text><text fill="none" stroke="rgb(255,255,255)" font-family="geogebra-sans-serif, sans-serif" font-size="12px" font-style="normal" font-weight="normal" text-decoration="normal" x="651" y="56" text-anchor="start" dominant-baseline="alphabetic" stroke-opacity="1" stroke-linejoin="bevel" stroke-miterlimit="10" stroke-width="3">6</text><text fill="rgb(37,37,37)" stroke="none" font-family="geogebra-sans-serif, sans-serif" font-size="12px" font-style="normal" font-weight="normal" text-decoration="normal" x="651" y="56" text-anchor="start" dominant-baseline="alphabetic" fill-opacity="1">6</text><text fill="rgb(37,37,37)" stroke="none" font-family="geogebra-sans-serif, sans-serif" font-size="12px" font-style="normal" font-weight="normal" text-decoration="normal" x="651" y="335" text-anchor="start" dominant-baseline="alphabetic" fill-opacity="1">0</text><text fill="none" stroke="rgb(255,255,255)" font-family="geogebra-sans-serif, sans-serif" font-size="12px" font-style="normal" font-weight="normal" text-decoration="normal" x="651" y="335" text-anchor="start" dominant-baseline="alphabetic" stroke-opacity="1" stroke-linejoin="bevel" stroke-miterlimit="10" stroke-width="3">0</text><text fill="rgb(37,37,37)" stroke="none" font-family="geogebra-sans-serif, sans-serif" font-size="12px" font-style="normal" font-weight="normal" text-decoration="normal" x="651" y="335" text-anchor="start" dominant-baseline="alphabetic" fill-opacity="1">0</text><path fill="none" stroke="rgb(211,47,47)" paint-order="fill stroke markers" d=" M 0.5 230.39971056621937 L 0.5 230.39971056621937 L 0.5 230.39971056621937 L 1.5 230.39971056621937 L 1.5 230.39971056621937 L 2.4999999999998863 230.39971056621937 L 2.4999999999998863 230.39971056621937 L 3.5 230.39971056621937 L 3.5 230.39971056621937 L 4.499999999999886 230.39971056621937 L 4.499999999999886 230.39971056621937 L 5.5 230.39971056621937 L 5.5 230.39971056621937 L 6.499999999999886 230.39971056621937 L 6.499999999999886 230.39971056621937 L 7.5 230.39971056621937 L 7.5 230.39971056621937 L 8.5 230.39971056621937 L 8.5 230.39971056621937 L 9.5 230.39971056621937 L 9.5 230.39971056621937 L 10.5 230.39971056621937 L 10.5 230.39971056621937 L 11.5 230.39971056621937 L 11.5 230.39971056621937 L 12.5 230.39971056621937 L 12.5 230.39971056621937 L 13.5 230.39971056621937 L 13.5 230.39971056621937 L 14.5 230.39971056621937 L 14.5 230.39971056621937 L 15.5 230.39971056621937 L 15.5 230.39971056621937 L 16.5 230.39971056621937 L 16.5 230.39971056621937 L 17.5 230.39971056621937 L 17.5 230.39971056621937 L 18.5 230.39971056621937 L 18.5 230.39971056621937 L 19.499999999999886 230.39971056621937 L 19.499999999999886 230.39971056621937 L 20.5 230.39971056621937 L 20.5 230.39971056621937 L 21.499999999999886 230.39971056621937 L 21.499999999999886 230.39971056621937 L 22.5 230.39971056621937 L 22.5 230.39971056621937 L 23.499999999999886 230.39971056621937 L 23.499999999999886 230.39971056621937 L 24.5 230.39971056621937 L 24.5 230.39971056621937 L 25.499999999999886 230.39971056621937 L 25.499999999999886 230.39971056621937 L 26.5 230.39971056621937 L 26.5 230.39971056621937 L 27.5 230.39971056621937 L 27.5 230.39971056621937 L 28.5 230.39971056621937 L 28.5 230.39971056621937 L 29.5 230.39971056621937 L 29.5 230.39971056621937 L 30.5 230.39971056621937 L 30.5 230.39971056621937 L 31.5 230.39971056621937 L 31.5 230.39971056621937 L 32.5 230.39971056621937 L 32.5 230.39971056621937 L 33.5 230.39971056621937 L 33.5 230.39971056621937 L 34.5 230.39971056621937 L 34.5 230.39971056621937 L 35.5 230.39971056621937 L 35.5 230.39971056621937 L 36.5 230.39971056621937 L 36.5 230.39971056621937 L 37.5 230.39971056621937 L 37.5 230.39971056621937 L 38.499999999999886 230.39971056621937 L 38.499999999999886 230.39971056621937 L 39.5 230.39971056621937 L 39.5 230.39971056621937 L 40.499999999999886 230.39971056621937 L 40.499999999999886 230.39971056621937 L 41.5 230.39971056621937 L 41.5 230.39971056621937 L 42.499999999999886 230.39971056621937 L 42.499999999999886 230.39971056621937 L 43.5 230.39971056621937 L 43.5 230.39971056621937 L 44.5 230.39971056621937 L 44.5 230.39971056621937 L 45.5 230.39971056621937 L 45.5 230.39971056621937 L 46.5 230.39971056621937 L 46.5 230.39971056621937 L 47.5 230.39971056621937 L 47.5 230.39971056621937 L 48.5 230.39971056621937 L 48.5 230.39971056621937 L 49.5 230.39971056621937 L 49.5 230.39971056621937 L 50.5 230.39971056621937 L 50.5 230.39971056621937 L 51.5 230.39971056621937 L 51.5 230.39971056621937 L 52.5 230.39971056621937 L 52.5 230.39971056621937 L 53.5 230.39971056621937 L 53.5 230.39971056621937 L 54.5 230.39971056621937 L 54.5 230.39971056621937 L 55.499999999999886 230.39971056621937 L 55.499999999999886 230.39971056621937 L 56.5 230.39971056621937 L 56.5 230.39971056621937 L 57.499999999999886 230.39971056621937 L 57.499999999999886 230.39971056621937 L 58.5 230.39971056621937 L 58.5 230.39971056621937 L 59.499999999999886 230.39971056621937 L 59.499999999999886 230.39971056621937 L 60.5 230.39971056621937 L 60.5 230.39971056621937 L 61.499999999999886 230.39971056621937 L 61.499999999999886 230.39971056621937 L 62.5 230.39971056621937 L 62.5 230.39971056621937 L 63.5 230.39971056621937 L 63.5 230.39971056621937 L 64.5 230.39971056621937 L 64.5 230.39971056621937 L 65.5 230.39971056621937 L 65.5 230.39971056621937 L 66.5 230.39971056621937 L 66.5 230.39971056621937 L 67.5 230.39971056621937 L 67.5 230.39971056621937 L 68.5 230.39971056621937 L 68.5 230.39971056621937 L 69.5 230.39971056621937 L 69.5 230.39971056621937 L 70.5 230.39971056621937 L 70.5 230.39971056621937 L 71.5 230.39971056621937 L 71.5 230.39971056621937 L 72.5 230.39971056621937 L 72.5 230.39971056621937 L 73.5 230.39971056621937 L 73.5 230.39971056621937 L 74.49999999999989 230.39971056621937 L 74.49999999999989 230.39971056621937 L 75.5 230.39971056621937 L 75.5 230.39971056621937 L 76.49999999999989 230.39971056621937 L 76.49999999999989 230.39971056621937 L 77.5 230.39971056621937 L 77.5 230.39971056621937 L 78.49999999999989 230.39971056621937 L 78.49999999999989 230.39971056621937 L 79.5 230.39971056621937 L 79.5 230.39971056621937 L 80.5 230.39971056621937 L 80.5 230.39971056621937 L 81.5 230.39971056621937 L 81.5 230.39971056621937 L 82.5 230.39971056621937 L 82.5 230.39971056621937 L 83.5 230.39971056621937 L 83.5 230.39971056621937 L 84.5 230.39971056621937 L 84.5 230.39971056621937 L 85.5 230.39971056621937 L 85.5 230.39971056621937 L 86.5 230.39971056621937 L 86.5 230.39971056621937 L 87.5 230.39971056621937 L 87.5 230.39971056621937 L 88.5 230.39971056621937 L 88.5 230.39971056621937 L 89.5 230.39971056621937 L 89.5 230.39971056621937 L 90.5 230.39971056621937 L 90.5 230.39971056621937 L 91.5 230.39971056621937 L 91.5 230.39971056621937 L 92.5 230.39971056621937 L 92.5 230.39971056621937 L 93.49999999999989 230.39971056621937 L 93.49999999999989 230.39971056621937 L 94.5 230.39971056621937 L 94.5 230.39971056621937 L 95.49999999999989 230.39971056621937 L 95.49999999999989 230.39971056621937 L 96.5 230.39971056621937 L 96.5 230.39971056621937 L 97.49999999999989 230.39971056621937 L 97.49999999999989 230.39971056621937 L 98.5 230.39971056621937 L 98.5 230.39971056621937 L 99.5 230.39971056621937 L 99.5 230.39971056621937 L 100.5 230.39971056621937 L 100.5 230.39971056621937 L 101.5 230.39971056621937 L 101.5 230.39971056621937 L 102.5 230.39971056621937 L 102.5 230.39971056621937 L 103.5 230.39971056621937 L 103.5 230.39971056621937 L 104.5 230.39971056621937 L 104.5 230.39971056621937 L 105.5 230.39971056621937 L 105.5 230.39971056621937 L 106.5 230.39971056621937 L 106.5 230.39971056621937 L 107.5 230.39971056621937 L 107.5 230.39971056621937 L 108.5 230.39971056621937 L 108.5 230.39971056621937 L 109.5 230.39971056621937 L 109.5 230.39971056621937 L 110.49999999999989 230.39971056621937 L 110.49999999999989 230.39971056621937 L 111.5 230.39971056621937 L 111.5 230.39971056621937 L 112.49999999999989 230.39971056621937 L 112.49999999999989 230.39971056621937 L 113.5 230.39971056621937 L 113.5 230.39971056621937 L 114.49999999999989 230.39971056621937 L 114.49999999999989 230.39971056621937 L 115.5 230.39971056621937 L 115.5 230.39971056621937 L 116.5 230.39971056621937 L 116.5 230.39971056621937 L 117.5 230.39971056621937 L 117.5 230.39971056621937 L 118.5 230.39971056621937 L 118.5 230.39971056621937 L 119.5 230.39971056621937 L 119.5 230.39971056621937 L 120.5 230.39971056621937 L 120.5 230.39971056621937 L 121.5 230.39971056621937 L 121.5 230.39971056621937 L 122.5 230.39971056621937 L 122.5 230.39971056621937 L 123.5 230.39971056621937 L 123.5 230.39971056621937 L 124.5 230.39971056621937 L 124.5 230.39971056621937 L 125.5 230.39971056621937 L 125.5 230.39971056621937 L 126.5 230.39971056621937 L 126.5 230.39971056621937 L 127.5 230.39971056621937 L 127.5 230.39971056621937 L 128.5 230.39971056621937 L 128.5 230.39971056621937 L 129.4999999999999 230.39971056621937 L 129.4999999999999 230.39971056621937 L 130.5 230.39971056621937 L 130.5 230.39971056621937 L 131.4999999999999 230.39971056621937 L 131.4999999999999 230.39971056621937 L 132.5 230.39971056621937 L 132.5 230.39971056621937 L 133.5 230.39971056621937 L 133.5 230.39971056621937 L 134.5 230.39971056621937 L 134.5 230.39971056621937 L 135.5 230.39971056621937 L 135.5 230.39971056621937 L 136.5 230.39971056621937 L 136.5 230.39971056621937 L 137.5 230.39971056621937 L 137.5 230.39971056621937 L 138.5 230.39971056621937 L 138.5 230.39971056621937 L 139.5 230.39971056621937 L 139.5 230.39971056621937 L 140.5 230.39971056621937 L 140.5 230.39971056621937 L 141.5 230.39971056621937 L 141.5 230.39971056621937 L 142.5 230.39971056621937 L 142.5 230.39971056621937 L 143.5 230.39971056621937 L 143.5 230.39971056621937 L 144.5 230.39971056621937 L 144.5 230.39971056621937 L 145.5 230.39971056621937 L 145.5 230.39971056621937 L 146.5 230.39971056621937 L 146.5 230.39971056621937 L 147.5 230.39971056621937 L 147.5 230.39971056621937 L 148.4999999999999 230.39971056621937 L 148.4999999999999 230.39971056621937 L 149.5 230.39971056621937 L 149.5 230.39971056621937 L 150.4999999999999 230.39971056621937 L 150.4999999999999 230.39971056621937 L 151.5 230.39971056621937 L 151.5 230.39971056621937 L 152.5 230.39971056621937 L 152.5 230.39971056621937 L 153.5 230.39971056621937 L 153.5 230.39971056621937 L 154.49999999999994 230.39971056621937 L 154.49999999999994 230.39971056621937 L 155.5 230.39971056621937 L 155.5 230.39971056621937 L 156.49999999999994 230.39971056621937 L 156.49999999999994 230.39971056621937 L 157.5 230.39971056621937 L 157.5 230.39971056621937 L 158.49999999999994 230.39971056621937 L 158.49999999999994 230.39971056621937 L 159.5 230.39971056621937 L 159.5 230.39971056621937 L 160.49999999999994 230.39971056621937 L 160.49999999999994 230.39971056621937 L 161.5 230.39971056621937 L 161.5 230.39971056621937 L 162.49999999999994 230.39971056621937 L 162.49999999999994 230.39971056621937 L 163.5 230.39971056621937 L 163.5 230.39971056621937 L 164.5 230.39971056621937 L 164.5 230.39971056621937 L 165.49999999999994 230.39971056621937 L 165.49999999999994 230.39971056621937 L 166.5 230.39971056621937 L 166.5 230.39971056621937 L 167.49999999999994 230.39971056621937 L 167.49999999999994 230.39971056621937 L 168.5 230.39971056621937 L 168.5 230.39971056621937 L 169.49999999999994 230.39971056621937 L 169.49999999999994 230.39971056621937 L 170.5 230.39971056621937 L 170.5 230.39971056621937 L 171.49999999999994 230.39971056621937 L 171.49999999999994 230.39971056621937 L 172.5 230.39971056621937 L 172.5 230.39971056621937 L 173.49999999999994 230.39971056621937 L 173.49999999999994 230.39971056621937 L 174.5 230.39971056621937 L 174.5 230.39971056621937 L 175.49999999999994 230.39971056621937 L 175.49999999999994 230.39971056621937 L 176.5 230.39971056621937 L 176.5 230.39971056621937 L 177.49999999999994 230.39971056621937 L 177.49999999999994 230.39971056621937 L 178.5 230.39971056621937 L 178.5 230.39971056621937 L 179.49999999999994 230.39971056621937 L 179.49999999999994 230.39971056621937 L 180.5 230.39971056621937 L 180.5 230.39971056621937 L 181.49999999999994 230.39971056621937 L 181.49999999999994 230.39971056621937 L 182.5 230.39971056621937 L 182.5 230.39971056621937 L 183.5 230.39971056621937 L 183.5 230.39971056621937 L 184.49999999999994 230.39971056621937 L 184.49999999999994 230.39971056621937 L 185.5 230.39971056621937 L 185.5 230.39971056621937 L 186.49999999999994 230.39971056621937 L 186.49999999999994 230.39971056621937 L 187.5 230.39971056621937 L 187.5 230.39971056621937 L 188.49999999999994 230.39971056621937 L 188.49999999999994 230.39971056621937 L 189.5 230.39971056621937 L 189.5 230.39971056621937 L 190.49999999999994 230.39971056621937 L 190.49999999999994 230.39971056621937 L 191.5 230.39971056621937 L 191.5 230.39971056621937 L 192.49999999999994 230.39971056621937 L 192.49999999999994 230.39971056621937 L 193.5 230.39971056621937 L 193.5 230.39971056621937 L 194.49999999999994 230.39971056621937 L 194.49999999999994 230.39971056621937 L 195.5 230.39971056621937 L 195.5 230.39971056621937 L 196.49999999999994 230.39971056621937 L 196.49999999999994 230.39971056621937 L 197.5 230.39971056621937 L 197.5 230.39971056621937 L 198.49999999999994 230.39971056621937 L 198.49999999999994 230.39971056621937 L 199.5 230.39971056621937 L 199.5 230.39971056621937 L 200.5 230.39971056621937 L 200.5 230.39971056621937 L 201.5 230.39971056621937 L 201.5 230.39971056621937 L 202.5 230.39971056621937 L 202.5 230.39971056621937 L 203.49999999999994 230.39971056621937 L 203.49999999999994 230.39971056621937 L 204.5 230.39971056621937 L 204.5 230.39971056621937 L 205.49999999999994 230.39971056621937 L 205.49999999999994 230.39971056621937 L 206.5 230.39971056621937 L 206.5 230.39971056621937 L 207.49999999999994 230.39971056621937 L 207.49999999999994 230.39971056621937 L 208.5 230.39971056621937 L 208.5 230.39971056621937 L 209.49999999999994 230.39971056621937 L 209.49999999999994 230.39971056621937 L 210.5 230.39971056621937 L 210.5 230.39971056621937 L 211.49999999999994 230.39971056621937 L 211.49999999999994 230.39971056621937 L 212.5 230.39971056621937 L 212.5 230.39971056621937 L 213.49999999999994 230.39971056621937 L 213.49999999999994 230.39971056621937 L 214.5 230.39971056621937 L 214.5 230.39971056621937 L 215.49999999999994 230.39971056621937 L 215.49999999999994 230.39971056621937 L 216.5 230.39971056621937 L 216.5 230.39971056621937 L 217.49999999999994 230.39971056621937 L 217.49999999999994 230.39971056621937 L 218.5 230.39971056621937 L 218.5 230.39971056621937 L 219.5 230.39971056621937 L 219.5 230.39971056621937 L 220.49999999999994 230.39971056621937 L 220.49999999999994 230.39971056621937 L 221.5 230.39971056621937 L 221.5 230.39971056621937 L 222.49999999999994 230.39971056621937 L 222.49999999999994 230.39971056621937 L 223.5 230.39971056621937 L 223.5 230.39971056621937 L 224.49999999999994 230.39971056621937 L 224.49999999999994 230.39971056621937 L 225.5 230.39971056621937 L 225.5 230.39971056621937 L 226.49999999999994 230.39971056621937 L 226.49999999999994 230.39971056621937 L 227.5 230.39971056621937 L 227.5 230.39971056621937 L 228.49999999999994 230.39971056621937 L 228.49999999999994 230.39971056621937 L 229.5 230.39971056621937 L 229.5 230.39971056621937 L 230.49999999999994 230.39971056621937 L 230.49999999999994 230.39971056621937 L 231.5 230.39971056621937 L 231.5 230.39971056621937 L 232.49999999999994 230.39971056621937 L 232.49999999999994 230.39971056621937 L 233.5 230.39971056621937 L 233.5 230.39971056621937 L 234.49999999999994 230.39971056621937 L 234.49999999999994 230.39971056621937 L 235.5 230.39971056621937 L 235.5 230.39971056621937 L 236.5 230.39971056621937 L 236.5 230.39971056621937 L 237.5 230.39971056621937 L 237.5 230.39971056621937 L 238.5 230.39971056621937 L 238.5 230.39971056621937 L 239.49999999999994 230.39971056621937 L 239.49999999999994 230.39971056621937 L 240.5 230.39971056621937 L 240.5 230.39971056621937 L 241.49999999999994 230.39971056621937 L 241.49999999999994 230.39971056621937 L 242.5 230.39971056621937 L 242.5 230.39971056621937 L 243.49999999999994 230.39971056621937 L 243.49999999999994 230.39971056621937 L 244.5 230.39971056621937 L 244.5 230.39971056621937 L 245.49999999999994 230.39971056621937 L 245.49999999999994 230.39971056621937 L 246.5 230.39971056621937 L 246.5 230.39971056621937 L 247.49999999999994 230.39971056621937 L 247.49999999999994 230.39971056621937 L 248.5 230.39971056621937 L 248.5 230.39971056621937 L 249.49999999999994 230.39971056621937 L 249.49999999999994 230.39971056621937 L 250.5 230.39971056621937 L 250.5 230.39971056621937 L 251.49999999999994 230.39971056621937 L 251.49999999999994 230.39971056621937 L 252.5 230.39971056621937 L 252.5 230.39971056621937 L 253.49999999999994 230.39971056621937 L 253.49999999999994 230.39971056621937 L 254.5 230.39971056621937 L 254.5 230.39971056621937 L 255.5 230.39971056621937 L 255.5 230.39971056621937 L 256.49999999999994 230.39971056621937 L 256.49999999999994 230.39971056621937 L 257.5 230.39971056621937 L 257.5 230.39971056621937 L 258.49999999999994 230.39971056621937 L 258.49999999999994 230.39971056621937 L 259.5 230.39971056621937 L 259.5 230.39971056621937 L 260.49999999999994 230.39971056621937 L 260.49999999999994 230.39971056621937 L 261.5 230.39971056621937 L 261.5 230.39971056621937 L 262.49999999999994 230.39971056621937 L 262.49999999999994 230.39971056621937 L 263.5 230.39971056621937 L 263.5 230.39971056621937 L 264.49999999999994 230.39971056621937 L 264.49999999999994 230.39971056621937 L 265.5 230.39971056621937 L 265.5 230.39971056621937 L 266.49999999999994 230.39971056621937 L 266.49999999999994 230.39971056621937 L 267.5 230.39971056621937 L 267.5 230.39971056621937 L 268.49999999999994 230.39971056621937 L 268.49999999999994 230.39971056621937 L 269.5 230.39971056621937 L 269.5 230.39971056621937 L 270.49999999999994 230.39971056621937 L 270.49999999999994 230.39971056621937 L 271.5 230.39971056621937 L 271.5 230.39971056621937 L 272.5 230.39971056621937 L 272.5 230.39971056621937 L 273.5 230.39971056621937 L 273.5 230.39971056621937 L 274.5 230.39971056621937 L 274.5 230.39971056621937 L 275.49999999999994 230.39971056621937 L 275.49999999999994 230.39971056621937 L 276.5 230.39971056621937 L 276.5 230.39971056621937 L 277.49999999999994 230.39971056621937 L 277.49999999999994 230.39971056621937 L 278.5 230.39971056621937 L 278.5 230.39971056621937 L 279.49999999999994 230.39971056621937 L 279.49999999999994 230.39971056621937 L 280.5 230.39971056621937 L 280.5 230.39971056621937 L 281.49999999999994 230.39971056621937 L 281.49999999999994 230.39971056621937 L 282.5 230.39971056621937 L 282.5 230.39971056621937 L 283.49999999999994 230.39971056621937 L 283.49999999999994 230.39971056621937 L 284.49999999999994 230.39971056621937 L 284.49999999999994 230.39971056621937 L 285.49999999999994 230.39971056621937 L 285.49999999999994 230.39971056621937 L 286.5 230.39971056621937 L 286.5 230.39971056621937 L 287.49999999999994 230.39971056621937 L 287.49999999999994 230.39971056621937 L 288.49999999999994 230.39971056621937 L 288.49999999999994 230.39971056621937 L 289.49999999999994 230.39971056621937 L 289.49999999999994 230.39971056621937 L 290.5 230.39971056621937 L 290.5 230.39971056621937 L 291.5 230.39971056621937 L 291.5 230.39971056621937 L 292.49999999999994 230.39971056621937 L 292.49999999999994 230.39971056621937 L 293.5 230.39971056621937 L 293.5 230.39971056621937 L 294.5 230.39971056621937 L 294.5 230.39971056621937 L 295.5 230.39971056621937 L 295.5 230.39971056621937 L 296.49999999999994 230.39971056621937 L 296.49999999999994 230.39971056621937 L 297.5 230.39971056621937 L 297.5 230.39971056621937 L 298.50000000000006 230.39971056621937 L 298.50000000000006 230.39971056621937 L 299.5 230.39971056621937 L 299.5 230.39971056621937 L 300.49999999999994 230.39971056621937 L 300.49999999999994 230.39971056621937 L 301.5 230.39971056621937 L 301.5 230.39971056621937 L 302.49999999999994 230.39971056621937 L 302.49999999999994 230.39971056621937 L 303.49999999999994 230.39971056621937 L 303.49999999999994 230.39971056621937 L 304.49999999999994 230.39971056621937 L 304.49999999999994 230.39971056621937 L 305.5 230.39971056621937 L 305.5 230.39971056621937 L 306.49999999999994 230.39971056621937 L 306.49999999999994 230.39971056621937 L 307.49999999999994 230.39971056621937 L 307.49999999999994 230.39971056621937 L 308.5 230.39971056621937 L 308.5 230.39971056621937 L 309.5 230.39971056621937 L 309.5 230.39971056621937 L 310.5 230.39971056621937 L 310.5 230.39971056621937 L 311.5 230.39971056621937 L 311.5 230.39971056621937 L 312.5 230.39971056621937 L 312.5 230.39971056621937 L 313.5 230.39971056621937 L 313.5 230.39971056621937 L 314.5 230.39971056621937 L 314.5 230.39971056621937 L 315.5 230.39971056621937 L 315.5 230.39971056621937 L 316.5 230.39971056621937 L 316.5 230.39971056621937 L 317.5 230.39971056621937 L 317.5 230.39971056621937 L 318.5 230.39971056621937 L 318.5 230.39971056621937 L 319.5 230.39971056621937 L 319.5 230.39971056621937 L 320.5 230.39971056621937 L 320.5 230.39971056621937 L 321.49999999999994 230.39971056621937 L 321.49999999999994 230.39971056621937 L 322.49999999999994 230.39971056621937 L 322.49999999999994 230.39971056621937 L 323.49999999999994 230.39971056621937 L 323.49999999999994 230.39971056621937 L 324.49999999999994 230.39971056621937 L 324.49999999999994 230.39971056621937 L 325.49999999999994 230.39971056621937 L 325.49999999999994 230.39971056621937 L 326.5 230.39971056621937 L 326.5 230.39971056621937 L 327.5 230.39971056621937 L 327.5 230.39971056621937 L 328.5 230.39971056621937 L 328.5 230.39971056621937 L 329.5 230.39971056621937 L 329.5 230.39971056621937 L 330.5 230.39971056621937 L 330.5 230.39971056621937 L 331.5 230.39971056621937 L 331.5 230.39971056621937 L 332.5 230.39971056621937 L 332.5 230.39971056621937 L 333.5 230.39971056621937 L 333.5 230.39971056621937 L 334.5 230.39971056621937 L 334.5 230.39971056621937 L 335.5 230.39971056621937 L 335.5 230.39971056621937 L 336.5 230.39971056621937 L 336.5 230.39971056621937 L 337.5 230.39971056621937 L 337.5 230.39971056621937 L 338.5 230.39971056621937 L 338.5 230.39971056621937 L 339.49999999999994 230.39971056621937 L 339.49999999999994 230.39971056621937 L 340.49999999999994 230.39971056621937 L 340.49999999999994 230.39971056621937 L 341.49999999999994 230.39971056621937 L 341.49999999999994 230.39971056621937 L 342.49999999999994 230.39971056621937 L 342.49999999999994 230.39971056621937 L 343.49999999999994 230.39971056621937 L 343.49999999999994 230.39971056621937 L 344.5 230.39971056621937 L 344.5 230.39971056621937 L 345.5 230.39971056621937 L 345.5 230.39971056621937 L 346.5 230.39971056621937 L 346.5 230.39971056621937 L 347.5 230.39971056621937 L 347.5 230.39971056621937 L 348.5 230.39971056621937 L 348.5 230.39971056621937 L 349.5 230.39971056621937 L 349.5 230.39971056621937 L 350.5 230.39971056621937 L 350.5 230.39971056621937 L 351.5 230.39971056621937 L 351.5 230.39971056621937 L 352.5 230.39971056621937 L 352.5 230.39971056621937 L 353.5 230.39971056621937 L 353.5 230.39971056621937 L 354.5 230.39971056621937 L 354.5 230.39971056621937 L 355.5 230.39971056621937 L 355.5 230.39971056621937 L 356.5 230.39971056621937 L 356.5 230.39971056621937 L 357.49999999999994 230.39971056621937 L 357.49999999999994 230.39971056621937 L 358.49999999999994 230.39971056621937 L 358.49999999999994 230.39971056621937 L 359.49999999999994 230.39971056621937 L 359.49999999999994 230.39971056621937 L 360.49999999999994 230.39971056621937 L 360.49999999999994 230.39971056621937 L 361.49999999999994 230.39971056621937 L 361.49999999999994 230.39971056621937 L 362.5 230.39971056621937 L 362.5 230.39971056621937 L 363.5 230.39971056621937 L 363.5 230.39971056621937 L 364.5 230.39971056621937 L 364.5 230.39971056621937 L 365.5 230.39971056621937 L 365.5 230.39971056621937 L 366.5 230.39971056621937 L 366.5 230.39971056621937 L 367.5 230.39971056621937 L 367.5 230.39971056621937 L 368.5 230.39971056621937 L 368.5 230.39971056621937 L 369.5 230.39971056621937 L 369.5 230.39971056621937 L 370.5 230.39971056621937 L 370.5 230.39971056621937 L 371.5 230.39971056621937 L 371.5 230.39971056621937 L 372.5 230.39971056621937 L 372.5 230.39971056621937 L 373.5 230.39971056621937 L 373.5 230.39971056621937 L 374.5 230.39971056621937 L 374.5 230.39971056621937 L 375.49999999999994 230.39971056621937 L 375.49999999999994 230.39971056621937 L 376.49999999999994 230.39971056621937 L 376.49999999999994 230.39971056621937 L 377.49999999999994 230.39971056621937 L 377.49999999999994 230.39971056621937 L 378.49999999999994 230.39971056621937 L 378.49999999999994 230.39971056621937 L 379.49999999999994 230.39971056621937 L 379.49999999999994 230.39971056621937 L 380.5 230.39971056621937 L 380.5 230.39971056621937 L 381.5 230.39971056621937 L 381.5 230.39971056621937 L 382.5 230.39971056621937 L 382.5 230.39971056621937 L 383.5 230.39971056621937 L 383.5 230.39971056621937 L 384.5 230.39971056621937 L 384.5 230.39971056621937 L 385.5 230.39971056621937 L 385.5 230.39971056621937 L 386.5 230.39971056621937 L 386.5 230.39971056621937 L 387.5 230.39971056621937 L 387.5 230.39971056621937 L 388.5 230.39971056621937 L 388.5 230.39971056621937 L 389.5 230.39971056621937 L 389.5 230.39971056621937 L 390.5 230.39971056621937 L 390.5 230.39971056621937 L 391.5 230.39971056621937 L 391.5 230.39971056621937 L 392.5 230.39971056621937 L 392.5 230.39971056621937 L 393.5 230.39971056621937 L 393.5 230.39971056621937 L 394.49999999999994 230.39971056621937 L 394.49999999999994 230.39971056621937 L 395.49999999999994 230.39971056621937 L 395.49999999999994 230.39971056621937 L 396.49999999999994 230.39971056621937 L 396.49999999999994 230.39971056621937 L 397.49999999999994 230.39971056621937 L 397.49999999999994 230.39971056621937 L 398.5 230.39971056621937 L 398.5 230.39971056621937 L 399.5 230.39971056621937 L 399.5 230.39971056621937 L 400.5 230.39971056621937 L 400.5 230.39971056621937 L 401.5 230.39971056621937 L 401.5 230.39971056621937 L 402.5 230.39971056621937 L 402.5 230.39971056621937 L 403.5 230.39971056621937 L 403.5 230.39971056621937 L 404.5 230.39971056621937 L 404.5 230.39971056621937 L 405.5 230.39971056621937 L 405.5 230.39971056621937 L 406.5 230.39971056621937 L 406.5 230.39971056621937 L 407.5 230.39971056621937 L 407.5 230.39971056621937 L 408.5 230.39971056621937 L 408.5 230.39971056621937 L 409.5 230.39971056621937 L 409.5 230.39971056621937 L 410.5 230.39971056621937 L 410.5 230.39971056621937 L 411.5 230.39971056621937 L 411.5 230.39971056621937 L 412.5 230.39971056621937 L 412.5 230.39971056621937 L 413.5 230.39971056621937 L 413.5 230.39971056621937 L 414.5 230.39971056621937 L 414.5 230.39971056621937 L 415.5 230.39971056621937 L 415.5 230.39971056621937 L 416.5 230.39971056621937 L 416.5 230.39971056621937 L 417.5 230.39971056621937 L 417.5 230.39971056621937 L 418.5 230.39971056621937 L 418.5 230.39971056621937 L 419.5 230.39971056621937 L 419.5 230.39971056621937 L 420.5 230.39971056621937 L 420.5 230.39971056621937 L 421.5 230.39971056621937 L 421.5 230.39971056621937 L 422.5 230.39971056621937 L 422.5 230.39971056621937 L 423.5 230.39971056621937 L 423.5 230.39971056621937 L 424.5 230.39971056621937 L 424.5 230.39971056621937 L 425.5 230.39971056621937 L 425.5 230.39971056621937 L 426.5 230.39971056621937 L 426.5 230.39971056621937 L 427.5 230.39971056621937 L 427.5 230.39971056621937 L 428.5 230.39971056621937 L 428.5 230.39971056621937 L 429.5 230.39971056621937 L 429.5 230.39971056621937 L 430.5 230.39971056621937 L 430.5 230.39971056621937 L 431.5 230.39971056621937 L 431.5 230.39971056621937 L 432.5 230.39971056621937 L 432.5 230.39971056621937 L 433.5 230.39971056621937 L 433.5 230.39971056621937 L 434.5 230.39971056621937 L 434.5 230.39971056621937 L 435.5 230.39971056621937 L 435.5 230.39971056621937 L 436.5 230.39971056621937 L 436.5 230.39971056621937 L 437.5 230.39971056621937 L 437.5 230.39971056621937 L 438.5 230.39971056621937 L 438.5 230.39971056621937 L 439.5 230.39971056621937 L 439.5 230.39971056621937 L 440.5 230.39971056621937 L 440.5 230.39971056621937 L 441.5 230.39971056621937 L 441.5 230.39971056621937 L 442.5 230.39971056621937 L 442.5 230.39971056621937 L 443.5 230.39971056621937 L 443.5 230.39971056621937 L 444.5 230.39971056621937 L 444.5 230.39971056621937 L 445.5 230.39971056621937 L 445.5 230.39971056621937 L 446.5 230.39971056621937 L 446.5 230.39971056621937 L 447.5 230.39971056621937 L 447.5 230.39971056621937 L 448.5 230.39971056621937 L 448.5 230.39971056621937 L 449.5 230.39971056621937 L 449.5 230.39971056621937 L 450.5 230.39971056621937 L 450.5 230.39971056621937 L 451.5 230.39971056621937 L 451.5 230.39971056621937 L 452.5 230.39971056621937 L 452.5 230.39971056621937 L 453.5 230.39971056621937 L 453.5 230.39971056621937 L 454.5 230.39971056621937 L 454.5 230.39971056621937 L 455.5 230.39971056621937 L 455.5 230.39971056621937 L 456.5 230.39971056621937 L 456.5 230.39971056621937 L 457.5 230.39971056621937 L 457.5 230.39971056621937 L 458.5 230.39971056621937 L 458.5 230.39971056621937 L 459.5 230.39971056621937 L 459.5 230.39971056621937 L 460.5 230.39971056621937 L 460.5 230.39971056621937 L 461.5 230.39971056621937 L 461.5 230.39971056621937 L 462.5 230.39971056621937 L 462.5 230.39971056621937 L 463.5 230.39971056621937 L 463.5 230.39971056621937 L 464.5 230.39971056621937 L 464.5 230.39971056621937 L 465.5 230.39971056621937 L 465.5 230.39971056621937 L 466.5 230.39971056621937 L 466.5 230.39971056621937 L 467.5 230.39971056621937 L 467.5 230.39971056621937 L 468.5 230.39971056621937 L 468.5 230.39971056621937 L 469.5 230.39971056621937 L 469.5 230.39971056621937 L 470.5 230.39971056621937 L 470.5 230.39971056621937 L 471.5 230.39971056621937 L 471.5 230.39971056621937 L 472.5 230.39971056621937 L 472.5 230.39971056621937 L 473.5 230.39971056621937 L 473.5 230.39971056621937 L 474.5 230.39971056621937 L 474.5 230.39971056621937 L 475.5 230.39971056621937 L 475.5 230.39971056621937 L 476.5 230.39971056621937 L 476.5 230.39971056621937 L 477.5 230.39971056621937 L 477.5 230.39971056621937 L 478.5 230.39971056621937 L 478.5 230.39971056621937 L 479.5 230.39971056621937 L 479.5 230.39971056621937 L 480.5 230.39971056621937 L 480.5 230.39971056621937 L 481.5 230.39971056621937 L 481.5 230.39971056621937 L 482.5 230.39971056621937 L 482.5 230.39971056621937 L 483.5 230.39971056621937 L 483.5 230.39971056621937 L 484.5 230.39971056621937 L 484.5 230.39971056621937 L 485.5 230.39971056621937 L 485.5 230.39971056621937 L 486.5 230.39971056621937 L 486.5 230.39971056621937 L 487.5 230.39971056621937 L 487.5 230.39971056621937 L 488.5 230.39971056621937 L 488.5 230.39971056621937 L 489.5 230.39971056621937 L 489.5 230.39971056621937 L 490.5 230.39971056621937 L 490.5 230.39971056621937 L 491.5 230.39971056621937 L 491.5 230.39971056621937 L 492.5 230.39971056621937 L 492.5 230.39971056621937 L 493.5 230.39971056621937 L 493.5 230.39971056621937 L 494.5 230.39971056621937 L 494.5 230.39971056621937 L 495.5 230.39971056621937 L 495.5 230.39971056621937 L 496.5 230.39971056621937 L 496.5 230.39971056621937 L 497.5 230.39971056621937 L 497.5 230.39971056621937 L 498.5 230.39971056621937 L 498.5 230.39971056621937 L 499.5 230.39971056621937 L 499.5 230.39971056621937 L 500.5 230.39971056621937 L 500.5 230.39971056621937 L 501.5 230.39971056621937 L 501.5 230.39971056621937 L 502.5 230.39971056621937 L 502.5 230.39971056621937 L 503.5 230.39971056621937 L 503.5 230.39971056621937 L 504.5 230.39971056621937 L 504.5 230.39971056621937 L 505.5 230.39971056621937 L 505.5 230.39971056621937 L 506.5 230.39971056621937 L 506.5 230.39971056621937 L 507.5 230.39971056621937 L 507.5 230.39971056621937 L 508.5 230.39971056621937 L 508.5 230.39971056621937 L 509.5 230.39971056621937 L 509.5 230.39971056621937 L 510.5 230.39971056621937 L 510.5 230.39971056621937 L 511.5 230.39971056621937 L 511.5 230.39971056621937 L 512.5 230.39971056621937 L 512.5 230.39971056621937 L 513.5 230.39971056621937 L 513.5 230.39971056621937 L 514.5 230.39971056621937 L 514.5 230.39971056621937 L 515.5 230.39971056621937 L 515.5 230.39971056621937 L 516.5 230.39971056621937 L 516.5 230.39971056621937 L 517.5 230.39971056621937 L 517.5 230.39971056621937 L 518.5 230.39971056621937 L 518.5 230.39971056621937 L 519.5 230.39971056621937 L 519.5 230.39971056621937 L 520.5 230.39971056621937 L 520.5 230.39971056621937 L 521.5 230.39971056621937 L 521.5 230.39971056621937 L 522.5 230.39971056621937 L 522.5 230.39971056621937 L 523.5 230.39971056621937 L 523.5 230.39971056621937 L 524.5 230.39971056621937 L 524.5 230.39971056621937 L 525.5 230.39971056621937 L 525.5 230.39971056621937 L 526.5 230.39971056621937 L 526.5 230.39971056621937 L 527.5 230.39971056621937 L 527.5 230.39971056621937 L 528.5 230.39971056621937 L 528.5 230.39971056621937 L 529.5 230.39971056621937 L 529.5 230.39971056621937 L 530.5 230.39971056621937 L 530.5 230.39971056621937 L 531.5 230.39971056621937 L 531.5 230.39971056621937 L 532.5 230.39971056621937 L 532.5 230.39971056621937 L 533.5 230.39971056621937 L 533.5 230.39971056621937 L 534.5 230.39971056621937 L 534.5 230.39971056621937 L 535.5 230.39971056621937 L 535.5 230.39971056621937 L 536.5 230.39971056621937 L 536.5 230.39971056621937 L 537.5 230.39971056621937 L 537.5 230.39971056621937 L 538.5 230.39971056621937 L 538.5 230.39971056621937 L 539.5 230.39971056621937 L 539.5 230.39971056621937 L 540.5 230.39971056621937 L 540.5 230.39971056621937 L 541.5 230.39971056621937 L 541.5 230.39971056621937 L 542.5 230.39971056621937 L 542.5 230.39971056621937 L 543.5 230.39971056621937 L 543.5 230.39971056621937 L 544.5 230.39971056621937 L 544.5 230.39971056621937 L 545.5 230.39971056621937 L 545.5 230.39971056621937 L 546.5 230.39971056621937 L 546.5 230.39971056621937 L 547.5 230.39971056621937 L 547.5 230.39971056621937 L 548.5 230.39971056621937 L 548.5 230.39971056621937 L 549.5 230.39971056621937 L 549.5 230.39971056621937 L 550.5 230.39971056621937 L 550.5 230.39971056621937 L 551.5 230.39971056621937 L 551.5 230.39971056621937 L 552.5 230.39971056621937 L 552.5 230.39971056621937 L 553.5 230.39971056621937 L 553.5 230.39971056621937 L 554.5 230.39971056621937 L 554.5 230.39971056621937 L 555.5 230.39971056621937 L 555.5 230.39971056621937 L 556.5 230.39971056621937 L 556.5 230.39971056621937 L 557.5 230.39971056621937 L 557.5 230.39971056621937 L 558.5 230.39971056621937 L 558.5 230.39971056621937 L 559.5 230.39971056621937 L 559.5 230.39971056621937 L 560.5 230.39971056621937 L 560.5 230.39971056621937 L 561.5 230.39971056621937 L 561.5 230.39971056621937 L 562.5 230.39971056621937 L 562.5 230.39971056621937 L 563.5 230.39971056621937 L 563.5 230.39971056621937 L 564.5 230.39971056621937 L 564.5 230.39971056621937 L 565.5 230.39971056621937 L 565.5 230.39971056621937 L 566.5 230.39971056621937 L 566.5 230.39971056621937 L 567.5 230.39971056621937 L 567.5 230.39971056621937 L 568.5 230.39971056621937 L 568.5 230.39971056621937 L 569.5 230.39971056621937 L 569.5 230.39971056621937 L 570.5 230.39971056621937 L 570.5 230.39971056621937 L 571.5 230.39971056621937 L 571.5 230.39971056621937 L 572.5 230.39971056621937 L 572.5 230.39971056621937 L 573.5 230.39971056621937 L 573.5 230.39971056621937 L 574.5 230.39971056621937 L 574.5 230.39971056621937 L 575.5 230.39971056621937 L 575.5 230.39971056621937 L 576.5 230.39971056621937 L 576.5 230.39971056621937 L 577.5 230.39971056621937 L 577.5 230.39971056621937 L 578.5 230.39971056621937 L 578.5 230.39971056621937 L 579.5 230.39971056621937 L 579.5 230.39971056621937 L 580.5 230.39971056621937 L 580.5 230.39971056621937 L 581.5 230.39971056621937 L 581.5 230.39971056621937 L 582.5 230.39971056621937 L 582.5 230.39971056621937 L 583.5 230.39971056621937 L 583.5 230.39971056621937 L 584.5 230.39971056621937 L 584.5 230.39971056621937 L 585.5 230.39971056621937 L 585.5 230.39971056621937 L 586.5 230.39971056621937 L 586.5 230.39971056621937 L 587.5 230.39971056621937 L 587.5 230.39971056621937 L 588.5 230.39971056621937 L 588.5 230.39971056621937 L 589.5 230.39971056621937 L 589.5 230.39971056621937 L 590.5 230.39971056621937 L 590.5 230.39971056621937 L 591.5 230.39971056621937 L 591.5 230.39971056621937 L 592.5 230.39971056621937 L 592.5 230.39971056621937 L 593.5 230.39971056621937 L 593.5 230.39971056621937 L 594.5 230.39971056621937 L 594.5 230.39971056621937 L 595.5 230.39971056621937 L 595.5 230.39971056621937 L 596.5 230.39971056621937 L 596.5 230.39971056621937 L 597.5 230.39971056621937 L 597.5 230.39971056621937 L 598.5 230.39971056621937 L 598.5 230.39971056621937 L 599.5 230.39971056621937 L 599.5 230.39971056621937 L 600.5 230.39971056621937 L 600.5 230.39971056621937 L 601.5 230.39971056621937 L 601.5 230.39971056621937 L 602.5 230.39971056621937 L 602.5 230.39971056621937 L 603.5 230.39971056621937 L 603.5 230.39971056621937 L 604.5 230.39971056621937 L 604.5 230.39971056621937 L 605.5 230.39971056621937 L 605.5 230.39971056621937 L 606.5 230.39971056621937 L 606.5 230.39971056621937 L 607.5 230.39971056621937 L 607.5 230.39971056621937 L 608.5 230.39971056621937 L 608.5 230.39971056621937 L 609.5 230.39971056621937 L 609.5 230.39971056621937 L 610.5 230.39971056621937 L 610.5 230.39971056621937 L 611.5 230.39971056621937 L 611.5 230.39971056621937 L 612.5 230.39971056621937 L 612.5 230.39971056621937 L 613.5 230.39971056621937 L 613.5 230.39971056621937 L 614.5 230.39971056621937 L 614.5 230.39971056621937 L 615.5 230.39971056621937 L 615.5 230.39971056621937 L 616.5 230.39971056621937 L 616.5 230.39971056621937 L 617.5 230.39971056621937 L 617.5 230.39971056621937 L 618.5 230.39971056621937 L 618.5 230.39971056621937 L 619.5 230.39971056621937 L 619.5 230.39971056621937 L 620.5 230.39971056621937 L 620.5 230.39971056621937 L 621.5 230.39971056621937 L 621.5 230.39971056621937 L 622.5 230.39971056621937 L 622.5 230.39971056621937 L 623.5 230.39971056621937 L 623.5 230.39971056621937 L 624.5 230.39971056621937 L 624.5 230.39971056621937 L 625.5 230.39971056621937 L 625.5 230.39971056621937 L 626.5 230.39971056621937 L 626.5 230.39971056621937 L 627.5 230.39971056621937 L 627.5 230.39971056621937 L 628.5 230.39971056621937 L 628.5 230.39971056621937 L 629.5 230.39971056621937 L 629.5 230.39971056621937 L 630.5 230.39971056621937 L 630.5 230.39971056621937 L 631.5 230.39971056621937 L 631.5 230.39971056621937 L 632.5 230.39971056621937 L 632.5 230.39971056621937 L 633.5 230.39971056621937 L 633.5 230.39971056621937 L 634.5 230.39971056621937 L 634.5 230.39971056621937 L 635.5 230.39971056621937 L 635.5 230.39971056621937 L 636.5 230.39971056621937 L 636.5 230.39971056621937 L 637.5 230.39971056621937 L 637.5 230.39971056621937 L 638.5 230.39971056621937 L 638.5 230.39971056621937 L 639.5 230.39971056621937 L 639.5 230.39971056621937 L 640.5 230.39971056621937 L 640.5 230.39971056621937 L 641.5 230.39971056621937 L 641.5 230.39971056621937 L 642.5 230.39971056621937 L 642.5 230.39971056621937 L 643.5 230.39971056621937 L 643.5 230.39971056621937 L 644.5 230.39971056621937 L 644.5 230.39971056621937 L 645.5 230.39971056621937 L 645.5 230.39971056621937 L 646.5 230.39971056621937 L 646.5 230.39971056621937 L 647.5 230.39971056621937 L 647.5 230.39971056621937 L 648.5 230.39971056621937 L 648.5 230.39971056621937 L 649.5 230.39971056621937 L 649.5 230.39971056621937 L 650.5 230.39971056621937 L 650.5 230.39971056621937 L 651.5 230.39971056621937 L 651.5 230.39971056621937 L 652.5 230.39971056621937 L 652.5 230.39971056621937 L 653.5 230.39971056621937 L 653.5 230.39971056621937 L 654.5 230.39971056621937 L 654.5 230.39971056621937 L 655.5 230.39971056621937 L 655.5 230.39971056621937 L 656.5 230.39971056621937 L 656.5 230.39971056621937 L 657.5 230.39971056621937 L 657.5 230.39971056621937 L 658.5 230.39971056621937 L 658.5 230.39971056621937 L 659.5 230.39971056621937 L 659.5 230.39971056621937 L 660.5 230.39971056621937 L 660.5 230.39971056621937 L 661.5 230.39971056621937 L 661.5 230.39971056621937 L 662.5 230.39971056621937 L 662.5 230.39971056621937 L 663.5 230.39971056621937 L 663.5 230.39971056621937 L 664.5 230.39971056621937 L 664.5 230.39971056621937 L 665.5 230.39971056621937 L 665.5 230.39971056621937 L 666.5 230.39971056621937 L 666.5 230.39971056621937 L 667.5 230.39971056621937 L 667.5 230.39971056621937 L 668.5 230.39971056621937 L 668.5 230.39971056621937 L 669.5 230.39971056621937 L 669.5 230.39971056621937 L 670.5 230.39971056621937 L 670.5 230.39971056621937 L 671.5 230.39971056621937 L 671.5 230.39971056621937 L 672.5 230.39971056621937 L 672.5 230.39971056621937 L 673.5 230.39971056621937 L 673.5 230.39971056621937 L 674.5 230.39971056621937 L 674.5 230.39971056621937 L 675.5 230.39971056621937 L 675.5 230.39971056621937 L 676.5 230.39971056621937 L 676.5 230.39971056621937 L 677.5 230.39971056621937 L 677.5 230.39971056621937 L 678.5 230.39971056621937 L 678.5 230.39971056621937 L 679.5 230.39971056621937 L 679.5 230.39971056621937 L 680.5 230.39971056621937 L 680.5 230.39971056621937 L 681.5 230.39971056621937 L 681.5 230.39971056621937 L 682.5 230.39971056621937 L 682.5 230.39971056621937 L 683.5 230.39971056621937 L 683.5 230.39971056621937 L 684.5 230.39971056621937 L 684.5 230.39971056621937 L 685.5 230.39971056621937 L 685.5 230.39971056621937 L 686.5 230.39971056621937 L 686.5 230.39971056621937 L 687.5 230.39971056621937 L 687.5 230.39971056621937 L 688.5 230.39971056621937 L 688.5 230.39971056621937 L 689.5 230.39971056621937 L 689.5 230.39971056621937 L 690.5 230.39971056621937 L 690.5 230.39971056621937 L 691.5 230.39971056621937 L 691.5 230.39971056621937 L 692.5 230.39971056621937 L 692.5 230.39971056621937 L 693.5 230.39971056621937 L 693.5 230.39971056621937 L 694.5 230.39971056621937 L 694.5 230.39971056621937 L 695.5 230.39971056621937 L 695.5 230.39971056621937 L 696.5 230.39971056621937 L 696.5 230.39971056621937 L 697.5 230.39971056621937 L 697.5 230.39971056621937 L 698.5 230.39971056621937 L 698.5 230.39971056621937 L 699.5 230.39971056621937 L 699.5 230.39971056621937 L 700.5 230.39971056621937 L 700.5 230.39971056621937 L 701.5 230.39971056621937 L 701.5 230.39971056621937 L 702.5 230.39971056621937 L 702.5 230.39971056621937 L 703.5 230.39971056621937 L 703.5 230.39971056621937 L 704.5 230.39971056621937 L 704.5 230.39971056621937 L 705.5 230.39971056621937 L 705.5 230.39971056621937 L 706.5 230.39971056621937 L 706.5 230.39971056621937 L 707.5 230.39971056621937 L 707.5 230.39971056621937 L 708.5 230.39971056621937 L 708.5 230.39971056621937 L 709.5 230.39971056621937 L 709.5 230.39971056621937 L 710.5 230.39971056621937 L 710.5 230.39971056621937 L 711.5 230.39971056621937 L 711.5 230.39971056621937 L 712.5 230.39971056621937 L 712.5 230.39971056621937 L 713.5 230.39971056621937 L 713.5 230.39971056621937 L 714.5 230.39971056621937 L 714.5 230.39971056621937 L 715.5 230.39971056621937 L 715.5 230.39971056621937 L 716.5 230.39971056621937 L 716.5 230.39971056621937 L 717.5 230.39971056621937 L 717.5 230.39971056621937 L 718.5 230.39971056621937 L 718.5 230.39971056621937 L 719.5 230.39971056621937 L 719.5 230.39971056621937 L 720.5 230.39971056621937 L 720.5 230.39971056621937 L 721.5 230.39971056621937 L 721.5 230.39971056621937 L 722.5 230.39971056621937 L 722.5 230.39971056621937 L 723.5 230.39971056621937 L 723.5 230.39971056621937 L 724.5 230.39971056621937 L 724.5 230.39971056621937 L 725.5 230.39971056621937 L 725.5 230.39971056621937 L 726.5 230.39971056621937 L 726.5 230.39971056621937 L 727.5 230.39971056621937 L 727.5 230.39971056621937 L 728.5 230.39971056621937 L 728.5 230.39971056621937 L 729.5 230.39971056621937 L 729.5 230.39971056621937 L 730.5 230.39971056621937 L 730.5 230.39971056621937 L 731.5 230.39971056621937 L 731.5 230.39971056621937 L 732.5 230.39971056621937 L 732.5 230.39971056621937 L 733.5 230.39971056621937 L 733.5 230.39971056621937 L 734.5 230.39971056621937 L 734.5 230.39971056621937 L 735.5 230.39971056621937 L 735.5 230.39971056621937 L 736.5 230.39971056621937 L 736.5 230.39971056621937 L 737.5 230.39971056621937 L 737.5 230.39971056621937 L 738.5 230.39971056621937 L 738.5 230.39971056621937 L 739.5 230.39971056621937 L 739.5 230.39971056621937 L 740.5 230.39971056621937 L 740.5 230.39971056621937 L 741.5 230.39971056621937 L 741.5 230.39971056621937 L 742.5 230.39971056621937 L 742.5 230.39971056621937 L 743.5 230.39971056621937 L 743.5 230.39971056621937 L 744.5 230.39971056621937 L 744.5 230.39971056621937 L 745.5 230.39971056621937 L 745.5 230.39971056621937 L 746.5 230.39971056621937 L 746.5 230.39971056621937 L 747.5 230.39971056621937 L 747.5 230.39971056621937 L 748.5 230.39971056621937 L 748.5 230.39971056621937 L 749.5 230.39971056621937 L 749.5 230.39971056621937 L 750.5 230.39971056621937 L 750.5 230.39971056621937 L 751.5 230.39971056621937 L 751.5 230.39971056621937 L 752.5 230.39971056621937 L 752.5 230.39971056621937 L 753.5 230.39971056621937 L 753.5 230.39971056621937 L 754.5 230.39971056621937 L 754.5 230.39971056621937 L 755.5 230.39971056621937 L 755.5 230.39971056621937 L 756.5 230.39971056621937 L 756.5 230.39971056621937 L 757.5 230.39971056621937 L 757.5 230.39971056621937 L 758.5 230.39971056621937 L 758.5 230.39971056621937 L 759.5 230.39971056621937 L 759.5 230.39971056621937 L 760.5 230.39971056621937 L 760.5 230.39971056621937 L 761.5 230.39971056621937 L 761.5 230.39971056621937 L 762.5 230.39971056621937 L 762.5 230.39971056621937 L 763.5 230.39971056621937 L 763.5 230.39971056621937 L 764.5 230.39971056621937 L 764.5 230.39971056621937 L 765.5 230.39971056621937 L 765.5 230.39971056621937 L 766.5 230.39971056621937 L 766.5 230.39971056621937 L 767.5 230.39971056621937 L 767.5 230.39971056621937 L 768.5 230.39971056621937 L 768.5 230.39971056621937 L 769.5 230.39971056621937 L 769.5 230.39971056621937 L 770.5 230.39971056621937 L 770.5 230.39971056621937 L 771.5 230.39971056621937 L 771.5 230.39971056621937 L 772.5 230.39971056621937 L 772.5 230.39971056621937 L 773.5 230.39971056621937 L 773.5 230.39971056621937 L 774.5 230.39971056621937 L 774.5 230.39971056621937 L 775.5 230.39971056621937 L 775.5 230.39971056621937 L 776.5 230.39971056621937 L 776.5 230.39971056621937 L 777.5 230.39971056621937 L 777.5 230.39971056621937 L 778.5 230.39971056621937 L 778.5 230.39971056621937 L 779.5 230.39971056621937 L 779.5 230.39971056621937 L 780.5 230.39971056621937 L 780.5 230.39971056621937 L 781.5 230.39971056621937 L 781.5 230.39971056621937 L 782.5 230.39971056621937 L 782.5 230.39971056621937 L 783.5 230.39971056621937 L 783.5 230.39971056621937 L 784.5 230.39971056621937 L 784.5 230.39971056621937 L 785.5 230.39971056621937 L 785.5 230.39971056621937 L 786.5 230.39971056621937 L 786.5 230.39971056621937 L 787.5 230.39971056621937 L 787.5 230.39971056621937 L 788.5 230.39971056621937 L 788.5 230.39971056621937 L 789.5 230.39971056621937 L 789.5 230.39971056621937 L 790.5 230.39971056621937 L 790.5 230.39971056621937 L 791.5 230.39971056621937 L 791.5 230.39971056621937 L 792.5 230.39971056621937 L 792.5 230.39971056621937 L 793.5 230.39971056621937 L 793.5 230.39971056621937 L 794.5 230.39971056621937 L 794.5 230.39971056621937 L 795.5 230.39971056621937 L 795.5 230.39971056621937 L 796.5 230.39971056621937 L 796.5 230.39971056621937 L 797.5 230.39971056621937 L 797.5 230.39971056621937 L 798.5 230.39971056621937 L 798.5 230.39971056621937 L 799.5 230.39971056621937 L 799.5 230.39971056621937 L 800.5 230.39971056621937 L 800.5 230.39971056621937 L 801.5 230.39971056621937 L 801.5 230.39971056621937 L 802.5 230.39971056621937 L 802.5 230.39971056621937 L 803.5 230.39971056621937 L 803.5 230.39971056621937 L 804.5 230.39971056621937 L 804.5 230.39971056621937 L 805.5 230.39971056621937 L 805.5 230.39971056621937 L 806.5 230.39971056621937 L 806.5 230.39971056621937 L 807.5 230.39971056621937 L 807.5 230.39971056621937 L 808.5 230.39971056621937 L 808.5 230.39971056621937 L 809.5 230.39971056621937 L 809.5 230.39971056621937 L 810.5 230.39971056621937 L 810.5 230.39971056621937 L 811.5 230.39971056621937 L 811.5 230.39971056621937 L 812.5 230.39971056621937 L 812.5 230.39971056621937 L 813.5 230.39971056621937 L 813.5 230.39971056621937 L 814.5 230.39971056621937 L 814.5 230.39971056621937 L 815.5 230.39971056621937 L 815.5 230.39971056621937 L 816.5 230.39971056621937 L 816.5 230.39971056621937 L 817.5 230.39971056621937 L 817.5 230.39971056621937 L 818.5 230.39971056621937 L 818.5 230.39971056621937 L 819.5 230.39971056621937 L 819.5 230.39971056621937 L 820.5 230.39971056621937 L 820.5 230.39971056621937 L 821.5 230.39971056621937 L 821.5 230.39971056621937 L 822.5 230.39971056621937 L 822.5 230.39971056621937 L 823.5 230.39971056621937 L 823.5 230.39971056621937 L 824.5 230.39971056621937 L 824.5 230.39971056621937 L 825.5 230.39971056621937 L 825.5 230.39971056621937 L 826.5 230.39971056621937 L 826.5 230.39971056621937 L 827.5 230.39971056621937 L 827.5 230.39971056621937 L 828.5 230.39971056621937 L 828.5 230.39971056621937 L 829.5 230.39971056621937 L 829.5 230.39971056621937 L 830.5 230.39971056621937 L 830.5 230.39971056621937 L 831.5 230.39971056621937 L 831.5 230.39971056621937 L 832.5 230.39971056621937 L 832.5 230.39971056621937 L 833.5 230.39971056621937 L 833.5 230.39971056621937 L 834.5 230.39971056621937 L 834.5 230.39971056621937 L 835.5 230.39971056621937 L 835.5 230.39971056621937 L 836.5 230.39971056621937 L 836.5 230.39971056621937 L 837.5 230.39971056621937 L 837.5 230.39971056621937 L 838.5 230.39971056621937 L 838.5 230.39971056621937 L 839.5 230.39971056621937 L 839.5 230.39971056621937 L 840.5 230.39971056621937 L 840.5 230.39971056621937 L 841.5 230.39971056621937 L 841.5 230.39971056621937 L 842.5 230.39971056621937 L 842.5 230.39971056621937 L 843.5 230.39971056621937 L 843.5 230.39971056621937 L 844.5 230.39971056621937 L 844.5 230.39971056621937 L 845.5 230.39971056621937 L 845.5 230.39971056621937 L 846.5 230.39971056621937 L 846.5 230.39971056621937 L 847.5 230.39971056621937 L 847.5 230.39971056621937 L 848.5 230.39971056621937 L 848.5 230.39971056621937 L 849.5 230.39971056621937 L 849.5 230.39971056621937 L 850.5 230.39971056621937 L 850.5 230.39971056621937 L 851.5 230.39971056621937 L 851.5 230.39971056621937 L 852.5 230.39971056621937 L 852.5 230.39971056621937 L 853.5 230.39971056621937 L 853.5 230.39971056621937 L 854.5 230.39971056621937 L 854.5 230.39971056621937 L 855.5 230.39971056621937 L 855.5 230.39971056621937 L 856.5 230.39971056621937 L 856.5 230.39971056621937 L 857.5 230.39971056621937 L 857.5 230.39971056621937 L 858.5 230.39971056621937 L 858.5 230.39971056621937 L 859.5 230.39971056621937 L 859.5 230.39971056621937 L 860.5 230.39971056621937 L 860.5 230.39971056621937 L 861.5 230.39971056621937 L 861.5 230.39971056621937 L 862.5 230.39971056621937 L 862.5 230.39971056621937 L 863.5 230.39971056621937 L 863.5 230.39971056621937 L 864.5 230.39971056621937 L 864.5 230.39971056621937 L 865.5 230.39971056621937 L 865.5 230.39971056621937 L 866.5 230.39971056621937 L 866.5 230.39971056621937 L 867.5 230.39971056621937 L 867.5 230.39971056621937 L 868.5 230.39971056621937 L 868.5 230.39971056621937 L 869.5 230.39971056621937 L 869.5 230.39971056621937 L 870.5 230.39971056621937 L 870.5 230.39971056621937 L 871.5 230.39971056621937 L 871.5 230.39971056621937 L 872.5 230.39971056621937 L 872.5 230.39971056621937 L 873.5 230.39971056621937 L 873.5 230.39971056621937 L 874.5 230.39971056621937 L 874.5 230.39971056621937 L 875.5 230.39971056621937 L 875.5 230.39971056621937 L 876.5 230.39971056621937 L 876.5 230.39971056621937 L 877.5 230.39971056621937 L 877.5 230.39971056621937 L 878.5 230.39971056621937 L 878.5 230.39971056621937 L 879.5 230.39971056621937 L 879.5 230.39971056621937 L 880.5 230.39971056621937 L 880.5 230.39971056621937 L 881.5 230.39971056621937 L 881.5 230.39971056621937 L 882.5 230.39971056621937 L 882.5 230.39971056621937 L 883.5 230.39971056621937 L 883.5 230.39971056621937 L 884.5 230.39971056621937 L 884.5 230.39971056621937 L 885.5 230.39971056621937 L 885.5 230.39971056621937 L 886.5 230.39971056621937 L 886.5 230.39971056621937 L 887.5 230.39971056621937 L 887.5 230.39971056621937 L 888.5 230.39971056621937 L 888.5 230.39971056621937 L 889.5 230.39971056621937 L 889.5 230.39971056621937 L 890.5 230.39971056621937 L 890.5 230.39971056621937 L 891.5 230.39971056621937 L 891.5 230.39971056621937 L 892.5 230.39971056621937 L 892.5 230.39971056621937 L 893.5 230.39971056621937 L 893.5 230.39971056621937 L 894.5 230.39971056621937 L 894.5 230.39971056621937 L 895.5 230.39971056621937 L 895.5 230.39971056621937 L 896.5 230.39971056621937 L 896.5 230.39971056621937 L 897.5 230.39971056621937 L 897.5 230.39971056621937 L 898.5 230.39971056621937 L 898.5 230.39971056621937 L 899.5 230.39971056621937 L 899.5 230.39971056621937 L 900.5 230.39971056621937 L 900.5 230.39971056621937 L 901.5 230.39971056621937 L 901.5 230.39971056621937 L 902.5 230.39971056621937 L 902.5 230.39971056621937 L 903.5 230.39971056621937 L 903.5 230.39971056621937 L 904.5 230.39971056621937 L 904.5 230.39971056621937 L 905.5 230.39971056621937 L 905.5 230.39971056621937 L 906.5 230.39971056621937 L 906.5 230.39971056621937 L 907.5 230.39971056621937 L 907.5 230.39971056621937 L 908.5 230.39971056621937 L 908.5 230.39971056621937 L 909.5 230.39971056621937 L 909.5 230.39971056621937 L 910.5 230.39971056621937 L 910.5 230.39971056621937 L 911.5 230.39971056621937 L 911.5 230.39971056621937 L 912.5 230.39971056621937 L 912.5 230.39971056621937 L 913.5 230.39971056621937 L 913.5 230.39971056621937 L 914.5 230.39971056621937 L 914.5 230.39971056621937 L 915.5 230.39971056621937 L 915.5 230.39971056621937 L 916.5 230.39971056621937 L 916.5 230.39971056621937 L 917.5 230.39971056621937 L 917.5 230.39971056621937 L 918.5 230.39971056621937 L 918.5 230.39971056621937 L 919.5 230.39971056621937 L 919.5 230.39971056621937 L 920.5 230.39971056621937 L 920.5 230.39971056621937 L 921.5 230.39971056621937 L 921.5 230.39971056621937 L 922.5 230.39971056621937 L 922.5 230.39971056621937 L 923.5 230.39971056621937 L 923.5 230.39971056621937 L 924.5 230.39971056621937 L 924.5 230.39971056621937 L 925.5 230.39971056621937 L 925.5 230.39971056621937 L 926.5 230.39971056621937 L 926.5 230.39971056621937 L 927.5 230.39971056621937 L 927.5 230.39971056621937 L 928.5 230.39971056621937 L 928.5 230.39971056621937 L 929.5 230.39971056621937 L 929.5 230.39971056621937 L 930.5 230.39971056621937 L 930.5 230.39971056621937 L 931.5 230.39971056621937 L 931.5 230.39971056621937 L 932.5 230.39971056621937 L 932.5 230.39971056621937 L 933.5 230.39971056621937 L 933.5 230.39971056621937 L 934.5 230.39971056621937 L 934.5 230.39971056621937 L 935.5 230.39971056621937 L 935.5 230.39971056621937 L 936.5 230.39971056621937 L 936.5 230.39971056621937 L 937.5 230.39971056621937 L 937.5 230.39971056621937 L 938.5 230.39971056621937 L 938.5 230.39971056621937 L 939.5 230.39971056621937 L 939.5 230.39971056621937 L 940.5 230.39971056621937 L 940.5 230.39971056621937 L 941.5 230.39971056621937 L 941.5 230.39971056621937 L 942.5 230.39971056621937 L 942.5 230.39971056621937 L 943.5 230.39971056621937 L 943.5 230.39971056621937 L 944.5 230.39971056621937 L 944.5 230.39971056621937 L 945.5 230.39971056621937 L 945.5 230.39971056621937 L 946.5 230.39971056621937 L 946.5 230.39971056621937 L 947.5 230.39971056621937 L 947.5 230.39971056621937 L 948.5 230.39971056621937 L 948.5 230.39971056621937 L 949.5 230.39971056621937 L 949.5 230.39971056621937 L 950.5 230.39971056621937 L 950.5 230.39971056621937 L 951.5 230.39971056621937 L 951.5 230.39971056621937 L 952.5 230.39971056621937 L 952.5 230.39971056621937 L 953.5 230.39971056621937 L 953.5 230.39971056621937 L 954.5 230.39971056621937 L 954.5 230.39971056621937 L 955.5 230.39971056621937 L 955.5 230.39971056621937 L 956.5 230.39971056621937 L 956.5 230.39971056621937 L 957.5 230.39971056621937 L 957.5 230.39971056621937 L 958.5 230.39971056621937 L 958.5 230.39971056621937 L 959.5 230.39971056621937 L 959.5 230.39971056621937 L 960.5 230.39971056621937 L 960.5 230.39971056621937 L 961.5 230.39971056621937 L 961.5 230.39971056621937 L 962.5 230.39971056621937 L 962.5 230.39971056621937 L 963.5 230.39971056621937 L 963.5 230.39971056621937 L 964.5 230.39971056621937 L 964.5 230.39971056621937 L 965.5 230.39971056621937 L 965.5 230.39971056621937 L 966.5 230.39971056621937 L 966.5 230.39971056621937 L 967.5 230.39971056621937 L 967.5 230.39971056621937 L 968.5 230.39971056621937 L 968.5 230.39971056621937 L 969.5 230.39971056621937 L 969.5 230.39971056621937 L 970.5 230.39971056621937 L 970.5 230.39971056621937 L 971.5 230.39971056621937 L 971.5 230.39971056621937 L 972.5 230.39971056621937 L 972.5 230.39971056621937 L 973.5 230.39971056621937 L 973.5 230.39971056621937 L 974.5 230.39971056621937 L 974.5 230.39971056621937 L 975.5 230.39971056621937 L 975.5 230.39971056621937 L 976.5 230.39971056621937 L 976.5 230.39971056621937 L 977.5 230.39971056621937 L 977.5 230.39971056621937 L 978.5 230.39971056621937 L 978.5 230.39971056621937 L 979.5 230.39971056621937 L 979.5 230.39971056621937 L 980.5 230.39971056621937 L 980.5 230.39971056621937 L 981.5 230.39971056621937 L 981.5 230.39971056621937 L 982.5 230.39971056621937 L 982.5 230.39971056621937 L 983.5 230.39971056621937 L 983.5 230.39971056621937 L 984.5 230.39971056621937 L 984.5 230.39971056621937 L 985.5 230.39971056621937 L 985.5 230.39971056621937 L 986.5 230.39971056621937 L 986.5 230.39971056621937 L 987.5 230.39971056621937 L 987.5 230.39971056621937 L 988.5 230.39971056621937 L 988.5 230.39971056621937 L 989.5 230.39971056621937 L 989.5 230.39971056621937 L 990.5 230.39971056621937 L 990.5 230.39971056621937 L 991.5 230.39971056621937 L 991.5 230.39971056621937 L 992.5 230.39971056621937 L 992.5 230.39971056621937 L 993.5 230.39971056621937 L 993.5 230.39971056621937 L 994.5 230.39971056621937 L 994.5 230.39971056621937 L 995.5 230.39971056621937 L 995.5 230.39971056621937 L 996.5 230.39971056621937 L 996.5 230.39971056621937 L 997.5 230.39971056621937 L 997.5 230.39971056621937 L 998.5 230.39971056621937 L 998.5 230.39971056621937 L 999.5 230.39971056621937 L 999.5 230.39971056621937 L 1000.5 230.39971056621937 L 1000.5 230.39971056621937 L 1001.5 230.39971056621937 L 1001.5 230.39971056621937 L 1002.5 230.39971056621937 L 1002.5 230.39971056621937 L 1003.5 230.39971056621937 L 1003.5 230.39971056621937 L 1004.5 230.39971056621937 L 1004.5 230.39971056621937 L 1005.5 230.39971056621937 L 1005.5 230.39971056621937 L 1006.5 230.39971056621937 L 1006.5 230.39971056621937 L 1007.5 230.39971056621937 L 1007.5 230.39971056621937 L 1008.5 230.39971056621937 L 1008.5 230.39971056621937 L 1009.5 230.39971056621937 L 1009.5 230.39971056621937 L 1010.5 230.39971056621937 L 1010.5 230.39971056621937 L 1011.5 230.39971056621937 L 1011.5 230.39971056621937 L 1012.5 230.39971056621937 L 1012.5 230.39971056621937 L 1013.5 230.39971056621937 L 1013.5 230.39971056621937 L 1014.5 230.39971056621937 L 1014.5 230.39971056621937 L 1015.5 230.39971056621937 L 1015.5 230.39971056621937 L 1016.5 230.39971056621937 L 1016.5 230.39971056621937 L 1017.5 230.39971056621937 L 1017.5 230.39971056621937 L 1018.5 230.39971056621937 L 1018.5 230.39971056621937 L 1019.5 230.39971056621937 L 1019.5 230.39971056621937 L 1020.5 230.39971056621937 L 1020.5 230.39971056621937 L 1021.5 230.39971056621937 L 1021.5 230.39971056621937 L 1022.5 230.39971056621937 L 1022.5 230.39971056621937 L 1023.5 230.39971056621937 L 1023.5 230.39971056621937 L 1024.5 230.39971056621937 L 1024.5 230.39971056621937 L 1025.5 230.39971056621937 L 1025.5 230.39971056621937 L 1026.5 230.39971056621937 L 1026.5 230.39971056621937 L 1027.5 230.39971056621937 L 1027.5 230.39971056621937 L 1028.5 230.39971056621937 L 1028.5 230.39971056621937 L 1029.5 230.39971056621937 L 1029.5 230.39971056621937 L 1030.5 230.39971056621937 L 1030.5 230.39971056621937 L 1031.5 230.39971056621937 L 1031.5 230.39971056621937 L 1032.5 230.39971056621937 L 1032.5 230.39971056621937 L 1033.5 230.39971056621937 L 1033.5 230.39971056621937 L 1034.5 230.39971056621937 L 1034.5 230.39971056621937 L 1035.5 230.39971056621937 L 1035.5 230.39971056621937 L 1036.5 230.39971056621937 L 1036.5 230.39971056621937 L 1037.5 230.39971056621937 L 1037.5 230.39971056621937 L 1038.5 230.39971056621937 L 1038.5 230.39971056621937 L 1039.5 230.39971056621937 L 1039.5 230.39971056621937 L 1040.5 230.39971056621937 L 1040.5 230.39971056621937 L 1041.5 230.39971056621937 L 1041.5 230.39971056621937 L 1042.5 230.39971056621937 L 1042.5 230.39971056621937 L 1043.5 230.39971056621937 L 1043.5 230.39971056621937 L 1044.5 230.39971056621937 L 1044.5 230.39971056621937 L 1045.5 230.39971056621937 L 1045.5 230.39971056621937 L 1046.5 230.39971056621937 L 1046.5 230.39971056621937 L 1047.5 230.39971056621937 L 1047.5 230.39971056621937 L 1048.5 230.39971056621937 L 1048.5 230.39971056621937 L 1049.5 230.39971056621937 L 1049.5 230.39971056621937 L 1050.5 230.39971056621937 L 1050.5 230.39971056621937 L 1051.5 230.39971056621937 L 1051.5 230.39971056621937 L 1052.5 230.39971056621937 L 1052.5 230.39971056621937 L 1053.5 230.39971056621937 L 1053.5 230.39971056621937 L 1054.5 230.39971056621937 L 1054.5 230.39971056621937 L 1055.5 230.39971056621937 L 1055.5 230.39971056621937 L 1056.5 230.39971056621937 L 1056.5 230.39971056621937 L 1057.5 230.39971056621937 L 1057.5 230.39971056621937 L 1058.5 230.39971056621937 L 1058.5 230.39971056621937 L 1059.5 230.39971056621937 L 1059.5 230.39971056621937 L 1060.5 230.39971056621937 L 1060.5 230.39971056621937 L 1061.5 230.39971056621937 L 1061.5 230.39971056621937 L 1062.5 230.39971056621937 L 1062.5 230.39971056621937 L 1063.5 230.39971056621937 L 1063.5 230.39971056621937 L 1064.5 230.39971056621937 L 1064.5 230.39971056621937 L 1065.5 230.39971056621937 L 1065.5 230.39971056621937 L 1066.5 230.39971056621937 L 1066.5 230.39971056621937 L 1067.5 230.39971056621937 L 1067.5 230.39971056621937 L 1068.5 230.39971056621937 L 1068.5 230.39971056621937 L 1069.5 230.39971056621937 L 1069.5 230.39971056621937 L 1070.5 230.39971056621937 L 1070.5 230.39971056621937 L 1071.5 230.39971056621937 L 1071.5 230.39971056621937 L 1072.5 230.39971056621937 L 1072.5 230.39971056621937 L 1073.5 230.39971056621937 L 1073.5 230.39971056621937 L 1074.5 230.39971056621937 L 1074.5 230.39971056621937 L 1075.5 230.39971056621937 L 1075.5 230.39971056621937 L 1076.5 230.39971056621937 L 1076.5 230.39971056621937 L 1077.5 230.39971056621937 L 1077.5 230.39971056621937 L 1078.5 230.39971056621937 L 1078.5 230.39971056621937 L 1079.5 230.39971056621937 L 1079.5 230.39971056621937 L 1080.5 230.39971056621937 L 1080.5 230.39971056621937 L 1081.5 230.39971056621937 L 1081.5 230.39971056621937 L 1082.5 230.39971056621937 L 1082.5 230.39971056621937 L 1083.5 230.39971056621937 L 1083.5 230.39971056621937 L 1084.5 230.39971056621937 L 1084.5 230.39971056621937 L 1085.5 230.39971056621937 L 1085.5 230.39971056621937 L 1086.5 230.39971056621937 L 1086.5 230.39971056621937 L 1087.5 230.39971056621937 L 1087.5 230.39971056621937 L 1088.5 230.39971056621937 L 1088.5 230.39971056621937 L 1089.5 230.39971056621937 L 1089.5 230.39971056621937 L 1090.5 230.39971056621937 L 1090.5 230.39971056621937 L 1091.5 230.39971056621937 L 1091.5 230.39971056621937 L 1092.5 230.39971056621937 L 1092.5 230.39971056621937 L 1093.5 230.39971056621937 L 1093.5 230.39971056621937 L 1094.5 230.39971056621937 L 1094.5 230.39971056621937 L 1095.5 230.39971056621937 L 1095.5 230.39971056621937 L 1096.5 230.39971056621937 L 1096.5 230.39971056621937 L 1097.5 230.39971056621937 L 1097.5 230.39971056621937 L 1098.5 230.39971056621937 L 1098.5 230.39971056621937 L 1099.5 230.39971056621937 L 1099.5 230.39971056621937 L 1100.5 230.39971056621937 L 1100.5 230.39971056621937 L 1101.5 230.39971056621937 L 1101.5 230.39971056621937 L 1102.5 230.39971056621937 L 1102.5 230.39971056621937 L 1103.5 230.39971056621937 L 1103.5 230.39971056621937 L 1104.5 230.39971056621937 L 1104.5 230.39971056621937 L 1105.5 230.39971056621937 L 1105.5 230.39971056621937 L 1106.5 230.39971056621937 L 1106.5 230.39971056621937 L 1107.5 230.39971056621937 L 1107.5 230.39971056621937 L 1108.5 230.39971056621937 L 1108.5 230.39971056621937 L 1109.5 230.39971056621937 L 1109.5 230.39971056621937 L 1110.5 230.39971056621937 L 1110.5 230.39971056621937 L 1111.5 230.39971056621937 L 1111.5 230.39971056621937 L 1112.5 230.39971056621937 L 1112.5 230.39971056621937 L 1113.5 230.39971056621937 L 1113.5 230.39971056621937 L 1114.5 230.39971056621937 L 1114.5 230.39971056621937 L 1115.5 230.39971056621937 L 1115.5 230.39971056621937 L 1116.5 230.39971056621937 L 1116.5 230.39971056621937 L 1117.5 230.39971056621937 L 1117.5 230.39971056621937 L 1118.5 230.39971056621937 L 1118.5 230.39971056621937 L 1119.5 230.39971056621937 L 1119.5 230.39971056621937 L 1120.5 230.39971056621937 L 1120.5 230.39971056621937 L 1121.5 230.39971056621937 L 1121.5 230.39971056621937 L 1122.5 230.39971056621937 L 1122.5 230.39971056621937 L 1123.5 230.39971056621937 L 1123.5 230.39971056621937 L 1124.5 230.39971056621937 L 1124.5 230.39971056621937 L 1125.5 230.39971056621937 L 1125.5 230.39971056621937 L 1126.5 230.39971056621937 L 1126.5 230.39971056621937 L 1127.5 230.39971056621937 L 1127.5 230.39971056621937 L 1128.5 230.39971056621937 L 1128.5 230.39971056621937 L 1129.5 230.39971056621937 L 1129.5 230.39971056621937 L 1130.5 230.39971056621937 L 1130.5 230.39971056621937 L 1131.5 230.39971056621937 L 1131.5 230.39971056621937 L 1132.5 230.39971056621937 L 1132.5 230.39971056621937 L 1133.5 230.39971056621937 L 1133.5 230.39971056621937 L 1134.5 230.39971056621937 L 1134.5 230.39971056621937 L 1135.5 230.39971056621937 L 1135.5 230.39971056621937 L 1136.5 230.39971056621937 L 1136.5 230.39971056621937 L 1137.5 230.39971056621937 L 1137.5 230.39971056621937 L 1138.5 230.39971056621937 L 1138.5 230.39971056621937 L 1139.5 230.39971056621937 L 1139.5 230.39971056621937 L 1140.5 230.39971056621937 L 1140.5 230.39971056621937 L 1141.5 230.39971056621937 L 1141.5 230.39971056621937 L 1142.5 230.39971056621937 L 1142.5 230.39971056621937 L 1143.5 230.39971056621937 L 1143.5 230.39971056621937 L 1144.5 230.39971056621937 L 1144.5 230.39971056621937 L 1145.5 230.39971056621937 L 1145.5 230.39971056621937 L 1146.5 230.39971056621937 L 1146.5 230.39971056621937 L 1147.5 230.39971056621937 L 1147.5 230.39971056621937 L 1148.5 230.39971056621937 L 1148.5 230.39971056621937 L 1149.5 230.39971056621937 L 1149.5 230.39971056621937 L 1150.5 230.39971056621937 L 1150.5 230.39971056621937 L 1151.5 230.39971056621937 L 1151.5 230.39971056621937 L 1152.5 230.39971056621937 L 1152.5 230.39971056621937 L 1153.5 230.39971056621937 L 1153.5 230.39971056621937 L 1154.5 230.39971056621937 L 1154.5 230.39971056621937 L 1155.5 230.39971056621937 L 1155.5 230.39971056621937 L 1156.5 230.39971056621937 L 1156.5 230.39971056621937 L 1157.5 230.39971056621937 L 1157.5 230.39971056621937 L 1158.5 230.39971056621937 L 1158.5 230.39971056621937 L 1159.5 230.39971056621937 L 1159.5 230.39971056621937 L 1160.5 230.39971056621937 L 1160.5 230.39971056621937 L 1161.5 230.39971056621937 L 1161.5 230.39971056621937 L 1162.5 230.39971056621937 L 1162.5 230.39971056621937 L 1163.5 230.39971056621937 L 1163.5 230.39971056621937 L 1164.5 230.39971056621937 L 1164.5 230.39971056621937 L 1165.5 230.39971056621937 L 1165.5 230.39971056621937 L 1166.5 230.39971056621937 L 1166.5 230.39971056621937 L 1167.5 230.39971056621937 L 1167.5 230.39971056621937 L 1168.5 230.39971056621937 L 1168.5 230.39971056621937 L 1169.5 230.39971056621937 L 1169.5 230.39971056621937 L 1170.5 230.39971056621937 L 1170.5 230.39971056621937 L 1171.5 230.39971056621937 L 1171.5 230.39971056621937 L 1172.5 230.39971056621937 L 1172.5 230.39971056621937 L 1173.5 230.39971056621937 L 1173.5 230.39971056621937 L 1174.5 230.39971056621937 L 1174.5 230.39971056621937 L 1175.5 230.39971056621937 L 1175.5 230.39971056621937 L 1176.5 230.39971056621937 L 1176.5 230.39971056621937 L 1177.5 230.39971056621937 L 1177.5 230.39971056621937 L 1178.5 230.39971056621937 L 1178.5 230.39971056621937 L 1179.5 230.39971056621937 L 1179.5 230.39971056621937 L 1180.5 230.39971056621937 L 1180.5 230.39971056621937 L 1181.5 230.39971056621937 L 1181.5 230.39971056621937 L 1182.5 230.39971056621937 L 1182.5 230.39971056621937 L 1183.5 230.39971056621937 L 1183.5 230.39971056621937 L 1184.5 230.39971056621937 L 1184.5 230.39971056621937 L 1185.5 230.39971056621937 L 1185.5 230.39971056621937 L 1186.5 230.39971056621937 L 1186.5 230.39971056621937 L 1187.5 230.39971056621937 L 1187.5 230.39971056621937 L 1188.5 230.39971056621937 L 1188.5 230.39971056621937 L 1189.5 230.39971056621937 L 1189.5 230.39971056621937 L 1190.5 230.39971056621937 L 1190.5 230.39971056621937 L 1191.5 230.39971056621937 L 1191.5 230.39971056621937 L 1192.5 230.39971056621937 L 1192.5 230.39971056621937 L 1193.5 230.39971056621937 L 1193.5 230.39971056621937 L 1194.5 230.39971056621937 L 1194.5 230.39971056621937 L 1195.5 230.39971056621937 L 1195.5 230.39971056621937 L 1196.5 230.39971056621937 L 1196.5 230.39971056621937 L 1197.5 230.39971056621937 L 1197.5 230.39971056621937 L 1198.5 230.39971056621937 L 1198.5 230.39971056621937 L 1199.5 230.39971056621937 L 1199.5 230.39971056621937 L 1200.5 230.39971056621937 L 1200.5 230.39971056621937 L 1201.5 230.39971056621937 L 1201.5 230.39971056621937 L 1202.5 230.39971056621937 L 1202.5 230.39971056621937 L 1203.5 230.39971056621937 L 1203.5 230.39971056621937 L 1204.5 230.39971056621937 L 1204.5 230.39971056621937 L 1205.5 230.39971056621937 L 1205.5 230.39971056621937 L 1206.5 230.39971056621937 L 1206.5 230.39971056621937 L 1207.5 230.39971056621937 L 1207.5 230.39971056621937 L 1208.5 230.39971056621937 L 1208.5 230.39971056621937 L 1209.5 230.39971056621937 L 1209.5 230.39971056621937 L 1210.5 230.39971056621937 L 1210.5 230.39971056621937 L 1211.5 230.39971056621937 L 1211.5 230.39971056621937 L 1212.5 230.39971056621937 L 1212.5 230.39971056621937 L 1213.5 230.39971056621937 L 1213.5 230.39971056621937 L 1214.5 230.39971056621937 L 1214.5 230.39971056621937 L 1215.5 230.39971056621937 L 1215.5 230.39971056621937 L 1216.5 230.39971056621937 L 1216.5 230.39971056621937 L 1217.5 230.39971056621937 L 1217.5 230.39971056621937 L 1218.5 230.39971056621937 L 1218.5 230.39971056621937 L 1219.5 230.39971056621937 L 1219.5 230.39971056621937 L 1220.5 230.39971056621937 L 1220.5 230.39971056621937 L 1221.5 230.39971056621937 L 1221.5 230.39971056621937 L 1222.5 230.39971056621937 L 1222.5 230.39971056621937 L 1223.5 230.39971056621937 L 1223.5 230.39971056621937 L 1224.5 230.39971056621937 L 1224.5 230.39971056621937 L 1225.5 230.39971056621937 L 1225.5 230.39971056621937 L 1226.5 230.39971056621937 L 1226.5 230.39971056621937 L 1227.5 230.39971056621937 L 1227.5 230.39971056621937 L 1228.5 230.39971056621937 L 1228.5 230.39971056621937 L 1229.5 230.39971056621937 L 1229.5 230.39971056621937 L 1230.5 230.39971056621937 L 1230.5 230.39971056621937 L 1231.5 230.39971056621937 L 1231.5 230.39971056621937 L 1232.5 230.39971056621937 L 1232.5 230.39971056621937 L 1233.5 230.39971056621937 L 1233.5 230.39971056621937 L 1234.5 230.39971056621937 L 1234.5 230.39971056621937 L 1235.5 230.39971056621937 L 1235.5 230.39971056621937 L 1236.5 230.39971056621937 L 1236.5 230.39971056621937 L 1237.5 230.39971056621937 L 1237.5 230.39971056621937 L 1238.5 230.39971056621937 L 1238.5 230.39971056621937 L 1239.5 230.39971056621937 L 1239.5 230.39971056621937 L 1240.5 230.39971056621937 L 1240.5 230.39971056621937 L 1241.5 230.39971056621937 L 1241.5 230.39971056621937 L 1242.5 230.39971056621937 L 1242.5 230.39971056621937 L 1243.5 230.39971056621937 L 1243.5 230.39971056621937 L 1244.5 230.39971056621937 L 1244.5 230.39971056621937 L 1245.5 230.39971056621937 L 1245.5 230.39971056621937 L 1246.5 230.39971056621937 L 1246.5 230.39971056621937 L 1247.5 230.39971056621937 L 1247.5 230.39971056621937 L 1248.5 230.39971056621937 L 1248.5 230.39971056621937 L 1249.5 230.39971056621937 L 1249.5 230.39971056621937 L 1250.5 230.39971056621937 L 1250.5 230.39971056621937 L 1251.5 230.39971056621937 L 1251.5 230.39971056621937 L 1252.5 230.39971056621937 L 1252.5 230.39971056621937 L 1253.5 230.39971056621937 L 1253.5 230.39971056621937 L 1254.5 230.39971056621937 L 1254.5 230.39971056621937 L 1255.5 230.39971056621937 L 1255.5 230.39971056621937 L 1256.5 230.39971056621937 L 1256.5 230.39971056621937 L 1257.5 230.39971056621937 L 1257.5 230.39971056621937 L 1258.5 230.39971056621937 L 1258.5 230.39971056621937 L 1259.5 230.39971056621937 L 1259.5 230.39971056621937 L 1260.5 230.39971056621937 L 1260.5 230.39971056621937 L 1261.5 230.39971056621937 L 1261.5 230.39971056621937 L 1262.5 230.39971056621937 L 1262.5 230.39971056621937 L 1263.5 230.39971056621937 L 1263.5 230.39971056621937 L 1264.5 230.39971056621937 L 1264.5 230.39971056621937 L 1265.5 230.39971056621937 L 1265.5 230.39971056621937 L 1266.5 230.39971056621937 L 1266.5 230.39971056621937 L 1267.5 230.39971056621937 L 1267.5 230.39971056621937 L 1268.5 230.39971056621937 L 1268.5 230.39971056621937 L 1269.5 230.39971056621937 L 1269.5 230.39971056621937 L 1270.5 230.39971056621937 L 1270.5 230.39971056621937 L 1271.5 230.39971056621937 L 1271.5 230.39971056621937 L 1272.5 230.39971056621937 L 1272.5 230.39971056621937 L 1273.5 230.39971056621937 L 1273.5 230.39971056621937 L 1274.5 230.39971056621937 L 1274.5 230.39971056621937 L 1275.5 230.39971056621937 L 1275.5 230.39971056621937 L 1276.5 230.39971056621937 L 1276.5 230.39971056621937 L 1277.5 230.39971056621937 L 1277.5 230.39971056621937 L 1278.5 230.39971056621937 L 1278.5 230.39971056621937 L 1279.5 230.39971056621937 L 1279.5 230.39971056621937 L 1280.5 230.39971056621937 L 1280.5 230.39971056621937 L 1281.5 230.39971056621937" stroke-opacity="0.8" stroke-linecap="round" stroke-linejoin="round" stroke-miterlimit="10" stroke-width="6.5"/><text fill="rgb(211,47,47)" stroke="none" font-family="geogebra-sans-serif, sans-serif" font-size="16px" font-style="normal" font-weight="normal" text-decoration="normal" x="24" y="230" text-anchor="start" dominant-baseline="alphabetic" fill-opacity="1">f</text><text fill="none" stroke="rgb(255,255,255)" font-family="geogebra-sans-serif, sans-serif" font-size="16px" font-style="normal" font-weight="normal" text-decoration="normal" x="24" y="230" text-anchor="start" dominant-baseline="alphabetic" stroke-opacity="1" stroke-linejoin="bevel" stroke-miterlimit="10" stroke-width="3">f</text><text fill="rgb(211,47,47)" stroke="none" font-family="geogebra-sans-serif, sans-serif" font-size="16px" font-style="normal" font-weight="normal" text-decoration="normal" x="24" y="230" text-anchor="start" dominant-baseline="alphabetic" fill-opacity="1">f</text></g></g></svg>