<svg version="1.1" xmlns="http://www.w3.org/2000/svg" xmlns:xlink="http://www.w3.org/1999/xlink" width="834" height="588"><defs><clipPath id="SNICTwvfMnpP"><path fill="none" stroke="none" d=" M 0 0 L 834 0 L 834 588 L 0 588 L 0 0 Z"/></clipPath></defs><g transform="scale(1,1)" clip-path="url(#SNICTwvfMnpP)"><g><rect fill="rgb(255,255,255)" stroke="none" x="0" y="0" width="834" height="588" fill-opacity="1"/><path fill="none" stroke="rgb(192,192,192)" paint-order="fill stroke markers" d=" M 26.5 0.5 L 26.5 588.5 M 26.5 0.5 L 26.5 588.5 M 85.5 0.5 L 85.5 588.5 M 144.5 0.5 L 144.5 588.5 M 203.5 0.5 L 203.5 588.5 M 262.5 0.5 L 262.5 588.5 M 321.5 0.5 L 321.5 588.5 M 380.5 0.5 L 380.5 588.5 M 499.5 0.5 L 499.5 588.5 M 558.5 0.5 L 558.5 588.5 M 617.5 0.5 L 617.5 588.5 M 676.5 0.5 L 676.5 588.5 M 735.5 0.5 L 735.5 588.5 M 794.5 0.5 L 794.5 588.5" stroke-opacity="1" stroke-linecap="round" stroke-linejoin="round" stroke-miterlimit="10"/><path fill="none" stroke="rgb(192,192,192)" paint-order="fill stroke markers" d=" M 2.5 0.5 L 2.5 588.5 M 14.5 0.5 L 14.5 588.5 M 37.5 0.5 L 37.5 588.5 M 49.5 0.5 L 49.5 588.5 M 61.5 0.5 L 61.5 588.5 M 73.5 0.5 L 73.5 588.5 M 96.5 0.5 L 96.5 588.5 M 108.5 0.5 L 108.5 588.5 M 120.5 0.5 L 120.5 588.5 M 132.5 0.5 L 132.5 588.5 M 156.5 0.5 L 156.5 588.5 M 167.5 0.5 L 167.5 588.5 M 179.5 0.5 L 179.5 588.5 M 191.5 0.5 L 191.5 588.5 M 215.5 0.5 L 215.5 588.5 M 227.5 0.5 L 227.5 588.5 M 238.5 0.5 L 238.5 588.5 M 250.5 0.5 L 250.5 588.5 M 274.5 0.5 L 274.5 588.5 M 286.5 0.5 L 286.5 588.5 M 297.5 0.5 L 297.5 588.5 M 309.5 0.5 L 309.5 588.5 M 333.5 0.5 L 333.5 588.5 M 345.5 0.5 L 345.5 588.5 M 357.5 0.5 L 357.5 588.5 M 368.5 0.5 L 368.5 588.5 M 392.5 0.5 L 392.5 588.5 M 404.5 0.5 L 404.5 588.5 M 416.5 0.5 L 416.5 588.5 M 428.5 0.5 L 428.5 588.5 M 451.5 0.5 L 451.5 588.5 M 463.5 0.5 L 463.5 588.5 M 475.5 0.5 L 475.5 588.5 M 487.5 0.5 L 487.5 588.5 M 510.5 0.5 L 510.5 588.5 M 522.5 0.5 L 522.5 588.5 M 534.5 0.5 L 534.5 588.5 M 546.5 0.5 L 546.5 588.5 M 569.5 0.5 L 569.5 588.5 M 581.5 0.5 L 581.5 588.5 M 593.5 0.5 L 593.5 588.5 M 605.5 0.5 L 605.5 588.5 M 629.5 0.5 L 629.5 588.5 M 640.5 0.5 L 640.5 588.5 M 652.5 0.5 L 652.5 588.5 M 664.5 0.5 L 664.5 588.5 M 688.5 0.5 L 688.5 588.5 M 700.5 0.5 L 700.5 588.5 M 711.5 0.5 L 711.5 588.5 M 723.5 0.5 L 723.5 588.5 M 747.5 0.5 L 747.5 588.5 M 759.5 0.5 L 759.5 588.5 M 770.5 0.5 L 770.5 588.5 M 782.5 0.5 L 782.5 588.5 M 806.5 0.5 L 806.5 588.5 M 818.5 0.5 L 818.5 588.5 M 830.5 0.5 L 830.5 588.5" stroke-opacity="0.23529411764705882" stroke-linecap="round" stroke-linejoin="round" stroke-miterlimit="10"/><path fill="none" stroke="rgb(192,192,192)" paint-order="fill stroke markers" d=" M 0.5 33.5 L 834.5 33.5 M 0.5 33.5 L 834.5 33.5 M 0.5 92.5 L 834.5 92.5 M 0.5 151.5 L 834.5 151.5 M 0.5 210.5 L 834.5 210.5 M 0.5 269.5 L 834.5 269.5 M 0.5 387.5 L 834.5 387.5 M 0.5 446.5 L 834.5 446.5 M 0.5 506.5 L 834.5 506.5 M 0.5 565.5 L 834.5 565.5" stroke-opacity="1" stroke-linecap="round" stroke-linejoin="round" stroke-miterlimit="10"/><path fill="none" stroke="rgb(192,192,192)" paint-order="fill stroke markers" d=" M 0.5 9.5 L 834.5 9.5 M 0.5 9.5 L 834.5 9.5 M 0.5 21.5 L 834.5 21.5 M 0.5 44.5 L 834.5 44.5 M 0.5 56.5 L 834.5 56.5 M 0.5 68.5 L 834.5 68.5 M 0.5 80.5 L 834.5 80.5 M 0.5 103.5 L 834.5 103.5 M 0.5 115.5 L 834.5 115.5 M 0.5 127.5 L 834.5 127.5 M 0.5 139.5 L 834.5 139.5 M 0.5 163.5 L 834.5 163.5 M 0.5 174.5 L 834.5 174.5 M 0.5 186.5 L 834.5 186.5 M 0.5 198.5 L 834.5 198.5 M 0.5 222.5 L 834.5 222.5 M 0.5 234.5 L 834.5 234.5 M 0.5 245.5 L 834.5 245.5 M 0.5 257.5 L 834.5 257.5 M 0.5 281.5 L 834.5 281.5 M 0.5 293.5 L 834.5 293.5 M 0.5 305.5 L 834.5 305.5 M 0.5 316.5 L 834.5 316.5 M 0.5 340.5 L 834.5 340.5 M 0.5 352.5 L 834.5 352.5 M 0.5 364.5 L 834.5 364.5 M 0.5 375.5 L 834.5 375.5 M 0.5 399.5 L 834.5 399.5 M 0.5 411.5 L 834.5 411.5 M 0.5 423.5 L 834.5 423.5 M 0.5 435.5 L 834.5 435.5 M 0.5 458.5 L 834.5 458.5 M 0.5 470.5 L 834.5 470.5 M 0.5 482.5 L 834.5 482.5 M 0.5 494.5 L 834.5 494.5 M 0.5 517.5 L 834.5 517.5 M 0.5 529.5 L 834.5 529.5 M 0.5 541.5 L 834.5 541.5 M 0.5 553.5 L 834.5 553.5 M 0.5 576.5 L 834.5 576.5" stroke-opacity="0.23529411764705882" stroke-linecap="round" stroke-linejoin="round" stroke-miterlimit="10"/><path fill="none" stroke="rgb(37,37,37)" paint-order="fill stroke markers" d=" M 439.5 2.5 L 439.5 588.5" stroke-opacity="1" stroke-miterlimit="10"/><path fill="none" stroke="rgb(37,37,37)" paint-order="fill stroke markers" d=" M 439.5 1.5 L 435.5 5.5" stroke-opacity="1" stroke-miterlimit="10"/><path fill="none" stroke="rgb(37,37,37)" paint-order="fill stroke markers" d=" M 439.5 1.5 L 443.5 5.5" stroke-opacity="1" stroke-miterlimit="10"/><path fill="none" stroke="rgb(37,37,37)" paint-order="fill stroke markers" d=" M 0.5 328.5 L 832.5 328.5" stroke-opacity="1" stroke-miterlimit="10"/><path fill="none" stroke="rgb(37,37,37)" paint-order="fill stroke markers" d=" M 833.5 328.5 L 829.5 324.5" stroke-opacity="1" stroke-miterlimit="10"/><path fill="none" stroke="rgb(37,37,37)" paint-order="fill stroke markers" d=" M 833.5 328.5 L 829.5 332.5" stroke-opacity="1" stroke-miterlimit="10"/><text fill="rgb(37,37,37)" stroke="none" font-family="geogebra-sans-serif, sans-serif" font-size="12px" font-style="normal" font-weight="normal" text-decoration="normal" x="21" y="344" text-anchor="start" dominant-baseline="alphabetic" fill-opacity="1">–7</text><text fill="none" stroke="rgb(255,255,255)" font-family="geogebra-sans-serif, sans-serif" font-size="12px" font-style="normal" font-weight="normal" text-decoration="normal" x="21" y="344" text-anchor="start" dominant-baseline="alphabetic" stroke-opacity="1" stroke-linejoin="bevel" stroke-miterlimit="10" stroke-width="3">–7</text><text fill="rgb(37,37,37)" stroke="none" font-family="geogebra-sans-serif, sans-serif" font-size="12px" font-style="normal" font-weight="normal" text-decoration="normal" x="21" y="344" text-anchor="start" dominant-baseline="alphabetic" fill-opacity="1">–7</text><text fill="rgb(37,37,37)" stroke="none" font-family="geogebra-sans-serif, sans-serif" font-size="12px" font-style="normal" font-weight="normal" text-decoration="normal" x="80" y="344" text-anchor="start" dominant-baseline="alphabetic" fill-opacity="1">–6</text><text fill="none" stroke="rgb(255,255,255)" font-family="geogebra-sans-serif, sans-serif" font-size="12px" font-style="normal" font-weight="normal" text-decoration="normal" x="80" y="344" text-anchor="start" dominant-baseline="alphabetic" stroke-opacity="1" stroke-linejoin="bevel" stroke-miterlimit="10" stroke-width="3">–6</text><text fill="rgb(37,37,37)" stroke="none" font-family="geogebra-sans-serif, sans-serif" font-size="12px" font-style="normal" font-weight="normal" text-decoration="normal" x="80" y="344" text-anchor="start" dominant-baseline="alphabetic" fill-opacity="1">–6</text><text fill="rgb(37,37,37)" stroke="none" font-family="geogebra-sans-serif, sans-serif" font-size="12px" font-style="normal" font-weight="normal" text-decoration="normal" x="139" y="344" text-anchor="start" dominant-baseline="alphabetic" fill-opacity="1">–5</text><text fill="none" stroke="rgb(255,255,255)" font-family="geogebra-sans-serif, sans-serif" font-size="12px" font-style="normal" font-weight="normal" text-decoration="normal" x="139" y="344" text-anchor="start" dominant-baseline="alphabetic" stroke-opacity="1" stroke-linejoin="bevel" stroke-miterlimit="10" stroke-width="3">–5</text><text fill="rgb(37,37,37)" stroke="none" font-family="geogebra-sans-serif, sans-serif" font-size="12px" font-style="normal" font-weight="normal" text-decoration="normal" x="139" y="344" text-anchor="start" dominant-baseline="alphabetic" fill-opacity="1">–5</text><text fill="rgb(37,37,37)" stroke="none" font-family="geogebra-sans-serif, sans-serif" font-size="12px" font-style="normal" font-weight="normal" text-decoration="normal" x="198" y="344" text-anchor="start" dominant-baseline="alphabetic" fill-opacity="1">–4</text><text fill="none" stroke="rgb(255,255,255)" font-family="geogebra-sans-serif, sans-serif" font-size="12px" font-style="normal" font-weight="normal" text-decoration="normal" x="198" y="344" text-anchor="start" dominant-baseline="alphabetic" stroke-opacity="1" stroke-linejoin="bevel" stroke-miterlimit="10" stroke-width="3">–4</text><text fill="rgb(37,37,37)" stroke="none" font-family="geogebra-sans-serif, sans-serif" font-size="12px" font-style="normal" font-weight="normal" text-decoration="normal" x="198" y="344" text-anchor="start" dominant-baseline="alphabetic" fill-opacity="1">–4</text><text fill="rgb(37,37,37)" stroke="none" font-family="geogebra-sans-serif, sans-serif" font-size="12px" font-style="normal" font-weight="normal" text-decoration="normal" x="257" y="344" text-anchor="start" dominant-baseline="alphabetic" fill-opacity="1">–3</text><text fill="none" stroke="rgb(255,255,255)" font-family="geogebra-sans-serif, sans-serif" font-size="12px" font-style="normal" font-weight="normal" text-decoration="normal" x="257" y="344" text-anchor="start" dominant-baseline="alphabetic" stroke-opacity="1" stroke-linejoin="bevel" stroke-miterlimit="10" stroke-width="3">–3</text><text fill="rgb(37,37,37)" stroke="none" font-family="geogebra-sans-serif, sans-serif" font-size="12px" font-style="normal" font-weight="normal" text-decoration="normal" x="257" y="344" text-anchor="start" dominant-baseline="alphabetic" fill-opacity="1">–3</text><text fill="rgb(37,37,37)" stroke="none" font-family="geogebra-sans-serif, sans-serif" font-size="12px" font-style="normal" font-weight="normal" text-decoration="normal" x="316" y="344" text-anchor="start" dominant-baseline="alphabetic" fill-opacity="1">–2</text><text fill="none" stroke="rgb(255,255,255)" font-family="geogebra-sans-serif, sans-serif" font-size="12px" font-style="normal" font-weight="normal" text-decoration="normal" x="316" y="344" text-anchor="start" dominant-baseline="alphabetic" stroke-opacity="1" stroke-linejoin="bevel" stroke-miterlimit="10" stroke-width="3">–2</text><text fill="rgb(37,37,37)" stroke="none" font-family="geogebra-sans-serif, sans-serif" font-size="12px" font-style="normal" font-weight="normal" text-decoration="normal" x="316" y="344" text-anchor="start" dominant-baseline="alphabetic" fill-opacity="1">–2</text><text fill="rgb(37,37,37)" stroke="none" font-family="geogebra-sans-serif, sans-serif" font-size="12px" font-style="normal" font-weight="normal" text-decoration="normal" x="375" y="344" text-anchor="start" dominant-baseline="alphabetic" fill-opacity="1">–1</text><text fill="none" stroke="rgb(255,255,255)" font-family="geogebra-sans-serif, sans-serif" font-size="12px" font-style="normal" font-weight="normal" text-decoration="normal" x="375" y="344" text-anchor="start" dominant-baseline="alphabetic" stroke-opacity="1" stroke-linejoin="bevel" stroke-miterlimit="10" stroke-width="3">–1</text><text fill="rgb(37,37,37)" stroke="none" font-family="geogebra-sans-serif, sans-serif" font-size="12px" font-style="normal" font-weight="normal" text-decoration="normal" x="375" y="344" text-anchor="start" dominant-baseline="alphabetic" fill-opacity="1">–1</text><text fill="rgb(37,37,37)" stroke="none" font-family="geogebra-sans-serif, sans-serif" font-size="12px" font-style="normal" font-weight="normal" text-decoration="normal" x="497" y="344" text-anchor="start" dominant-baseline="alphabetic" fill-opacity="1">1</text><text fill="none" stroke="rgb(255,255,255)" font-family="geogebra-sans-serif, sans-serif" font-size="12px" font-style="normal" font-weight="normal" text-decoration="normal" x="497" y="344" text-anchor="start" dominant-baseline="alphabetic" stroke-opacity="1" stroke-linejoin="bevel" stroke-miterlimit="10" stroke-width="3">1</text><text fill="rgb(37,37,37)" stroke="none" font-family="geogebra-sans-serif, sans-serif" font-size="12px" font-style="normal" font-weight="normal" text-decoration="normal" x="497" y="344" text-anchor="start" dominant-baseline="alphabetic" fill-opacity="1">1</text><text fill="rgb(37,37,37)" stroke="none" font-family="geogebra-sans-serif, sans-serif" font-size="12px" font-style="normal" font-weight="normal" text-decoration="normal" x="556" y="344" text-anchor="start" dominant-baseline="alphabetic" fill-opacity="1">2</text><text fill="none" stroke="rgb(255,255,255)" font-family="geogebra-sans-serif, sans-serif" font-size="12px" font-style="normal" font-weight="normal" text-decoration="normal" x="556" y="344" text-anchor="start" dominant-baseline="alphabetic" stroke-opacity="1" stroke-linejoin="bevel" stroke-miterlimit="10" stroke-width="3">2</text><text fill="rgb(37,37,37)" stroke="none" font-family="geogebra-sans-serif, sans-serif" font-size="12px" font-style="normal" font-weight="normal" text-decoration="normal" x="556" y="344" text-anchor="start" dominant-baseline="alphabetic" fill-opacity="1">2</text><text fill="rgb(37,37,37)" stroke="none" font-family="geogebra-sans-serif, sans-serif" font-size="12px" font-style="normal" font-weight="normal" text-decoration="normal" x="615" y="344" text-anchor="start" dominant-baseline="alphabetic" fill-opacity="1">3</text><text fill="none" stroke="rgb(255,255,255)" font-family="geogebra-sans-serif, sans-serif" font-size="12px" font-style="normal" font-weight="normal" text-decoration="normal" x="615" y="344" text-anchor="start" dominant-baseline="alphabetic" stroke-opacity="1" stroke-linejoin="bevel" stroke-miterlimit="10" stroke-width="3">3</text><text fill="rgb(37,37,37)" stroke="none" font-family="geogebra-sans-serif, sans-serif" font-size="12px" font-style="normal" font-weight="normal" text-decoration="normal" x="615" y="344" text-anchor="start" dominant-baseline="alphabetic" fill-opacity="1">3</text><text fill="rgb(37,37,37)" stroke="none" font-family="geogebra-sans-serif, sans-serif" font-size="12px" font-style="normal" font-weight="normal" text-decoration="normal" x="674" y="344" text-anchor="start" dominant-baseline="alphabetic" fill-opacity="1">4</text><text fill="none" stroke="rgb(255,255,255)" font-family="geogebra-sans-serif, sans-serif" font-size="12px" font-style="normal" font-weight="normal" text-decoration="normal" x="674" y="344" text-anchor="start" dominant-baseline="alphabetic" stroke-opacity="1" stroke-linejoin="bevel" stroke-miterlimit="10" stroke-width="3">4</text><text fill="rgb(37,37,37)" stroke="none" font-family="geogebra-sans-serif, sans-serif" font-size="12px" font-style="normal" font-weight="normal" text-decoration="normal" x="674" y="344" text-anchor="start" dominant-baseline="alphabetic" fill-opacity="1">4</text><text fill="rgb(37,37,37)" stroke="none" font-family="geogebra-sans-serif, sans-serif" font-size="12px" font-style="normal" font-weight="normal" text-decoration="normal" x="733" y="344" text-anchor="start" dominant-baseline="alphabetic" fill-opacity="1">5</text><text fill="none" stroke="rgb(255,255,255)" font-family="geogebra-sans-serif, sans-serif" font-size="12px" font-style="normal" font-weight="normal" text-decoration="normal" x="733" y="344" text-anchor="start" dominant-baseline="alphabetic" stroke-opacity="1" stroke-linejoin="bevel" stroke-miterlimit="10" stroke-width="3">5</text><text fill="rgb(37,37,37)" stroke="none" font-family="geogebra-sans-serif, sans-serif" font-size="12px" font-style="normal" font-weight="normal" text-decoration="normal" x="733" y="344" text-anchor="start" dominant-baseline="alphabetic" fill-opacity="1">5</text><text fill="rgb(37,37,37)" stroke="none" font-family="geogebra-sans-serif, sans-serif" font-size="12px" font-style="normal" font-weight="normal" text-decoration="normal" x="792" y="344" text-anchor="start" dominant-baseline="alphabetic" fill-opacity="1">6</text><text fill="none" stroke="rgb(255,255,255)" font-family="geogebra-sans-serif, sans-serif" font-size="12px" font-style="normal" font-weight="normal" text-decoration="normal" x="792" y="344" text-anchor="start" dominant-baseline="alphabetic" stroke-opacity="1" stroke-linejoin="bevel" stroke-miterlimit="10" stroke-width="3">6</text><text fill="rgb(37,37,37)" stroke="none" font-family="geogebra-sans-serif, sans-serif" font-size="12px" font-style="normal" font-weight="normal" text-decoration="normal" x="792" y="344" text-anchor="start" dominant-baseline="alphabetic" fill-opacity="1">6</text><text fill="rgb(37,37,37)" stroke="none" font-family="geogebra-sans-serif, sans-serif" font-size="12px" font-style="normal" font-weight="normal" text-decoration="normal" x="419" y="570" text-anchor="start" dominant-baseline="alphabetic" fill-opacity="1">–4</text><text fill="none" stroke="rgb(255,255,255)" font-family="geogebra-sans-serif, sans-serif" font-size="12px" font-style="normal" font-weight="normal" text-decoration="normal" x="419" y="570" text-anchor="start" dominant-baseline="alphabetic" stroke-opacity="1" stroke-linejoin="bevel" stroke-miterlimit="10" stroke-width="3">–4</text><text fill="rgb(37,37,37)" stroke="none" font-family="geogebra-sans-serif, sans-serif" font-size="12px" font-style="normal" font-weight="normal" text-decoration="normal" x="419" y="570" text-anchor="start" dominant-baseline="alphabetic" fill-opacity="1">–4</text><text fill="rgb(37,37,37)" stroke="none" font-family="geogebra-sans-serif, sans-serif" font-size="12px" font-style="normal" font-weight="normal" text-decoration="normal" x="419" y="511" text-anchor="start" dominant-baseline="alphabetic" fill-opacity="1">–3</text><text fill="none" stroke="rgb(255,255,255)" font-family="geogebra-sans-serif, sans-serif" font-size="12px" font-style="normal" font-weight="normal" text-decoration="normal" x="419" y="511" text-anchor="start" dominant-baseline="alphabetic" stroke-opacity="1" stroke-linejoin="bevel" stroke-miterlimit="10" stroke-width="3">–3</text><text fill="rgb(37,37,37)" stroke="none" font-family="geogebra-sans-serif, sans-serif" font-size="12px" font-style="normal" font-weight="normal" text-decoration="normal" x="419" y="511" text-anchor="start" dominant-baseline="alphabetic" fill-opacity="1">–3</text><text fill="rgb(37,37,37)" stroke="none" font-family="geogebra-sans-serif, sans-serif" font-size="12px" font-style="normal" font-weight="normal" text-decoration="normal" x="419" y="451" text-anchor="start" dominant-baseline="alphabetic" fill-opacity="1">–2</text><text fill="none" stroke="rgb(255,255,255)" font-family="geogebra-sans-serif, sans-serif" font-size="12px" font-style="normal" font-weight="normal" text-decoration="normal" x="419" y="451" text-anchor="start" dominant-baseline="alphabetic" stroke-opacity="1" stroke-linejoin="bevel" stroke-miterlimit="10" stroke-width="3">–2</text><text fill="rgb(37,37,37)" stroke="none" font-family="geogebra-sans-serif, sans-serif" font-size="12px" font-style="normal" font-weight="normal" text-decoration="normal" x="419" y="451" text-anchor="start" dominant-baseline="alphabetic" fill-opacity="1">–2</text><text fill="rgb(37,37,37)" stroke="none" font-family="geogebra-sans-serif, sans-serif" font-size="12px" font-style="normal" font-weight="normal" text-decoration="normal" x="419" y="392" text-anchor="start" dominant-baseline="alphabetic" fill-opacity="1">–1</text><text fill="none" stroke="rgb(255,255,255)" font-family="geogebra-sans-serif, sans-serif" font-size="12px" font-style="normal" font-weight="normal" text-decoration="normal" x="419" y="392" text-anchor="start" dominant-baseline="alphabetic" stroke-opacity="1" stroke-linejoin="bevel" stroke-miterlimit="10" stroke-width="3">–1</text><text fill="rgb(37,37,37)" stroke="none" font-family="geogebra-sans-serif, sans-serif" font-size="12px" font-style="normal" font-weight="normal" text-decoration="normal" x="419" y="392" text-anchor="start" dominant-baseline="alphabetic" fill-opacity="1">–1</text><text fill="rgb(37,37,37)" stroke="none" font-family="geogebra-sans-serif, sans-serif" font-size="12px" font-style="normal" font-weight="normal" text-decoration="normal" x="425" y="274" text-anchor="start" dominant-baseline="alphabetic" fill-opacity="1">1</text><text fill="none" stroke="rgb(255,255,255)" font-family="geogebra-sans-serif, sans-serif" font-size="12px" font-style="normal" font-weight="normal" text-decoration="normal" x="425" y="274" text-anchor="start" dominant-baseline="alphabetic" stroke-opacity="1" stroke-linejoin="bevel" stroke-miterlimit="10" stroke-width="3">1</text><text fill="rgb(37,37,37)" stroke="none" font-family="geogebra-sans-serif, sans-serif" font-size="12px" font-style="normal" font-weight="normal" text-decoration="normal" x="425" y="274" text-anchor="start" dominant-baseline="alphabetic" fill-opacity="1">1</text><text fill="rgb(37,37,37)" stroke="none" font-family="geogebra-sans-serif, sans-serif" font-size="12px" font-style="normal" font-weight="normal" text-decoration="normal" x="425" y="215" text-anchor="start" dominant-baseline="alphabetic" fill-opacity="1">2</text><text fill="none" stroke="rgb(255,255,255)" font-family="geogebra-sans-serif, sans-serif" font-size="12px" font-style="normal" font-weight="normal" text-decoration="normal" x="425" y="215" text-anchor="start" dominant-baseline="alphabetic" stroke-opacity="1" stroke-linejoin="bevel" stroke-miterlimit="10" stroke-width="3">2</text><text fill="rgb(37,37,37)" stroke="none" font-family="geogebra-sans-serif, sans-serif" font-size="12px" font-style="normal" font-weight="normal" text-decoration="normal" x="425" y="215" text-anchor="start" dominant-baseline="alphabetic" fill-opacity="1">2</text><text fill="rgb(37,37,37)" stroke="none" font-family="geogebra-sans-serif, sans-serif" font-size="12px" font-style="normal" font-weight="normal" text-decoration="normal" x="425" y="156" text-anchor="start" dominant-baseline="alphabetic" fill-opacity="1">3</text><text fill="none" stroke="rgb(255,255,255)" font-family="geogebra-sans-serif, sans-serif" font-size="12px" font-style="normal" font-weight="normal" text-decoration="normal" x="425" y="156" text-anchor="start" dominant-baseline="alphabetic" stroke-opacity="1" stroke-linejoin="bevel" stroke-miterlimit="10" stroke-width="3">3</text><text fill="rgb(37,37,37)" stroke="none" font-family="geogebra-sans-serif, sans-serif" font-size="12px" font-style="normal" font-weight="normal" text-decoration="normal" x="425" y="156" text-anchor="start" dominant-baseline="alphabetic" fill-opacity="1">3</text><text fill="rgb(37,37,37)" stroke="none" font-family="geogebra-sans-serif, sans-serif" font-size="12px" font-style="normal" font-weight="normal" text-decoration="normal" x="425" y="97" text-anchor="start" dominant-baseline="alphabetic" fill-opacity="1">4</text><text fill="none" stroke="rgb(255,255,255)" font-family="geogebra-sans-serif, sans-serif" font-size="12px" font-style="normal" font-weight="normal" text-decoration="normal" x="425" y="97" text-anchor="start" dominant-baseline="alphabetic" stroke-opacity="1" stroke-linejoin="bevel" stroke-miterlimit="10" stroke-width="3">4</text><text fill="rgb(37,37,37)" stroke="none" font-family="geogebra-sans-serif, sans-serif" font-size="12px" font-style="normal" font-weight="normal" text-decoration="normal" x="425" y="97" text-anchor="start" dominant-baseline="alphabetic" fill-opacity="1">4</text><text fill="rgb(37,37,37)" stroke="none" font-family="geogebra-sans-serif, sans-serif" font-size="12px" font-style="normal" font-weight="normal" text-decoration="normal" x="425" y="38" text-anchor="start" dominant-baseline="alphabetic" fill-opacity="1">5</text><text fill="none" stroke="rgb(255,255,255)" font-family="geogebra-sans-serif, sans-serif" font-size="12px" font-style="normal" font-weight="normal" text-decoration="normal" x="425" y="38" text-anchor="start" dominant-baseline="alphabetic" stroke-opacity="1" stroke-linejoin="bevel" stroke-miterlimit="10" stroke-width="3">5</text><text fill="rgb(37,37,37)" stroke="none" font-family="geogebra-sans-serif, sans-serif" font-size="12px" font-style="normal" font-weight="normal" text-decoration="normal" x="425" y="38" text-anchor="start" dominant-baseline="alphabetic" fill-opacity="1">5</text><text fill="rgb(37,37,37)" stroke="none" font-family="geogebra-sans-serif, sans-serif" font-size="12px" font-style="normal" font-weight="normal" text-decoration="normal" x="425" y="344" text-anchor="start" dominant-baseline="alphabetic" fill-opacity="1">0</text><text fill="none" stroke="rgb(255,255,255)" font-family="geogebra-sans-serif, sans-serif" font-size="12px" font-style="normal" font-weight="normal" text-decoration="normal" x="425" y="344" text-anchor="start" dominant-baseline="alphabetic" stroke-opacity="1" stroke-linejoin="bevel" stroke-miterlimit="10" stroke-width="3">0</text><text fill="rgb(37,37,37)" stroke="none" font-family="geogebra-sans-serif, sans-serif" font-size="12px" font-style="normal" font-weight="normal" text-decoration="normal" x="425" y="344" text-anchor="start" dominant-baseline="alphabetic" fill-opacity="1">0</text><path fill="none" stroke="rgb(211,47,47)" paint-order="fill stroke markers" d=" M 0.9999999999999432 -2944.1910004228343 L 0.9999999999999432 -2929.32774460888 L 0.9999999999999432 -2929.327744608881 L 1.9999999999999432 -2914.498315433404 L 1.9999999999999432 -2914.498315433405 L 2.999999999999943 -2899.7027128964064 L 2.999999999999943 -2899.7027128964073 L 3.999999999999943 -2884.9409369978866 L 3.999999999999943 -2884.9409369978875 L 4.999999999999943 -2870.2129877378443 L 4.999999999999943 -2870.212987737845 L 5.999999999999943 -2855.51886511628 L 5.999999999999943 -2855.5188651162807 L 6.999999999999943 -2840.8585691331928 L 6.999999999999943 -2840.8585691331937 L 7.999999999999943 -2826.2320997885845 L 7.999999999999943 -2826.2320997885854 L 8.999999999999943 -2811.639457082453 L 8.999999999999943 -2811.639457082454 L 9.999999999999943 -2797.0806410148 L 9.999999999999943 -2797.0806410148007 L 10.999999999999943 -2782.555651585624 L 10.999999999999943 -2782.555651585625 L 11.999999999999943 -2768.0644887949265 L 11.999999999999943 -2768.0644887949275 L 12.999999999999943 -2753.6071526427068 L 12.999999999999943 -2753.6071526427077 L 13.999999999999943 -2739.183643128965 L 13.999999999999943 -2739.1836431289657 L 14.999999999999943 -2724.7939602537003 L 14.999999999999943 -2724.7939602537012 L 15.999999999999943 -2710.4381040169137 L 15.999999999999943 -2710.4381040169146 L 17 -2696.116074418605 L 17 -2696.1160744186054 L 17.999999999999943 -2681.827871458775 L 17.999999999999943 -2681.8278714587755 L 18.999999999999943 -2667.5734951374216 L 18.999999999999943 -2667.5734951374225 L 19.999999999999943 -2653.352945454546 L 19.999999999999943 -2653.352945454547 L 20.999999999999943 -2639.1662224101483 L 20.999999999999943 -2639.166222410149 L 21.999999999999943 -2625.0133260042294 L 21.999999999999943 -2625.0133260042303 L 22.999999999999943 -2610.8942562367874 L 22.999999999999943 -2610.8942562367884 L 23.999999999999943 -2596.809013107823 L 23.999999999999943 -2596.809013107824 L 24.999999999999943 -2582.7575966173367 L 24.999999999999943 -2582.7575966173376 L 26 -2568.740006765328 L 26 -2568.740006765329 L 26.999999999999943 -2554.756243551798 L 26.999999999999943 -2554.756243551799 L 27.999999999999943 -2540.806306976745 L 27.999999999999943 -2540.806306976746 L 28.999999999999943 -2526.89019704017 L 28.999999999999943 -2526.8901970401707 L 29.999999999999943 -2513.0079137420726 L 29.999999999999943 -2513.0079137420735 L 30.999999999999943 -2499.159457082453 L 30.999999999999943 -2499.159457082454 L 31.999999999999943 -2485.344827061311 L 31.999999999999943 -2485.344827061312 L 32.99999999999994 -2471.5640236786476 L 32.99999999999994 -2471.564023678648 L 33.99999999999994 -2457.8170469344614 L 33.99999999999994 -2457.8170469344623 L 35 -2444.103896828753 L 35 -2444.103896828754 L 35.99999999999994 -2430.424573361523 L 35.99999999999994 -2430.424573361524 L 36.99999999999994 -2416.7790765327704 L 36.99999999999994 -2416.7790765327713 L 37.99999999999994 -2403.1674063424953 L 37.99999999999994 -2403.167406342496 L 38.99999999999994 -2389.5895627906984 L 38.99999999999994 -2389.589562790699 L 39.99999999999994 -2376.0455458773795 L 39.99999999999994 -2376.04554587738 L 40.99999999999994 -2362.535355602538 L 40.99999999999994 -2362.5353556025384 L 41.99999999999994 -2349.0589919661743 L 41.99999999999994 -2349.058991966175 L 42.99999999999994 -2335.616454968288 L 42.99999999999994 -2335.616454968289 L 43.99999999999994 -2322.2077446088797 L 43.99999999999994 -2322.2077446088806 L 44.99999999999994 -2308.83286088795 L 44.99999999999994 -2308.832860887951 L 45.99999999999994 -2295.4918038054975 L 45.99999999999994 -2295.491803805498 L 46.99999999999994 -2282.184573361523 L 46.99999999999994 -2282.1845733615237 L 47.99999999999994 -2268.9111695560255 L 47.99999999999994 -2268.9111695560264 L 48.99999999999994 -2255.6715923890074 L 48.99999999999994 -2255.6715923890083 L 49.99999999999994 -2242.465841860466 L 49.99999999999994 -2242.4658418604668 L 50.99999999999994 -2229.2939179704026 L 50.99999999999994 -2229.293917970403 L 51.99999999999994 -2216.1558207188164 L 51.99999999999994 -2216.1558207188173 L 52.99999999999994 -2203.0515501057084 L 52.99999999999994 -2203.0515501057093 L 53.99999999999994 -2189.9811061310793 L 53.99999999999994 -2189.98110613108 L 54.99999999999994 -2176.9444887949267 L 54.99999999999994 -2176.9444887949276 L 55.99999999999994 -2163.9416980972524 L 55.99999999999994 -2163.941698097253 L 56.99999999999994 -2150.9727340380555 L 56.99999999999994 -2150.972734038056 L 58 -2138.0375966173365 L 58 -2138.0375966173374 L 58.99999999999994 -2125.1362858350963 L 58.99999999999994 -2125.136285835097 L 59.99999999999994 -2112.2688016913326 L 59.99999999999994 -2112.2688016913335 L 60.99999999999994 -2099.435144186047 L 60.99999999999994 -2099.4351441860476 L 61.99999999999994 -2086.6353133192392 L 61.99999999999994 -2086.63531331924 L 62.99999999999994 -2073.86930909091 L 62.99999999999994 -2073.869309090911 L 63.99999999999994 -2061.137131501058 L 63.99999999999994 -2061.1371315010583 L 64.99999999999994 -2048.4387805496835 L 64.99999999999994 -2048.438780549684 L 65.99999999999994 -2035.774256236787 L 65.99999999999994 -2035.7742562367876 L 67 -2023.143558562368 L 67 -2023.143558562369 L 67.99999999999994 -2010.5466875264278 L 67.99999999999994 -2010.5466875264287 L 68.99999999999994 -1997.9836431289646 L 68.99999999999994 -1997.9836431289655 L 69.99999999999994 -1985.4544253699796 L 69.99999999999994 -1985.4544253699805 L 70.99999999999994 -1972.959034249472 L 70.99999999999994 -1972.9590342494726 L 71.99999999999994 -1960.4974697674425 L 71.99999999999994 -1960.4974697674434 L 72.99999999999994 -1948.0697319238907 L 72.99999999999994 -1948.0697319238916 L 73.99999999999994 -1935.6758207188168 L 73.99999999999994 -1935.6758207188177 L 74.99999999999994 -1923.3157361522203 L 74.99999999999994 -1923.3157361522212 L 76 -1910.9894782241017 L 76 -1910.9894782241026 L 76.99999999999994 -1898.697046934462 L 76.99999999999994 -1898.6970469344628 L 77.99999999999994 -1886.4384422832986 L 77.99999999999994 -1886.4384422832995 L 78.99999999999994 -1874.2136642706137 L 78.99999999999994 -1874.2136642706146 L 79.99999999999994 -1862.0227128964066 L 79.99999999999994 -1862.022712896407 L 81 -1849.8655881606765 L 81 -1849.8655881606774 L 81.99999999999994 -1837.7422900634256 L 81.99999999999994 -1837.7422900634265 L 82.99999999999994 -1825.6528186046517 L 82.99999999999994 -1825.6528186046526 L 83.99999999999994 -1813.5971737843556 L 83.99999999999994 -1813.5971737843565 L 85 -1801.5753556025375 L 85 -1801.5753556025384 L 85.99999999999994 -1789.5873640591972 L 85.99999999999994 -1789.587364059198 L 86.99999999999994 -1777.6331991543348 L 86.99999999999994 -1777.6331991543357 L 87.99999999999994 -1765.7128608879498 L 87.99999999999994 -1765.7128608879507 L 88.99999999999994 -1753.8263492600427 L 88.99999999999994 -1753.8263492600436 L 90 -1741.9736642706134 L 90 -1741.9736642706143 L 90.99999999999994 -1730.1548059196625 L 90.99999999999994 -1730.1548059196634 L 91.99999999999994 -1718.3697742071886 L 91.99999999999994 -1718.3697742071895 L 92.99999999999994 -1706.6185691331928 L 92.99999999999994 -1706.6185691331937 L 93.99999999999994 -1694.9011906976748 L 93.99999999999994 -1694.9011906976755 L 94.99999999999994 -1683.217638900635 L 94.99999999999994 -1683.2176389006358 L 95.99999999999994 -1671.5679137420725 L 95.99999999999994 -1671.5679137420732 L 96.99999999999994 -1659.9520152219877 L 96.99999999999994 -1659.9520152219886 L 97.99999999999994 -1648.369943340381 L 97.99999999999994 -1648.369943340382 L 99 -1636.8216980972518 L 99 -1636.8216980972527 L 99.99999999999994 -1625.3072794926013 L 99.99999999999994 -1625.3072794926022 L 100.99999999999994 -1613.8266875264276 L 100.99999999999994 -1613.8266875264283 L 101.99999999999994 -1602.379922198732 L 101.99999999999994 -1602.3799221987329 L 102.99999999999994 -1590.966983509514 L 102.99999999999994 -1590.9669835095149 L 103.99999999999994 -1579.5878714587748 L 103.99999999999994 -1579.5878714587757 L 104.99999999999994 -1568.242586046512 L 104.99999999999994 -1568.242586046513 L 105.99999999999994 -1556.931127272728 L 105.99999999999994 -1556.9311272727284 L 106.99999999999994 -1545.6534951374213 L 106.99999999999994 -1545.6534951374217 L 108 -1534.4096896405924 L 108 -1534.409689640593 L 108.99999999999994 -1523.199710782242 L 108.99999999999994 -1523.1997107822424 L 109.99999999999994 -1512.0235585623686 L 109.99999999999994 -1512.023558562369 L 110.99999999999994 -1500.8812329809732 L 110.99999999999994 -1500.8812329809737 L 111.99999999999994 -1489.7727340380557 L 111.99999999999994 -1489.7727340380561 L 112.99999999999994 -1478.6980617336162 L 112.99999999999994 -1478.6980617336167 L 113.99999999999994 -1467.6572160676542 L 113.99999999999994 -1467.6572160676546 L 114.99999999999994 -1456.6501970401698 L 114.99999999999994 -1456.6501970401703 L 115.99999999999994 -1445.6770046511633 L 115.99999999999994 -1445.6770046511638 L 117 -1434.7376389006347 L 117 -1434.7376389006351 L 117.99999999999994 -1423.8320997885844 L 117.99999999999994 -1423.8320997885849 L 118.99999999999994 -1412.9603873150115 L 118.99999999999994 -1412.9603873150118 L 119.99999999999994 -1402.1225014799163 L 119.99999999999994 -1402.1225014799165 L 120.99999999999994 -1391.3184422832987 L 120.99999999999994 -1391.3184422832992 L 122 -1380.548209725159 L 122 -1380.5482097251595 L 122.99999999999994 -1369.8118038054977 L 122.99999999999994 -1369.8118038054981 L 123.99999999999994 -1359.1092245243137 L 123.99999999999994 -1359.1092245243142 L 124.99999999999994 -1348.4404718816074 L 124.99999999999994 -1348.440471881608 L 126 -1337.8055458773788 L 126 -1337.8055458773792 L 126.99999999999994 -1327.204446511629 L 126.99999999999994 -1327.2044465116294 L 127.99999999999994 -1316.637173784356 L 127.99999999999994 -1316.6371737843565 L 128.99999999999994 -1306.103727695561 L 128.99999999999994 -1306.1037276955615 L 129.99999999999994 -1295.6041082452437 L 129.99999999999994 -1295.604108245244 L 131 -1285.1383154334044 L 131 -1285.1383154334048 L 131.99999999999994 -1274.706349260043 L 131.99999999999994 -1274.7063492600435 L 132.99999999999994 -1264.3082097251593 L 132.99999999999994 -1264.3082097251597 L 133.99999999999994 -1253.9438968287534 L 133.99999999999994 -1253.9438968287539 L 135 -1243.613410570825 L 135 -1243.6134105708254 L 135.99999999999994 -1233.316750951375 L 135.99999999999994 -1233.3167509513755 L 136.99999999999994 -1223.0539179704026 L 136.99999999999994 -1223.053917970403 L 137.99999999999994 -1212.8249116279076 L 137.99999999999994 -1212.824911627908 L 138.99999999999994 -1202.6297319238906 L 138.99999999999994 -1202.629731923891 L 140 -1192.4683788583516 L 140 -1192.4683788583518 L 140.99999999999994 -1182.3408524312904 L 140.99999999999994 -1182.3408524312908 L 141.99999999999994 -1172.247152642707 L 141.99999999999994 -1172.2471526427073 L 142.99999999999994 -1162.187279492601 L 142.99999999999994 -1162.1872794926014 L 144 -1152.1612329809732 L 144 -1152.1612329809736 L 145 -1142.1690131078228 L 145 -1142.1690131078233 L 145.99999999999994 -1132.210619873151 L 145.99999999999994 -1132.2106198731515 L 146.99999999999994 -1122.2860532769562 L 146.99999999999994 -1122.2860532769566 L 147.99999999999994 -1112.3953133192394 L 147.99999999999994 -1112.39531331924 L 149 -1102.5384000000006 L 149 -1102.538400000001 L 149.99999999999994 -1092.7153133192398 L 149.99999999999994 -1092.7153133192403 L 150.99999999999994 -1082.9260532769563 L 150.99999999999994 -1082.9260532769567 L 151.99999999999994 -1073.1706198731508 L 151.99999999999994 -1073.1706198731513 L 152.99999999999994 -1063.449013107823 L 152.99999999999994 -1063.4490131078232 L 154 -1053.761232980973 L 154 -1053.7612329809735 L 154.99999999999994 -1044.1072794926013 L 154.99999999999994 -1044.1072794926017 L 155.99999999999994 -1034.4871526427066 L 155.99999999999994 -1034.487152642707 L 156.99999999999994 -1024.90085243129 L 156.99999999999994 -1024.9008524312906 L 158 -1015.3483788583515 L 158 -1015.3483788583519 L 158.99999999999994 -1005.8297319238909 L 158.99999999999994 -1005.8297319238914 L 159.99999999999994 -996.3449116279078 L 159.99999999999994 -996.3449116279082 L 160.99999999999994 -986.8939179704023 L 160.99999999999994 -986.8939179704028 L 161.99999999999994 -977.4767509513747 L 161.99999999999994 -977.4767509513752 L 163 -968.093410570825 L 163 -968.0934105708254 L 163.99999999999994 -958.7438968287533 L 163.99999999999994 -958.7438968287538 L 164.99999999999994 -949.4282097251591 L 164.99999999999994 -949.4282097251596 L 165.99999999999994 -940.1463492600428 L 165.99999999999994 -940.1463492600433 L 167 -930.8983154334042 L 167 -930.8983154334046 L 167.99999999999994 -921.6841082452438 L 167.99999999999994 -921.6841082452443 L 168.99999999999994 -912.5037276955609 L 168.99999999999994 -912.5037276955613 L 169.99999999999994 -903.3571737843558 L 169.99999999999994 -903.3571737843563 L 170.99999999999994 -894.2444465116284 L 170.99999999999994 -894.2444465116289 L 172 -885.1655458773789 L 172 -885.1655458773791 L 172.99999999999994 -876.1204718816075 L 172.99999999999994 -876.120471881608 L 173.99999999999994 -867.1092245243135 L 173.99999999999994 -867.109224524314 L 174.99999999999994 -858.1318038054974 L 174.99999999999994 -858.1318038054978 L 176 -849.1882097251589 L 176 -849.1882097251594 L 176.99999999999994 -840.278442283299 L 176.99999999999994 -840.2784422832995 L 177.99999999999994 -831.4025014799163 L 177.99999999999994 -831.4025014799165 L 178.99999999999994 -822.5603873150112 L 178.99999999999994 -822.5603873150117 L 179.99999999999994 -813.752099788584 L 179.99999999999994 -813.7520997885845 L 181 -804.9776389006347 L 181 -804.9776389006349 L 182 -796.237004651163 L 182 -796.2370046511635 L 182.99999999999994 -787.5301970401697 L 182.99999999999994 -787.5301970401702 L 183.99999999999997 -778.8572160676538 L 183.99999999999997 -778.8572160676542 L 184.99999999999997 -770.2180617336157 L 184.99999999999997 -770.2180617336162 L 185.99999999999994 -761.6127340380558 L 185.99999999999994 -761.6127340380563 L 186.99999999999994 -753.0412329809731 L 186.99999999999994 -753.0412329809735 L 187.99999999999994 -744.5035585623687 L 187.99999999999994 -744.5035585623689 L 188.99999999999997 -735.9997107822414 L 188.99999999999997 -735.9997107822419 L 189.99999999999997 -727.5296896405926 L 189.99999999999997 -727.529689640593 L 191 -719.0934951374211 L 191 -719.0934951374215 L 191.99999999999994 -710.691127272728 L 191.99999999999994 -710.6911272727284 L 192.99999999999997 -702.3225860465122 L 192.99999999999997 -702.3225860465127 L 193.99999999999997 -693.9878714587744 L 193.99999999999997 -693.9878714587749 L 194.99999999999994 -685.6869835095147 L 194.99999999999994 -685.6869835095151 L 195.99999999999994 -677.4199221987324 L 195.99999999999994 -677.4199221987328 L 196.99999999999994 -669.1866875264277 L 196.99999999999994 -669.1866875264282 L 197.99999999999997 -660.9872794926011 L 197.99999999999997 -660.9872794926016 L 198.99999999999997 -652.8216980972522 L 198.99999999999997 -652.8216980972525 L 200 -644.689943340381 L 200 -644.6899433403812 L 200.99999999999994 -636.592015221988 L 200.99999999999994 -636.5920152219885 L 201.99999999999997 -628.5279137420725 L 201.99999999999997 -628.527913742073 L 202.99999999999997 -620.4976389006347 L 202.99999999999997 -620.4976389006351 L 203.99999999999994 -612.5011906976752 L 203.99999999999994 -612.5011906976754 L 204.99999999999997 -604.538569133193 L 204.99999999999997 -604.5385691331933 L 205.99999999999994 -596.609774207189 L 205.99999999999994 -596.6097742071893 L 206.99999999999997 -588.7148059196625 L 206.99999999999997 -588.7148059196627 L 207.99999999999994 -580.853664270614 L 207.99999999999994 -580.8536642706142 L 208.99999999999997 -573.0263492600429 L 208.99999999999997 -573.0263492600432 L 209.99999999999997 -565.23286088795 L 209.99999999999997 -565.23286088795 L 210.99999999999997 -557.4731991543347 L 210.99999999999997 -557.4731991543349 L 211.99999999999997 -549.7473640591973 L 211.99999999999997 -549.7473640591975 L 212.99999999999994 -542.0553556025377 L 212.99999999999994 -542.0553556025379 L 213.99999999999997 -534.3971737843558 L 213.99999999999997 -534.397173784356 L 214.99999999999994 -526.772818604652 L 214.99999999999994 -526.7728186046522 L 215.99999999999997 -519.1822900634256 L 215.99999999999997 -519.1822900634259 L 216.99999999999997 -511.6255881606772 L 216.99999999999997 -511.6255881606774 L 217.99999999999997 -504.10271289640656 L 217.99999999999997 -504.1027128964068 L 218.99999999999997 -496.6136642706138 L 218.99999999999997 -496.6136642706139 L 219.99999999999997 -489.1584422832988 L 219.99999999999997 -489.15844228329905 L 220.99999999999997 -481.7370469344615 L 220.99999999999997 -481.7370469344617 L 221.99999999999994 -474.34947822410226 L 221.99999999999994 -474.3494782241025 L 222.99999999999997 -466.99573615222056 L 222.99999999999997 -466.9957361522208 L 223.99999999999994 -459.67582071881674 L 223.99999999999994 -459.67582071881696 L 224.99999999999997 -452.3897319238907 L 224.99999999999997 -452.3897319238909 L 225.99999999999997 -445.1374697674425 L 225.99999999999997 -445.1374697674427 L 226.99999999999997 -437.9190342494722 L 226.99999999999997 -437.9190342494724 L 227.99999999999997 -430.7344253699794 L 227.99999999999997 -430.73442536997965 L 228.99999999999994 -423.58364312896475 L 228.99999999999994 -423.583643128965 L 229.99999999999997 -416.46668752642773 L 229.99999999999997 -416.46668752642785 L 230.99999999999994 -409.3835585623686 L 230.99999999999994 -409.3835585623688 L 231.99999999999997 -402.3342562367871 L 231.99999999999997 -402.3342562367873 L 232.99999999999994 -395.3187805496837 L 232.99999999999994 -395.3187805496838 L 233.99999999999997 -388.33713150105774 L 233.99999999999997 -388.33713150105797 L 234.99999999999997 -381.38930909090965 L 234.99999999999997 -381.3893090909099 L 235.99999999999997 -374.47531331923955 L 235.99999999999997 -374.4753133192398 L 236.99999999999997 -367.5951441860471 L 236.99999999999997 -367.5951441860473 L 237.99999999999994 -360.74880169133263 L 237.99999999999994 -360.74880169133286 L 238.99999999999997 -353.9362858350958 L 238.99999999999997 -353.93628583509593 L 239.99999999999994 -347.1575966173369 L 239.99999999999994 -347.1575966173371 L 240.99999999999997 -340.4127340380556 L 240.99999999999997 -340.4127340380558 L 241.99999999999997 -333.7016980972522 L 241.99999999999997 -333.7016980972523 L 242.99999999999997 -327.02448879492664 L 242.99999999999997 -327.02448879492687 L 243.99999999999997 -320.38110613107875 L 243.99999999999997 -320.381106131079 L 244.99999999999997 -313.77155010570897 L 244.99999999999997 -313.7715501057091 L 245.99999999999997 -307.1958207188167 L 245.99999999999997 -307.19582071881695 L 246.99999999999994 -300.65391797040235 L 246.99999999999994 -300.6539179704026 L 247.99999999999997 -294.14584186046574 L 247.99999999999997 -294.14584186046596 L 248.99999999999997 -287.6715923890069 L 248.99999999999997 -287.6715923890071 L 249.99999999999997 -281.23116955602603 L 249.99999999999997 -281.23116955602615 L 250.99999999999997 -274.8245733615227 L 250.99999999999997 -274.82457336152294 L 251.99999999999997 -268.4518038054975 L 251.99999999999997 -268.4518038054977 L 252.99999999999997 -262.1128608879498 L 252.99999999999997 -262.11286088795003 L 253.99999999999997 -255.8077446088801 L 253.99999999999997 -255.80774460888034 L 254.99999999999997 -249.53645496828807 L 254.99999999999997 -249.5364549682883 L 255.99999999999994 -243.29899196617401 L 255.99999999999994 -243.29899196617424 L 257 -237.0953556025376 L 257 -237.09535560253772 L 258 -230.92554587737897 L 258 -230.9255458773792 L 259 -224.7895627906982 L 259 -224.78956279069843 L 260 -218.6874063424952 L 260 -218.68740634249542 L 261 -212.61907653277018 L 261 -212.6190765327704 L 262 -206.5845733615227 L 262 -206.58457336152293 L 262.99999999999994 -200.5838968287532 L 262.99999999999994 -200.58389682875344 L 264 -194.61704693446148 L 264 -194.6170469344617 L 264.99999999999994 -188.68402367864763 L 264.99999999999994 -188.68402367864786 L 266 -182.78482706131138 L 266 -182.7848270613116 L 267 -176.91945708245294 L 267 -176.91945708245316 L 268 -171.08791374207243 L 268 -171.08791374207266 L 269 -165.29019704016963 L 269 -165.29019704016986 L 270 -159.52630697674476 L 270 -159.526306976745 L 271 -153.7962435517976 L 271 -153.79624355179783 L 271.99999999999994 -148.10000676532837 L 271.99999999999994 -148.10000676532854 L 273 -142.43759661733674 L 273 -142.43759661733685 L 274 -136.80901310782292 L 274 -136.80901310782303 L 275 -131.2142562367871 L 275 -131.2142562367872 L 276 -125.65332600422886 L 276 -125.65332600422897 L 277 -120.12622241014861 L 277 -120.12622241014873 L 278 -114.63294545454602 L 278 -114.63294545454613 L 279 -109.17349513742136 L 279 -109.17349513742147 L 280 -103.74787145877434 L 280 -103.74787145877445 L 281 -98.3560744186052 L 281 -98.35607441860526 L 282 -92.99810401691389 L 282 -92.998104016914 L 283 -87.67396025370027 L 283 -87.67396025370039 L 284 -82.38364312896465 L 284 -82.3836431289647 L 285 -77.12715264270668 L 285 -77.12715264270679 L 286 -71.90448879492658 L 286 -71.90448879492669 L 287 -66.71565158562419 L 287 -66.7156515856243 L 287.99999999999994 -61.56064101479973 L 287.99999999999994 -61.56064101479984 L 289 -56.439457082452975 L 289 -56.43945708245309 L 290 -51.35209978858404 L 290 -51.3520997885841 L 291 -46.298569133192984 L 291 -46.29856913319304 L 292 -41.278865116279576 L 292 -41.27886511627963 L 293 -36.2929877378441 L 293 -36.292987737844214 L 294 -31.34093699788633 L 294 -31.340936997886445 L 295 -26.422712896406495 L 295 -26.42271289640661 L 296 -21.538315433404307 L 296 -21.53831543340442 L 296.99999999999994 -16.68774460888011 L 296.99999999999994 -16.687744608880166 L 298 -11.871000422833504 L 298 -11.871000422833617 L 299 -7.088082875264718 L 299 -7.088082875264831 L 300 -2.3389919661739214 L 300 -2.338991966173978 L 301 2.376272304439283 L 301 2.376272304439169 L 302 7.057709936574497 L 302 7.05770993657444 L 303 11.705320930232062 L 303 11.705320930231949 L 304 16.31910528541181 L 304 16.31910528541175 L 305 20.899063002113678 L 305 20.899063002113564 L 305.99999999999994 25.44519408033773 L 305.99999999999994 25.445194080337615 L 307 29.957498520084073 L 307 29.95749852008396 L 308 34.4359763213526 L 308 34.435976321352484 L 309 38.88062748414325 L 309 38.88062748414313 L 310 43.29145200845619 L 310 43.291452008456076 L 311 47.6684498942912 L 311 47.668449894291086 L 312 52.01162114164856 L 312 52.01162114164845 L 313 56.3209657505281 L 313 56.32096575052799 L 314 60.59648372092977 L 314 60.596483720929655 L 314.99999999999994 64.83817505285356 L 314.99999999999994 64.83817505285344 L 316 69.0460397462997 L 316 69.04603974629958 L 317 73.22007780126805 L 317 73.22007780126793 L 318 77.3602892177586 L 318 77.36028921775849 L 319 81.46667399577126 L 319 81.46667399577115 L 319.99999999999994 85.53923213530607 L 319.99999999999994 85.53923213530598 L 321 89.5779636363632 L 321 89.57796363636308 L 322 93.58286849894245 L 322 93.58286849894239 L 323 97.55394672304391 L 323 97.55394672304385 L 324 101.49119830866758 L 324 101.49119830866752 L 325 105.39462325581346 L 325 105.3946232558134 L 326 109.26422156448157 L 326 109.26422156448152 L 327 113.09999323467184 L 327 113.09999323467179 L 328 116.90193826638435 L 328 116.90193826638429 L 329 120.67005665961898 L 329 120.67005665961892 L 330 124.40434841437587 L 330 124.40434841437582 L 331 128.10481353065492 L 331 128.10481353065487 L 332 131.77145200845618 L 332 131.77145200845612 L 333 135.4042638477797 L 333 135.40426384777965 L 334 139.00324904862538 L 334 139.00324904862532 L 335 142.56840761099323 L 335 142.56840761099318 L 336 146.0997395348833 L 336 146.09973953488324 L 337 149.59724482029554 L 337 149.5972448202955 L 338 153.06092346723 L 338 153.06092346722994 L 339 156.4907754756867 L 339 156.49077547568663 L 340 159.88680084566553 L 340 159.88680084566548 L 341 163.2489995771666 L 341 163.24899957716653 L 342 166.57737167018988 L 342 166.57737167018982 L 343 169.87191712473532 L 343 169.87191712473526 L 344 173.132635940803 L 344 173.13263594080294 L 345 176.35952811839283 L 345 176.35952811839277 L 346 179.5525936575049 L 346 179.55259365750484 L 347 182.71183255813912 L 347 182.71183255813906 L 348 185.83724482029558 L 348 185.83724482029552 L 349 188.92883044397425 L 349 188.9288304439742 L 350 191.9865894291751 L 350 191.98658942917507 L 351 195.01052177589816 L 351 195.0105217758981 L 352 198.00062748414337 L 352 198.00062748414334 L 353 200.9569065539108 L 353 200.95690655391076 L 354 203.87935898520047 L 354 203.8793589852004 L 355 206.7679847780123 L 355 206.76798477801225 L 356 209.62278393234635 L 356 209.6227839323463 L 357 212.44375644820258 L 357 212.44375644820252 L 358 215.23090232558104 L 358 215.23090232558098 L 359 217.9842215644817 L 359 217.98422156448163 L 360 220.7037141649045 L 360 220.70371416490445 L 361 223.38938012684952 L 361 223.38938012684952 L 362 226.04121945031676 L 362 226.04121945031673 L 363 228.65923213530618 L 363 228.65923213530615 L 364 231.2434181818178 L 364 231.2434181818178 L 365 233.7937775898517 L 365 233.79377758985163 L 366 236.31031035940765 L 366 236.31031035940765 L 367 238.7930164904859 L 367 238.7930164904859 L 368 241.24189598308635 L 368 241.2418959830863 L 369 243.65694883720897 L 369 243.65694883720892 L 370 246.03817505285377 L 370 246.03817505285377 L 371 248.3855746300208 L 371 248.38557463002076 L 372 250.69914756871003 L 372 250.69914756871003 L 373 252.97889386892143 L 373 252.9788938689214 L 374 255.22481353065507 L 374 255.22481353065507 L 375 257.4369065539109 L 375 257.43690655391083 L 376 259.61517293868894 L 376 259.6151729386889 L 377 261.7596126849891 L 377 261.75961268498907 L 378 263.87022579281154 L 378 263.8702257928115 L 379 265.94701226215614 L 379 265.94701226215614 L 380 267.98997209302297 L 380 267.9899720930229 L 381 269.99910528541193 L 381 269.99910528541193 L 382 271.9744118393232 L 382 271.9744118393231 L 383 273.91589175475656 L 383 273.91589175475656 L 384 275.8235450317122 L 384 275.8235450317122 L 385 277.69737167018997 L 385 277.69737167018997 L 386 279.53737167019 L 386 279.53737167018994 L 387 281.3435450317122 L 387 281.34354503171215 L 388 283.1158917547566 L 388 283.1158917547566 L 389 284.8544118393232 L 389 284.8544118393232 L 390 286.559105285412 L 390 286.559105285412 L 391 288.229972093023 L 391 288.229972093023 L 392 289.8670122621562 L 392 289.86701226215615 L 393 291.47022579281156 L 393 291.47022579281156 L 394 293.03961268498915 L 394 293.03961268498915 L 395 294.575172938689 L 395 294.5751729386889 L 396 296.07690655391093 L 396 296.07690655391093 L 397 297.5448135306551 L 397 297.5448135306551 L 398 298.97889386892155 L 398 298.97889386892155 L 399 300.3791475687101 L 399 300.3791475687101 L 400 301.7455746300209 L 400 301.7455746300209 L 401 303.0781750528539 L 401 303.0781750528539 L 402 304.37694883720906 L 402 304.37694883720906 L 403 305.64189598308644 L 403 305.64189598308644 L 404 306.873016490486 L 404 306.873016490486 L 405 308.0703103594078 L 405 308.0703103594078 L 406 309.2337775898518 L 406 309.2337775898518 L 407 310.36341818181796 L 407 310.36341818181796 L 408 311.45923213530637 L 408 311.45923213530637 L 409 312.5212194503169 L 409 312.5212194503169 L 410 313.5493801268497 L 410 313.54938012684966 L 411 314.54371416490466 L 411 314.54371416490466 L 412 315.50422156448184 L 412 315.50422156448184 L 413 316.4309023255812 L 413 316.4309023255812 L 414 317.32375644820274 L 414 317.32375644820274 L 415 318.1827839323465 L 415 318.1827839323465 L 416 319.0079847780125 L 416 319.0079847780125 L 417 319.7993589852007 L 417 319.7993589852007 L 418 320.556906553911 L 418 320.556906553911 L 419 321.28062748414357 L 419 321.28062748414357 L 420 321.97052177589836 L 420 321.97052177589836 L 421 322.6265894291753 L 421 322.6265894291753 L 422 323.24883044397444 L 422 323.24883044397444 L 423 323.83724482029584 L 423 323.83724482029584 L 424 324.39183255813936 L 424 324.39183255813936 L 425 324.9125936575051 L 425 324.9125936575051 L 426 325.3995281183931 L 426 325.3995281183931 L 427 325.8526359408032 L 427 325.8526359408032 L 428 326.2719171247356 L 428 326.2719171247356 L 429 326.6573716701901 L 429 326.6573716701901 L 430 327.0089995771669 L 430 327.0089995771669 L 431 327.32680084566584 L 431 327.32680084566584 L 432 327.610775475687 L 432 327.610775475687 L 433 327.86092346723035 L 433 327.86092346723035 L 434 328.07724482029585 L 434 328.07724482029585 L 435 328.25973953488364 L 435 328.25973953488364 L 436 328.40840761099355 L 436 328.40840761099355 L 437 328.5232490486257 L 437 328.5232490486257 L 438 328.60426384778003 L 438 328.60426384778003 L 439 328.65145200845654 L 439 328.65145200845654 L 440 328.6649999999999 L 440 328.6648135306553 L 441 328.6443484143762 L 441 328.6443484143762 L 442 328.5900566596194 L 442 328.5900566596194 L 443 328.5019382663847 L 443 328.5019382663847 L 444 328.3799932346722 L 444 328.3799932346722 L 445 328.224221564482 L 445 328.224221564482 L 446 328.03462325581387 L 446 328.03462325581387 L 447 327.811198308668 L 447 327.811198308668 L 448 327.55394672304436 L 448 327.55394672304436 L 449 327.26286849894285 L 449 327.26286849894285 L 450 326.9379636363636 L 450 326.9379636363636 L 451 326.5792321353065 L 451 326.5792321353065 L 452 326.1866739957716 L 452 326.1866739957716 L 453 325.76028921775895 L 453 325.76028921775895 L 454 325.30007780126846 L 454 325.30007780126846 L 455 324.8060397463002 L 455 324.8060397463002 L 456 324.27817505285407 L 456 324.27817505285407 L 457 323.7164837209302 L 457 323.7164837209302 L 458 323.1209657505285 L 458 323.1209657505285 L 459 322.49162114164903 L 459 322.49162114164903 L 460 321.82844989429174 L 460 321.82844989429174 L 461 321.1314520084567 L 461 321.1314520084567 L 462 320.40062748414374 L 462 320.40062748414374 L 463 319.63597632135304 L 463 319.63597632135304 L 464 318.8374985200846 L 464 318.8374985200846 L 465 318.00519408033824 L 465 318.0051940803383 L 466 317.1390630021142 L 466 317.1390630021142 L 467 316.2391052854123 L 467 316.2391052854123 L 468 315.3053209302326 L 468 315.3053209302326 L 469 314.3377099365751 L 469 314.3377099365751 L 470 313.3362723044398 L 470 313.3362723044398 L 471 312.30100803382663 L 471 312.3010080338267 L 472 311.2319171247358 L 472 311.2319171247358 L 473 310.12899957716706 L 473 310.12899957716706 L 474 308.9922553911206 L 474 308.9922553911206 L 475 307.8216845665962 L 475 307.8216845665963 L 476 306.61728710359415 L 476 306.61728710359415 L 477 305.3790630021142 L 477 305.3790630021142 L 478 304.1070122621565 L 478 304.1070122621565 L 479 302.801134883721 L 479 302.801134883721 L 480 301.4614308668077 L 480 301.4614308668077 L 481 300.0879002114166 L 481 300.0879002114166 L 482 298.68054291754765 L 482 298.68054291754765 L 483 297.2393589852009 L 483 297.23935898520097 L 484 295.7643484143764 L 484 295.7643484143764 L 485 294.2555112050741 L 485 294.2555112050741 L 486 292.7128473572939 L 486 292.712847357294 L 487 291.136356871036 L 487 291.136356871036 L 488 289.5260397463003 L 488 289.52603974630034 L 489 287.8818959830868 L 489 287.8818959830868 L 490 286.2039255813954 L 490 286.2039255813955 L 491 284.49212854122635 L 491 284.49212854122635 L 492 282.7465048625794 L 492 282.7465048625794 L 493 280.96705454545463 L 493 280.9670545454547 L 494 279.1537775898521 L 494 279.15377758985215 L 495 277.3066739957718 L 495 277.3066739957718 L 496 275.42574376321363 L 496 275.4257437632137 L 497 273.5109868921777 L 497 273.51098689217775 L 498 271.562403382664 L 498 271.562403382664 L 499 269.57999323467243 L 499 269.5799932346725 L 500 267.5637564482031 L 500 267.56375644820315 L 501 265.513693023256 L 501 265.513693023256 L 502 263.429802959831 L 502 263.429802959831 L 503 261.3120862579283 L 503 261.3120862579283 L 504 259.16054291754773 L 504 259.16054291754773 L 505 256.9751729386894 L 505 256.9751729386894 L 506 254.75597632135322 L 506 254.75597632135327 L 507 252.5029530655393 L 507 252.50295306553932 L 508 250.21610317124754 L 508 250.21610317124757 L 509 247.89542663847797 L 509 247.895426638478 L 510 245.54092346723064 L 510 245.54092346723064 L 511 243.15259365750546 L 511 243.1525936575055 L 512 240.73043720930252 L 512 240.73043720930252 L 513 238.27445412262176 L 513 238.2744541226218 L 514 235.7846443974632 L 514 235.78464439746324 L 515 233.26100803382684 L 515 233.2610080338269 L 516 230.70354503171268 L 516 230.70354503171274 L 517 228.11225539112075 L 517 228.11225539112075 L 518 225.48713911205095 L 518 225.48713911205095 L 519 222.8281961945034 L 519 222.82819619450342 L 520 220.13542663847804 L 520 220.13542663847807 L 521 217.40883044397486 L 521 217.40883044397486 L 522 214.6484076109939 L 522 214.64840761099393 L 523 211.85415813953514 L 523 211.85415813953517 L 524 209.02608202959857 L 524 209.02608202959863 L 525 206.16417928118415 L 525 206.1641792811842 L 526 203.268449894292 L 526 203.26844989429205 L 527 200.338893868922 L 527 200.33889386892207 L 528 197.37551120507425 L 528 197.3755112050743 L 529 194.3783019027487 L 529 194.37830190274875 L 530 191.3472659619453 L 530 191.34726596194534 L 531 188.2824033826641 L 531 188.28240338266417 L 532 185.18371416490515 L 532 185.1837141649052 L 533 182.05119830866838 L 533 182.05119830866843 L 534 178.88485581395375 L 534 178.8848558139538 L 535 175.6846866807614 L 535 175.68468668076142 L 536 172.4506909090912 L 536 172.45069090909126 L 537 169.18286849894315 L 537 169.1828684989432 L 538 165.88121945031745 L 538 165.88121945031747 L 539 162.54574376321378 L 539 162.54574376321384 L 540 159.17644143763246 L 540 159.17644143763252 L 541 155.77331247357324 L 541 155.77331247357327 L 542 152.3363568710363 L 542 152.33635687103634 L 543 148.86557463002143 L 543 148.86557463002148 L 544 145.3609657505289 L 544 145.36096575052895 L 545 141.82253023255845 L 545 141.8225302325585 L 546 138.25026807611025 L 546 138.2502680761103 L 547 134.64417928118428 L 547 134.64417928118434 L 548 131.00426384778044 L 548 131.0042638477805 L 549 127.33052177589892 L 549 127.33052177589894 L 550 123.62295306553943 L 550 123.62295306553949 L 551 119.8815577167023 L 551 119.88155771670236 L 552 116.10633572938727 L 552 116.1063357293873 L 553 112.2972871035945 L 553 112.29728710359456 L 554 108.45441183932383 L 554 108.45441183932388 L 555 104.57770993657539 L 555 104.57770993657545 L 556 100.66718139534922 L 556 100.66718139534927 L 557 96.7228262156452 L 557 96.72282621564523 L 558 92.74464439746345 L 558 92.7446443974635 L 559 88.7326359408037 L 559 88.73263594080382 L 560 84.68680084566637 L 560 84.68680084566645 L 561 80.60713911205113 L 561 80.60713911205124 L 562 76.49365073995804 L 562 76.49365073995816 L 563 72.3463357293873 L 563 72.34633572938742 L 564 68.16519408033861 L 564 68.16519408033872 L 565 63.95022579281226 L 565 63.950225792812375 L 566 59.70143086680798 L 566 59.701430866808096 L 567 55.41880930232605 L 567 55.41880930232617 L 568 51.102361099366135 L 568 51.10236109936625 L 569 46.752086257928454 L 569 46.75208625792857 L 570 42.367984778013124 L 570 42.36798477801324 L 571 37.950056659619804 L 571 37.95005665961992 L 572 33.498301902748835 L 572 33.49830190274895 L 573 29.01272050739999 L 573 29.012720507400104 L 574 24.49331247357344 L 574 24.493312473573553 L 575 19.940077801268956 L 575 19.94007780126907 L 576 15.353016490486766 L 576 15.353016490486823 L 577 10.7321285412267 L 577 10.732128541226814 L 578 6.077413953488815 L 578 6.077413953488929 L 579 1.388872727273224 L 579 1.3888727272733377 L 580 -3.3334951374203 L 580 -3.3334951374201864 L 581 -8.089689640591473 L 581 -8.08968964059136 L 582 -12.87971078224058 L 582 -12.879710782240466 L 583 -17.703558562367334 L 583 -17.703558562367277 L 584 -22.561232980972022 L 584 -22.56123298097191 L 585 -27.452734038054416 L 585 -27.452734038054302 L 586 -32.378061733614686 L 586 -32.37806173361457 L 587 -37.33721606765283 L 587 -37.33721606765272 L 588 -42.33019704016857 L 588 -42.33019704016846 L 589 -47.3570046511623 L 589 -47.357004651162185 L 590 -52.417638900633676 L 590 -52.41763890063356 L 591 -57.51209978858299 L 591 -57.51209978858293 L 592 -62.64038731501 L 592 -62.64038731500989 L 593 -67.8025014799149 L 593 -67.80250147991478 L 594 -72.9984422832976 L 594 -72.99844228329749 L 595 -78.22820972515802 L 595 -78.22820972515791 L 596 -83.49180380549637 L 596 -83.49180380549626 L 597 -88.78922452431232 L 597 -88.7892245243122 L 598 -94.12047188160625 L 598 -94.12047188160614 L 599 -99.48554587737783 L 599 -99.48554587737772 L 600 -104.88444651162735 L 600 -104.88444651162723 L 601 -110.31717378435468 L 601 -110.31717378435457 L 602 -115.78372769555966 L 602 -115.7837276955596 L 603 -121.28410824524258 L 603 -121.28410824524246 L 604 -126.8183154334032 L 604 -126.81831543340309 L 605 -132.38634926004175 L 605 -132.38634926004164 L 606 -137.98820972515796 L 606 -137.98820972515784 L 607 -143.62389682875204 L 607 -143.62389682875192 L 608 -149.29341057082388 L 608 -149.29341057082365 L 609 -154.99675095137366 L 609 -154.99675095137343 L 610 -160.7339179704012 L 610 -160.73391797040097 L 611 -166.50491162790638 L 611 -166.50491162790615 L 612 -172.3097319238895 L 612 -172.30973192388933 L 613 -178.14837885835038 L 613 -178.14837885835016 L 614 -184.02085243128903 L 614 -184.0208524312888 L 615 -189.9271526427055 L 615 -189.92715264270527 L 616 -195.86727949259983 L 616 -195.8672794925996 L 617 -201.84123298097182 L 617 -201.8412329809716 L 618 -207.8490131078218 L 618 -207.84901310782158 L 619 -213.89061987314955 L 619 -213.89061987314943 L 620 -219.96605327695494 L 620 -219.9660532769547 L 621 -226.07531331923832 L 621 -226.0753133192381 L 622 -232.21839999999935 L 622 -232.21839999999912 L 623 -238.39531331923826 L 623 -238.39531331923814 L 624 -244.60605327695492 L 624 -244.6060532769547 L 625 -250.85061987314947 L 625 -250.85061987314924 L 626 -257.1290131078218 L 626 -257.12901310782155 L 627 -263.44123298097185 L 627 -263.4412329809716 L 628 -269.7872794925998 L 628 -269.7872794925997 L 629 -276.1671526427054 L 629 -276.16715264270516 L 630 -282.5808524312891 L 630 -282.58085243128886 L 631 -289.0283788583502 L 631 -289.02837885835 L 632 -295.50973192388943 L 632 -295.5097319238892 L 633 -302.0249116279063 L 633 -302.0249116279061 L 634 -308.57391797040094 L 634 -308.5739179704008 L 635 -315.15675095137357 L 635 -315.15675095137334 L 636 -321.7734105708237 L 636 -321.7734105708236 L 637 -328.423896828752 L 637 -328.42389682875177 L 638 -335.1082097251578 L 638 -335.10820972515756 L 639 -341.8263492600416 L 639 -341.82634926004135 L 640 -348.578315433403 L 640 -348.5783154334028 L 641 -355.36410824524233 L 641 -355.3641082452421 L 642 -362.1837276955595 L 642 -362.1837276955593 L 643 -369.0371737843545 L 643 -369.03717378435425 L 644 -375.9244465116272 L 644 -375.92444651162697 L 645 -382.84554587737756 L 645 -382.84554587737733 L 646 -389.80047188160603 L 646 -389.8004718816058 L 647 -396.78922452431215 L 647 -396.7892245243119 L 648 -403.811803805496 L 648 -403.8118038054959 L 649 -410.86820972515767 L 649 -410.86820972515744 L 650 -417.9584422832973 L 650 -417.9584422832971 L 651 -425.0825014799147 L 651 -425.08250147991447 L 652 -432.24038731500974 L 652 -432.2403873150095 L 653 -439.4320997885828 L 653 -439.43209978858255 L 654 -446.65763890063346 L 654 -446.65763890063323 L 655 -453.917004651162 L 655 -453.9170046511618 L 656 -461.21019704016845 L 656 -461.2101970401682 L 657 -468.53721606765265 L 657 -468.5372160676524 L 658 -475.8980617336144 L 658 -475.89806173361416 L 659 -483.2927340380541 L 659 -483.2927340380539 L 660 -490.7212329809717 L 660 -490.7212329809715 L 661 -498.1835585623672 L 661 -498.18355856236695 L 662 -505.67971078223997 L 662 -505.67971078223974 L 663 -513.209689640591 L 663 -513.2096896405908 L 664 -520.77349513742 L 664 -520.7734951374198 L 665 -528.3711272727264 L 665 -528.3711272727264 L 666 -536.0025860465109 L 666 -536.0025860465107 L 667 -543.6678714587729 L 667 -543.6678714587727 L 668 -551.3669835095127 L 668 -551.3669835095127 L 669 -559.0999221987306 L 669 -559.0999221987304 L 670 -566.8666875264264 L 670 -566.8666875264262 L 671 -574.6672794925994 L 671 -574.6672794925992 L 672 -582.5016980972507 L 672 -582.5016980972505 L 673 -590.3699433403797 L 673 -590.3699433403795 L 674 -598.2720152219865 L 674 -598.2720152219863 L 675 -606.2079137420712 L 675 -606.207913742071 L 676 -614.1776389006332 L 676 -614.1776389006329 L 677 -622.1811906976736 L 677 -622.1811906976732 L 678 -630.2185691331915 L 678 -630.2185691331911 L 679 -638.2897742071873 L 679 -638.2897742071871 L 680 -646.3948059196607 L 680 -646.3948059196603 L 681 -654.5336642706122 L 681 -654.5336642706118 L 682 -662.7063492600414 L 682 -662.706349260041 L 683 -670.9128608879485 L 683 -670.912860887948 L 684 -679.1531991543334 L 684 -679.1531991543329 L 685 -687.4273640591957 L 685 -687.4273640591953 L 686 -695.735355602536 L 686 -695.7353556025357 L 687 -704.0771737843543 L 687 -704.0771737843538 L 688 -712.4528186046502 L 688 -712.4528186046498 L 689 -720.8622900634239 L 689 -720.8622900634234 L 690 -729.3055881606756 L 690 -729.3055881606751 L 691 -737.782712896405 L 691 -737.7827128964045 L 692 -746.2936642706122 L 692 -746.293664270612 L 693 -754.8384422832974 L 693 -754.8384422832969 L 694 -763.4170469344597 L 694 -763.4170469344592 L 695 -772.0294782241003 L 695 -772.0294782240999 L 696 -780.6757361522191 L 696 -780.6757361522186 L 697 -789.3558207188153 L 697 -789.3558207188148 L 698 -798.0697319238893 L 698 -798.0697319238889 L 699 -806.8174697674406 L 699 -806.8174697674401 L 700 -815.5990342494706 L 700 -815.5990342494702 L 701 -824.4144253699778 L 701 -824.4144253699774 L 702 -833.2636431289632 L 702 -833.2636431289627 L 703 -842.1466875264259 L 703 -842.1466875264255 L 704 -851.0635585623666 L 704 -851.0635585623663 L 705 -860.0142562367855 L 705 -860.0142562367851 L 706 -868.9987805496821 L 706 -868.9987805496817 L 707 -878.0171315010564 L 707 -878.0171315010559 L 708 -887.0693090909078 L 708 -887.0693090909074 L 709 -896.1553133192376 L 709 -896.1553133192374 L 710 -905.2751441860455 L 710 -905.275144186045 L 711 -914.428801691331 L 711 -914.4288016913306 L 712 -923.6162858350938 L 712 -923.6162858350935 L 713 -932.8375966173351 L 713 -932.8375966173346 L 714 -942.092734038054 L 714 -942.0927340380535 L 715 -951.3816980972506 L 715 -951.3816980972504 L 716 -960.7044887949253 L 716 -960.7044887949248 L 717 -970.0611061310769 L 717 -970.0611061310765 L 718 -979.4515501057072 L 718 -979.4515501057067 L 719 -988.875820718815 L 719 -988.8758207188146 L 720 -998.3339179704008 L 720 -998.3339179704003 L 721 -1007.8258418604642 L 721 -1007.8258418604637 L 722 -1017.3515923890052 L 722 -1017.3515923890047 L 723 -1026.911169556024 L 723 -1026.9111695560239 L 724 -1036.5045733615211 L 724 -1036.5045733615207 L 725 -1046.131803805496 L 725 -1046.1318038054956 L 726 -1055.7928608879479 L 726 -1055.7928608879477 L 727 -1065.487744608878 L 727 -1065.4877446088776 L 728 -1075.2164549682864 L 728 -1075.216454968286 L 729 -1084.9789919661723 L 729 -1084.978991966172 L 730 -1094.7753556025361 L 730 -1094.7753556025357 L 731 -1104.6055458773772 L 731 -1104.6055458773767 L 732 -1114.4695627906965 L 732 -1114.469562790696 L 733 -1124.3674063424935 L 733 -1124.367406342493 L 734 -1134.2990765327684 L 734 -1134.2990765327681 L 735 -1144.2645733615207 L 735 -1144.2645733615202 L 736 -1154.2638968287513 L 736 -1154.2638968287508 L 737 -1164.2970469344596 L 737 -1164.297046934459 L 738 -1174.364023678646 L 738 -1174.3640236786455 L 739 -1184.4648270613097 L 739 -1184.4648270613093 L 740 -1194.599457082451 L 740 -1194.5994570824505 L 741 -1204.7679137420705 L 741 -1204.7679137420703 L 742 -1214.970197040168 L 742 -1214.9701970401675 L 743 -1225.206306976743 L 743 -1225.2063069767426 L 744 -1235.4762435517955 L 744 -1235.476243551795 L 745 -1245.780006765326 L 745 -1245.7800067653259 L 746 -1256.117596617335 L 746 -1256.1175966173346 L 747 -1266.4890131078212 L 747 -1266.4890131078207 L 748 -1276.8942562367854 L 748 -1276.894256236785 L 749 -1287.3333260042268 L 749 -1287.3333260042264 L 750 -1297.8062224101466 L 750 -1297.8062224101463 L 751 -1308.3129454545442 L 751 -1308.3129454545438 L 752 -1318.8534951374197 L 752 -1318.8534951374193 L 753 -1329.4278714587722 L 753 -1329.4278714587717 L 754 -1340.0360744186032 L 754 -1340.0360744186028 L 755 -1350.678104016912 L 755 -1350.6781040169117 L 756 -1361.3539602536985 L 756 -1361.353960253698 L 757 -1372.063643128963 L 757 -1372.0636431289624 L 758 -1382.8071526427045 L 758 -1382.807152642704 L 759 -1393.5844887949247 L 759 -1393.5844887949243 L 760 -1404.3956515856223 L 760 -1404.3956515856219 L 761 -1415.2406410147978 L 761 -1415.2406410147973 L 762 -1426.1194570824512 L 762 -1426.1194570824507 L 763 -1437.032099788582 L 763 -1437.0320997885815 L 764 -1447.9785691331908 L 764 -1447.9785691331906 L 765 -1458.9588651162776 L 765 -1458.9588651162771 L 766 -1469.9729877378422 L 766 -1469.9729877378418 L 767 -1481.0209369978843 L 767 -1481.0209369978838 L 768 -1492.1027128964042 L 768 -1492.1027128964038 L 769 -1503.2183154334023 L 769 -1503.2183154334018 L 770 -1514.3677446088782 L 770 -1514.3677446088777 L 771 -1525.5510004228317 L 771 -1525.5510004228313 L 772 -1536.7680828752627 L 772 -1536.7680828752623 L 773 -1548.0189919661718 L 773 -1548.0189919661714 L 774 -1559.303727695559 L 774 -1559.3037276955586 L 775 -1570.622290063424 L 775 -1570.6222900634232 L 776 -1581.974679069766 L 776 -1581.9746790697652 L 777 -1593.3608947145863 L 777 -1593.3608947145856 L 778 -1604.7809369978845 L 778 -1604.7809369978836 L 779 -1616.2348059196606 L 779 -1616.23480591966 L 780 -1627.7225014799144 L 780 -1627.7225014799135 L 781 -1639.2440236786454 L 781 -1639.2440236786447 L 782 -1650.7993725158549 L 782 -1650.7993725158542 L 783 -1662.388547991542 L 783 -1662.3885479915411 L 784 -1674.0115501057073 L 784 -1674.0115501057064 L 785 -1685.66837885835 L 785 -1685.6683788583493 L 786 -1697.35903424947 L 786 -1697.3590342494692 L 787 -1709.0835162790684 L 787 -1709.0835162790675 L 788 -1720.8418249471442 L 788 -1720.8418249471438 L 789 -1732.6339602536987 L 789 -1732.6339602536978 L 790 -1744.4599221987296 L 790 -1744.4599221987287 L 791 -1756.3197107822398 L 791 -1756.3197107822389 L 792 -1768.213326004227 L 792 -1768.213326004226 L 793 -1780.1407678646924 L 793 -1780.1407678646915 L 794 -1792.1020363636353 L 794 -1792.1020363636344 L 795 -1804.0971315010556 L 795 -1804.0971315010547 L 796 -1816.1260532769543 L 796 -1816.1260532769534 L 797 -1828.1888016913304 L 797 -1828.18880169133 L 798 -1840.2853767441852 L 798 -1840.2853767441843 L 799 -1852.4157784355161 L 799 -1852.4157784355152 L 800 -1864.5800067653263 L 800 -1864.5800067653254 L 801 -1876.7780617336139 L 801 -1876.778061733613 L 802 -1889.0099433403789 L 802 -1889.0099433403784 L 803 -1901.2756515856222 L 803 -1901.2756515856217 L 804 -1913.575186469343 L 804 -1913.575186469342 L 805 -1925.908547991542 L 805 -1925.9085479915411 L 806 -1938.2757361522185 L 806 -1938.2757361522176 L 807 -1950.676750951373 L 807 -1950.6767509513725 L 808 -1963.1115923890047 L 808 -1963.1115923890038 L 809 -1975.5802604651149 L 809 -1975.580260465114 L 810 -1988.0827551797024 L 810 -1988.082755179702 L 811 -2000.6190765327678 L 811 -2000.6190765327674 L 812 -2013.1892245243116 L 812 -2013.1892245243112 L 813 -2025.7931991543323 L 813 -2025.7931991543314 L 814 -2038.4310004228314 L 814 -2038.4310004228305 L 815 -2051.1026283298083 L 815 -2051.1026283298074 L 816 -2063.808082875263 L 816 -2063.8080828752622 L 817 -2076.547364059195 L 817 -2076.547364059194 L 818 -2089.320471881605 L 818 -2089.320471881604 L 819 -2102.127406342493 L 819 -2102.127406342492 L 820 -2114.968167441859 L 820 -2114.968167441858 L 821 -2127.8427551797026 L 821 -2127.8427551797017 L 822 -2140.7511695560233 L 822 -2140.751169556023 L 823 -2153.693410570823 L 823 -2153.693410570822 L 824 -2166.6694782240997 L 824 -2166.669478224099 L 825 -2179.679372515855 L 825 -2179.679372515854 L 826 -2192.723093446087 L 826 -2192.7230934460868 L 827 -2205.8006410147973 L 827 -2205.800641014797 L 828 -2218.9120152219857 L 828 -2218.912015221985 L 829 -2232.0572160676516 L 829 -2232.057216067651 L 830 -2245.2362435517957 L 830 -2245.236243551795 L 831 -2258.449097674417 L 831 -2258.449097674416 L 832 -2271.695778435516 L 832 -2271.695778435515 L 833 -2284.9762858350937 L 833 -2284.9762858350928 L 834 -2298.2906198731484" stroke-opacity="0.8" stroke-linecap="round" stroke-linejoin="round" stroke-miterlimit="10" stroke-width="6.5"/><text fill="rgb(211,47,47)" stroke="none" font-family="geogebra-sans-serif, sans-serif" font-size="16px" font-style="normal" font-weight="normal" text-decoration="normal" x="302" y="24" text-anchor="start" dominant-baseline="alphabetic" fill-opacity="1">f</text><text fill="none" stroke="rgb(255,255,255)" font-family="geogebra-sans-serif, sans-serif" font-size="16px" font-style="normal" font-weight="normal" text-decoration="normal" x="302" y="24" text-anchor="start" dominant-baseline="alphabetic" stroke-opacity="1" stroke-linejoin="bevel" stroke-miterlimit="10" stroke-width="3">f</text><text fill="rgb(211,47,47)" stroke="none" font-family="geogebra-sans-serif, sans-serif" font-size="16px" font-style="normal" font-weight="normal" text-decoration="normal" x="302" y="24" text-anchor="start" dominant-baseline="alphabetic" fill-opacity="1">f</text></g></g></svg>