<svg version="1.1" xmlns="http://www.w3.org/2000/svg" xmlns:xlink="http://www.w3.org/1999/xlink" width="1450" height="855"><defs><clipPath id="nrPGqnsrAcTt"><path fill="none" stroke="none" d=" M 0 0 L 1450 0 L 1450 855 L 0 855 L 0 0 Z"/></clipPath></defs><g transform="scale(1,1)" clip-path="url(#nrPGqnsrAcTt)"><g><rect fill="rgb(255,255,255)" stroke="none" x="0" y="0" width="1450" height="855" fill-opacity="1"/><path fill="none" stroke="rgb(37,37,37)" paint-order="fill stroke markers" d=" M 578 3 L 578 855" stroke-opacity="1" stroke-miterlimit="10" stroke-width="2"/><path fill="rgb(37,37,37)" stroke="none" paint-order="stroke fill markers" fill-rule="evenodd" d=" M 577.819491861212 2 L 572.819491861212 22 L 582.819491861212 22" fill-opacity="1"/><path fill="none" stroke="rgb(37,37,37)" paint-order="fill stroke markers" d=" M 0 402 L 1447 402" stroke-opacity="1" stroke-miterlimit="10" stroke-width="2"/><path fill="rgb(37,37,37)" stroke="none" paint-order="stroke fill markers" fill-rule="evenodd" d=" M 1448 402.2242140748174 L 1428 397.2242140748174 L 1428 407.2242140748174" fill-opacity="1"/><text fill="rgb(37,37,37)" stroke="none" font-family="geogebra-sans-serif, sans-serif" font-size="12px" font-style="normal" font-weight="bold" text-decoration="normal" x="12" y="418" text-anchor="start" dominant-baseline="alphabetic" fill-opacity="1">–3.5</text><text fill="none" stroke="rgb(255,255,255)" font-family="geogebra-sans-serif, sans-serif" font-size="12px" font-style="normal" font-weight="bold" text-decoration="normal" x="12" y="418" text-anchor="start" dominant-baseline="alphabetic" stroke-opacity="1" stroke-linejoin="bevel" stroke-miterlimit="10" stroke-width="3">–3.5</text><text fill="rgb(37,37,37)" stroke="none" font-family="geogebra-sans-serif, sans-serif" font-size="12px" font-style="normal" font-weight="bold" text-decoration="normal" x="12" y="418" text-anchor="start" dominant-baseline="alphabetic" fill-opacity="1">–3.5</text><path fill="none" stroke="rgb(37,37,37)" paint-order="fill stroke markers" d=" M 26 402 L 26 405" stroke-opacity="1" stroke-miterlimit="10" stroke-width="2"/><text fill="rgb(37,37,37)" stroke="none" font-family="geogebra-sans-serif, sans-serif" font-size="12px" font-style="normal" font-weight="bold" text-decoration="normal" x="98" y="418" text-anchor="start" dominant-baseline="alphabetic" fill-opacity="1">–3</text><text fill="none" stroke="rgb(255,255,255)" font-family="geogebra-sans-serif, sans-serif" font-size="12px" font-style="normal" font-weight="bold" text-decoration="normal" x="98" y="418" text-anchor="start" dominant-baseline="alphabetic" stroke-opacity="1" stroke-linejoin="bevel" stroke-miterlimit="10" stroke-width="3">–3</text><text fill="rgb(37,37,37)" stroke="none" font-family="geogebra-sans-serif, sans-serif" font-size="12px" font-style="normal" font-weight="bold" text-decoration="normal" x="98" y="418" text-anchor="start" dominant-baseline="alphabetic" fill-opacity="1">–3</text><path fill="none" stroke="rgb(37,37,37)" paint-order="fill stroke markers" d=" M 105 402 L 105 405" stroke-opacity="1" stroke-miterlimit="10" stroke-width="2"/><text fill="rgb(37,37,37)" stroke="none" font-family="geogebra-sans-serif, sans-serif" font-size="12px" font-style="normal" font-weight="bold" text-decoration="normal" x="170" y="418" text-anchor="start" dominant-baseline="alphabetic" fill-opacity="1">–2.5</text><text fill="none" stroke="rgb(255,255,255)" font-family="geogebra-sans-serif, sans-serif" font-size="12px" font-style="normal" font-weight="bold" text-decoration="normal" x="170" y="418" text-anchor="start" dominant-baseline="alphabetic" stroke-opacity="1" stroke-linejoin="bevel" stroke-miterlimit="10" stroke-width="3">–2.5</text><text fill="rgb(37,37,37)" stroke="none" font-family="geogebra-sans-serif, sans-serif" font-size="12px" font-style="normal" font-weight="bold" text-decoration="normal" x="170" y="418" text-anchor="start" dominant-baseline="alphabetic" fill-opacity="1">–2.5</text><path fill="none" stroke="rgb(37,37,37)" paint-order="fill stroke markers" d=" M 184 402 L 184 405" stroke-opacity="1" stroke-miterlimit="10" stroke-width="2"/><text fill="rgb(37,37,37)" stroke="none" font-family="geogebra-sans-serif, sans-serif" font-size="12px" font-style="normal" font-weight="bold" text-decoration="normal" x="256" y="418" text-anchor="start" dominant-baseline="alphabetic" fill-opacity="1">–2</text><text fill="none" stroke="rgb(255,255,255)" font-family="geogebra-sans-serif, sans-serif" font-size="12px" font-style="normal" font-weight="bold" text-decoration="normal" x="256" y="418" text-anchor="start" dominant-baseline="alphabetic" stroke-opacity="1" stroke-linejoin="bevel" stroke-miterlimit="10" stroke-width="3">–2</text><text fill="rgb(37,37,37)" stroke="none" font-family="geogebra-sans-serif, sans-serif" font-size="12px" font-style="normal" font-weight="bold" text-decoration="normal" x="256" y="418" text-anchor="start" dominant-baseline="alphabetic" fill-opacity="1">–2</text><path fill="none" stroke="rgb(37,37,37)" paint-order="fill stroke markers" d=" M 263 402 L 263 405" stroke-opacity="1" stroke-miterlimit="10" stroke-width="2"/><text fill="rgb(37,37,37)" stroke="none" font-family="geogebra-sans-serif, sans-serif" font-size="12px" font-style="normal" font-weight="bold" text-decoration="normal" x="327" y="418" text-anchor="start" dominant-baseline="alphabetic" fill-opacity="1">–1.5</text><text fill="none" stroke="rgb(255,255,255)" font-family="geogebra-sans-serif, sans-serif" font-size="12px" font-style="normal" font-weight="bold" text-decoration="normal" x="327" y="418" text-anchor="start" dominant-baseline="alphabetic" stroke-opacity="1" stroke-linejoin="bevel" stroke-miterlimit="10" stroke-width="3">–1.5</text><text fill="rgb(37,37,37)" stroke="none" font-family="geogebra-sans-serif, sans-serif" font-size="12px" font-style="normal" font-weight="bold" text-decoration="normal" x="327" y="418" text-anchor="start" dominant-baseline="alphabetic" fill-opacity="1">–1.5</text><path fill="none" stroke="rgb(37,37,37)" paint-order="fill stroke markers" d=" M 341 402 L 341 405" stroke-opacity="1" stroke-miterlimit="10" stroke-width="2"/><text fill="rgb(37,37,37)" stroke="none" font-family="geogebra-sans-serif, sans-serif" font-size="12px" font-style="normal" font-weight="bold" text-decoration="normal" x="413" y="418" text-anchor="start" dominant-baseline="alphabetic" fill-opacity="1">–1</text><text fill="none" stroke="rgb(255,255,255)" font-family="geogebra-sans-serif, sans-serif" font-size="12px" font-style="normal" font-weight="bold" text-decoration="normal" x="413" y="418" text-anchor="start" dominant-baseline="alphabetic" stroke-opacity="1" stroke-linejoin="bevel" stroke-miterlimit="10" stroke-width="3">–1</text><text fill="rgb(37,37,37)" stroke="none" font-family="geogebra-sans-serif, sans-serif" font-size="12px" font-style="normal" font-weight="bold" text-decoration="normal" x="413" y="418" text-anchor="start" dominant-baseline="alphabetic" fill-opacity="1">–1</text><path fill="none" stroke="rgb(37,37,37)" paint-order="fill stroke markers" d=" M 420 402 L 420 405" stroke-opacity="1" stroke-miterlimit="10" stroke-width="2"/><text fill="rgb(37,37,37)" stroke="none" font-family="geogebra-sans-serif, sans-serif" font-size="12px" font-style="normal" font-weight="bold" text-decoration="normal" x="485" y="418" text-anchor="start" dominant-baseline="alphabetic" fill-opacity="1">–0.5</text><text fill="none" stroke="rgb(255,255,255)" font-family="geogebra-sans-serif, sans-serif" font-size="12px" font-style="normal" font-weight="bold" text-decoration="normal" x="485" y="418" text-anchor="start" dominant-baseline="alphabetic" stroke-opacity="1" stroke-linejoin="bevel" stroke-miterlimit="10" stroke-width="3">–0.5</text><text fill="rgb(37,37,37)" stroke="none" font-family="geogebra-sans-serif, sans-serif" font-size="12px" font-style="normal" font-weight="bold" text-decoration="normal" x="485" y="418" text-anchor="start" dominant-baseline="alphabetic" fill-opacity="1">–0.5</text><path fill="none" stroke="rgb(37,37,37)" paint-order="fill stroke markers" d=" M 499 402 L 499 405" stroke-opacity="1" stroke-miterlimit="10" stroke-width="2"/><path fill="none" stroke="rgb(37,37,37)" paint-order="fill stroke markers" d=" M 578 402 L 578 405" stroke-opacity="1" stroke-miterlimit="10" stroke-width="2"/><text fill="rgb(37,37,37)" stroke="none" font-family="geogebra-sans-serif, sans-serif" font-size="12px" font-style="normal" font-weight="bold" text-decoration="normal" x="646" y="418" text-anchor="start" dominant-baseline="alphabetic" fill-opacity="1">0.5</text><text fill="none" stroke="rgb(255,255,255)" font-family="geogebra-sans-serif, sans-serif" font-size="12px" font-style="normal" font-weight="bold" text-decoration="normal" x="646" y="418" text-anchor="start" dominant-baseline="alphabetic" stroke-opacity="1" stroke-linejoin="bevel" stroke-miterlimit="10" stroke-width="3">0.5</text><text fill="rgb(37,37,37)" stroke="none" font-family="geogebra-sans-serif, sans-serif" font-size="12px" font-style="normal" font-weight="bold" text-decoration="normal" x="646" y="418" text-anchor="start" dominant-baseline="alphabetic" fill-opacity="1">0.5</text><path fill="none" stroke="rgb(37,37,37)" paint-order="fill stroke markers" d=" M 657 402 L 657 405" stroke-opacity="1" stroke-miterlimit="10" stroke-width="2"/><text fill="rgb(37,37,37)" stroke="none" font-family="geogebra-sans-serif, sans-serif" font-size="12px" font-style="normal" font-weight="bold" text-decoration="normal" x="732" y="418" text-anchor="start" dominant-baseline="alphabetic" fill-opacity="1">1</text><text fill="none" stroke="rgb(255,255,255)" font-family="geogebra-sans-serif, sans-serif" font-size="12px" font-style="normal" font-weight="bold" text-decoration="normal" x="732" y="418" text-anchor="start" dominant-baseline="alphabetic" stroke-opacity="1" stroke-linejoin="bevel" stroke-miterlimit="10" stroke-width="3">1</text><text fill="rgb(37,37,37)" stroke="none" font-family="geogebra-sans-serif, sans-serif" font-size="12px" font-style="normal" font-weight="bold" text-decoration="normal" x="732" y="418" text-anchor="start" dominant-baseline="alphabetic" fill-opacity="1">1</text><path fill="none" stroke="rgb(37,37,37)" paint-order="fill stroke markers" d=" M 735 402 L 735 405" stroke-opacity="1" stroke-miterlimit="10" stroke-width="2"/><text fill="rgb(37,37,37)" stroke="none" font-family="geogebra-sans-serif, sans-serif" font-size="12px" font-style="normal" font-weight="bold" text-decoration="normal" x="804" y="418" text-anchor="start" dominant-baseline="alphabetic" fill-opacity="1">1.5</text><text fill="none" stroke="rgb(255,255,255)" font-family="geogebra-sans-serif, sans-serif" font-size="12px" font-style="normal" font-weight="bold" text-decoration="normal" x="804" y="418" text-anchor="start" dominant-baseline="alphabetic" stroke-opacity="1" stroke-linejoin="bevel" stroke-miterlimit="10" stroke-width="3">1.5</text><text fill="rgb(37,37,37)" stroke="none" font-family="geogebra-sans-serif, sans-serif" font-size="12px" font-style="normal" font-weight="bold" text-decoration="normal" x="804" y="418" text-anchor="start" dominant-baseline="alphabetic" fill-opacity="1">1.5</text><path fill="none" stroke="rgb(37,37,37)" paint-order="fill stroke markers" d=" M 814 402 L 814 405" stroke-opacity="1" stroke-miterlimit="10" stroke-width="2"/><text fill="rgb(37,37,37)" stroke="none" font-family="geogebra-sans-serif, sans-serif" font-size="12px" font-style="normal" font-weight="bold" text-decoration="normal" x="890" y="418" text-anchor="start" dominant-baseline="alphabetic" fill-opacity="1">2</text><text fill="none" stroke="rgb(255,255,255)" font-family="geogebra-sans-serif, sans-serif" font-size="12px" font-style="normal" font-weight="bold" text-decoration="normal" x="890" y="418" text-anchor="start" dominant-baseline="alphabetic" stroke-opacity="1" stroke-linejoin="bevel" stroke-miterlimit="10" stroke-width="3">2</text><text fill="rgb(37,37,37)" stroke="none" font-family="geogebra-sans-serif, sans-serif" font-size="12px" font-style="normal" font-weight="bold" text-decoration="normal" x="890" y="418" text-anchor="start" dominant-baseline="alphabetic" fill-opacity="1">2</text><path fill="none" stroke="rgb(37,37,37)" paint-order="fill stroke markers" d=" M 893 402 L 893 405" stroke-opacity="1" stroke-miterlimit="10" stroke-width="2"/><text fill="rgb(37,37,37)" stroke="none" font-family="geogebra-sans-serif, sans-serif" font-size="12px" font-style="normal" font-weight="bold" text-decoration="normal" x="962" y="418" text-anchor="start" dominant-baseline="alphabetic" fill-opacity="1">2.5</text><text fill="none" stroke="rgb(255,255,255)" font-family="geogebra-sans-serif, sans-serif" font-size="12px" font-style="normal" font-weight="bold" text-decoration="normal" x="962" y="418" text-anchor="start" dominant-baseline="alphabetic" stroke-opacity="1" stroke-linejoin="bevel" stroke-miterlimit="10" stroke-width="3">2.5</text><text fill="rgb(37,37,37)" stroke="none" font-family="geogebra-sans-serif, sans-serif" font-size="12px" font-style="normal" font-weight="bold" text-decoration="normal" x="962" y="418" text-anchor="start" dominant-baseline="alphabetic" fill-opacity="1">2.5</text><path fill="none" stroke="rgb(37,37,37)" paint-order="fill stroke markers" d=" M 972 402 L 972 405" stroke-opacity="1" stroke-miterlimit="10" stroke-width="2"/><text fill="rgb(37,37,37)" stroke="none" font-family="geogebra-sans-serif, sans-serif" font-size="12px" font-style="normal" font-weight="bold" text-decoration="normal" x="1048" y="418" text-anchor="start" dominant-baseline="alphabetic" fill-opacity="1">3</text><text fill="none" stroke="rgb(255,255,255)" font-family="geogebra-sans-serif, sans-serif" font-size="12px" font-style="normal" font-weight="bold" text-decoration="normal" x="1048" y="418" text-anchor="start" dominant-baseline="alphabetic" stroke-opacity="1" stroke-linejoin="bevel" stroke-miterlimit="10" stroke-width="3">3</text><text fill="rgb(37,37,37)" stroke="none" font-family="geogebra-sans-serif, sans-serif" font-size="12px" font-style="normal" font-weight="bold" text-decoration="normal" x="1048" y="418" text-anchor="start" dominant-baseline="alphabetic" fill-opacity="1">3</text><path fill="none" stroke="rgb(37,37,37)" paint-order="fill stroke markers" d=" M 1051 402 L 1051 405" stroke-opacity="1" stroke-miterlimit="10" stroke-width="2"/><text fill="rgb(37,37,37)" stroke="none" font-family="geogebra-sans-serif, sans-serif" font-size="12px" font-style="normal" font-weight="bold" text-decoration="normal" x="1119" y="418" text-anchor="start" dominant-baseline="alphabetic" fill-opacity="1">3.5</text><text fill="none" stroke="rgb(255,255,255)" font-family="geogebra-sans-serif, sans-serif" font-size="12px" font-style="normal" font-weight="bold" text-decoration="normal" x="1119" y="418" text-anchor="start" dominant-baseline="alphabetic" stroke-opacity="1" stroke-linejoin="bevel" stroke-miterlimit="10" stroke-width="3">3.5</text><text fill="rgb(37,37,37)" stroke="none" font-family="geogebra-sans-serif, sans-serif" font-size="12px" font-style="normal" font-weight="bold" text-decoration="normal" x="1119" y="418" text-anchor="start" dominant-baseline="alphabetic" fill-opacity="1">3.5</text><path fill="none" stroke="rgb(37,37,37)" paint-order="fill stroke markers" d=" M 1130 402 L 1130 405" stroke-opacity="1" stroke-miterlimit="10" stroke-width="2"/><text fill="rgb(37,37,37)" stroke="none" font-family="geogebra-sans-serif, sans-serif" font-size="12px" font-style="normal" font-weight="bold" text-decoration="normal" x="1205" y="418" text-anchor="start" dominant-baseline="alphabetic" fill-opacity="1">4</text><text fill="none" stroke="rgb(255,255,255)" font-family="geogebra-sans-serif, sans-serif" font-size="12px" font-style="normal" font-weight="bold" text-decoration="normal" x="1205" y="418" text-anchor="start" dominant-baseline="alphabetic" stroke-opacity="1" stroke-linejoin="bevel" stroke-miterlimit="10" stroke-width="3">4</text><text fill="rgb(37,37,37)" stroke="none" font-family="geogebra-sans-serif, sans-serif" font-size="12px" font-style="normal" font-weight="bold" text-decoration="normal" x="1205" y="418" text-anchor="start" dominant-baseline="alphabetic" fill-opacity="1">4</text><path fill="none" stroke="rgb(37,37,37)" paint-order="fill stroke markers" d=" M 1208 402 L 1208 405" stroke-opacity="1" stroke-miterlimit="10" stroke-width="2"/><text fill="rgb(37,37,37)" stroke="none" font-family="geogebra-sans-serif, sans-serif" font-size="12px" font-style="normal" font-weight="bold" text-decoration="normal" x="1277" y="418" text-anchor="start" dominant-baseline="alphabetic" fill-opacity="1">4.5</text><text fill="none" stroke="rgb(255,255,255)" font-family="geogebra-sans-serif, sans-serif" font-size="12px" font-style="normal" font-weight="bold" text-decoration="normal" x="1277" y="418" text-anchor="start" dominant-baseline="alphabetic" stroke-opacity="1" stroke-linejoin="bevel" stroke-miterlimit="10" stroke-width="3">4.5</text><text fill="rgb(37,37,37)" stroke="none" font-family="geogebra-sans-serif, sans-serif" font-size="12px" font-style="normal" font-weight="bold" text-decoration="normal" x="1277" y="418" text-anchor="start" dominant-baseline="alphabetic" fill-opacity="1">4.5</text><path fill="none" stroke="rgb(37,37,37)" paint-order="fill stroke markers" d=" M 1287 402 L 1287 405" stroke-opacity="1" stroke-miterlimit="10" stroke-width="2"/><text fill="rgb(37,37,37)" stroke="none" font-family="geogebra-sans-serif, sans-serif" font-size="12px" font-style="normal" font-weight="bold" text-decoration="normal" x="1363" y="418" text-anchor="start" dominant-baseline="alphabetic" fill-opacity="1">5</text><text fill="none" stroke="rgb(255,255,255)" font-family="geogebra-sans-serif, sans-serif" font-size="12px" font-style="normal" font-weight="bold" text-decoration="normal" x="1363" y="418" text-anchor="start" dominant-baseline="alphabetic" stroke-opacity="1" stroke-linejoin="bevel" stroke-miterlimit="10" stroke-width="3">5</text><text fill="rgb(37,37,37)" stroke="none" font-family="geogebra-sans-serif, sans-serif" font-size="12px" font-style="normal" font-weight="bold" text-decoration="normal" x="1363" y="418" text-anchor="start" dominant-baseline="alphabetic" fill-opacity="1">5</text><path fill="none" stroke="rgb(37,37,37)" paint-order="fill stroke markers" d=" M 1366 402 L 1366 405" stroke-opacity="1" stroke-miterlimit="10" stroke-width="2"/><path fill="none" stroke="rgb(37,37,37)" paint-order="fill stroke markers" d=" M 575 796 L 578 796" stroke-opacity="1" stroke-miterlimit="10" stroke-width="2"/><path fill="none" stroke="rgb(37,37,37)" paint-order="fill stroke markers" d=" M 575 717 L 578 717" stroke-opacity="1" stroke-miterlimit="10" stroke-width="2"/><path fill="none" stroke="rgb(37,37,37)" paint-order="fill stroke markers" d=" M 575 639 L 578 639" stroke-opacity="1" stroke-miterlimit="10" stroke-width="2"/><path fill="none" stroke="rgb(37,37,37)" paint-order="fill stroke markers" d=" M 575 560 L 578 560" stroke-opacity="1" stroke-miterlimit="10" stroke-width="2"/><path fill="none" stroke="rgb(37,37,37)" paint-order="fill stroke markers" d=" M 575 481 L 578 481" stroke-opacity="1" stroke-miterlimit="10" stroke-width="2"/><path fill="none" stroke="rgb(37,37,37)" paint-order="fill stroke markers" d=" M 575 323 L 578 323" stroke-opacity="1" stroke-miterlimit="10" stroke-width="2"/><path fill="none" stroke="rgb(37,37,37)" paint-order="fill stroke markers" d=" M 575 245 L 578 245" stroke-opacity="1" stroke-miterlimit="10" stroke-width="2"/><path fill="none" stroke="rgb(37,37,37)" paint-order="fill stroke markers" d=" M 575 166 L 578 166" stroke-opacity="1" stroke-miterlimit="10" stroke-width="2"/><path fill="none" stroke="rgb(37,37,37)" paint-order="fill stroke markers" d=" M 575 87 L 578 87" stroke-opacity="1" stroke-miterlimit="10" stroke-width="2"/><text fill="rgb(37,37,37)" stroke="none" font-family="geogebra-sans-serif, sans-serif" font-size="12px" font-style="normal" font-weight="bold" text-decoration="normal" x="547" y="801" text-anchor="start" dominant-baseline="alphabetic" fill-opacity="1">–2.5</text><text fill="none" stroke="rgb(255,255,255)" font-family="geogebra-sans-serif, sans-serif" font-size="12px" font-style="normal" font-weight="bold" text-decoration="normal" x="547" y="801" text-anchor="start" dominant-baseline="alphabetic" stroke-opacity="1" stroke-linejoin="bevel" stroke-miterlimit="10" stroke-width="3">–2.5</text><text fill="rgb(37,37,37)" stroke="none" font-family="geogebra-sans-serif, sans-serif" font-size="12px" font-style="normal" font-weight="bold" text-decoration="normal" x="547" y="801" text-anchor="start" dominant-baseline="alphabetic" fill-opacity="1">–2.5</text><text fill="rgb(37,37,37)" stroke="none" font-family="geogebra-sans-serif, sans-serif" font-size="12px" font-style="normal" font-weight="bold" text-decoration="normal" x="557" y="722" text-anchor="start" dominant-baseline="alphabetic" fill-opacity="1">–2</text><text fill="none" stroke="rgb(255,255,255)" font-family="geogebra-sans-serif, sans-serif" font-size="12px" font-style="normal" font-weight="bold" text-decoration="normal" x="557" y="722" text-anchor="start" dominant-baseline="alphabetic" stroke-opacity="1" stroke-linejoin="bevel" stroke-miterlimit="10" stroke-width="3">–2</text><text fill="rgb(37,37,37)" stroke="none" font-family="geogebra-sans-serif, sans-serif" font-size="12px" font-style="normal" font-weight="bold" text-decoration="normal" x="557" y="722" text-anchor="start" dominant-baseline="alphabetic" fill-opacity="1">–2</text><text fill="rgb(37,37,37)" stroke="none" font-family="geogebra-sans-serif, sans-serif" font-size="12px" font-style="normal" font-weight="bold" text-decoration="normal" x="547" y="643" text-anchor="start" dominant-baseline="alphabetic" fill-opacity="1">–1.5</text><text fill="none" stroke="rgb(255,255,255)" font-family="geogebra-sans-serif, sans-serif" font-size="12px" font-style="normal" font-weight="bold" text-decoration="normal" x="547" y="643" text-anchor="start" dominant-baseline="alphabetic" stroke-opacity="1" stroke-linejoin="bevel" stroke-miterlimit="10" stroke-width="3">–1.5</text><text fill="rgb(37,37,37)" stroke="none" font-family="geogebra-sans-serif, sans-serif" font-size="12px" font-style="normal" font-weight="bold" text-decoration="normal" x="547" y="643" text-anchor="start" dominant-baseline="alphabetic" fill-opacity="1">–1.5</text><text fill="rgb(37,37,37)" stroke="none" font-family="geogebra-sans-serif, sans-serif" font-size="12px" font-style="normal" font-weight="bold" text-decoration="normal" x="557" y="564" text-anchor="start" dominant-baseline="alphabetic" fill-opacity="1">–1</text><text fill="none" stroke="rgb(255,255,255)" font-family="geogebra-sans-serif, sans-serif" font-size="12px" font-style="normal" font-weight="bold" text-decoration="normal" x="557" y="564" text-anchor="start" dominant-baseline="alphabetic" stroke-opacity="1" stroke-linejoin="bevel" stroke-miterlimit="10" stroke-width="3">–1</text><text fill="rgb(37,37,37)" stroke="none" font-family="geogebra-sans-serif, sans-serif" font-size="12px" font-style="normal" font-weight="bold" text-decoration="normal" x="557" y="564" text-anchor="start" dominant-baseline="alphabetic" fill-opacity="1">–1</text><text fill="rgb(37,37,37)" stroke="none" font-family="geogebra-sans-serif, sans-serif" font-size="12px" font-style="normal" font-weight="bold" text-decoration="normal" x="547" y="486" text-anchor="start" dominant-baseline="alphabetic" fill-opacity="1">–0.5</text><text fill="none" stroke="rgb(255,255,255)" font-family="geogebra-sans-serif, sans-serif" font-size="12px" font-style="normal" font-weight="bold" text-decoration="normal" x="547" y="486" text-anchor="start" dominant-baseline="alphabetic" stroke-opacity="1" stroke-linejoin="bevel" stroke-miterlimit="10" stroke-width="3">–0.5</text><text fill="rgb(37,37,37)" stroke="none" font-family="geogebra-sans-serif, sans-serif" font-size="12px" font-style="normal" font-weight="bold" text-decoration="normal" x="547" y="486" text-anchor="start" dominant-baseline="alphabetic" fill-opacity="1">–0.5</text><text fill="rgb(37,37,37)" stroke="none" font-family="geogebra-sans-serif, sans-serif" font-size="12px" font-style="normal" font-weight="bold" text-decoration="normal" x="553" y="328" text-anchor="start" dominant-baseline="alphabetic" fill-opacity="1">0.5</text><text fill="none" stroke="rgb(255,255,255)" font-family="geogebra-sans-serif, sans-serif" font-size="12px" font-style="normal" font-weight="bold" text-decoration="normal" x="553" y="328" text-anchor="start" dominant-baseline="alphabetic" stroke-opacity="1" stroke-linejoin="bevel" stroke-miterlimit="10" stroke-width="3">0.5</text><text fill="rgb(37,37,37)" stroke="none" font-family="geogebra-sans-serif, sans-serif" font-size="12px" font-style="normal" font-weight="bold" text-decoration="normal" x="553" y="328" text-anchor="start" dominant-baseline="alphabetic" fill-opacity="1">0.5</text><text fill="rgb(37,37,37)" stroke="none" font-family="geogebra-sans-serif, sans-serif" font-size="12px" font-style="normal" font-weight="bold" text-decoration="normal" x="563" y="249" text-anchor="start" dominant-baseline="alphabetic" fill-opacity="1">1</text><text fill="none" stroke="rgb(255,255,255)" font-family="geogebra-sans-serif, sans-serif" font-size="12px" font-style="normal" font-weight="bold" text-decoration="normal" x="563" y="249" text-anchor="start" dominant-baseline="alphabetic" stroke-opacity="1" stroke-linejoin="bevel" stroke-miterlimit="10" stroke-width="3">1</text><text fill="rgb(37,37,37)" stroke="none" font-family="geogebra-sans-serif, sans-serif" font-size="12px" font-style="normal" font-weight="bold" text-decoration="normal" x="563" y="249" text-anchor="start" dominant-baseline="alphabetic" fill-opacity="1">1</text><text fill="rgb(37,37,37)" stroke="none" font-family="geogebra-sans-serif, sans-serif" font-size="12px" font-style="normal" font-weight="bold" text-decoration="normal" x="553" y="170" text-anchor="start" dominant-baseline="alphabetic" fill-opacity="1">1.5</text><text fill="none" stroke="rgb(255,255,255)" font-family="geogebra-sans-serif, sans-serif" font-size="12px" font-style="normal" font-weight="bold" text-decoration="normal" x="553" y="170" text-anchor="start" dominant-baseline="alphabetic" stroke-opacity="1" stroke-linejoin="bevel" stroke-miterlimit="10" stroke-width="3">1.5</text><text fill="rgb(37,37,37)" stroke="none" font-family="geogebra-sans-serif, sans-serif" font-size="12px" font-style="normal" font-weight="bold" text-decoration="normal" x="553" y="170" text-anchor="start" dominant-baseline="alphabetic" fill-opacity="1">1.5</text><text fill="rgb(37,37,37)" stroke="none" font-family="geogebra-sans-serif, sans-serif" font-size="12px" font-style="normal" font-weight="bold" text-decoration="normal" x="563" y="91" text-anchor="start" dominant-baseline="alphabetic" fill-opacity="1">2</text><text fill="none" stroke="rgb(255,255,255)" font-family="geogebra-sans-serif, sans-serif" font-size="12px" font-style="normal" font-weight="bold" text-decoration="normal" x="563" y="91" text-anchor="start" dominant-baseline="alphabetic" stroke-opacity="1" stroke-linejoin="bevel" stroke-miterlimit="10" stroke-width="3">2</text><text fill="rgb(37,37,37)" stroke="none" font-family="geogebra-sans-serif, sans-serif" font-size="12px" font-style="normal" font-weight="bold" text-decoration="normal" x="563" y="91" text-anchor="start" dominant-baseline="alphabetic" fill-opacity="1">2</text><text fill="rgb(37,37,37)" stroke="none" font-family="geogebra-sans-serif, sans-serif" font-size="12px" font-style="normal" font-weight="bold" text-decoration="normal" x="563" y="418" text-anchor="start" dominant-baseline="alphabetic" fill-opacity="1">0</text><text fill="none" stroke="rgb(255,255,255)" font-family="geogebra-sans-serif, sans-serif" font-size="12px" font-style="normal" font-weight="bold" text-decoration="normal" x="563" y="418" text-anchor="start" dominant-baseline="alphabetic" stroke-opacity="1" stroke-linejoin="bevel" stroke-miterlimit="10" stroke-width="3">0</text><text fill="rgb(37,37,37)" stroke="none" font-family="geogebra-sans-serif, sans-serif" font-size="12px" font-style="normal" font-weight="bold" text-decoration="normal" x="563" y="418" text-anchor="start" dominant-baseline="alphabetic" fill-opacity="1">0</text><path fill="none" stroke="rgb(211,47,47)" paint-order="fill stroke markers" d=" M 1 398.1650938334347 L 1 398.1907630345902 L 1 398.1650938334347 L 2 398.1392612714546 L 2 398.1392612714546 L 3 398.1132643090087 L 3 398.1132643090087 L 4 398.0871018998394 L 4 398.0871018998394 L 5 398.0607729910307 L 5 398.0607729910307 L 6 398.03427652296585 L 6 398.03427652296585 L 7 398.00761142928434 L 7 398.00761142928434 L 8 397.9807766368395 L 8 397.9807766368395 L 9 397.95377106565496 L 9 397.95377106565496 L 10 397.92659362888134 L 10 397.92659362888134 L 11 397.89924323275244 L 11 397.89924323275244 L 12 397.8717187765413 L 12 397.8717187765413 L 13 397.8440191525157 L 13 397.8440191525157 L 14 397.81614324589395 L 14 397.81614324589395 L 15 397.78808993479964 L 15 397.78808993479964 L 16 397.75985809021665 L 16 397.75985809021665 L 17 397.7314465759437 L 17 397.7314465759437 L 18 397.7028542485489 L 18 397.7028542485489 L 19 397.674079957323 L 19 397.674079957323 L 20 397.6451225442339 L 20 397.6451225442339 L 21 397.61598084387964 L 21 397.61598084387964 L 22 397.5866536834414 L 22 397.5866536834414 L 23 397.55713988263665 L 23 397.55713988263665 L 24 397.52743825367133 L 24 397.52743825367133 L 25 397.49754760119214 L 25 397.49754760119214 L 26 397.46746672223856 L 26 397.46746672223856 L 27 397.4371944061942 L 27 397.4371944061942 L 28 397.40672943473834 L 28 397.40672943473834 L 29 397.3760705817967 L 29 397.3760705817967 L 30 397.34521661349214 L 30 397.34521661349214 L 31.000000000000114 397.3141662880951 L 31.000000000000114 397.3141662880951 L 32.000000000000114 397.28291835597366 L 32.000000000000114 397.28291835597366 L 33.000000000000114 397.2514715595428 L 33.000000000000114 397.25147155954284 L 34.000000000000114 397.21982463321444 L 34.000000000000114 397.21982463321444 L 35.000000000000114 397.18797630334615 L 35.000000000000114 397.18797630334615 L 36.000000000000114 397.1559252881898 L 36.000000000000114 397.1559252881898 L 37.000000000000114 397.1236702978402 L 37.000000000000114 397.1236702978402 L 38.000000000000114 397.0912100341831 L 38.000000000000114 397.0912100341831 L 39.000000000000114 397.05854319084307 L 39.000000000000114 397.05854319084307 L 40.000000000000114 397.02566845313055 L 40.000000000000114 397.02566845313055 L 41.000000000000114 396.99258449798936 L 41.000000000000114 396.99258449798936 L 42.000000000000114 396.95928999394323 L 42.000000000000114 396.95928999394323 L 43.000000000000114 396.9257836010423 L 43.000000000000114 396.9257836010423 L 44.000000000000114 396.89206397080926 L 44.000000000000114 396.89206397080926 L 45.000000000000114 396.8581297461848 L 45.000000000000114 396.8581297461848 L 46.000000000000114 396.82397956147315 L 46.000000000000114 396.82397956147315 L 47.000000000000114 396.7896120422874 L 47.000000000000114 396.7896120422874 L 48.000000000000114 396.7550258054937 L 48.000000000000114 396.7550258054937 L 49.000000000000114 396.72021945915594 L 49.000000000000114 396.72021945915594 L 50.000000000000114 396.68519160247956 L 50.000000000000114 396.68519160247956 L 51.000000000000114 396.6499408257553 L 51.000000000000114 396.6499408257553 L 52.000000000000114 396.6144657103024 L 52.000000000000114 396.6144657103024 L 53.000000000000114 396.57876482841135 L 53.000000000000114 396.57876482841135 L 54.000000000000114 396.5428367432868 L 54.000000000000114 396.5428367432868 L 55.000000000000114 396.50668000898935 L 55.000000000000114 396.50668000898935 L 56.000000000000114 396.4702931703776 L 56.000000000000114 396.4702931703776 L 57.000000000000114 396.4336747630495 L 57.000000000000114 396.4336747630495 L 58.000000000000114 396.39682331328356 L 58.000000000000114 396.39682331328356 L 59.000000000000114 396.35973733797914 L 59.000000000000114 396.35973733797914 L 60.000000000000114 396.32241534459723 L 60.000000000000114 396.32241534459723 L 61.000000000000114 396.2848558311001 L 61.000000000000114 396.2848558311001 L 62.000000000000114 396.2470572858911 L 62.000000000000114 396.2470572858911 L 63.000000000000114 396.2090181877534 L 63.000000000000114 396.2090181877534 L 64 396.17073700578914 L 64 396.17073700578914 L 65 396.1322121993578 L 65 396.1322121993578 L 66.00000000000006 396.093442218014 L 66.00000000000006 396.093442218014 L 67.00000000000006 396.0544255014452 L 67.00000000000006 396.0544255014452 L 68.00000000000006 396.01516047940896 L 68.00000000000006 396.01516047940896 L 69.00000000000006 395.9756455716696 L 69.00000000000006 395.9756455716696 L 70.00000000000006 395.9358791879348 L 70.00000000000006 395.9358791879348 L 71.00000000000006 395.89585972779145 L 71.00000000000006 395.89585972779145 L 72.00000000000006 395.85558558064133 L 72.00000000000006 395.85558558064133 L 73.00000000000006 395.81505512563615 L 73.00000000000006 395.81505512563615 L 74.00000000000006 395.77426673161244 L 74.00000000000006 395.77426673161244 L 75.00000000000006 395.73321875702595 L 75.00000000000006 395.73321875702595 L 76.00000000000006 395.69190954988545 L 76.00000000000006 395.6919095498855 L 77.00000000000006 395.65033744768635 L 77.00000000000006 395.65033744768635 L 78.00000000000006 395.60850077734375 L 78.00000000000006 395.60850077734375 L 79 395.566397855125 L 79 395.566397855125 L 80 395.5240269865821 L 80 395.5240269865821 L 81 395.48138646648357 L 81 395.48138646648357 L 82 395.4384745787455 L 82 395.4384745787455 L 83 395.3952895963629 L 83 395.3952895963629 L 84 395.35182978133975 L 84 395.35182978133975 L 85 395.3080933846195 L 85 395.3080933846195 L 86 395.26407864601435 L 86 395.26407864601435 L 87 395.2197837941345 L 87 395.2197837941345 L 88 395.175207046317 L 88 395.175207046317 L 89 395.1303466085538 L 89 395.1303466085538 L 90 395.0852006754197 L 90 395.0852006754197 L 91 395.0397674299995 L 91 395.03976742999953 L 92 394.9940450438152 L 92 394.9940450438152 L 93 394.9480316767521 L 93 394.9480316767521 L 94 394.9017254769849 L 94 394.9017254769849 L 95.00000000000006 394.8551245809031 L 95.00000000000006 394.8551245809031 L 96.00000000000006 394.80822711303614 L 96.00000000000006 394.80822711303614 L 97.00000000000006 394.7610311859777 L 97.00000000000006 394.7610311859777 L 98.00000000000006 394.71353490030987 L 98.00000000000006 394.71353490030987 L 99.00000000000006 394.66573634452675 L 99.00000000000006 394.66573634452675 L 100.00000000000006 394.61763359495745 L 100.00000000000006 394.61763359495745 L 101.00000000000006 394.5692247156887 L 101.00000000000006 394.5692247156887 L 102.00000000000006 394.52050775848676 L 102.00000000000006 394.52050775848676 L 103.00000000000006 394.4714807627195 L 103.00000000000006 394.4714807627195 L 104.00000000000006 394.4221417552769 L 104.00000000000006 394.4221417552769 L 105.00000000000006 394.37248875049204 L 105.00000000000006 394.37248875049204 L 106.00000000000006 394.32251975006096 L 106.00000000000006 394.32251975006096 L 107.00000000000006 394.2722327429625 L 107.00000000000006 394.2722327429625 L 108.00000000000006 394.221625705377 L 108.00000000000006 394.221625705377 L 109.00000000000006 394.17069660060514 L 109.00000000000006 394.17069660060514 L 110.00000000000006 394.119443378986 L 110.00000000000006 394.119443378986 L 111.00000000000006 394.0678639778143 L 111.00000000000006 394.0678639778143 L 112.00000000000006 394.01595632125753 L 112.00000000000006 394.01595632125753 L 113.00000000000006 393.96371832027256 L 113.00000000000006 393.96371832027256 L 114.00000000000006 393.91114787252127 L 114.00000000000006 393.91114787252127 L 115 393.85824286228626 L 115 393.85824286228626 L 116 393.8050011603854 L 116 393.8050011603854 L 117 393.75142062408634 L 117 393.75142062408634 L 118 393.69749909702017 L 118 393.69749909702017 L 119 393.6432344090947 L 119 393.6432344090947 L 120 393.5886243764071 L 120 393.5886243764071 L 121 393.533666801156 L 121 393.533666801156 L 122.00000000000006 393.4783594715532 L 122.00000000000006 393.4783594715532 L 123.00000000000006 393.42270016173416 L 123.00000000000006 393.42270016173416 L 124.00000000000006 393.36668663166904 L 124.00000000000006 393.3666866316691 L 125.00000000000006 393.3103166270723 L 125.00000000000006 393.3103166270723 L 126.00000000000006 393.25358787931174 L 126.00000000000006 393.25358787931174 L 127.00000000000006 393.1964981053176 L 127.00000000000006 393.1964981053176 L 128.00000000000006 393.1390450074903 L 128.00000000000006 393.1390450074903 L 129.00000000000006 393.0812262736083 L 129.00000000000006 393.0812262736083 L 130.00000000000006 393.0230395767349 L 130.00000000000006 393.0230395767349 L 131.00000000000006 392.9644825751245 L 131.00000000000006 392.9644825751245 L 132.00000000000006 392.90555291212854 L 132.00000000000006 392.90555291212854 L 133.00000000000006 392.84624821610043 L 133.00000000000006 392.84624821610043 L 134.00000000000006 392.7865661003004 L 134.00000000000006 392.7865661003004 L 135.00000000000006 392.7265041627991 L 135.00000000000006 392.7265041627991 L 136.00000000000006 392.6660599863813 L 136.00000000000006 392.6660599863813 L 137.00000000000006 392.6052311384483 L 137.00000000000006 392.6052311384483 L 138.00000000000006 392.54401517092015 L 138.00000000000006 392.54401517092015 L 139.00000000000006 392.48240962013716 L 139.00000000000006 392.48240962013716 L 140.00000000000006 392.4204120067608 L 140.00000000000006 392.4204120067608 L 141.00000000000006 392.35801983567364 L 141.00000000000006 392.35801983567364 L 142.00000000000006 392.2952305958793 L 142.00000000000006 392.2952305958793 L 143.00000000000006 392.23204176040105 L 143.00000000000006 392.23204176040105 L 144.00000000000006 392.1684507861804 L 144.00000000000006 392.1684507861805 L 145.00000000000006 392.1044551139748 L 145.00000000000006 392.1044551139748 L 146.00000000000006 392.0400521682541 L 146.00000000000006 392.0400521682541 L 147.00000000000006 391.97523935709745 L 147.00000000000006 391.97523935709745 L 148.00000000000006 391.9100140720889 L 148.00000000000006 391.9100140720889 L 149.00000000000006 391.84437368821233 L 149.00000000000006 391.84437368821233 L 150.00000000000006 391.77831556374565 L 150.00000000000006 391.77831556374565 L 151 391.71183704015476 L 151 391.71183704015476 L 152 391.6449354419864 L 152 391.6449354419864 L 153 391.5776080767605 L 153 391.5776080767605 L 154 391.50985223486185 L 154 391.5098522348619 L 155 391.44166518943115 L 155 391.44166518943115 L 156 391.37304419625497 L 156 391.373044196255 L 157 391.3039864936556 L 157 391.3039864936556 L 158 391.2344893023797 L 158 391.23448930237976 L 159.00000000000006 391.1645498254867 L 159.00000000000006 391.1645498254867 L 160.00000000000006 391.09416524823587 L 160.00000000000006 391.09416524823587 L 161.00000000000006 391.0233327379734 L 161.00000000000006 391.0233327379734 L 162.00000000000006 390.95204944401826 L 162.00000000000006 390.9520494440183 L 163.00000000000006 390.8803124975474 L 163.00000000000006 390.8803124975474 L 164.00000000000006 390.80811901148024 L 164.00000000000006 390.8081190114803 L 165.00000000000006 390.73546608036287 L 165.00000000000006 390.73546608036287 L 166.00000000000006 390.6623507802506 L 166.00000000000006 390.6623507802506 L 167.00000000000006 390.5887701685906 L 167.00000000000006 390.58877016859066 L 168.00000000000006 390.5147212841035 L 168.00000000000006 390.5147212841035 L 169.00000000000006 390.44020114666387 L 169.00000000000006 390.44020114666387 L 170.00000000000006 390.36520675718083 L 170.00000000000006 390.36520675718083 L 171.00000000000006 390.2897350974768 L 171.00000000000006 390.2897350974768 L 172.00000000000006 390.21378313016646 L 172.00000000000006 390.21378313016646 L 173.00000000000006 390.13734779853417 L 173.00000000000006 390.13734779853417 L 174.00000000000006 390.0604260264112 L 174.00000000000006 390.0604260264112 L 175.00000000000006 389.9830147180519 L 175.00000000000006 389.9830147180519 L 176.00000000000006 389.9051107580089 L 176.00000000000006 389.9051107580089 L 177.00000000000006 389.82671101100794 L 177.00000000000006 389.82671101100794 L 178.00000000000006 389.74781232182175 L 178.00000000000006 389.74781232182175 L 179.00000000000006 389.66841151514274 L 179.00000000000006 389.66841151514274 L 180.00000000000006 389.5885053954555 L 180.00000000000006 389.5885053954555 L 181.00000000000006 389.5080907469082 L 181.00000000000006 389.5080907469082 L 182.00000000000006 389.42716433318293 L 182.00000000000006 389.42716433318293 L 183.00000000000006 389.34572289736565 L 183.00000000000006 389.34572289736565 L 184.00000000000006 389.26376316181506 L 184.00000000000006 389.26376316181506 L 185.00000000000006 389.18128182803076 L 185.00000000000006 389.18128182803076 L 186 389.0982755765203 L 186 389.0982755765203 L 187 389.0147410666658 L 187 389.0147410666658 L 188 388.93067493658947 L 188 388.93067493658947 L 189 388.8460738030182 L 189 388.8460738030182 L 190 388.76093426114744 L 190 388.76093426114744 L 191 388.6752528845042 L 191 388.6752528845042 L 192 388.5890262248092 L 192 388.5890262248092 L 193 388.502250811838 L 193 388.502250811838 L 194 388.41492315328145 L 194 388.41492315328145 L 195.00000000000006 388.3270397346049 L 195.00000000000006 388.3270397346049 L 196.00000000000006 388.2385970189071 L 196.00000000000006 388.2385970189071 L 197.00000000000006 388.1495914467776 L 197.00000000000006 388.1495914467776 L 198.00000000000006 388.06001943615354 L 198.00000000000006 388.06001943615354 L 199.00000000000006 387.96987738217564 L 199.00000000000006 387.96987738217564 L 200.00000000000006 387.8791616570429 L 200.00000000000006 387.8791616570429 L 201.00000000000006 387.78786860986685 L 201.00000000000006 387.78786860986685 L 202.00000000000006 387.6959945665243 L 202.00000000000006 387.6959945665243 L 203.00000000000006 387.6035358295097 L 203.00000000000006 387.6035358295097 L 204.00000000000006 387.51048867778644 L 204.00000000000006 387.51048867778644 L 205.00000000000006 387.4168493666367 L 205.00000000000006 387.4168493666367 L 206.00000000000006 387.32261412751114 L 206.00000000000006 387.32261412751114 L 207.00000000000006 387.2277791678771 L 207.00000000000006 387.2277791678771 L 208.00000000000006 387.1323406710657 L 208.00000000000006 387.1323406710657 L 209.00000000000006 387.03629479611885 L 209.00000000000006 387.03629479611885 L 210.00000000000006 386.9396376776339 L 210.00000000000006 386.9396376776339 L 211.00000000000006 386.8423654256089 L 211.00000000000006 386.8423654256089 L 212.00000000000006 386.7444741252852 L 212.00000000000006 386.7444741252852 L 213.00000000000006 386.6459598369905 L 213.00000000000006 386.6459598369905 L 214.00000000000006 386.5468185959803 L 214.00000000000006 386.5468185959803 L 215.00000000000006 386.44704641227787 L 215.00000000000006 386.44704641227787 L 216.00000000000006 386.346639270514 L 216.00000000000006 386.346639270514 L 217.00000000000006 386.2455931297655 L 217.00000000000006 386.2455931297655 L 218.00000000000006 386.1439039233923 L 218.00000000000006 386.1439039233923 L 219.00000000000006 386.04156755887396 L 219.00000000000006 386.04156755887396 L 220.00000000000006 385.9385799176449 L 220.00000000000006 385.9385799176449 L 221.00000000000006 385.8349368549286 L 221.00000000000006 385.8349368549287 L 222 385.7306341995711 L 222 385.7306341995711 L 223 385.62566775387256 L 223 385.62566775387256 L 224 385.5200332934188 L 224 385.5200332934188 L 225 385.4137265669111 L 225 385.4137265669111 L 226 385.3067432959953 L 226 385.3067432959953 L 227 385.19907917508925 L 227 385.19907917508925 L 228 385.0907298712098 L 228 385.0907298712098 L 229 384.98169102379836 L 229 384.9816910237984 L 230 384.87195824454545 L 230 384.87195824454545 L 231 384.7615271172139 L 231 384.761527117214 L 232.00000000000006 384.6503931974615 L 232.00000000000006 384.6503931974615 L 233.00000000000006 384.53855201266157 L 233.00000000000006 384.53855201266157 L 234.00000000000006 384.4259990617236 L 234.00000000000006 384.4259990617236 L 235.00000000000006 384.31272981491156 L 235.00000000000006 384.31272981491156 L 236.00000000000006 384.19873971366195 L 236.00000000000006 384.19873971366195 L 237.00000000000006 384.0840241704001 L 237.00000000000006 384.08402417040014 L 238.00000000000006 383.9685785683558 L 238.00000000000006 383.96857856835584 L 239.00000000000006 383.85239826137723 L 239.00000000000006 383.85239826137723 L 240.00000000000006 383.7354785737441 L 240.00000000000006 383.7354785737441 L 241.00000000000006 383.61781479997956 L 241.00000000000006 383.61781479997956 L 242.00000000000006 383.4994022046606 L 242.00000000000006 383.49940220466067 L 243.00000000000006 383.3802360222278 L 243.00000000000006 383.3802360222278 L 244.00000000000006 383.26031145679303 L 244.00000000000006 383.26031145679303 L 245.00000000000006 383.13962368194706 L 245.00000000000006 383.13962368194706 L 246.00000000000006 383.01816784056484 L 246.00000000000006 383.01816784056484 L 247.00000000000006 382.8959390446103 L 247.00000000000006 382.8959390446103 L 248.00000000000006 382.7729323749394 L 248.00000000000006 382.7729323749394 L 249.00000000000006 382.6491428811023 L 249.00000000000006 382.64914288110236 L 250.00000000000006 382.5245655811443 L 250.00000000000006 382.5245655811443 L 251.00000000000006 382.3991954614048 L 251.00000000000006 382.3991954614048 L 252.00000000000006 382.2730274763162 L 252.00000000000006 382.2730274763162 L 253.00000000000006 382.14605654820036 L 253.00000000000006 382.14605654820036 L 254.00000000000006 382.0182775670643 L 254.00000000000006 382.0182775670643 L 255.00000000000006 381.88968539039485 L 255.00000000000006 381.88968539039485 L 256.00000000000006 381.7602748429513 L 256.00000000000006 381.7602748429513 L 257.00000000000006 381.6300407165574 L 257.00000000000006 381.6300407165574 L 258 381.49897776989167 L 258 381.49897776989167 L 259 381.36708072827633 L 259 381.36708072827633 L 260 381.2343442834653 L 260 381.2343442834653 L 261 381.1007630934302 L 261 381.1007630934302 L 262 380.96633178214574 L 262 380.9663317821458 L 263 380.83104493937316 L 263 380.83104493937316 L 264 380.69489712044236 L 264 380.69489712044236 L 265 380.55788284603307 L 265 380.55788284603307 L 266 380.41999660195415 L 266 380.41999660195415 L 267 380.2812328389217 L 267 380.2812328389217 L 268.00000000000006 380.1415859723358 L 268.00000000000006 380.1415859723358 L 269.00000000000006 380.00105038205567 L 269.00000000000006 380.00105038205567 L 270.00000000000006 379.8596204121734 L 270.00000000000006 379.8596204121734 L 271.00000000000006 379.7172903707866 L 271.00000000000006 379.7172903707866 L 272.00000000000006 379.57405452976906 L 272.00000000000006 379.57405452976906 L 273.00000000000006 379.42990712454036 L 273.00000000000006 379.42990712454036 L 274.00000000000006 379.2848423538338 L 274.00000000000006 379.2848423538338 L 275.00000000000006 379.138854379463 L 275.00000000000006 379.13885437946306 L 276.00000000000006 378.99193732608694 L 276.00000000000006 378.99193732608694 L 277.00000000000006 378.84408528097333 L 277.00000000000006 378.84408528097333 L 278.00000000000006 378.69529229376093 L 278.00000000000006 378.69529229376093 L 279.00000000000006 378.5455523762198 L 279.00000000000006 378.5455523762198 L 280.00000000000006 378.3948595020106 L 280.00000000000006 378.3948595020106 L 281.00000000000006 378.2432076064417 L 281.00000000000006 378.2432076064417 L 282.00000000000006 378.09059058622535 L 282.00000000000006 378.09059058622535 L 283.00000000000006 377.9370022992321 L 283.00000000000006 377.9370022992322 L 284.00000000000006 377.7824365642435 L 284.00000000000006 377.7824365642435 L 285.00000000000006 377.6268871607031 L 285.00000000000006 377.6268871607031 L 286.00000000000006 377.47034782846663 L 286.00000000000006 377.47034782846663 L 287.00000000000006 377.3128122675496 L 287.00000000000006 377.3128122675496 L 288.00000000000006 377.1542741378739 L 288.00000000000006 377.1542741378739 L 289.00000000000006 376.99472705901286 L 289.00000000000006 376.99472705901286 L 290.00000000000006 376.83416460993396 L 290.00000000000006 376.834164609934 L 291.00000000000006 376.6725803287411 L 291.00000000000006 376.6725803287411 L 292.00000000000006 376.50996771241375 L 292.00000000000006 376.5099677124138 L 293.00000000000006 376.346320216546 L 293.00000000000006 376.346320216546 L 294 376.18163125508266 L 294 376.18163125508266 L 295 376.01589420005433 L 295 376.01589420005433 L 296 375.84910238131073 L 296 375.84910238131073 L 297 375.68124908625225 L 297 375.68124908625225 L 298 375.51232755955976 L 298 375.51232755955976 L 299 375.3423310029227 L 299 375.3423310029227 L 300 375.1712525747656 L 300 375.1712525747656 L 301 374.99908538997255 L 301 374.99908538997255 L 302 374.8258225196103 L 302 374.8258225196103 L 303 374.6514569906493 L 303 374.6514569906493 L 304 374.47598178568313 L 304 374.47598178568313 L 305.00000000000006 374.29938984264595 L 305.00000000000006 374.29938984264595 L 306.00000000000006 374.12167405452846 L 306.00000000000006 374.12167405452846 L 307.00000000000006 373.9428272690917 L 307.00000000000006 373.94282726909177 L 308.00000000000006 373.76284228857946 L 308.00000000000006 373.7628422885795 L 309.00000000000006 373.5817118694283 L 309.00000000000006 373.5817118694283 L 310.00000000000006 373.39942872197616 L 310.00000000000006 373.39942872197616 L 311.00000000000006 373.2159855101691 L 311.00000000000006 373.2159855101691 L 312.00000000000006 373.03137485126587 L 312.00000000000006 373.03137485126587 L 313.00000000000006 372.84558931554085 L 313.00000000000006 372.84558931554085 L 314.00000000000006 372.65862142598513 L 314.00000000000006 372.65862142598513 L 315.00000000000006 372.47046365800554 L 315.00000000000006 372.47046365800554 L 316.00000000000006 372.28110843912174 L 316.00000000000006 372.28110843912174 L 317.00000000000006 372.0905481486615 L 317.00000000000006 372.0905481486615 L 318.00000000000006 371.8987751174542 L 318.00000000000006 371.8987751174542 L 319.00000000000006 371.70578162752173 L 319.00000000000006 371.70578162752173 L 320.00000000000006 371.5115599117684 L 320.00000000000006 371.5115599117685 L 321.00000000000006 371.3161021536681 L 321.00000000000006 371.3161021536681 L 322.00000000000006 371.11940048694953 L 322.00000000000006 371.11940048694953 L 323 370.92144699528006 L 323 370.92144699528006 L 324 370.72223371194667 L 324 370.72223371194667 L 325 370.52175261953573 L 325 370.52175261953573 L 326 370.31999564961006 L 326 370.31999564961006 L 327 370.11695468238435 L 327 370.11695468238435 L 328 369.91262154639827 L 328 369.9126215463983 L 329 369.7069880181878 L 329 369.7069880181878 L 330 369.500045821954 L 330 369.500045821954 L 331 369.29178662923016 L 331 369.29178662923016 L 332 369.08220205854656 L 332 369.08220205854656 L 333 368.87128367509314 L 333 368.87128367509314 L 334 368.65902299038 L 334 368.65902299038 L 335 368.44541146189584 L 335 368.44541146189584 L 336 368.2304404927642 L 336 368.2304404927642 L 337 368.01410143139736 L 337 368.01410143139736 L 338 367.7963855711482 L 338 367.7963855711482 L 339 367.57728414995984 L 339 367.5772841499599 L 340 367.356788350013 L 340 367.35678835001306 L 341.0000000000001 367.13488929737105 L 341.0000000000001 367.13488929737105 L 342.0000000000001 366.911578061623 L 342.0000000000001 366.911578061623 L 343.0000000000001 366.6868456555238 L 343.0000000000001 366.6868456555239 L 344.00000000000006 366.4606830346333 L 344.00000000000006 366.4606830346333 L 345.00000000000006 366.2330810969513 L 345.00000000000006 366.2330810969513 L 346.00000000000006 366.0040306825521 L 346.00000000000006 366.0040306825521 L 347.00000000000006 365.7735225732155 L 347.00000000000006 365.7735225732155 L 348.00000000000006 365.54154749205554 L 348.00000000000006 365.54154749205554 L 349.00000000000006 365.30809610314776 L 349.00000000000006 365.30809610314776 L 350.00000000000006 365.0731590111529 L 350.00000000000006 365.07315901115294 L 351.00000000000006 364.83672676093914 L 351.00000000000006 364.8367267609392 L 352.00000000000006 364.5987898372015 L 352.00000000000006 364.5987898372015 L 353.00000000000006 364.3593386640786 L 353.00000000000006 364.3593386640786 L 354.00000000000006 364.11836360476786 L 354.00000000000006 364.11836360476786 L 355.00000000000006 363.87585496113707 L 355.00000000000006 363.87585496113707 L 356.00000000000006 363.63180297333446 L 356.00000000000006 363.63180297333446 L 357.00000000000006 363.38619781939576 L 357.00000000000006 363.38619781939576 L 358.00000000000006 363.1390296148489 L 358.00000000000006 363.1390296148489 L 359 362.8902884123163 L 359 362.8902884123163 L 360 362.63996420111454 L 360 362.6399642011146 L 361 362.38804690685134 L 361 362.38804690685134 L 362 362.13452639102013 L 362 362.13452639102013 L 363 361.87939245059226 L 363 361.87939245059226 L 364 361.622634817606 L 364 361.622634817606 L 365 361.3642431587537 L 365 361.3642431587537 L 366 361.1042070749656 L 366 361.1042070749656 L 367 360.84251610099136 L 367 360.84251610099136 L 368 360.5791597049792 L 368 360.5791597049792 L 369 360.31412728805157 L 369 360.31412728805157 L 370 360.04740818387893 L 370 360.04740818387893 L 371 359.7789916582504 L 371 359.77899165825045 L 372 359.5088669086417 L 372 359.5088669086417 L 373 359.23702306378044 L 373 359.23702306378044 L 374 358.9634491832085 L 374 358.9634491832085 L 375 358.68813425684203 L 375 358.68813425684203 L 376 358.4110672045279 L 376 358.4110672045279 L 377 358.1322368755982 L 377 358.1322368755982 L 378.0000000000001 357.85163204842115 L 378.0000000000001 357.85163204842115 L 379.0000000000001 357.56924142994967 L 379.0000000000001 357.5692414299497 L 380.00000000000006 357.28505365526695 L 380.00000000000006 357.28505365526695 L 381.00000000000006 356.9990572871287 L 381.00000000000006 356.9990572871288 L 382.00000000000006 356.7112408155034 L 382.00000000000006 356.7112408155034 L 383.00000000000006 356.42159265710853 L 383.00000000000006 356.42159265710853 L 384.00000000000006 356.1301011549447 L 384.00000000000006 356.1301011549448 L 385.00000000000006 355.83675457782664 L 385.00000000000006 355.8367545778267 L 386.00000000000006 355.5415411199107 L 386.00000000000006 355.5415411199107 L 387.00000000000006 355.2444489002198 L 387.00000000000006 355.2444489002198 L 388.00000000000006 354.9454659621657 L 388.00000000000006 354.94546596216577 L 389.00000000000006 354.64458027306733 L 389.00000000000006 354.6445802730674 L 390.00000000000006 354.34177972366666 L 390.00000000000006 354.34177972366666 L 391.00000000000006 354.03705212764135 L 391.00000000000006 354.03705212764135 L 392.00000000000006 353.73038522111443 L 392.00000000000006 353.73038522111443 L 393.00000000000006 353.4217666621606 L 393.00000000000006 353.4217666621607 L 394 353.1111840303097 L 394 353.1111840303097 L 395 352.7986248260465 L 395 352.79862482604653 L 396 352.48407647030797 L 396 352.48407647030797 L 397 352.16752630397696 L 397 352.16752630397696 L 398 351.8489615873727 L 398 351.8489615873727 L 399 351.528369499738 L 399 351.528369499738 L 400 351.2057371387234 L 400 351.20573713872346 L 401 350.881051519868 L 401 350.881051519868 L 402 350.5542995760765 L 402 350.5542995760765 L 403 350.2254681570938 L 403 350.2254681570938 L 404 349.8945440289755 L 404 349.8945440289755 L 405 349.56151387355516 L 405 349.56151387355516 L 406 349.2263642879087 L 406 349.2263642879087 L 407 348.8890817838147 L 407 348.8890817838147 L 408 348.54965278721147 L 408 348.54965278721147 L 409 348.2080636376512 L 409 348.2080636376512 L 410.00000000000006 347.8643005877497 L 410.00000000000006 347.8643005877497 L 411.00000000000006 347.51834980263345 L 411.00000000000006 347.51834980263345 L 412 347.17019735938266 L 412 347.17019735938266 L 413 346.81982924647093 L 413 346.819829246471 L 414 346.46723136320156 L 414 346.46723136320156 L 415 346.11238951913964 L 415 346.11238951913964 L 416 345.75528943354146 L 416 345.75528943354146 L 417 345.3959167347794 L 417 345.3959167347794 L 418 345.0342569597637 L 418 345.0342569597637 L 419 344.67029555336035 L 419 344.67029555336035 L 420 344.3040178678053 L 420 344.3040178678053 L 421 343.9354091621151 L 421 343.9354091621151 L 422 343.56445460149325 L 422 343.56445460149325 L 423 343.1911392567336 L 423 343.19113925673366 L 424.00000000000006 342.8154481036195 L 424.00000000000006 342.8154481036195 L 425.00000000000006 342.43736602231866 L 425.00000000000006 342.43736602231866 L 426.00000000000006 342.0568777967752 L 426.00000000000006 342.0568777967752 L 427.00000000000006 341.67396811409714 L 427.00000000000006 341.67396811409714 L 428.00000000000006 341.2886215639398 L 428.00000000000006 341.2886215639398 L 429.00000000000006 340.900822637886 L 429.00000000000006 340.900822637886 L 430 340.51055572882177 L 430 340.51055572882177 L 431 340.11780513030817 L 431 340.11780513030817 L 432 339.7225550359493 L 432 339.7225550359493 L 433 339.3247895387561 L 433 339.3247895387561 L 434 338.92449263050605 L 434 338.9244926305061 L 435 338.5216482010993 L 435 338.5216482010993 L 436 338.1162400379098 L 436 338.11624003790985 L 437 337.7082518251332 L 437 337.7082518251332 L 438 337.29766714313 L 438 337.29766714313 L 439 336.8844694677649 L 439 336.8844694677649 L 440 336.46864216974166 L 440 336.46864216974166 L 441 336.05016851393384 L 441 336.0501685139339 L 442.00000000000006 335.6290316587115 L 442.00000000000006 335.6290316587115 L 443.00000000000006 335.2052146552629 L 443.00000000000006 335.2052146552629 L 444.00000000000006 334.7787004469131 L 444.00000000000006 334.77870044691315 L 445.00000000000006 334.3494718684369 L 445.00000000000006 334.3494718684369 L 446.00000000000006 333.9175116453684 L 446.00000000000006 333.9175116453684 L 447.00000000000006 333.48280239330546 L 447.00000000000006 333.48280239330546 L 448 333.0453266172103 L 448 333.0453266172103 L 449 332.6050667107055 L 449 332.6050667107055 L 450.00000000000006 332.162004955365 L 450.00000000000006 332.162004955365 L 451.00000000000006 331.7161235200014 L 451.00000000000006 331.7161235200015 L 452 331.2674044599483 L 452 331.26740445994835 L 453 330.8158297163379 L 453 330.8158297163379 L 454 330.3613811153743 L 454 330.36138111537434 L 455 329.9040403676023 L 455 329.9040403676023 L 456 329.443789067171 L 456 329.44378906717105 L 457 328.9806086910934 L 457 328.9806086910934 L 458 328.5144805985004 L 458 328.5144805985004 L 459 328.0453860298914 L 459 328.0453860298914 L 460.00000000000006 327.5733061063784 L 460.00000000000006 327.5733061063784 L 461.00000000000006 327.0982218289271 L 461.00000000000006 327.0982218289271 L 462.00000000000006 326.62011407759144 L 462.00000000000006 326.62011407759144 L 463.00000000000006 326.1389636107447 L 463.00000000000006 326.1389636107448 L 464.00000000000006 325.65475106430506 L 464.00000000000006 325.6547510643051 L 465.00000000000006 325.16745695095597 L 465.00000000000006 325.16745695095597 L 466.00000000000006 324.67706165936204 L 466.00000000000006 324.67706165936204 L 467.00000000000006 324.18354545337985 L 467.00000000000006 324.1835454533799 L 468.00000000000006 323.6868884712637 L 468.00000000000006 323.6868884712637 L 469.00000000000006 323.187070724866 L 469.00000000000006 323.18707072486603 L 470 322.6840720988331 L 470 322.68407209883316 L 471 322.17787234979573 L 471 322.17787234979573 L 472 321.66845110555397 L 472 321.668451105554 L 473 321.1557878642579 L 473 321.15578786425795 L 474 320.63986199358203 L 474 320.63986199358203 L 475 320.12065272989514 L 475 320.12065272989514 L 476 319.5981391774246 L 476 319.5981391774246 L 477 319.0723003074156 L 477 319.0723003074157 L 478 318.5431149572845 L 478 318.54311495728456 L 479.00000000000006 318.0105618297673 L 479.00000000000006 318.01056182976737 L 480.00000000000006 317.4746194920627 L 480.00000000000006 317.47461949206274 L 481.00000000000006 316.9352663749691 L 481.00000000000006 316.93526637496916 L 482.00000000000006 316.392480772017 L 482.00000000000006 316.39248077201705 L 483.00000000000006 315.8462408385952 L 483.00000000000006 315.84624083859524 L 484.00000000000006 315.29652459107155 L 484.00000000000006 315.2965245910716 L 485.00000000000006 314.7433099059084 L 485.00000000000006 314.74330990590846 L 486.00000000000006 314.1865745187722 L 486.00000000000006 314.18657451877226 L 487.00000000000006 313.62629602363734 L 487.00000000000006 313.6262960236374 L 488 313.0624518718846 L 488 313.0624518718846 L 489 312.49501937139337 L 489 312.4950193713934 L 490 311.9239756856288 L 490 311.9239756856288 L 491 311.3492978327224 L 491 311.34929783272247 L 492 310.7709626845474 L 492 310.77096268454744 L 493 310.1889469657876 L 493 310.18894696578764 L 494 309.6032272530009 L 494 309.60322725300097 L 495 309.0137799736768 L 495 309.0137799736768 L 496 308.42058140528707 L 496 308.4205814052871 L 497.00000000000006 307.8236076743318 L 497.00000000000006 307.8236076743318 L 498.00000000000006 307.2228347553781 L 498.00000000000006 307.22283475537813 L 499.00000000000006 306.6182384700933 L 499.00000000000006 306.6182384700933 L 500.00000000000006 306.00979448627186 L 500.00000000000006 306.00979448627186 L 501.00000000000006 305.3974783168563 L 501.00000000000006 305.39747831685634 L 502.00000000000006 304.7812653189515 L 502.00000000000006 304.78126531895157 L 503.00000000000006 304.16113069283307 L 503.00000000000006 304.1611306928331 L 504.00000000000006 303.5370494809491 L 504.00000000000006 303.5370494809491 L 505.00000000000006 302.9089965669159 L 505.00000000000006 302.9089965669159 L 506 302.27694667450714 L 506 302.2769466745072 L 507 301.6408743666367 L 507 301.6408743666367 L 508 301.0007540443345 L 508 301.00075404433454 L 509 300.356559945717 L 509 300.35655994571704 L 510 299.7082661449497 L 510 299.70826614494973 L 511 299.0558465512042 L 511 299.05584655120424 L 512 298.3992749076079 L 512 298.39927490760795 L 513 297.7385247901875 L 513 297.7385247901875 L 514 297.0735696068054 L 514 297.07356960680545 L 515 296.4043825960894 L 515 296.4043825960895 L 516 295.73093682635607 L 516 295.7309368263561 L 517 295.05320519452647 L 517 295.0532051945265 L 518 294.3711604250355 L 518 294.37116042503555 L 519 293.6847750687342 L 519 293.68477506873427 L 520 292.99402150178526 L 520 292.99402150178526 L 521 292.2988719245507 L 521 292.2988719245508 L 522 291.5992983604739 L 522 291.59929836047394 L 523 290.89527265495286 L 523 290.8952726549529 L 524 290.1867664742076 L 524 290.1867664742077 L 525 289.47375130413985 L 525 289.4737513041399 L 526 288.75619844918515 L 526 288.7561984491852 L 527 288.03407903115834 L 527 288.0340790311584 L 528 287.30736398809114 L 528 287.30736398809114 L 529 286.5760240730626 L 529 286.5760240730627 L 530 285.8400298530222 L 530 285.8400298530222 L 531 285.0993517076049 L 531 285.09935170760497 L 532 284.3539598279396 L 532 284.35395982793966 L 533 283.603824215449 L 533 283.60382421544904 L 534 282.84891468064245 L 534 282.8489146806425 L 535 282.08920084190123 L 535 282.0892008419013 L 536 281.3246521242554 L 536 281.3246521242554 L 537 280.55523775815345 L 537 280.5552377581535 L 538 279.7809267782242 L 538 279.7809267782243 L 539 279.00168802203035 L 539 279.0016880220304 L 540 278.21749012881423 L 540 278.21749012881423 L 541 277.428301538236 L 541 277.42830153823604 L 542 276.63409048910324 L 542 276.6340904891033 L 543 275.8348250180929 L 543 275.83482501809294 L 544 275.03047295846466 L 544 275.03047295846466 L 545 274.22100193876656 L 545 274.2210019387666 L 546 273.40637938153236 L 546 273.40637938153236 L 547 272.5865725019699 L 547 272.58657250196995 L 548 271.76154830664234 L 548 271.76154830664234 L 549 270.93127359213975 L 549 270.9312735921398 L 550 270.0957149437433 L 550 270.09571494374336 L 551 269.25483873408007 L 551 269.2548387340801 L 552 268.4086111217699 L 552 268.40861112177 L 553 267.5569980500636 L 553 267.5569980500637 L 554 266.69996524547196 L 554 266.699965245472 L 555 265.83747821638656 L 555 265.83747821638656 L 556 264.96950225169167 L 556 264.9695022516918 L 557 264.09600241936744 L 557 264.0960024193675 L 558 263.2169435650837 L 558 263.21694356508374 L 559 262.3322903107854 L 559 262.3322903107854 L 560 261.44200705326875 L 560 261.4420070532688 L 561 260.5460579627484 L 561 260.5460579627485 L 562 259.6444069814154 L 562 259.64440698141544 L 563 258.737017821986 L 563 258.737017821986 L 564 257.82385396624136 L 564 257.8238539662414 L 565 256.90487866355784 L 565 256.90487866355784 L 566 255.98005492942775 L 566 255.98005492942778 L 567 255.04934554397136 L 567 255.04934554397138 L 568 254.1127130504384 L 568 254.11271305043843 L 569 253.1701197537011 L 569 253.17011975370113 L 570 252.22152771873678 L 570 252.22152771873684 L 571 251.26689876910137 L 571 251.2668987691014 L 572 250.3061944853928 L 572 250.30619448539284 L 573 249.33937620370497 L 573 249.339376203705 L 574 248.36640501407155 L 574 248.36640501407157 L 575 247.3872417589002 L 575 247.38724175890022 L 576 246.4018470313965 L 576 246.40184703139653 L 577 245.4101811739781 L 577 245.41018117397812 L 578 244.4122042766786 L 578 244.41220427667866 L 579 243.40787617554162 L 579 243.40787617554167 L 580 242.39715645100392 L 580 242.397156451004 L 581 241.38000442626915 L 581 241.3800044262692 L 582 240.35637916567055 L 582 240.35637916567063 L 583 239.32623947302355 L 583 239.3262394730236 L 584 238.28954388996777 L 584 238.28954388996783 L 585 237.2462506942986 L 585 237.24625069429865 L 586 236.19631789828802 L 586 236.1963178982881 L 587 235.13970324699477 L 587 235.13970324699486 L 588 234.07636421656386 L 588 234.07636421656392 L 589 233.00625801251496 L 589 233.00625801251502 L 590 231.92934156802048 L 590 231.92934156802056 L 591 230.84557154217205 L 591 230.84557154217214 L 592 229.75490431823636 L 592 229.75490431823644 L 593 228.65729600189968 L 593 228.65729600189977 L 594 227.55270241950154 L 594 227.55270241950163 L 595 226.44107911625673 L 595 226.4410791162568 L 596 225.32238135446622 L 596 225.32238135446627 L 597 224.19656411171678 L 597 224.19656411171684 L 598 223.063582079069 L 598 223.06358207906908 L 599 221.9233896592338 L 599 221.9233896592339 L 600 220.77594096473734 L 600 220.7759409647374 L 601 219.6211898160742 L 601 219.62118981607426 L 602 218.45908973984905 L 602 218.4590897398491 L 603 217.28959396690615 L 603 217.28959396690624 L 604 216.1126554304472 L 604 216.11265543044726 L 605 214.92822676413692 L 605 214.928226764137 L 606 213.73626030019716 L 606 213.73626030019724 L 607 212.5367080674881 L 607 212.53670806748815 L 608 211.32952178957783 L 608 211.32952178957788 L 609 210.1146528827994 L 609 210.11465288279945 L 610 208.89205245429565 L 610 208.8920524542957 L 611 207.6616713000513 L 611 207.66167130005135 L 612 206.4234599029129 L 612 206.42345990291298 L 613 205.17736843059592 L 613 205.177368430596 L 614 203.92334673367924 L 614 203.9233467336793 L 615 202.66134434358676 L 615 202.66134434358685 L 616 201.39131047055648 L 616 201.39131047055656 L 617 200.11319400159636 L 617 200.1131940015964 L 618 198.82694349842717 L 618 198.82694349842723 L 619 197.53250719541236 L 619 197.53250719541242 L 620 196.2298329974749 L 620 196.22983299747497 L 621 194.91886847800055 L 621 194.9188684780006 L 622 193.59956087672785 L 622 193.5995608767279 L 623 192.271857097625 L 623 192.2718570976251 L 624 190.9357037067528 L 624 190.9357037067529 L 625 189.59104693011417 L 625 189.59104693011426 L 626 188.2378326514902 L 626 188.23783265149027 L 627 186.876006410262 L 627 186.87600641026208 L 628 185.50551339921898 L 628 185.50551339921904 L 629 184.12629846235316 L 629 184.12629846235325 L 630 182.73830609263945 L 630 182.7383060926395 L 631 181.34148042980152 L 631 181.34148042980158 L 632 179.9357652580639 L 632 179.93576525806395 L 633 178.52110400388946 L 633 178.52110400388955 L 634 177.09743973370266 L 634 177.09743973370274 L 635 175.66471515159813 L 635 175.66471515159822 L 636 174.22287259703492 L 636 174.22287259703498 L 637 172.77185404251566 L 637 172.7718540425157 L 638 171.31160109125156 L 638 171.31160109125165 L 639 169.84205497481207 L 639 169.84205497481213 L 640 168.36315655075956 L 640 168.36315655075964 L 641 166.87484630026933 L 641 166.8748463002694 L 642 165.37706432573427 L 642 165.37706432573435 L 643 163.86975034835396 L 643 163.86975034835402 L 644 162.35284370570915 L 644 162.35284370570923 L 645 160.82628334931994 L 645 160.82628334932002 L 646 159.2900078421893 L 646 159.2900078421894 L 647 157.74395535633016 L 647 157.74395535633022 L 648 156.18806367027722 L 648 156.1880636702773 L 649 154.62227016658306 L 649 154.62227016658312 L 650 153.0465118292976 L 650 153.04651182929769 L 651 151.4607252414325 L 651 151.46072524143256 L 652 149.86484658240855 L 652 149.8648465824086 L 653 148.25881162548745 L 653 148.2588116254875 L 654 146.6425557351868 L 654 146.64255573518685 L 655 145.01601386467877 L 655 145.01601386467883 L 656 143.37912055317264 L 656 143.3791205531727 L 657 141.7318099232798 L 657 141.7318099232799 L 658 140.07401567836285 L 658 140.0740156783629 L 659 138.40567109986733 L 659 138.40567109986745 L 660 136.72670904463672 L 660 136.72670904463678 L 661 135.0370619422099 L 661 135.03706194220996 L 662 133.33666179210223 L 662 133.33666179210235 L 663 131.62544016106852 L 663 131.62544016106864 L 664 129.90332818034904 L 664 129.9033281803491 L 665 128.17025654289773 L 665 128.17025654289785 L 666 126.42615550059315 L 666 126.42615550059321 L 667 124.6709548614312 L 667 124.67095486143126 L 668 122.9045839867004 L 668 122.90458398670046 L 669 121.1269717881388 L 669 121.12697178813886 L 670 119.3380467250733 L 670 119.33804672507341 L 671 117.53773680154018 L 671 117.53773680154023 L 672 115.72596956338776 L 672 115.72596956338782 L 673 113.90267209536046 L 673 113.90267209536051 L 674 112.06777101816414 L 674 112.0677710181642 L 675 110.22119248551309 L 675 110.22119248551314 L 676 108.36286218115805 L 676 108.3628621811581 L 677 106.4927053158952 L 677 106.49270531589525 L 678 104.61064662455641 L 678 104.61064662455647 L 679 102.71661036297996 L 679 102.71661036298002 L 680 100.81052030496238 L 680 100.81052030496244 L 681 98.8922997391906 L 681 98.89229973919066 L 682 96.9618714661546 L 682 96.96187146615472 L 683 95.01915779504083 L 683 95.01915779504088 L 684 93.06408054060489 L 684 93.06408054060495 L 685 91.09656102002566 L 685 91.09656102002572 L 686 89.11652004973814 L 686 89.1165200497382 L 687 87.12387794224685 L 687 87.1238779422469 L 688 85.11855450291887 L 688 85.11855450291904 L 689 83.10046902675634 L 689 83.10046902675651 L 690 81.06954029514833 L 690 81.06954029514844 L 691 79.02568657260224 L 691 79.02568657260235 L 692 76.96882560345432 L 692 76.96882560345449 L 693 74.89887460855937 L 693 74.89887460855948 L 694 72.8157502819592 L 694 72.81575028195931 L 695 70.71936878752967 L 695 70.71936878752979 L 696 68.60964575560723 L 696 68.60964575560735 L 697 66.48649627959298 L 697 66.4864962795931 L 698 64.34983491253575 L 698 64.34983491253587 L 699 62.199575663693 L 699 62.19957566369317 L 700 60.03563199507073 L 700 60.0356319950709 L 701 57.857916817939895 L 701 57.85791681794001 L 702 55.66634248933224 L 702 55.66634248933235 L 703 53.46082080851255 L 703 53.460820808512665 L 704 51.241263013429034 L 704 51.241263013429204 L 705 49.00757977714153 L 705 49.00757977714164 L 706 46.75968120422584 L 706 46.759681204225956 L 707 44.49747682715633 L 707 44.497476827156504 L 708 42.220875602665046 L 708 42.22087560266522 L 709 39.92978590807712 L 709 39.92978590807729 L 710 37.62411553762405 L 710 37.624115537624164 L 711 35.30377169873236 L 711 35.303771698732476 L 712 32.968661008289416 L 712 32.96866100828953 L 713 30.61868948888491 L 713 30.61868948888508 L 714 28.25376256502915 L 714 28.253762565029263 L 715 25.873785059346233 L 715 25.873785059346403 L 716 23.47866118874424 L 716 23.478661188744354 L 717 21.068294560559764 L 717 21.068294560559934 L 718 18.642588168679083 L 718 18.642588168679197 L 719 16.20144438963382 L 719 16.201444389633934 L 720 13.744764978672094 L 720 13.744764978672208 L 721 11.27245106580483 L 721 11.272451065804944 L 722 8.784403151826382 L 722 8.784403151826496 L 723 6.280521104310253 L 723 6.280521104310367 L 724 3.760704153579468 L 724 3.7607041535796384 L 725 1.2248508886506215 L 725 1.224850888650792 L 726 -1.3271407468469079 L 726 -1.3271407468467942 L 727 -3.895373458778863 L 727 -3.8953734587787494 L 728 -6.479950606639136 L 728 -6.479950606638965 L 729 -9.080976207709398 L 729 -9.080976207709284 L 730 -11.698554941245845 L 730 -11.698554941245675 L 731 -14.332792152691468 L 731 -14.332792152691297 L 732 -16.983793857915998 L 732 -16.983793857915884 L 732.380905007153 -18" stroke-opacity="0.8" stroke-linecap="round" stroke-linejoin="round" stroke-miterlimit="10" stroke-width="6.5"/><text fill="rgb(211,47,47)" stroke="none" font-family="geogebra-sans-serif, sans-serif" font-size="16px" font-style="normal" font-weight="normal" text-decoration="normal" x="24" y="397" text-anchor="start" dominant-baseline="alphabetic" fill-opacity="1">f</text><text fill="none" stroke="rgb(255,255,255)" font-family="geogebra-sans-serif, sans-serif" font-size="16px" font-style="normal" font-weight="normal" text-decoration="normal" x="24" y="397" text-anchor="start" dominant-baseline="alphabetic" stroke-opacity="1" stroke-linejoin="bevel" stroke-miterlimit="10" stroke-width="3">f</text><text fill="rgb(211,47,47)" stroke="none" font-family="geogebra-sans-serif, sans-serif" font-size="16px" font-style="normal" font-weight="normal" text-decoration="normal" x="24" y="397" text-anchor="start" dominant-baseline="alphabetic" fill-opacity="1">f</text></g></g></svg>