<svg version="1.1" xmlns="http://www.w3.org/2000/svg" xmlns:xlink="http://www.w3.org/1999/xlink" width="1450" height="855"><defs><clipPath id="ZTkpwnPLyfJU"><path fill="none" stroke="none" d=" M 0 0 L 1450 0 L 1450 855 L 0 855 L 0 0 Z"/></clipPath></defs><g transform="scale(1,1)" clip-path="url(#ZTkpwnPLyfJU)"><g><rect fill="rgb(255,255,255)" stroke="none" x="0" y="0" width="1450" height="855" fill-opacity="1"/><path fill="none" stroke="rgb(37,37,37)" paint-order="fill stroke markers" d=" M 728 3 L 728 855" stroke-opacity="1" stroke-miterlimit="10" stroke-width="2"/><path fill="rgb(37,37,37)" stroke="none" paint-order="stroke fill markers" fill-rule="evenodd" d=" M 727.9999999999999 2 L 722.9999999999999 22 L 732.9999999999999 22" fill-opacity="1"/><path fill="none" stroke="rgb(37,37,37)" paint-order="fill stroke markers" d=" M 0 418 L 1447 418" stroke-opacity="1" stroke-miterlimit="10" stroke-width="2"/><path fill="rgb(37,37,37)" stroke="none" paint-order="stroke fill markers" fill-rule="evenodd" d=" M 1448 418.4375000000001 L 1428 413.4375000000001 L 1428 423.4375000000001" fill-opacity="1"/><text fill="rgb(37,37,37)" stroke="none" font-family="geogebra-sans-serif, sans-serif" font-size="12px" font-style="normal" font-weight="bold" text-decoration="normal" x="46" y="434" text-anchor="start" dominant-baseline="alphabetic" fill-opacity="1">–4</text><text fill="none" stroke="rgb(255,255,255)" font-family="geogebra-sans-serif, sans-serif" font-size="12px" font-style="normal" font-weight="bold" text-decoration="normal" x="46" y="434" text-anchor="start" dominant-baseline="alphabetic" stroke-opacity="1" stroke-linejoin="bevel" stroke-miterlimit="10" stroke-width="3">–4</text><text fill="rgb(37,37,37)" stroke="none" font-family="geogebra-sans-serif, sans-serif" font-size="12px" font-style="normal" font-weight="bold" text-decoration="normal" x="46" y="434" text-anchor="start" dominant-baseline="alphabetic" fill-opacity="1">–4</text><path fill="none" stroke="rgb(37,37,37)" paint-order="fill stroke markers" d=" M 53 418 L 53 421" stroke-opacity="1" stroke-miterlimit="10" stroke-width="2"/><text fill="rgb(37,37,37)" stroke="none" font-family="geogebra-sans-serif, sans-serif" font-size="12px" font-style="normal" font-weight="bold" text-decoration="normal" x="123" y="434" text-anchor="start" dominant-baseline="alphabetic" fill-opacity="1">–3.5</text><text fill="none" stroke="rgb(255,255,255)" font-family="geogebra-sans-serif, sans-serif" font-size="12px" font-style="normal" font-weight="bold" text-decoration="normal" x="123" y="434" text-anchor="start" dominant-baseline="alphabetic" stroke-opacity="1" stroke-linejoin="bevel" stroke-miterlimit="10" stroke-width="3">–3.5</text><text fill="rgb(37,37,37)" stroke="none" font-family="geogebra-sans-serif, sans-serif" font-size="12px" font-style="normal" font-weight="bold" text-decoration="normal" x="123" y="434" text-anchor="start" dominant-baseline="alphabetic" fill-opacity="1">–3.5</text><path fill="none" stroke="rgb(37,37,37)" paint-order="fill stroke markers" d=" M 137 418 L 137 421" stroke-opacity="1" stroke-miterlimit="10" stroke-width="2"/><text fill="rgb(37,37,37)" stroke="none" font-family="geogebra-sans-serif, sans-serif" font-size="12px" font-style="normal" font-weight="bold" text-decoration="normal" x="215" y="434" text-anchor="start" dominant-baseline="alphabetic" fill-opacity="1">–3</text><text fill="none" stroke="rgb(255,255,255)" font-family="geogebra-sans-serif, sans-serif" font-size="12px" font-style="normal" font-weight="bold" text-decoration="normal" x="215" y="434" text-anchor="start" dominant-baseline="alphabetic" stroke-opacity="1" stroke-linejoin="bevel" stroke-miterlimit="10" stroke-width="3">–3</text><text fill="rgb(37,37,37)" stroke="none" font-family="geogebra-sans-serif, sans-serif" font-size="12px" font-style="normal" font-weight="bold" text-decoration="normal" x="215" y="434" text-anchor="start" dominant-baseline="alphabetic" fill-opacity="1">–3</text><path fill="none" stroke="rgb(37,37,37)" paint-order="fill stroke markers" d=" M 222 418 L 222 421" stroke-opacity="1" stroke-miterlimit="10" stroke-width="2"/><text fill="rgb(37,37,37)" stroke="none" font-family="geogebra-sans-serif, sans-serif" font-size="12px" font-style="normal" font-weight="bold" text-decoration="normal" x="292" y="434" text-anchor="start" dominant-baseline="alphabetic" fill-opacity="1">–2.5</text><text fill="none" stroke="rgb(255,255,255)" font-family="geogebra-sans-serif, sans-serif" font-size="12px" font-style="normal" font-weight="bold" text-decoration="normal" x="292" y="434" text-anchor="start" dominant-baseline="alphabetic" stroke-opacity="1" stroke-linejoin="bevel" stroke-miterlimit="10" stroke-width="3">–2.5</text><text fill="rgb(37,37,37)" stroke="none" font-family="geogebra-sans-serif, sans-serif" font-size="12px" font-style="normal" font-weight="bold" text-decoration="normal" x="292" y="434" text-anchor="start" dominant-baseline="alphabetic" fill-opacity="1">–2.5</text><path fill="none" stroke="rgb(37,37,37)" paint-order="fill stroke markers" d=" M 306 418 L 306 421" stroke-opacity="1" stroke-miterlimit="10" stroke-width="2"/><text fill="rgb(37,37,37)" stroke="none" font-family="geogebra-sans-serif, sans-serif" font-size="12px" font-style="normal" font-weight="bold" text-decoration="normal" x="384" y="434" text-anchor="start" dominant-baseline="alphabetic" fill-opacity="1">–2</text><text fill="none" stroke="rgb(255,255,255)" font-family="geogebra-sans-serif, sans-serif" font-size="12px" font-style="normal" font-weight="bold" text-decoration="normal" x="384" y="434" text-anchor="start" dominant-baseline="alphabetic" stroke-opacity="1" stroke-linejoin="bevel" stroke-miterlimit="10" stroke-width="3">–2</text><text fill="rgb(37,37,37)" stroke="none" font-family="geogebra-sans-serif, sans-serif" font-size="12px" font-style="normal" font-weight="bold" text-decoration="normal" x="384" y="434" text-anchor="start" dominant-baseline="alphabetic" fill-opacity="1">–2</text><path fill="none" stroke="rgb(37,37,37)" paint-order="fill stroke markers" d=" M 391 418 L 391 421" stroke-opacity="1" stroke-miterlimit="10" stroke-width="2"/><text fill="rgb(37,37,37)" stroke="none" font-family="geogebra-sans-serif, sans-serif" font-size="12px" font-style="normal" font-weight="bold" text-decoration="normal" x="461" y="434" text-anchor="start" dominant-baseline="alphabetic" fill-opacity="1">–1.5</text><text fill="none" stroke="rgb(255,255,255)" font-family="geogebra-sans-serif, sans-serif" font-size="12px" font-style="normal" font-weight="bold" text-decoration="normal" x="461" y="434" text-anchor="start" dominant-baseline="alphabetic" stroke-opacity="1" stroke-linejoin="bevel" stroke-miterlimit="10" stroke-width="3">–1.5</text><text fill="rgb(37,37,37)" stroke="none" font-family="geogebra-sans-serif, sans-serif" font-size="12px" font-style="normal" font-weight="bold" text-decoration="normal" x="461" y="434" text-anchor="start" dominant-baseline="alphabetic" fill-opacity="1">–1.5</text><path fill="none" stroke="rgb(37,37,37)" paint-order="fill stroke markers" d=" M 475 418 L 475 421" stroke-opacity="1" stroke-miterlimit="10" stroke-width="2"/><text fill="rgb(37,37,37)" stroke="none" font-family="geogebra-sans-serif, sans-serif" font-size="12px" font-style="normal" font-weight="bold" text-decoration="normal" x="553" y="434" text-anchor="start" dominant-baseline="alphabetic" fill-opacity="1">–1</text><text fill="none" stroke="rgb(255,255,255)" font-family="geogebra-sans-serif, sans-serif" font-size="12px" font-style="normal" font-weight="bold" text-decoration="normal" x="553" y="434" text-anchor="start" dominant-baseline="alphabetic" stroke-opacity="1" stroke-linejoin="bevel" stroke-miterlimit="10" stroke-width="3">–1</text><text fill="rgb(37,37,37)" stroke="none" font-family="geogebra-sans-serif, sans-serif" font-size="12px" font-style="normal" font-weight="bold" text-decoration="normal" x="553" y="434" text-anchor="start" dominant-baseline="alphabetic" fill-opacity="1">–1</text><path fill="none" stroke="rgb(37,37,37)" paint-order="fill stroke markers" d=" M 559 418 L 559 421" stroke-opacity="1" stroke-miterlimit="10" stroke-width="2"/><text fill="rgb(37,37,37)" stroke="none" font-family="geogebra-sans-serif, sans-serif" font-size="12px" font-style="normal" font-weight="bold" text-decoration="normal" x="630" y="434" text-anchor="start" dominant-baseline="alphabetic" fill-opacity="1">–0.5</text><text fill="none" stroke="rgb(255,255,255)" font-family="geogebra-sans-serif, sans-serif" font-size="12px" font-style="normal" font-weight="bold" text-decoration="normal" x="630" y="434" text-anchor="start" dominant-baseline="alphabetic" stroke-opacity="1" stroke-linejoin="bevel" stroke-miterlimit="10" stroke-width="3">–0.5</text><text fill="rgb(37,37,37)" stroke="none" font-family="geogebra-sans-serif, sans-serif" font-size="12px" font-style="normal" font-weight="bold" text-decoration="normal" x="630" y="434" text-anchor="start" dominant-baseline="alphabetic" fill-opacity="1">–0.5</text><path fill="none" stroke="rgb(37,37,37)" paint-order="fill stroke markers" d=" M 644 418 L 644 421" stroke-opacity="1" stroke-miterlimit="10" stroke-width="2"/><text fill="rgb(37,37,37)" stroke="none" font-family="geogebra-sans-serif, sans-serif" font-size="12px" font-style="normal" font-weight="bold" text-decoration="normal" x="802" y="434" text-anchor="start" dominant-baseline="alphabetic" fill-opacity="1">0.5</text><text fill="none" stroke="rgb(255,255,255)" font-family="geogebra-sans-serif, sans-serif" font-size="12px" font-style="normal" font-weight="bold" text-decoration="normal" x="802" y="434" text-anchor="start" dominant-baseline="alphabetic" stroke-opacity="1" stroke-linejoin="bevel" stroke-miterlimit="10" stroke-width="3">0.5</text><text fill="rgb(37,37,37)" stroke="none" font-family="geogebra-sans-serif, sans-serif" font-size="12px" font-style="normal" font-weight="bold" text-decoration="normal" x="802" y="434" text-anchor="start" dominant-baseline="alphabetic" fill-opacity="1">0.5</text><path fill="none" stroke="rgb(37,37,37)" paint-order="fill stroke markers" d=" M 812 418 L 812 421" stroke-opacity="1" stroke-miterlimit="10" stroke-width="2"/><text fill="rgb(37,37,37)" stroke="none" font-family="geogebra-sans-serif, sans-serif" font-size="12px" font-style="normal" font-weight="bold" text-decoration="normal" x="894" y="434" text-anchor="start" dominant-baseline="alphabetic" fill-opacity="1">1</text><text fill="none" stroke="rgb(255,255,255)" font-family="geogebra-sans-serif, sans-serif" font-size="12px" font-style="normal" font-weight="bold" text-decoration="normal" x="894" y="434" text-anchor="start" dominant-baseline="alphabetic" stroke-opacity="1" stroke-linejoin="bevel" stroke-miterlimit="10" stroke-width="3">1</text><text fill="rgb(37,37,37)" stroke="none" font-family="geogebra-sans-serif, sans-serif" font-size="12px" font-style="normal" font-weight="bold" text-decoration="normal" x="894" y="434" text-anchor="start" dominant-baseline="alphabetic" fill-opacity="1">1</text><path fill="none" stroke="rgb(37,37,37)" paint-order="fill stroke markers" d=" M 897 418 L 897 421" stroke-opacity="1" stroke-miterlimit="10" stroke-width="2"/><text fill="rgb(37,37,37)" stroke="none" font-family="geogebra-sans-serif, sans-serif" font-size="12px" font-style="normal" font-weight="bold" text-decoration="normal" x="971" y="434" text-anchor="start" dominant-baseline="alphabetic" fill-opacity="1">1.5</text><text fill="none" stroke="rgb(255,255,255)" font-family="geogebra-sans-serif, sans-serif" font-size="12px" font-style="normal" font-weight="bold" text-decoration="normal" x="971" y="434" text-anchor="start" dominant-baseline="alphabetic" stroke-opacity="1" stroke-linejoin="bevel" stroke-miterlimit="10" stroke-width="3">1.5</text><text fill="rgb(37,37,37)" stroke="none" font-family="geogebra-sans-serif, sans-serif" font-size="12px" font-style="normal" font-weight="bold" text-decoration="normal" x="971" y="434" text-anchor="start" dominant-baseline="alphabetic" fill-opacity="1">1.5</text><path fill="none" stroke="rgb(37,37,37)" paint-order="fill stroke markers" d=" M 981 418 L 981 421" stroke-opacity="1" stroke-miterlimit="10" stroke-width="2"/><text fill="rgb(37,37,37)" stroke="none" font-family="geogebra-sans-serif, sans-serif" font-size="12px" font-style="normal" font-weight="bold" text-decoration="normal" x="1062" y="434" text-anchor="start" dominant-baseline="alphabetic" fill-opacity="1">2</text><text fill="none" stroke="rgb(255,255,255)" font-family="geogebra-sans-serif, sans-serif" font-size="12px" font-style="normal" font-weight="bold" text-decoration="normal" x="1062" y="434" text-anchor="start" dominant-baseline="alphabetic" stroke-opacity="1" stroke-linejoin="bevel" stroke-miterlimit="10" stroke-width="3">2</text><text fill="rgb(37,37,37)" stroke="none" font-family="geogebra-sans-serif, sans-serif" font-size="12px" font-style="normal" font-weight="bold" text-decoration="normal" x="1062" y="434" text-anchor="start" dominant-baseline="alphabetic" fill-opacity="1">2</text><path fill="none" stroke="rgb(37,37,37)" paint-order="fill stroke markers" d=" M 1066 418 L 1066 421" stroke-opacity="1" stroke-miterlimit="10" stroke-width="2"/><text fill="rgb(37,37,37)" stroke="none" font-family="geogebra-sans-serif, sans-serif" font-size="12px" font-style="normal" font-weight="bold" text-decoration="normal" x="1140" y="434" text-anchor="start" dominant-baseline="alphabetic" fill-opacity="1">2.5</text><text fill="none" stroke="rgb(255,255,255)" font-family="geogebra-sans-serif, sans-serif" font-size="12px" font-style="normal" font-weight="bold" text-decoration="normal" x="1140" y="434" text-anchor="start" dominant-baseline="alphabetic" stroke-opacity="1" stroke-linejoin="bevel" stroke-miterlimit="10" stroke-width="3">2.5</text><text fill="rgb(37,37,37)" stroke="none" font-family="geogebra-sans-serif, sans-serif" font-size="12px" font-style="normal" font-weight="bold" text-decoration="normal" x="1140" y="434" text-anchor="start" dominant-baseline="alphabetic" fill-opacity="1">2.5</text><path fill="none" stroke="rgb(37,37,37)" paint-order="fill stroke markers" d=" M 1150 418 L 1150 421" stroke-opacity="1" stroke-miterlimit="10" stroke-width="2"/><text fill="rgb(37,37,37)" stroke="none" font-family="geogebra-sans-serif, sans-serif" font-size="12px" font-style="normal" font-weight="bold" text-decoration="normal" x="1231" y="434" text-anchor="start" dominant-baseline="alphabetic" fill-opacity="1">3</text><text fill="none" stroke="rgb(255,255,255)" font-family="geogebra-sans-serif, sans-serif" font-size="12px" font-style="normal" font-weight="bold" text-decoration="normal" x="1231" y="434" text-anchor="start" dominant-baseline="alphabetic" stroke-opacity="1" stroke-linejoin="bevel" stroke-miterlimit="10" stroke-width="3">3</text><text fill="rgb(37,37,37)" stroke="none" font-family="geogebra-sans-serif, sans-serif" font-size="12px" font-style="normal" font-weight="bold" text-decoration="normal" x="1231" y="434" text-anchor="start" dominant-baseline="alphabetic" fill-opacity="1">3</text><path fill="none" stroke="rgb(37,37,37)" paint-order="fill stroke markers" d=" M 1234 418 L 1234 421" stroke-opacity="1" stroke-miterlimit="10" stroke-width="2"/><text fill="rgb(37,37,37)" stroke="none" font-family="geogebra-sans-serif, sans-serif" font-size="12px" font-style="normal" font-weight="bold" text-decoration="normal" x="1308" y="434" text-anchor="start" dominant-baseline="alphabetic" fill-opacity="1">3.5</text><text fill="none" stroke="rgb(255,255,255)" font-family="geogebra-sans-serif, sans-serif" font-size="12px" font-style="normal" font-weight="bold" text-decoration="normal" x="1308" y="434" text-anchor="start" dominant-baseline="alphabetic" stroke-opacity="1" stroke-linejoin="bevel" stroke-miterlimit="10" stroke-width="3">3.5</text><text fill="rgb(37,37,37)" stroke="none" font-family="geogebra-sans-serif, sans-serif" font-size="12px" font-style="normal" font-weight="bold" text-decoration="normal" x="1308" y="434" text-anchor="start" dominant-baseline="alphabetic" fill-opacity="1">3.5</text><path fill="none" stroke="rgb(37,37,37)" paint-order="fill stroke markers" d=" M 1319 418 L 1319 421" stroke-opacity="1" stroke-miterlimit="10" stroke-width="2"/><text fill="rgb(37,37,37)" stroke="none" font-family="geogebra-sans-serif, sans-serif" font-size="12px" font-style="normal" font-weight="bold" text-decoration="normal" x="1400" y="434" text-anchor="start" dominant-baseline="alphabetic" fill-opacity="1">4</text><text fill="none" stroke="rgb(255,255,255)" font-family="geogebra-sans-serif, sans-serif" font-size="12px" font-style="normal" font-weight="bold" text-decoration="normal" x="1400" y="434" text-anchor="start" dominant-baseline="alphabetic" stroke-opacity="1" stroke-linejoin="bevel" stroke-miterlimit="10" stroke-width="3">4</text><text fill="rgb(37,37,37)" stroke="none" font-family="geogebra-sans-serif, sans-serif" font-size="12px" font-style="normal" font-weight="bold" text-decoration="normal" x="1400" y="434" text-anchor="start" dominant-baseline="alphabetic" fill-opacity="1">4</text><path fill="none" stroke="rgb(37,37,37)" paint-order="fill stroke markers" d=" M 1403 418 L 1403 421" stroke-opacity="1" stroke-miterlimit="10" stroke-width="2"/><path fill="none" stroke="rgb(37,37,37)" paint-order="fill stroke markers" d=" M 725 840 L 728 840" stroke-opacity="1" stroke-miterlimit="10" stroke-width="2"/><path fill="none" stroke="rgb(37,37,37)" paint-order="fill stroke markers" d=" M 725 756 L 728 756" stroke-opacity="1" stroke-miterlimit="10" stroke-width="2"/><path fill="none" stroke="rgb(37,37,37)" paint-order="fill stroke markers" d=" M 725 672 L 728 672" stroke-opacity="1" stroke-miterlimit="10" stroke-width="2"/><path fill="none" stroke="rgb(37,37,37)" paint-order="fill stroke markers" d=" M 725 587 L 728 587" stroke-opacity="1" stroke-miterlimit="10" stroke-width="2"/><path fill="none" stroke="rgb(37,37,37)" paint-order="fill stroke markers" d=" M 725 503 L 728 503" stroke-opacity="1" stroke-miterlimit="10" stroke-width="2"/><path fill="none" stroke="rgb(37,37,37)" paint-order="fill stroke markers" d=" M 725 334 L 728 334" stroke-opacity="1" stroke-miterlimit="10" stroke-width="2"/><path fill="none" stroke="rgb(37,37,37)" paint-order="fill stroke markers" d=" M 725 250 L 728 250" stroke-opacity="1" stroke-miterlimit="10" stroke-width="2"/><path fill="none" stroke="rgb(37,37,37)" paint-order="fill stroke markers" d=" M 725 165 L 728 165" stroke-opacity="1" stroke-miterlimit="10" stroke-width="2"/><path fill="none" stroke="rgb(37,37,37)" paint-order="fill stroke markers" d=" M 725 81 L 728 81" stroke-opacity="1" stroke-miterlimit="10" stroke-width="2"/><text fill="rgb(37,37,37)" stroke="none" font-family="geogebra-sans-serif, sans-serif" font-size="12px" font-style="normal" font-weight="bold" text-decoration="normal" x="697" y="845" text-anchor="start" dominant-baseline="alphabetic" fill-opacity="1">–2.5</text><text fill="none" stroke="rgb(255,255,255)" font-family="geogebra-sans-serif, sans-serif" font-size="12px" font-style="normal" font-weight="bold" text-decoration="normal" x="697" y="845" text-anchor="start" dominant-baseline="alphabetic" stroke-opacity="1" stroke-linejoin="bevel" stroke-miterlimit="10" stroke-width="3">–2.5</text><text fill="rgb(37,37,37)" stroke="none" font-family="geogebra-sans-serif, sans-serif" font-size="12px" font-style="normal" font-weight="bold" text-decoration="normal" x="697" y="845" text-anchor="start" dominant-baseline="alphabetic" fill-opacity="1">–2.5</text><text fill="rgb(37,37,37)" stroke="none" font-family="geogebra-sans-serif, sans-serif" font-size="12px" font-style="normal" font-weight="bold" text-decoration="normal" x="707" y="760" text-anchor="start" dominant-baseline="alphabetic" fill-opacity="1">–2</text><text fill="none" stroke="rgb(255,255,255)" font-family="geogebra-sans-serif, sans-serif" font-size="12px" font-style="normal" font-weight="bold" text-decoration="normal" x="707" y="760" text-anchor="start" dominant-baseline="alphabetic" stroke-opacity="1" stroke-linejoin="bevel" stroke-miterlimit="10" stroke-width="3">–2</text><text fill="rgb(37,37,37)" stroke="none" font-family="geogebra-sans-serif, sans-serif" font-size="12px" font-style="normal" font-weight="bold" text-decoration="normal" x="707" y="760" text-anchor="start" dominant-baseline="alphabetic" fill-opacity="1">–2</text><text fill="rgb(37,37,37)" stroke="none" font-family="geogebra-sans-serif, sans-serif" font-size="12px" font-style="normal" font-weight="bold" text-decoration="normal" x="697" y="676" text-anchor="start" dominant-baseline="alphabetic" fill-opacity="1">–1.5</text><text fill="none" stroke="rgb(255,255,255)" font-family="geogebra-sans-serif, sans-serif" font-size="12px" font-style="normal" font-weight="bold" text-decoration="normal" x="697" y="676" text-anchor="start" dominant-baseline="alphabetic" stroke-opacity="1" stroke-linejoin="bevel" stroke-miterlimit="10" stroke-width="3">–1.5</text><text fill="rgb(37,37,37)" stroke="none" font-family="geogebra-sans-serif, sans-serif" font-size="12px" font-style="normal" font-weight="bold" text-decoration="normal" x="697" y="676" text-anchor="start" dominant-baseline="alphabetic" fill-opacity="1">–1.5</text><text fill="rgb(37,37,37)" stroke="none" font-family="geogebra-sans-serif, sans-serif" font-size="12px" font-style="normal" font-weight="bold" text-decoration="normal" x="707" y="592" text-anchor="start" dominant-baseline="alphabetic" fill-opacity="1">–1</text><text fill="none" stroke="rgb(255,255,255)" font-family="geogebra-sans-serif, sans-serif" font-size="12px" font-style="normal" font-weight="bold" text-decoration="normal" x="707" y="592" text-anchor="start" dominant-baseline="alphabetic" stroke-opacity="1" stroke-linejoin="bevel" stroke-miterlimit="10" stroke-width="3">–1</text><text fill="rgb(37,37,37)" stroke="none" font-family="geogebra-sans-serif, sans-serif" font-size="12px" font-style="normal" font-weight="bold" text-decoration="normal" x="707" y="592" text-anchor="start" dominant-baseline="alphabetic" fill-opacity="1">–1</text><text fill="rgb(37,37,37)" stroke="none" font-family="geogebra-sans-serif, sans-serif" font-size="12px" font-style="normal" font-weight="bold" text-decoration="normal" x="697" y="507" text-anchor="start" dominant-baseline="alphabetic" fill-opacity="1">–0.5</text><text fill="none" stroke="rgb(255,255,255)" font-family="geogebra-sans-serif, sans-serif" font-size="12px" font-style="normal" font-weight="bold" text-decoration="normal" x="697" y="507" text-anchor="start" dominant-baseline="alphabetic" stroke-opacity="1" stroke-linejoin="bevel" stroke-miterlimit="10" stroke-width="3">–0.5</text><text fill="rgb(37,37,37)" stroke="none" font-family="geogebra-sans-serif, sans-serif" font-size="12px" font-style="normal" font-weight="bold" text-decoration="normal" x="697" y="507" text-anchor="start" dominant-baseline="alphabetic" fill-opacity="1">–0.5</text><text fill="rgb(37,37,37)" stroke="none" font-family="geogebra-sans-serif, sans-serif" font-size="12px" font-style="normal" font-weight="bold" text-decoration="normal" x="703" y="339" text-anchor="start" dominant-baseline="alphabetic" fill-opacity="1">0.5</text><text fill="none" stroke="rgb(255,255,255)" font-family="geogebra-sans-serif, sans-serif" font-size="12px" font-style="normal" font-weight="bold" text-decoration="normal" x="703" y="339" text-anchor="start" dominant-baseline="alphabetic" stroke-opacity="1" stroke-linejoin="bevel" stroke-miterlimit="10" stroke-width="3">0.5</text><text fill="rgb(37,37,37)" stroke="none" font-family="geogebra-sans-serif, sans-serif" font-size="12px" font-style="normal" font-weight="bold" text-decoration="normal" x="703" y="339" text-anchor="start" dominant-baseline="alphabetic" fill-opacity="1">0.5</text><text fill="rgb(37,37,37)" stroke="none" font-family="geogebra-sans-serif, sans-serif" font-size="12px" font-style="normal" font-weight="bold" text-decoration="normal" x="713" y="254" text-anchor="start" dominant-baseline="alphabetic" fill-opacity="1">1</text><text fill="none" stroke="rgb(255,255,255)" font-family="geogebra-sans-serif, sans-serif" font-size="12px" font-style="normal" font-weight="bold" text-decoration="normal" x="713" y="254" text-anchor="start" dominant-baseline="alphabetic" stroke-opacity="1" stroke-linejoin="bevel" stroke-miterlimit="10" stroke-width="3">1</text><text fill="rgb(37,37,37)" stroke="none" font-family="geogebra-sans-serif, sans-serif" font-size="12px" font-style="normal" font-weight="bold" text-decoration="normal" x="713" y="254" text-anchor="start" dominant-baseline="alphabetic" fill-opacity="1">1</text><text fill="rgb(37,37,37)" stroke="none" font-family="geogebra-sans-serif, sans-serif" font-size="12px" font-style="normal" font-weight="bold" text-decoration="normal" x="703" y="170" text-anchor="start" dominant-baseline="alphabetic" fill-opacity="1">1.5</text><text fill="none" stroke="rgb(255,255,255)" font-family="geogebra-sans-serif, sans-serif" font-size="12px" font-style="normal" font-weight="bold" text-decoration="normal" x="703" y="170" text-anchor="start" dominant-baseline="alphabetic" stroke-opacity="1" stroke-linejoin="bevel" stroke-miterlimit="10" stroke-width="3">1.5</text><text fill="rgb(37,37,37)" stroke="none" font-family="geogebra-sans-serif, sans-serif" font-size="12px" font-style="normal" font-weight="bold" text-decoration="normal" x="703" y="170" text-anchor="start" dominant-baseline="alphabetic" fill-opacity="1">1.5</text><text fill="rgb(37,37,37)" stroke="none" font-family="geogebra-sans-serif, sans-serif" font-size="12px" font-style="normal" font-weight="bold" text-decoration="normal" x="713" y="85" text-anchor="start" dominant-baseline="alphabetic" fill-opacity="1">2</text><text fill="none" stroke="rgb(255,255,255)" font-family="geogebra-sans-serif, sans-serif" font-size="12px" font-style="normal" font-weight="bold" text-decoration="normal" x="713" y="85" text-anchor="start" dominant-baseline="alphabetic" stroke-opacity="1" stroke-linejoin="bevel" stroke-miterlimit="10" stroke-width="3">2</text><text fill="rgb(37,37,37)" stroke="none" font-family="geogebra-sans-serif, sans-serif" font-size="12px" font-style="normal" font-weight="bold" text-decoration="normal" x="713" y="85" text-anchor="start" dominant-baseline="alphabetic" fill-opacity="1">2</text><text fill="rgb(37,37,37)" stroke="none" font-family="geogebra-sans-serif, sans-serif" font-size="12px" font-style="normal" font-weight="bold" text-decoration="normal" x="713" y="434" text-anchor="start" dominant-baseline="alphabetic" fill-opacity="1">0</text><text fill="none" stroke="rgb(255,255,255)" font-family="geogebra-sans-serif, sans-serif" font-size="12px" font-style="normal" font-weight="bold" text-decoration="normal" x="713" y="434" text-anchor="start" dominant-baseline="alphabetic" stroke-opacity="1" stroke-linejoin="bevel" stroke-miterlimit="10" stroke-width="3">0</text><text fill="rgb(37,37,37)" stroke="none" font-family="geogebra-sans-serif, sans-serif" font-size="12px" font-style="normal" font-weight="bold" text-decoration="normal" x="713" y="434" text-anchor="start" dominant-baseline="alphabetic" fill-opacity="1">0</text><path fill="none" stroke="rgb(211,47,47)" paint-order="fill stroke markers" d=" M 560 667.5935791130689 L 560 683.5093801466392 L 560 667.5935791130689 L 561 659.1855509698094 L 561 659.1855509698094 L 562 653.00271127273 L 562 653.00271127273 L 563 647.8675440860277 L 563 647.8675440860277 L 564 643.3758181076489 L 564 643.3758181076489 L 565 639.3307984188037 L 565 639.3307984188037 L 566 635.6191242177337 L 566 635.6191242177337 L 567 632.1684149587697 L 567 632.1684149587697 L 568 628.9291208403653 L 568 628.9291208403653 L 569 625.8655601860983 L 569 625.8655601860983 L 570 622.9510287645044 L 570 622.9510287645044 L 571 620.1649253404544 L 571 620.1649253404544 L 572 617.4909620673732 L 572 617.4909620673732 L 573 614.9159977343625 L 573 614.9159977343625 L 574 612.4292478088524 L 574 612.4292478088524 L 575 610.0217324494369 L 575 610.0217324494369 L 576 607.6858803402213 L 576 607.6858803402213 L 577 605.4152377441621 L 577 605.4152377441621 L 578 603.2042505164437 L 578 603.2042505164437 L 579 601.0480978930506 L 579 601.0480978930506 L 580 598.9425637763028 L 580 598.9425637763028 L 581 596.8839356711896 L 581 596.8839356711896 L 582 594.8689243430614 L 582 594.8689243430614 L 583 592.8945992303143 L 583 592.8945992303143 L 584 590.9583359938022 L 584 590.9583359938022 L 585 589.0577735274521 L 585 589.0577735274521 L 586 587.1907784247745 L 586 587.1907784247745 L 587 585.3554153796335 L 587 585.3554153796335 L 588 583.5499223535127 L 588 583.5499223535127 L 589 581.7726896037026 L 589 581.7726896037026 L 590 580.0222418633684 L 590 580.0222418633684 L 591 578.2972231133608 L 591 578.2972231133608 L 592 576.5963834995866 L 592 576.5963834995866 L 593 574.9185680377723 L 593 574.9185680377723 L 594 573.2627068160238 L 594 573.2627068160238 L 595 571.6278064594476 L 595 571.6278064594476 L 596 570.0129426637166 L 596 570.0129426637166 L 597 568.4172536384388 L 597 568.4172536384388 L 598 566.8399343284457 L 598 566.8399343284457 L 599 565.2802313031234 L 599 565.2802313031234 L 600 563.7374382217924 L 600 563.7374382217924 L 601 562.2108917977387 L 601 562.2108917977387 L 602 560.6999681955015 L 602 560.6999681955015 L 603 559.2040798059111 L 603 559.2040798059111 L 604 557.7226723515871 L 604 557.7226723515871 L 605 556.2552222824445 L 605 556.2552222824445 L 606 554.8012344264764 L 606 554.8012344264764 L 607 553.3602398658954 L 607 553.3602398658954 L 608 551.9317940127705 L 608 551.9317940127705 L 609 550.5154748617266 L 609 550.5154748617266 L 610 549.1108814002043 L 610 549.1108814002043 L 611 547.7176321592551 L 611 547.7176321592551 L 612 546.3353638899853 L 612 546.3353638899853 L 613 544.9637303525857 L 613 544.9637303525857 L 614 543.6024012064634 L 614 543.6024012064634 L 615 542.2510609913438 L 615 542.2510609913438 L 616 540.9094081903958 L 616 540.9094081903958 L 617 539.5771543674488 L 617 539.5771543674488 L 618 538.2540233712646 L 618 538.2540233712646 L 619 536.9397506006006 L 619 536.9397506006006 L 620 535.6340823244815 L 620 535.6340823244815 L 621 534.3367750526907 L 621 534.3367750526907 L 622 533.0475949520201 L 622 533.0475949520201 L 623 531.7663173042733 L 623 531.7663173042733 L 624 530.4927260024265 L 624 530.4927260024265 L 625 529.2266130817128 L 625 529.2266130817128 L 626 527.9677782827121 L 626 527.9677782827121 L 627 526.716028643814 L 627 526.716028643814 L 628 525.4711781206713 L 628 525.4711781206713 L 629 524.2330472304898 L 629 524.2330472304898 L 630 523.0014627191949 L 630 523.0014627191949 L 631 521.7762572497012 L 631 521.7762572497012 L 632 520.5572691096676 L 632 520.5572691096676 L 633 519.3443419372653 L 633 519.3443419372653 L 634 518.1373244636175 L 634 518.1373244636175 L 635 516.9360702706828 L 635 516.9360702706828 L 636 515.740437563463 L 636 515.740437563463 L 637 514.5502889555079 L 637 514.5502889555079 L 638 513.3654912667757 L 638 513.3654912667757 L 639 512.185915332988 L 639 512.185915332988 L 640 511.0114358256834 L 640 511.0114358256834 L 641 509.8419310822429 L 641 509.8419310822429 L 642 508.6772829452143 L 642 508.6772829452143 L 643 507.5173766103169 L 643 507.5173766103169 L 644 506.36210048255555 L 644 506.36210048255555 L 645 505.2113460399182 L 645 505.2113460399182 L 646 504.065007704167 L 646 504.065007704167 L 647 502.92298271827434 L 647 502.92298271827434 L 648 501.78517103008573 L 648 501.78517103008573 L 649 500.6514751818217 L 649 500.6514751818217 L 650 499.52180020506 L 650 499.52180020506 L 651 498.3960535208657 L 651 498.3960535208657 L 652 497.2741448447574 L 652 497.2741448447574 L 653 496.1559860962233 L 653 496.1559860962233 L 654 495.04149131251665 L 654 495.04149131251665 L 655 493.93057656648386 L 655 493.93057656648386 L 656 492.8231598881881 L 656 492.8231598881881 L 657 491.7191611901146 L 657 491.7191611901146 L 658 490.6185021957529 L 658 490.6185021957529 L 659 489.5211063713663 L 659 489.5211063713663 L 660 488.4268988607715 L 660 488.4268988607715 L 661 487.33580642296283 L 661 487.33580642296283 L 662 486.2477573724245 L 662 486.2477573724245 L 663 485.1626815219862 L 663 485.1626815219862 L 664 484.0805101280853 L 664 484.0805101280853 L 665 483.0011758383065 L 665 483.0011758383065 L 666 481.92461264108033 L 666 481.92461264108033 L 667 480.8507558174257 L 667 480.8507558174257 L 668 479.7795418946313 L 668 479.7795418946313 L 669 478.7109086017754 L 669 478.7109086017754 L 670 477.64479482698994 L 670 477.64479482698994 L 671 476.5811405763803 L 671 476.5811405763803 L 672 475.5198869345171 L 672 475.5198869345171 L 673 474.4609760264215 L 673 474.4609760264215 L 674 473.4043509809689 L 674 473.4043509809689 L 675 472.34995589564176 L 675 472.34995589564176 L 676 471.2977358025645 L 676 471.2977358025645 L 677 470.24763663575806 L 677 470.24763663575806 L 678 469.1996051995548 L 678 469.1996051995548 L 679 468.1535891381173 L 679 468.1535891381173 L 680 467.10953690600826 L 680 467.10953690600826 L 681 466.06739773976113 L 681 466.06739773976113 L 682 465.02712163040326 L 682 465.02712163040326 L 683 463.98865929688685 L 683 463.98865929688685 L 684 462.95196216038437 L 684 462.95196216038437 L 685 461.9169823194073 L 685 461.9169823194073 L 686 460.88367252571015 L 686 460.88367252571015 L 687 459.8519861609425 L 687 459.8519861609425 L 688 458.82187721401334 L 688 458.82187721401334 L 689 457.79330025913515 L 689 457.79330025913515 L 690 456.7662104345158 L 690 456.7662104345158 L 691 455.740563421667 L 691 455.740563421667 L 692 454.7163154253016 L 692 454.7163154253016 L 693 453.69342315379106 L 693 453.69342315379106 L 694 452.6718438001575 L 694 452.6718438001575 L 695 451.65153502357407 L 695 451.65153502357407 L 696 450.63245493135116 L 696 450.63245493135116 L 697 449.6145620613834 L 697 449.6145620613834 L 698 448.5978153650368 L 698 448.5978153650368 L 699 447.5821741904541 L 699 447.5821741904541 L 700 446.56759826625836 L 700 446.56759826625836 L 701 445.55404768563494 L 701 445.55404768563494 L 702 444.5414828907734 L 702 444.5414828907734 L 703 443.52986465765116 L 703 443.52986465765116 L 704 442.5191540811412 L 704 442.5191540811412 L 705 441.50931256042816 L 705 441.50931256042816 L 706 440.500301784715 L 706 440.500301784715 L 707 439.4920837192067 L 707 439.4920837192067 L 708 438.48462059135363 L 708 438.48462059135363 L 709 437.4778748773428 L 709 437.4778748773428 L 710 436.47180928882 L 710 436.47180928882 L 711 435.4663867598315 L 711 435.4663867598315 L 712 434.46157043397056 L 712 434.46157043397056 L 713 433.45732365171733 L 713 433.45732365171733 L 714 432.4536099379577 L 714 432.4536099379577 L 715 431.4503929896707 L 715 431.4503929896707 L 716 430.44763666377196 L 716 430.44763666377196 L 717 429.4453049651009 L 717 429.4453049651009 L 718 428.44336203454145 L 718 428.44336203454145 L 719 427.44177213726465 L 719 427.44177213726465 L 720 426.440499651082 L 720 426.440499651082 L 721 425.43950905489936 L 721 425.43950905489936 L 722 424.4387649172604 L 722 424.4387649172604 L 723 423.4382318849699 L 723 423.4382318849699 L 724 422.4378746717857 L 724 422.4378746717857 L 725 421.4376580471702 L 725 421.4376580471702 L 726 420.43754682509064 L 726 420.43754682509064 L 727 419.4375058528588 L 727 419.4375058528588 L 728 418.4375 L 728 418.4375 L 729 417.43749414714114 L 729 417.43749414714114 L 730 416.43745317490936 L 730 416.43745317490936 L 731 415.43734195282974 L 731 415.43734195282974 L 732 414.4371253282142 L 732 414.4371253282142 L 733 413.43676811503 L 733 413.43676811503 L 734 412.43623508273953 L 734 412.43623508273953 L 735 411.4354909451006 L 735 411.4354909451006 L 736 410.43450034891794 L 736 410.43450034891794 L 737 409.43322786273535 L 737 409.43322786273535 L 738 408.43163796545855 L 738 408.43163796545855 L 739 407.4296950348991 L 739 407.4296950348991 L 740 406.427363336228 L 740 406.427363336228 L 741 405.4246070103292 L 741 405.4246070103292 L 742 404.4213900620423 L 742 404.4213900620423 L 743 403.4176763482826 L 743 403.4176763482826 L 744 402.4134295660294 L 744 402.4134295660294 L 745 401.4086132401685 L 745 401.4086132401685 L 746 400.40319071117995 L 746 400.40319071117995 L 747 399.39712512265714 L 747 399.39712512265714 L 748 398.39037940864637 L 748 398.39037940864637 L 749 397.3829162807933 L 749 397.3829162807933 L 750 396.3746982152849 L 750 396.3746982152849 L 751 395.3656874395718 L 751 395.3656874395718 L 752 394.35584591885873 L 752 394.35584591885873 L 753 393.34513534234884 L 753 393.34513534234884 L 754 392.33351710922653 L 754 392.33351710922653 L 755 391.32095231436506 L 755 391.32095231436506 L 756 390.30740173374164 L 756 390.30740173374164 L 757 389.2928258095459 L 757 389.2928258095459 L 758 388.2771846349632 L 758 388.2771846349632 L 759 387.2604379386166 L 759 387.2604379386166 L 760 386.24254506864884 L 760 386.24254506864884 L 761 385.22346497642593 L 761 385.22346497642593 L 762 384.2031561998425 L 762 384.2031561998425 L 763 383.1815768462089 L 763 383.1815768462089 L 764 382.1586845746984 L 764 382.1586845746984 L 765 381.13443657833295 L 765 381.13443657833295 L 766 380.1087895654842 L 766 380.1087895654842 L 767 379.0816997408648 L 767 379.0816997408648 L 768 378.05312278598666 L 768 378.05312278598666 L 769 377.02301383905746 L 769 377.02301383905746 L 770 375.99132747428985 L 770 375.99132747428985 L 771 374.9580176805927 L 771 374.9580176805927 L 772 373.92303783961563 L 772 373.92303783961563 L 773 372.8863407031131 L 773 372.8863407031131 L 774 371.84787836959674 L 774 371.84787836959674 L 775 370.80760226023887 L 775 370.80760226023887 L 776 369.7654630939917 L 776 369.7654630939917 L 777 368.72141086188265 L 777 368.72141086188265 L 778 367.67539480044513 L 778 367.67539480044513 L 779 366.6273633642419 L 779 366.6273633642419 L 780 365.5772641974355 L 780 365.5772641974355 L 781 364.52504410435824 L 781 364.52504410435824 L 782 363.47064901903104 L 782 363.47064901903104 L 783 362.4140239735784 L 783 362.4140239735784 L 784 361.35511306548284 L 784 361.35511306548284 L 785 360.29385942361966 L 785 360.29385942361966 L 786 359.23020517301 L 786 359.23020517301 L 787 358.16409139822457 L 787 358.16409139822457 L 788 357.09545810536866 L 788 357.09545810536866 L 789 356.02424418257425 L 789 356.02424418257425 L 790 354.9503873589196 L 790 354.9503873589196 L 791 353.87382416169345 L 791 353.87382416169345 L 792 352.79448987191466 L 792 352.79448987191466 L 793 351.71231847801374 L 793 351.71231847801374 L 794 350.62724262757547 L 794 350.62724262757547 L 795 349.53919357703717 L 795 349.53919357703717 L 796 348.44810113922847 L 796 348.44810113922847 L 797 347.35389362863367 L 797 347.35389362863367 L 798 346.25649780424703 L 798 346.25649780424703 L 799 345.1558388098853 L 799 345.1558388098853 L 800 344.0518401118119 L 800 344.0518401118119 L 801 342.9444234335161 L 801 342.9444234335161 L 802 341.8335086874833 L 802 341.8335086874833 L 803 340.7190139037767 L 803 340.7190139037767 L 804 339.6008551552425 L 804 339.6008551552425 L 805 338.47894647913427 L 805 338.47894647913427 L 806 337.35319979494 L 806 337.35319979494 L 807 336.22352481817825 L 807 336.22352481817825 L 808 335.08982896991415 L 808 335.08982896991415 L 809 333.9520172817256 L 809 333.9520172817256 L 810 332.80999229583296 L 810 332.80999229583296 L 811 331.6636539600817 L 811 331.6636539600817 L 812 330.5128995174444 L 812 330.5128995174444 L 813 329.3576233896831 L 813 329.3576233896831 L 814 328.19771705478564 L 814 328.19771705478564 L 815 327.0330689177571 L 815 327.0330689177571 L 816 325.8635641743166 L 816 325.8635641743166 L 817 324.68908466701197 L 817 324.68908466701197 L 818 323.5095087332242 L 818 323.5095087332242 L 819 322.324711044492 L 819 322.324711044492 L 820 321.1345624365369 L 820 321.1345624365369 L 821 319.9389297293171 L 821 319.9389297293171 L 822 318.7376755363824 L 822 318.7376755363824 L 823 317.53065806273463 L 823 317.53065806273463 L 824 316.31773089033237 L 824 316.31773089033237 L 825 315.0987427502987 L 825 315.0987427502987 L 826 313.87353728080507 L 826 313.87353728080507 L 827 312.6419527695101 L 827 312.6419527695101 L 828 311.40382187932863 L 828 311.40382187932863 L 829 310.158971356186 L 829 310.158971356186 L 830 308.9072217172878 L 830 308.9072217172878 L 831 307.6483869182871 L 831 307.6483869182871 L 832 306.3822739975734 L 832 306.3822739975734 L 833 305.10868269572654 L 833 305.10868269572654 L 834 303.8274050479798 L 834 303.8274050479798 L 835 302.5382249473093 L 835 302.5382249473093 L 836 301.24091767551846 L 836 301.24091767551846 L 837 299.93524939939925 L 837 299.93524939939925 L 838 298.6209766287354 L 838 298.6209766287354 L 839 297.2978456325512 L 839 297.2978456325512 L 840 295.9655918096041 L 840 295.9655918096041 L 841 294.62393900865607 L 841 294.62393900865607 L 842 293.2725987935366 L 842 293.2725987935366 L 843 291.91126964741426 L 843 291.91126964741426 L 844 290.53963611001467 L 844 290.53963611001467 L 845 289.1573678407447 L 845 289.1573678407447 L 846 287.76411859979555 L 846 287.76411859979555 L 847 286.3595251382733 L 847 286.3595251382733 L 848 284.9432059872294 L 848 284.9432059872294 L 849 283.51476013410434 L 849 283.51476013410434 L 850 282.07376557352353 L 850 282.07376557352353 L 851 280.6197777175553 L 851 280.6197777175553 L 852 279.15232764841267 L 852 279.15232764841267 L 853 277.6709201940888 L 853 277.6709201940888 L 854 276.1750318044984 L 854 276.1750318044984 L 855 274.6641082022612 L 855 274.6641082022612 L 856 273.13756177820744 L 856 273.13756177820744 L 857 271.5947686968764 L 857 271.5947686968764 L 858 270.0350656715542 L 858 270.0350656715542 L 859 268.45774636156114 L 859 268.45774636156114 L 860 266.86205733628327 L 860 266.86205733628327 L 861 265.2471935405522 L 861 265.2471935405522 L 862 263.6122931839761 L 862 263.6122931839761 L 863 261.9564319622276 L 863 261.9564319622276 L 864 260.27861650041314 L 864 260.27861650041314 L 865 258.57777688663896 L 865 258.57777688663896 L 866 256.85275813663134 L 866 256.85275813663134 L 867 255.10231039629724 L 867 255.10231039629724 L 868 253.32507764648716 L 868 253.32507764648716 L 869 251.51958462036626 L 869 251.51958462036626 L 870 249.68422157522534 L 870 249.68422157522534 L 871 247.81722647254773 L 871 247.81722647254773 L 872 245.9166640061976 L 872 245.9166640061976 L 873 243.9804007696855 L 873 243.9804007696855 L 874 242.0060756569383 L 874 242.0060756569383 L 875 239.9910643288101 L 875 239.9910643288101 L 876 237.93243622369698 L 876 237.93243622369698 L 877 235.82690210694915 L 877 235.82690210694915 L 878 233.670749483556 L 878 233.670749483556 L 879 231.4597622558376 L 879 231.4597622558376 L 880 229.1891196597784 L 880 229.1891196597784 L 881 226.85326755056283 L 881 226.85326755056283 L 882 224.44575219114725 L 882 224.44575219114725 L 883 221.95900226563717 L 883 221.95900226563717 L 884 219.38403793262643 L 884 219.38403793262643 L 885 216.71007465954517 L 885 216.71007465954517 L 886 213.92397123549523 L 886 213.92397123549523 L 887 211.0094398139013 L 887 211.0094398139013 L 888 207.94587915963416 L 888 207.94587915963416 L 889 204.7065850412297 L 889 204.7065850412297 L 890 201.25587578226566 L 890 201.25587578226566 L 891 197.54420158119555 L 891 197.54420158119555 L 892 193.49918189235032 L 892 193.49918189235032 L 893 189.0074559139714 L 893 189.0074559139714 L 894 183.87228872726885 L 894 183.87228872726885 L 895 177.68944903018894 L 895 177.68944903018894 L 896 169.28142088692834 L 896 169.28142088692834 L 897 153.36561985336112" stroke-opacity="0.8" stroke-linecap="round" stroke-linejoin="round" stroke-miterlimit="10" stroke-width="6.5"/><text fill="rgb(211,47,47)" stroke="none" font-family="geogebra-sans-serif, sans-serif" font-size="16px" font-style="normal" font-weight="normal" text-decoration="normal" x="560" y="667" text-anchor="start" dominant-baseline="alphabetic" fill-opacity="1">f</text><text fill="none" stroke="rgb(255,255,255)" font-family="geogebra-sans-serif, sans-serif" font-size="16px" font-style="normal" font-weight="normal" text-decoration="normal" x="560" y="667" text-anchor="start" dominant-baseline="alphabetic" stroke-opacity="1" stroke-linejoin="bevel" stroke-miterlimit="10" stroke-width="3">f</text><text fill="rgb(211,47,47)" stroke="none" font-family="geogebra-sans-serif, sans-serif" font-size="16px" font-style="normal" font-weight="normal" text-decoration="normal" x="560" y="667" text-anchor="start" dominant-baseline="alphabetic" fill-opacity="1">f</text></g></g></svg>