<svg version="1.1" xmlns="http://www.w3.org/2000/svg" xmlns:xlink="http://www.w3.org/1999/xlink" width="834" height="588"><defs><clipPath id="qgHbEEbsxbsy"><path fill="none" stroke="none" d=" M 0 0 L 834 0 L 834 588 L 0 588 L 0 0 Z"/></clipPath></defs><g transform="scale(1,1)" clip-path="url(#qgHbEEbsxbsy)"><g><rect fill="rgb(255,255,255)" stroke="none" x="0" y="0" width="834" height="588" fill-opacity="1"/><path fill="none" stroke="rgb(192,192,192)" paint-order="fill stroke markers" d=" M 12.5 0.5 L 12.5 588.5 M 12.5 0.5 L 12.5 588.5 M 72.5 0.5 L 72.5 588.5 M 133.5 0.5 L 133.5 588.5 M 193.5 0.5 L 193.5 588.5 M 254.5 0.5 L 254.5 588.5 M 314.5 0.5 L 314.5 588.5 M 435.5 0.5 L 435.5 588.5 M 496.5 0.5 L 496.5 588.5 M 556.5 0.5 L 556.5 588.5 M 617.5 0.5 L 617.5 588.5 M 677.5 0.5 L 677.5 588.5 M 738.5 0.5 L 738.5 588.5 M 798.5 0.5 L 798.5 588.5" stroke-opacity="1" stroke-linecap="round" stroke-linejoin="round" stroke-miterlimit="10"/><path fill="none" stroke="rgb(192,192,192)" paint-order="fill stroke markers" d=" M 24.5 0.5 L 24.5 588.5 M 36.5 0.5 L 36.5 588.5 M 48.5 0.5 L 48.5 588.5 M 60.5 0.5 L 60.5 588.5 M 84.5 0.5 L 84.5 588.5 M 96.5 0.5 L 96.5 588.5 M 108.5 0.5 L 108.5 588.5 M 120.5 0.5 L 120.5 588.5 M 145.5 0.5 L 145.5 588.5 M 157.5 0.5 L 157.5 588.5 M 169.5 0.5 L 169.5 588.5 M 181.5 0.5 L 181.5 588.5 M 205.5 0.5 L 205.5 588.5 M 217.5 0.5 L 217.5 588.5 M 229.5 0.5 L 229.5 588.5 M 241.5 0.5 L 241.5 588.5 M 266.5 0.5 L 266.5 588.5 M 278.5 0.5 L 278.5 588.5 M 290.5 0.5 L 290.5 588.5 M 302.5 0.5 L 302.5 588.5 M 326.5 0.5 L 326.5 588.5 M 338.5 0.5 L 338.5 588.5 M 350.5 0.5 L 350.5 588.5 M 362.5 0.5 L 362.5 588.5 M 387.5 0.5 L 387.5 588.5 M 399.5 0.5 L 399.5 588.5 M 411.5 0.5 L 411.5 588.5 M 423.5 0.5 L 423.5 588.5 M 447.5 0.5 L 447.5 588.5 M 459.5 0.5 L 459.5 588.5 M 471.5 0.5 L 471.5 588.5 M 483.5 0.5 L 483.5 588.5 M 508.5 0.5 L 508.5 588.5 M 520.5 0.5 L 520.5 588.5 M 532.5 0.5 L 532.5 588.5 M 544.5 0.5 L 544.5 588.5 M 568.5 0.5 L 568.5 588.5 M 580.5 0.5 L 580.5 588.5 M 592.5 0.5 L 592.5 588.5 M 604.5 0.5 L 604.5 588.5 M 629.5 0.5 L 629.5 588.5 M 641.5 0.5 L 641.5 588.5 M 653.5 0.5 L 653.5 588.5 M 665.5 0.5 L 665.5 588.5 M 689.5 0.5 L 689.5 588.5 M 701.5 0.5 L 701.5 588.5 M 713.5 0.5 L 713.5 588.5 M 725.5 0.5 L 725.5 588.5 M 750.5 0.5 L 750.5 588.5 M 762.5 0.5 L 762.5 588.5 M 774.5 0.5 L 774.5 588.5 M 786.5 0.5 L 786.5 588.5 M 810.5 0.5 L 810.5 588.5 M 822.5 0.5 L 822.5 588.5" stroke-opacity="0.23529411764705882" stroke-linecap="round" stroke-linejoin="round" stroke-miterlimit="10"/><path fill="none" stroke="rgb(192,192,192)" paint-order="fill stroke markers" d=" M 0.5 60.5 L 834.5 60.5 M 0.5 60.5 L 834.5 60.5 M 0.5 120.5 L 834.5 120.5 M 0.5 181.5 L 834.5 181.5 M 0.5 241.5 L 834.5 241.5 M 0.5 362.5 L 834.5 362.5 M 0.5 423.5 L 834.5 423.5 M 0.5 483.5 L 834.5 483.5 M 0.5 544.5 L 834.5 544.5" stroke-opacity="1" stroke-linecap="round" stroke-linejoin="round" stroke-miterlimit="10"/><path fill="none" stroke="rgb(192,192,192)" paint-order="fill stroke markers" d=" M 0.5 11.5 L 834.5 11.5 M 0.5 23.5 L 834.5 23.5 M 0.5 36.5 L 834.5 36.5 M 0.5 48.5 L 834.5 48.5 M 0.5 72.5 L 834.5 72.5 M 0.5 84.5 L 834.5 84.5 M 0.5 96.5 L 834.5 96.5 M 0.5 108.5 L 834.5 108.5 M 0.5 132.5 L 834.5 132.5 M 0.5 144.5 L 834.5 144.5 M 0.5 157.5 L 834.5 157.5 M 0.5 169.5 L 834.5 169.5 M 0.5 193.5 L 834.5 193.5 M 0.5 205.5 L 834.5 205.5 M 0.5 217.5 L 834.5 217.5 M 0.5 229.5 L 834.5 229.5 M 0.5 253.5 L 834.5 253.5 M 0.5 265.5 L 834.5 265.5 M 0.5 278.5 L 834.5 278.5 M 0.5 290.5 L 834.5 290.5 M 0.5 314.5 L 834.5 314.5 M 0.5 326.5 L 834.5 326.5 M 0.5 338.5 L 834.5 338.5 M 0.5 350.5 L 834.5 350.5 M 0.5 374.5 L 834.5 374.5 M 0.5 386.5 L 834.5 386.5 M 0.5 399.5 L 834.5 399.5 M 0.5 411.5 L 834.5 411.5 M 0.5 435.5 L 834.5 435.5 M 0.5 447.5 L 834.5 447.5 M 0.5 459.5 L 834.5 459.5 M 0.5 471.5 L 834.5 471.5 M 0.5 495.5 L 834.5 495.5 M 0.5 507.5 L 834.5 507.5 M 0.5 520.5 L 834.5 520.5 M 0.5 532.5 L 834.5 532.5 M 0.5 556.5 L 834.5 556.5 M 0.5 568.5 L 834.5 568.5 M 0.5 580.5 L 834.5 580.5" stroke-opacity="0.23529411764705882" stroke-linecap="round" stroke-linejoin="round" stroke-miterlimit="10"/><path fill="none" stroke="rgb(37,37,37)" paint-order="fill stroke markers" d=" M 375.5 2.5 L 375.5 588.5" stroke-opacity="1" stroke-miterlimit="10"/><path fill="none" stroke="rgb(37,37,37)" paint-order="fill stroke markers" d=" M 375.5 1.5 L 371.5 5.5" stroke-opacity="1" stroke-miterlimit="10"/><path fill="none" stroke="rgb(37,37,37)" paint-order="fill stroke markers" d=" M 375.5 1.5 L 379.5 5.5" stroke-opacity="1" stroke-miterlimit="10"/><path fill="none" stroke="rgb(37,37,37)" paint-order="fill stroke markers" d=" M 0.5 302.5 L 832.5 302.5" stroke-opacity="1" stroke-miterlimit="10"/><path fill="none" stroke="rgb(37,37,37)" paint-order="fill stroke markers" d=" M 833.5 302.5 L 829.5 298.5" stroke-opacity="1" stroke-miterlimit="10"/><path fill="none" stroke="rgb(37,37,37)" paint-order="fill stroke markers" d=" M 833.5 302.5 L 829.5 306.5" stroke-opacity="1" stroke-miterlimit="10"/><text fill="rgb(37,37,37)" stroke="none" font-family="geogebra-sans-serif, sans-serif" font-size="12px" font-style="normal" font-weight="normal" text-decoration="normal" x="7" y="318" text-anchor="start" dominant-baseline="alphabetic" fill-opacity="1">–6</text><text fill="none" stroke="rgb(255,255,255)" font-family="geogebra-sans-serif, sans-serif" font-size="12px" font-style="normal" font-weight="normal" text-decoration="normal" x="7" y="318" text-anchor="start" dominant-baseline="alphabetic" stroke-opacity="1" stroke-linejoin="bevel" stroke-miterlimit="10" stroke-width="3">–6</text><text fill="rgb(37,37,37)" stroke="none" font-family="geogebra-sans-serif, sans-serif" font-size="12px" font-style="normal" font-weight="normal" text-decoration="normal" x="7" y="318" text-anchor="start" dominant-baseline="alphabetic" fill-opacity="1">–6</text><text fill="rgb(37,37,37)" stroke="none" font-family="geogebra-sans-serif, sans-serif" font-size="12px" font-style="normal" font-weight="normal" text-decoration="normal" x="67" y="318" text-anchor="start" dominant-baseline="alphabetic" fill-opacity="1">–5</text><text fill="none" stroke="rgb(255,255,255)" font-family="geogebra-sans-serif, sans-serif" font-size="12px" font-style="normal" font-weight="normal" text-decoration="normal" x="67" y="318" text-anchor="start" dominant-baseline="alphabetic" stroke-opacity="1" stroke-linejoin="bevel" stroke-miterlimit="10" stroke-width="3">–5</text><text fill="rgb(37,37,37)" stroke="none" font-family="geogebra-sans-serif, sans-serif" font-size="12px" font-style="normal" font-weight="normal" text-decoration="normal" x="67" y="318" text-anchor="start" dominant-baseline="alphabetic" fill-opacity="1">–5</text><text fill="rgb(37,37,37)" stroke="none" font-family="geogebra-sans-serif, sans-serif" font-size="12px" font-style="normal" font-weight="normal" text-decoration="normal" x="128" y="318" text-anchor="start" dominant-baseline="alphabetic" fill-opacity="1">–4</text><text fill="none" stroke="rgb(255,255,255)" font-family="geogebra-sans-serif, sans-serif" font-size="12px" font-style="normal" font-weight="normal" text-decoration="normal" x="128" y="318" text-anchor="start" dominant-baseline="alphabetic" stroke-opacity="1" stroke-linejoin="bevel" stroke-miterlimit="10" stroke-width="3">–4</text><text fill="rgb(37,37,37)" stroke="none" font-family="geogebra-sans-serif, sans-serif" font-size="12px" font-style="normal" font-weight="normal" text-decoration="normal" x="128" y="318" text-anchor="start" dominant-baseline="alphabetic" fill-opacity="1">–4</text><text fill="rgb(37,37,37)" stroke="none" font-family="geogebra-sans-serif, sans-serif" font-size="12px" font-style="normal" font-weight="normal" text-decoration="normal" x="188" y="318" text-anchor="start" dominant-baseline="alphabetic" fill-opacity="1">–3</text><text fill="none" stroke="rgb(255,255,255)" font-family="geogebra-sans-serif, sans-serif" font-size="12px" font-style="normal" font-weight="normal" text-decoration="normal" x="188" y="318" text-anchor="start" dominant-baseline="alphabetic" stroke-opacity="1" stroke-linejoin="bevel" stroke-miterlimit="10" stroke-width="3">–3</text><text fill="rgb(37,37,37)" stroke="none" font-family="geogebra-sans-serif, sans-serif" font-size="12px" font-style="normal" font-weight="normal" text-decoration="normal" x="188" y="318" text-anchor="start" dominant-baseline="alphabetic" fill-opacity="1">–3</text><text fill="rgb(37,37,37)" stroke="none" font-family="geogebra-sans-serif, sans-serif" font-size="12px" font-style="normal" font-weight="normal" text-decoration="normal" x="249" y="318" text-anchor="start" dominant-baseline="alphabetic" fill-opacity="1">–2</text><text fill="none" stroke="rgb(255,255,255)" font-family="geogebra-sans-serif, sans-serif" font-size="12px" font-style="normal" font-weight="normal" text-decoration="normal" x="249" y="318" text-anchor="start" dominant-baseline="alphabetic" stroke-opacity="1" stroke-linejoin="bevel" stroke-miterlimit="10" stroke-width="3">–2</text><text fill="rgb(37,37,37)" stroke="none" font-family="geogebra-sans-serif, sans-serif" font-size="12px" font-style="normal" font-weight="normal" text-decoration="normal" x="249" y="318" text-anchor="start" dominant-baseline="alphabetic" fill-opacity="1">–2</text><text fill="rgb(37,37,37)" stroke="none" font-family="geogebra-sans-serif, sans-serif" font-size="12px" font-style="normal" font-weight="normal" text-decoration="normal" x="309" y="318" text-anchor="start" dominant-baseline="alphabetic" fill-opacity="1">–1</text><text fill="none" stroke="rgb(255,255,255)" font-family="geogebra-sans-serif, sans-serif" font-size="12px" font-style="normal" font-weight="normal" text-decoration="normal" x="309" y="318" text-anchor="start" dominant-baseline="alphabetic" stroke-opacity="1" stroke-linejoin="bevel" stroke-miterlimit="10" stroke-width="3">–1</text><text fill="rgb(37,37,37)" stroke="none" font-family="geogebra-sans-serif, sans-serif" font-size="12px" font-style="normal" font-weight="normal" text-decoration="normal" x="309" y="318" text-anchor="start" dominant-baseline="alphabetic" fill-opacity="1">–1</text><text fill="rgb(37,37,37)" stroke="none" font-family="geogebra-sans-serif, sans-serif" font-size="12px" font-style="normal" font-weight="normal" text-decoration="normal" x="433" y="318" text-anchor="start" dominant-baseline="alphabetic" fill-opacity="1">1</text><text fill="none" stroke="rgb(255,255,255)" font-family="geogebra-sans-serif, sans-serif" font-size="12px" font-style="normal" font-weight="normal" text-decoration="normal" x="433" y="318" text-anchor="start" dominant-baseline="alphabetic" stroke-opacity="1" stroke-linejoin="bevel" stroke-miterlimit="10" stroke-width="3">1</text><text fill="rgb(37,37,37)" stroke="none" font-family="geogebra-sans-serif, sans-serif" font-size="12px" font-style="normal" font-weight="normal" text-decoration="normal" x="433" y="318" text-anchor="start" dominant-baseline="alphabetic" fill-opacity="1">1</text><text fill="rgb(37,37,37)" stroke="none" font-family="geogebra-sans-serif, sans-serif" font-size="12px" font-style="normal" font-weight="normal" text-decoration="normal" x="494" y="318" text-anchor="start" dominant-baseline="alphabetic" fill-opacity="1">2</text><text fill="none" stroke="rgb(255,255,255)" font-family="geogebra-sans-serif, sans-serif" font-size="12px" font-style="normal" font-weight="normal" text-decoration="normal" x="494" y="318" text-anchor="start" dominant-baseline="alphabetic" stroke-opacity="1" stroke-linejoin="bevel" stroke-miterlimit="10" stroke-width="3">2</text><text fill="rgb(37,37,37)" stroke="none" font-family="geogebra-sans-serif, sans-serif" font-size="12px" font-style="normal" font-weight="normal" text-decoration="normal" x="494" y="318" text-anchor="start" dominant-baseline="alphabetic" fill-opacity="1">2</text><text fill="rgb(37,37,37)" stroke="none" font-family="geogebra-sans-serif, sans-serif" font-size="12px" font-style="normal" font-weight="normal" text-decoration="normal" x="554" y="318" text-anchor="start" dominant-baseline="alphabetic" fill-opacity="1">3</text><text fill="none" stroke="rgb(255,255,255)" font-family="geogebra-sans-serif, sans-serif" font-size="12px" font-style="normal" font-weight="normal" text-decoration="normal" x="554" y="318" text-anchor="start" dominant-baseline="alphabetic" stroke-opacity="1" stroke-linejoin="bevel" stroke-miterlimit="10" stroke-width="3">3</text><text fill="rgb(37,37,37)" stroke="none" font-family="geogebra-sans-serif, sans-serif" font-size="12px" font-style="normal" font-weight="normal" text-decoration="normal" x="554" y="318" text-anchor="start" dominant-baseline="alphabetic" fill-opacity="1">3</text><text fill="rgb(37,37,37)" stroke="none" font-family="geogebra-sans-serif, sans-serif" font-size="12px" font-style="normal" font-weight="normal" text-decoration="normal" x="615" y="318" text-anchor="start" dominant-baseline="alphabetic" fill-opacity="1">4</text><text fill="none" stroke="rgb(255,255,255)" font-family="geogebra-sans-serif, sans-serif" font-size="12px" font-style="normal" font-weight="normal" text-decoration="normal" x="615" y="318" text-anchor="start" dominant-baseline="alphabetic" stroke-opacity="1" stroke-linejoin="bevel" stroke-miterlimit="10" stroke-width="3">4</text><text fill="rgb(37,37,37)" stroke="none" font-family="geogebra-sans-serif, sans-serif" font-size="12px" font-style="normal" font-weight="normal" text-decoration="normal" x="615" y="318" text-anchor="start" dominant-baseline="alphabetic" fill-opacity="1">4</text><text fill="rgb(37,37,37)" stroke="none" font-family="geogebra-sans-serif, sans-serif" font-size="12px" font-style="normal" font-weight="normal" text-decoration="normal" x="675" y="318" text-anchor="start" dominant-baseline="alphabetic" fill-opacity="1">5</text><text fill="none" stroke="rgb(255,255,255)" font-family="geogebra-sans-serif, sans-serif" font-size="12px" font-style="normal" font-weight="normal" text-decoration="normal" x="675" y="318" text-anchor="start" dominant-baseline="alphabetic" stroke-opacity="1" stroke-linejoin="bevel" stroke-miterlimit="10" stroke-width="3">5</text><text fill="rgb(37,37,37)" stroke="none" font-family="geogebra-sans-serif, sans-serif" font-size="12px" font-style="normal" font-weight="normal" text-decoration="normal" x="675" y="318" text-anchor="start" dominant-baseline="alphabetic" fill-opacity="1">5</text><text fill="rgb(37,37,37)" stroke="none" font-family="geogebra-sans-serif, sans-serif" font-size="12px" font-style="normal" font-weight="normal" text-decoration="normal" x="736" y="318" text-anchor="start" dominant-baseline="alphabetic" fill-opacity="1">6</text><text fill="none" stroke="rgb(255,255,255)" font-family="geogebra-sans-serif, sans-serif" font-size="12px" font-style="normal" font-weight="normal" text-decoration="normal" x="736" y="318" text-anchor="start" dominant-baseline="alphabetic" stroke-opacity="1" stroke-linejoin="bevel" stroke-miterlimit="10" stroke-width="3">6</text><text fill="rgb(37,37,37)" stroke="none" font-family="geogebra-sans-serif, sans-serif" font-size="12px" font-style="normal" font-weight="normal" text-decoration="normal" x="736" y="318" text-anchor="start" dominant-baseline="alphabetic" fill-opacity="1">6</text><text fill="rgb(37,37,37)" stroke="none" font-family="geogebra-sans-serif, sans-serif" font-size="12px" font-style="normal" font-weight="normal" text-decoration="normal" x="796" y="318" text-anchor="start" dominant-baseline="alphabetic" fill-opacity="1">7</text><text fill="none" stroke="rgb(255,255,255)" font-family="geogebra-sans-serif, sans-serif" font-size="12px" font-style="normal" font-weight="normal" text-decoration="normal" x="796" y="318" text-anchor="start" dominant-baseline="alphabetic" stroke-opacity="1" stroke-linejoin="bevel" stroke-miterlimit="10" stroke-width="3">7</text><text fill="rgb(37,37,37)" stroke="none" font-family="geogebra-sans-serif, sans-serif" font-size="12px" font-style="normal" font-weight="normal" text-decoration="normal" x="796" y="318" text-anchor="start" dominant-baseline="alphabetic" fill-opacity="1">7</text><text fill="rgb(37,37,37)" stroke="none" font-family="geogebra-sans-serif, sans-serif" font-size="12px" font-style="normal" font-weight="normal" text-decoration="normal" x="355" y="549" text-anchor="start" dominant-baseline="alphabetic" fill-opacity="1">–4</text><text fill="none" stroke="rgb(255,255,255)" font-family="geogebra-sans-serif, sans-serif" font-size="12px" font-style="normal" font-weight="normal" text-decoration="normal" x="355" y="549" text-anchor="start" dominant-baseline="alphabetic" stroke-opacity="1" stroke-linejoin="bevel" stroke-miterlimit="10" stroke-width="3">–4</text><text fill="rgb(37,37,37)" stroke="none" font-family="geogebra-sans-serif, sans-serif" font-size="12px" font-style="normal" font-weight="normal" text-decoration="normal" x="355" y="549" text-anchor="start" dominant-baseline="alphabetic" fill-opacity="1">–4</text><text fill="rgb(37,37,37)" stroke="none" font-family="geogebra-sans-serif, sans-serif" font-size="12px" font-style="normal" font-weight="normal" text-decoration="normal" x="355" y="488" text-anchor="start" dominant-baseline="alphabetic" fill-opacity="1">–3</text><text fill="none" stroke="rgb(255,255,255)" font-family="geogebra-sans-serif, sans-serif" font-size="12px" font-style="normal" font-weight="normal" text-decoration="normal" x="355" y="488" text-anchor="start" dominant-baseline="alphabetic" stroke-opacity="1" stroke-linejoin="bevel" stroke-miterlimit="10" stroke-width="3">–3</text><text fill="rgb(37,37,37)" stroke="none" font-family="geogebra-sans-serif, sans-serif" font-size="12px" font-style="normal" font-weight="normal" text-decoration="normal" x="355" y="488" text-anchor="start" dominant-baseline="alphabetic" fill-opacity="1">–3</text><text fill="rgb(37,37,37)" stroke="none" font-family="geogebra-sans-serif, sans-serif" font-size="12px" font-style="normal" font-weight="normal" text-decoration="normal" x="355" y="428" text-anchor="start" dominant-baseline="alphabetic" fill-opacity="1">–2</text><text fill="none" stroke="rgb(255,255,255)" font-family="geogebra-sans-serif, sans-serif" font-size="12px" font-style="normal" font-weight="normal" text-decoration="normal" x="355" y="428" text-anchor="start" dominant-baseline="alphabetic" stroke-opacity="1" stroke-linejoin="bevel" stroke-miterlimit="10" stroke-width="3">–2</text><text fill="rgb(37,37,37)" stroke="none" font-family="geogebra-sans-serif, sans-serif" font-size="12px" font-style="normal" font-weight="normal" text-decoration="normal" x="355" y="428" text-anchor="start" dominant-baseline="alphabetic" fill-opacity="1">–2</text><text fill="rgb(37,37,37)" stroke="none" font-family="geogebra-sans-serif, sans-serif" font-size="12px" font-style="normal" font-weight="normal" text-decoration="normal" x="355" y="367" text-anchor="start" dominant-baseline="alphabetic" fill-opacity="1">–1</text><text fill="none" stroke="rgb(255,255,255)" font-family="geogebra-sans-serif, sans-serif" font-size="12px" font-style="normal" font-weight="normal" text-decoration="normal" x="355" y="367" text-anchor="start" dominant-baseline="alphabetic" stroke-opacity="1" stroke-linejoin="bevel" stroke-miterlimit="10" stroke-width="3">–1</text><text fill="rgb(37,37,37)" stroke="none" font-family="geogebra-sans-serif, sans-serif" font-size="12px" font-style="normal" font-weight="normal" text-decoration="normal" x="355" y="367" text-anchor="start" dominant-baseline="alphabetic" fill-opacity="1">–1</text><text fill="rgb(37,37,37)" stroke="none" font-family="geogebra-sans-serif, sans-serif" font-size="12px" font-style="normal" font-weight="normal" text-decoration="normal" x="361" y="246" text-anchor="start" dominant-baseline="alphabetic" fill-opacity="1">1</text><text fill="none" stroke="rgb(255,255,255)" font-family="geogebra-sans-serif, sans-serif" font-size="12px" font-style="normal" font-weight="normal" text-decoration="normal" x="361" y="246" text-anchor="start" dominant-baseline="alphabetic" stroke-opacity="1" stroke-linejoin="bevel" stroke-miterlimit="10" stroke-width="3">1</text><text fill="rgb(37,37,37)" stroke="none" font-family="geogebra-sans-serif, sans-serif" font-size="12px" font-style="normal" font-weight="normal" text-decoration="normal" x="361" y="246" text-anchor="start" dominant-baseline="alphabetic" fill-opacity="1">1</text><text fill="rgb(37,37,37)" stroke="none" font-family="geogebra-sans-serif, sans-serif" font-size="12px" font-style="normal" font-weight="normal" text-decoration="normal" x="361" y="186" text-anchor="start" dominant-baseline="alphabetic" fill-opacity="1">2</text><text fill="none" stroke="rgb(255,255,255)" font-family="geogebra-sans-serif, sans-serif" font-size="12px" font-style="normal" font-weight="normal" text-decoration="normal" x="361" y="186" text-anchor="start" dominant-baseline="alphabetic" stroke-opacity="1" stroke-linejoin="bevel" stroke-miterlimit="10" stroke-width="3">2</text><text fill="rgb(37,37,37)" stroke="none" font-family="geogebra-sans-serif, sans-serif" font-size="12px" font-style="normal" font-weight="normal" text-decoration="normal" x="361" y="186" text-anchor="start" dominant-baseline="alphabetic" fill-opacity="1">2</text><text fill="rgb(37,37,37)" stroke="none" font-family="geogebra-sans-serif, sans-serif" font-size="12px" font-style="normal" font-weight="normal" text-decoration="normal" x="361" y="125" text-anchor="start" dominant-baseline="alphabetic" fill-opacity="1">3</text><text fill="none" stroke="rgb(255,255,255)" font-family="geogebra-sans-serif, sans-serif" font-size="12px" font-style="normal" font-weight="normal" text-decoration="normal" x="361" y="125" text-anchor="start" dominant-baseline="alphabetic" stroke-opacity="1" stroke-linejoin="bevel" stroke-miterlimit="10" stroke-width="3">3</text><text fill="rgb(37,37,37)" stroke="none" font-family="geogebra-sans-serif, sans-serif" font-size="12px" font-style="normal" font-weight="normal" text-decoration="normal" x="361" y="125" text-anchor="start" dominant-baseline="alphabetic" fill-opacity="1">3</text><text fill="rgb(37,37,37)" stroke="none" font-family="geogebra-sans-serif, sans-serif" font-size="12px" font-style="normal" font-weight="normal" text-decoration="normal" x="361" y="65" text-anchor="start" dominant-baseline="alphabetic" fill-opacity="1">4</text><text fill="none" stroke="rgb(255,255,255)" font-family="geogebra-sans-serif, sans-serif" font-size="12px" font-style="normal" font-weight="normal" text-decoration="normal" x="361" y="65" text-anchor="start" dominant-baseline="alphabetic" stroke-opacity="1" stroke-linejoin="bevel" stroke-miterlimit="10" stroke-width="3">4</text><text fill="rgb(37,37,37)" stroke="none" font-family="geogebra-sans-serif, sans-serif" font-size="12px" font-style="normal" font-weight="normal" text-decoration="normal" x="361" y="65" text-anchor="start" dominant-baseline="alphabetic" fill-opacity="1">4</text><text fill="rgb(37,37,37)" stroke="none" font-family="geogebra-sans-serif, sans-serif" font-size="12px" font-style="normal" font-weight="normal" text-decoration="normal" x="361" y="318" text-anchor="start" dominant-baseline="alphabetic" fill-opacity="1">0</text><text fill="none" stroke="rgb(255,255,255)" font-family="geogebra-sans-serif, sans-serif" font-size="12px" font-style="normal" font-weight="normal" text-decoration="normal" x="361" y="318" text-anchor="start" dominant-baseline="alphabetic" stroke-opacity="1" stroke-linejoin="bevel" stroke-miterlimit="10" stroke-width="3">0</text><text fill="rgb(37,37,37)" stroke="none" font-family="geogebra-sans-serif, sans-serif" font-size="12px" font-style="normal" font-weight="normal" text-decoration="normal" x="361" y="318" text-anchor="start" dominant-baseline="alphabetic" fill-opacity="1">0</text><path fill="none" stroke="rgb(46,125,50)" paint-order="fill stroke markers" d=" M 376 294.64884877140366 L 376 302.2500000000002 L 376 294.6488487714037 L 377 291.37445403669363 L 377 291.37445403669363 L 378 288.8792296407429 L 378 288.8792296407429 L 379 286.78140277853265 L 379 286.78140277853265 L 380 284.9359161374335 L 380 284.9359161374335 L 381 283.2690226805892 L 381 283.2690226805892 L 382 281.7371381811317 L 382 281.7371381811317 L 383 280.3119622573033 L 383 280.3119622573033 L 384 278.9738856335516 L 384 278.9738856335516 L 385 277.7086573309449 L 385 277.70865733094496 L 386 276.5055345753697 L 386 276.5055345753698 L 387 275.3561810075255 L 387 275.3561810075255 L 388 274.2539734962266 L 388 274.25397349622665 L 389 273.1935463278813 L 389 273.1935463278813 L 390 272.1704803894746 L 390 272.1704803894746 L 391 271.1810846665034 L 391 271.1810846665034 L 392 270.2222386046108 L 392 270.2222386046109 L 393 269.2912758135273 L 393 269.29127581352736 L 394 268.3858965865036 L 394 268.38589658650363 L 395 267.5041009614087 L 395 267.5041009614087 L 396 266.6441367187934 L 396 266.6441367187934 L 397 265.80445843453583 L 397 265.80445843453583 L 398 264.9836948437335 L 398 264.9836948437335 L 399 264.1806225425214 L 399 264.18062254252146 L 400 263.39414458540415 L 400 263.3941445854042 L 401 262.6232729083012 L 401 262.6232729083012 L 402 261.86711377328294 L 402 261.86711377328294 L 403 261.12485562335405 L 403 261.12485562335405 L 404 260.3957588767879 L 404 260.39575887678797 L 405 259.6791472953621 L 405 259.6791472953621 L 406 258.9744006396217 L 406 258.9744006396217 L 407 258.28094838411937 L 407 258.28094838411937 L 408 257.59826431145177 L 408 257.59826431145177 L 409 256.9258618394131 L 409 256.9258618394131 L 410 256.2632899632951 L 410 256.26328996329516 L 411 255.6101297171618 L 411 255.61012971716184 L 412 254.9659910752063 L 412 254.9659910752063 L 413 254.33051022809224 L 413 254.33051022809227 L 414 253.7033471802641 L 414 253.7033471802641 L 415 253.08418362317195 L 415 253.08418362317198 L 416 252.47272104664648 L 416 252.47272104664648 L 417 251.8686790566189 L 417 251.86867905661893 L 418 251.27179387228333 L 418 251.27179387228335 L 419 250.68181697984727 L 419 250.68181697984727 L 420 250.09851392337924 L 420 250.09851392337924 L 421 249.52166321606597 L 421 249.521663216066 L 422 248.95105535754044 L 422 248.95105535754044 L 423 248.3864919449172 L 423 248.38649194491722 L 424 247.8277848668398 L 424 247.82778486683983 L 425 247.27475557125763 L 425 247.27475557125763 L 426 246.7272343988525 L 426 246.72723439885252 L 427 246.18505997506134 L 427 246.18505997506136 L 428 245.64807865451945 L 428 245.64807865451945 L 429 245.1161440125037 L 429 245.1161440125037 L 430 244.5891163786058 L 430 244.5891163786058 L 431 244.06686240842654 L 431 244.06686240842657 L 432 243.54925468957003 L 432 243.54925468957003 L 433 243.03617137863853 L 433 243.03617137863853 L 434 242.52749586629872 L 434 242.52749586629875 L 435 242.0231164678101 L 435 242.02311646781013 L 436 241.52292613668953 L 436 241.52292613668956 L 437 241.02682219943196 L 437 241.026822199432 L 438 240.53470610942563 L 438 240.53470610942566 L 439 240.04648321839056 L 439 240.0464832183906 L 440 239.56206256383956 L 440 239.5620625638396 L 441 239.08135667120936 L 441 239.0813566712094 L 442 238.60428136944353 L 442 238.60428136944353 L 443 238.1307556189254 L 443 238.13075561892543 L 444 237.6607013507658 L 444 237.66070135076583 L 445 237.19404331654198 L 445 237.19404331654204 L 446 236.73070894766974 L 446 236.73070894766977 L 447 236.270628223664 L 447 236.27062822366403 L 448 235.81373354861094 L 448 235.81373354861097 L 449 235.35995963523445 L 449 235.35995963523447 L 450 234.9092433959941 L 450 234.9092433959941 L 451 234.46152384070015 L 451 234.46152384070018 L 452 234.01674198017537 L 452 234.0167419801754 L 453 233.5748407355326 L 453 233.57484073553263 L 454 233.13576485267336 L 454 233.1357648526734 L 455 232.6994608216445 L 455 232.69946082164455 L 456 232.26587680052023 L 456 232.2658768005203 L 457 231.8349625435024 L 457 231.8349625435024 L 458 231.40666933295722 L 458 231.40666933295728 L 459 230.98094991512824 L 459 230.98094991512826 L 460 230.55775843928464 L 460 230.55775843928467 L 461 230.13705040008443 L 461 230.1370504000845 L 462 229.71878258294598 L 462 229.718782582946 L 463 229.30291301223906 L 463 229.30291301223912 L 464 228.8894009021194 L 464 228.8894009021194 L 465 228.47820660984337 L 465 228.47820660984337 L 466 228.069291591412 L 466 228.06929159141202 L 467 227.66261835940372 L 467 227.66261835940375 L 468 227.25815044286506 L 468 227.2581504428651 L 469 226.85585234913813 L 469 226.85585234913816 L 470 226.45568952751165 L 470 226.45568952751165 L 471 226.05762833459008 L 471 226.0576283345901 L 472 225.66163600128306 L 472 225.6616360012831 L 473 225.26768060132275 L 473 225.2676806013228 L 474 224.8757310212241 L 474 224.87573102122417 L 475 224.48575693160797 L 475 224.485756931608 L 476 224.09772875981173 L 476 224.0977287598118 L 477 223.71161766371836 L 477 223.71161766371839 L 478 223.3273955067374 L 478 223.32739550673742 L 479 222.94503483387717 L 479 222.94503483387717 L 480 222.5645088488503 L 480 222.56450884885032 L 481 222.18579139215854 L 481 222.18579139215854 L 482 221.8088569201061 L 482 221.80885692010617 L 483 221.43368048469443 L 483 221.4336804846945 L 484 221.06023771435247 L 484 221.06023771435247 L 485 220.68850479546148 L 485 220.68850479546154 L 486 220.31845845463448 L 486 220.3184584546345 L 487 219.9500759417121 L 487 219.95007594171213 L 488 219.58333501344114 L 488 219.58333501344117 L 489 219.21821391780162 L 489 219.21821391780162 L 490 218.85469137895132 L 490 218.85469137895137 L 491 218.49274658275885 L 491 218.49274658275888 L 492 218.13235916289642 L 492 218.13235916289648 L 493 217.7735091874671 L 493 217.77350918746714 L 494 217.41617714614085 L 494 217.4161771461409 L 495 217.0603439377764 L 495 217.0603439377764 L 496 216.7059908585063 L 496 216.70599085850637 L 497 216.3530995902649 L 497 216.35309959026492 L 498 216.00165218973785 L 498 216.00165218973785 L 499 215.65163107771627 L 499 215.65163107771633 L 500 215.303019028836 L 500 215.30301902883605 L 501 214.9557991616857 L 501 214.95579916168572 L 502 214.60995492926793 L 502 214.60995492926793 L 503 214.2654701097974 L 503 214.26547010979743 L 504 213.92232879782262 L 504 213.92232879782267 L 505 213.58051539565625 L 505 213.58051539565628 L 506 213.24001460510203 L 506 213.24001460510203 L 507 212.9008114194653 L 507 212.90081141946536 L 508 212.56289111583564 L 508 212.56289111583567 L 509 212.22623924763002 L 509 212.22623924763002 L 510 211.89084163738602 L 510 211.89084163738605 L 511 211.55668436979516 L 511 211.55668436979522 L 512 211.22375378496622 L 512 211.22375378496628 L 513 210.8920364719093 L 513 210.89203647190934 L 514 210.56151926223254 L 514 210.5615192622326 L 515 210.23218922404234 L 515 210.23218922404237 L 516 209.90403365603913 L 516 209.9040336560392 L 517 209.5770400818019 L 517 209.57704008180195 L 518 209.25119624425295 L 518 209.25119624425298 L 519 208.9264901002971 L 519 208.92649010029712 L 520 208.60290981562775 L 520 208.60290981562775 L 521 208.28044375969444 L 521 208.2804437596945 L 522 207.9590805008247 L 522 207.95908050082477 L 523 207.63880880149563 L 523 207.63880880149566 L 524 207.3196176137484 L 524 207.31961761374845 L 525 207.00149607474168 L 525 207.0014960747417 L 526 206.68443350243797 L 526 206.68443350243803 L 527 206.36841939141829 L 527 206.36841939141834 L 528 206.05344340882078 L 528 206.0534434088208 L 529 205.7394953903983 L 529 205.73949539039833 L 530 205.42656533669162 L 530 205.42656533669165 L 531 205.11464340931286 L 531 205.1146434093129 L 532 204.80371992733663 L 532 204.80371992733666 L 533 204.49378536379413 L 533 204.4937853637942 L 534 204.18483034226705 L 534 204.18483034226708 L 535 203.87684563357772 L 535 203.87684563357774 L 536 203.56982215257236 L 536 203.56982215257239 L 537 203.263750954994 L 537 203.26375095499407 L 538 202.9586232344422 L 538 202.95862323444226 L 539 202.65443031941658 L 539 202.65443031941663 L 540 202.35116367044134 L 540 202.3511636704414 L 541 202.04881487726828 L 541 202.04881487726834 L 542 201.74737565615538 L 542 201.74737565615544 L 543 201.44683784721855 L 543 201.4468378472186 L 544 201.14719341185452 L 544 201.14719341185457 L 545 200.84843443023206 L 545 200.84843443023212 L 546 200.55055309884943 L 546 200.55055309884946 L 547 200.25354172815634 L 547 200.2535417281564 L 548 199.95739274023782 L 548 199.95739274023788 L 549 199.6620986665584 L 549 199.66209866655845 L 550 199.36765214576434 L 550 199.3676521457644 L 551 199.07404592154262 L 551 199.07404592154268 L 552 198.7812728405343 L 552 198.78127284053437 L 553 198.48932585030133 L 553 198.48932585030138 L 554 198.19819799734393 L 554 198.19819799734395 L 555 197.90788242516857 L 555 197.90788242516862 L 556 197.61837237240383 L 556 197.61837237240388 L 557 197.32966117096294 L 557 197.32966117096296 L 558 197.04174224425182 L 558 197.04174224425185 L 559 196.75460910542137 L 559 196.75460910542142 L 560 196.46825535566194 L 560 196.468255355662 L 561 196.18267468253975 L 561 196.1826746825398 L 562 195.89786085837324 L 562 195.89786085837326 L 563 195.6138077386484 L 563 195.61380773864843 L 564 195.33050926047233 L 564 195.33050926047235 L 565 195.04795944106314 L 565 195.0479594410632 L 566 194.7661523762759 L 566 194.76615237627593 L 567 194.4850822391631 L 567 194.48508223916315 L 568 194.20474327856894 L 568 194.20474327856897 L 569 193.92512981775633 L 569 193.92512981775639 L 570 193.64623625306558 L 570 193.64623625306564 L 571 193.36805705260426 L 571 193.3680570526043 L 572 193.09058675496675 L 572 193.0905867549668 L 573 192.81381996798342 L 573 192.81381996798348 L 574 192.53775136749798 L 574 192.537751367498 L 575 192.2623756961723 L 575 192.26237569617237 L 576 191.98768776231861 L 576 191.98768776231867 L 577 191.71368243875708 L 577 191.7136824387571 L 578 191.44035466169947 L 578 191.44035466169953 L 579 191.16769942965738 L 579 191.16769942965743 L 580 190.89571180237402 L 580 190.89571180237408 L 581 190.6243868997803 L 581 190.62438689978035 L 582 190.35371990097286 L 582 190.3537199009729 L 583 190.08370604321482 L 583 190.08370604321487 L 584 189.81434062095806 L 584 189.81434062095812 L 585 189.5456189848862 L 585 189.54561898488626 L 586 189.27753654097853 L 586 189.2775365409786 L 587 189.01008874959348 L 587 189.01008874959354 L 588 188.74327112457192 L 588 188.74327112457195 L 589 188.4770792323589 L 589 188.47707923235896 L 590 188.21150869114436 L 590 188.21150869114442 L 591 187.9465551700215 L 591 187.94655517002153 L 592 187.68221438816258 L 592 187.68221438816263 L 593 187.4184821140122 L 593 187.41848211401222 L 594 187.15535416449669 L 594 187.15535416449674 L 595 186.89282640425026 L 595 186.89282640425031 L 596 186.63089474485656 L 596 186.63089474485662 L 597 186.3695551441058 L 597 186.36955514410585 L 598 186.10880360526698 L 598 186.10880360526704 L 599 185.8486361763749 L 599 185.84863617637495 L 600 185.58904894953093 L 600 185.589048949531 L 601 185.33003806021856 L 601 185.3300380602186 L 602 185.0715996866319 L 602 185.07159968663197 L 603 184.81373004901792 L 603 184.81373004901798 L 604 184.5564254090312 L 604 184.55642540903125 L 605 184.29968206910192 L 605 184.29968206910198 L 606 184.04349637181576 L 606 184.0434963718158 L 607 183.78786469930597 L 607 183.78786469930603 L 608 183.53278347265743 L 608 183.53278347265748 L 609 183.27824915132192 L 609 183.27824915132194 L 610 183.0242582325447 L 610 183.02425823254475 L 611 182.7708072508023 L 611 182.77080725080236 L 612 182.5178927772507 L 612 182.51789277725072 L 613 182.26551141918412 L 613 182.26551141918418 L 614 182.01365981950408 L 614 182.01365981950414 L 615 181.76233465619836 L 615 181.76233465619842 L 616 181.51153264182977 L 616 181.51153264182983 L 617 181.26125052303442 L 617 181.26125052303445 L 618 181.0114850800294 L 618 181.01148508002944 L 619 180.76223312612933 L 619 180.76223312612944 L 620 180.5134915072724 L 620 180.51349150727248 L 621 180.26525710155414 L 621 180.2652571015542 L 622 180.0175268187707 L 622 180.01752681877076 L 623 179.7702975999699 L 623 179.77029759996998 L 624 179.52356641701047 L 624 179.52356641701056 L 625 179.2773302721294 L 625 179.2773302721295 L 626 179.03158619751696 L 626 179.03158619751704 L 627 178.78633125489938 L 627 178.78633125489944 L 628 178.54156253512883 L 628 178.54156253512892 L 629 178.29727715778108 L 629 178.29727715778117 L 630 178.05347227075976 L 630 178.05347227075984 L 631 177.810145049908 L 631 177.81014504990807 L 632 177.56729269862666 L 632 177.56729269862672 L 633 177.3249124474994 L 633 177.32491244749949 L 634 177.0830015539242 L 634 177.0830015539243 L 635 176.84155730175127 L 635 176.84155730175132 L 636 176.60057700092716 L 636 176.60057700092722 L 637 176.36005798714518 L 637 176.3600579871453 L 638 176.1199976215019 L 638 176.11999762150197 L 639 175.88039329015882 L 639 175.8803932901589 L 640 175.64124240401088 L 640 175.64124240401094 L 641 175.40254239835969 L 641 175.40254239835977 L 642 175.16429073259283 L 642 175.16429073259295 L 643 174.92648488986828 L 643 174.92648488986836 L 644 174.6891223768042 L 644 174.68912237680428 L 645 174.4522007231739 L 645 174.45220072317397 L 646 174.21571748160596 L 646 174.21571748160605 L 647 173.97967022728935 L 647 173.97967022728946 L 648 173.74405655768314 L 648 173.74405655768322 L 649 173.50887409223137 L 649 173.50887409223145 L 650 173.2741204720823 L 650 173.27412047208242 L 651 173.03979335981256 L 651 173.03979335981265 L 652 172.8058904391554 L 652 172.8058904391555 L 653 172.57240941473373 L 653 172.5724094147338 L 654 172.33934801179723 L 654 172.33934801179728 L 655 172.10670397596374 L 655 172.10670397596382 L 656 171.87447507296494 L 656 171.87447507296503 L 657 171.64265908839604 L 657 171.64265908839613 L 658 171.4112538274692 L 658 171.4112538274693 L 659 171.1802571147714 L 659 171.18025711477148 L 660 170.9496667940255 L 660 170.94966679402557 L 661 170.71948072785565 L 661 170.71948072785574 L 662 170.48969679755615 L 662 170.48969679755623 L 663 170.26031290286375 L 663 170.2603129028638 L 664 170.03132696173384 L 664 170.0313269617339 L 665 169.80273691011982 L 665 169.8027369101199 L 666 169.57454070175626 L 666 169.57454070175635 L 667 169.3467363079449 L 667 169.34673630794498 L 668 169.11932171734443 L 668 169.11932171734452 L 669 168.89229493576332 L 669 168.89229493576343 L 670 168.6656539859556 L 670 168.6656539859557 L 671 168.43939690742016 L 671 168.43939690742025 L 672 168.21352175620274 L 672 168.21352175620282 L 673 167.98802660470113 L 673 167.98802660470125 L 674 167.7629095414733 L 674 167.7629095414734 L 675 167.53816867104828 L 675 167.53816867104837 L 676 167.31380211373994 L 676 167.31380211374002 L 677 167.08980800546365 L 677 167.08980800546374 L 678 166.8661844975555 L 678 166.86618449755557 L 679 166.6429297565944 L 679 166.64292975659453 L 680 166.4200419642267 L 680 166.42004196422678 L 681 166.1975193169932 L 681 166.1975193169933 L 682 165.97536002615917 L 682 165.97536002615925 L 683 165.75356231754643 L 683 165.7535623175465 L 684 165.53212443136803 L 684 165.53212443136812 L 685 165.3110446220655 L 685 165.3110446220656 L 686 165.09032115814819 L 686 165.09032115814827 L 687 164.869952322035 L 687 164.8699523220351 L 688 164.64993640989866 L 688 164.64993640989874 L 689 164.43027173151177 L 689 164.43027173151185 L 690 164.2109566100955 L 690 164.21095661009562 L 691 163.9919893821702 L 691 163.9919893821703 L 692 163.77336839740818 L 692 163.77336839740826 L 693 163.55509201848855 L 693 163.5550920184886 L 694 163.33715862095423 L 694 163.3371586209543 L 695 163.1195665930709 L 695 163.119566593071 L 696 162.90231433568792 L 696 162.90231433568798 L 697 162.68540026210107 L 697 162.68540026210115 L 698 162.46882279791768 L 698 162.4688227979178 L 699 162.25258038092298 L 699 162.25258038092306 L 700 162.03667146094872 L 700 162.03667146094878 L 701 161.82109449974365 L 701 161.82109449974374 L 702 161.60584797084547 L 702 161.60584797084556 L 703 161.3909303594549 L 703 161.39093035945498 L 704 161.1763401623112 L 704 161.17634016231128 L 705 160.96207588756945 L 705 160.96207588756954 L 706 160.74813605467972 L 706 160.7481360546798 L 707 160.53451919426752 L 707 160.5345191942676 L 708 160.3212238480162 L 708 160.32122384801627 L 709 160.10824856855064 L 709 160.10824856855072 L 710 159.89559191932295 L 710 159.89559191932304 L 711 159.68325247449906 L 711 159.68325247449914 L 712 159.4712288188474 L 712 159.47122881884752 L 713 159.25951954762886 L 713 159.25951954762894 L 714 159.04812326648812 L 714 159.04812326648823 L 715 158.8370385913465 L 715 158.83703859134658 L 716 158.6262641482964 L 716 158.6262641482965 L 717 158.4157985734967 L 717 158.41579857349677 L 718 158.20564051306997 L 718 158.20564051307002 L 719 157.9957886230009 L 719 157.995788623001 L 720 157.78624156903595 L 720 157.78624156903606 L 721 157.57699802658433 L 721 157.57699802658442 L 722 157.36805668062038 L 722 157.36805668062047 L 723 157.1594162255871 L 723 157.1594162255872 L 724 156.95107536530102 L 724 156.9510753653011 L 725 156.7430328128583 L 725 156.7430328128584 L 726 156.53528729054185 L 726 156.53528729054193 L 727 156.3278375297298 L 727 156.3278375297299 L 728 156.12068227080533 L 728 156.12068227080542 L 729 155.91382026306712 L 729 155.9138202630672 L 730 155.70725026464143 L 730 155.70725026464152 L 731 155.5009710423952 L 731 155.50097104239532 L 732 155.29498137184993 L 732 155.29498137185004 L 733 155.0892800370971 L 733 155.08928003709718 L 734 154.88386583071426 L 734 154.88386583071434 L 735 154.67873755368245 L 735 154.67873755368257 L 736 154.47389401530458 L 736 154.4738940153047 L 737 154.2693340331247 L 737 154.26933403312478 L 738 154.06505643284834 L 738 154.06505643284842 L 739 153.86106004826397 L 739 153.86106004826405 L 740 153.65734372116526 L 740 153.65734372116535 L 741 153.45390630127443 L 741 153.4539063012745 L 742 153.2507466461663 L 742 153.2507466461664 L 743 153.04786362119367 L 743 153.04786362119376 L 744 152.8452560994132 L 744 152.8452560994133 L 745 152.64292296151254 L 745 152.64292296151262 L 746 152.44086309573794 L 746 152.44086309573802 L 747 152.23907539782334 L 747 152.23907539782343 L 748 152.03755877091962 L 748 152.0375587709197 L 749 151.83631212552518 L 749 151.8363121255253 L 750 151.63533437941732 L 750 151.6353343794174 L 751 151.43462445758414 L 751 151.43462445758425 L 752 151.2341812921576 L 752 151.23418129215767 L 753 151.03400382234713 L 753 151.03400382234722 L 754 150.83409099437426 L 754 150.83409099437435 L 755 150.63444176140786 L 755 150.6344417614079 L 756 150.4350550835 L 756 150.4350550835001 L 757 150.23592992752305 L 757 150.23592992752313 L 758 150.03706526710704 L 758 150.03706526710712 L 759 149.83846008257797 L 759 149.83846008257805 L 760 149.64011336089683 L 760 149.6401133608969 L 761 149.44202409559924 L 761 149.4420240955993 L 762 149.24419128673603 L 762 149.2441912867361 L 763 149.0466139408142 L 763 149.04661394081427 L 764 148.84929107073876 L 764 148.84929107073887 L 765 148.6522216957552 L 765 148.65222169575532 L 766 148.4554048413927 L 766 148.45540484139278 L 767 148.25883953940757 L 767 148.25883953940766 L 768 148.06252482772823 L 768 148.06252482772828 L 769 147.8664597503998 L 769 147.86645975039988 L 770 147.67064335753003 L 770 147.6706433575301 L 771 147.47507470523553 L 771 147.4750747052356 L 772 147.27975285558867 L 772 147.27975285558878 L 773 147.08467687656523 L 773 147.0846768765653 L 774 146.8898458419923 L 774 146.88984584199235 L 775 146.6952588314971 L 775 146.6952588314972 L 776 146.50091493045642 L 776 146.5009149304565 L 777 146.30681322994607 L 777 146.30681322994616 L 778 146.1129528266916 L 778 146.11295282669172 L 779 145.91933282301926 L 779 145.91933282301935 L 780 145.72595232680723 L 780 145.72595232680732 L 781 145.53281045143794 L 781 145.53281045143805 L 782 145.3399063157506 L 782 145.33990631575068 L 783 145.14723904399415 L 783 145.1472390439942 L 784 144.95480776578094 L 784 144.95480776578106 L 785 144.76261161604106 L 785 144.76261161604117 L 786 144.57064973497663 L 786 144.5706497349767 L 787 144.37892126801717 L 787 144.37892126801725 L 788 144.18742536577508 L 788 144.18742536577517 L 789 143.99616118400186 L 789 143.99616118400192 L 790 143.80512788354454 L 790 143.80512788354463 L 791 143.6143246303029 L 791 143.614324630303 L 792 143.4237505951868 L 792 143.42375059518687 L 793 143.2334049540743 L 793 143.23340495407436 L 794 143.04328688776997 L 794 143.04328688777005 L 795 142.85339558196378 L 795 142.85339558196387 L 796 142.66373022719054 L 796 142.66373022719063 L 797 142.4742900187894 L 797 142.47429001878947 L 798 142.28507415686423 L 798 142.28507415686434 L 799 142.09608184624418 L 799 142.09608184624426 L 800 141.90731229644453 L 800 141.90731229644462 L 801 141.71876472162833 L 801 141.71876472162842 L 802 141.53043834056814 L 802 141.53043834056822 L 803 141.34233237660823 L 803 141.3423323766083 L 804 141.15444605762727 L 804 141.15444605762738 L 805 140.96677861600133 L 805 140.96677861600145 L 806 140.7793292885673 L 806 140.77932928856742 L 807 140.59209731658672 L 807 140.5920973165868 L 808 140.40508194570975 L 808 140.40508194570987 L 809 140.2182824259401 L 809 140.21828242594017 L 810 140.03169801159945 L 810 140.03169801159953 L 811 139.84532796129318 L 811 139.84532796129326 L 812 139.65917153787572 L 812 139.6591715378758 L 813 139.4732280084166 L 813 139.4732280084167 L 814 139.28749664416688 L 814 139.28749664416696 L 815 139.1019767205256 L 815 139.1019767205257 L 816 138.91666751700706 L 816 138.9166675170071 L 817 138.73156831720797 L 817 138.7315683172081 L 818 138.54667840877534 L 818 138.54667840877542 L 819 138.3619970833743 L 819 138.36199708337438 L 820 138.17752363665647 L 820 138.17752363665656 L 821 137.9932573682288 L 821 137.9932573682289 L 822 137.80919758162233 L 822 137.80919758162244 L 823 137.6253435842616 L 823 137.6253435842617 L 824 137.44169468743416 L 824 137.44169468743428 L 825 137.25825020626053 L 825 137.25825020626067 L 826 137.07500945966447 L 826 137.07500945966459 L 827 136.89197177034333 L 827 136.89197177034347 L 828 136.70913646473895 L 828 136.70913646473906 L 829 136.5265028730086 L 829 136.52650287300875 L 830 136.3440703289966 L 830 136.34407032899674 L 831 136.16183817020575 L 831 136.16183817020584 L 832 135.97980573776934 L 832 135.97980573776945 L 833 135.79797237642336 L 833 135.7979723764235 L 834 135.616337434479 L 834 135.6163374344791 L 835 135.43490026379527" stroke-opacity="0.8" stroke-linecap="round" stroke-linejoin="round" stroke-miterlimit="10" stroke-width="2.5"/><text fill="rgb(46,125,50)" stroke="none" font-family="geogebra-sans-serif, sans-serif" font-size="16px" font-style="normal" font-weight="normal" text-decoration="normal" x="376" y="294" text-anchor="start" dominant-baseline="alphabetic" fill-opacity="1">f</text><text fill="none" stroke="rgb(255,255,255)" font-family="geogebra-sans-serif, sans-serif" font-size="16px" font-style="normal" font-weight="normal" text-decoration="normal" x="376" y="294" text-anchor="start" dominant-baseline="alphabetic" stroke-opacity="1" stroke-linejoin="bevel" stroke-miterlimit="10" stroke-width="3">f</text><text fill="rgb(46,125,50)" stroke="none" font-family="geogebra-sans-serif, sans-serif" font-size="16px" font-style="normal" font-weight="normal" text-decoration="normal" x="376" y="294" text-anchor="start" dominant-baseline="alphabetic" fill-opacity="1">f</text></g></g></svg>