<svg version="1.1" xmlns="http://www.w3.org/2000/svg" xmlns:xlink="http://www.w3.org/1999/xlink" width="848" height="588"><defs><clipPath id="kSUzTvIPeZEB"><path fill="none" stroke="none" d=" M 0 0 L 848 0 L 848 588 L 0 588 L 0 0 Z"/></clipPath></defs><g transform="scale(1,1)" clip-path="url(#kSUzTvIPeZEB)"><g><rect fill="rgb(255,255,255)" stroke="none" x="0" y="0" width="848" height="588" fill-opacity="1"/><path fill="none" stroke="rgb(192,192,192)" paint-order="fill stroke markers" d=" M 55.5 0.5 L 55.5 588.5 M 55.5 0.5 L 55.5 588.5 M 134.5 0.5 L 134.5 588.5 M 213.5 0.5 L 213.5 588.5 M 293.5 0.5 L 293.5 588.5 M 451.5 0.5 L 451.5 588.5 M 531.5 0.5 L 531.5 588.5 M 610.5 0.5 L 610.5 588.5 M 689.5 0.5 L 689.5 588.5 M 769.5 0.5 L 769.5 588.5" stroke-opacity="1" stroke-linecap="round" stroke-linejoin="round" stroke-miterlimit="10"/><path fill="none" stroke="rgb(192,192,192)" paint-order="fill stroke markers" d=" M 7.5 0.5 L 7.5 588.5 M 23.5 0.5 L 23.5 588.5 M 39.5 0.5 L 39.5 588.5 M 71.5 0.5 L 71.5 588.5 M 87.5 0.5 L 87.5 588.5 M 102.5 0.5 L 102.5 588.5 M 118.5 0.5 L 118.5 588.5 M 150.5 0.5 L 150.5 588.5 M 166.5 0.5 L 166.5 588.5 M 182.5 0.5 L 182.5 588.5 M 198.5 0.5 L 198.5 588.5 M 229.5 0.5 L 229.5 588.5 M 245.5 0.5 L 245.5 588.5 M 261.5 0.5 L 261.5 588.5 M 277.5 0.5 L 277.5 588.5 M 309.5 0.5 L 309.5 588.5 M 325.5 0.5 L 325.5 588.5 M 340.5 0.5 L 340.5 588.5 M 356.5 0.5 L 356.5 588.5 M 388.5 0.5 L 388.5 588.5 M 404.5 0.5 L 404.5 588.5 M 420.5 0.5 L 420.5 588.5 M 436.5 0.5 L 436.5 588.5 M 467.5 0.5 L 467.5 588.5 M 483.5 0.5 L 483.5 588.5 M 499.5 0.5 L 499.5 588.5 M 515.5 0.5 L 515.5 588.5 M 547.5 0.5 L 547.5 588.5 M 563.5 0.5 L 563.5 588.5 M 578.5 0.5 L 578.5 588.5 M 594.5 0.5 L 594.5 588.5 M 626.5 0.5 L 626.5 588.5 M 642.5 0.5 L 642.5 588.5 M 658.5 0.5 L 658.5 588.5 M 674.5 0.5 L 674.5 588.5 M 705.5 0.5 L 705.5 588.5 M 721.5 0.5 L 721.5 588.5 M 737.5 0.5 L 737.5 588.5 M 753.5 0.5 L 753.5 588.5 M 785.5 0.5 L 785.5 588.5 M 801.5 0.5 L 801.5 588.5 M 816.5 0.5 L 816.5 588.5 M 832.5 0.5 L 832.5 588.5" stroke-opacity="0.23529411764705882" stroke-linecap="round" stroke-linejoin="round" stroke-miterlimit="10"/><path fill="none" stroke="rgb(192,192,192)" paint-order="fill stroke markers" d=" M 0.5 43.5 L 848.5 43.5 M 0.5 43.5 L 848.5 43.5 M 0.5 122.5 L 848.5 122.5 M 0.5 202.5 L 848.5 202.5 M 0.5 360.5 L 848.5 360.5 M 0.5 440.5 L 848.5 440.5 M 0.5 519.5 L 848.5 519.5" stroke-opacity="1" stroke-linecap="round" stroke-linejoin="round" stroke-miterlimit="10"/><path fill="none" stroke="rgb(192,192,192)" paint-order="fill stroke markers" d=" M 0.5 11.5 L 848.5 11.5 M 0.5 11.5 L 848.5 11.5 M 0.5 27.5 L 848.5 27.5 M 0.5 59.5 L 848.5 59.5 M 0.5 75.5 L 848.5 75.5 M 0.5 91.5 L 848.5 91.5 M 0.5 106.5 L 848.5 106.5 M 0.5 138.5 L 848.5 138.5 M 0.5 154.5 L 848.5 154.5 M 0.5 170.5 L 848.5 170.5 M 0.5 186.5 L 848.5 186.5 M 0.5 217.5 L 848.5 217.5 M 0.5 233.5 L 848.5 233.5 M 0.5 249.5 L 848.5 249.5 M 0.5 265.5 L 848.5 265.5 M 0.5 297.5 L 848.5 297.5 M 0.5 313.5 L 848.5 313.5 M 0.5 329.5 L 848.5 329.5 M 0.5 344.5 L 848.5 344.5 M 0.5 376.5 L 848.5 376.5 M 0.5 392.5 L 848.5 392.5 M 0.5 408.5 L 848.5 408.5 M 0.5 424.5 L 848.5 424.5 M 0.5 455.5 L 848.5 455.5 M 0.5 471.5 L 848.5 471.5 M 0.5 487.5 L 848.5 487.5 M 0.5 503.5 L 848.5 503.5 M 0.5 535.5 L 848.5 535.5 M 0.5 551.5 L 848.5 551.5 M 0.5 567.5 L 848.5 567.5 M 0.5 582.5 L 848.5 582.5" stroke-opacity="0.23529411764705882" stroke-linecap="round" stroke-linejoin="round" stroke-miterlimit="10"/><path fill="none" stroke="rgb(37,37,37)" paint-order="fill stroke markers" d=" M 372.5 2.5 L 372.5 588.5" stroke-opacity="1" stroke-miterlimit="10"/><path fill="none" stroke="rgb(37,37,37)" paint-order="fill stroke markers" d=" M 372.5 1.5 L 368.5 5.5" stroke-opacity="1" stroke-miterlimit="10"/><path fill="none" stroke="rgb(37,37,37)" paint-order="fill stroke markers" d=" M 372.5 1.5 L 376.5 5.5" stroke-opacity="1" stroke-miterlimit="10"/><path fill="none" stroke="rgb(37,37,37)" paint-order="fill stroke markers" d=" M 0.5 281.5 L 846.5 281.5" stroke-opacity="1" stroke-miterlimit="10"/><path fill="none" stroke="rgb(37,37,37)" paint-order="fill stroke markers" d=" M 847.5 281.5 L 843.5 277.5" stroke-opacity="1" stroke-miterlimit="10"/><path fill="none" stroke="rgb(37,37,37)" paint-order="fill stroke markers" d=" M 847.5 281.5 L 843.5 285.5" stroke-opacity="1" stroke-miterlimit="10"/><text fill="rgb(37,37,37)" stroke="none" font-family="geogebra-sans-serif, sans-serif" font-size="12px" font-style="normal" font-weight="normal" text-decoration="normal" x="50" y="297" text-anchor="start" dominant-baseline="alphabetic" fill-opacity="1">–8</text><text fill="none" stroke="rgb(255,255,255)" font-family="geogebra-sans-serif, sans-serif" font-size="12px" font-style="normal" font-weight="normal" text-decoration="normal" x="50" y="297" text-anchor="start" dominant-baseline="alphabetic" stroke-opacity="1" stroke-linejoin="bevel" stroke-miterlimit="10" stroke-width="3">–8</text><text fill="rgb(37,37,37)" stroke="none" font-family="geogebra-sans-serif, sans-serif" font-size="12px" font-style="normal" font-weight="normal" text-decoration="normal" x="50" y="297" text-anchor="start" dominant-baseline="alphabetic" fill-opacity="1">–8</text><text fill="rgb(37,37,37)" stroke="none" font-family="geogebra-sans-serif, sans-serif" font-size="12px" font-style="normal" font-weight="normal" text-decoration="normal" x="129" y="297" text-anchor="start" dominant-baseline="alphabetic" fill-opacity="1">–6</text><text fill="none" stroke="rgb(255,255,255)" font-family="geogebra-sans-serif, sans-serif" font-size="12px" font-style="normal" font-weight="normal" text-decoration="normal" x="129" y="297" text-anchor="start" dominant-baseline="alphabetic" stroke-opacity="1" stroke-linejoin="bevel" stroke-miterlimit="10" stroke-width="3">–6</text><text fill="rgb(37,37,37)" stroke="none" font-family="geogebra-sans-serif, sans-serif" font-size="12px" font-style="normal" font-weight="normal" text-decoration="normal" x="129" y="297" text-anchor="start" dominant-baseline="alphabetic" fill-opacity="1">–6</text><text fill="rgb(37,37,37)" stroke="none" font-family="geogebra-sans-serif, sans-serif" font-size="12px" font-style="normal" font-weight="normal" text-decoration="normal" x="208" y="297" text-anchor="start" dominant-baseline="alphabetic" fill-opacity="1">–4</text><text fill="none" stroke="rgb(255,255,255)" font-family="geogebra-sans-serif, sans-serif" font-size="12px" font-style="normal" font-weight="normal" text-decoration="normal" x="208" y="297" text-anchor="start" dominant-baseline="alphabetic" stroke-opacity="1" stroke-linejoin="bevel" stroke-miterlimit="10" stroke-width="3">–4</text><text fill="rgb(37,37,37)" stroke="none" font-family="geogebra-sans-serif, sans-serif" font-size="12px" font-style="normal" font-weight="normal" text-decoration="normal" x="208" y="297" text-anchor="start" dominant-baseline="alphabetic" fill-opacity="1">–4</text><text fill="rgb(37,37,37)" stroke="none" font-family="geogebra-sans-serif, sans-serif" font-size="12px" font-style="normal" font-weight="normal" text-decoration="normal" x="288" y="297" text-anchor="start" dominant-baseline="alphabetic" fill-opacity="1">–2</text><text fill="none" stroke="rgb(255,255,255)" font-family="geogebra-sans-serif, sans-serif" font-size="12px" font-style="normal" font-weight="normal" text-decoration="normal" x="288" y="297" text-anchor="start" dominant-baseline="alphabetic" stroke-opacity="1" stroke-linejoin="bevel" stroke-miterlimit="10" stroke-width="3">–2</text><text fill="rgb(37,37,37)" stroke="none" font-family="geogebra-sans-serif, sans-serif" font-size="12px" font-style="normal" font-weight="normal" text-decoration="normal" x="288" y="297" text-anchor="start" dominant-baseline="alphabetic" fill-opacity="1">–2</text><text fill="rgb(37,37,37)" stroke="none" font-family="geogebra-sans-serif, sans-serif" font-size="12px" font-style="normal" font-weight="normal" text-decoration="normal" x="449" y="297" text-anchor="start" dominant-baseline="alphabetic" fill-opacity="1">2</text><text fill="none" stroke="rgb(255,255,255)" font-family="geogebra-sans-serif, sans-serif" font-size="12px" font-style="normal" font-weight="normal" text-decoration="normal" x="449" y="297" text-anchor="start" dominant-baseline="alphabetic" stroke-opacity="1" stroke-linejoin="bevel" stroke-miterlimit="10" stroke-width="3">2</text><text fill="rgb(37,37,37)" stroke="none" font-family="geogebra-sans-serif, sans-serif" font-size="12px" font-style="normal" font-weight="normal" text-decoration="normal" x="449" y="297" text-anchor="start" dominant-baseline="alphabetic" fill-opacity="1">2</text><text fill="rgb(37,37,37)" stroke="none" font-family="geogebra-sans-serif, sans-serif" font-size="12px" font-style="normal" font-weight="normal" text-decoration="normal" x="529" y="297" text-anchor="start" dominant-baseline="alphabetic" fill-opacity="1">4</text><text fill="none" stroke="rgb(255,255,255)" font-family="geogebra-sans-serif, sans-serif" font-size="12px" font-style="normal" font-weight="normal" text-decoration="normal" x="529" y="297" text-anchor="start" dominant-baseline="alphabetic" stroke-opacity="1" stroke-linejoin="bevel" stroke-miterlimit="10" stroke-width="3">4</text><text fill="rgb(37,37,37)" stroke="none" font-family="geogebra-sans-serif, sans-serif" font-size="12px" font-style="normal" font-weight="normal" text-decoration="normal" x="529" y="297" text-anchor="start" dominant-baseline="alphabetic" fill-opacity="1">4</text><text fill="rgb(37,37,37)" stroke="none" font-family="geogebra-sans-serif, sans-serif" font-size="12px" font-style="normal" font-weight="normal" text-decoration="normal" x="608" y="297" text-anchor="start" dominant-baseline="alphabetic" fill-opacity="1">6</text><text fill="none" stroke="rgb(255,255,255)" font-family="geogebra-sans-serif, sans-serif" font-size="12px" font-style="normal" font-weight="normal" text-decoration="normal" x="608" y="297" text-anchor="start" dominant-baseline="alphabetic" stroke-opacity="1" stroke-linejoin="bevel" stroke-miterlimit="10" stroke-width="3">6</text><text fill="rgb(37,37,37)" stroke="none" font-family="geogebra-sans-serif, sans-serif" font-size="12px" font-style="normal" font-weight="normal" text-decoration="normal" x="608" y="297" text-anchor="start" dominant-baseline="alphabetic" fill-opacity="1">6</text><text fill="rgb(37,37,37)" stroke="none" font-family="geogebra-sans-serif, sans-serif" font-size="12px" font-style="normal" font-weight="normal" text-decoration="normal" x="687" y="297" text-anchor="start" dominant-baseline="alphabetic" fill-opacity="1">8</text><text fill="none" stroke="rgb(255,255,255)" font-family="geogebra-sans-serif, sans-serif" font-size="12px" font-style="normal" font-weight="normal" text-decoration="normal" x="687" y="297" text-anchor="start" dominant-baseline="alphabetic" stroke-opacity="1" stroke-linejoin="bevel" stroke-miterlimit="10" stroke-width="3">8</text><text fill="rgb(37,37,37)" stroke="none" font-family="geogebra-sans-serif, sans-serif" font-size="12px" font-style="normal" font-weight="normal" text-decoration="normal" x="687" y="297" text-anchor="start" dominant-baseline="alphabetic" fill-opacity="1">8</text><text fill="rgb(37,37,37)" stroke="none" font-family="geogebra-sans-serif, sans-serif" font-size="12px" font-style="normal" font-weight="normal" text-decoration="normal" x="764" y="297" text-anchor="start" dominant-baseline="alphabetic" fill-opacity="1">10</text><text fill="none" stroke="rgb(255,255,255)" font-family="geogebra-sans-serif, sans-serif" font-size="12px" font-style="normal" font-weight="normal" text-decoration="normal" x="764" y="297" text-anchor="start" dominant-baseline="alphabetic" stroke-opacity="1" stroke-linejoin="bevel" stroke-miterlimit="10" stroke-width="3">10</text><text fill="rgb(37,37,37)" stroke="none" font-family="geogebra-sans-serif, sans-serif" font-size="12px" font-style="normal" font-weight="normal" text-decoration="normal" x="764" y="297" text-anchor="start" dominant-baseline="alphabetic" fill-opacity="1">10</text><text fill="rgb(37,37,37)" stroke="none" font-family="geogebra-sans-serif, sans-serif" font-size="12px" font-style="normal" font-weight="normal" text-decoration="normal" x="352" y="524" text-anchor="start" dominant-baseline="alphabetic" fill-opacity="1">–6</text><text fill="none" stroke="rgb(255,255,255)" font-family="geogebra-sans-serif, sans-serif" font-size="12px" font-style="normal" font-weight="normal" text-decoration="normal" x="352" y="524" text-anchor="start" dominant-baseline="alphabetic" stroke-opacity="1" stroke-linejoin="bevel" stroke-miterlimit="10" stroke-width="3">–6</text><text fill="rgb(37,37,37)" stroke="none" font-family="geogebra-sans-serif, sans-serif" font-size="12px" font-style="normal" font-weight="normal" text-decoration="normal" x="352" y="524" text-anchor="start" dominant-baseline="alphabetic" fill-opacity="1">–6</text><text fill="rgb(37,37,37)" stroke="none" font-family="geogebra-sans-serif, sans-serif" font-size="12px" font-style="normal" font-weight="normal" text-decoration="normal" x="352" y="445" text-anchor="start" dominant-baseline="alphabetic" fill-opacity="1">–4</text><text fill="none" stroke="rgb(255,255,255)" font-family="geogebra-sans-serif, sans-serif" font-size="12px" font-style="normal" font-weight="normal" text-decoration="normal" x="352" y="445" text-anchor="start" dominant-baseline="alphabetic" stroke-opacity="1" stroke-linejoin="bevel" stroke-miterlimit="10" stroke-width="3">–4</text><text fill="rgb(37,37,37)" stroke="none" font-family="geogebra-sans-serif, sans-serif" font-size="12px" font-style="normal" font-weight="normal" text-decoration="normal" x="352" y="445" text-anchor="start" dominant-baseline="alphabetic" fill-opacity="1">–4</text><text fill="rgb(37,37,37)" stroke="none" font-family="geogebra-sans-serif, sans-serif" font-size="12px" font-style="normal" font-weight="normal" text-decoration="normal" x="352" y="365" text-anchor="start" dominant-baseline="alphabetic" fill-opacity="1">–2</text><text fill="none" stroke="rgb(255,255,255)" font-family="geogebra-sans-serif, sans-serif" font-size="12px" font-style="normal" font-weight="normal" text-decoration="normal" x="352" y="365" text-anchor="start" dominant-baseline="alphabetic" stroke-opacity="1" stroke-linejoin="bevel" stroke-miterlimit="10" stroke-width="3">–2</text><text fill="rgb(37,37,37)" stroke="none" font-family="geogebra-sans-serif, sans-serif" font-size="12px" font-style="normal" font-weight="normal" text-decoration="normal" x="352" y="365" text-anchor="start" dominant-baseline="alphabetic" fill-opacity="1">–2</text><text fill="rgb(37,37,37)" stroke="none" font-family="geogebra-sans-serif, sans-serif" font-size="12px" font-style="normal" font-weight="normal" text-decoration="normal" x="358" y="207" text-anchor="start" dominant-baseline="alphabetic" fill-opacity="1">2</text><text fill="none" stroke="rgb(255,255,255)" font-family="geogebra-sans-serif, sans-serif" font-size="12px" font-style="normal" font-weight="normal" text-decoration="normal" x="358" y="207" text-anchor="start" dominant-baseline="alphabetic" stroke-opacity="1" stroke-linejoin="bevel" stroke-miterlimit="10" stroke-width="3">2</text><text fill="rgb(37,37,37)" stroke="none" font-family="geogebra-sans-serif, sans-serif" font-size="12px" font-style="normal" font-weight="normal" text-decoration="normal" x="358" y="207" text-anchor="start" dominant-baseline="alphabetic" fill-opacity="1">2</text><text fill="rgb(37,37,37)" stroke="none" font-family="geogebra-sans-serif, sans-serif" font-size="12px" font-style="normal" font-weight="normal" text-decoration="normal" x="358" y="127" text-anchor="start" dominant-baseline="alphabetic" fill-opacity="1">4</text><text fill="none" stroke="rgb(255,255,255)" font-family="geogebra-sans-serif, sans-serif" font-size="12px" font-style="normal" font-weight="normal" text-decoration="normal" x="358" y="127" text-anchor="start" dominant-baseline="alphabetic" stroke-opacity="1" stroke-linejoin="bevel" stroke-miterlimit="10" stroke-width="3">4</text><text fill="rgb(37,37,37)" stroke="none" font-family="geogebra-sans-serif, sans-serif" font-size="12px" font-style="normal" font-weight="normal" text-decoration="normal" x="358" y="127" text-anchor="start" dominant-baseline="alphabetic" fill-opacity="1">4</text><text fill="rgb(37,37,37)" stroke="none" font-family="geogebra-sans-serif, sans-serif" font-size="12px" font-style="normal" font-weight="normal" text-decoration="normal" x="358" y="48" text-anchor="start" dominant-baseline="alphabetic" fill-opacity="1">6</text><text fill="none" stroke="rgb(255,255,255)" font-family="geogebra-sans-serif, sans-serif" font-size="12px" font-style="normal" font-weight="normal" text-decoration="normal" x="358" y="48" text-anchor="start" dominant-baseline="alphabetic" stroke-opacity="1" stroke-linejoin="bevel" stroke-miterlimit="10" stroke-width="3">6</text><text fill="rgb(37,37,37)" stroke="none" font-family="geogebra-sans-serif, sans-serif" font-size="12px" font-style="normal" font-weight="normal" text-decoration="normal" x="358" y="48" text-anchor="start" dominant-baseline="alphabetic" fill-opacity="1">6</text><text fill="rgb(37,37,37)" stroke="none" font-family="geogebra-sans-serif, sans-serif" font-size="12px" font-style="normal" font-weight="normal" text-decoration="normal" x="358" y="297" text-anchor="start" dominant-baseline="alphabetic" fill-opacity="1">0</text><text fill="none" stroke="rgb(255,255,255)" font-family="geogebra-sans-serif, sans-serif" font-size="12px" font-style="normal" font-weight="normal" text-decoration="normal" x="358" y="297" text-anchor="start" dominant-baseline="alphabetic" stroke-opacity="1" stroke-linejoin="bevel" stroke-miterlimit="10" stroke-width="3">0</text><text fill="rgb(37,37,37)" stroke="none" font-family="geogebra-sans-serif, sans-serif" font-size="12px" font-style="normal" font-weight="normal" text-decoration="normal" x="358" y="297" text-anchor="start" dominant-baseline="alphabetic" fill-opacity="1">0</text><path fill="none" stroke="rgb(46,125,50)" paint-order="fill stroke markers" d=" M 94.97558593750006 559.1361963377169 L 95.02734375 559.1361963377169 L 96.0625 559.1361963377169 L 99.375 559.1361963377169 L 102.6875 559.1361963377169 L 106 559.1361963377169 L 109.31250000000006 559.1361963377169 L 112.62500000000006 559.1361963377169 L 115.9375 559.1361963377169 L 119.25000000000003 559.1361963377169 L 122.5625 559.1361963377169 L 125.87500000000003 559.1361963377169 L 129.18750000000003 559.1361963377169 L 132.50000000000003 559.1361963377169 L 134.15625 559.1361963377169 M 134.62207031250003 519.4676350265233 L 134.67382812500003 519.4676350265233 L 135.8125 519.4676350265233 L 139.12500000000003 519.4676350265233 L 142.4375 519.4676350265233 L 145.75 519.4676350265233 L 149.06250000000003 519.4676350265233 L 152.37500000000003 519.4676350265233 L 155.68750000000003 519.4676350265233 L 159.00000000000003 519.4676350265233 L 162.31250000000003 519.4676350265233 L 165.625 519.4676350265233 L 168.93750000000003 519.4676350265233 L 172.25000000000003 519.4676350265233 L 173.90625000000003 519.4676350265233 M 174.32031250000003 479.79907371532977 L 174.37207031250003 479.79907371532977 L 175.5625 479.79907371532977 L 178.875 479.79907371532977 L 182.18750000000003 479.79907371532977 L 185.5 479.79907371532977 L 188.8125 479.79907371532977 L 192.12500000000003 479.79907371532977 L 195.43750000000003 479.79907371532977 L 198.75 479.79907371532977 L 202.06250000000003 479.79907371532977 L 205.37500000000003 479.79907371532977 L 208.6875 479.79907371532977 L 212 479.79907371532977 L 213.65625000000003 479.79907371532977 M 213.96679687500003 440.1305124041362 L 214.01855468750003 440.1305124041362 L 215.31250000000003 440.1305124041362 L 218.625 440.1305124041362 L 221.9375 440.1305124041362 L 225.25000000000003 440.1305124041362 L 228.5625 440.1305124041362 L 231.875 440.1305124041362 L 235.18750000000003 440.1305124041362 L 238.50000000000003 440.1305124041362 L 241.8125 440.1305124041362 L 245.125 440.1305124041362 L 248.43750000000003 440.1305124041362 L 251.75 440.1305124041362 L 253.40625 440.1305124041362 M 253.6650390625 400.4619510929426 L 253.716796875 400.4619510929426 L 254.23437500000003 400.4619510929426 L 255.0625 400.4619510929426 L 258.375 400.4619510929426 L 261.6875 400.4619510929426 L 265 400.4619510929426 L 268.3125 400.4619510929426 L 271.625 400.4619510929426 L 274.9375 400.4619510929426 L 278.25 400.4619510929426 L 281.5625 400.4619510929426 L 284.875 400.4619510929426 L 288.1875 400.4619510929426 L 291.5 400.4619510929426 L 293.15625 400.4619510929426 M 293.3115234375 360.793389781749 L 293.36328125 360.793389781749 L 293.984375 360.793389781749 L 294.8125 360.793389781749 L 298.125 360.793389781749 L 301.4375 360.793389781749 L 304.75 360.793389781749 L 308.0625 360.793389781749 L 311.375 360.793389781749 L 314.6875 360.793389781749 L 318 360.793389781749 L 321.3125 360.793389781749 L 324.625 360.793389781749 L 327.93750000000006 360.793389781749 L 331.25 360.793389781749 L 332.90625 360.793389781749 M 332.9580078125 321.1248284705554 L 333.009765625 321.1248284705554 L 333.734375 321.1248284705554 L 334.5625 321.1248284705554 L 337.875 321.1248284705554 L 341.1875 321.1248284705554 L 344.5 321.1248284705554 L 347.81250000000006 321.1248284705554 L 351.125 321.1248284705554 L 354.4375 321.1248284705554 L 357.75 321.1248284705554 L 361.0625 321.1248284705554 L 364.375 321.1248284705554 L 367.6875 321.1248284705554 L 370.99999999999994 321.1248284705554 L 371.828125 321.1248284705554 L 372.44921875000006 321.1248284705554 M 372.65625 281.45626715936186 L 372.7080078125 281.45626715936186 L 373.484375 281.45626715936186 L 374.3125 281.45626715936186 L 377.625 281.45626715936186 L 380.9375 281.45626715936186 L 384.25 281.45626715936186 L 387.5625 281.45626715936186 L 390.87500000000006 281.45626715936186 L 394.1875 281.45626715936186 L 397.5 281.45626715936186 L 400.8125 281.45626715936186 L 404.125 281.45626715936186 L 407.4375 281.45626715936186 L 410.75 281.45626715936186 L 411.578125 281.45626715936186 L 412.19921875 281.45626715936186 M 412.302734375 241.7877058481683 L 412.3544921875 241.7877058481683 L 414.0625 241.7877058481683 L 417.375 241.7877058481683 L 420.6875 241.7877058481683 L 424 241.7877058481683 L 427.3125 241.7877058481683 L 430.625 241.7877058481683 L 433.93750000000006 241.7877058481683 L 437.25 241.7877058481683 L 440.5625 241.7877058481683 L 443.875 241.7877058481683 L 447.1875 241.7877058481683 L 450.5 241.7877058481683 L 451.328125 241.7877058481683 L 451.94921875 241.7877058481683 M 452.0009765625 202.11914453697472 L 452.052734375 202.11914453697472 L 453.8125 202.11914453697472 L 457.125 202.11914453697472 L 460.4375 202.11914453697472 L 463.75 202.11914453697472 L 467.0625 202.11914453697472 L 470.375 202.11914453697472 L 473.6875 202.11914453697472 L 477 202.11914453697472 L 480.3125 202.11914453697472 L 483.625 202.11914453697472 L 486.9375 202.11914453697472 L 490.25 202.11914453697472 L 491.078125 202.11914453697472 L 491.595703125 202.11914453697472 M 491.6474609375 162.45058322578112 L 491.69921875 162.45058322578112 L 493.5625 162.45058322578112 L 496.875 162.45058322578112 L 500.1875 162.45058322578112 L 503.5 162.45058322578112 L 506.8125 162.45058322578112 L 510.125 162.45058322578112 L 513.4375 162.45058322578112 L 516.75 162.45058322578112 L 520.0625 162.45058322578112 L 523.375 162.45058322578112 L 526.6875 162.45058322578112 L 530 162.45058322578112 L 530.828125 162.45058322578112 M 531.345703125 122.78202191458755 L 531.3974609375 122.78202191458755 L 533.3125 122.78202191458755 L 536.625 122.78202191458755 L 539.9375 122.78202191458755 L 543.25 122.78202191458755 L 546.5625 122.78202191458755 L 549.875 122.78202191458755 L 553.1875 122.78202191458755 L 556.5 122.78202191458755 L 559.8125 122.78202191458755 L 563.125 122.78202191458755 L 566.4375 122.78202191458755 L 569.75 122.78202191458755 L 570.578125 122.78202191458755 M 570.9921875 83.11346060339397 L 571.0439453125 83.11346060339397 L 573.0625 83.11346060339397 L 576.375 83.11346060339397 L 579.6875 83.11346060339397 L 583 83.11346060339397 L 586.3125 83.11346060339397 L 589.625 83.11346060339397 L 592.9375 83.11346060339397 L 596.25 83.11346060339397 L 599.5625 83.11346060339397 L 602.875 83.11346060339397 L 606.1875 83.11346060339397 L 609.5 83.11346060339397 L 610.328125 83.11346060339397 M 610.638671875 43.444899292200375 L 610.6904296875 43.444899292200375 L 612.8125 43.444899292200375 L 616.125 43.444899292200375 L 619.4375 43.444899292200375 L 622.75 43.444899292200375 L 626.0625 43.444899292200375 L 629.375 43.444899292200375 L 632.6875 43.444899292200375 L 636 43.444899292200375 L 639.3125 43.444899292200375 L 642.625 43.444899292200375 L 645.9375 43.444899292200375 L 649.25 43.444899292200375 L 650.078125 43.444899292200375 M 650.3369140625 3.7763379810068045 L 650.388671875 3.7763379810068045 L 650.90625 3.7763379810068045 L 652.5625 3.7763379810068045 L 655.875 3.7763379810068045 L 659.1875 3.7763379810068045 L 662.5 3.7763379810068045 L 665.8125 3.7763379810068045 L 669.125 3.7763379810068045 L 672.4375 3.7763379810068045 L 675.75 3.7763379810068045 L 679.0625 3.7763379810068045 L 682.375 3.7763379810068045 L 685.6875 3.7763379810068045 L 689 3.7763379810068045 L 689.828125 3.7763379810068045" stroke-opacity="0.8" stroke-linecap="round" stroke-linejoin="round" stroke-miterlimit="10" stroke-width="2.5"/><text fill="rgb(46,125,50)" stroke="none" font-family="geogebra-sans-serif, sans-serif" font-size="16px" font-style="normal" font-weight="normal" text-decoration="normal" x="94" y="559" text-anchor="start" dominant-baseline="alphabetic" fill-opacity="1">f</text><text fill="none" stroke="rgb(255,255,255)" font-family="geogebra-sans-serif, sans-serif" font-size="16px" font-style="normal" font-weight="normal" text-decoration="normal" x="94" y="559" text-anchor="start" dominant-baseline="alphabetic" stroke-opacity="1" stroke-linejoin="bevel" stroke-miterlimit="10" stroke-width="3">f</text><text fill="rgb(46,125,50)" stroke="none" font-family="geogebra-sans-serif, sans-serif" font-size="16px" font-style="normal" font-weight="normal" text-decoration="normal" x="94" y="559" text-anchor="start" dominant-baseline="alphabetic" fill-opacity="1">f</text></g></g></svg>