<svg version="1.1" xmlns="http://www.w3.org/2000/svg" xmlns:xlink="http://www.w3.org/1999/xlink" width="852" height="588"><defs><clipPath id="WTetFOWJOtTw"><path fill="none" stroke="none" d=" M 0 0 L 852 0 L 852 588 L 0 588 L 0 0 Z"/></clipPath></defs><g transform="scale(1,1)" clip-path="url(#WTetFOWJOtTw)"><g><rect fill="rgb(255,255,255)" stroke="none" x="0" y="0" width="852" height="588" fill-opacity="1"/><path fill="none" stroke="rgb(192,192,192)" paint-order="fill stroke markers" d=" M 15.5 0.5 L 15.5 588.5 M 15.5 0.5 L 15.5 588.5 M 74.5 0.5 L 74.5 588.5 M 132.5 0.5 L 132.5 588.5 M 190.5 0.5 L 190.5 588.5 M 249.5 0.5 L 249.5 588.5 M 307.5 0.5 L 307.5 588.5 M 424.5 0.5 L 424.5 588.5 M 482.5 0.5 L 482.5 588.5 M 540.5 0.5 L 540.5 588.5 M 598.5 0.5 L 598.5 588.5 M 657.5 0.5 L 657.5 588.5 M 715.5 0.5 L 715.5 588.5 M 773.5 0.5 L 773.5 588.5 M 832.5 0.5 L 832.5 588.5" stroke-opacity="1" stroke-linecap="round" stroke-linejoin="round" stroke-miterlimit="10"/><path fill="none" stroke="rgb(192,192,192)" paint-order="fill stroke markers" d=" M 4.5 0.5 L 4.5 588.5 M 27.5 0.5 L 27.5 588.5 M 39.5 0.5 L 39.5 588.5 M 50.5 0.5 L 50.5 588.5 M 62.5 0.5 L 62.5 588.5 M 85.5 0.5 L 85.5 588.5 M 97.5 0.5 L 97.5 588.5 M 109.5 0.5 L 109.5 588.5 M 120.5 0.5 L 120.5 588.5 M 144.5 0.5 L 144.5 588.5 M 155.5 0.5 L 155.5 588.5 M 167.5 0.5 L 167.5 588.5 M 179.5 0.5 L 179.5 588.5 M 202.5 0.5 L 202.5 588.5 M 214.5 0.5 L 214.5 588.5 M 225.5 0.5 L 225.5 588.5 M 237.5 0.5 L 237.5 588.5 M 260.5 0.5 L 260.5 588.5 M 272.5 0.5 L 272.5 588.5 M 284.5 0.5 L 284.5 588.5 M 295.5 0.5 L 295.5 588.5 M 319.5 0.5 L 319.5 588.5 M 330.5 0.5 L 330.5 588.5 M 342.5 0.5 L 342.5 588.5 M 354.5 0.5 L 354.5 588.5 M 377.5 0.5 L 377.5 588.5 M 389.5 0.5 L 389.5 588.5 M 400.5 0.5 L 400.5 588.5 M 412.5 0.5 L 412.5 588.5 M 435.5 0.5 L 435.5 588.5 M 447.5 0.5 L 447.5 588.5 M 459.5 0.5 L 459.5 588.5 M 470.5 0.5 L 470.5 588.5 M 494.5 0.5 L 494.5 588.5 M 505.5 0.5 L 505.5 588.5 M 517.5 0.5 L 517.5 588.5 M 529.5 0.5 L 529.5 588.5 M 552.5 0.5 L 552.5 588.5 M 563.5 0.5 L 563.5 588.5 M 575.5 0.5 L 575.5 588.5 M 587.5 0.5 L 587.5 588.5 M 610.5 0.5 L 610.5 588.5 M 622.5 0.5 L 622.5 588.5 M 633.5 0.5 L 633.5 588.5 M 645.5 0.5 L 645.5 588.5 M 668.5 0.5 L 668.5 588.5 M 680.5 0.5 L 680.5 588.5 M 692.5 0.5 L 692.5 588.5 M 703.5 0.5 L 703.5 588.5 M 727.5 0.5 L 727.5 588.5 M 738.5 0.5 L 738.5 588.5 M 750.5 0.5 L 750.5 588.5 M 762.5 0.5 L 762.5 588.5 M 785.5 0.5 L 785.5 588.5 M 797.5 0.5 L 797.5 588.5 M 808.5 0.5 L 808.5 588.5 M 820.5 0.5 L 820.5 588.5 M 843.5 0.5 L 843.5 588.5" stroke-opacity="0.23529411764705882" stroke-linecap="round" stroke-linejoin="round" stroke-miterlimit="10"/><path fill="none" stroke="rgb(192,192,192)" paint-order="fill stroke markers" d=" M 0.5 54.5 L 852.5 54.5 M 0.5 54.5 L 852.5 54.5 M 0.5 112.5 L 852.5 112.5 M 0.5 171.5 L 852.5 171.5 M 0.5 229.5 L 852.5 229.5 M 0.5 346.5 L 852.5 346.5 M 0.5 404.5 L 852.5 404.5 M 0.5 462.5 L 852.5 462.5 M 0.5 520.5 L 852.5 520.5 M 0.5 579.5 L 852.5 579.5" stroke-opacity="1" stroke-linecap="round" stroke-linejoin="round" stroke-miterlimit="10"/><path fill="none" stroke="rgb(192,192,192)" paint-order="fill stroke markers" d=" M 0.5 7.5 L 852.5 7.5 M 0.5 19.5 L 852.5 19.5 M 0.5 31.5 L 852.5 31.5 M 0.5 42.5 L 852.5 42.5 M 0.5 66.5 L 852.5 66.5 M 0.5 77.5 L 852.5 77.5 M 0.5 89.5 L 852.5 89.5 M 0.5 101.5 L 852.5 101.5 M 0.5 124.5 L 852.5 124.5 M 0.5 136.5 L 852.5 136.5 M 0.5 147.5 L 852.5 147.5 M 0.5 159.5 L 852.5 159.5 M 0.5 182.5 L 852.5 182.5 M 0.5 194.5 L 852.5 194.5 M 0.5 206.5 L 852.5 206.5 M 0.5 217.5 L 852.5 217.5 M 0.5 241.5 L 852.5 241.5 M 0.5 252.5 L 852.5 252.5 M 0.5 264.5 L 852.5 264.5 M 0.5 276.5 L 852.5 276.5 M 0.5 299.5 L 852.5 299.5 M 0.5 311.5 L 852.5 311.5 M 0.5 322.5 L 852.5 322.5 M 0.5 334.5 L 852.5 334.5 M 0.5 357.5 L 852.5 357.5 M 0.5 369.5 L 852.5 369.5 M 0.5 381.5 L 852.5 381.5 M 0.5 392.5 L 852.5 392.5 M 0.5 416.5 L 852.5 416.5 M 0.5 427.5 L 852.5 427.5 M 0.5 439.5 L 852.5 439.5 M 0.5 451.5 L 852.5 451.5 M 0.5 474.5 L 852.5 474.5 M 0.5 486.5 L 852.5 486.5 M 0.5 497.5 L 852.5 497.5 M 0.5 509.5 L 852.5 509.5 M 0.5 532.5 L 852.5 532.5 M 0.5 544.5 L 852.5 544.5 M 0.5 555.5 L 852.5 555.5 M 0.5 567.5 L 852.5 567.5" stroke-opacity="0.23529411764705882" stroke-linecap="round" stroke-linejoin="round" stroke-miterlimit="10"/><path fill="none" stroke="rgb(37,37,37)" paint-order="fill stroke markers" d=" M 365.5 2.5 L 365.5 588.5" stroke-opacity="1" stroke-miterlimit="10"/><path fill="none" stroke="rgb(37,37,37)" paint-order="fill stroke markers" d=" M 365.5 1.5 L 361.5 5.5" stroke-opacity="1" stroke-miterlimit="10"/><path fill="none" stroke="rgb(37,37,37)" paint-order="fill stroke markers" d=" M 365.5 1.5 L 369.5 5.5" stroke-opacity="1" stroke-miterlimit="10"/><path fill="none" stroke="rgb(37,37,37)" paint-order="fill stroke markers" d=" M 0.5 287.5 L 850.5 287.5" stroke-opacity="1" stroke-miterlimit="10"/><path fill="none" stroke="rgb(37,37,37)" paint-order="fill stroke markers" d=" M 851.5 287.5 L 847.5 283.5" stroke-opacity="1" stroke-miterlimit="10"/><path fill="none" stroke="rgb(37,37,37)" paint-order="fill stroke markers" d=" M 851.5 287.5 L 847.5 291.5" stroke-opacity="1" stroke-miterlimit="10"/><text fill="rgb(37,37,37)" stroke="none" font-family="geogebra-sans-serif, sans-serif" font-size="12px" font-style="normal" font-weight="normal" text-decoration="normal" x="10" y="303" text-anchor="start" dominant-baseline="alphabetic" fill-opacity="1">–6</text><text fill="none" stroke="rgb(255,255,255)" font-family="geogebra-sans-serif, sans-serif" font-size="12px" font-style="normal" font-weight="normal" text-decoration="normal" x="10" y="303" text-anchor="start" dominant-baseline="alphabetic" stroke-opacity="1" stroke-linejoin="bevel" stroke-miterlimit="10" stroke-width="3">–6</text><text fill="rgb(37,37,37)" stroke="none" font-family="geogebra-sans-serif, sans-serif" font-size="12px" font-style="normal" font-weight="normal" text-decoration="normal" x="10" y="303" text-anchor="start" dominant-baseline="alphabetic" fill-opacity="1">–6</text><text fill="rgb(37,37,37)" stroke="none" font-family="geogebra-sans-serif, sans-serif" font-size="12px" font-style="normal" font-weight="normal" text-decoration="normal" x="69" y="303" text-anchor="start" dominant-baseline="alphabetic" fill-opacity="1">–5</text><text fill="none" stroke="rgb(255,255,255)" font-family="geogebra-sans-serif, sans-serif" font-size="12px" font-style="normal" font-weight="normal" text-decoration="normal" x="69" y="303" text-anchor="start" dominant-baseline="alphabetic" stroke-opacity="1" stroke-linejoin="bevel" stroke-miterlimit="10" stroke-width="3">–5</text><text fill="rgb(37,37,37)" stroke="none" font-family="geogebra-sans-serif, sans-serif" font-size="12px" font-style="normal" font-weight="normal" text-decoration="normal" x="69" y="303" text-anchor="start" dominant-baseline="alphabetic" fill-opacity="1">–5</text><text fill="rgb(37,37,37)" stroke="none" font-family="geogebra-sans-serif, sans-serif" font-size="12px" font-style="normal" font-weight="normal" text-decoration="normal" x="127" y="303" text-anchor="start" dominant-baseline="alphabetic" fill-opacity="1">–4</text><text fill="none" stroke="rgb(255,255,255)" font-family="geogebra-sans-serif, sans-serif" font-size="12px" font-style="normal" font-weight="normal" text-decoration="normal" x="127" y="303" text-anchor="start" dominant-baseline="alphabetic" stroke-opacity="1" stroke-linejoin="bevel" stroke-miterlimit="10" stroke-width="3">–4</text><text fill="rgb(37,37,37)" stroke="none" font-family="geogebra-sans-serif, sans-serif" font-size="12px" font-style="normal" font-weight="normal" text-decoration="normal" x="127" y="303" text-anchor="start" dominant-baseline="alphabetic" fill-opacity="1">–4</text><text fill="rgb(37,37,37)" stroke="none" font-family="geogebra-sans-serif, sans-serif" font-size="12px" font-style="normal" font-weight="normal" text-decoration="normal" x="185" y="303" text-anchor="start" dominant-baseline="alphabetic" fill-opacity="1">–3</text><text fill="none" stroke="rgb(255,255,255)" font-family="geogebra-sans-serif, sans-serif" font-size="12px" font-style="normal" font-weight="normal" text-decoration="normal" x="185" y="303" text-anchor="start" dominant-baseline="alphabetic" stroke-opacity="1" stroke-linejoin="bevel" stroke-miterlimit="10" stroke-width="3">–3</text><text fill="rgb(37,37,37)" stroke="none" font-family="geogebra-sans-serif, sans-serif" font-size="12px" font-style="normal" font-weight="normal" text-decoration="normal" x="185" y="303" text-anchor="start" dominant-baseline="alphabetic" fill-opacity="1">–3</text><text fill="rgb(37,37,37)" stroke="none" font-family="geogebra-sans-serif, sans-serif" font-size="12px" font-style="normal" font-weight="normal" text-decoration="normal" x="244" y="303" text-anchor="start" dominant-baseline="alphabetic" fill-opacity="1">–2</text><text fill="none" stroke="rgb(255,255,255)" font-family="geogebra-sans-serif, sans-serif" font-size="12px" font-style="normal" font-weight="normal" text-decoration="normal" x="244" y="303" text-anchor="start" dominant-baseline="alphabetic" stroke-opacity="1" stroke-linejoin="bevel" stroke-miterlimit="10" stroke-width="3">–2</text><text fill="rgb(37,37,37)" stroke="none" font-family="geogebra-sans-serif, sans-serif" font-size="12px" font-style="normal" font-weight="normal" text-decoration="normal" x="244" y="303" text-anchor="start" dominant-baseline="alphabetic" fill-opacity="1">–2</text><text fill="rgb(37,37,37)" stroke="none" font-family="geogebra-sans-serif, sans-serif" font-size="12px" font-style="normal" font-weight="normal" text-decoration="normal" x="302" y="303" text-anchor="start" dominant-baseline="alphabetic" fill-opacity="1">–1</text><text fill="none" stroke="rgb(255,255,255)" font-family="geogebra-sans-serif, sans-serif" font-size="12px" font-style="normal" font-weight="normal" text-decoration="normal" x="302" y="303" text-anchor="start" dominant-baseline="alphabetic" stroke-opacity="1" stroke-linejoin="bevel" stroke-miterlimit="10" stroke-width="3">–1</text><text fill="rgb(37,37,37)" stroke="none" font-family="geogebra-sans-serif, sans-serif" font-size="12px" font-style="normal" font-weight="normal" text-decoration="normal" x="302" y="303" text-anchor="start" dominant-baseline="alphabetic" fill-opacity="1">–1</text><text fill="rgb(37,37,37)" stroke="none" font-family="geogebra-sans-serif, sans-serif" font-size="12px" font-style="normal" font-weight="normal" text-decoration="normal" x="422" y="303" text-anchor="start" dominant-baseline="alphabetic" fill-opacity="1">1</text><text fill="none" stroke="rgb(255,255,255)" font-family="geogebra-sans-serif, sans-serif" font-size="12px" font-style="normal" font-weight="normal" text-decoration="normal" x="422" y="303" text-anchor="start" dominant-baseline="alphabetic" stroke-opacity="1" stroke-linejoin="bevel" stroke-miterlimit="10" stroke-width="3">1</text><text fill="rgb(37,37,37)" stroke="none" font-family="geogebra-sans-serif, sans-serif" font-size="12px" font-style="normal" font-weight="normal" text-decoration="normal" x="422" y="303" text-anchor="start" dominant-baseline="alphabetic" fill-opacity="1">1</text><text fill="rgb(37,37,37)" stroke="none" font-family="geogebra-sans-serif, sans-serif" font-size="12px" font-style="normal" font-weight="normal" text-decoration="normal" x="480" y="303" text-anchor="start" dominant-baseline="alphabetic" fill-opacity="1">2</text><text fill="none" stroke="rgb(255,255,255)" font-family="geogebra-sans-serif, sans-serif" font-size="12px" font-style="normal" font-weight="normal" text-decoration="normal" x="480" y="303" text-anchor="start" dominant-baseline="alphabetic" stroke-opacity="1" stroke-linejoin="bevel" stroke-miterlimit="10" stroke-width="3">2</text><text fill="rgb(37,37,37)" stroke="none" font-family="geogebra-sans-serif, sans-serif" font-size="12px" font-style="normal" font-weight="normal" text-decoration="normal" x="480" y="303" text-anchor="start" dominant-baseline="alphabetic" fill-opacity="1">2</text><text fill="rgb(37,37,37)" stroke="none" font-family="geogebra-sans-serif, sans-serif" font-size="12px" font-style="normal" font-weight="normal" text-decoration="normal" x="538" y="303" text-anchor="start" dominant-baseline="alphabetic" fill-opacity="1">3</text><text fill="none" stroke="rgb(255,255,255)" font-family="geogebra-sans-serif, sans-serif" font-size="12px" font-style="normal" font-weight="normal" text-decoration="normal" x="538" y="303" text-anchor="start" dominant-baseline="alphabetic" stroke-opacity="1" stroke-linejoin="bevel" stroke-miterlimit="10" stroke-width="3">3</text><text fill="rgb(37,37,37)" stroke="none" font-family="geogebra-sans-serif, sans-serif" font-size="12px" font-style="normal" font-weight="normal" text-decoration="normal" x="538" y="303" text-anchor="start" dominant-baseline="alphabetic" fill-opacity="1">3</text><text fill="rgb(37,37,37)" stroke="none" font-family="geogebra-sans-serif, sans-serif" font-size="12px" font-style="normal" font-weight="normal" text-decoration="normal" x="596" y="303" text-anchor="start" dominant-baseline="alphabetic" fill-opacity="1">4</text><text fill="none" stroke="rgb(255,255,255)" font-family="geogebra-sans-serif, sans-serif" font-size="12px" font-style="normal" font-weight="normal" text-decoration="normal" x="596" y="303" text-anchor="start" dominant-baseline="alphabetic" stroke-opacity="1" stroke-linejoin="bevel" stroke-miterlimit="10" stroke-width="3">4</text><text fill="rgb(37,37,37)" stroke="none" font-family="geogebra-sans-serif, sans-serif" font-size="12px" font-style="normal" font-weight="normal" text-decoration="normal" x="596" y="303" text-anchor="start" dominant-baseline="alphabetic" fill-opacity="1">4</text><text fill="rgb(37,37,37)" stroke="none" font-family="geogebra-sans-serif, sans-serif" font-size="12px" font-style="normal" font-weight="normal" text-decoration="normal" x="655" y="303" text-anchor="start" dominant-baseline="alphabetic" fill-opacity="1">5</text><text fill="none" stroke="rgb(255,255,255)" font-family="geogebra-sans-serif, sans-serif" font-size="12px" font-style="normal" font-weight="normal" text-decoration="normal" x="655" y="303" text-anchor="start" dominant-baseline="alphabetic" stroke-opacity="1" stroke-linejoin="bevel" stroke-miterlimit="10" stroke-width="3">5</text><text fill="rgb(37,37,37)" stroke="none" font-family="geogebra-sans-serif, sans-serif" font-size="12px" font-style="normal" font-weight="normal" text-decoration="normal" x="655" y="303" text-anchor="start" dominant-baseline="alphabetic" fill-opacity="1">5</text><text fill="rgb(37,37,37)" stroke="none" font-family="geogebra-sans-serif, sans-serif" font-size="12px" font-style="normal" font-weight="normal" text-decoration="normal" x="713" y="303" text-anchor="start" dominant-baseline="alphabetic" fill-opacity="1">6</text><text fill="none" stroke="rgb(255,255,255)" font-family="geogebra-sans-serif, sans-serif" font-size="12px" font-style="normal" font-weight="normal" text-decoration="normal" x="713" y="303" text-anchor="start" dominant-baseline="alphabetic" stroke-opacity="1" stroke-linejoin="bevel" stroke-miterlimit="10" stroke-width="3">6</text><text fill="rgb(37,37,37)" stroke="none" font-family="geogebra-sans-serif, sans-serif" font-size="12px" font-style="normal" font-weight="normal" text-decoration="normal" x="713" y="303" text-anchor="start" dominant-baseline="alphabetic" fill-opacity="1">6</text><text fill="rgb(37,37,37)" stroke="none" font-family="geogebra-sans-serif, sans-serif" font-size="12px" font-style="normal" font-weight="normal" text-decoration="normal" x="771" y="303" text-anchor="start" dominant-baseline="alphabetic" fill-opacity="1">7</text><text fill="none" stroke="rgb(255,255,255)" font-family="geogebra-sans-serif, sans-serif" font-size="12px" font-style="normal" font-weight="normal" text-decoration="normal" x="771" y="303" text-anchor="start" dominant-baseline="alphabetic" stroke-opacity="1" stroke-linejoin="bevel" stroke-miterlimit="10" stroke-width="3">7</text><text fill="rgb(37,37,37)" stroke="none" font-family="geogebra-sans-serif, sans-serif" font-size="12px" font-style="normal" font-weight="normal" text-decoration="normal" x="771" y="303" text-anchor="start" dominant-baseline="alphabetic" fill-opacity="1">7</text><text fill="rgb(37,37,37)" stroke="none" font-family="geogebra-sans-serif, sans-serif" font-size="12px" font-style="normal" font-weight="normal" text-decoration="normal" x="830" y="303" text-anchor="start" dominant-baseline="alphabetic" fill-opacity="1">8</text><text fill="none" stroke="rgb(255,255,255)" font-family="geogebra-sans-serif, sans-serif" font-size="12px" font-style="normal" font-weight="normal" text-decoration="normal" x="830" y="303" text-anchor="start" dominant-baseline="alphabetic" stroke-opacity="1" stroke-linejoin="bevel" stroke-miterlimit="10" stroke-width="3">8</text><text fill="rgb(37,37,37)" stroke="none" font-family="geogebra-sans-serif, sans-serif" font-size="12px" font-style="normal" font-weight="normal" text-decoration="normal" x="830" y="303" text-anchor="start" dominant-baseline="alphabetic" fill-opacity="1">8</text><text fill="rgb(37,37,37)" stroke="none" font-family="geogebra-sans-serif, sans-serif" font-size="12px" font-style="normal" font-weight="normal" text-decoration="normal" x="345" y="525" text-anchor="start" dominant-baseline="alphabetic" fill-opacity="1">–4</text><text fill="none" stroke="rgb(255,255,255)" font-family="geogebra-sans-serif, sans-serif" font-size="12px" font-style="normal" font-weight="normal" text-decoration="normal" x="345" y="525" text-anchor="start" dominant-baseline="alphabetic" stroke-opacity="1" stroke-linejoin="bevel" stroke-miterlimit="10" stroke-width="3">–4</text><text fill="rgb(37,37,37)" stroke="none" font-family="geogebra-sans-serif, sans-serif" font-size="12px" font-style="normal" font-weight="normal" text-decoration="normal" x="345" y="525" text-anchor="start" dominant-baseline="alphabetic" fill-opacity="1">–4</text><text fill="rgb(37,37,37)" stroke="none" font-family="geogebra-sans-serif, sans-serif" font-size="12px" font-style="normal" font-weight="normal" text-decoration="normal" x="345" y="467" text-anchor="start" dominant-baseline="alphabetic" fill-opacity="1">–3</text><text fill="none" stroke="rgb(255,255,255)" font-family="geogebra-sans-serif, sans-serif" font-size="12px" font-style="normal" font-weight="normal" text-decoration="normal" x="345" y="467" text-anchor="start" dominant-baseline="alphabetic" stroke-opacity="1" stroke-linejoin="bevel" stroke-miterlimit="10" stroke-width="3">–3</text><text fill="rgb(37,37,37)" stroke="none" font-family="geogebra-sans-serif, sans-serif" font-size="12px" font-style="normal" font-weight="normal" text-decoration="normal" x="345" y="467" text-anchor="start" dominant-baseline="alphabetic" fill-opacity="1">–3</text><text fill="rgb(37,37,37)" stroke="none" font-family="geogebra-sans-serif, sans-serif" font-size="12px" font-style="normal" font-weight="normal" text-decoration="normal" x="345" y="409" text-anchor="start" dominant-baseline="alphabetic" fill-opacity="1">–2</text><text fill="none" stroke="rgb(255,255,255)" font-family="geogebra-sans-serif, sans-serif" font-size="12px" font-style="normal" font-weight="normal" text-decoration="normal" x="345" y="409" text-anchor="start" dominant-baseline="alphabetic" stroke-opacity="1" stroke-linejoin="bevel" stroke-miterlimit="10" stroke-width="3">–2</text><text fill="rgb(37,37,37)" stroke="none" font-family="geogebra-sans-serif, sans-serif" font-size="12px" font-style="normal" font-weight="normal" text-decoration="normal" x="345" y="409" text-anchor="start" dominant-baseline="alphabetic" fill-opacity="1">–2</text><text fill="rgb(37,37,37)" stroke="none" font-family="geogebra-sans-serif, sans-serif" font-size="12px" font-style="normal" font-weight="normal" text-decoration="normal" x="345" y="351" text-anchor="start" dominant-baseline="alphabetic" fill-opacity="1">–1</text><text fill="none" stroke="rgb(255,255,255)" font-family="geogebra-sans-serif, sans-serif" font-size="12px" font-style="normal" font-weight="normal" text-decoration="normal" x="345" y="351" text-anchor="start" dominant-baseline="alphabetic" stroke-opacity="1" stroke-linejoin="bevel" stroke-miterlimit="10" stroke-width="3">–1</text><text fill="rgb(37,37,37)" stroke="none" font-family="geogebra-sans-serif, sans-serif" font-size="12px" font-style="normal" font-weight="normal" text-decoration="normal" x="345" y="351" text-anchor="start" dominant-baseline="alphabetic" fill-opacity="1">–1</text><text fill="rgb(37,37,37)" stroke="none" font-family="geogebra-sans-serif, sans-serif" font-size="12px" font-style="normal" font-weight="normal" text-decoration="normal" x="351" y="234" text-anchor="start" dominant-baseline="alphabetic" fill-opacity="1">1</text><text fill="none" stroke="rgb(255,255,255)" font-family="geogebra-sans-serif, sans-serif" font-size="12px" font-style="normal" font-weight="normal" text-decoration="normal" x="351" y="234" text-anchor="start" dominant-baseline="alphabetic" stroke-opacity="1" stroke-linejoin="bevel" stroke-miterlimit="10" stroke-width="3">1</text><text fill="rgb(37,37,37)" stroke="none" font-family="geogebra-sans-serif, sans-serif" font-size="12px" font-style="normal" font-weight="normal" text-decoration="normal" x="351" y="234" text-anchor="start" dominant-baseline="alphabetic" fill-opacity="1">1</text><text fill="rgb(37,37,37)" stroke="none" font-family="geogebra-sans-serif, sans-serif" font-size="12px" font-style="normal" font-weight="normal" text-decoration="normal" x="351" y="176" text-anchor="start" dominant-baseline="alphabetic" fill-opacity="1">2</text><text fill="none" stroke="rgb(255,255,255)" font-family="geogebra-sans-serif, sans-serif" font-size="12px" font-style="normal" font-weight="normal" text-decoration="normal" x="351" y="176" text-anchor="start" dominant-baseline="alphabetic" stroke-opacity="1" stroke-linejoin="bevel" stroke-miterlimit="10" stroke-width="3">2</text><text fill="rgb(37,37,37)" stroke="none" font-family="geogebra-sans-serif, sans-serif" font-size="12px" font-style="normal" font-weight="normal" text-decoration="normal" x="351" y="176" text-anchor="start" dominant-baseline="alphabetic" fill-opacity="1">2</text><text fill="rgb(37,37,37)" stroke="none" font-family="geogebra-sans-serif, sans-serif" font-size="12px" font-style="normal" font-weight="normal" text-decoration="normal" x="351" y="117" text-anchor="start" dominant-baseline="alphabetic" fill-opacity="1">3</text><text fill="none" stroke="rgb(255,255,255)" font-family="geogebra-sans-serif, sans-serif" font-size="12px" font-style="normal" font-weight="normal" text-decoration="normal" x="351" y="117" text-anchor="start" dominant-baseline="alphabetic" stroke-opacity="1" stroke-linejoin="bevel" stroke-miterlimit="10" stroke-width="3">3</text><text fill="rgb(37,37,37)" stroke="none" font-family="geogebra-sans-serif, sans-serif" font-size="12px" font-style="normal" font-weight="normal" text-decoration="normal" x="351" y="117" text-anchor="start" dominant-baseline="alphabetic" fill-opacity="1">3</text><text fill="rgb(37,37,37)" stroke="none" font-family="geogebra-sans-serif, sans-serif" font-size="12px" font-style="normal" font-weight="normal" text-decoration="normal" x="351" y="59" text-anchor="start" dominant-baseline="alphabetic" fill-opacity="1">4</text><text fill="none" stroke="rgb(255,255,255)" font-family="geogebra-sans-serif, sans-serif" font-size="12px" font-style="normal" font-weight="normal" text-decoration="normal" x="351" y="59" text-anchor="start" dominant-baseline="alphabetic" stroke-opacity="1" stroke-linejoin="bevel" stroke-miterlimit="10" stroke-width="3">4</text><text fill="rgb(37,37,37)" stroke="none" font-family="geogebra-sans-serif, sans-serif" font-size="12px" font-style="normal" font-weight="normal" text-decoration="normal" x="351" y="59" text-anchor="start" dominant-baseline="alphabetic" fill-opacity="1">4</text><text fill="rgb(37,37,37)" stroke="none" font-family="geogebra-sans-serif, sans-serif" font-size="12px" font-style="normal" font-weight="normal" text-decoration="normal" x="351" y="303" text-anchor="start" dominant-baseline="alphabetic" fill-opacity="1">0</text><text fill="none" stroke="rgb(255,255,255)" font-family="geogebra-sans-serif, sans-serif" font-size="12px" font-style="normal" font-weight="normal" text-decoration="normal" x="351" y="303" text-anchor="start" dominant-baseline="alphabetic" stroke-opacity="1" stroke-linejoin="bevel" stroke-miterlimit="10" stroke-width="3">0</text><text fill="rgb(37,37,37)" stroke="none" font-family="geogebra-sans-serif, sans-serif" font-size="12px" font-style="normal" font-weight="normal" text-decoration="normal" x="351" y="303" text-anchor="start" dominant-baseline="alphabetic" fill-opacity="1">0</text><path fill="none" stroke="rgb(211,47,47)" paint-order="fill stroke markers" d=" M 366 284.10246510778876 L 366 287.7960000000001 L 366 284.10246510778876 L 367 279.31412520724456 L 367 279.31412520724456 L 368 276.3836295188081 L 368 276.3836295188081 L 369 274.06493303490294 L 369 274.064933034903 L 370 272.0847874433582 L 370 272.0847874433582 L 371 270.32768010368545 L 371 270.32768010368545 L 372 268.7318399083522 L 372 268.7318399083522 L 373 267.25963712825524 L 373 267.25963712825524 L 374 265.88613464213034 L 374 265.88613464213034 L 375 264.5937975183394 L 375 264.5937975183394 L 376 263.36973954122374 L 376 263.36973954122374 L 377 262.204161457215 L 377 262.204161457215 L 378 261.089405308801 L 378 261.0894053088011 L 379 260.01935153406777 L 379 260.01935153406777 L 380 258.9890182073863 L 380 258.9890182073863 L 381 257.9942852842328 L 381 257.99428528423283 L 382 257.03169926034434 L 382 257.0316992603444 L 383 256.0983313160104 L 383 256.0983313160104 L 384 255.1916720664269 L 384 255.19167206642692 L 385 254.30955199487448 L 385 254.30955199487448 L 386 253.4500803005659 L 386 253.45008030056593 L 387 252.6115972055802 L 387 252.61159720558024 L 388 251.79263626825994 L 388 251.79263626825997 L 389 250.9918942507772 L 389 250.99189425077722 L 390 250.20820676868652 L 390 250.20820676868655 L 391 249.44052842161923 L 391 249.44052842161926 L 392 248.68791643662433 L 392 248.68791643662433 L 393 247.94951709372614 L 393 247.94951709372617 L 394 247.22455437626144 L 394 247.22455437626147 L 395 246.51232041593224 L 395 246.51232041593227 L 396 245.8121673974377 L 396 245.81216739743772 L 397 245.1235006590899 L 397 245.12350065908993 L 398 244.4457727802959 L 398 244.44577278029593 L 399 243.77847848867484 L 399 243.77847848867486 L 400 243.12115025207166 L 400 243.1211502520717 L 401 242.47335444614941 L 401 242.47335444614941 L 402 241.83468800828274 L 402 241.83468800828277 L 403 241.20477550439384 L 403 241.20477550439387 L 404 240.58326654810196 L 404 240.58326654810196 L 405 239.96983352180553 L 405 239.96983352180555 L 406 239.36416955761456 L 406 239.3641695576146 L 407 238.7659867428126 L 407 238.76598674281263 L 408 238.17501452006448 L 408 238.1750145200645 L 409 237.590998257146 L 409 237.59099825714603 L 410 237.01369796474395 L 410 237.01369796474395 L 411 236.4428871440107 L 411 236.44288714401074 L 412 235.87835174817747 L 412 235.8783517481775 L 413 235.3198892447242 L 413 235.31988924472424 L 414 234.76730776645562 L 414 234.76730776645562 L 415 234.22042534139302 L 415 234.22042534139302 L 416 233.67906919271962 L 416 233.67906919271965 L 417 233.14307510114423 L 417 233.14307510114423 L 418 232.612286823013 L 418 232.612286823013 L 419 232.08655555832593 L 419 232.08655555832593 L 420 231.56573946352398 L 420 231.565739463524 L 421 231.04970320452645 L 421 231.04970320452648 L 422 230.53831754602732 L 422 230.53831754602734 L 423 230.0314589735193 L 423 230.03145897351934 L 424 229.52900934491322 L 424 229.52900934491322 L 425 229.0308555689687 L 425 229.03085556896872 L 426 228.53688930805686 L 426 228.53688930805689 L 427 228.0470067030417 L 427 228.04700670304172 L 428 227.56110811830098 L 428 227.561108118301 L 429 227.07909790511403 L 429 227.07909790511405 L 430 226.60088418182403 L 430 226.60088418182406 L 431 226.12637862934483 L 431 226.12637862934486 L 432 225.65549630072212 L 432 225.65549630072212 L 433 225.18815544358702 L 433 225.18815544358705 L 434 224.72427733445068 L 434 224.72427733445068 L 435 224.26378612388854 L 435 224.26378612388856 L 436 223.8066086917529 L 436 223.80660869175293 L 437 223.35267451163025 L 437 223.35267451163025 L 438 222.90191552383246 L 438 222.90191552383249 L 439 222.45426601627435 L 439 222.45426601627437 L 440 222.0096625126465 L 440 222.00966251264657 L 441 221.56804366734565 L 441 221.5680436673457 L 442 221.12935016666904 L 442 221.12935016666904 L 443 220.69352463582308 L 443 220.6935246358231 L 444 220.26051155133348 L 444 220.26051155133354 L 445 219.83025715847748 L 445 219.83025715847754 L 446 219.40270939339175 L 446 219.40270939339177 L 447 218.97781780953548 L 447 218.9778178095355 L 448 218.55553350821523 L 448 218.55553350821526 L 449 218.1358090729004 L 449 218.13580907290043 L 450 217.71859850707955 L 450 217.71859850707958 L 451 217.3038571754272 L 451 217.30385717542725 L 452 216.891541748068 L 452 216.89154174806802 L 453 216.4816101477411 L 453 216.48161014774112 L 454 216.07402149968277 L 454 216.0740214996828 L 455 215.66873608405785 L 455 215.6687360840579 L 456 215.26571529078376 L 456 215.2657152907838 L 457 214.86492157660103 L 457 214.8649215766011 L 458 214.4663184242563 L 458 214.46631842425631 L 459 214.0698703036707 L 459 214.06987030367077 L 460 213.6755426349785 L 460 213.67554263497857 L 461 213.28330175332553 L 461 213.28330175332553 L 462 212.89311487532694 L 462 212.893114875327 L 463 212.50495006708985 L 463 212.5049500670899 L 464 212.11877621371167 L 464 212.11877621371167 L 465 211.73456299017244 L 465 211.73456299017246 L 466 211.35228083354417 L 466 211.3522808335442 L 467 210.9719009164444 L 467 210.97190091644444 L 468 210.59339512166724 L 468 210.5933951216673 L 469 210.21673601792833 L 469 210.21673601792833 L 470 209.84189683666443 L 470 209.84189683666446 L 471 209.46885144983275 L 471 209.4688514498328 L 472 209.09757434865696 L 472 209.09757434865702 L 473 208.72804062327162 L 473 208.72804062327168 L 474 208.36022594321895 L 474 208.360225943219 L 475 207.99410653875458 L 475 207.99410653875458 L 476 207.6296591829216 L 476 207.62965918292167 L 477 207.26686117435526 L 477 207.26686117435526 L 478 206.9056903207809 L 478 206.90569032078093 L 479 206.54612492317318 L 479 206.54612492317318 L 480 206.1881437605425 L 480 206.18814376054252 L 481 205.8317260753201 L 481 205.8317260753201 L 482 205.47685155931237 L 482 205.4768515593124 L 483 205.12350034019798 L 483 205.123500340198 L 484 204.771652968542 L 484 204.77165296854207 L 485 204.42129040530358 L 485 204.4212904053036 L 486 204.07239400981365 L 486 204.0723940098137 L 487 203.72494552820237 L 487 203.7249455282024 L 488 203.37892708225448 L 488 203.3789270822545 L 489 203.03432115867474 L 489 203.03432115867477 L 490 202.6911105987443 L 490 202.69111059874433 L 491 202.34927858835093 L 491 202.34927858835098 L 492 202.0088086483771 L 492 202.0088086483771 L 493 201.66968462542957 L 493 201.66968462542962 L 494 201.33189068289684 L 494 201.33189068289687 L 495 200.9954112923192 L 495 200.99541129231923 L 496 200.66023122505908 L 496 200.66023122505914 L 497 200.32633554425877 L 497 200.32633554425877 L 498 199.99370959707278 L 498 199.99370959707284 L 499 199.66233900716503 L 499 199.66233900716503 L 500 199.33220966745793 L 500 199.33220966745796 L 501 199.00330773312498 L 501 199.00330773312504 L 502 198.6756196148156 L 502 198.67561961481562 L 503 198.34913197210332 L 503 198.34913197210335 L 504 198.023831707149 L 504 198.02383170714904 L 505 197.69970595856918 L 505 197.6997059585692 L 506 197.3767420955029 L 506 197.37674209550292 L 507 197.05492771186817 L 507 197.05492771186823 L 508 196.73425062080145 L 508 196.7342506208015 L 509 196.41469884927244 L 509 196.41469884927247 L 510 196.09626063286788 L 510 196.09626063286788 L 511 195.77892441073797 L 511 195.778924410738 L 512 195.46267882069895 L 512 195.462678820699 L 513 195.14751269448612 L 513 195.14751269448618 L 514 194.83341505315184 L 514 194.83341505315187 L 515 194.5203751026027 L 515 194.5203751026027 L 516 194.2083822292716 L 516 194.2083822292716 L 517 193.89742599591852 L 517 193.89742599591858 L 518 193.58749613755685 L 518 193.5874961375569 L 519 193.27858255749916 L 519 193.2785825574992 L 520 192.9706753235194 L 520 192.9706753235194 L 521 192.6637646641268 L 521 192.66376466412683 L 522 192.35784096494757 L 522 192.3578409649476 L 523 192.05289476521057 L 523 192.0528947652106 L 524 191.74891675433366 L 524 191.74891675433366 L 525 191.44589776860659 L 525 191.44589776860664 L 526 191.14382878796792 L 526 191.14382878796795 L 527 190.842700932872 L 527 190.84270093287205 L 528 190.54250546124337 L 528 190.54250546124342 L 529 190.24323376551558 L 529 190.24323376551564 L 530 189.9448773697513 L 530 189.94487736975137 L 531 189.64742792684163 L 531 189.6474279268417 L 532 189.35087721578094 L 532 189.350877215781 L 533 189.05521713901612 L 533 189.05521713901618 L 534 188.76043971986647 L 534 188.76043971986653 L 535 188.46653710001266 L 535 188.46653710001272 L 536 188.17350153705257 L 536 188.17350153705263 L 537 187.88132540212143 L 537 187.88132540212146 L 538 187.59000117757438 L 538 187.59000117757444 L 539 187.29952145472976 L 539 187.2995214547298 L 540 187.00987893167053 L 540 187.00987893167058 L 541 186.72106641110287 L 541 186.72106641110292 L 542 186.43307679826927 L 542 186.43307679826933 L 543 186.14590309891503 L 543 186.14590309891508 L 544 185.85953841730645 L 544 185.85953841730648 L 545 185.57397595429856 L 545 185.5739759542986 L 546 185.28920900545194 L 546 185.289209005452 L 547 185.00523095919573 L 547 185.00523095919579 L 548 184.72203529503696 L 548 184.72203529503702 L 549 184.43961558181343 L 549 184.43961558181348 L 550 184.15796547598964 L 550 184.15796547598967 L 551 183.87707871999459 L 551 183.87707871999464 L 552 183.59694914059935 L 552 183.5969491405994 L 553 183.31757064733426 L 553 183.31757064733432 L 554 183.03893723094387 L 554 183.03893723094393 L 555 182.76104296187884 L 555 182.76104296187887 L 556 182.4838819888235 L 556 182.48388198882355 L 557 182.20744853725873 L 557 182.20744853725878 L 558 181.93173690805776 L 558 181.93173690805781 L 559 181.6567414761156 L 559 181.65674147611566 L 560 181.38245668900993 L 560 181.38245668900998 L 561 181.10887706569287 L 561 181.10887706569292 L 562 180.8359971952134 L 562 180.83599719521342 L 563 180.56381173546833 L 563 180.5638117354684 L 564 180.29231541198246 L 564 180.29231541198249 L 565 180.02150301671568 L 565 180.02150301671574 L 566 179.7513694068976 L 566 179.75136940689765 L 567 179.4819095038879 L 567 179.48190950388795 L 568 179.21311829206246 L 568 179.21311829206252 L 569 178.94499081772386 L 569 178.94499081772392 L 570 178.67752218803653 L 570 178.6775221880366 L 571 178.4107075699847 L 571 178.41070756998477 L 572 178.14454218935361 L 572 178.14454218935367 L 573 177.87902132973286 L 573 177.8790213297329 L 574 177.61414033154114 L 574 177.6141403315412 L 575 177.3498945910723 L 575 177.34989459107237 L 576 177.0862795595619 L 576 177.08627955956194 L 577 176.8232907422732 L 577 176.82329074227326 L 578 176.56092369760353 L 578 176.56092369760358 L 579 176.2991740362087 L 579 176.29917403620877 L 580 176.0380374201464 L 580 176.03803742014645 L 581 175.7775095620372 L 581 175.77750956203727 L 582 175.51758622424364 L 582 175.5175862242437 L 583 175.25826321806557 L 583 175.2582632180656 L 584 174.99953640295297 L 584 174.999536402953 L 585 174.74140168573433 L 585 174.7414016857344 L 586 174.48385501986135 L 586 174.4838550198614 L 587 174.2268924046686 L 587 174.22689240466866 L 588 173.9705098846486 L 588 173.97050988464866 L 589 173.71470354874134 L 589 173.7147035487414 L 590 173.45946952963823 L 590 173.45946952963828 L 591 173.20480400309995 L 591 173.2048040031 L 592 172.9507031872878 L 592 172.95070318728784 L 593 172.6971633421086 L 593 172.69716334210867 L 594 172.44418076857232 L 594 172.44418076857238 L 595 172.1917518081625 L 595 172.19175180816256 L 596 171.93987284221885 L 596 171.9398728422189 L 597 171.688540291332 L 597 171.68854029133206 L 598 171.4377506147503 L 598 171.43775061475037 L 599 171.18750030979749 L 599 171.18750030979754 L 600 170.93778591130206 L 600 170.93778591130211 L 601 170.6886039910375 L 601 170.6886039910376 L 602 170.43995115717314 L 602 170.4399511571732 L 603 170.1918240537354 L 603 170.19182405373547 L 604 169.9442193600794 L 604 169.94421936007947 L 605 169.69713379037051 L 605 169.69713379037057 L 606 169.45056409307557 L 606 169.45056409307563 L 607 169.20450705046352 L 607 169.2045070504636 L 608 168.95895947811573 L 608 168.9589594781158 L 609 168.71391822444502 L 609 168.71391822444508 L 610 168.4693801702237 L 610 168.46938017022376 L 611 168.22534222812033 L 611 168.22534222812044 L 612 167.98180134224506 L 612 167.98180134224515 L 613 167.73875448770298 L 613 167.7387544877031 L 614 167.49619867015588 L 614 167.496198670156 L 615 167.2541309253919 L 615 167.25413092539196 L 616 167.0125483189027 L 616 167.01254831890282 L 617 166.7714479454687 L 617 166.77144794546876 L 618 166.53082692875103 L 618 166.5308269287511 L 619 166.2906824208917 L 619 166.2906824208918 L 620 166.0510116021199 L 620 166.05101160211996 L 621 165.8118116803659 L 621 165.81181168036596 L 622 165.5730798908815 L 622 165.57307989088156 L 623 165.33481349586734 L 623 165.33481349586742 L 624 165.09700978410638 L 624 165.09700978410646 L 625 164.85966607060396 L 625 164.85966607060408 L 626 164.62277969623446 L 626 164.62277969623455 L 627 164.38634802739313 L 627 164.38634802739318 L 628 164.15036845565487 L 628 164.15036845565493 L 629 163.91483839743847 L 629 163.91483839743856 L 630 163.67975529367658 L 630 163.67975529367664 L 631 163.445116609491 L 631 163.4451166094911 L 632 163.2109198338743 L 632 163.21091983387439 L 633 162.9771624793759 L 633 162.97716247937598 L 634 162.74384208179387 L 634 162.74384208179396 L 635 162.5109561998721 L 635 162.5109561998722 L 636 162.27850241500207 L 636 162.27850241500215 L 637 162.04647833092977 L 637 162.04647833092986 L 638 161.8148815734677 L 638 161.81488157346777 L 639 161.58370979021115 L 639 161.58370979021123 L 640 161.35296065025975 L 640 161.35296065025983 L 641 161.122631843943 L 641 161.12263184394305 L 642 160.89272108255057 L 642 160.89272108255068 L 643 160.6632260980672 L 643 160.6632260980673 L 644 160.4341446429114 L 644 160.43414464291146 L 645 160.2054744896787 L 645 160.20547448967875 L 646 159.97721343088898 L 646 159.97721343088904 L 647 159.74935927873798 L 647 159.74935927873804 L 648 159.52190986485246 L 648 159.52190986485252 L 649 159.29486304004948 L 649 159.29486304004956 L 650 159.0682166740996 L 650 159.0682166740997 L 651 158.8419686554935 L 651 158.84196865549362 L 652 158.61611689121264 L 652 158.61611689121273 L 653 158.39065930650327 L 653 158.39065930650335 L 654 158.16559384465404 L 654 158.16559384465413 L 655 157.94091846677713 L 655 157.94091846677722 L 656 157.71663115159282 L 656 157.71663115159294 L 657 157.4927298952173 L 657 157.49272989521737 L 658 157.2692127109536 L 658 157.2692127109537 L 659 157.04607762908628 L 659 157.04607762908637 L 660 156.8233226966786 L 660 156.82332269667867 L 661 156.60094597737321 L 661 156.60094597737327 L 662 156.37894555119584 L 662 156.37894555119593 L 663 156.15731951436175 L 663 156.1573195143618 L 664 155.93606597908536 L 664 155.93606597908544 L 665 155.71518307339267 L 665 155.71518307339275 L 666 155.49466894093635 L 666 155.49466894093644 L 667 155.2745217408138 L 667 155.27452174081387 L 668 155.05473964738786 L 668 155.05473964738792 L 669 154.83532085011012 L 669 154.8353208501102 L 670 154.61626355334698 L 670 154.61626355334707 L 671 154.3975659762081 L 671 154.3975659762082 L 672 154.1792263523776 L 672 154.17922635237767 L 673 153.96124292994753 L 673 153.96124292994762 L 674 153.74361397125392 L 674 153.743613971254 L 675 153.5263377527151 L 675 153.5263377527152 L 676 153.3094125646726 L 676 153.30941256467267 L 677 153.09283671123399 L 677 153.09283671123407 L 678 152.8766085101183 L 678 152.8766085101184 L 679 152.66072629250363 L 679 152.6607262925037 L 680 152.4451884028767 L 680 152.44518840287682 L 681 152.22999319888498 L 681 152.22999319888507 L 682 152.01513905119043 L 682 152.01513905119052 L 683 151.80062434332572 L 683 151.8006243433258 L 684 151.58644747155228 L 684 151.58644747155236 L 685 151.3726068447205 L 685 151.3726068447206 L 686 151.15910088413173 L 686 151.15910088413182 L 687 150.94592802340233 L 687 150.94592802340244 L 688 150.7330867083296 L 688 150.73308670832967 L 689 150.52057539675954 L 689 150.52057539675963 L 690 150.30839255845655 L 690 150.3083925584566 L 691 150.09653667497477 L 691 150.09653667497489 L 692 149.88500623953158 L 692 149.88500623953166 L 693 149.6737997568821 L 693 149.67379975688218 L 694 149.46291574319628 L 694 149.46291574319633 L 695 149.2523527259371 L 695 149.2523527259372 L 696 149.04210924374064 L 696 149.04210924374073 L 697 148.83218384629774 L 697 148.83218384629785 L 698 148.62257509423733 L 698 148.62257509423742 L 699 148.41328155901118 L 699 148.4132815590113 L 700 148.20430182278045 L 700 148.20430182278054 L 701 147.99563447830346 L 701 147.99563447830357 L 702 147.78727812882528 L 702 147.78727812882533 L 703 147.57923138796858 L 703 147.57923138796863 L 704 147.37149287962603 L 704 147.37149287962612 L 705 147.16406123785407 L 705 147.16406123785416 L 706 146.9569351067682 L 706 146.9569351067683 L 707 146.75011314043945 L 707 146.7501131404395 L 708 146.54359400279245 L 708 146.5435940027925 L 709 146.3373763675047 L 709 146.3373763675048 L 710 146.1314589179072 L 710 146.1314589179073 L 711 145.92584034688633 L 711 145.92584034688642 L 712 145.72051935678712 L 712 145.72051935678718 L 713 145.5154946593176 L 713 145.51549465931768 L 714 145.31076497545453 L 714 145.31076497545462 L 715 145.1063290353504 L 715 145.1063290353505 L 716 144.9021855782415 L 716 144.90218557824159 L 717 144.698333352357 L 717 144.6983333523571 L 718 144.49477111482972 L 718 144.4947711148298 L 719 144.29149763160754 L 719 144.29149763160763 L 720 144.08851167736609 L 720 144.08851167736617 L 721 143.88581203542276 L 721 143.88581203542282 L 722 143.68339749765133 L 722 143.6833974976514 L 723 143.4812668643982 L 723 143.4812668643983 L 724 143.27941894439948 L 724 143.27941894439954 L 725 143.07785255469872 L 725 143.0778525546988 L 726 142.87656652056648 L 726 142.87656652056654 L 727 142.6755596754201 L 727 142.67555967542017 L 728 142.47483086074502 L 728 142.47483086074507 L 729 142.27437892601677 L 729 142.27437892601685 L 730 142.07420272862416 L 730 142.07420272862427 L 731 141.87430113379313 L 731 141.87430113379324 L 732 141.6746730145118 L 732 141.6746730145119 L 733 141.47531725145635 L 733 141.47531725145643 L 734 141.27623273291772 L 734 141.2762327329178 L 735 141.07741835472933 L 735 141.07741835472942 L 736 140.87887302019567 L 736 140.87887302019575 L 737 140.68059564002158 L 737 140.68059564002166 L 738 140.48258513224278 L 738 140.48258513224286 L 739 140.2848404221567 L 739 140.28484042215678 L 740 140.08736044225455 L 740 140.08736044225466 L 741 139.89014413215426 L 741 139.89014413215435 L 742 139.6931904385337 L 742 139.69319043853375 L 743 139.49649831506528 L 743 139.49649831506537 L 744 139.3000667223511 L 744 139.30006672235118 L 745 139.10389462785875 L 745 139.10389462785884 L 746 138.90798100585812 L 746 138.9079810058582 L 747 138.71232483735866 L 747 138.71232483735878 L 748 138.5169251100478 L 748 138.51692511004788 L 749 138.32178081822954 L 749 138.32178081822963 L 750 138.12689096276426 L 750 138.12689096276435 L 751 137.93225455100904 L 751 137.93225455100912 L 752 137.73787059675854 L 752 137.73787059675863 L 753 137.54373812018684 L 753 137.54373812018693 L 754 137.3498561477897 L 754 137.34985614778978 L 755 137.1562237123277 L 755 137.15622371232777 L 756 136.96283985276992 L 756 136.96283985277 L 757 136.76970361423824 L 757 136.7697036142383 L 758 136.57681404795238 L 758 136.57681404795247 L 759 136.3841702111755 L 759 136.3841702111756 L 760 136.1917711671605 L 760 136.1917711671606 L 761 135.99961598509682 L 761 135.9996159850969 L 762 135.8077037400578 L 762 135.8077037400579 L 763 135.61603351294903 L 763 135.61603351294912 L 764 135.42460439045666 L 764 135.42460439045675 L 765 135.23341546499694 L 765 135.23341546499702 L 766 135.04246583466568 L 766 135.0424658346658 L 767 134.85175460318897 L 767 134.85175460318905 L 768 134.66128087987374 L 768 134.66128087987383 L 769 134.47104377955964 L 769 134.4710437795597 L 770 134.28104242257058 L 770 134.28104242257066 L 771 134.09127593466766 L 771 134.09127593466772 L 772 133.90174344700205 L 772 133.90174344700213 L 773 133.71244409606862 L 773 133.71244409606868 L 774 133.52337702365995 L 774 133.52337702366006 L 775 133.33454137682125 L 775 133.33454137682133 L 776 133.14593630780504 L 776 133.14593630780513 L 777 132.95756097402702 L 777 132.95756097402707 L 778 132.76941453802206 L 778 132.76941453802215 L 779 132.5814961674008 L 779 132.58149616740087 L 780 132.39380503480666 L 780 132.39380503480677 L 781 132.20634031787344 L 781 132.20634031787353 L 782 132.01910119918307 L 782 132.01910119918315 L 783 131.83208686622422 L 783 131.83208686622433 L 784 131.64529651135106 L 784 131.64529651135118 L 785 131.45872933174266 L 785 131.45872933174277 L 786 131.2723845293626 L 786 131.27238452936268 L 787 131.0862613109193 L 787 131.08626131091938 L 788 130.90035888782648 L 788 130.90035888782657 L 789 130.71467647616424 L 789 130.71467647616433 L 790 130.52921329664053 L 790 130.52921329664065 L 791 130.34396857455297 L 791 130.34396857455306 L 792 130.15894153975103 L 792 130.15894153975108 L 793 129.9741314265987 L 793 129.97413142659877 L 794 129.78953747393763 L 794 129.7895374739377 L 795 129.6051589250504 L 795 129.60515892505052 L 796 129.4209950276245 L 796 129.42099502762463 L 797 129.23704503371638 L 797 129.23704503371647 L 798 129.05330819971599 L 798 129.0533081997161 L 799 128.86978378631184 L 799 128.86978378631196 L 800 128.68647105845622 L 800 128.68647105845633 L 801 128.50336928533085 L 801 128.503369285331 L 802 128.3204777403129 L 802 128.32047774031298 L 803 128.13779570094133 L 803 128.1377957009414 L 804 127.9553224488836 L 804 127.95532244888375 L 805 127.77305726990284 L 805 127.77305726990292 L 806 127.5909994538249 L 806 127.59099945382502 L 807 127.40914829450651 L 807 127.4091482945066 L 808 127.22750308980295 L 808 127.22750308980304 L 809 127.04606314153665 L 809 127.04606314153676 L 810 126.86482775546568 L 810 126.86482775546583 L 811 126.68379624125313 L 811 126.68379624125328 L 812 126.50296791243599 L 812 126.5029679124361 L 813 126.32234208639488 L 813 126.32234208639503 L 814 126.1419180843244 L 814 126.14191808432454 L 815 125.96169523120273 L 815 125.96169523120287 L 816 125.78167285576262 L 816 125.78167285576276 L 817 125.60185029046221 L 817 125.60185029046232 L 818 125.42222687145576 L 818 125.42222687145588 L 819 125.24280193856549 L 819 125.2428019385656 L 820 125.06357483525306 L 820 125.06357483525315 L 821 124.88454490859166 L 821 124.88454490859178 L 822 124.70571150923806 L 822 124.70571150923817 L 823 124.52707399140533 L 823 124.52707399140544 L 824 124.34863171283558 L 824 124.3486317128357 L 825 124.17038403477295 L 825 124.1703840347731 L 826 123.99233032193703 L 826 123.99233032193715 L 827 123.81446994249643 L 827 123.81446994249652 L 828 123.6368022680424 L 828 123.63680226804252 L 829 123.45932667356331 L 829 123.45932667356348 L 830 123.28204253741885 L 830 123.28204253741896 L 831 123.10494924131442 L 831 123.10494924131453 L 832 122.92804617027613 L 832 122.92804617027625 L 833 122.75133271262607 L 833 122.75133271262618 L 834 122.57480825995728 L 834 122.57480825995742 L 835 122.39847220710956 L 835 122.3984722071097 L 836 122.22232395214522 L 836 122.22232395214536 L 837 122.04636289632501 L 837 122.04636289632512 L 838 121.8705884440844 L 838 121.87058844408455 L 839 121.6950000030103 L 839 121.69500000301045 L 839.9999999999999 121.51959698381748 L 839.9999999999999 121.51959698381759 L 841 121.34437880032539 L 841 121.34437880032553 L 842 121.16934486943583 L 842 121.16934486943597 L 842.9999999999999 120.99449461110984 L 842.9999999999999 120.99449461110996 L 844 120.81982744834534 L 844 120.81982744834542 L 845 120.64534280715506 L 845 120.64534280715517 L 845.9999999999999 120.4710401165446 L 845.9999999999999 120.47104011654471 L 847 120.29691880849029 L 847 120.2969188084904 L 848 120.12297831791795 L 848 120.12297831791807 L 848.9999999999999 119.94921808268123 L 848.9999999999999 119.9492180826814 L 850 119.77563754354068 L 850 119.7756375435408 L 851 119.60223614414247 L 851 119.60223614414264 L 852 119.4290133309978" stroke-opacity="0.8" stroke-linecap="round" stroke-linejoin="round" stroke-miterlimit="10" stroke-width="6.5"/><text fill="rgb(211,47,47)" stroke="none" font-family="geogebra-sans-serif, sans-serif" font-size="16px" font-style="normal" font-weight="normal" text-decoration="normal" x="365" y="284" text-anchor="start" dominant-baseline="alphabetic" fill-opacity="1">f</text><text fill="none" stroke="rgb(255,255,255)" font-family="geogebra-sans-serif, sans-serif" font-size="16px" font-style="normal" font-weight="normal" text-decoration="normal" x="365" y="284" text-anchor="start" dominant-baseline="alphabetic" stroke-opacity="1" stroke-linejoin="bevel" stroke-miterlimit="10" stroke-width="3">f</text><text fill="rgb(211,47,47)" stroke="none" font-family="geogebra-sans-serif, sans-serif" font-size="16px" font-style="normal" font-weight="normal" text-decoration="normal" x="365" y="284" text-anchor="start" dominant-baseline="alphabetic" fill-opacity="1">f</text></g></g></svg>