<svg version="1.1" xmlns="http://www.w3.org/2000/svg" xmlns:xlink="http://www.w3.org/1999/xlink" width="852" height="548"><defs><clipPath id="xdOwKMhvbXAJ"><path fill="none" stroke="none" d=" M 0 0 L 852 0 L 852 548 L 0 548 L 0 0 Z"/></clipPath></defs><g transform="scale(1,1)" clip-path="url(#xdOwKMhvbXAJ)"><g><rect fill="rgb(255,255,255)" stroke="none" x="0" y="0" width="852" height="548" fill-opacity="1"/><path fill="none" stroke="rgb(192,192,192)" paint-order="fill stroke markers" d=" M 44.5 0.5 L 44.5 548.5 M 44.5 0.5 L 44.5 548.5 M 103.5 0.5 L 103.5 548.5 M 161.5 0.5 L 161.5 548.5 M 219.5 0.5 L 219.5 548.5 M 278.5 0.5 L 278.5 548.5 M 336.5 0.5 L 336.5 548.5 M 453.5 0.5 L 453.5 548.5 M 511.5 0.5 L 511.5 548.5 M 569.5 0.5 L 569.5 548.5 M 627.5 0.5 L 627.5 548.5 M 686.5 0.5 L 686.5 548.5 M 744.5 0.5 L 744.5 548.5 M 802.5 0.5 L 802.5 548.5" stroke-opacity="1" stroke-linecap="round" stroke-linejoin="round" stroke-miterlimit="10"/><path fill="none" stroke="rgb(192,192,192)" paint-order="fill stroke markers" d=" M 9.5 0.5 L 9.5 548.5 M 21.5 0.5 L 21.5 548.5 M 33.5 0.5 L 33.5 548.5 M 56.5 0.5 L 56.5 548.5 M 68.5 0.5 L 68.5 548.5 M 79.5 0.5 L 79.5 548.5 M 91.5 0.5 L 91.5 548.5 M 114.5 0.5 L 114.5 548.5 M 126.5 0.5 L 126.5 548.5 M 138.5 0.5 L 138.5 548.5 M 149.5 0.5 L 149.5 548.5 M 173.5 0.5 L 173.5 548.5 M 184.5 0.5 L 184.5 548.5 M 196.5 0.5 L 196.5 548.5 M 208.5 0.5 L 208.5 548.5 M 231.5 0.5 L 231.5 548.5 M 243.5 0.5 L 243.5 548.5 M 254.5 0.5 L 254.5 548.5 M 266.5 0.5 L 266.5 548.5 M 289.5 0.5 L 289.5 548.5 M 301.5 0.5 L 301.5 548.5 M 313.5 0.5 L 313.5 548.5 M 324.5 0.5 L 324.5 548.5 M 348.5 0.5 L 348.5 548.5 M 359.5 0.5 L 359.5 548.5 M 371.5 0.5 L 371.5 548.5 M 383.5 0.5 L 383.5 548.5 M 406.5 0.5 L 406.5 548.5 M 418.5 0.5 L 418.5 548.5 M 429.5 0.5 L 429.5 548.5 M 441.5 0.5 L 441.5 548.5 M 464.5 0.5 L 464.5 548.5 M 476.5 0.5 L 476.5 548.5 M 488.5 0.5 L 488.5 548.5 M 499.5 0.5 L 499.5 548.5 M 523.5 0.5 L 523.5 548.5 M 534.5 0.5 L 534.5 548.5 M 546.5 0.5 L 546.5 548.5 M 558.5 0.5 L 558.5 548.5 M 581.5 0.5 L 581.5 548.5 M 592.5 0.5 L 592.5 548.5 M 604.5 0.5 L 604.5 548.5 M 616.5 0.5 L 616.5 548.5 M 639.5 0.5 L 639.5 548.5 M 651.5 0.5 L 651.5 548.5 M 662.5 0.5 L 662.5 548.5 M 674.5 0.5 L 674.5 548.5 M 697.5 0.5 L 697.5 548.5 M 709.5 0.5 L 709.5 548.5 M 721.5 0.5 L 721.5 548.5 M 732.5 0.5 L 732.5 548.5 M 756.5 0.5 L 756.5 548.5 M 767.5 0.5 L 767.5 548.5 M 779.5 0.5 L 779.5 548.5 M 791.5 0.5 L 791.5 548.5 M 814.5 0.5 L 814.5 548.5 M 826.5 0.5 L 826.5 548.5 M 837.5 0.5 L 837.5 548.5 M 849.5 0.5 L 849.5 548.5" stroke-opacity="0.23529411764705882" stroke-linecap="round" stroke-linejoin="round" stroke-miterlimit="10"/><path fill="none" stroke="rgb(192,192,192)" paint-order="fill stroke markers" d=" M 0.5 12.5 L 852.5 12.5 M 0.5 12.5 L 852.5 12.5 M 0.5 70.5 L 852.5 70.5 M 0.5 128.5 L 852.5 128.5 M 0.5 187.5 L 852.5 187.5 M 0.5 245.5 L 852.5 245.5 M 0.5 362.5 L 852.5 362.5 M 0.5 420.5 L 852.5 420.5 M 0.5 478.5 L 852.5 478.5 M 0.5 536.5 L 852.5 536.5" stroke-opacity="1" stroke-linecap="round" stroke-linejoin="round" stroke-miterlimit="10"/><path fill="none" stroke="rgb(192,192,192)" paint-order="fill stroke markers" d=" M 0.5 0.5 L 852.5 0.5 M 0.5 0.5 L 852.5 0.5 M 0.5 23.5 L 852.5 23.5 M 0.5 35.5 L 852.5 35.5 M 0.5 47.5 L 852.5 47.5 M 0.5 58.5 L 852.5 58.5 M 0.5 82.5 L 852.5 82.5 M 0.5 93.5 L 852.5 93.5 M 0.5 105.5 L 852.5 105.5 M 0.5 117.5 L 852.5 117.5 M 0.5 140.5 L 852.5 140.5 M 0.5 152.5 L 852.5 152.5 M 0.5 163.5 L 852.5 163.5 M 0.5 175.5 L 852.5 175.5 M 0.5 198.5 L 852.5 198.5 M 0.5 210.5 L 852.5 210.5 M 0.5 222.5 L 852.5 222.5 M 0.5 233.5 L 852.5 233.5 M 0.5 257.5 L 852.5 257.5 M 0.5 268.5 L 852.5 268.5 M 0.5 280.5 L 852.5 280.5 M 0.5 292.5 L 852.5 292.5 M 0.5 315.5 L 852.5 315.5 M 0.5 327.5 L 852.5 327.5 M 0.5 338.5 L 852.5 338.5 M 0.5 350.5 L 852.5 350.5 M 0.5 373.5 L 852.5 373.5 M 0.5 385.5 L 852.5 385.5 M 0.5 397.5 L 852.5 397.5 M 0.5 408.5 L 852.5 408.5 M 0.5 432.5 L 852.5 432.5 M 0.5 443.5 L 852.5 443.5 M 0.5 455.5 L 852.5 455.5 M 0.5 467.5 L 852.5 467.5 M 0.5 490.5 L 852.5 490.5 M 0.5 502.5 L 852.5 502.5 M 0.5 513.5 L 852.5 513.5 M 0.5 525.5 L 852.5 525.5" stroke-opacity="0.23529411764705882" stroke-linecap="round" stroke-linejoin="round" stroke-miterlimit="10"/><path fill="none" stroke="rgb(37,37,37)" paint-order="fill stroke markers" d=" M 394.5 2.5 L 394.5 548.5" stroke-opacity="1" stroke-miterlimit="10"/><path fill="none" stroke="rgb(37,37,37)" paint-order="fill stroke markers" d=" M 394.5 1.5 L 390.5 5.5" stroke-opacity="1" stroke-miterlimit="10"/><path fill="none" stroke="rgb(37,37,37)" paint-order="fill stroke markers" d=" M 394.5 1.5 L 398.5 5.5" stroke-opacity="1" stroke-miterlimit="10"/><path fill="none" stroke="rgb(37,37,37)" paint-order="fill stroke markers" d=" M 0.5 303.5 L 850.5 303.5" stroke-opacity="1" stroke-miterlimit="10"/><path fill="none" stroke="rgb(37,37,37)" paint-order="fill stroke markers" d=" M 851.5 303.5 L 847.5 299.5" stroke-opacity="1" stroke-miterlimit="10"/><path fill="none" stroke="rgb(37,37,37)" paint-order="fill stroke markers" d=" M 851.5 303.5 L 847.5 307.5" stroke-opacity="1" stroke-miterlimit="10"/><text fill="rgb(37,37,37)" stroke="none" font-family="geogebra-sans-serif, sans-serif" font-size="12px" font-style="normal" font-weight="normal" text-decoration="normal" x="39" y="319" text-anchor="start" dominant-baseline="alphabetic" fill-opacity="1">–6</text><text fill="none" stroke="rgb(255,255,255)" font-family="geogebra-sans-serif, sans-serif" font-size="12px" font-style="normal" font-weight="normal" text-decoration="normal" x="39" y="319" text-anchor="start" dominant-baseline="alphabetic" stroke-opacity="1" stroke-linejoin="bevel" stroke-miterlimit="10" stroke-width="3">–6</text><text fill="rgb(37,37,37)" stroke="none" font-family="geogebra-sans-serif, sans-serif" font-size="12px" font-style="normal" font-weight="normal" text-decoration="normal" x="39" y="319" text-anchor="start" dominant-baseline="alphabetic" fill-opacity="1">–6</text><text fill="rgb(37,37,37)" stroke="none" font-family="geogebra-sans-serif, sans-serif" font-size="12px" font-style="normal" font-weight="normal" text-decoration="normal" x="98" y="319" text-anchor="start" dominant-baseline="alphabetic" fill-opacity="1">–5</text><text fill="none" stroke="rgb(255,255,255)" font-family="geogebra-sans-serif, sans-serif" font-size="12px" font-style="normal" font-weight="normal" text-decoration="normal" x="98" y="319" text-anchor="start" dominant-baseline="alphabetic" stroke-opacity="1" stroke-linejoin="bevel" stroke-miterlimit="10" stroke-width="3">–5</text><text fill="rgb(37,37,37)" stroke="none" font-family="geogebra-sans-serif, sans-serif" font-size="12px" font-style="normal" font-weight="normal" text-decoration="normal" x="98" y="319" text-anchor="start" dominant-baseline="alphabetic" fill-opacity="1">–5</text><text fill="rgb(37,37,37)" stroke="none" font-family="geogebra-sans-serif, sans-serif" font-size="12px" font-style="normal" font-weight="normal" text-decoration="normal" x="156" y="319" text-anchor="start" dominant-baseline="alphabetic" fill-opacity="1">–4</text><text fill="none" stroke="rgb(255,255,255)" font-family="geogebra-sans-serif, sans-serif" font-size="12px" font-style="normal" font-weight="normal" text-decoration="normal" x="156" y="319" text-anchor="start" dominant-baseline="alphabetic" stroke-opacity="1" stroke-linejoin="bevel" stroke-miterlimit="10" stroke-width="3">–4</text><text fill="rgb(37,37,37)" stroke="none" font-family="geogebra-sans-serif, sans-serif" font-size="12px" font-style="normal" font-weight="normal" text-decoration="normal" x="156" y="319" text-anchor="start" dominant-baseline="alphabetic" fill-opacity="1">–4</text><text fill="rgb(37,37,37)" stroke="none" font-family="geogebra-sans-serif, sans-serif" font-size="12px" font-style="normal" font-weight="normal" text-decoration="normal" x="214" y="319" text-anchor="start" dominant-baseline="alphabetic" fill-opacity="1">–3</text><text fill="none" stroke="rgb(255,255,255)" font-family="geogebra-sans-serif, sans-serif" font-size="12px" font-style="normal" font-weight="normal" text-decoration="normal" x="214" y="319" text-anchor="start" dominant-baseline="alphabetic" stroke-opacity="1" stroke-linejoin="bevel" stroke-miterlimit="10" stroke-width="3">–3</text><text fill="rgb(37,37,37)" stroke="none" font-family="geogebra-sans-serif, sans-serif" font-size="12px" font-style="normal" font-weight="normal" text-decoration="normal" x="214" y="319" text-anchor="start" dominant-baseline="alphabetic" fill-opacity="1">–3</text><text fill="rgb(37,37,37)" stroke="none" font-family="geogebra-sans-serif, sans-serif" font-size="12px" font-style="normal" font-weight="normal" text-decoration="normal" x="273" y="319" text-anchor="start" dominant-baseline="alphabetic" fill-opacity="1">–2</text><text fill="none" stroke="rgb(255,255,255)" font-family="geogebra-sans-serif, sans-serif" font-size="12px" font-style="normal" font-weight="normal" text-decoration="normal" x="273" y="319" text-anchor="start" dominant-baseline="alphabetic" stroke-opacity="1" stroke-linejoin="bevel" stroke-miterlimit="10" stroke-width="3">–2</text><text fill="rgb(37,37,37)" stroke="none" font-family="geogebra-sans-serif, sans-serif" font-size="12px" font-style="normal" font-weight="normal" text-decoration="normal" x="273" y="319" text-anchor="start" dominant-baseline="alphabetic" fill-opacity="1">–2</text><text fill="rgb(37,37,37)" stroke="none" font-family="geogebra-sans-serif, sans-serif" font-size="12px" font-style="normal" font-weight="normal" text-decoration="normal" x="331" y="319" text-anchor="start" dominant-baseline="alphabetic" fill-opacity="1">–1</text><text fill="none" stroke="rgb(255,255,255)" font-family="geogebra-sans-serif, sans-serif" font-size="12px" font-style="normal" font-weight="normal" text-decoration="normal" x="331" y="319" text-anchor="start" dominant-baseline="alphabetic" stroke-opacity="1" stroke-linejoin="bevel" stroke-miterlimit="10" stroke-width="3">–1</text><text fill="rgb(37,37,37)" stroke="none" font-family="geogebra-sans-serif, sans-serif" font-size="12px" font-style="normal" font-weight="normal" text-decoration="normal" x="331" y="319" text-anchor="start" dominant-baseline="alphabetic" fill-opacity="1">–1</text><text fill="rgb(37,37,37)" stroke="none" font-family="geogebra-sans-serif, sans-serif" font-size="12px" font-style="normal" font-weight="normal" text-decoration="normal" x="451" y="319" text-anchor="start" dominant-baseline="alphabetic" fill-opacity="1">1</text><text fill="none" stroke="rgb(255,255,255)" font-family="geogebra-sans-serif, sans-serif" font-size="12px" font-style="normal" font-weight="normal" text-decoration="normal" x="451" y="319" text-anchor="start" dominant-baseline="alphabetic" stroke-opacity="1" stroke-linejoin="bevel" stroke-miterlimit="10" stroke-width="3">1</text><text fill="rgb(37,37,37)" stroke="none" font-family="geogebra-sans-serif, sans-serif" font-size="12px" font-style="normal" font-weight="normal" text-decoration="normal" x="451" y="319" text-anchor="start" dominant-baseline="alphabetic" fill-opacity="1">1</text><text fill="rgb(37,37,37)" stroke="none" font-family="geogebra-sans-serif, sans-serif" font-size="12px" font-style="normal" font-weight="normal" text-decoration="normal" x="509" y="319" text-anchor="start" dominant-baseline="alphabetic" fill-opacity="1">2</text><text fill="none" stroke="rgb(255,255,255)" font-family="geogebra-sans-serif, sans-serif" font-size="12px" font-style="normal" font-weight="normal" text-decoration="normal" x="509" y="319" text-anchor="start" dominant-baseline="alphabetic" stroke-opacity="1" stroke-linejoin="bevel" stroke-miterlimit="10" stroke-width="3">2</text><text fill="rgb(37,37,37)" stroke="none" font-family="geogebra-sans-serif, sans-serif" font-size="12px" font-style="normal" font-weight="normal" text-decoration="normal" x="509" y="319" text-anchor="start" dominant-baseline="alphabetic" fill-opacity="1">2</text><text fill="rgb(37,37,37)" stroke="none" font-family="geogebra-sans-serif, sans-serif" font-size="12px" font-style="normal" font-weight="normal" text-decoration="normal" x="567" y="319" text-anchor="start" dominant-baseline="alphabetic" fill-opacity="1">3</text><text fill="none" stroke="rgb(255,255,255)" font-family="geogebra-sans-serif, sans-serif" font-size="12px" font-style="normal" font-weight="normal" text-decoration="normal" x="567" y="319" text-anchor="start" dominant-baseline="alphabetic" stroke-opacity="1" stroke-linejoin="bevel" stroke-miterlimit="10" stroke-width="3">3</text><text fill="rgb(37,37,37)" stroke="none" font-family="geogebra-sans-serif, sans-serif" font-size="12px" font-style="normal" font-weight="normal" text-decoration="normal" x="567" y="319" text-anchor="start" dominant-baseline="alphabetic" fill-opacity="1">3</text><text fill="rgb(37,37,37)" stroke="none" font-family="geogebra-sans-serif, sans-serif" font-size="12px" font-style="normal" font-weight="normal" text-decoration="normal" x="625" y="319" text-anchor="start" dominant-baseline="alphabetic" fill-opacity="1">4</text><text fill="none" stroke="rgb(255,255,255)" font-family="geogebra-sans-serif, sans-serif" font-size="12px" font-style="normal" font-weight="normal" text-decoration="normal" x="625" y="319" text-anchor="start" dominant-baseline="alphabetic" stroke-opacity="1" stroke-linejoin="bevel" stroke-miterlimit="10" stroke-width="3">4</text><text fill="rgb(37,37,37)" stroke="none" font-family="geogebra-sans-serif, sans-serif" font-size="12px" font-style="normal" font-weight="normal" text-decoration="normal" x="625" y="319" text-anchor="start" dominant-baseline="alphabetic" fill-opacity="1">4</text><text fill="rgb(37,37,37)" stroke="none" font-family="geogebra-sans-serif, sans-serif" font-size="12px" font-style="normal" font-weight="normal" text-decoration="normal" x="684" y="319" text-anchor="start" dominant-baseline="alphabetic" fill-opacity="1">5</text><text fill="none" stroke="rgb(255,255,255)" font-family="geogebra-sans-serif, sans-serif" font-size="12px" font-style="normal" font-weight="normal" text-decoration="normal" x="684" y="319" text-anchor="start" dominant-baseline="alphabetic" stroke-opacity="1" stroke-linejoin="bevel" stroke-miterlimit="10" stroke-width="3">5</text><text fill="rgb(37,37,37)" stroke="none" font-family="geogebra-sans-serif, sans-serif" font-size="12px" font-style="normal" font-weight="normal" text-decoration="normal" x="684" y="319" text-anchor="start" dominant-baseline="alphabetic" fill-opacity="1">5</text><text fill="rgb(37,37,37)" stroke="none" font-family="geogebra-sans-serif, sans-serif" font-size="12px" font-style="normal" font-weight="normal" text-decoration="normal" x="742" y="319" text-anchor="start" dominant-baseline="alphabetic" fill-opacity="1">6</text><text fill="none" stroke="rgb(255,255,255)" font-family="geogebra-sans-serif, sans-serif" font-size="12px" font-style="normal" font-weight="normal" text-decoration="normal" x="742" y="319" text-anchor="start" dominant-baseline="alphabetic" stroke-opacity="1" stroke-linejoin="bevel" stroke-miterlimit="10" stroke-width="3">6</text><text fill="rgb(37,37,37)" stroke="none" font-family="geogebra-sans-serif, sans-serif" font-size="12px" font-style="normal" font-weight="normal" text-decoration="normal" x="742" y="319" text-anchor="start" dominant-baseline="alphabetic" fill-opacity="1">6</text><text fill="rgb(37,37,37)" stroke="none" font-family="geogebra-sans-serif, sans-serif" font-size="12px" font-style="normal" font-weight="normal" text-decoration="normal" x="800" y="319" text-anchor="start" dominant-baseline="alphabetic" fill-opacity="1">7</text><text fill="none" stroke="rgb(255,255,255)" font-family="geogebra-sans-serif, sans-serif" font-size="12px" font-style="normal" font-weight="normal" text-decoration="normal" x="800" y="319" text-anchor="start" dominant-baseline="alphabetic" stroke-opacity="1" stroke-linejoin="bevel" stroke-miterlimit="10" stroke-width="3">7</text><text fill="rgb(37,37,37)" stroke="none" font-family="geogebra-sans-serif, sans-serif" font-size="12px" font-style="normal" font-weight="normal" text-decoration="normal" x="800" y="319" text-anchor="start" dominant-baseline="alphabetic" fill-opacity="1">7</text><text fill="rgb(37,37,37)" stroke="none" font-family="geogebra-sans-serif, sans-serif" font-size="12px" font-style="normal" font-weight="normal" text-decoration="normal" x="374" y="541" text-anchor="start" dominant-baseline="alphabetic" fill-opacity="1">–4</text><text fill="none" stroke="rgb(255,255,255)" font-family="geogebra-sans-serif, sans-serif" font-size="12px" font-style="normal" font-weight="normal" text-decoration="normal" x="374" y="541" text-anchor="start" dominant-baseline="alphabetic" stroke-opacity="1" stroke-linejoin="bevel" stroke-miterlimit="10" stroke-width="3">–4</text><text fill="rgb(37,37,37)" stroke="none" font-family="geogebra-sans-serif, sans-serif" font-size="12px" font-style="normal" font-weight="normal" text-decoration="normal" x="374" y="541" text-anchor="start" dominant-baseline="alphabetic" fill-opacity="1">–4</text><text fill="rgb(37,37,37)" stroke="none" font-family="geogebra-sans-serif, sans-serif" font-size="12px" font-style="normal" font-weight="normal" text-decoration="normal" x="374" y="483" text-anchor="start" dominant-baseline="alphabetic" fill-opacity="1">–3</text><text fill="none" stroke="rgb(255,255,255)" font-family="geogebra-sans-serif, sans-serif" font-size="12px" font-style="normal" font-weight="normal" text-decoration="normal" x="374" y="483" text-anchor="start" dominant-baseline="alphabetic" stroke-opacity="1" stroke-linejoin="bevel" stroke-miterlimit="10" stroke-width="3">–3</text><text fill="rgb(37,37,37)" stroke="none" font-family="geogebra-sans-serif, sans-serif" font-size="12px" font-style="normal" font-weight="normal" text-decoration="normal" x="374" y="483" text-anchor="start" dominant-baseline="alphabetic" fill-opacity="1">–3</text><text fill="rgb(37,37,37)" stroke="none" font-family="geogebra-sans-serif, sans-serif" font-size="12px" font-style="normal" font-weight="normal" text-decoration="normal" x="374" y="425" text-anchor="start" dominant-baseline="alphabetic" fill-opacity="1">–2</text><text fill="none" stroke="rgb(255,255,255)" font-family="geogebra-sans-serif, sans-serif" font-size="12px" font-style="normal" font-weight="normal" text-decoration="normal" x="374" y="425" text-anchor="start" dominant-baseline="alphabetic" stroke-opacity="1" stroke-linejoin="bevel" stroke-miterlimit="10" stroke-width="3">–2</text><text fill="rgb(37,37,37)" stroke="none" font-family="geogebra-sans-serif, sans-serif" font-size="12px" font-style="normal" font-weight="normal" text-decoration="normal" x="374" y="425" text-anchor="start" dominant-baseline="alphabetic" fill-opacity="1">–2</text><text fill="rgb(37,37,37)" stroke="none" font-family="geogebra-sans-serif, sans-serif" font-size="12px" font-style="normal" font-weight="normal" text-decoration="normal" x="374" y="367" text-anchor="start" dominant-baseline="alphabetic" fill-opacity="1">–1</text><text fill="none" stroke="rgb(255,255,255)" font-family="geogebra-sans-serif, sans-serif" font-size="12px" font-style="normal" font-weight="normal" text-decoration="normal" x="374" y="367" text-anchor="start" dominant-baseline="alphabetic" stroke-opacity="1" stroke-linejoin="bevel" stroke-miterlimit="10" stroke-width="3">–1</text><text fill="rgb(37,37,37)" stroke="none" font-family="geogebra-sans-serif, sans-serif" font-size="12px" font-style="normal" font-weight="normal" text-decoration="normal" x="374" y="367" text-anchor="start" dominant-baseline="alphabetic" fill-opacity="1">–1</text><text fill="rgb(37,37,37)" stroke="none" font-family="geogebra-sans-serif, sans-serif" font-size="12px" font-style="normal" font-weight="normal" text-decoration="normal" x="380" y="250" text-anchor="start" dominant-baseline="alphabetic" fill-opacity="1">1</text><text fill="none" stroke="rgb(255,255,255)" font-family="geogebra-sans-serif, sans-serif" font-size="12px" font-style="normal" font-weight="normal" text-decoration="normal" x="380" y="250" text-anchor="start" dominant-baseline="alphabetic" stroke-opacity="1" stroke-linejoin="bevel" stroke-miterlimit="10" stroke-width="3">1</text><text fill="rgb(37,37,37)" stroke="none" font-family="geogebra-sans-serif, sans-serif" font-size="12px" font-style="normal" font-weight="normal" text-decoration="normal" x="380" y="250" text-anchor="start" dominant-baseline="alphabetic" fill-opacity="1">1</text><text fill="rgb(37,37,37)" stroke="none" font-family="geogebra-sans-serif, sans-serif" font-size="12px" font-style="normal" font-weight="normal" text-decoration="normal" x="380" y="192" text-anchor="start" dominant-baseline="alphabetic" fill-opacity="1">2</text><text fill="none" stroke="rgb(255,255,255)" font-family="geogebra-sans-serif, sans-serif" font-size="12px" font-style="normal" font-weight="normal" text-decoration="normal" x="380" y="192" text-anchor="start" dominant-baseline="alphabetic" stroke-opacity="1" stroke-linejoin="bevel" stroke-miterlimit="10" stroke-width="3">2</text><text fill="rgb(37,37,37)" stroke="none" font-family="geogebra-sans-serif, sans-serif" font-size="12px" font-style="normal" font-weight="normal" text-decoration="normal" x="380" y="192" text-anchor="start" dominant-baseline="alphabetic" fill-opacity="1">2</text><text fill="rgb(37,37,37)" stroke="none" font-family="geogebra-sans-serif, sans-serif" font-size="12px" font-style="normal" font-weight="normal" text-decoration="normal" x="380" y="133" text-anchor="start" dominant-baseline="alphabetic" fill-opacity="1">3</text><text fill="none" stroke="rgb(255,255,255)" font-family="geogebra-sans-serif, sans-serif" font-size="12px" font-style="normal" font-weight="normal" text-decoration="normal" x="380" y="133" text-anchor="start" dominant-baseline="alphabetic" stroke-opacity="1" stroke-linejoin="bevel" stroke-miterlimit="10" stroke-width="3">3</text><text fill="rgb(37,37,37)" stroke="none" font-family="geogebra-sans-serif, sans-serif" font-size="12px" font-style="normal" font-weight="normal" text-decoration="normal" x="380" y="133" text-anchor="start" dominant-baseline="alphabetic" fill-opacity="1">3</text><text fill="rgb(37,37,37)" stroke="none" font-family="geogebra-sans-serif, sans-serif" font-size="12px" font-style="normal" font-weight="normal" text-decoration="normal" x="380" y="75" text-anchor="start" dominant-baseline="alphabetic" fill-opacity="1">4</text><text fill="none" stroke="rgb(255,255,255)" font-family="geogebra-sans-serif, sans-serif" font-size="12px" font-style="normal" font-weight="normal" text-decoration="normal" x="380" y="75" text-anchor="start" dominant-baseline="alphabetic" stroke-opacity="1" stroke-linejoin="bevel" stroke-miterlimit="10" stroke-width="3">4</text><text fill="rgb(37,37,37)" stroke="none" font-family="geogebra-sans-serif, sans-serif" font-size="12px" font-style="normal" font-weight="normal" text-decoration="normal" x="380" y="75" text-anchor="start" dominant-baseline="alphabetic" fill-opacity="1">4</text><text fill="rgb(37,37,37)" stroke="none" font-family="geogebra-sans-serif, sans-serif" font-size="12px" font-style="normal" font-weight="normal" text-decoration="normal" x="380" y="17" text-anchor="start" dominant-baseline="alphabetic" fill-opacity="1">5</text><text fill="none" stroke="rgb(255,255,255)" font-family="geogebra-sans-serif, sans-serif" font-size="12px" font-style="normal" font-weight="normal" text-decoration="normal" x="380" y="17" text-anchor="start" dominant-baseline="alphabetic" stroke-opacity="1" stroke-linejoin="bevel" stroke-miterlimit="10" stroke-width="3">5</text><text fill="rgb(37,37,37)" stroke="none" font-family="geogebra-sans-serif, sans-serif" font-size="12px" font-style="normal" font-weight="normal" text-decoration="normal" x="380" y="17" text-anchor="start" dominant-baseline="alphabetic" fill-opacity="1">5</text><text fill="rgb(37,37,37)" stroke="none" font-family="geogebra-sans-serif, sans-serif" font-size="12px" font-style="normal" font-weight="normal" text-decoration="normal" x="380" y="319" text-anchor="start" dominant-baseline="alphabetic" fill-opacity="1">0</text><text fill="none" stroke="rgb(255,255,255)" font-family="geogebra-sans-serif, sans-serif" font-size="12px" font-style="normal" font-weight="normal" text-decoration="normal" x="380" y="319" text-anchor="start" dominant-baseline="alphabetic" stroke-opacity="1" stroke-linejoin="bevel" stroke-miterlimit="10" stroke-width="3">0</text><text fill="rgb(37,37,37)" stroke="none" font-family="geogebra-sans-serif, sans-serif" font-size="12px" font-style="normal" font-weight="normal" text-decoration="normal" x="380" y="319" text-anchor="start" dominant-baseline="alphabetic" fill-opacity="1">0</text><path fill="none" stroke="rgb(211,47,47)" paint-order="fill stroke markers" d=" M 1.0000000000000568 -90.96999999999997 L 1.0000000000000568 -89.96999999999997 L 1.0000000000000568 -89.96999999999997 L 2 -88.96999999999997 L 2 -88.96999999999997 L 3.000000000000057 -87.96999999999997 L 3.000000000000057 -87.96999999999997 L 4.000000000000057 -86.96999999999997 L 4.000000000000057 -86.96999999999997 L 5 -85.96999999999997 L 5 -85.96999999999997 L 6.000000000000057 -84.96999999999997 L 6.000000000000057 -84.96999999999997 L 7 -83.96999999999997 L 7 -83.96999999999997 L 8.000000000000057 -82.96999999999997 L 8.000000000000057 -82.96999999999997 L 9.000000000000057 -81.96999999999997 L 9.000000000000057 -81.96999999999997 L 10 -80.96999999999997 L 10 -80.96999999999997 L 11.000000000000057 -79.96999999999997 L 11.000000000000057 -79.96999999999997 L 12 -78.96999999999997 L 12 -78.96999999999997 L 13.000000000000057 -77.96999999999997 L 13.000000000000057 -77.96999999999997 L 14 -76.96999999999997 L 14 -76.96999999999997 L 15 -75.96999999999997 L 15 -75.96999999999997 L 16.000000000000057 -74.96999999999997 L 16.000000000000057 -74.96999999999997 L 17 -73.96999999999997 L 17 -73.96999999999997 L 18.000000000000057 -72.96999999999997 L 18.000000000000057 -72.96999999999997 L 19 -71.96999999999997 L 19 -71.96999999999997 L 20 -70.97000000000003 L 20 -70.97000000000003 L 21.000000000000057 -69.96999999999997 L 21.000000000000057 -69.96999999999997 L 22 -68.96999999999997 L 22 -68.96999999999997 L 23.000000000000057 -67.96999999999997 L 23.000000000000057 -67.96999999999997 L 24 -66.96999999999997 L 24 -66.96999999999997 L 25.000000000000057 -65.96999999999997 L 25.000000000000057 -65.96999999999997 L 26.000000000000057 -64.96999999999997 L 26.000000000000057 -64.96999999999997 L 27 -63.96999999999997 L 27 -63.96999999999997 L 28.000000000000057 -62.96999999999997 L 28.000000000000057 -62.96999999999997 L 29 -61.96999999999997 L 29 -61.96999999999997 L 30.000000000000057 -60.96999999999997 L 30.000000000000057 -60.96999999999997 L 31 -59.96999999999997 L 31 -59.96999999999997 L 32 -58.97000000000003 L 32 -58.97000000000003 L 33.00000000000006 -57.96999999999997 L 33.00000000000006 -57.96999999999997 L 34 -56.96999999999997 L 34 -56.96999999999997 L 35.00000000000006 -55.96999999999997 L 35.00000000000006 -55.96999999999997 L 36 -54.96999999999997 L 36 -54.96999999999997 L 37 -53.97000000000003 L 37 -53.97000000000003 L 38.00000000000006 -52.96999999999997 L 38.00000000000006 -52.96999999999997 L 39 -51.97000000000003 L 39 -51.97000000000003 L 40.00000000000006 -50.96999999999997 L 40.00000000000006 -50.96999999999997 L 41 -49.96999999999997 L 41 -49.96999999999997 L 42 -48.97000000000003 L 42 -48.97000000000003 L 43.00000000000006 -47.96999999999997 L 43.00000000000006 -47.96999999999997 L 44 -46.97000000000003 L 44 -46.97000000000003 L 45.00000000000006 -45.96999999999997 L 45.00000000000006 -45.96999999999997 L 46 -44.96999999999997 L 46 -44.96999999999997 L 47.00000000000006 -43.96999999999997 L 47.00000000000006 -43.96999999999997 L 48 -42.96999999999997 L 48 -42.96999999999997 L 49 -41.97000000000003 L 49 -41.97000000000003 L 50.00000000000006 -40.96999999999997 L 50.00000000000006 -40.96999999999997 L 51 -39.97000000000003 L 51 -39.97000000000003 L 52.00000000000006 -38.96999999999997 L 52.00000000000006 -38.96999999999997 L 53 -37.96999999999997 L 53 -37.96999999999997 L 54 -36.97000000000003 L 54 -36.97000000000003 L 55.00000000000006 -35.96999999999997 L 55.00000000000006 -35.96999999999997 L 56 -34.97000000000003 L 56 -34.97000000000003 L 57.00000000000006 -33.96999999999997 L 57.00000000000006 -33.96999999999997 L 58 -32.96999999999997 L 58 -32.96999999999997 L 59 -31.970000000000027 L 59 -31.970000000000027 L 60.00000000000006 -30.96999999999997 L 60.00000000000006 -30.96999999999997 L 61 -29.970000000000027 L 61 -29.970000000000027 L 62.00000000000006 -28.96999999999997 L 62.00000000000006 -28.96999999999997 L 63 -27.970000000000027 L 63 -27.970000000000027 L 64.00000000000006 -26.96999999999997 L 64.00000000000006 -26.96999999999997 L 65 -25.96999999999997 L 65 -25.96999999999997 L 66 -24.970000000000027 L 66 -24.970000000000027 L 67.00000000000006 -23.96999999999997 L 67.00000000000006 -23.96999999999997 L 68 -22.970000000000027 L 68 -22.970000000000027 L 69.00000000000006 -21.96999999999997 L 69.00000000000006 -21.96999999999997 L 70 -20.96999999999997 L 70 -20.96999999999997 L 71 -19.970000000000027 L 71 -19.970000000000027 L 72.00000000000006 -18.96999999999997 L 72.00000000000006 -18.96999999999997 L 73 -17.970000000000027 L 73 -17.970000000000027 L 74.00000000000006 -16.96999999999997 L 74.00000000000006 -16.96999999999997 L 75 -15.970000000000027 L 75 -15.970000000000027 L 76 -14.970000000000027 L 76 -14.970000000000027 L 77.00000000000006 -13.96999999999997 L 77.00000000000006 -13.96999999999997 L 78 -12.970000000000027 L 78 -12.970000000000027 L 79.00000000000006 -11.96999999999997 L 79.00000000000006 -11.96999999999997 L 80 -10.970000000000027 L 80 -10.970000000000027 L 81 -9.970000000000027 L 81 -9.970000000000027 L 82 -8.970000000000027 L 82 -8.970000000000027 L 83 -7.970000000000027 L 83 -7.970000000000027 L 84.00000000000006 -6.96999999999997 L 84.00000000000006 -6.96999999999997 L 85 -5.970000000000027 L 85 -5.970000000000027 L 86.00000000000006 -4.96999999999997 L 86.00000000000006 -4.96999999999997 L 87 -3.9700000000000273 L 87 -3.9700000000000273 L 88 -2.9700000000000273 L 88 -2.9700000000000273 L 89.00000000000006 -1.9699999999999704 L 89.00000000000006 -1.9699999999999704 L 90 -0.9700000000000273 L 90 -0.9700000000000273 L 91.00000000000006 0.03000000000002956 L 91.00000000000006 0.03000000000002956 L 92 1.0299999999999727 L 92 1.0299999999999727 L 93 2.0299999999999727 L 93 2.0299999999999727 L 94.00000000000006 3.0299999999999727 L 94.00000000000006 3.0299999999999727 L 95 4.029999999999973 L 95 4.029999999999973 L 96.00000000000006 5.03000000000003 L 96.00000000000006 5.03000000000003 L 97 6.029999999999973 L 97 6.029999999999973 L 98 7.029999999999973 L 98 7.029999999999973 L 99 8.029999999999973 L 99 8.029999999999973 L 100 9.029999999999973 L 100 9.029999999999973 L 101.00000000000006 10.03000000000003 L 101.00000000000006 10.03000000000003 L 102 11.029999999999973 L 102 11.029999999999973 L 103.00000000000006 12.03000000000003 L 103.00000000000006 12.03000000000003 L 104 13.029999999999973 L 104 13.029999999999973 L 105 14.029999999999973 L 105 14.029999999999973 L 106.00000000000006 15.029999999999973 L 106.00000000000006 15.029999999999973 L 107 16.029999999999973 L 107 16.029999999999973 L 108.00000000000006 17.03000000000003 L 108.00000000000006 17.03000000000003 L 109 18.029999999999973 L 109 18.029999999999973 L 110 19.029999999999973 L 110 19.029999999999973 L 111.00000000000006 20.029999999999973 L 111.00000000000006 20.029999999999973 L 112 21.029999999999973 L 112 21.029999999999973 L 113.00000000000006 22.029999999999973 L 113.00000000000006 22.029999999999973 L 114 23.029999999999973 L 114 23.029999999999973 L 115 24.029999999999973 L 115 24.029999999999973 L 116 25.029999999999973 L 116 25.029999999999973 L 117 26.029999999999973 L 117 26.029999999999973 L 118.00000000000006 27.029999999999973 L 118.00000000000006 27.029999999999973 L 119 28.029999999999973 L 119 28.029999999999973 L 120 29.029999999999973 L 120 29.029999999999973 L 121 30.029999999999973 L 121 30.029999999999973 L 122 31.029999999999973 L 122 31.029999999999973 L 123.00000000000006 32.02999999999997 L 123.00000000000006 32.02999999999997 L 124 33.02999999999997 L 124 33.02999999999997 L 125.00000000000006 34.02999999999997 L 125.00000000000006 34.02999999999997 L 126 35.02999999999997 L 126 35.02999999999997 L 127 36.02999999999997 L 127 36.02999999999997 L 128.00000000000006 37.02999999999997 L 128.00000000000006 37.02999999999997 L 129 38.02999999999997 L 129 38.02999999999997 L 130.00000000000006 39.02999999999997 L 130.00000000000006 39.02999999999997 L 131 40.02999999999997 L 131 40.02999999999997 L 132 41.02999999999997 L 132 41.02999999999997 L 133 42.02999999999997 L 133 42.02999999999997 L 134 43.02999999999997 L 134 43.02999999999997 L 135.00000000000006 44.02999999999997 L 135.00000000000006 44.02999999999997 L 136 45.02999999999997 L 136 45.02999999999997 L 137 46.02999999999997 L 137 46.02999999999997 L 138 47.02999999999997 L 138 47.02999999999997 L 139 48.029999999999944 L 139 48.029999999999944 L 140.00000000000003 49.02999999999997 L 140.00000000000003 49.02999999999997 L 141 50.02999999999997 L 141 50.02999999999997 L 142.00000000000003 51.03 L 142.00000000000003 51.03 L 143.00000000000003 52.02999999999997 L 143.00000000000003 52.02999999999997 L 144 53.029999999999944 L 144 53.029999999999944 L 145.00000000000003 54.02999999999997 L 145.00000000000003 54.02999999999997 L 146 55.029999999999944 L 146 55.029999999999944 L 147.00000000000003 56.03 L 147.00000000000003 56.03 L 148.00000000000003 57.02999999999997 L 148.00000000000003 57.02999999999997 L 149 58.029999999999944 L 149 58.029999999999944 L 150.00000000000003 59.02999999999997 L 150.00000000000003 59.02999999999997 L 151 60.029999999999944 L 151 60.029999999999944 L 152.00000000000003 61.02999999999997 L 152.00000000000003 61.02999999999997 L 153 62.02999999999997 L 153 62.02999999999997 L 154 63.029999999999944 L 154 63.029999999999944 L 155.00000000000003 64.02999999999997 L 155.00000000000003 64.02999999999997 L 156 65.02999999999994 L 156 65.02999999999994 L 157.00000000000003 66.02999999999997 L 157.00000000000003 66.02999999999997 L 158 67.02999999999994 L 158 67.02999999999994 L 159 68.02999999999994 L 159 68.02999999999994 L 160.00000000000003 69.02999999999997 L 160.00000000000003 69.02999999999997 L 161 70.02999999999994 L 161 70.02999999999994 L 162.00000000000003 71.02999999999997 L 162.00000000000003 71.02999999999997 L 163 72.02999999999994 L 163 72.02999999999994 L 164.00000000000003 73.02999999999997 L 164.00000000000003 73.02999999999997 L 165.00000000000003 74.02999999999997 L 165.00000000000003 74.02999999999997 L 166 75.02999999999994 L 166 75.02999999999994 L 167.00000000000003 76.02999999999997 L 167.00000000000003 76.02999999999997 L 168 77.02999999999994 L 168 77.02999999999994 L 169.00000000000003 78.02999999999997 L 169.00000000000003 78.02999999999997 L 170 79.02999999999994 L 170 79.02999999999994 L 171 80.02999999999994 L 171 80.02999999999994 L 172.00000000000003 81.02999999999997 L 172.00000000000003 81.02999999999997 L 173 82.02999999999994 L 173 82.02999999999994 L 174.00000000000003 83.02999999999997 L 174.00000000000003 83.02999999999997 L 175 84.02999999999994 L 175 84.02999999999994 L 176 85.02999999999992 L 176 85.02999999999992 L 177.00000000000003 86.02999999999994 L 177.00000000000003 86.02999999999994 L 178 87.02999999999994 L 178 87.02999999999994 L 179.00000000000003 88.02999999999997 L 179.00000000000003 88.02999999999997 L 180 89.02999999999994 L 180 89.02999999999994 L 181.00000000000003 90.02999999999997 L 181.00000000000003 90.02999999999997 L 182.00000000000003 91.02999999999994 L 182.00000000000003 91.02999999999994 L 183 92.02999999999994 L 183 92.02999999999994 L 184.00000000000003 93.02999999999997 L 184.00000000000003 93.02999999999997 L 185 94.02999999999994 L 185 94.02999999999994 L 186.00000000000003 95.02999999999997 L 186.00000000000003 95.02999999999997 L 187 96.02999999999994 L 187 96.02999999999994 L 188 97.02999999999992 L 188 97.02999999999992 L 189.00000000000003 98.02999999999994 L 189.00000000000003 98.02999999999994 L 190 99.02999999999994 L 190 99.02999999999994 L 191.00000000000003 100.02999999999997 L 191.00000000000003 100.02999999999997 L 192 101.02999999999994 L 192 101.02999999999994 L 193.00000000000003 102.02999999999994 L 193.00000000000003 102.02999999999994 L 194.00000000000003 103.02999999999994 L 194.00000000000003 103.02999999999994 L 195.00000000000003 104.02999999999994 L 195.00000000000003 104.02999999999994 L 196 105.02999999999994 L 196 105.02999999999994 L 197 106.02999999999994 L 197 106.02999999999994 L 198 107.02999999999994 L 198 107.02999999999994 L 199.00000000000003 108.02999999999994 L 199.00000000000003 108.02999999999994 L 200.00000000000003 109.02999999999994 L 200.00000000000003 109.02999999999994 L 201 110.02999999999992 L 201 110.02999999999992 L 202 111.02999999999994 L 202 111.02999999999994 L 203 112.02999999999994 L 203 112.02999999999994 L 204 113.02999999999994 L 204 113.02999999999994 L 205.00000000000003 114.02999999999994 L 205.00000000000003 114.02999999999994 L 206.00000000000003 115.02999999999994 L 206.00000000000003 115.02999999999994 L 207 116.02999999999992 L 207 116.02999999999992 L 208 117.02999999999994 L 208 117.02999999999994 L 209 118.02999999999994 L 209 118.02999999999994 L 210.00000000000003 119.02999999999994 L 210.00000000000003 119.02999999999994 L 211.00000000000003 120.02999999999994 L 211.00000000000003 120.02999999999994 L 212 121.02999999999992 L 212 121.02999999999992 L 213 122.02999999999992 L 213 122.02999999999992 L 214 123.02999999999994 L 214 123.02999999999994 L 215 124.02999999999994 L 215 124.02999999999994 L 216.00000000000003 125.02999999999994 L 216.00000000000003 125.02999999999994 L 217.00000000000003 126.02999999999994 L 217.00000000000003 126.02999999999994 L 218 127.02999999999992 L 218 127.02999999999992 L 219 128.02999999999992 L 219 128.02999999999992 L 220 129.02999999999994 L 220 129.02999999999994 L 221 130.02999999999994 L 221 130.02999999999994 L 222.00000000000003 131.02999999999994 L 222.00000000000003 131.02999999999994 L 223 132.02999999999992 L 223 132.02999999999992 L 224 133.02999999999992 L 224 133.02999999999992 L 225 134.02999999999992 L 225 134.02999999999992 L 226 135.02999999999994 L 226 135.02999999999994 L 227.00000000000003 136.02999999999994 L 227.00000000000003 136.02999999999994 L 228.00000000000003 137.02999999999994 L 228.00000000000003 137.02999999999994 L 229 138.02999999999992 L 229 138.02999999999992 L 230 139.02999999999992 L 230 139.02999999999992 L 231 140.02999999999992 L 231 140.02999999999992 L 232 141.02999999999992 L 232 141.02999999999992 L 233.00000000000003 142.02999999999994 L 233.00000000000003 142.02999999999994 L 234 143.02999999999992 L 234 143.02999999999992 L 235 144.02999999999992 L 235 144.02999999999992 L 236 145.02999999999992 L 236 145.02999999999992 L 237 146.02999999999992 L 237 146.02999999999992 L 238 147.02999999999992 L 238 147.02999999999992 L 239.00000000000003 148.02999999999994 L 239.00000000000003 148.02999999999994 L 240 149.02999999999992 L 240 149.02999999999992 L 241 150.02999999999992 L 241 150.02999999999992 L 242 151.02999999999992 L 242 151.02999999999992 L 243 152.02999999999992 L 243 152.02999999999992 L 244.00000000000003 153.02999999999992 L 244.00000000000003 153.02999999999992 L 245.00000000000003 154.02999999999994 L 245.00000000000003 154.02999999999994 L 246 155.02999999999992 L 246 155.02999999999992 L 247 156.02999999999992 L 247 156.02999999999992 L 248 157.02999999999992 L 248 157.02999999999992 L 249 158.02999999999992 L 249 158.02999999999992 L 250.00000000000003 159.02999999999992 L 250.00000000000003 159.02999999999992 L 251 160.02999999999992 L 251 160.02999999999992 L 252 161.02999999999992 L 252 161.02999999999992 L 253 162.02999999999992 L 253 162.02999999999992 L 254 163.02999999999992 L 254 163.02999999999992 L 255 164.02999999999992 L 255 164.02999999999992 L 256 165.02999999999992 L 256 165.02999999999992 L 257 166.02999999999992 L 257 166.02999999999992 L 258 167.02999999999992 L 258 167.02999999999992 L 259 168.02999999999992 L 259 168.02999999999992 L 260 169.02999999999992 L 260 169.02999999999992 L 261 170.02999999999992 L 261 170.02999999999992 L 262 171.0299999999999 L 262 171.0299999999999 L 263 172.02999999999992 L 263 172.02999999999992 L 264 173.02999999999992 L 264 173.02999999999992 L 265 174.02999999999992 L 265 174.02999999999992 L 266 175.02999999999992 L 266 175.02999999999992 L 267 176.02999999999992 L 267 176.02999999999992 L 268 177.02999999999992 L 268 177.02999999999992 L 269 178.02999999999992 L 269 178.02999999999992 L 270 179.02999999999992 L 270 179.02999999999992 L 271 180.02999999999992 L 271 180.02999999999992 L 272 181.02999999999992 L 272 181.02999999999992 L 273 182.02999999999992 L 273 182.02999999999992 L 274 183.02999999999992 L 274 183.02999999999992 L 275 184.02999999999992 L 275 184.02999999999992 L 276 185.02999999999992 L 276 185.02999999999992 L 277 186.02999999999992 L 277 186.02999999999992 L 278 187.02999999999992 L 278 187.02999999999992 L 279 188.0299999999999 L 279 188.0299999999999 L 280 189.02999999999992 L 280 189.02999999999992 L 281 190.02999999999992 L 281 190.02999999999992 L 282 191.02999999999992 L 282 191.02999999999992 L 283 192.02999999999992 L 283 192.02999999999992 L 284 193.02999999999992 L 284 193.02999999999992 L 285 194.0299999999999 L 285 194.0299999999999 L 286 195.02999999999992 L 286 195.02999999999992 L 287 196.02999999999992 L 287 196.02999999999992 L 288 197.02999999999992 L 288 197.02999999999992 L 289 198.02999999999992 L 289 198.02999999999992 L 290 199.0299999999999 L 290 199.0299999999999 L 291 200.0299999999999 L 291 200.0299999999999 L 292 201.02999999999992 L 292 201.02999999999992 L 293 202.02999999999992 L 293 202.02999999999992 L 294 203.02999999999992 L 294 203.02999999999992 L 295 204.02999999999992 L 295 204.02999999999992 L 296 205.0299999999999 L 296 205.0299999999999 L 297 206.0299999999999 L 297 206.0299999999999 L 298 207.02999999999992 L 298 207.02999999999992 L 299 208.02999999999992 L 299 208.02999999999992 L 300 209.02999999999992 L 300 209.02999999999992 L 301 210.0299999999999 L 301 210.0299999999999 L 302 211.0299999999999 L 302 211.0299999999999 L 303 212.0299999999999 L 303 212.0299999999999 L 304 213.02999999999992 L 304 213.02999999999992 L 305 214.02999999999992 L 305 214.02999999999992 L 306 215.02999999999992 L 306 215.02999999999992 L 307 216.0299999999999 L 307 216.0299999999999 L 308 217.0299999999999 L 308 217.0299999999999 L 309 218.0299999999999 L 309 218.0299999999999 L 310 219.0299999999999 L 310 219.0299999999999 L 311 220.0299999999999 L 311 220.0299999999999 L 312 221.0299999999999 L 312 221.0299999999999 L 313 222.0299999999999 L 313 222.0299999999999 L 314 223.0299999999999 L 314 223.0299999999999 L 315 224.0299999999999 L 315 224.0299999999999 L 316 225.0299999999999 L 316 225.0299999999999 L 317 226.0299999999999 L 317 226.0299999999999 L 318 227.0299999999999 L 318 227.0299999999999 L 319 228.0299999999999 L 319 228.0299999999999 L 320 229.0299999999999 L 320 229.0299999999999 L 321 230.0299999999999 L 321 230.0299999999999 L 322 231.02999999999986 L 322 231.02999999999986 L 323 232.0299999999999 L 323 232.0299999999999 L 324 233.0299999999999 L 324 233.0299999999999 L 325 234.02999999999986 L 325 234.02999999999986 L 326 235.0299999999999 L 326 235.0299999999999 L 327 236.0299999999999 L 327 236.0299999999999 L 328 237.02999999999986 L 328 237.02999999999986 L 329 238.0299999999999 L 329 238.0299999999999 L 330 239.02999999999986 L 330 239.02999999999986 L 331 240.0299999999999 L 331 240.0299999999999 L 332 241.0299999999999 L 332 241.0299999999999 L 333 242.02999999999986 L 333 242.02999999999986 L 334 243.0299999999999 L 334 243.0299999999999 L 335 244.0299999999999 L 335 244.0299999999999 L 336 245.02999999999986 L 336 245.02999999999986 L 337 246.0299999999999 L 337 246.0299999999999 L 338 247.0299999999999 L 338 247.0299999999999 L 339 248.02999999999986 L 339 248.02999999999986 L 340 249.0299999999999 L 340 249.0299999999999 L 341 250.0299999999999 L 341 250.0299999999999 L 342 251.02999999999986 L 342 251.02999999999986 L 343 252.0299999999999 L 343 252.0299999999999 L 344 253.02999999999986 L 344 253.02999999999986 L 345 254.02999999999986 L 345 254.02999999999986 L 346 255.0299999999999 L 346 255.0299999999999 L 347 256.02999999999986 L 347 256.02999999999986 L 348 257.02999999999986 L 348 257.02999999999986 L 349 258.02999999999986 L 349 258.02999999999986 L 350 259.02999999999986 L 350 259.02999999999986 L 351 260.02999999999986 L 351 260.02999999999986 L 352 261.02999999999986 L 352 261.02999999999986 L 353 262.02999999999986 L 353 262.02999999999986 L 354 263.02999999999986 L 354 263.02999999999986 L 355 264.02999999999986 L 355 264.02999999999986 L 356 265.02999999999986 L 356 265.02999999999986 L 357 266.02999999999986 L 357 266.02999999999986 L 358 267.02999999999986 L 358 267.02999999999986 L 359 268.02999999999986 L 359 268.02999999999986 L 360 269.02999999999986 L 360 269.02999999999986 L 361 270.02999999999986 L 361 270.02999999999986 L 362 271.02999999999986 L 362 271.02999999999986 L 363 272.02999999999986 L 363 272.02999999999986 L 364 273.02999999999986 L 364 273.02999999999986 L 365 274.02999999999986 L 365 274.02999999999986 L 366 275.02999999999986 L 366 275.02999999999986 L 367 276.02999999999986 L 367 276.02999999999986 L 368 277.02999999999986 L 368 277.02999999999986 L 369 278.02999999999986 L 369 278.02999999999986 L 370 279.02999999999986 L 370 279.02999999999986 L 371 280.02999999999986 L 371 280.02999999999986 L 372 281.02999999999986 L 372 281.02999999999986 L 373 282.02999999999986 L 373 282.02999999999986 L 374 283.02999999999986 L 374 283.02999999999986 L 375 284.02999999999986 L 375 284.02999999999986 L 376 285.02999999999986 L 376 285.02999999999986 L 377 286.02999999999986 L 377 286.02999999999986 L 378 287.02999999999986 L 378 287.02999999999986 L 379 288.02999999999986 L 379 288.02999999999986 L 380 289.02999999999986 L 380 289.02999999999986 L 381 290.02999999999986 L 381 290.02999999999986 L 382 291.02999999999986 L 382 291.02999999999986 L 383 292.02999999999986 L 383 292.02999999999986 L 384 293.02999999999986 L 384 293.02999999999986 L 385 294.02999999999986 L 385 294.02999999999986 L 386 295.02999999999986 L 386 295.02999999999986 L 387 296.02999999999986 L 387 296.02999999999986 L 388 297.02999999999986 L 388 297.02999999999986 L 389 298.02999999999986 L 389 298.02999999999986 L 390 299.02999999999986 L 390 299.02999999999986 L 391 300.02999999999986 L 391 300.02999999999986 L 392 301.02999999999986 L 392 301.02999999999986 L 393 302.02999999999986 L 393 302.02999999999986 L 394 303.02999999999986 L 394 303.02999999999986 L 395 303.79600000000016 L 395 303.56200000000047 L 396 302.56200000000047 L 396 302.56200000000047 L 397 301.56200000000047 L 397 301.56200000000047 L 398 300.56200000000047 L 398 300.56200000000047 L 399 299.56200000000047 L 399 299.56200000000047 L 400 298.56200000000047 L 400 298.56200000000047 L 401 297.56200000000047 L 401 297.56200000000047 L 402 296.56200000000047 L 402 296.56200000000047 L 403 295.56200000000047 L 403 295.56200000000047 L 404 294.56200000000047 L 404 294.56200000000047 L 405 293.56200000000047 L 405 293.56200000000047 L 406 292.56200000000047 L 406 292.56200000000047 L 407 291.56200000000047 L 407 291.56200000000047 L 408 290.56200000000047 L 408 290.56200000000047 L 409 289.56200000000047 L 409 289.56200000000047 L 410 288.56200000000047 L 410 288.56200000000047 L 411 287.56200000000047 L 411 287.56200000000047 L 412 286.56200000000047 L 412 286.56200000000047 L 413 285.56200000000047 L 413 285.56200000000047 L 414 284.56200000000047 L 414 284.56200000000047 L 415 283.56200000000047 L 415 283.56200000000047 L 416 282.56200000000047 L 416 282.56200000000047 L 417 281.56200000000047 L 417 281.56200000000047 L 418 280.56200000000047 L 418 280.56200000000047 L 419 279.56200000000047 L 419 279.56200000000047 L 420 278.56200000000047 L 420 278.56200000000047 L 421 277.56200000000047 L 421 277.56200000000047 L 422 276.56200000000047 L 422 276.56200000000047 L 423 275.56200000000047 L 423 275.56200000000047 L 424 274.56200000000047 L 424 274.56200000000047 L 425 273.56200000000047 L 425 273.56200000000047 L 426 272.56200000000047 L 426 272.56200000000047 L 427 271.56200000000047 L 427 271.56200000000047 L 428 270.56200000000047 L 428 270.56200000000047 L 429 269.56200000000047 L 429 269.56200000000047 L 430 268.56200000000047 L 430 268.56200000000047 L 431 267.56200000000047 L 431 267.56200000000047 L 432 266.56200000000047 L 432 266.56200000000047 L 433 265.56200000000047 L 433 265.56200000000047 L 434 264.56200000000047 L 434 264.56200000000047 L 435 263.56200000000047 L 435 263.56200000000047 L 436 262.56200000000047 L 436 262.56200000000047 L 437 261.56200000000047 L 437 261.56200000000047 L 438 260.56200000000047 L 438 260.56200000000047 L 439 259.56200000000047 L 439 259.56200000000047 L 440 258.56200000000047 L 440 258.56200000000047 L 441 257.56200000000047 L 441 257.56200000000047 L 442 256.5620000000005 L 442 256.5620000000005 L 443 255.5620000000005 L 443 255.5620000000005 L 444 254.5620000000005 L 444 254.5620000000005 L 445 253.5620000000005 L 445 253.5620000000005 L 446 252.5620000000005 L 446 252.5620000000005 L 447 251.5620000000005 L 447 251.5620000000005 L 448 250.5620000000005 L 448 250.5620000000005 L 449 249.5620000000005 L 449 249.5620000000005 L 450 248.5620000000005 L 450 248.5620000000005 L 451 247.5620000000005 L 451 247.5620000000005 L 452 246.5620000000005 L 452 246.5620000000005 L 453 245.5620000000005 L 453 245.5620000000005 L 454 244.5620000000005 L 454 244.5620000000005 L 455 243.5620000000005 L 455 243.5620000000005 L 456 242.5620000000005 L 456 242.5620000000005 L 457 241.5620000000005 L 457 241.5620000000005 L 458 240.56200000000052 L 458 240.56200000000052 L 459 239.56200000000052 L 459 239.56200000000052 L 460 238.5620000000005 L 460 238.5620000000005 L 461 237.5620000000005 L 461 237.5620000000005 L 462 236.56200000000052 L 462 236.56200000000052 L 463 235.56200000000052 L 463 235.56200000000052 L 464 234.56200000000052 L 464 234.56200000000052 L 465 233.56200000000052 L 465 233.56200000000052 L 466 232.5620000000005 L 466 232.5620000000005 L 467 231.5620000000005 L 467 231.5620000000005 L 468 230.56200000000052 L 468 230.56200000000052 L 469 229.56200000000052 L 469 229.56200000000052 L 470 228.56200000000052 L 470 228.56200000000052 L 471 227.56200000000052 L 471 227.56200000000052 L 472 226.56200000000052 L 472 226.56200000000052 L 473 225.56200000000052 L 473 225.56200000000052 L 474 224.56200000000052 L 474 224.56200000000052 L 475 223.56200000000052 L 475 223.56200000000052 L 476 222.56200000000052 L 476 222.56200000000052 L 477 221.56200000000052 L 477 221.56200000000052 L 478 220.56200000000052 L 478 220.56200000000052 L 479 219.56200000000052 L 479 219.56200000000052 L 480 218.56200000000052 L 480 218.56200000000052 L 481 217.56200000000052 L 481 217.56200000000052 L 482 216.56200000000052 L 482 216.56200000000052 L 483 215.56200000000052 L 483 215.56200000000052 L 484 214.56200000000052 L 484 214.56200000000052 L 485 213.56200000000052 L 485 213.56200000000052 L 486 212.56200000000052 L 486 212.56200000000052 L 487 211.56200000000052 L 487 211.56200000000052 L 488 210.56200000000052 L 488 210.56200000000052 L 489 209.56200000000052 L 489 209.56200000000052 L 490 208.56200000000052 L 490 208.56200000000052 L 491 207.56200000000052 L 491 207.56200000000052 L 492 206.56200000000052 L 492 206.56200000000052 L 493 205.56200000000052 L 493 205.56200000000052 L 494 204.56200000000052 L 494 204.56200000000052 L 495 203.56200000000052 L 495 203.56200000000052 L 496 202.56200000000052 L 496 202.56200000000052 L 497 201.56200000000052 L 497 201.56200000000052 L 498 200.56200000000052 L 498 200.56200000000052 L 499 199.56200000000052 L 499 199.56200000000052 L 500 198.56200000000052 L 500 198.56200000000052 L 501 197.56200000000052 L 501 197.56200000000052 L 502 196.56200000000052 L 502 196.56200000000052 L 503 195.56200000000052 L 503 195.56200000000052 L 504 194.56200000000052 L 504 194.56200000000052 L 505 193.56200000000052 L 505 193.56200000000052 L 506 192.56200000000052 L 506 192.56200000000052 L 507 191.56200000000052 L 507 191.56200000000052 L 508 190.56200000000052 L 508 190.56200000000052 L 509 189.56200000000052 L 509 189.56200000000052 L 510 188.56200000000052 L 510 188.56200000000052 L 511 187.56200000000052 L 511 187.56200000000052 L 512 186.56200000000052 L 512 186.56200000000052 L 513 185.56200000000052 L 513 185.56200000000052 L 514 184.56200000000052 L 514 184.56200000000052 L 515 183.56200000000052 L 515 183.56200000000052 L 516 182.56200000000052 L 516 182.56200000000052 L 517 181.56200000000055 L 517 181.56200000000055 L 518 180.56200000000052 L 518 180.56200000000052 L 519 179.56200000000052 L 519 179.56200000000052 L 520 178.56200000000052 L 520 178.56200000000052 L 521 177.56200000000052 L 521 177.56200000000052 L 522 176.56200000000052 L 522 176.56200000000052 L 523 175.56200000000052 L 523 175.56200000000052 L 524 174.56200000000055 L 524 174.56200000000055 L 525 173.56200000000055 L 525 173.56200000000055 L 526 172.56200000000052 L 526 172.56200000000052 L 527 171.56200000000052 L 527 171.56200000000052 L 528 170.56200000000052 L 528 170.56200000000052 L 529 169.56200000000055 L 529 169.56200000000055 L 530 168.56200000000052 L 530 168.56200000000052 L 531 167.56200000000055 L 531 167.56200000000055 L 532 166.56200000000052 L 532 166.56200000000052 L 533 165.56200000000052 L 533 165.56200000000052 L 534 164.56200000000055 L 534 164.56200000000055 L 535 163.56200000000052 L 535 163.56200000000052 L 536 162.56200000000055 L 536 162.56200000000055 L 537 161.56200000000055 L 537 161.56200000000055 L 538 160.56200000000052 L 538 160.56200000000052 L 539 159.56200000000055 L 539 159.56200000000055 L 540 158.56200000000052 L 540 158.56200000000052 L 541 157.56200000000055 L 541 157.56200000000055 L 542 156.56200000000055 L 542 156.56200000000055 L 543 155.56200000000055 L 543 155.56200000000055 L 544 154.56200000000052 L 544 154.56200000000052 L 545 153.56200000000052 L 545 153.56200000000052 L 546 152.56200000000055 L 546 152.56200000000055 L 547 151.56200000000055 L 547 151.56200000000055 L 548 150.56200000000055 L 548 150.56200000000055 L 549 149.56200000000055 L 549 149.56200000000055 L 550 148.56200000000055 L 550 148.56200000000055 L 551 147.56200000000052 L 551 147.56200000000052 L 552 146.56200000000055 L 552 146.56200000000055 L 553 145.56200000000055 L 553 145.56200000000055 L 554 144.56200000000055 L 554 144.56200000000055 L 555 143.56200000000055 L 555 143.56200000000055 L 556 142.56200000000055 L 556 142.56200000000055 L 557 141.56200000000055 L 557 141.56200000000055 L 558 140.56200000000055 L 558 140.56200000000055 L 559 139.56200000000055 L 559 139.56200000000055 L 560 138.56200000000055 L 560 138.56200000000055 L 561 137.56200000000055 L 561 137.56200000000055 L 562 136.56200000000055 L 562 136.56200000000055 L 563 135.56200000000055 L 563 135.56200000000055 L 564 134.56200000000055 L 564 134.56200000000055 L 565 133.56200000000055 L 565 133.56200000000055 L 566 132.56200000000055 L 566 132.56200000000055 L 567 131.56200000000055 L 567 131.56200000000055 L 568 130.56200000000058 L 568 130.56200000000058 L 569 129.56200000000055 L 569 129.56200000000055 L 570 128.56200000000055 L 570 128.56200000000055 L 571 127.56200000000055 L 571 127.56200000000055 L 572 126.56200000000055 L 572 126.56200000000055 L 573 125.56200000000055 L 573 125.56200000000055 L 574 124.56200000000058 L 574 124.56200000000058 L 575 123.56200000000055 L 575 123.56200000000055 L 576 122.56200000000055 L 576 122.56200000000055 L 577 121.56200000000055 L 577 121.56200000000055 L 578 120.56200000000055 L 578 120.56200000000055 L 579 119.56200000000055 L 579 119.56200000000055 L 580 118.56200000000058 L 580 118.56200000000058 L 581 117.56200000000055 L 581 117.56200000000055 L 582 116.56200000000055 L 582 116.56200000000055 L 583 115.56200000000055 L 583 115.56200000000055 L 584 114.56200000000055 L 584 114.56200000000055 L 585 113.56200000000058 L 585 113.56200000000058 L 586 112.56200000000058 L 586 112.56200000000058 L 587 111.56200000000055 L 587 111.56200000000055 L 588 110.56200000000055 L 588 110.56200000000055 L 589 109.56200000000055 L 589 109.56200000000055 L 590 108.56200000000055 L 590 108.56200000000055 L 591 107.56200000000058 L 591 107.56200000000058 L 592 106.56200000000058 L 592 106.56200000000058 L 593 105.56200000000055 L 593 105.56200000000055 L 594 104.56200000000055 L 594 104.56200000000055 L 595 103.56200000000055 L 595 103.56200000000055 L 596 102.56200000000058 L 596 102.56200000000058 L 597 101.56200000000058 L 597 101.56200000000058 L 598 100.56200000000058 L 598 100.56200000000058 L 599 99.56200000000055 L 599 99.56200000000055 L 600 98.56200000000055 L 600 98.56200000000055 L 601 97.56200000000055 L 601 97.56200000000055 L 602 96.56200000000058 L 602 96.56200000000058 L 603 95.56200000000058 L 603 95.56200000000058 L 604 94.56200000000058 L 604 94.56200000000058 L 605 93.56200000000058 L 605 93.56200000000058 L 606 92.56200000000055 L 606 92.56200000000055 L 607 91.56200000000058 L 607 91.56200000000058 L 608 90.56200000000058 L 608 90.56200000000058 L 609 89.56200000000058 L 609 89.56200000000058 L 610 88.56200000000058 L 610 88.56200000000058 L 611 87.56200000000058 L 611 87.56200000000058 L 612 86.56200000000055 L 612 86.56200000000055 L 613 85.56200000000058 L 613 85.56200000000058 L 614 84.56200000000058 L 614 84.56200000000058 L 615 83.56200000000058 L 615 83.56200000000058 L 616 82.56200000000058 L 616 82.56200000000058 L 617 81.56200000000058 L 617 81.56200000000058 L 618 80.56200000000055 L 618 80.56200000000055 L 619 79.56200000000058 L 619 79.56200000000058 L 620 78.56200000000058 L 620 78.56200000000058 L 621 77.56200000000058 L 621 77.56200000000058 L 622 76.56200000000058 L 622 76.56200000000058 L 623 75.56200000000058 L 623 75.56200000000058 L 624 74.56200000000058 L 624 74.56200000000058 L 625 73.56200000000058 L 625 73.56200000000058 L 626 72.56200000000058 L 626 72.56200000000058 L 627 71.56200000000058 L 627 71.56200000000058 L 628 70.56200000000058 L 628 70.56200000000058 L 629 69.56200000000061 L 629 69.56200000000061 L 630 68.56200000000055 L 630 68.56200000000055 L 631 67.56200000000058 L 631 67.56200000000058 L 632 66.56200000000061 L 632 66.56200000000061 L 633 65.56200000000058 L 633 65.56200000000058 L 634 64.56200000000055 L 634 64.56200000000055 L 635 63.56200000000061 L 635 63.56200000000061 L 636 62.56200000000058 L 636 62.56200000000058 L 637 61.56200000000055 L 637 61.56200000000055 L 638 60.56200000000058 L 638 60.56200000000058 L 639 59.56200000000061 L 639 59.56200000000061 L 640 58.56200000000058 L 640 58.56200000000058 L 641 57.56200000000061 L 641 57.56200000000061 L 642 56.56200000000061 L 642 56.56200000000061 L 643 55.56200000000058 L 643 55.56200000000058 L 644 54.56200000000055 L 644 54.56200000000055 L 645 53.56200000000058 L 645 53.56200000000058 L 646 52.56200000000061 L 646 52.56200000000061 L 647 51.56200000000058 L 647 51.56200000000058 L 648 50.56200000000058 L 648 50.56200000000058 L 649 49.56200000000061 L 649 49.56200000000061 L 650 48.56200000000058 L 650 48.56200000000058 L 651 47.56200000000058 L 651 47.56200000000058 L 652 46.56200000000064 L 652 46.56200000000064 L 653 45.56200000000058 L 653 45.56200000000058 L 654 44.56200000000058 L 654 44.56200000000058 L 655 43.56200000000058 L 655 43.56200000000058 L 656 42.56200000000064 L 656 42.56200000000064 L 657 41.56200000000058 L 657 41.56200000000058 L 658 40.56200000000058 L 658 40.56200000000058 L 659 39.56200000000064 L 659 39.56200000000064 L 660 38.56200000000058 L 660 38.56200000000058 L 661 37.56200000000064 L 661 37.56200000000064 L 662 36.56200000000058 L 662 36.56200000000058 L 663 35.56200000000058 L 663 35.56200000000058 L 664 34.56200000000058 L 664 34.56200000000058 L 665 33.56200000000058 L 665 33.56200000000058 L 666 32.56200000000064 L 666 32.56200000000064 L 667 31.56200000000058 L 667 31.56200000000058 L 668 30.562000000000637 L 668 30.562000000000637 L 669 29.56200000000058 L 669 29.56200000000058 L 670 28.56200000000058 L 670 28.56200000000058 L 671 27.562000000000637 L 671 27.562000000000637 L 672 26.56200000000058 L 672 26.56200000000058 L 673 25.562000000000637 L 673 25.562000000000637 L 674 24.56200000000058 L 674 24.56200000000058 L 675 23.562000000000637 L 675 23.562000000000637 L 676 22.56200000000058 L 676 22.56200000000058 L 677 21.56200000000058 L 677 21.56200000000058 L 678 20.562000000000637 L 678 20.562000000000637 L 679 19.56200000000058 L 679 19.56200000000058 L 680 18.562000000000637 L 680 18.562000000000637 L 681 17.56200000000058 L 681 17.56200000000058 L 682 16.56200000000058 L 682 16.56200000000058 L 683 15.562000000000637 L 683 15.562000000000637 L 684 14.56200000000058 L 684 14.56200000000058 L 685 13.562000000000637 L 685 13.562000000000637 L 686 12.56200000000058 L 686 12.56200000000058 L 687 11.562000000000637 L 687 11.562000000000637 L 688 10.562000000000637 L 688 10.562000000000637 L 689 9.56200000000058 L 689 9.56200000000058 L 690 8.562000000000637 L 690 8.562000000000637 L 691 7.56200000000058 L 691 7.56200000000058 L 692 6.562000000000637 L 692 6.562000000000637 L 693 5.56200000000058 L 693 5.56200000000058 L 694 4.56200000000058 L 694 4.56200000000058 L 695 3.562000000000637 L 695 3.562000000000637 L 696 2.5620000000005803 L 696 2.5620000000005803 L 697 1.562000000000637 L 697 1.562000000000637 L 698 0.5620000000005803 L 698 0.5620000000005803 L 699 -0.4379999999993629 L 699 -0.4379999999993629 L 700 -1.437999999999363 L 700 -1.437999999999363 L 701 -2.4379999999994197 L 701 -2.4379999999994197 L 702 -3.437999999999363 L 702 -3.437999999999363 L 703 -4.43799999999942 L 703 -4.43799999999942 L 704 -5.437999999999363 L 704 -5.437999999999363 L 705 -6.437999999999363 L 705 -6.437999999999363 L 706 -7.437999999999363 L 706 -7.437999999999363 L 707 -8.437999999999363 L 707 -8.437999999999363 L 708 -9.43799999999942 L 708 -9.43799999999942 L 709 -10.437999999999363 L 709 -10.437999999999363 L 710 -11.437999999999363 L 710 -11.437999999999363 L 711 -12.437999999999363 L 711 -12.437999999999363 L 712 -13.437999999999363 L 712 -13.437999999999363 L 713 -14.43799999999942 L 713 -14.43799999999942 L 714 -15.437999999999363 L 714 -15.437999999999363 L 715 -16.43799999999942 L 715 -16.43799999999942 L 716 -17.437999999999363 L 716 -17.437999999999363 L 717 -18.437999999999363 L 717 -18.437999999999363 L 718 -19.437999999999363 L 718 -19.437999999999363 L 719 -20.437999999999363 L 719 -20.437999999999363 L 720 -21.43799999999942 L 720 -21.43799999999942 L 721 -22.437999999999363 L 721 -22.437999999999363 L 722 -23.437999999999363 L 722 -23.437999999999363 L 723 -24.437999999999363 L 723 -24.437999999999363 L 724 -25.437999999999363 L 724 -25.437999999999363 L 725 -26.43799999999942 L 725 -26.43799999999942 L 726 -27.437999999999363 L 726 -27.437999999999363 L 727 -28.437999999999363 L 727 -28.437999999999363 L 728 -29.437999999999363 L 728 -29.437999999999363 L 729 -30.437999999999363 L 729 -30.437999999999363 L 730 -31.437999999999363 L 730 -31.437999999999363 L 731 -32.43799999999936 L 731 -32.43799999999936 L 732 -33.43799999999942 L 732 -33.43799999999942 L 733 -34.43799999999936 L 733 -34.43799999999936 L 734 -35.43799999999936 L 734 -35.43799999999936 L 735 -36.43799999999936 L 735 -36.43799999999936 L 736 -37.43799999999936 L 736 -37.43799999999936 L 737 -38.43799999999942 L 737 -38.43799999999942 L 738 -39.43799999999936 L 738 -39.43799999999936 L 739 -40.43799999999936 L 739 -40.43799999999936 L 740 -41.43799999999936 L 740 -41.43799999999936 L 741 -42.43799999999936 L 741 -42.43799999999936 L 742 -43.43799999999936 L 742 -43.43799999999936 L 743 -44.43799999999936 L 743 -44.43799999999936 L 744 -45.43799999999936 L 744 -45.43799999999936 L 745 -46.43799999999936 L 745 -46.43799999999936 L 746 -47.43799999999936 L 746 -47.43799999999936 L 747 -48.43799999999936 L 747 -48.43799999999936 L 748 -49.43799999999936 L 748 -49.43799999999936 L 749 -50.43799999999936 L 749 -50.43799999999936 L 750 -51.43799999999936 L 750 -51.43799999999936 L 751 -52.43799999999936 L 751 -52.43799999999936 L 752 -53.43799999999936 L 752 -53.43799999999936 L 753 -54.43799999999936 L 753 -54.43799999999936 L 754 -55.43799999999936 L 754 -55.43799999999936 L 755 -56.43799999999936 L 755 -56.43799999999936 L 756 -57.43799999999936 L 756 -57.43799999999936 L 757 -58.43799999999936 L 757 -58.43799999999936 L 758 -59.43799999999936 L 758 -59.43799999999936 L 759 -60.43799999999936 L 759 -60.43799999999936 L 760 -61.43799999999936 L 760 -61.43799999999936 L 761 -62.43799999999936 L 761 -62.43799999999936 L 762 -63.43799999999936 L 762 -63.43799999999936 L 763 -64.43799999999936 L 763 -64.43799999999936 L 764 -65.43799999999936 L 764 -65.43799999999936 L 765 -66.43799999999936 L 765 -66.43799999999936 L 766 -67.4379999999993 L 766 -67.4379999999993 L 767 -68.43799999999936 L 767 -68.43799999999936 L 768 -69.43799999999936 L 768 -69.43799999999936 L 769 -70.43799999999936 L 769 -70.43799999999936 L 770 -71.43799999999936 L 770 -71.43799999999936 L 771 -72.43799999999936 L 771 -72.43799999999936 L 772 -73.43799999999936 L 772 -73.43799999999936 L 773 -74.43799999999936 L 773 -74.43799999999936 L 774 -75.43799999999936 L 774 -75.43799999999936 L 775 -76.43799999999936 L 775 -76.43799999999936 L 776 -77.43799999999936 L 776 -77.43799999999936 L 777 -78.43799999999936 L 777 -78.43799999999936 L 778 -79.4379999999993 L 778 -79.4379999999993 L 779 -80.43799999999936 L 779 -80.43799999999936 L 780 -81.43799999999936 L 780 -81.43799999999936 L 781 -82.43799999999936 L 781 -82.43799999999936 L 782 -83.43799999999936 L 782 -83.43799999999936 L 783 -84.4379999999993 L 783 -84.4379999999993 L 784 -85.43799999999936 L 784 -85.43799999999936 L 785 -86.4379999999993 L 785 -86.4379999999993 L 786 -87.43799999999936 L 786 -87.43799999999936 L 787 -88.43799999999936 L 787 -88.43799999999936 L 788 -89.4379999999993 L 788 -89.4379999999993 L 789 -90.43799999999936 L 789 -90.43799999999936 L 790 -91.4379999999993 L 790 -91.4379999999993 L 791 -92.43799999999936 L 791 -92.43799999999936 L 792 -93.43799999999936 L 792 -93.43799999999936 L 793 -94.43799999999936 L 793 -94.43799999999936 L 794 -95.43799999999936 L 794 -95.43799999999936 L 795 -96.4379999999993 L 795 -96.4379999999993 L 796 -97.43799999999936 L 796 -97.43799999999936 L 797 -98.4379999999993 L 797 -98.4379999999993 L 798 -99.43799999999936 L 798 -99.43799999999936 L 799 -100.43799999999936 L 799 -100.43799999999936 L 800 -101.4379999999993 L 800 -101.4379999999993 L 801 -102.43799999999936 L 801 -102.43799999999936 L 802 -103.4379999999993 L 802 -103.4379999999993 L 803 -104.43799999999936 L 803 -104.43799999999936 L 804 -105.43799999999936 L 804 -105.43799999999936 L 805 -106.4379999999993 L 805 -106.4379999999993 L 806 -107.43799999999936 L 806 -107.43799999999936 L 807 -108.4379999999993 L 807 -108.4379999999993 L 808 -109.43799999999936 L 808 -109.43799999999936 L 809 -110.4379999999993 L 809 -110.4379999999993 L 810 -111.43799999999936 L 810 -111.43799999999936 L 811 -112.43799999999936 L 811 -112.43799999999936 L 812 -113.4379999999993 L 812 -113.4379999999993 L 813 -114.43799999999936 L 813 -114.43799999999936 L 814 -115.4379999999993 L 814 -115.4379999999993 L 815 -116.43799999999936 L 815 -116.43799999999936 L 816 -117.4379999999993 L 816 -117.4379999999993 L 817 -118.4379999999993 L 817 -118.4379999999993 L 818 -119.43799999999936 L 818 -119.43799999999936 L 819 -120.4379999999993 L 819 -120.4379999999993 L 820 -121.43799999999936 L 820 -121.43799999999936 L 821 -122.4379999999993 L 821 -122.4379999999993 L 822 -123.4379999999993 L 822 -123.4379999999993 L 823 -124.43799999999936 L 823 -124.43799999999936 L 824 -125.4379999999993 L 824 -125.4379999999993 L 825 -126.43799999999936 L 825 -126.43799999999936 L 826 -127.4379999999993 L 826 -127.4379999999993 L 827 -128.4379999999993 L 827 -128.4379999999993 L 828 -129.4379999999993 L 828 -129.4379999999993 L 829 -130.4379999999993 L 829 -130.4379999999993 L 830 -131.43799999999936 L 830 -131.43799999999936 L 831 -132.4379999999993 L 831 -132.4379999999993 L 832 -133.43799999999936 L 832 -133.43799999999936 L 833 -134.4379999999993 L 833 -134.4379999999993 L 834 -135.4379999999993 L 834 -135.4379999999993 L 835 -136.43799999999936 L 835 -136.43799999999936 L 836 -137.4379999999993 L 836 -137.4379999999993 L 837 -138.43799999999936 L 837 -138.43799999999936 L 838 -139.4379999999993 L 838 -139.4379999999993 L 839 -140.4379999999993 L 839 -140.4379999999993 L 840 -141.4379999999993 L 840 -141.4379999999993 L 841 -142.4379999999993 L 841 -142.4379999999993 L 842 -143.43799999999936 L 842 -143.43799999999936 L 843 -144.4379999999993 L 843 -144.4379999999993 L 844 -145.4379999999993 L 844 -145.4379999999993 L 845 -146.4379999999993 L 845 -146.4379999999993 L 846 -147.4379999999993 L 846 -147.4379999999993 L 847 -148.43799999999936 L 847 -148.43799999999936 L 848 -149.4379999999993 L 848 -149.4379999999993 L 849 -150.4379999999993 L 849 -150.4379999999993 L 850 -151.4379999999993 L 850 -151.4379999999993 L 851 -152.4379999999993 L 851 -152.4379999999993 L 852 -153.4379999999993" stroke-opacity="0.8" stroke-linecap="round" stroke-linejoin="round" stroke-miterlimit="10" stroke-width="6.5"/><text fill="rgb(211,47,47)" stroke="none" font-family="geogebra-sans-serif, sans-serif" font-size="16px" font-style="normal" font-weight="normal" text-decoration="normal" x="98" y="24" text-anchor="start" dominant-baseline="alphabetic" fill-opacity="1">f</text><text fill="none" stroke="rgb(255,255,255)" font-family="geogebra-sans-serif, sans-serif" font-size="16px" font-style="normal" font-weight="normal" text-decoration="normal" x="98" y="24" text-anchor="start" dominant-baseline="alphabetic" stroke-opacity="1" stroke-linejoin="bevel" stroke-miterlimit="10" stroke-width="3">f</text><text fill="rgb(211,47,47)" stroke="none" font-family="geogebra-sans-serif, sans-serif" font-size="16px" font-style="normal" font-weight="normal" text-decoration="normal" x="98" y="24" text-anchor="start" dominant-baseline="alphabetic" fill-opacity="1">f</text></g></g></svg>