<svg version="1.1" xmlns="http://www.w3.org/2000/svg" xmlns:xlink="http://www.w3.org/1999/xlink" width="1450" height="855"><defs><clipPath id="ISUTdhXTrqXd"><path fill="none" stroke="none" d=" M 0 0 L 1450 0 L 1450 855 L 0 855 L 0 0 Z"/></clipPath></defs><g transform="scale(1,1)" clip-path="url(#ISUTdhXTrqXd)"><g><rect fill="rgb(255,255,255)" stroke="none" x="0" y="0" width="1450" height="855" fill-opacity="1"/><path fill="none" stroke="rgb(37,37,37)" paint-order="fill stroke markers" d=" M 728 3 L 728 855" stroke-opacity="1" stroke-miterlimit="10" stroke-width="2"/><path fill="rgb(37,37,37)" stroke="none" paint-order="stroke fill markers" fill-rule="evenodd" d=" M 727.9999999999999 2 L 722.9999999999999 22 L 732.9999999999999 22" fill-opacity="1"/><path fill="none" stroke="rgb(37,37,37)" paint-order="fill stroke markers" d=" M 0 418 L 1447 418" stroke-opacity="1" stroke-miterlimit="10" stroke-width="2"/><path fill="rgb(37,37,37)" stroke="none" paint-order="stroke fill markers" fill-rule="evenodd" d=" M 1448 418.4375000000001 L 1428 413.4375000000001 L 1428 423.4375000000001" fill-opacity="1"/><text fill="rgb(37,37,37)" stroke="none" font-family="geogebra-sans-serif, sans-serif" font-size="12px" font-style="normal" font-weight="bold" text-decoration="normal" x="46" y="434" text-anchor="start" dominant-baseline="alphabetic" fill-opacity="1">–4</text><text fill="none" stroke="rgb(255,255,255)" font-family="geogebra-sans-serif, sans-serif" font-size="12px" font-style="normal" font-weight="bold" text-decoration="normal" x="46" y="434" text-anchor="start" dominant-baseline="alphabetic" stroke-opacity="1" stroke-linejoin="bevel" stroke-miterlimit="10" stroke-width="3">–4</text><text fill="rgb(37,37,37)" stroke="none" font-family="geogebra-sans-serif, sans-serif" font-size="12px" font-style="normal" font-weight="bold" text-decoration="normal" x="46" y="434" text-anchor="start" dominant-baseline="alphabetic" fill-opacity="1">–4</text><path fill="none" stroke="rgb(37,37,37)" paint-order="fill stroke markers" d=" M 53 418 L 53 421" stroke-opacity="1" stroke-miterlimit="10" stroke-width="2"/><text fill="rgb(37,37,37)" stroke="none" font-family="geogebra-sans-serif, sans-serif" font-size="12px" font-style="normal" font-weight="bold" text-decoration="normal" x="123" y="434" text-anchor="start" dominant-baseline="alphabetic" fill-opacity="1">–3.5</text><text fill="none" stroke="rgb(255,255,255)" font-family="geogebra-sans-serif, sans-serif" font-size="12px" font-style="normal" font-weight="bold" text-decoration="normal" x="123" y="434" text-anchor="start" dominant-baseline="alphabetic" stroke-opacity="1" stroke-linejoin="bevel" stroke-miterlimit="10" stroke-width="3">–3.5</text><text fill="rgb(37,37,37)" stroke="none" font-family="geogebra-sans-serif, sans-serif" font-size="12px" font-style="normal" font-weight="bold" text-decoration="normal" x="123" y="434" text-anchor="start" dominant-baseline="alphabetic" fill-opacity="1">–3.5</text><path fill="none" stroke="rgb(37,37,37)" paint-order="fill stroke markers" d=" M 137 418 L 137 421" stroke-opacity="1" stroke-miterlimit="10" stroke-width="2"/><text fill="rgb(37,37,37)" stroke="none" font-family="geogebra-sans-serif, sans-serif" font-size="12px" font-style="normal" font-weight="bold" text-decoration="normal" x="215" y="434" text-anchor="start" dominant-baseline="alphabetic" fill-opacity="1">–3</text><text fill="none" stroke="rgb(255,255,255)" font-family="geogebra-sans-serif, sans-serif" font-size="12px" font-style="normal" font-weight="bold" text-decoration="normal" x="215" y="434" text-anchor="start" dominant-baseline="alphabetic" stroke-opacity="1" stroke-linejoin="bevel" stroke-miterlimit="10" stroke-width="3">–3</text><text fill="rgb(37,37,37)" stroke="none" font-family="geogebra-sans-serif, sans-serif" font-size="12px" font-style="normal" font-weight="bold" text-decoration="normal" x="215" y="434" text-anchor="start" dominant-baseline="alphabetic" fill-opacity="1">–3</text><path fill="none" stroke="rgb(37,37,37)" paint-order="fill stroke markers" d=" M 222 418 L 222 421" stroke-opacity="1" stroke-miterlimit="10" stroke-width="2"/><text fill="rgb(37,37,37)" stroke="none" font-family="geogebra-sans-serif, sans-serif" font-size="12px" font-style="normal" font-weight="bold" text-decoration="normal" x="292" y="434" text-anchor="start" dominant-baseline="alphabetic" fill-opacity="1">–2.5</text><text fill="none" stroke="rgb(255,255,255)" font-family="geogebra-sans-serif, sans-serif" font-size="12px" font-style="normal" font-weight="bold" text-decoration="normal" x="292" y="434" text-anchor="start" dominant-baseline="alphabetic" stroke-opacity="1" stroke-linejoin="bevel" stroke-miterlimit="10" stroke-width="3">–2.5</text><text fill="rgb(37,37,37)" stroke="none" font-family="geogebra-sans-serif, sans-serif" font-size="12px" font-style="normal" font-weight="bold" text-decoration="normal" x="292" y="434" text-anchor="start" dominant-baseline="alphabetic" fill-opacity="1">–2.5</text><path fill="none" stroke="rgb(37,37,37)" paint-order="fill stroke markers" d=" M 306 418 L 306 421" stroke-opacity="1" stroke-miterlimit="10" stroke-width="2"/><text fill="rgb(37,37,37)" stroke="none" font-family="geogebra-sans-serif, sans-serif" font-size="12px" font-style="normal" font-weight="bold" text-decoration="normal" x="384" y="434" text-anchor="start" dominant-baseline="alphabetic" fill-opacity="1">–2</text><text fill="none" stroke="rgb(255,255,255)" font-family="geogebra-sans-serif, sans-serif" font-size="12px" font-style="normal" font-weight="bold" text-decoration="normal" x="384" y="434" text-anchor="start" dominant-baseline="alphabetic" stroke-opacity="1" stroke-linejoin="bevel" stroke-miterlimit="10" stroke-width="3">–2</text><text fill="rgb(37,37,37)" stroke="none" font-family="geogebra-sans-serif, sans-serif" font-size="12px" font-style="normal" font-weight="bold" text-decoration="normal" x="384" y="434" text-anchor="start" dominant-baseline="alphabetic" fill-opacity="1">–2</text><path fill="none" stroke="rgb(37,37,37)" paint-order="fill stroke markers" d=" M 391 418 L 391 421" stroke-opacity="1" stroke-miterlimit="10" stroke-width="2"/><text fill="rgb(37,37,37)" stroke="none" font-family="geogebra-sans-serif, sans-serif" font-size="12px" font-style="normal" font-weight="bold" text-decoration="normal" x="461" y="434" text-anchor="start" dominant-baseline="alphabetic" fill-opacity="1">–1.5</text><text fill="none" stroke="rgb(255,255,255)" font-family="geogebra-sans-serif, sans-serif" font-size="12px" font-style="normal" font-weight="bold" text-decoration="normal" x="461" y="434" text-anchor="start" dominant-baseline="alphabetic" stroke-opacity="1" stroke-linejoin="bevel" stroke-miterlimit="10" stroke-width="3">–1.5</text><text fill="rgb(37,37,37)" stroke="none" font-family="geogebra-sans-serif, sans-serif" font-size="12px" font-style="normal" font-weight="bold" text-decoration="normal" x="461" y="434" text-anchor="start" dominant-baseline="alphabetic" fill-opacity="1">–1.5</text><path fill="none" stroke="rgb(37,37,37)" paint-order="fill stroke markers" d=" M 475 418 L 475 421" stroke-opacity="1" stroke-miterlimit="10" stroke-width="2"/><text fill="rgb(37,37,37)" stroke="none" font-family="geogebra-sans-serif, sans-serif" font-size="12px" font-style="normal" font-weight="bold" text-decoration="normal" x="553" y="434" text-anchor="start" dominant-baseline="alphabetic" fill-opacity="1">–1</text><text fill="none" stroke="rgb(255,255,255)" font-family="geogebra-sans-serif, sans-serif" font-size="12px" font-style="normal" font-weight="bold" text-decoration="normal" x="553" y="434" text-anchor="start" dominant-baseline="alphabetic" stroke-opacity="1" stroke-linejoin="bevel" stroke-miterlimit="10" stroke-width="3">–1</text><text fill="rgb(37,37,37)" stroke="none" font-family="geogebra-sans-serif, sans-serif" font-size="12px" font-style="normal" font-weight="bold" text-decoration="normal" x="553" y="434" text-anchor="start" dominant-baseline="alphabetic" fill-opacity="1">–1</text><path fill="none" stroke="rgb(37,37,37)" paint-order="fill stroke markers" d=" M 559 418 L 559 421" stroke-opacity="1" stroke-miterlimit="10" stroke-width="2"/><text fill="rgb(37,37,37)" stroke="none" font-family="geogebra-sans-serif, sans-serif" font-size="12px" font-style="normal" font-weight="bold" text-decoration="normal" x="630" y="434" text-anchor="start" dominant-baseline="alphabetic" fill-opacity="1">–0.5</text><text fill="none" stroke="rgb(255,255,255)" font-family="geogebra-sans-serif, sans-serif" font-size="12px" font-style="normal" font-weight="bold" text-decoration="normal" x="630" y="434" text-anchor="start" dominant-baseline="alphabetic" stroke-opacity="1" stroke-linejoin="bevel" stroke-miterlimit="10" stroke-width="3">–0.5</text><text fill="rgb(37,37,37)" stroke="none" font-family="geogebra-sans-serif, sans-serif" font-size="12px" font-style="normal" font-weight="bold" text-decoration="normal" x="630" y="434" text-anchor="start" dominant-baseline="alphabetic" fill-opacity="1">–0.5</text><path fill="none" stroke="rgb(37,37,37)" paint-order="fill stroke markers" d=" M 644 418 L 644 421" stroke-opacity="1" stroke-miterlimit="10" stroke-width="2"/><text fill="rgb(37,37,37)" stroke="none" font-family="geogebra-sans-serif, sans-serif" font-size="12px" font-style="normal" font-weight="bold" text-decoration="normal" x="802" y="434" text-anchor="start" dominant-baseline="alphabetic" fill-opacity="1">0.5</text><text fill="none" stroke="rgb(255,255,255)" font-family="geogebra-sans-serif, sans-serif" font-size="12px" font-style="normal" font-weight="bold" text-decoration="normal" x="802" y="434" text-anchor="start" dominant-baseline="alphabetic" stroke-opacity="1" stroke-linejoin="bevel" stroke-miterlimit="10" stroke-width="3">0.5</text><text fill="rgb(37,37,37)" stroke="none" font-family="geogebra-sans-serif, sans-serif" font-size="12px" font-style="normal" font-weight="bold" text-decoration="normal" x="802" y="434" text-anchor="start" dominant-baseline="alphabetic" fill-opacity="1">0.5</text><path fill="none" stroke="rgb(37,37,37)" paint-order="fill stroke markers" d=" M 812 418 L 812 421" stroke-opacity="1" stroke-miterlimit="10" stroke-width="2"/><text fill="rgb(37,37,37)" stroke="none" font-family="geogebra-sans-serif, sans-serif" font-size="12px" font-style="normal" font-weight="bold" text-decoration="normal" x="894" y="434" text-anchor="start" dominant-baseline="alphabetic" fill-opacity="1">1</text><text fill="none" stroke="rgb(255,255,255)" font-family="geogebra-sans-serif, sans-serif" font-size="12px" font-style="normal" font-weight="bold" text-decoration="normal" x="894" y="434" text-anchor="start" dominant-baseline="alphabetic" stroke-opacity="1" stroke-linejoin="bevel" stroke-miterlimit="10" stroke-width="3">1</text><text fill="rgb(37,37,37)" stroke="none" font-family="geogebra-sans-serif, sans-serif" font-size="12px" font-style="normal" font-weight="bold" text-decoration="normal" x="894" y="434" text-anchor="start" dominant-baseline="alphabetic" fill-opacity="1">1</text><path fill="none" stroke="rgb(37,37,37)" paint-order="fill stroke markers" d=" M 897 418 L 897 421" stroke-opacity="1" stroke-miterlimit="10" stroke-width="2"/><text fill="rgb(37,37,37)" stroke="none" font-family="geogebra-sans-serif, sans-serif" font-size="12px" font-style="normal" font-weight="bold" text-decoration="normal" x="971" y="434" text-anchor="start" dominant-baseline="alphabetic" fill-opacity="1">1.5</text><text fill="none" stroke="rgb(255,255,255)" font-family="geogebra-sans-serif, sans-serif" font-size="12px" font-style="normal" font-weight="bold" text-decoration="normal" x="971" y="434" text-anchor="start" dominant-baseline="alphabetic" stroke-opacity="1" stroke-linejoin="bevel" stroke-miterlimit="10" stroke-width="3">1.5</text><text fill="rgb(37,37,37)" stroke="none" font-family="geogebra-sans-serif, sans-serif" font-size="12px" font-style="normal" font-weight="bold" text-decoration="normal" x="971" y="434" text-anchor="start" dominant-baseline="alphabetic" fill-opacity="1">1.5</text><path fill="none" stroke="rgb(37,37,37)" paint-order="fill stroke markers" d=" M 981 418 L 981 421" stroke-opacity="1" stroke-miterlimit="10" stroke-width="2"/><text fill="rgb(37,37,37)" stroke="none" font-family="geogebra-sans-serif, sans-serif" font-size="12px" font-style="normal" font-weight="bold" text-decoration="normal" x="1062" y="434" text-anchor="start" dominant-baseline="alphabetic" fill-opacity="1">2</text><text fill="none" stroke="rgb(255,255,255)" font-family="geogebra-sans-serif, sans-serif" font-size="12px" font-style="normal" font-weight="bold" text-decoration="normal" x="1062" y="434" text-anchor="start" dominant-baseline="alphabetic" stroke-opacity="1" stroke-linejoin="bevel" stroke-miterlimit="10" stroke-width="3">2</text><text fill="rgb(37,37,37)" stroke="none" font-family="geogebra-sans-serif, sans-serif" font-size="12px" font-style="normal" font-weight="bold" text-decoration="normal" x="1062" y="434" text-anchor="start" dominant-baseline="alphabetic" fill-opacity="1">2</text><path fill="none" stroke="rgb(37,37,37)" paint-order="fill stroke markers" d=" M 1066 418 L 1066 421" stroke-opacity="1" stroke-miterlimit="10" stroke-width="2"/><text fill="rgb(37,37,37)" stroke="none" font-family="geogebra-sans-serif, sans-serif" font-size="12px" font-style="normal" font-weight="bold" text-decoration="normal" x="1140" y="434" text-anchor="start" dominant-baseline="alphabetic" fill-opacity="1">2.5</text><text fill="none" stroke="rgb(255,255,255)" font-family="geogebra-sans-serif, sans-serif" font-size="12px" font-style="normal" font-weight="bold" text-decoration="normal" x="1140" y="434" text-anchor="start" dominant-baseline="alphabetic" stroke-opacity="1" stroke-linejoin="bevel" stroke-miterlimit="10" stroke-width="3">2.5</text><text fill="rgb(37,37,37)" stroke="none" font-family="geogebra-sans-serif, sans-serif" font-size="12px" font-style="normal" font-weight="bold" text-decoration="normal" x="1140" y="434" text-anchor="start" dominant-baseline="alphabetic" fill-opacity="1">2.5</text><path fill="none" stroke="rgb(37,37,37)" paint-order="fill stroke markers" d=" M 1150 418 L 1150 421" stroke-opacity="1" stroke-miterlimit="10" stroke-width="2"/><text fill="rgb(37,37,37)" stroke="none" font-family="geogebra-sans-serif, sans-serif" font-size="12px" font-style="normal" font-weight="bold" text-decoration="normal" x="1231" y="434" text-anchor="start" dominant-baseline="alphabetic" fill-opacity="1">3</text><text fill="none" stroke="rgb(255,255,255)" font-family="geogebra-sans-serif, sans-serif" font-size="12px" font-style="normal" font-weight="bold" text-decoration="normal" x="1231" y="434" text-anchor="start" dominant-baseline="alphabetic" stroke-opacity="1" stroke-linejoin="bevel" stroke-miterlimit="10" stroke-width="3">3</text><text fill="rgb(37,37,37)" stroke="none" font-family="geogebra-sans-serif, sans-serif" font-size="12px" font-style="normal" font-weight="bold" text-decoration="normal" x="1231" y="434" text-anchor="start" dominant-baseline="alphabetic" fill-opacity="1">3</text><path fill="none" stroke="rgb(37,37,37)" paint-order="fill stroke markers" d=" M 1234 418 L 1234 421" stroke-opacity="1" stroke-miterlimit="10" stroke-width="2"/><text fill="rgb(37,37,37)" stroke="none" font-family="geogebra-sans-serif, sans-serif" font-size="12px" font-style="normal" font-weight="bold" text-decoration="normal" x="1308" y="434" text-anchor="start" dominant-baseline="alphabetic" fill-opacity="1">3.5</text><text fill="none" stroke="rgb(255,255,255)" font-family="geogebra-sans-serif, sans-serif" font-size="12px" font-style="normal" font-weight="bold" text-decoration="normal" x="1308" y="434" text-anchor="start" dominant-baseline="alphabetic" stroke-opacity="1" stroke-linejoin="bevel" stroke-miterlimit="10" stroke-width="3">3.5</text><text fill="rgb(37,37,37)" stroke="none" font-family="geogebra-sans-serif, sans-serif" font-size="12px" font-style="normal" font-weight="bold" text-decoration="normal" x="1308" y="434" text-anchor="start" dominant-baseline="alphabetic" fill-opacity="1">3.5</text><path fill="none" stroke="rgb(37,37,37)" paint-order="fill stroke markers" d=" M 1319 418 L 1319 421" stroke-opacity="1" stroke-miterlimit="10" stroke-width="2"/><text fill="rgb(37,37,37)" stroke="none" font-family="geogebra-sans-serif, sans-serif" font-size="12px" font-style="normal" font-weight="bold" text-decoration="normal" x="1400" y="434" text-anchor="start" dominant-baseline="alphabetic" fill-opacity="1">4</text><text fill="none" stroke="rgb(255,255,255)" font-family="geogebra-sans-serif, sans-serif" font-size="12px" font-style="normal" font-weight="bold" text-decoration="normal" x="1400" y="434" text-anchor="start" dominant-baseline="alphabetic" stroke-opacity="1" stroke-linejoin="bevel" stroke-miterlimit="10" stroke-width="3">4</text><text fill="rgb(37,37,37)" stroke="none" font-family="geogebra-sans-serif, sans-serif" font-size="12px" font-style="normal" font-weight="bold" text-decoration="normal" x="1400" y="434" text-anchor="start" dominant-baseline="alphabetic" fill-opacity="1">4</text><path fill="none" stroke="rgb(37,37,37)" paint-order="fill stroke markers" d=" M 1403 418 L 1403 421" stroke-opacity="1" stroke-miterlimit="10" stroke-width="2"/><path fill="none" stroke="rgb(37,37,37)" paint-order="fill stroke markers" d=" M 725 840 L 728 840" stroke-opacity="1" stroke-miterlimit="10" stroke-width="2"/><path fill="none" stroke="rgb(37,37,37)" paint-order="fill stroke markers" d=" M 725 756 L 728 756" stroke-opacity="1" stroke-miterlimit="10" stroke-width="2"/><path fill="none" stroke="rgb(37,37,37)" paint-order="fill stroke markers" d=" M 725 672 L 728 672" stroke-opacity="1" stroke-miterlimit="10" stroke-width="2"/><path fill="none" stroke="rgb(37,37,37)" paint-order="fill stroke markers" d=" M 725 587 L 728 587" stroke-opacity="1" stroke-miterlimit="10" stroke-width="2"/><path fill="none" stroke="rgb(37,37,37)" paint-order="fill stroke markers" d=" M 725 503 L 728 503" stroke-opacity="1" stroke-miterlimit="10" stroke-width="2"/><path fill="none" stroke="rgb(37,37,37)" paint-order="fill stroke markers" d=" M 725 334 L 728 334" stroke-opacity="1" stroke-miterlimit="10" stroke-width="2"/><path fill="none" stroke="rgb(37,37,37)" paint-order="fill stroke markers" d=" M 725 250 L 728 250" stroke-opacity="1" stroke-miterlimit="10" stroke-width="2"/><path fill="none" stroke="rgb(37,37,37)" paint-order="fill stroke markers" d=" M 725 165 L 728 165" stroke-opacity="1" stroke-miterlimit="10" stroke-width="2"/><path fill="none" stroke="rgb(37,37,37)" paint-order="fill stroke markers" d=" M 725 81 L 728 81" stroke-opacity="1" stroke-miterlimit="10" stroke-width="2"/><text fill="rgb(37,37,37)" stroke="none" font-family="geogebra-sans-serif, sans-serif" font-size="12px" font-style="normal" font-weight="bold" text-decoration="normal" x="697" y="845" text-anchor="start" dominant-baseline="alphabetic" fill-opacity="1">–2.5</text><text fill="none" stroke="rgb(255,255,255)" font-family="geogebra-sans-serif, sans-serif" font-size="12px" font-style="normal" font-weight="bold" text-decoration="normal" x="697" y="845" text-anchor="start" dominant-baseline="alphabetic" stroke-opacity="1" stroke-linejoin="bevel" stroke-miterlimit="10" stroke-width="3">–2.5</text><text fill="rgb(37,37,37)" stroke="none" font-family="geogebra-sans-serif, sans-serif" font-size="12px" font-style="normal" font-weight="bold" text-decoration="normal" x="697" y="845" text-anchor="start" dominant-baseline="alphabetic" fill-opacity="1">–2.5</text><text fill="rgb(37,37,37)" stroke="none" font-family="geogebra-sans-serif, sans-serif" font-size="12px" font-style="normal" font-weight="bold" text-decoration="normal" x="707" y="760" text-anchor="start" dominant-baseline="alphabetic" fill-opacity="1">–2</text><text fill="none" stroke="rgb(255,255,255)" font-family="geogebra-sans-serif, sans-serif" font-size="12px" font-style="normal" font-weight="bold" text-decoration="normal" x="707" y="760" text-anchor="start" dominant-baseline="alphabetic" stroke-opacity="1" stroke-linejoin="bevel" stroke-miterlimit="10" stroke-width="3">–2</text><text fill="rgb(37,37,37)" stroke="none" font-family="geogebra-sans-serif, sans-serif" font-size="12px" font-style="normal" font-weight="bold" text-decoration="normal" x="707" y="760" text-anchor="start" dominant-baseline="alphabetic" fill-opacity="1">–2</text><text fill="rgb(37,37,37)" stroke="none" font-family="geogebra-sans-serif, sans-serif" font-size="12px" font-style="normal" font-weight="bold" text-decoration="normal" x="697" y="676" text-anchor="start" dominant-baseline="alphabetic" fill-opacity="1">–1.5</text><text fill="none" stroke="rgb(255,255,255)" font-family="geogebra-sans-serif, sans-serif" font-size="12px" font-style="normal" font-weight="bold" text-decoration="normal" x="697" y="676" text-anchor="start" dominant-baseline="alphabetic" stroke-opacity="1" stroke-linejoin="bevel" stroke-miterlimit="10" stroke-width="3">–1.5</text><text fill="rgb(37,37,37)" stroke="none" font-family="geogebra-sans-serif, sans-serif" font-size="12px" font-style="normal" font-weight="bold" text-decoration="normal" x="697" y="676" text-anchor="start" dominant-baseline="alphabetic" fill-opacity="1">–1.5</text><text fill="rgb(37,37,37)" stroke="none" font-family="geogebra-sans-serif, sans-serif" font-size="12px" font-style="normal" font-weight="bold" text-decoration="normal" x="707" y="592" text-anchor="start" dominant-baseline="alphabetic" fill-opacity="1">–1</text><text fill="none" stroke="rgb(255,255,255)" font-family="geogebra-sans-serif, sans-serif" font-size="12px" font-style="normal" font-weight="bold" text-decoration="normal" x="707" y="592" text-anchor="start" dominant-baseline="alphabetic" stroke-opacity="1" stroke-linejoin="bevel" stroke-miterlimit="10" stroke-width="3">–1</text><text fill="rgb(37,37,37)" stroke="none" font-family="geogebra-sans-serif, sans-serif" font-size="12px" font-style="normal" font-weight="bold" text-decoration="normal" x="707" y="592" text-anchor="start" dominant-baseline="alphabetic" fill-opacity="1">–1</text><text fill="rgb(37,37,37)" stroke="none" font-family="geogebra-sans-serif, sans-serif" font-size="12px" font-style="normal" font-weight="bold" text-decoration="normal" x="697" y="507" text-anchor="start" dominant-baseline="alphabetic" fill-opacity="1">–0.5</text><text fill="none" stroke="rgb(255,255,255)" font-family="geogebra-sans-serif, sans-serif" font-size="12px" font-style="normal" font-weight="bold" text-decoration="normal" x="697" y="507" text-anchor="start" dominant-baseline="alphabetic" stroke-opacity="1" stroke-linejoin="bevel" stroke-miterlimit="10" stroke-width="3">–0.5</text><text fill="rgb(37,37,37)" stroke="none" font-family="geogebra-sans-serif, sans-serif" font-size="12px" font-style="normal" font-weight="bold" text-decoration="normal" x="697" y="507" text-anchor="start" dominant-baseline="alphabetic" fill-opacity="1">–0.5</text><text fill="rgb(37,37,37)" stroke="none" font-family="geogebra-sans-serif, sans-serif" font-size="12px" font-style="normal" font-weight="bold" text-decoration="normal" x="703" y="339" text-anchor="start" dominant-baseline="alphabetic" fill-opacity="1">0.5</text><text fill="none" stroke="rgb(255,255,255)" font-family="geogebra-sans-serif, sans-serif" font-size="12px" font-style="normal" font-weight="bold" text-decoration="normal" x="703" y="339" text-anchor="start" dominant-baseline="alphabetic" stroke-opacity="1" stroke-linejoin="bevel" stroke-miterlimit="10" stroke-width="3">0.5</text><text fill="rgb(37,37,37)" stroke="none" font-family="geogebra-sans-serif, sans-serif" font-size="12px" font-style="normal" font-weight="bold" text-decoration="normal" x="703" y="339" text-anchor="start" dominant-baseline="alphabetic" fill-opacity="1">0.5</text><text fill="rgb(37,37,37)" stroke="none" font-family="geogebra-sans-serif, sans-serif" font-size="12px" font-style="normal" font-weight="bold" text-decoration="normal" x="713" y="254" text-anchor="start" dominant-baseline="alphabetic" fill-opacity="1">1</text><text fill="none" stroke="rgb(255,255,255)" font-family="geogebra-sans-serif, sans-serif" font-size="12px" font-style="normal" font-weight="bold" text-decoration="normal" x="713" y="254" text-anchor="start" dominant-baseline="alphabetic" stroke-opacity="1" stroke-linejoin="bevel" stroke-miterlimit="10" stroke-width="3">1</text><text fill="rgb(37,37,37)" stroke="none" font-family="geogebra-sans-serif, sans-serif" font-size="12px" font-style="normal" font-weight="bold" text-decoration="normal" x="713" y="254" text-anchor="start" dominant-baseline="alphabetic" fill-opacity="1">1</text><text fill="rgb(37,37,37)" stroke="none" font-family="geogebra-sans-serif, sans-serif" font-size="12px" font-style="normal" font-weight="bold" text-decoration="normal" x="703" y="170" text-anchor="start" dominant-baseline="alphabetic" fill-opacity="1">1.5</text><text fill="none" stroke="rgb(255,255,255)" font-family="geogebra-sans-serif, sans-serif" font-size="12px" font-style="normal" font-weight="bold" text-decoration="normal" x="703" y="170" text-anchor="start" dominant-baseline="alphabetic" stroke-opacity="1" stroke-linejoin="bevel" stroke-miterlimit="10" stroke-width="3">1.5</text><text fill="rgb(37,37,37)" stroke="none" font-family="geogebra-sans-serif, sans-serif" font-size="12px" font-style="normal" font-weight="bold" text-decoration="normal" x="703" y="170" text-anchor="start" dominant-baseline="alphabetic" fill-opacity="1">1.5</text><text fill="rgb(37,37,37)" stroke="none" font-family="geogebra-sans-serif, sans-serif" font-size="12px" font-style="normal" font-weight="bold" text-decoration="normal" x="713" y="85" text-anchor="start" dominant-baseline="alphabetic" fill-opacity="1">2</text><text fill="none" stroke="rgb(255,255,255)" font-family="geogebra-sans-serif, sans-serif" font-size="12px" font-style="normal" font-weight="bold" text-decoration="normal" x="713" y="85" text-anchor="start" dominant-baseline="alphabetic" stroke-opacity="1" stroke-linejoin="bevel" stroke-miterlimit="10" stroke-width="3">2</text><text fill="rgb(37,37,37)" stroke="none" font-family="geogebra-sans-serif, sans-serif" font-size="12px" font-style="normal" font-weight="bold" text-decoration="normal" x="713" y="85" text-anchor="start" dominant-baseline="alphabetic" fill-opacity="1">2</text><text fill="rgb(37,37,37)" stroke="none" font-family="geogebra-sans-serif, sans-serif" font-size="12px" font-style="normal" font-weight="bold" text-decoration="normal" x="713" y="434" text-anchor="start" dominant-baseline="alphabetic" fill-opacity="1">0</text><text fill="none" stroke="rgb(255,255,255)" font-family="geogebra-sans-serif, sans-serif" font-size="12px" font-style="normal" font-weight="bold" text-decoration="normal" x="713" y="434" text-anchor="start" dominant-baseline="alphabetic" stroke-opacity="1" stroke-linejoin="bevel" stroke-miterlimit="10" stroke-width="3">0</text><text fill="rgb(37,37,37)" stroke="none" font-family="geogebra-sans-serif, sans-serif" font-size="12px" font-style="normal" font-weight="bold" text-decoration="normal" x="713" y="434" text-anchor="start" dominant-baseline="alphabetic" fill-opacity="1">0</text><path fill="none" stroke="rgb(211,47,47)" paint-order="fill stroke markers" d=" M 0.9999999999998863 812.8964895069782 L 0.9999999999998863 819.451434431985 L 0.9999999999998863 812.8964895069785 L 2 806.5206644517484 L 2 806.5206644517486 L 3 800.316286430151 L 3 800.3162864301512 L 4 794.2761132381531 L 4 794.2761132381534 L 5.000000000000114 788.3933034860008 L 5.000000000000114 788.3933034860011 L 6 782.6613892239062 L 6 782.6613892239063 L 7 777.0742507807801 L 7 777.0742507807802 L 8.000000000000114 771.6260936100609 L 8.000000000000114 771.6260936100612 L 9 766.3114269582943 L 9 766.3114269582944 L 10 761.1250441912105 L 10 761.1250441912106 L 11 756.0620046289782 L 11 756.0620046289785 L 12 751.1176167572594 L 12 751.1176167572595 L 13 746.2874226940135 L 13 746.2874226940135 L 14 741.5671838038081 L 14 741.5671838038083 L 15.000000000000114 736.9528673619477 L 15.000000000000114 736.9528673619478 L 16 732.4406341801014 L 16 732.4406341801016 L 17 728.0268271135072 L 17 728.0268271135074 L 17.999999999999886 723.7079603773461 L 17.999999999999886 723.7079603773462 L 19 719.4807096065772 L 19 719.4807096065772 L 20 715.3419025995706 L 20 715.3419025995707 L 21 711.2885106912682 L 21 711.2885106912684 L 22.000000000000114 707.317640706488 L 22.000000000000114 707.3176407064882 L 23 703.4265274483527 L 23 703.4265274483528 L 24 699.6125266807712 L 24 699.6125266807715 L 25.000000000000114 695.8731085674792 L 25.000000000000114 695.8731085674794 L 26 692.2058515333468 L 26 692.205851533347 L 27 688.6084365165763 L 27 688.6084365165764 L 28 685.0786415830619 L 28 685.0786415830621 L 29 681.6143368765534 L 29 681.6143368765536 L 30 678.2134798804502 L 30 678.2134798804504 L 31 674.8741109690071 L 31 674.8741109690073 L 32.000000000000114 671.5943492275405 L 32.000000000000114 671.5943492275406 L 33 668.3723885228419 L 33 668.3723885228421 L 34 665.2064938064897 L 34 665.2064938064898 L 35.000000000000114 662.0949976351153 L 35.000000000000114 662.0949976351155 L 36 659.0362968929087 L 36 659.0362968929089 L 37 656.0288497027716 L 37 656.0288497027718 L 38 653.0711725135773 L 38 653.0711725135774 L 39.000000000000114 650.1618373519219 L 39.000000000000114 650.161837351922 L 40 647.2994692276349 L 40 647.2994692276351 L 41 644.4827436830906 L 41 644.4827436830908 L 42.000000000000114 641.7103844771168 L 42.000000000000114 641.7103844771169 L 43 638.9811613949436 L 43 638.9811613949437 L 44 636.293888176257 L 44 636.2938881762573 L 45 633.6474205539965 L 45 633.6474205539967 L 46 631.0406543970416 L 46 631.0406543970417 L 47 628.472523950426 L 47 628.4725239504262 L 48 625.9420001671455 L 48 625.9420001671456 L 49.000000000000114 623.4480891260496 L 49.000000000000114 623.4480891260497 L 50 620.9898305306733 L 50 620.9898305306734 L 51 618.56629628421 L 51 618.5662962842101 L 52.000000000000114 616.1765891361623 L 52.000000000000114 616.1765891361624 L 53 613.8198413964922 L 53 613.8198413964923 L 54 611.4952137133694 L 54 611.4952137133695 L 55 609.20189391088 L 55 609.2018939108802 L 56 606.9390958832853 L 56 606.9390958832853 L 57 604.7060585426409 L 57 604.7060585426409 L 58 602.5020448167988 L 58 602.502044816799 L 59 600.3263406949904 L 59 600.3263406949907 L 60 598.1782543183754 L 60 598.1782543183755 L 61 596.0571151131 L 61 596.0571151131002 L 62 593.962272963562 L 62 593.9622729635621 L 63 591.8930974237174 L 63 591.8930974237176 L 64 589.8489769644021 L 64 589.8489769644023 L 65 587.8293182547568 L 65 587.8293182547569 L 66 585.8335454759681 L 66 585.8335454759681 L 67 583.8610996656319 L 67 583.861099665632 L 68 581.911438091161 L 68 581.9114380911611 L 69 579.9840336507369 L 69 579.984033650737 L 70 578.0783743004037 L 70 578.0783743004038 L 71 576.193962505977 L 71 576.1939625059771 L 72 574.3303147185209 L 72 574.330314718521 L 73 572.4869608722146 L 73 572.4869608722147 L 74 570.6634439034965 L 74 570.6634439034966 L 75 568.8593192904416 L 75 568.8593192904417 L 76 567.0741546113771 L 76 567.0741546113773 L 77 565.3075291218053 L 77 565.3075291218054 L 78 563.5590333487492 L 78 563.5590333487492 L 79 561.8282687016838 L 79 561.8282687016838 L 80 560.1148470992678 L 80 560.1148470992678 L 81 558.4183906111226 L 81 558.4183906111227 L 82 556.7385311139574 L 82 556.7385311139575 L 83 555.0749099613664 L 83 555.0749099613665 L 84 553.4271776666669 L 84 553.4271776666669 L 85 551.7949935981761 L 85 551.7949935981762 L 86 550.1780256863572 L 86 550.1780256863573 L 87 548.5759501422958 L 87 548.5759501422958 L 88 546.9884511869936 L 88 546.9884511869936 L 89 545.4152207909934 L 89 545.4152207909935 L 90 543.8559584238759 L 90 543.855958423876 L 91 542.310370813187 L 91 542.310370813187 L 92 540.7781717123839 L 92 540.778171712384 L 93 539.2590816774019 L 93 539.2590816774019 L 94 537.7528278514651 L 94 537.7528278514651 L 95 536.259143757789 L 95 536.259143757789 L 96 534.7777690998305 L 96 534.7777690998305 L 97 533.3084495687631 L 97 533.3084495687632 L 98 531.850936657873 L 98 531.850936657873 L 99 530.4049874835774 L 99 530.4049874835775 L 100 528.9703646127939 L 100 528.9703646127939 L 101 527.5468358963868 L 101 527.5468358963869 L 102 526.1341743084462 L 102 526.1341743084463 L 103 524.7321577911509 L 103 524.7321577911509 L 104 523.3405691049904 L 104 523.3405691049904 L 105 521.9591956841255 L 105 521.9591956841255 L 106 520.5878294966748 L 106 520.5878294966749 L 107 519.2262669097352 L 107 519.2262669097352 L 108 517.8743085589358 L 108 517.8743085589359 L 109 516.5317592223537 L 109 516.5317592223537 L 110 515.1984276986087 L 110 515.1984276986088 L 111 513.8741266889782 L 111 513.8741266889782 L 112 512.558672683369 L 112 512.5586726833691 L 113 511.25188584999603 L 113 511.2518858499961 L 114 509.9535899286243 L 114 509.95358992862435 L 115 508.66361212723234 L 115 508.6636121272324 L 116 507.3817830219678 L 116 507.38178302196786 L 117 506.1079364602666 L 117 506.1079364602666 L 118 504.8419094670137 L 118 504.84190946701375 L 119 503.58354215363113 L 119 503.58354215363124 L 120 502.33267762998 L 120 502.3326776299801 L 121 501.0891619189699 L 121 501.0891619189699 L 122 499.8528438737757 L 122 499.8528438737758 L 123 498.6235750975611 L 123 498.6235750975612 L 124 497.4012098656164 L 124 497.40120986561647 L 125 496.1856050498207 L 125 496.1856050498207 L 126 494.9766200453401 L 126 494.97662004534016 L 127 493.77411669948305 L 127 493.7741166994831 L 128 492.57795924262814 L 128 492.5779592426282 L 129 491.3880142211527 L 129 491.38801422115273 L 130 490.2041504322859 L 130 490.204150432286 L 131 489.02623886081756 L 131 489.02623886081756 L 132 487.8541526175941 L 132 487.85415261759414 L 133 486.68776687973656 L 133 486.6877668797366 L 134 485.52695883252034 L 134 485.52695883252034 L 135 484.37160761285236 L 135 484.3716076128524 L 136 483.22159425429317 L 136 483.2215942542932 L 137 482.07680163356383 L 137 482.07680163356383 L 138 480.93711441848683 L 138 480.9371144184869 L 139 479.80241901730955 L 139 479.80241901730955 L 140 478.6726035293578 L 140 478.67260352935784 L 141 477.5475576969769 L 141 477.547557696977 L 142 476.4271728587089 L 142 476.4271728587089 L 143 475.3113419036653 L 143 475.3113419036653 L 144 474.199959227052 L 144 474.199959227052 L 145 473.0929206868033 L 145 473.0929206868034 L 146 471.9901235612891 L 146 471.9901235612892 L 147 470.89146650805174 L 147 470.8914665080518 L 148 469.7968495235416 L 148 469.79684952354165 L 149 468.70617390381045 L 149 468.7061739038105 L 150 467.61934220613176 L 150 467.6193422061318 L 151 466.536258211513 L 151 466.53625821151303 L 152 465.45682688806784 L 152 465.45682688806784 L 153 464.38095435521853 L 153 464.3809543552186 L 154 463.3085478486966 L 154 463.30854784869666 L 155 462.2395156863133 L 155 462.2395156863134 L 156 461.1737672344736 L 156 461.17376723447364 L 157 460.1112128754034 L 157 460.1112128754034 L 158 459.05176397506625 L 158 459.0517639750663 L 159 457.9953328517433 L 159 457.9953328517433 L 160 456.9418327452493 L 160 456.9418327452493 L 161 455.8911777867664 L 161 455.89117778676643 L 162 454.8432829692654 L 162 454.8432829692654 L 163 453.79806411849756 L 163 453.79806411849756 L 164 452.7554378645327 L 164 452.7554378645328 L 165 451.7153216138216 L 165 451.71532161382163 L 166 450.67763352176405 L 166 450.67763352176405 L 167 449.64229246576014 L 167 449.64229246576014 L 168 448.609218018728 L 168 448.60921801872803 L 169 447.5783304230655 L 169 447.5783304230655 L 170 446.54955056504076 L 170 446.5495505650408 L 171 445.52279994959144 L 171 445.52279994959144 L 172 444.49800067551496 L 172 444.49800067551496 L 173 443.4750754110348 L 173 443.4750754110348 L 174 442.4539473697223 L 174 442.4539473697223 L 175 441.434540286762 L 175 441.434540286762 L 176 440.4167783955403 L 176 440.4167783955403 L 177 439.4005864045452 L 177 439.4005864045452 L 178 438.3858894745598 L 178 438.3858894745598 L 179 437.3726131961349 L 179 437.3726131961349 L 180 436.36068356732693 L 180 436.36068356732693 L 181 435.3500269716855 L 181 435.3500269716855 L 182 434.3405701564767 L 182 434.3405701564767 L 183 433.33224021112926 L 183 433.33224021112926 L 184 432.32496454588903 L 184 432.32496454588903 L 185 431.31867087066803 L 185 431.31867087066803 L 186 430.31328717407547 L 186 430.31328717407547 L 187 429.30874170261785 L 187 429.30874170261785 L 188 428.3049629400542 L 188 428.3049629400542 L 189 427.3018795868946 L 189 427.3018795868946 L 190 426.2994205400294 L 190 426.2994205400294 L 191 425.29751487247677 L 191 425.29751487247677 L 192 424.29609181323497 L 192 424.29609181323497 L 193 423.2950807272297 L 193 423.2950807272297 L 194 422.29441109534093 L 194 422.29441109534093 L 195 421.2940124945016 L 195 421.2940124945016 L 196 420.29381457785104 L 196 420.29381457785104 L 197 419.293747054936 L 197 419.293747054936 L 198 418.29373787349425 L 198 418.2937396719446 L 199 417.293722191962 L 199 417.293722191962 L 200 416.2936243752371 L 200 416.2936243752371 L 201 415.29337595944554 L 201 415.29337595944554 L 202 414.292906639942 L 202 414.292906639942 L 203 413.2921460499846 L 203 413.2921460499846 L 204 412.2910237409238 L 204 412.2910237409238 L 205 411.28946916234185 L 205 411.28946916234185 L 206 410.2874116421313 L 206 410.2874116421313 L 207 409.28478036650125 L 207 409.28478036650125 L 208 408.28150435989704 L 208 408.28150435989704 L 209 407.2775124648255 L 209 407.2775124648255 L 210 406.2727333215682 L 210 406.2727333215682 L 211 405.26709534777495 L 211 405.26709534777495 L 212 404.26052671792263 L 212 404.26052671792263 L 213 403.25295534262676 L 213 403.2529553426268 L 214 402.24430884779497 L 214 402.24430884779497 L 215 401.2345145536063 L 215 401.2345145536063 L 216.00000000000006 400.223499453306 L 216.00000000000006 400.223499453306 L 217 399.2111901918013 L 217 399.2111901918013 L 218 398.1975130440451 L 218 398.1975130440451 L 219.00000000000006 397.1823938931927 L 219.00000000000006 397.1823938931927 L 220 396.1657582085199 L 220 396.1657582085199 L 221.00000000000006 395.1475310230847 L 221.00000000000006 395.1475310230847 L 222 394.1276369111225 L 222 394.1276369111226 L 223 393.10599996515595 L 223 393.10599996515595 L 224 392.08254377280656 L 224 392.08254377280656 L 225 391.05719139329295 L 225 391.05719139329295 L 226.00000000000006 390.0298653335982 L 226.00000000000006 390.0298653335982 L 227 389.00048752429205 L 227 389.00048752429205 L 228 387.96897929498965 L 228 387.96897929498965 L 229 386.9352613494324 L 229 386.9352613494324 L 230 385.89925374017037 L 230 385.8992537401704 L 231.00000000000006 384.860875842832 L 231.00000000000006 384.86087584283206 L 232 383.8200463299602 L 232 383.82004632996023 L 233.00000000000006 382.77668314439734 L 233.00000000000006 382.77668314439734 L 234 381.7307034722006 L 234 381.7307034722006 L 235 380.6820237150655 L 235 380.68202371506555 L 236.00000000000006 379.6305594622412 L 236.00000000000006 379.6305594622412 L 237 378.5762254619121 L 237 378.5762254619121 L 238.00000000000006 377.5189355920287 L 238.00000000000006 377.5189355920287 L 239 376.4586028305627 L 239 376.45860283056277 L 240 375.3951392251645 L 240 375.3951392251645 L 241.00000000000006 374.3284558622 L 241.00000000000006 374.32845586220003 L 242 373.25846283514187 L 242 373.2584628351419 L 243.00000000000006 372.18506921229033 L 243.00000000000006 372.1850692122904 L 244 371.1081830037985 L 244 371.10818300379856 L 245 370.0277111279751 L 245 370.0277111279752 L 246 368.94355937683684 L 246 368.9435593768369 L 247 367.8556323808824 L 247 367.85563238088247 L 248.00000000000006 366.76383357305957 L 248.00000000000006 366.7638335730596 L 249 365.6680651518931 L 249 365.66806515189313 L 250 364.56822804374366 L 250 364.56822804374366 L 251 363.4642218641654 L 251 363.46422186416544 L 252 362.35594487832765 L 252 362.3559448783277 L 253.00000000000006 361.2432939604665 L 253.00000000000006 361.2432939604665 L 254 360.1261645523304 L 254 360.1261645523304 L 255.00000000000006 359.0044506205817 L 255.00000000000006 359.0044506205817 L 256 357.8780446131169 L 256 357.8780446131169 L 257 356.7468374142636 L 257 356.7468374142636 L 258.00000000000006 355.6107182988144 L 258.00000000000006 355.61071829881445 L 259 354.4695748848538 L 259 354.4695748848538 L 260.00000000000006 353.32329308533247 L 260.00000000000006 353.32329308533247 L 261 352.17175705834546 L 261 352.1717570583455 L 262 351.0148491560612 L 262 351.01484915606125 L 263 349.8524498722568 L 263 349.85244987225684 L 264 348.684437788403 L 264 348.68443778840305 L 265.00000000000006 347.5106895182478 L 265.00000000000006 347.51068951824783 L 266 346.3310796508408 L 266 346.3310796508409 L 267 345.145480691941 L 267 345.14548069194103 L 268 343.9537630037466 L 268 343.95376300374664 L 269 342.75579474288327 L 269 342.75579474288327 L 270.00000000000006 341.55144179658737 L 270.00000000000006 341.5514417965874 L 271 340.34056771701216 L 271 340.34056771701216 L 272.00000000000006 339.1230336535888 L 272.00000000000006 339.12303365358883 L 273 337.89869828336714 L 273 337.89869828336714 L 274 336.6674177392578 L 274 336.66741773925787 L 275.00000000000006 335.4290455360976 L 275.00000000000006 335.42904553609765 L 276 334.1834324944515 L 276 334.1834324944515 L 277.00000000000006 332.9304266620655 L 277.00000000000006 332.93042666206554 L 278 331.66987323287987 L 278 331.6698732328799 L 279 330.4016144635058 L 279 330.4016144635058 L 280.00000000000006 329.1254895870673 L 280.00000000000006 329.12548958706736 L 281 327.8413347243062 L 281 327.8413347243062 L 282.00000000000006 326.5489827918383 L 282.00000000000006 326.5489827918383 L 283 325.2482634074536 L 283 325.24826340745363 L 284 323.9390027923372 L 284 323.93900279233725 L 285 322.621023670092 L 285 322.62102367009203 L 286 321.2941451624325 L 286 321.2941451624325 L 287.00000000000006 319.95818268141625 L 287.00000000000006 319.9581826814163 L 288 318.6129478180728 L 288 318.6129478180729 L 289 317.2582482272811 L 289 317.2582482272811 L 290 315.8938875087461 L 290 315.89388750874616 L 291 314.5196650839089 L 291 314.519665083909 L 292.00000000000006 313.13537606862604 L 292.00000000000006 313.1353760686261 L 293 311.7408111414403 L 293 311.74081114144036 L 294.00000000000006 310.33575640725803 L 294.00000000000006 310.33575640725815 L 295 308.9199932562428 L 295 308.91999325624283 L 296 307.4932982177176 L 296 307.49329821771767 L 297.00000000000006 306.0554428088712 L 297.00000000000006 306.05544280887125 L 298 304.60619337803826 L 298 304.60619337803837 L 299.00000000000006 303.1453109423268 L 299.00000000000006 303.14531094232683 L 300 301.67255101934416 L 300 301.6725510193442 L 301 300.1876634527675 L 301 300.18766345276754 L 302 298.69039223148843 L 302 298.6903922314885 L 303 297.18047530204797 L 303 297.180475302048 L 304.00000000000006 295.65764437406847 L 304.00000000000006 295.6576443740685 L 305 294.121624718366 L 305 294.1216247183661 L 306 292.5721349574194 L 306 292.5721349574195 L 307 291.00888684784906 L 307 291.0088868478491 L 308 289.4315850545437 L 308 289.43158505454375 L 309.00000000000006 287.8399269160549 L 309.00000000000006 287.839926916055 L 310 286.2336022008569 L 310 286.23360220085704 L 311.00000000000006 284.6122928540499 L 311.00000000000006 284.61229285405 L 312 282.97567273406355 L 312 282.97567273406366 L 313 281.32340733889146 L 313 281.32340733889157 L 314.00000000000006 279.6551535213631 L 314.00000000000006 279.6551535213632 L 315 277.9705591929348 L 315 277.97055919293484 L 316.00000000000006 276.26926301544813 L 316.00000000000006 276.26926301544813 L 317 274.5508940802832 L 317 274.5508940802833 L 318 272.8150715742901 L 318 272.8150715742902 L 319.00000000000006 271.0614044318597 L 319.00000000000006 271.06140443185984 L 320 269.28949097245106 L 320 269.2894909724511 L 321.00000000000006 267.498918522857 L 321.00000000000006 267.49891852285714 L 322 265.68926302345176 L 322 265.6892630234519 L 323 263.86008861761223 L 323 263.8600886176123 L 324 262.010947223472 L 324 262.01094722347204 L 325 260.14137808710234 L 325 260.14137808710245 L 326.00000000000006 258.2509073161766 L 326.00000000000006 258.2509073161767 L 327 256.33904739310657 L 327 256.3390473931066 L 328 254.4052966665878 L 328 254.4052966665879 L 329 252.44913882042476 L 329 252.44913882042485 L 330 250.470042318435 L 330 250.4700423184351 L 331.00000000000006 248.46745982416692 L 331.00000000000006 248.46745982416704 L 332 246.4408275940795 L 332 246.44082759407962 L 333.00000000000006 244.38956484275474 L 333.00000000000006 244.38956484275485 L 334 242.31307307862568 L 334 242.3130730786258 L 335 240.2107354086004 L 335 240.21073540860053 L 336.00000000000006 238.0819158098727 L 336.00000000000006 238.0819158098728 L 337 235.92595836708782 L 337 235.92595836708793 L 338.00000000000006 233.74218647292497 L 338.00000000000006 233.74218647292508 L 339 231.52990199003037 L 339 231.52990199003048 L 340 229.28838437209413 L 340 229.28838437209424 L 341.00000000000006 227.01688974173075 L 341.00000000000006 227.01688974173086 L 342 224.714649922657 L 342 224.71464992265712 L 343.00000000000006 222.38087142350042 L 343.00000000000006 222.38087142350054 L 344 220.0147343703937 L 344 220.0147343703938 L 345 217.61539138530682 L 345 217.61539138530696 L 346 215.18196640687654 L 346 215.18196640687665 L 347 212.7135534502531 L 347 212.71355345025324 L 348.00000000000006 210.20921530225343 L 348.00000000000006 210.20921530225357 L 349 207.66798214784362 L 349 207.66798214784376 L 350.00000000000006 205.0888501236911 L 350.00000000000006 205.0888501236912 L 351 202.47077979423102 L 351 202.47077979423116 L 352 199.81269454534768 L 352 199.8126945453478 L 353.00000000000006 197.1134788904322 L 353.00000000000006 197.11347889043233 L 354 194.37197668318007 L 354 194.3719766831802 L 355.00000000000006 191.58698923107954 L 355.00000000000006 191.58698923107968 L 356 188.75727330309275 L 356 188.75727330309292 L 357 185.88153902452925 L 357 185.8815390245294 L 358.00000000000006 182.95844765159586 L 358.00000000000006 182.958447651596 L 359 179.98660921750746 L 359 179.98660921750763 L 360.00000000000006 176.96458004143025 L 360.00000000000006 176.9645800414304 L 361 173.8908600908346 L 361 173.89086009083474 L 362 170.76389018708758 L 362 170.76389018708772 L 363 167.58204904330893 L 363 167.58204904330907 L 364 164.34365012261213 L 364 164.34365012261227 L 365.00000000000006 161.04693830390244 L 365.00000000000006 161.0469383039026 L 366 157.6900863413216 L 366 157.69008634132183 L 367 154.2711911022895 L 367 154.27119110228966 L 368 150.7882695678121 L 368 150.78826956781228 L 369 147.23925457733662 L 369 147.23925457733685 L 370.00000000000006 143.6219902989161 L 370.00000000000006 143.62199029891627 L 371 139.93422740375883 L 371 139.934227403759 L 372.00000000000006 136.17361792240877 L 372.00000000000006 136.173617922409 L 373 132.33770975777702 L 373 132.33770975777725 L 374 128.4239408280053 L 374 128.42394082800553 L 375.00000000000006 124.42963280969872 L 375.00000000000006 124.42963280969883 L 376 120.35198444934383 L 376 120.351984449344 L 377.00000000000006 116.18806440772988 L 377.00000000000006 116.18806440773005 L 378 111.93480359889242 L 378 111.93480359889253 L 379 107.58898698140558 L 379 107.58898698140575 L 380.00000000000006 103.14724475580817 L 380.00000000000006 103.14724475580829 L 381 98.60604291741299 L 381 98.60604291741316 L 382.00000000000006 93.9616731087462 L 382.00000000000006 93.96167310874637 L 383 89.21024171028068 L 383 89.21024171028085 L 384 84.34765810189862 L 384 84.34765810189879 L 385 79.36962202060903 L 385 79.3696220206092 L 386 74.27160993226477 L 386 74.27160993226494 L 387.00000000000006 69.04886032639394 L 387.00000000000006 69.04886032639416 L 388 63.69635783352908 L 388 63.696357833529305 L 389.00000000000006 58.20881605354134 L 389.00000000000006 58.20881605354151 L 390 52.580658971262324 L 390 52.580658971262494 L 391 46.806000821893065 L 391 46.80600082189329 L 392 40.878624253229475 L 392 40.8786242532297 L 393 34.791956614185665 L 393 34.791956614185835 L 394.00000000000006 28.53904417935007 L 394.00000000000006 28.539044179350185 L 395 22.11252409687239 L 395 22.11252409687262 L 396 15.50459382156913 L 396 15.504593821569358 L 397 8.70697776622626 L 397 8.706977766226487 L 398 1.7108908712052653 L 398 1.7108908712054358 L 399 -5.493001245096536 L 399 -5.493001245096309 L 400.00000000000006 -12.914625935280242 L 400.00000000000006 -12.914625935280014 L 400.6647612565058 -18 M 463.0877622189965 873 L 522.9143954443709 873 L 523 872.2837780595984 L 523 872.2837780595987 L 524 864.179651021878 L 524 864.1796510218783 L 525 856.325323762906 L 525 856.3253237629062 L 526 848.7088951243056 L 526 848.7088951243059 L 527 841.3192065830935 L 527 841.3192065830938 L 528 834.1457851869319 L 528 834.1457851869321 L 529 827.1787916713906 L 529 827.1787916713909 L 530 820.4089732184163 L 530 820.4089732184166 L 531 813.8276203787232 L 531 813.8276203787234 L 532 807.426527736129 L 532 807.4265277361292 L 533 801.1979579400122 L 533 801.1979579400124 L 534 795.1346087741781 L 534 795.1346087741783 L 535 789.2295829671962 L 535 789.2295829671964 L 536 783.476360481608 L 536 783.4763604816081 L 537 777.8687730477321 L 537 777.8687730477324 L 538 772.4009807327747 L 538 772.4009807327748 L 539 767.0674503579615 L 539 767.0674503579617 L 540 761.8629355958386 L 540 761.8629355958387 L 541 756.7824585971082 L 541 756.7824585971082 L 542 751.8212930115787 L 542 751.8212930115789 L 543 746.9749482813675 L 543 746.9749482813677 L 544 742.2391550964946 L 544 742.2391550964948 L 545 737.6098519137319 L 545 737.609851913732 L 546 733.0831724491111 L 546 733.0831724491111 L 547 728.6554340630157 L 547 728.6554340630158 L 548 724.3231269644248 L 548 724.3231269644249 L 549 720.0829041676716 L 549 720.0829041676716 L 550 715.9315721412337 L 550 715.9315721412338 L 551 711.8660820935438 L 551 711.866082093544 L 552 707.8835218457609 L 552 707.8835218457612 L 553 703.9811082458812 L 553 703.9811082458813 L 554 700.1561800825855 L 554 700.1561800825857 L 555 696.4061914608283 L 555 696.4061914608285 L 556 692.7287056044311 L 556 692.7287056044313 L 557 689.1213890539184 L 557 689.1213890539186 L 558 685.5820062304858 L 558 685.5820062304861 L 559 682.1084143394276 L 559 682.1084143394278 L 560 678.6985585885366 L 560 678.6985585885368 L 561 675.3504676990067 L 561 675.3504676990069 L 562 672.0622496881588 L 562 672.0622496881589 L 563 668.8320879049807 L 563 668.8320879049809 L 564 665.6582373009719 L 564 665.658237300972 L 565 662.5390209201533 L 565 662.5390209201535 L 566 659.4728265933595 L 566 659.4728265933596 L 567 656.4581038230679 L 567 656.458103823068 L 568 653.493360846077 L 568 653.4933608460772 L 569 650.5771618622932 L 569 650.5771618622933 L 570 647.7081244187613 L 570 647.7081244187614 L 571 644.884916938892 L 571 644.8849169388922 L 572 642.1062563875615 L 572 642.1062563875616 L 573 639.3709060634396 L 573 639.3709060634397 L 574 636.6776735105341 L 574 636.6776735105342 L 575 634.0254085414999 L 575 634.0254085415 L 576 631.4130013657933 L 576 631.4130013657935 L 577 628.8393808162391 L 577 628.8393808162392 L 578 626.303512668021 L 578 626.3035126680212 L 579 623.8043980445242 L 579 623.8043980445243 L 580 621.3410719048302 L 580 621.3410719048302 L 581 618.912601608029 L 581 618.912601608029 L 582 616.5180855498296 L 582 616.5180855498297 L 583 614.15665186725 L 583 614.1566518672503 L 584 611.8274572074549 L 584 611.827457207455 L 585 609.5296855570585 L 585 609.5296855570587 L 586 607.2625471284555 L 586 607.2625471284556 L 587 605.0252772999568 L 587 605.0252772999568 L 588 602.8171356067242 L 588 602.8171356067242 L 589 600.6374047796799 L 589 600.6374047796801 L 590 598.485389829745 L 590 598.4853898297451 L 591 596.360417174932 L 591 596.3604171749321 L 592 594.2618338079654 L 592 594.2618338079656 L 593 592.1890065022491 L 593 592.1890065022492 L 594 590.141321054128 L 594 590.1413210541281 L 595 588.118181559526 L 595 588.1181815595261 L 596 586.1190097231456 L 596 586.1190097231457 L 597 584.1432441985303 L 597 584.1432441985304 L 598 582.1903399573894 L 598 582.1903399573894 L 599 580.2597676866793 L 599 580.2597676866794 L 600 578.3510132120234 L 600 578.3510132120236 L 601 576.4635769461306 L 601 576.4635769461307 L 602 574.596973360959 L 602 574.5969733609592 L 603 572.7507304824342 L 603 572.7507304824342 L 604 570.9243894065991 L 604 570.9243894065992 L 605 569.1175038361462 L 605 569.1175038361463 L 606 567.3296396363257 L 606 567.3296396363257 L 607 565.5603744092921 L 607 565.5603744092922 L 608 563.8092970859968 L 608 563.8092970859968 L 609 562.0760075347872 L 609 562.0760075347873 L 610 560.3601161859106 L 610 560.3601161859107 L 611 558.6612436711764 L 611 558.6612436711765 L 612 556.9790204780608 L 612 556.9790204780609 L 613 555.3130866175776 L 613 555.3130866175777 L 614 553.6630913052802 L 614 553.6630913052803 L 615 552.0286926547848 L 615 552.0286926547849 L 616 550.4095573832451 L 616 550.4095573832452 L 617 548.8053605282315 L 617 548.8053605282316 L 618 547.2157851755003 L 618 547.2157851755003 L 619 545.640522197162 L 619 545.6405221971621 L 620 544.0792699997878 L 620 544.0792699997878 L 621 542.5317342820055 L 621 542.5317342820056 L 622 540.9976278011753 L 622 540.9976278011754 L 623 539.4766701487393 L 623 539.4766701487393 L 624 537.9685875338712 L 624 537.9685875338712 L 625 536.4731125750645 L 625 536.4731125750645 L 626 534.9899840993179 L 626 534.989984099318 L 627 533.5189469485921 L 627 533.5189469485922 L 628 532.0597517932271 L 628 532.0597517932272 L 629 530.6121549520287 L 629 530.6121549520288 L 630 529.1759182187391 L 630 529.1759182187392 L 631 527.7508086946273 L 631 527.7508086946273 L 632 526.336598626943 L 632 526.3365986269431 L 633 524.9330652529931 L 633 524.9330652529932 L 634 523.5399906496061 L 634 523.5399906496061 L 635 522.1571615877657 L 635 522.1571615877658 L 636 520.7843693922051 L 636 520.7843693922052 L 637 519.4214098057547 L 637 519.4214098057548 L 638 518.0680828582592 L 638 518.0680828582592 L 639 516.7241927398749 L 639 516.7241927398749 L 640 515.3895476785751 L 640 515.3895476785751 L 641 514.0639598216975 L 641 514.0639598216975 L 642 512.7472451213689 L 642 512.7472451213689 L 643 511.439223223663 L 643 511.4392232236631 L 644 510.1397173613361 L 644 510.1397173613362 L 645 508.84855425000865 L 645 508.8485542500087 L 646 507.5655639876549 L 646 507.56556398765497 L 647 506.2905799572749 L 647 506.29057995727493 L 648 505.02343873262555 L 648 505.02343873262555 L 649 503.7639799868946 L 649 503.7639799868946 L 650 502.51204640420406 L 650 502.51204640420406 L 651 501.26748359383816 L 651 501.2674835938382 L 652 500.0301400070906 L 652 500.0301400070906 L 653 498.79986685663346 L 653 498.79986685663346 L 654 497.5765180383145 L 654 497.57651803831453 L 655 496.35995005528883 L 655 496.3599500552889 L 656 495.1500219444032 L 656 495.15002194440325 L 657 493.94659520474386 L 657 493.9465952047439 L 658 492.7495337282728 L 658 492.7495337282728 L 659 491.55870373247257 L 659 491.5587037324726 L 660 490.3739736949274 L 660 490.37397369492743 L 661 489.1952142897696 L 661 489.19521428976964 L 662 488.02229832592167 L 662 488.0222983259217 L 663 486.8551006870724 L 663 486.8551006870724 L 664 485.69349827331956 L 664 485.6934982733196 L 665 484.53736994442244 L 665 484.5373699444225 L 666 483.3865964646046 L 666 483.3865964646046 L 667 482.2410604488508 L 667 482.2410604488509 L 668 481.10064631064574 L 668 481.10064631064574 L 669 479.9652402110998 L 669 479.96524021109985 L 670 478.83473000941717 L 670 478.83473000941717 L 671 477.709005214652 L 671 477.70900521465205 L 672 476.58795693871247 L 672 476.5879569387125 L 673 475.47147785056364 L 673 475.4714778505637 L 674 474.3594621315896 L 674 474.3594621315897 L 675 473.25180543207034 L 675 473.2518054320704 L 676 472.14840482873626 L 676 472.14840482873626 L 677 471.04915878336124 L 677 471.04915878336124 L 678 469.9539671023548 L 678 469.9539671023548 L 679 468.86273089732117 L 679 468.86273089732117 L 680 467.775352546548 L 680 467.775352546548 L 681 466.69173565739277 L 681 466.69173565739277 L 682 465.61178502953277 L 682 465.6117850295328 L 683 464.53540661905015 L 683 464.5354066190502 L 684 463.46250750332 L 684 463.46250750332 L 685 462.3929958466716 L 685 462.3929958466716 L 686 461.32678086679715 L 686 461.32678086679715 L 687 460.2637728018783 L 687 460.2637728018783 L 688 459.2038828784058 L 688 459.2038828784058 L 689 458.1470232796639 L 689 458.1470232796639 L 690 457.09310711485904 L 690 457.09310711485904 L 691 456.0420483888636 L 691 456.0420483888636 L 692 454.99376197255594 L 692 454.993761972556 L 693 453.9481635737311 L 693 453.94816357373116 L 694 452.9051697085611 L 694 452.9051697085612 L 695 451.8646976735844 L 695 451.8646976735844 L 696 450.8266655182008 L 696 450.8266655182008 L 697 449.79099201765655 L 697 449.7909920176566 L 698 448.75759664649445 L 698 448.75759664649445 L 699 447.72639955245376 L 699 447.72639955245376 L 700 446.69732153080014 L 700 446.69732153080014 L 701 445.67028399906684 L 701 445.6702839990669 L 702 444.6452089721908 L 702 444.64520897219086 L 703 443.62201903802423 L 703 443.62201903802423 L 704 442.60063733320817 L 704 442.60063733320817 L 705 441.5809875193879 L 705 441.5809875193879 L 706 440.56299375975715 L 706 440.56299375975715 L 707 439.5465806959134 L 707 439.5465806959134 L 708 438.53167342501087 L 708 438.53167342501087 L 709 437.518197477193 L 709 437.518197477193 L 710 436.5060787932934 L 710 436.5060787932934 L 711 435.4952437027888 L 711 435.4952437027888 L 712 434.48561890198886 L 712 434.48561890198886 L 713 433.4771314324516 L 713 433.4771314324516 L 714 432.469708659608 L 714 432.469708659608 L 715 431.463278251585 L 715 431.463278251585 L 716 430.45776815821023 L 716 430.45776815821023 L 717 429.45310659018855 L 717 429.4531065901886 L 718 428.4492219984369 L 718 428.4492219984369 L 719 427.44604305356154 L 719 427.44604305356154 L 720 426.4434986254705 L 720 426.4434986254705 L 721 425.4415177631038 L 721 425.4415177631038 L 722 424.44002967427264 L 722 424.44002967427264 L 723 423.4389637055923 L 723 423.4389637055923 L 724 422.43824932250016 L 724 422.43824932250016 L 725 421.43781608934273 L 725 421.43781608934273 L 726 420.4375936495234 L 726 420.4375936495234 L 727 419.4375117056972 L 727 419.4375117056972 L 728 418.4375 L 728 418.4375 L 729 417.4374882943029 L 729 417.4374882943029 L 730 416.4374063504765 L 730 416.4374063504765 L 731 415.4371839106572 L 731 415.43718391065727 L 732 414.4367506774998 L 732 414.4367506774998 L 733 413.43603629440764 L 733 413.43603629440764 L 734 412.4349703257273 L 734 412.4349703257273 L 735 411.43348223689617 L 735 411.43348223689617 L 736 410.4315013745296 L 736 410.4315013745296 L 737 409.4289569464384 L 737 409.4289569464384 L 738 408.42577800156306 L 738 408.42577800156306 L 739 407.42189340981133 L 739 407.4218934098114 L 740 406.4172318417899 L 740 406.4172318417899 L 741 405.41172174841495 L 741 405.41172174841495 L 742 404.40529134039195 L 742 404.40529134039195 L 743 403.3978685675485 L 743 403.3978685675485 L 744 402.3893810980111 L 744 402.3893810980111 L 745 401.37975629721115 L 745 401.37975629721115 L 746 400.36892120670655 L 746 400.36892120670655 L 747 399.3568025228071 L 747 399.3568025228071 L 748 398.3433265749891 L 748 398.3433265749891 L 749 397.32841930408654 L 749 397.32841930408654 L 750 396.3120062402428 L 750 396.3120062402428 L 751 395.294012480612 L 751 395.294012480612 L 752 394.2743626667918 L 752 394.2743626667918 L 753 393.2529809619757 L 753 393.2529809619757 L 754 392.22979102780926 L 754 392.22979102780926 L 755 391.2047160009331 L 755 391.2047160009331 L 756 390.1776784691999 L 756 390.1776784691999 L 757 389.1486004475462 L 757 389.1486004475462 L 758 388.1174033535055 L 758 388.1174033535055 L 759 387.08400798234334 L 759 387.0840079823434 L 760 386.04833448179915 L 760 386.0483344817992 L 761 385.0103023264157 L 761 385.01030232641574 L 762 383.96983029143877 L 762 383.96983029143877 L 763 382.92683642626895 L 763 382.92683642626895 L 764 381.88123802744394 L 764 381.881238027444 L 765 380.8329516111363 L 765 380.83295161113637 L 766 379.7818928851409 L 766 379.7818928851409 L 767 378.727976720336 L 767 378.727976720336 L 768 377.67111712159414 L 768 377.67111712159414 L 769 376.6112271981216 L 769 376.61122719812164 L 770 375.5482191332029 L 770 375.54821913320296 L 771 374.4820041533283 L 771 374.4820041533283 L 772 373.4124924966799 L 772 373.41249249667993 L 773 372.33959338094974 L 773 372.33959338094974 L 774 371.2632149704673 L 774 371.2632149704673 L 775 370.1832643426072 L 775 370.1832643426072 L 776 369.0996474534519 L 776 369.09964745345195 L 777 368.0122691026789 L 777 368.01226910267894 L 778 366.92103289764515 L 778 366.92103289764515 L 779 365.82584121663865 L 779 365.8258412166387 L 780 364.7265951712636 L 780 364.7265951712636 L 781 363.6231945679297 L 781 363.6231945679297 L 782 362.51553786841026 L 782 362.5155378684103 L 783 361.40352214943624 L 783 361.4035221494363 L 784 360.2870430612874 L 784 360.2870430612875 L 785 359.1659947853479 L 785 359.1659947853479 L 786 358.0402699905827 L 786 358.0402699905828 L 787 356.90975978890003 L 787 356.9097597889001 L 788 355.7743536893543 L 788 355.7743536893543 L 789 354.633939551149 L 789 354.63393955114907 L 790 353.4884035353954 L 790 353.48840353539543 L 791 352.33763005557745 L 791 352.33763005557745 L 792 351.1815017266803 L 792 351.1815017266804 L 793 350.01989931292746 L 793 350.01989931292746 L 794 348.8527016740782 L 794 348.8527016740783 L 795 347.6797857102305 L 795 347.6797857102305 L 796 346.50102630507246 L 796 346.5010263050725 L 797 345.31629626752743 L 797 345.3162962675275 L 798 344.1254662717271 L 798 344.1254662717271 L 799 342.928404795256 L 799 342.92840479525603 L 800 341.72497805559664 L 800 341.7249780555967 L 801 340.515049944711 L 801 340.51504994471105 L 802 339.2984819616854 L 802 339.2984819616854 L 803 338.07513314336643 L 803 338.07513314336643 L 804 336.8448599929094 L 804 336.84485999290945 L 805 335.60751640616166 L 805 335.6075164061617 L 806 334.3629535957958 L 806 334.36295359579583 L 807 333.11102001310525 L 807 333.1110200131053 L 808 331.8515612673743 L 808 331.85156126737434 L 809 330.584420042725 L 809 330.584420042725 L 810 329.3094360123451 L 810 329.30943601234515 L 811 328.02644574999124 L 811 328.02644574999124 L 812 326.7352826386637 L 812 326.73528263866376 L 813 325.4357767763368 L 813 325.4357767763368 L 814 324.12775487863087 L 814 324.1277548786309 L 815 322.8110401783025 L 815 322.81104017830256 L 816 321.48545232142465 L 816 321.48545232142476 L 817 320.15080726012513 L 817 320.1508072601252 L 818 318.8069171417406 L 818 318.80691714174066 L 819 317.45359019424507 L 819 317.4535901942452 L 820 316.0906306077947 L 820 316.09063060779476 L 821 314.717838412234 L 821 314.7178384122341 L 822 313.3350093503939 L 822 313.335009350394 L 823 311.9419347470067 L 823 311.9419347470067 L 824 310.5384013730569 L 824 310.53840137305696 L 825 309.1241913053726 L 825 309.1241913053726 L 826 307.69908178126065 L 826 307.6990817812607 L 827 306.26284504797104 L 827 306.2628450479711 L 828 304.8152482067727 L 828 304.81524820677276 L 829 303.3560530514077 L 829 303.3560530514078 L 830 301.8850159006819 L 830 301.88501590068194 L 831 300.4018874249354 L 831 300.40188742493547 L 832 298.9064124661286 L 832 298.9064124661287 L 833 297.3983298512604 L 833 297.3983298512605 L 834 295.8773721988244 L 834 295.8773721988245 L 835 294.34326571799426 L 835 294.3432657179943 L 836 292.79573000021196 L 836 292.7957300002121 L 837 291.2344778028377 L 837 291.2344778028378 L 838 289.6592148244997 L 838 289.65921482449977 L 839 288.06963947176814 L 839 288.06963947176826 L 840 286.46544261675456 L 840 286.4654426167547 L 841 284.8463073452149 L 841 284.846307345215 L 842 283.21190869471957 L 842 283.2119086947197 L 843 281.5619133824221 L 843 281.5619133824222 L 844 279.895979521939 L 844 279.8959795219391 L 845 278.2137563288235 L 845 278.21375632882354 L 846 276.5148838140891 L 846 276.5148838140892 L 847 274.79899246521245 L 847 274.79899246521256 L 848 273.0657029140028 L 848 273.06570291400294 L 849 271.3146255907077 L 849 271.31462559070775 L 850 269.545360363674 L 850 269.5453603636741 L 851 267.7574961638535 L 851 267.7574961638536 L 852 265.9506105934005 L 852 265.9506105934006 L 853 264.1242695175655 L 853 264.1242695175656 L 854 262.2780266390405 L 854 262.2780266390406 L 855 260.4114230538691 L 855 260.4114230538692 L 856 258.5239867879761 L 856 258.52398678797624 L 857 256.6152323133203 L 857 256.6152323133204 L 858 254.68466004261046 L 858 254.68466004261057 L 859 252.73175580146935 L 859 252.73175580146946 L 860 250.75599027685396 L 860 250.75599027685408 L 861 248.75681844047364 L 861 248.75681844047375 L 862 246.73367894587173 L 862 246.73367894587184 L 863 244.6859934977505 L 863 244.68599349775062 L 864 242.6131661920341 L 864 242.6131661920342 L 865 240.51458282506775 L 865 240.51458282506786 L 866 238.3896101702545 L 866 238.38961017025463 L 867 236.2375952203196 L 867 236.23759522031972 L 868 234.05786439327548 L 868 234.05786439327557 L 869 231.8497227000431 L 869 231.8497227000432 L 870 229.612452871544 L 870 229.61245287154418 L 871 227.34531444294095 L 871 227.34531444294103 L 872 225.04754279254473 L 872 225.0475427925449 L 873 222.71834813274944 L 873 222.71834813274958 L 874 220.35691445016982 L 874 220.35691445016994 L 875 217.96239839197048 L 875 217.96239839197062 L 876 215.53392809516953 L 876 215.53392809516967 L 877 213.07060195547524 L 877 213.0706019554754 L 878 210.5714873319784 L 878 210.57148733197855 L 879 208.03561918376056 L 879 208.03561918376073 L 880 205.46199863420608 L 880 205.46199863420622 L 881 202.84959145849945 L 881 202.8495914584996 L 882 200.19732648946527 L 882 200.1973264894654 L 883 197.5040939365598 L 883 197.5040939365599 L 884 194.7687436124379 L 884 194.76874361243807 L 885 191.9900830611073 L 885 191.99008306110744 L 886 189.16687558123814 L 886 189.16687558123832 L 887 186.29783813770615 L 887 186.2978381377063 L 888 183.38163915392212 L 888 183.3816391539223 L 889 180.41689617693163 L 889 180.41689617693177 L 890 177.4021734066398 L 890 177.40217340663997 L 891 174.33597907984588 L 891 174.33597907984603 L 892 171.2167626990276 L 892 171.2167626990278 L 893 168.04291209501866 L 893 168.0429120950188 L 894 164.8127503118405 L 894 164.81275031184063 L 895 161.52453230099246 L 895 161.52453230099263 L 896 158.17644141146275 L 896 158.17644141146286 L 897 154.76658566057165 L 897 154.76658566057182 L 898 151.29299376951315 L 898 151.29299376951332 L 899 147.75361094608104 L 899 147.7536109460812 L 900 144.14629439556808 L 900 144.1462943955683 L 901 140.46880853917077 L 901 140.46880853917094 L 902 136.71881991741338 L 902 136.7188199174136 L 903 132.89389175411821 L 903 132.89389175411839 L 904 128.9914781542381 L 904 128.99147815423828 L 905 125.00891790645517 L 905 125.00891790645528 L 906 120.94342785876535 L 906 120.94342785876552 L 907 116.7920958323275 L 907 116.79209583232767 L 908 112.5518730355742 L 908 112.55187303557432 L 909 108.21956593698314 L 909 108.21956593698332 L 910 103.79182755088823 L 910 103.79182755088846 L 911 99.26514808626712 L 911 99.26514808626729 L 912 94.63584490350462 L 912 94.63584490350479 L 913 89.90005171863157 L 913 89.90005171863174 L 914 85.05370698842012 L 914 85.05370698842029 L 915 80.09254140289056 L 915 80.09254140289067 L 916 75.01206440415996 L 916 75.01206440416013 L 917 69.80754964203749 L 917 69.80754964203766 L 918 64.47401926722392 L 918 64.47401926722415 L 919 59.00622695226696 L 919 59.00622695226713 L 920 53.39863951839078 L 920 53.39863951839101 L 921 47.64541703280241 L 921 47.64541703280264 L 922 41.74039122582025 L 922 41.740391225820474 L 923 35.67704205998575 L 923 35.67704205998598 L 924 29.448472263869576 L 924 29.44847226386969 L 925 23.04737962127507 L 925 23.047379621275184 L 926 16.466026781582457 L 926 16.466026781582684 L 927 9.696208328607895 L 927 9.696208328608122 L 928 2.729214813066392 L 928 2.729214813066619 L 929 -4.444206583095877 L 929 -4.444206583095649 L 930 -11.833895124306991 L 930 -11.833895124306764 L 930.8095795507677 -17.999999999999996 M 994.9303351938682 873 L 1053.0577446112366 873 L 1054 865.3290392854092 L 1054 865.3290392854095 L 1055 857.4395514009266 L 1055 857.4395514009268 L 1056 849.7896259352788 L 1056 849.789625935279 L 1057 842.3680012450945 L 1057 842.3680012450948 L 1058 835.1641091287927 L 1058 835.1641091287929 L 1059 828.1680222337723 L 1059 828.1680222337725 L 1060 821.3704061784292 L 1060 821.3704061784294 L 1061 814.7624759031257 L 1061 814.762475903126 L 1062 808.3359558206487 L 1062 808.3359558206489 L 1063 802.0830433858132 L 1063 802.0830433858133 L 1064 795.9963757467688 L 1064 795.996375746769 L 1065 790.068999178105 L 1065 790.0689991781051 L 1066 784.2943410287365 L 1066 784.2943410287368 L 1067 778.6661839464571 L 1067 778.6661839464573 L 1068 773.1786421664701 L 1068 773.1786421664704 L 1069 767.826139673605 L 1069 767.8261396736051 L 1070 762.6033900677344 L 1070 762.6033900677345 L 1071 757.5053779793897 L 1071 757.5053779793898 L 1072 752.5273418980998 L 1072 752.5273418980998 L 1073 747.6647582897184 L 1073 747.6647582897185 L 1074 742.9133268912526 L 1074 742.9133268912526 L 1075 738.2689570825864 L 1075 738.2689570825866 L 1076 733.727755244191 L 1076 733.727755244191 L 1077 729.2860130185932 L 1077 729.2860130185934 L 1078 724.9401964011065 L 1078 724.9401964011067 L 1079 720.6869355922688 L 1079 720.6869355922689 L 1080 716.5230155506554 L 1080 716.5230155506556 L 1081 712.4453671903002 L 1081 712.4453671903004 L 1082 708.4510591719938 L 1082 708.4510591719941 L 1083 704.5372902422222 L 1083 704.5372902422224 L 1084 700.7013820775901 L 1084 700.7013820775903 L 1085 696.9407725962403 L 1085 696.9407725962404 L 1086 693.2530097010828 L 1086 693.2530097010829 L 1087 689.6357454226625 L 1087 689.6357454226627 L 1088 686.0867304321874 L 1088 686.0867304321877 L 1089 682.6038088977098 L 1089 682.60380889771 L 1090 679.1849136586777 L 1090 679.1849136586779 L 1091 675.8280616960967 L 1091 675.8280616960969 L 1092 672.5313498773871 L 1092 672.5313498773872 L 1093 669.2929509566904 L 1093 669.2929509566907 L 1094 666.1111098129115 L 1094 666.1111098129118 L 1095 662.984139909165 L 1095 662.9841399091652 L 1096 659.9104199585692 L 1096 659.9104199585693 L 1097 656.888390782492 L 1097 656.8883907824921 L 1098 653.9165523484033 L 1098 653.9165523484035 L 1099 650.9934609754699 L 1099 650.99346097547 L 1100 648.1177266969067 L 1100 648.1177266969069 L 1101 645.2880107689198 L 1101 645.2880107689199 L 1102 642.5030233168195 L 1102 642.5030233168197 L 1103 639.7615211095672 L 1103 639.7615211095674 L 1104 637.0623054546517 L 1104 637.0623054546518 L 1105 634.4042202057684 L 1105 634.4042202057686 L 1106 631.7861498763082 L 1106 631.7861498763083 L 1107 629.207017852156 L 1107 629.2070178521561 L 1108 626.665784697746 L 1108 626.6657846977461 L 1109 624.1614465497466 L 1109 624.1614465497468 L 1110 621.693033593123 L 1110 621.6930335931231 L 1111 619.2596086146926 L 1111 619.2596086146928 L 1112 616.8602656296058 L 1112 616.8602656296059 L 1113 614.494128576499 L 1113 614.494128576499 L 1114 612.1603500773426 L 1114 612.1603500773427 L 1115 609.8581102582687 L 1115 609.8581102582689 L 1116 607.5866156279053 L 1116 607.5866156279055 L 1117 605.3450980099693 L 1117 605.3450980099694 L 1118 603.1328135270745 L 1118 603.1328135270746 L 1119 600.9490416329119 L 1119 600.949041632912 L 1120 598.7930841901268 L 1120 598.7930841901268 L 1121 596.664264591399 L 1121 596.6642645913992 L 1122 594.561926921374 L 1122 594.5619269213742 L 1123 592.4854351572449 L 1123 592.4854351572449 L 1124 590.4341724059202 L 1124 590.4341724059203 L 1125 588.4075401758327 L 1125 588.4075401758328 L 1126 586.4049576815646 L 1126 586.4049576815647 L 1127 584.4258611795749 L 1127 584.4258611795751 L 1128 582.4697033334118 L 1128 582.4697033334119 L 1129 580.5359526068931 L 1129 580.5359526068933 L 1130 578.6240926838229 L 1130 578.624092683823 L 1131 576.7336219128974 L 1131 576.7336219128974 L 1132 574.8640527765278 L 1132 574.8640527765278 L 1133 573.0149113823874 L 1133 573.0149113823875 L 1134 571.185736976548 L 1134 571.1857369765481 L 1135 569.3760814771426 L 1135 569.3760814771426 L 1136 567.5855090275487 L 1136 567.5855090275488 L 1137 565.8135955681399 L 1137 565.81359556814 L 1138 564.0599284257095 L 1138 564.0599284257096 L 1139 562.3241059197164 L 1139 562.3241059197167 L 1140 560.6057369845515 L 1140 560.6057369845516 L 1141 558.904440807065 L 1141 558.9044408070652 L 1142 557.2198464786366 L 1142 557.2198464786366 L 1143 555.5515926611083 L 1143 555.5515926611083 L 1144 553.8993272659362 L 1144 553.8993272659363 L 1145 552.2627071459498 L 1145 552.2627071459499 L 1146 550.6413977991429 L 1146 550.6413977991429 L 1147 549.0350730839447 L 1147 549.0350730839448 L 1148 547.443414945456 L 1148 547.4434149454561 L 1149 545.8661131521509 L 1149 545.8661131521509 L 1150 544.3028650425804 L 1150 544.3028650425805 L 1151 542.7533752816338 L 1151 542.7533752816339 L 1152 541.2173556259313 L 1152 541.2173556259313 L 1153 539.6945246979518 L 1153 539.6945246979519 L 1154 538.1846077685115 L 1154 538.1846077685116 L 1155 536.6873365472322 L 1155 536.6873365472323 L 1156 535.2024489806558 L 1156 535.2024489806558 L 1157 533.7296890576731 L 1157 533.7296890576731 L 1158 532.2688066219616 L 1158 532.2688066219616 L 1159 530.8195571911285 L 1159 530.8195571911286 L 1160 529.3817017822821 L 1160 529.3817017822821 L 1161 527.955006743757 L 1161 527.9550067437572 L 1162 526.5392435927417 L 1162 526.5392435927417 L 1163 525.1341888585597 L 1163 525.1341888585598 L 1164 523.7396239313738 L 1164 523.7396239313739 L 1165 522.3553349160909 L 1165 522.355334916091 L 1166 520.9811124912537 L 1166 520.9811124912537 L 1167 519.6167517727187 L 1167 519.6167517727187 L 1168 518.2620521819271 L 1168 518.2620521819272 L 1169 516.9168173185835 L 1169 516.9168173185836 L 1170 515.5808548375675 L 1170 515.5808548375676 L 1171 514.2539763299079 L 1171 514.253976329908 L 1172 512.9359972076626 L 1172 512.9359972076627 L 1173 511.62673659254625 L 1173 511.6267365925463 L 1174 510.3260172081615 L 1174 510.32601720816155 L 1175 509.03366527569375 L 1175 509.0336652756938 L 1176 507.7495104129325 L 1176 507.7495104129326 L 1177 506.4733855364941 L 1177 506.47338553649416 L 1178 505.20512676712 L 1178 505.2051267671201 L 1179 503.94457333793434 L 1179 503.94457333793434 L 1180 502.6915675055484 L 1180 502.6915675055484 L 1181 501.4459544639022 L 1181 501.44595446390224 L 1182 500.207582260742 L 1182 500.2075822607421 L 1183 498.97630171663286 L 1183 498.9763017166329 L 1184 497.7519663464111 L 1184 497.75196634641117 L 1185 496.53443228298784 L 1185 496.53443228298784 L 1186 495.32355820341246 L 1186 495.3235582034125 L 1187 494.11920525711656 L 1187 494.1192052571166 L 1188 492.92123699625336 L 1188 492.9212369962534 L 1189 491.72951930805885 L 1189 491.7295193080589 L 1190 490.5439203491592 L 1190 490.54392034915924 L 1191 489.3643104817521 L 1191 489.36431048175217 L 1192 488.1905622115969 L 1192 488.19056221159695 L 1193 487.0225501277431 L 1193 487.0225501277431 L 1194 485.86015084393864 L 1194 485.86015084393864 L 1195 484.7032429416545 L 1195 484.7032429416545 L 1196 483.5517069146674 L 1196 483.5517069146674 L 1197 482.4054251151463 L 1197 482.40542511514633 L 1198 481.2642817011855 L 1198 481.26428170118555 L 1199 480.1281625857363 L 1199 480.12816258573633 L 1200 478.996955386883 L 1200 478.99695538688303 L 1201 477.87054937941815 L 1201 477.87054937941815 L 1202 476.74883544766953 L 1202 476.7488354476696 L 1203 475.6317060395334 L 1203 475.63170603953347 L 1204 474.5190551216723 L 1204 474.5190551216723 L 1205 473.41077813583456 L 1205 473.4107781358346 L 1206 472.3067719562563 L 1206 472.3067719562563 L 1207 471.2069348481068 L 1207 471.2069348481068 L 1208 470.11116642694026 L 1208 470.11116642694026 L 1209 469.01936761911753 L 1209 469.0193676191176 L 1210 467.9314406231632 L 1210 467.9314406231632 L 1211 466.8472888720248 L 1211 466.8472888720249 L 1212 465.76681699620144 L 1212 465.7668169962015 L 1213 464.68993078770956 L 1213 464.6899307877096 L 1214 463.616537164858 L 1214 463.6165371648581 L 1215 462.54654413779986 L 1215 462.54654413779986 L 1216 461.4798607748354 L 1216 461.47986077483546 L 1217 460.41639716943735 L 1217 460.41639716943735 L 1218 459.3560644079713 L 1218 459.3560644079713 L 1219 458.2987745380879 L 1219 458.2987745380879 L 1220 457.2444405377587 L 1220 457.24444053775875 L 1221 456.19297628493433 L 1221 456.19297628493433 L 1222 455.1442965277994 L 1222 455.14429652779944 L 1223 454.0983168556026 L 1223 454.0983168556026 L 1224 453.0549536700399 L 1224 453.0549536700399 L 1225 452.014124157168 L 1225 452.014124157168 L 1226 450.9757462598295 L 1226 450.9757462598295 L 1227 449.9397386505675 L 1227 449.93973865056756 L 1228 448.9060207050102 L 1228 448.90602070501023 L 1229 447.87451247570795 L 1229 447.87451247570795 L 1230 446.84513466640175 L 1230 446.84513466640175 L 1231 445.8178086067071 L 1231 445.8178086067071 L 1232 444.79245622719344 L 1232 444.7924562271935 L 1233 443.769000034844 L 1233 443.769000034844 L 1234 442.74736308887736 L 1234 442.7473630888774 L 1235 441.7274689769152 L 1235 441.7274689769152 L 1236 440.7092417914801 L 1236 440.7092417914801 L 1237 439.69260610680726 L 1237 439.69260610680726 L 1238 438.6774869559549 L 1238 438.677486955955 L 1239 437.6638098081987 L 1239 437.6638098081987 L 1240 436.65150054669397 L 1240 436.651500546694 L 1241 435.64048544639365 L 1241 435.64048544639365 L 1242 434.6306911522049 L 1242 434.6306911522049 L 1243 433.6220446573731 L 1243 433.6220446573732 L 1244 432.6144732820775 L 1244 432.6144732820775 L 1245 431.60790465222505 L 1245 431.60790465222505 L 1246 430.6022666784318 L 1246 430.6022666784318 L 1247 429.5974875351744 L 1247 429.5974875351744 L 1248 428.5934956401029 L 1248 428.5934956401029 L 1249 427.5902196334988 L 1249 427.5902196334988 L 1250 426.58758835786864 L 1250 426.58758835786864 L 1251 425.58553083765827 L 1251 425.58553083765827 L 1252 424.5839762590763 L 1252 424.5839762590763 L 1253 423.5828539500154 L 1253 423.5828539500155 L 1254 422.58209336005797 L 1254 422.58209336005797 L 1255 421.58162404055435 L 1255 421.58162404055435 L 1256 420.581375624763 L 1256 420.581375624763 L 1257 419.58127780803795 L 1257 419.58127780803795 L 1258 418.5812603280555 L 1258 418.58126212650586 L 1259 417.5812529450641 L 1259 417.5812529450641 L 1260 416.58118542214896 L 1260 416.58118542214896 L 1261 415.58098750549834 L 1261 415.58098750549834 L 1262 414.58058890465895 L 1262 414.58058890465895 L 1263 413.5799192727704 L 1263 413.5799192727704 L 1264 412.578908186765 L 1264 412.578908186765 L 1265 411.57748512752323 L 1265 411.57748512752323 L 1266 410.5755794599706 L 1266 410.5755794599706 L 1267 409.57312041310536 L 1267 409.57312041310536 L 1268 408.5700370599458 L 1268 408.5700370599458 L 1269 407.56625829738203 L 1269 407.56625829738203 L 1270 406.56171282592453 L 1270 406.56171282592453 L 1271 405.556329129332 L 1271 405.556329129332 L 1272 404.55003545411097 L 1272 404.55003545411097 L 1273 403.54275978887074 L 1273 403.54275978887074 L 1274 402.53442984352324 L 1274 402.5344298435233 L 1275 401.52497302831443 L 1275 401.52497302831443 L 1276 400.5143164326729 L 1276 400.5143164326729 L 1277 399.502386803865 L 1277 399.5023868038651 L 1278 398.48911052544025 L 1278 398.4891105254403 L 1279 397.4744135954548 L 1279 397.4744135954548 L 1280 396.4582216044597 L 1280 396.4582216044597 L 1281 395.44045971323794 L 1281 395.44045971323794 L 1282 394.4210526302776 L 1282 394.4210526302776 L 1283 393.39992458896523 L 1283 393.39992458896523 L 1284 392.376999324485 L 1284 392.376999324485 L 1285 391.35220005040867 L 1285 391.35220005040867 L 1286 390.32544943495924 L 1286 390.32544943495924 L 1287 389.2966695769345 L 1287 389.2966695769345 L 1288 388.2657819812719 L 1288 388.26578198127197 L 1289 387.2327075342397 L 1289 387.23270753423975 L 1290 386.19736647823595 L 1290 386.19736647823595 L 1291 385.1596783861783 L 1291 385.15967838617837 L 1292 384.11956213546733 L 1292 384.11956213546733 L 1293 383.07693588150244 L 1293 383.07693588150244 L 1294 382.03171703073457 L 1294 382.03171703073457 L 1295 380.9838222132335 L 1295 380.9838222132335 L 1296 379.9331672547505 L 1296 379.9331672547506 L 1297 378.8796671482567 L 1297 378.8796671482568 L 1298 377.82323602493364 L 1298 377.82323602493364 L 1299 376.7637871245966 L 1299 376.7637871245966 L 1300 375.7012327655264 L 1300 375.7012327655264 L 1301 374.63548431368656 L 1301 374.63548431368656 L 1302 373.5664521513033 L 1302 373.56645215130334 L 1303 372.4940456447813 L 1303 372.4940456447813 L 1304 371.41817311193205 L 1304 371.4181731119321 L 1305 370.3387417884871 L 1305 370.3387417884871 L 1306 369.2556577938682 L 1306 369.25565779386824 L 1307 368.16882609618955 L 1307 368.16882609618955 L 1308 367.0781504764583 L 1308 367.0781504764583 L 1309 365.98353349194815 L 1309 365.9835334919482 L 1310 364.8848764387108 L 1310 364.8848764387109 L 1311 363.78207931319656 L 1311 363.7820793131966 L 1312 362.6750407729481 L 1312 362.67504077294814 L 1313 361.5636580963347 L 1313 361.5636580963347 L 1314 360.4478271412911 L 1314 360.44782714129116 L 1315 359.32744230302296 L 1315 359.32744230302296 L 1316 358.20239647064204 L 1316 358.20239647064204 L 1317 357.07258098269045 L 1317 357.07258098269045 L 1318 355.93788558151306 L 1318 355.9378855815131 L 1319 354.7981983664362 L 1319 354.7981983664363 L 1320 353.6534057457068 L 1320 353.65340574570683 L 1321 352.50339238714747 L 1321 352.5033923871475 L 1322 351.34804116747955 L 1322 351.3480411674796 L 1323 350.1872331202632 L 1323 350.1872331202633 L 1324 349.02084738240586 L 1324 349.0208473824059 L 1325 347.84876113918233 L 1325 347.84876113918233 L 1326 346.6708495677141 L 1326 346.67084956771413 L 1327 345.48698577884727 L 1327 345.48698577884727 L 1328 344.29704075737175 L 1328 344.29704075737175 L 1329 343.1008833005168 L 1329 343.10088330051684 L 1330 341.8983799546597 L 1330 341.89837995465973 L 1331 340.68939495017923 L 1331 340.6893949501793 L 1332 339.4737901343834 L 1332 339.4737901343835 L 1333 338.25142490243877 L 1333 338.2514249024388 L 1334 337.0221561262242 L 1334 337.0221561262243 L 1335 335.7858380810299 L 1335 335.78583808102996 L 1336 334.54232237001986 L 1336 334.54232237001986 L 1337 333.2914578463686 L 1337 333.29145784636864 L 1338 332.03309053298614 L 1338 332.0330905329862 L 1339 330.7670635397334 L 1339 330.76706353973344 L 1340 329.49321697803214 L 1340 329.49321697803214 L 1341 328.2113878727676 L 1341 328.21138787276766 L 1342 326.92141007137553 L 1342 326.92141007137553 L 1343 325.6231141500037 L 1343 325.62311415000374 L 1344 324.3163273166309 L 1344 324.3163273166309 L 1345 323.0008733110216 L 1345 323.0008733110217 L 1346 321.6765723013912 L 1346 321.6765723013913 L 1347 320.3432407776462 L 1347 320.3432407776462 L 1348 319.000691441064 L 1348 319.0006914410641 L 1349 317.64873309026467 L 1349 317.6487330902647 L 1350 316.2871705033249 L 1350 316.28717050332494 L 1351 314.9158043158744 L 1351 314.91580431587454 L 1352 313.53443089500934 L 1352 313.5344308950094 L 1353 312.14284220884906 L 1353 312.1428422088492 L 1354 310.7408256915536 L 1354 310.7408256915537 L 1355 309.3281641036129 L 1355 309.32816410361295 L 1356 307.90463538720593 L 1356 307.904635387206 L 1357 306.4700125164222 L 1357 306.4700125164223 L 1358 305.02406334212685 L 1358 305.0240633421269 L 1359 303.56655043123664 L 1359 303.5665504312367 L 1360 302.0972309001694 L 1360 302.09723090016945 L 1361 300.61585624221084 L 1361 300.6158562422109 L 1362 299.1221721485347 L 1362 299.1221721485348 L 1363 297.61591832259785 L 1363 297.61591832259796 L 1364 296.09682828761566 L 1364 296.0968282876157 L 1365 294.5646291868128 L 1365 294.56462918681285 L 1366 293.019041576124 L 1366 293.0190415761241 L 1367 291.45977920900634 L 1367 291.4597792090064 L 1368 289.88654881300624 L 1368 289.88654881300636 L 1369 288.2990498577039 L 1369 288.29904985770395 L 1370 286.6969743136426 L 1370 286.69697431364267 L 1371 285.08000640182365 L 1371 285.08000640182377 L 1372 283.4478223333328 L 1372 283.4478223333329 L 1373 281.80009003863347 L 1373 281.8000900386335 L 1374 280.1364688860424 L 1374 280.1364688860424 L 1375 278.45660938887715 L 1375 278.45660938887727 L 1376 276.7601529007319 L 1376 276.760152900732 L 1377 275.0467312983159 L 1377 275.04673129831593 L 1378 273.3159666512506 L 1378 273.31596665125073 L 1379 271.5674708781944 L 1379 271.5674708781945 L 1380 269.80084538862275 L 1380 269.80084538862286 L 1381 268.0156807095581 L 1381 268.0156807095582 L 1382 266.21155609650316 L 1382 266.2115560965032 L 1383 264.3880391277852 L 1383 264.38803912778525 L 1384 262.5446852814786 L 1384 262.54468528147873 L 1385 260.6810374940227 L 1385 260.6810374940228 L 1386 258.796625699596 L 1386 258.7966256995961 L 1387 256.89096634926284 L 1387 256.89096634926295 L 1388 254.96356190883873 L 1388 254.96356190883884 L 1389 253.01390033436772 L 1389 253.01390033436783 L 1390 251.04145452403156 L 1390 251.04145452403168 L 1391 249.04568174524263 L 1391 249.04568174524275 L 1392 247.02602303559755 L 1392 247.02602303559766 L 1393 244.98190257628207 L 1393 244.98190257628218 L 1394 242.91272703643756 L 1394 242.91272703643767 L 1395 240.81788488689966 L 1395 240.81788488689978 L 1396 238.6967456816242 L 1396 238.69674568162432 L 1397 236.54865930500904 L 1397 236.54865930500915 L 1398 234.37295518320062 L 1398 234.37295518320073 L 1399 232.16894145735864 L 1399 232.16894145735876 L 1400 229.9359041167145 L 1400 229.93590411671462 L 1401 227.67310608911967 L 1401 227.67310608911978 L 1402 225.3797862866301 L 1402 225.37978628663024 L 1403 223.05515860350724 L 1403 223.0551586035074 L 1404 220.69841086383715 L 1404 220.69841086383727 L 1405 218.30870371578942 L 1405 218.30870371578953 L 1406 215.88516946932612 L 1406 215.88516946932629 L 1407 213.42691087394985 L 1407 213.42691087394996 L 1408 210.93299983285434 L 1408 210.93299983285448 L 1409 208.4024760495733 L 1409 208.40247604957344 L 1410 205.8343456029577 L 1410 205.83434560295785 L 1411 203.22757944600323 L 1411 203.22757944600335 L 1412 200.58111182374225 L 1412 200.58111182374242 L 1413 197.89383860505572 L 1413 197.89383860505583 L 1414 195.1646155228825 L 1414 195.16461552288266 L 1415 192.39225631690908 L 1415 192.39225631690923 L 1416 189.5755307723644 L 1416 189.57553077236454 L 1417 186.71316264807731 L 1417 186.71316264807749 L 1418 183.8038274864225 L 1418 183.80382748642265 L 1419 180.8461502972276 L 1419 180.84615029722775 L 1420 177.83870310709045 L 1420 177.83870310709065 L 1421 174.78000236488384 L 1421 174.78000236488404 L 1422 171.66850619350947 L 1422 171.66850619350961 L 1423 168.50261147715722 L 1423 168.5026114771574 L 1424 165.2806507724587 L 1424 165.2806507724589 L 1425 162.00088903099248 L 1425 162.00088903099265 L 1426 158.6615201195488 L 1426 158.66152011954898 L 1427 155.26066312344568 L 1427 155.2606631234458 L 1428 151.79635841693766 L 1428 151.79635841693784 L 1429 148.26656348342277 L 1429 148.26656348342294 L 1430 144.6691484666522 L 1430 144.66914846665236 L 1431 141.00189143251964 L 1431 141.00189143251987 L 1432 137.26247331922764 L 1432 137.26247331922787 L 1433 133.44847255164632 L 1433 133.44847255164655 L 1434 129.55735929351096 L 1434 129.55735929351118 L 1435 125.5864893087313 L 1435 125.58648930873142 L 1436 121.53309740042829 L 1436 121.53309740042846 L 1437 117.39429039342184 L 1437 117.39429039342195 L 1438 113.16703962265342 L 1438 113.16703962265359 L 1439 108.84817288649162 L 1439 108.8481728864918 L 1440 104.43436581989744 L 1440 104.43436581989761 L 1441 99.9221326380511 L 1441 99.92213263805121 L 1442 95.30781619619137 L 1442 95.30781619619148 L 1443 90.5875773059854 L 1443 90.58757730598552 L 1444 85.75738324273937 L 1444 85.75738324273948 L 1445 80.81299537102115 L 1445 80.81299537102132 L 1446 75.74995580878823 L 1446 75.7499558087884 L 1447 70.56357304170427 L 1447 70.5635730417045 L 1448 65.24890638993759 L 1448 65.24890638993776 L 1449 59.80074921921852 L 1449 59.800749219218744 L 1450 54.21361077609225" stroke-opacity="0.8" stroke-linecap="round" stroke-linejoin="round" stroke-miterlimit="10" stroke-width="6.5"/><text fill="rgb(211,47,47)" stroke="none" font-family="geogebra-sans-serif, sans-serif" font-size="16px" font-style="normal" font-weight="normal" text-decoration="normal" x="24" y="699" text-anchor="start" dominant-baseline="alphabetic" fill-opacity="1">f</text><text fill="none" stroke="rgb(255,255,255)" font-family="geogebra-sans-serif, sans-serif" font-size="16px" font-style="normal" font-weight="normal" text-decoration="normal" x="24" y="699" text-anchor="start" dominant-baseline="alphabetic" stroke-opacity="1" stroke-linejoin="bevel" stroke-miterlimit="10" stroke-width="3">f</text><text fill="rgb(211,47,47)" stroke="none" font-family="geogebra-sans-serif, sans-serif" font-size="16px" font-style="normal" font-weight="normal" text-decoration="normal" x="24" y="699" text-anchor="start" dominant-baseline="alphabetic" fill-opacity="1">f</text></g></g></svg>