<svg version="1.1" xmlns="http://www.w3.org/2000/svg" xmlns:xlink="http://www.w3.org/1999/xlink" width="1450" height="855"><defs><clipPath id="OmSkAzAmurfm"><path fill="none" stroke="none" d=" M 0 0 L 1450 0 L 1450 855 L 0 855 L 0 0 Z"/></clipPath></defs><g transform="scale(1,1)" clip-path="url(#OmSkAzAmurfm)"><g><rect fill="rgb(255,255,255)" stroke="none" x="0" y="0" width="1450" height="855" fill-opacity="1"/><path fill="none" stroke="rgb(37,37,37)" paint-order="fill stroke markers" d=" M 706 3 L 706 855" stroke-opacity="1" stroke-miterlimit="10" stroke-width="2"/><path fill="rgb(37,37,37)" stroke="none" paint-order="stroke fill markers" fill-rule="evenodd" d=" M 705.5454545454543 2 L 700.5454545454543 22 L 710.5454545454543 22" fill-opacity="1"/><path fill="none" stroke="rgb(37,37,37)" paint-order="fill stroke markers" d=" M 0 556 L 1447 556" stroke-opacity="1" stroke-miterlimit="10" stroke-width="2"/><path fill="rgb(37,37,37)" stroke="none" paint-order="stroke fill markers" fill-rule="evenodd" d=" M 1448 555.7613636363637 L 1428 550.7613636363637 L 1428 560.7613636363637" fill-opacity="1"/><text fill="rgb(37,37,37)" stroke="none" font-family="geogebra-sans-serif, sans-serif" font-size="12px" font-style="normal" font-weight="bold" text-decoration="normal" x="1" y="571" text-anchor="start" dominant-baseline="alphabetic" fill-opacity="1">–4.5</text><text fill="none" stroke="rgb(255,255,255)" font-family="geogebra-sans-serif, sans-serif" font-size="12px" font-style="normal" font-weight="bold" text-decoration="normal" x="1" y="571" text-anchor="start" dominant-baseline="alphabetic" stroke-opacity="1" stroke-linejoin="bevel" stroke-miterlimit="10" stroke-width="3">–4.5</text><text fill="rgb(37,37,37)" stroke="none" font-family="geogebra-sans-serif, sans-serif" font-size="12px" font-style="normal" font-weight="bold" text-decoration="normal" x="1" y="571" text-anchor="start" dominant-baseline="alphabetic" fill-opacity="1">–4.5</text><path fill="none" stroke="rgb(37,37,37)" paint-order="fill stroke markers" d=" M 15 556 L 15 559" stroke-opacity="1" stroke-miterlimit="10" stroke-width="2"/><text fill="rgb(37,37,37)" stroke="none" font-family="geogebra-sans-serif, sans-serif" font-size="12px" font-style="normal" font-weight="bold" text-decoration="normal" x="85" y="571" text-anchor="start" dominant-baseline="alphabetic" fill-opacity="1">–4</text><text fill="none" stroke="rgb(255,255,255)" font-family="geogebra-sans-serif, sans-serif" font-size="12px" font-style="normal" font-weight="bold" text-decoration="normal" x="85" y="571" text-anchor="start" dominant-baseline="alphabetic" stroke-opacity="1" stroke-linejoin="bevel" stroke-miterlimit="10" stroke-width="3">–4</text><text fill="rgb(37,37,37)" stroke="none" font-family="geogebra-sans-serif, sans-serif" font-size="12px" font-style="normal" font-weight="bold" text-decoration="normal" x="85" y="571" text-anchor="start" dominant-baseline="alphabetic" fill-opacity="1">–4</text><path fill="none" stroke="rgb(37,37,37)" paint-order="fill stroke markers" d=" M 92 556 L 92 559" stroke-opacity="1" stroke-miterlimit="10" stroke-width="2"/><text fill="rgb(37,37,37)" stroke="none" font-family="geogebra-sans-serif, sans-serif" font-size="12px" font-style="normal" font-weight="bold" text-decoration="normal" x="155" y="571" text-anchor="start" dominant-baseline="alphabetic" fill-opacity="1">–3.5</text><text fill="none" stroke="rgb(255,255,255)" font-family="geogebra-sans-serif, sans-serif" font-size="12px" font-style="normal" font-weight="bold" text-decoration="normal" x="155" y="571" text-anchor="start" dominant-baseline="alphabetic" stroke-opacity="1" stroke-linejoin="bevel" stroke-miterlimit="10" stroke-width="3">–3.5</text><text fill="rgb(37,37,37)" stroke="none" font-family="geogebra-sans-serif, sans-serif" font-size="12px" font-style="normal" font-weight="bold" text-decoration="normal" x="155" y="571" text-anchor="start" dominant-baseline="alphabetic" fill-opacity="1">–3.5</text><path fill="none" stroke="rgb(37,37,37)" paint-order="fill stroke markers" d=" M 169 556 L 169 559" stroke-opacity="1" stroke-miterlimit="10" stroke-width="2"/><text fill="rgb(37,37,37)" stroke="none" font-family="geogebra-sans-serif, sans-serif" font-size="12px" font-style="normal" font-weight="bold" text-decoration="normal" x="239" y="571" text-anchor="start" dominant-baseline="alphabetic" fill-opacity="1">–3</text><text fill="none" stroke="rgb(255,255,255)" font-family="geogebra-sans-serif, sans-serif" font-size="12px" font-style="normal" font-weight="bold" text-decoration="normal" x="239" y="571" text-anchor="start" dominant-baseline="alphabetic" stroke-opacity="1" stroke-linejoin="bevel" stroke-miterlimit="10" stroke-width="3">–3</text><text fill="rgb(37,37,37)" stroke="none" font-family="geogebra-sans-serif, sans-serif" font-size="12px" font-style="normal" font-weight="bold" text-decoration="normal" x="239" y="571" text-anchor="start" dominant-baseline="alphabetic" fill-opacity="1">–3</text><path fill="none" stroke="rgb(37,37,37)" paint-order="fill stroke markers" d=" M 245 556 L 245 559" stroke-opacity="1" stroke-miterlimit="10" stroke-width="2"/><text fill="rgb(37,37,37)" stroke="none" font-family="geogebra-sans-serif, sans-serif" font-size="12px" font-style="normal" font-weight="bold" text-decoration="normal" x="308" y="571" text-anchor="start" dominant-baseline="alphabetic" fill-opacity="1">–2.5</text><text fill="none" stroke="rgb(255,255,255)" font-family="geogebra-sans-serif, sans-serif" font-size="12px" font-style="normal" font-weight="bold" text-decoration="normal" x="308" y="571" text-anchor="start" dominant-baseline="alphabetic" stroke-opacity="1" stroke-linejoin="bevel" stroke-miterlimit="10" stroke-width="3">–2.5</text><text fill="rgb(37,37,37)" stroke="none" font-family="geogebra-sans-serif, sans-serif" font-size="12px" font-style="normal" font-weight="bold" text-decoration="normal" x="308" y="571" text-anchor="start" dominant-baseline="alphabetic" fill-opacity="1">–2.5</text><path fill="none" stroke="rgb(37,37,37)" paint-order="fill stroke markers" d=" M 322 556 L 322 559" stroke-opacity="1" stroke-miterlimit="10" stroke-width="2"/><text fill="rgb(37,37,37)" stroke="none" font-family="geogebra-sans-serif, sans-serif" font-size="12px" font-style="normal" font-weight="bold" text-decoration="normal" x="392" y="571" text-anchor="start" dominant-baseline="alphabetic" fill-opacity="1">–2</text><text fill="none" stroke="rgb(255,255,255)" font-family="geogebra-sans-serif, sans-serif" font-size="12px" font-style="normal" font-weight="bold" text-decoration="normal" x="392" y="571" text-anchor="start" dominant-baseline="alphabetic" stroke-opacity="1" stroke-linejoin="bevel" stroke-miterlimit="10" stroke-width="3">–2</text><text fill="rgb(37,37,37)" stroke="none" font-family="geogebra-sans-serif, sans-serif" font-size="12px" font-style="normal" font-weight="bold" text-decoration="normal" x="392" y="571" text-anchor="start" dominant-baseline="alphabetic" fill-opacity="1">–2</text><path fill="none" stroke="rgb(37,37,37)" paint-order="fill stroke markers" d=" M 399 556 L 399 559" stroke-opacity="1" stroke-miterlimit="10" stroke-width="2"/><text fill="rgb(37,37,37)" stroke="none" font-family="geogebra-sans-serif, sans-serif" font-size="12px" font-style="normal" font-weight="bold" text-decoration="normal" x="462" y="571" text-anchor="start" dominant-baseline="alphabetic" fill-opacity="1">–1.5</text><text fill="none" stroke="rgb(255,255,255)" font-family="geogebra-sans-serif, sans-serif" font-size="12px" font-style="normal" font-weight="bold" text-decoration="normal" x="462" y="571" text-anchor="start" dominant-baseline="alphabetic" stroke-opacity="1" stroke-linejoin="bevel" stroke-miterlimit="10" stroke-width="3">–1.5</text><text fill="rgb(37,37,37)" stroke="none" font-family="geogebra-sans-serif, sans-serif" font-size="12px" font-style="normal" font-weight="bold" text-decoration="normal" x="462" y="571" text-anchor="start" dominant-baseline="alphabetic" fill-opacity="1">–1.5</text><path fill="none" stroke="rgb(37,37,37)" paint-order="fill stroke markers" d=" M 475 556 L 475 559" stroke-opacity="1" stroke-miterlimit="10" stroke-width="2"/><text fill="rgb(37,37,37)" stroke="none" font-family="geogebra-sans-serif, sans-serif" font-size="12px" font-style="normal" font-weight="bold" text-decoration="normal" x="545" y="571" text-anchor="start" dominant-baseline="alphabetic" fill-opacity="1">–1</text><text fill="none" stroke="rgb(255,255,255)" font-family="geogebra-sans-serif, sans-serif" font-size="12px" font-style="normal" font-weight="bold" text-decoration="normal" x="545" y="571" text-anchor="start" dominant-baseline="alphabetic" stroke-opacity="1" stroke-linejoin="bevel" stroke-miterlimit="10" stroke-width="3">–1</text><text fill="rgb(37,37,37)" stroke="none" font-family="geogebra-sans-serif, sans-serif" font-size="12px" font-style="normal" font-weight="bold" text-decoration="normal" x="545" y="571" text-anchor="start" dominant-baseline="alphabetic" fill-opacity="1">–1</text><path fill="none" stroke="rgb(37,37,37)" paint-order="fill stroke markers" d=" M 552 556 L 552 559" stroke-opacity="1" stroke-miterlimit="10" stroke-width="2"/><text fill="rgb(37,37,37)" stroke="none" font-family="geogebra-sans-serif, sans-serif" font-size="12px" font-style="normal" font-weight="bold" text-decoration="normal" x="615" y="571" text-anchor="start" dominant-baseline="alphabetic" fill-opacity="1">–0.5</text><text fill="none" stroke="rgb(255,255,255)" font-family="geogebra-sans-serif, sans-serif" font-size="12px" font-style="normal" font-weight="bold" text-decoration="normal" x="615" y="571" text-anchor="start" dominant-baseline="alphabetic" stroke-opacity="1" stroke-linejoin="bevel" stroke-miterlimit="10" stroke-width="3">–0.5</text><text fill="rgb(37,37,37)" stroke="none" font-family="geogebra-sans-serif, sans-serif" font-size="12px" font-style="normal" font-weight="bold" text-decoration="normal" x="615" y="571" text-anchor="start" dominant-baseline="alphabetic" fill-opacity="1">–0.5</text><path fill="none" stroke="rgb(37,37,37)" paint-order="fill stroke markers" d=" M 629 556 L 629 559" stroke-opacity="1" stroke-miterlimit="10" stroke-width="2"/><path fill="none" stroke="rgb(37,37,37)" paint-order="fill stroke markers" d=" M 706 556 L 706 559" stroke-opacity="1" stroke-miterlimit="10" stroke-width="2"/><text fill="rgb(37,37,37)" stroke="none" font-family="geogebra-sans-serif, sans-serif" font-size="12px" font-style="normal" font-weight="bold" text-decoration="normal" x="772" y="571" text-anchor="start" dominant-baseline="alphabetic" fill-opacity="1">0.5</text><text fill="none" stroke="rgb(255,255,255)" font-family="geogebra-sans-serif, sans-serif" font-size="12px" font-style="normal" font-weight="bold" text-decoration="normal" x="772" y="571" text-anchor="start" dominant-baseline="alphabetic" stroke-opacity="1" stroke-linejoin="bevel" stroke-miterlimit="10" stroke-width="3">0.5</text><text fill="rgb(37,37,37)" stroke="none" font-family="geogebra-sans-serif, sans-serif" font-size="12px" font-style="normal" font-weight="bold" text-decoration="normal" x="772" y="571" text-anchor="start" dominant-baseline="alphabetic" fill-opacity="1">0.5</text><path fill="none" stroke="rgb(37,37,37)" paint-order="fill stroke markers" d=" M 782 556 L 782 559" stroke-opacity="1" stroke-miterlimit="10" stroke-width="2"/><text fill="rgb(37,37,37)" stroke="none" font-family="geogebra-sans-serif, sans-serif" font-size="12px" font-style="normal" font-weight="bold" text-decoration="normal" x="856" y="571" text-anchor="start" dominant-baseline="alphabetic" fill-opacity="1">1</text><text fill="none" stroke="rgb(255,255,255)" font-family="geogebra-sans-serif, sans-serif" font-size="12px" font-style="normal" font-weight="bold" text-decoration="normal" x="856" y="571" text-anchor="start" dominant-baseline="alphabetic" stroke-opacity="1" stroke-linejoin="bevel" stroke-miterlimit="10" stroke-width="3">1</text><text fill="rgb(37,37,37)" stroke="none" font-family="geogebra-sans-serif, sans-serif" font-size="12px" font-style="normal" font-weight="bold" text-decoration="normal" x="856" y="571" text-anchor="start" dominant-baseline="alphabetic" fill-opacity="1">1</text><path fill="none" stroke="rgb(37,37,37)" paint-order="fill stroke markers" d=" M 859 556 L 859 559" stroke-opacity="1" stroke-miterlimit="10" stroke-width="2"/><text fill="rgb(37,37,37)" stroke="none" font-family="geogebra-sans-serif, sans-serif" font-size="12px" font-style="normal" font-weight="bold" text-decoration="normal" x="925" y="571" text-anchor="start" dominant-baseline="alphabetic" fill-opacity="1">1.5</text><text fill="none" stroke="rgb(255,255,255)" font-family="geogebra-sans-serif, sans-serif" font-size="12px" font-style="normal" font-weight="bold" text-decoration="normal" x="925" y="571" text-anchor="start" dominant-baseline="alphabetic" stroke-opacity="1" stroke-linejoin="bevel" stroke-miterlimit="10" stroke-width="3">1.5</text><text fill="rgb(37,37,37)" stroke="none" font-family="geogebra-sans-serif, sans-serif" font-size="12px" font-style="normal" font-weight="bold" text-decoration="normal" x="925" y="571" text-anchor="start" dominant-baseline="alphabetic" fill-opacity="1">1.5</text><path fill="none" stroke="rgb(37,37,37)" paint-order="fill stroke markers" d=" M 936 556 L 936 559" stroke-opacity="1" stroke-miterlimit="10" stroke-width="2"/><text fill="rgb(37,37,37)" stroke="none" font-family="geogebra-sans-serif, sans-serif" font-size="12px" font-style="normal" font-weight="bold" text-decoration="normal" x="1009" y="571" text-anchor="start" dominant-baseline="alphabetic" fill-opacity="1">2</text><text fill="none" stroke="rgb(255,255,255)" font-family="geogebra-sans-serif, sans-serif" font-size="12px" font-style="normal" font-weight="bold" text-decoration="normal" x="1009" y="571" text-anchor="start" dominant-baseline="alphabetic" stroke-opacity="1" stroke-linejoin="bevel" stroke-miterlimit="10" stroke-width="3">2</text><text fill="rgb(37,37,37)" stroke="none" font-family="geogebra-sans-serif, sans-serif" font-size="12px" font-style="normal" font-weight="bold" text-decoration="normal" x="1009" y="571" text-anchor="start" dominant-baseline="alphabetic" fill-opacity="1">2</text><path fill="none" stroke="rgb(37,37,37)" paint-order="fill stroke markers" d=" M 1012 556 L 1012 559" stroke-opacity="1" stroke-miterlimit="10" stroke-width="2"/><text fill="rgb(37,37,37)" stroke="none" font-family="geogebra-sans-serif, sans-serif" font-size="12px" font-style="normal" font-weight="bold" text-decoration="normal" x="1079" y="571" text-anchor="start" dominant-baseline="alphabetic" fill-opacity="1">2.5</text><text fill="none" stroke="rgb(255,255,255)" font-family="geogebra-sans-serif, sans-serif" font-size="12px" font-style="normal" font-weight="bold" text-decoration="normal" x="1079" y="571" text-anchor="start" dominant-baseline="alphabetic" stroke-opacity="1" stroke-linejoin="bevel" stroke-miterlimit="10" stroke-width="3">2.5</text><text fill="rgb(37,37,37)" stroke="none" font-family="geogebra-sans-serif, sans-serif" font-size="12px" font-style="normal" font-weight="bold" text-decoration="normal" x="1079" y="571" text-anchor="start" dominant-baseline="alphabetic" fill-opacity="1">2.5</text><path fill="none" stroke="rgb(37,37,37)" paint-order="fill stroke markers" d=" M 1089 556 L 1089 559" stroke-opacity="1" stroke-miterlimit="10" stroke-width="2"/><text fill="rgb(37,37,37)" stroke="none" font-family="geogebra-sans-serif, sans-serif" font-size="12px" font-style="normal" font-weight="bold" text-decoration="normal" x="1163" y="571" text-anchor="start" dominant-baseline="alphabetic" fill-opacity="1">3</text><text fill="none" stroke="rgb(255,255,255)" font-family="geogebra-sans-serif, sans-serif" font-size="12px" font-style="normal" font-weight="bold" text-decoration="normal" x="1163" y="571" text-anchor="start" dominant-baseline="alphabetic" stroke-opacity="1" stroke-linejoin="bevel" stroke-miterlimit="10" stroke-width="3">3</text><text fill="rgb(37,37,37)" stroke="none" font-family="geogebra-sans-serif, sans-serif" font-size="12px" font-style="normal" font-weight="bold" text-decoration="normal" x="1163" y="571" text-anchor="start" dominant-baseline="alphabetic" fill-opacity="1">3</text><path fill="none" stroke="rgb(37,37,37)" paint-order="fill stroke markers" d=" M 1166 556 L 1166 559" stroke-opacity="1" stroke-miterlimit="10" stroke-width="2"/><text fill="rgb(37,37,37)" stroke="none" font-family="geogebra-sans-serif, sans-serif" font-size="12px" font-style="normal" font-weight="bold" text-decoration="normal" x="1232" y="571" text-anchor="start" dominant-baseline="alphabetic" fill-opacity="1">3.5</text><text fill="none" stroke="rgb(255,255,255)" font-family="geogebra-sans-serif, sans-serif" font-size="12px" font-style="normal" font-weight="bold" text-decoration="normal" x="1232" y="571" text-anchor="start" dominant-baseline="alphabetic" stroke-opacity="1" stroke-linejoin="bevel" stroke-miterlimit="10" stroke-width="3">3.5</text><text fill="rgb(37,37,37)" stroke="none" font-family="geogebra-sans-serif, sans-serif" font-size="12px" font-style="normal" font-weight="bold" text-decoration="normal" x="1232" y="571" text-anchor="start" dominant-baseline="alphabetic" fill-opacity="1">3.5</text><path fill="none" stroke="rgb(37,37,37)" paint-order="fill stroke markers" d=" M 1242 556 L 1242 559" stroke-opacity="1" stroke-miterlimit="10" stroke-width="2"/><text fill="rgb(37,37,37)" stroke="none" font-family="geogebra-sans-serif, sans-serif" font-size="12px" font-style="normal" font-weight="bold" text-decoration="normal" x="1316" y="571" text-anchor="start" dominant-baseline="alphabetic" fill-opacity="1">4</text><text fill="none" stroke="rgb(255,255,255)" font-family="geogebra-sans-serif, sans-serif" font-size="12px" font-style="normal" font-weight="bold" text-decoration="normal" x="1316" y="571" text-anchor="start" dominant-baseline="alphabetic" stroke-opacity="1" stroke-linejoin="bevel" stroke-miterlimit="10" stroke-width="3">4</text><text fill="rgb(37,37,37)" stroke="none" font-family="geogebra-sans-serif, sans-serif" font-size="12px" font-style="normal" font-weight="bold" text-decoration="normal" x="1316" y="571" text-anchor="start" dominant-baseline="alphabetic" fill-opacity="1">4</text><path fill="none" stroke="rgb(37,37,37)" paint-order="fill stroke markers" d=" M 1319 556 L 1319 559" stroke-opacity="1" stroke-miterlimit="10" stroke-width="2"/><text fill="rgb(37,37,37)" stroke="none" font-family="geogebra-sans-serif, sans-serif" font-size="12px" font-style="normal" font-weight="bold" text-decoration="normal" x="1386" y="571" text-anchor="start" dominant-baseline="alphabetic" fill-opacity="1">4.5</text><text fill="none" stroke="rgb(255,255,255)" font-family="geogebra-sans-serif, sans-serif" font-size="12px" font-style="normal" font-weight="bold" text-decoration="normal" x="1386" y="571" text-anchor="start" dominant-baseline="alphabetic" stroke-opacity="1" stroke-linejoin="bevel" stroke-miterlimit="10" stroke-width="3">4.5</text><text fill="rgb(37,37,37)" stroke="none" font-family="geogebra-sans-serif, sans-serif" font-size="12px" font-style="normal" font-weight="bold" text-decoration="normal" x="1386" y="571" text-anchor="start" dominant-baseline="alphabetic" fill-opacity="1">4.5</text><path fill="none" stroke="rgb(37,37,37)" paint-order="fill stroke markers" d=" M 1396 556 L 1396 559" stroke-opacity="1" stroke-miterlimit="10" stroke-width="2"/><path fill="none" stroke="rgb(37,37,37)" paint-order="fill stroke markers" d=" M 703 786 L 706 786" stroke-opacity="1" stroke-miterlimit="10" stroke-width="2"/><path fill="none" stroke="rgb(37,37,37)" paint-order="fill stroke markers" d=" M 703 709 L 706 709" stroke-opacity="1" stroke-miterlimit="10" stroke-width="2"/><path fill="none" stroke="rgb(37,37,37)" paint-order="fill stroke markers" d=" M 703 632 L 706 632" stroke-opacity="1" stroke-miterlimit="10" stroke-width="2"/><path fill="none" stroke="rgb(37,37,37)" paint-order="fill stroke markers" d=" M 703 479 L 706 479" stroke-opacity="1" stroke-miterlimit="10" stroke-width="2"/><path fill="none" stroke="rgb(37,37,37)" paint-order="fill stroke markers" d=" M 703 402 L 706 402" stroke-opacity="1" stroke-miterlimit="10" stroke-width="2"/><path fill="none" stroke="rgb(37,37,37)" paint-order="fill stroke markers" d=" M 703 326 L 706 326" stroke-opacity="1" stroke-miterlimit="10" stroke-width="2"/><path fill="none" stroke="rgb(37,37,37)" paint-order="fill stroke markers" d=" M 703 249 L 706 249" stroke-opacity="1" stroke-miterlimit="10" stroke-width="2"/><path fill="none" stroke="rgb(37,37,37)" paint-order="fill stroke markers" d=" M 703 172 L 706 172" stroke-opacity="1" stroke-miterlimit="10" stroke-width="2"/><path fill="none" stroke="rgb(37,37,37)" paint-order="fill stroke markers" d=" M 703 96 L 706 96" stroke-opacity="1" stroke-miterlimit="10" stroke-width="2"/><path fill="none" stroke="rgb(37,37,37)" paint-order="fill stroke markers" d=" M 703 19 L 706 19" stroke-opacity="1" stroke-miterlimit="10" stroke-width="2"/><text fill="rgb(37,37,37)" stroke="none" font-family="geogebra-sans-serif, sans-serif" font-size="12px" font-style="normal" font-weight="bold" text-decoration="normal" x="675" y="790" text-anchor="start" dominant-baseline="alphabetic" fill-opacity="1">–1.5</text><text fill="none" stroke="rgb(255,255,255)" font-family="geogebra-sans-serif, sans-serif" font-size="12px" font-style="normal" font-weight="bold" text-decoration="normal" x="675" y="790" text-anchor="start" dominant-baseline="alphabetic" stroke-opacity="1" stroke-linejoin="bevel" stroke-miterlimit="10" stroke-width="3">–1.5</text><text fill="rgb(37,37,37)" stroke="none" font-family="geogebra-sans-serif, sans-serif" font-size="12px" font-style="normal" font-weight="bold" text-decoration="normal" x="675" y="790" text-anchor="start" dominant-baseline="alphabetic" fill-opacity="1">–1.5</text><text fill="rgb(37,37,37)" stroke="none" font-family="geogebra-sans-serif, sans-serif" font-size="12px" font-style="normal" font-weight="bold" text-decoration="normal" x="685" y="714" text-anchor="start" dominant-baseline="alphabetic" fill-opacity="1">–1</text><text fill="none" stroke="rgb(255,255,255)" font-family="geogebra-sans-serif, sans-serif" font-size="12px" font-style="normal" font-weight="bold" text-decoration="normal" x="685" y="714" text-anchor="start" dominant-baseline="alphabetic" stroke-opacity="1" stroke-linejoin="bevel" stroke-miterlimit="10" stroke-width="3">–1</text><text fill="rgb(37,37,37)" stroke="none" font-family="geogebra-sans-serif, sans-serif" font-size="12px" font-style="normal" font-weight="bold" text-decoration="normal" x="685" y="714" text-anchor="start" dominant-baseline="alphabetic" fill-opacity="1">–1</text><text fill="rgb(37,37,37)" stroke="none" font-family="geogebra-sans-serif, sans-serif" font-size="12px" font-style="normal" font-weight="bold" text-decoration="normal" x="675" y="637" text-anchor="start" dominant-baseline="alphabetic" fill-opacity="1">–0.5</text><text fill="none" stroke="rgb(255,255,255)" font-family="geogebra-sans-serif, sans-serif" font-size="12px" font-style="normal" font-weight="bold" text-decoration="normal" x="675" y="637" text-anchor="start" dominant-baseline="alphabetic" stroke-opacity="1" stroke-linejoin="bevel" stroke-miterlimit="10" stroke-width="3">–0.5</text><text fill="rgb(37,37,37)" stroke="none" font-family="geogebra-sans-serif, sans-serif" font-size="12px" font-style="normal" font-weight="bold" text-decoration="normal" x="675" y="637" text-anchor="start" dominant-baseline="alphabetic" fill-opacity="1">–0.5</text><text fill="rgb(37,37,37)" stroke="none" font-family="geogebra-sans-serif, sans-serif" font-size="12px" font-style="normal" font-weight="bold" text-decoration="normal" x="681" y="484" text-anchor="start" dominant-baseline="alphabetic" fill-opacity="1">0.5</text><text fill="none" stroke="rgb(255,255,255)" font-family="geogebra-sans-serif, sans-serif" font-size="12px" font-style="normal" font-weight="bold" text-decoration="normal" x="681" y="484" text-anchor="start" dominant-baseline="alphabetic" stroke-opacity="1" stroke-linejoin="bevel" stroke-miterlimit="10" stroke-width="3">0.5</text><text fill="rgb(37,37,37)" stroke="none" font-family="geogebra-sans-serif, sans-serif" font-size="12px" font-style="normal" font-weight="bold" text-decoration="normal" x="681" y="484" text-anchor="start" dominant-baseline="alphabetic" fill-opacity="1">0.5</text><text fill="rgb(37,37,37)" stroke="none" font-family="geogebra-sans-serif, sans-serif" font-size="12px" font-style="normal" font-weight="bold" text-decoration="normal" x="691" y="407" text-anchor="start" dominant-baseline="alphabetic" fill-opacity="1">1</text><text fill="none" stroke="rgb(255,255,255)" font-family="geogebra-sans-serif, sans-serif" font-size="12px" font-style="normal" font-weight="bold" text-decoration="normal" x="691" y="407" text-anchor="start" dominant-baseline="alphabetic" stroke-opacity="1" stroke-linejoin="bevel" stroke-miterlimit="10" stroke-width="3">1</text><text fill="rgb(37,37,37)" stroke="none" font-family="geogebra-sans-serif, sans-serif" font-size="12px" font-style="normal" font-weight="bold" text-decoration="normal" x="691" y="407" text-anchor="start" dominant-baseline="alphabetic" fill-opacity="1">1</text><text fill="rgb(37,37,37)" stroke="none" font-family="geogebra-sans-serif, sans-serif" font-size="12px" font-style="normal" font-weight="bold" text-decoration="normal" x="681" y="330" text-anchor="start" dominant-baseline="alphabetic" fill-opacity="1">1.5</text><text fill="none" stroke="rgb(255,255,255)" font-family="geogebra-sans-serif, sans-serif" font-size="12px" font-style="normal" font-weight="bold" text-decoration="normal" x="681" y="330" text-anchor="start" dominant-baseline="alphabetic" stroke-opacity="1" stroke-linejoin="bevel" stroke-miterlimit="10" stroke-width="3">1.5</text><text fill="rgb(37,37,37)" stroke="none" font-family="geogebra-sans-serif, sans-serif" font-size="12px" font-style="normal" font-weight="bold" text-decoration="normal" x="681" y="330" text-anchor="start" dominant-baseline="alphabetic" fill-opacity="1">1.5</text><text fill="rgb(37,37,37)" stroke="none" font-family="geogebra-sans-serif, sans-serif" font-size="12px" font-style="normal" font-weight="bold" text-decoration="normal" x="691" y="253" text-anchor="start" dominant-baseline="alphabetic" fill-opacity="1">2</text><text fill="none" stroke="rgb(255,255,255)" font-family="geogebra-sans-serif, sans-serif" font-size="12px" font-style="normal" font-weight="bold" text-decoration="normal" x="691" y="253" text-anchor="start" dominant-baseline="alphabetic" stroke-opacity="1" stroke-linejoin="bevel" stroke-miterlimit="10" stroke-width="3">2</text><text fill="rgb(37,37,37)" stroke="none" font-family="geogebra-sans-serif, sans-serif" font-size="12px" font-style="normal" font-weight="bold" text-decoration="normal" x="691" y="253" text-anchor="start" dominant-baseline="alphabetic" fill-opacity="1">2</text><text fill="rgb(37,37,37)" stroke="none" font-family="geogebra-sans-serif, sans-serif" font-size="12px" font-style="normal" font-weight="bold" text-decoration="normal" x="681" y="177" text-anchor="start" dominant-baseline="alphabetic" fill-opacity="1">2.5</text><text fill="none" stroke="rgb(255,255,255)" font-family="geogebra-sans-serif, sans-serif" font-size="12px" font-style="normal" font-weight="bold" text-decoration="normal" x="681" y="177" text-anchor="start" dominant-baseline="alphabetic" stroke-opacity="1" stroke-linejoin="bevel" stroke-miterlimit="10" stroke-width="3">2.5</text><text fill="rgb(37,37,37)" stroke="none" font-family="geogebra-sans-serif, sans-serif" font-size="12px" font-style="normal" font-weight="bold" text-decoration="normal" x="681" y="177" text-anchor="start" dominant-baseline="alphabetic" fill-opacity="1">2.5</text><text fill="rgb(37,37,37)" stroke="none" font-family="geogebra-sans-serif, sans-serif" font-size="12px" font-style="normal" font-weight="bold" text-decoration="normal" x="691" y="100" text-anchor="start" dominant-baseline="alphabetic" fill-opacity="1">3</text><text fill="none" stroke="rgb(255,255,255)" font-family="geogebra-sans-serif, sans-serif" font-size="12px" font-style="normal" font-weight="bold" text-decoration="normal" x="691" y="100" text-anchor="start" dominant-baseline="alphabetic" stroke-opacity="1" stroke-linejoin="bevel" stroke-miterlimit="10" stroke-width="3">3</text><text fill="rgb(37,37,37)" stroke="none" font-family="geogebra-sans-serif, sans-serif" font-size="12px" font-style="normal" font-weight="bold" text-decoration="normal" x="691" y="100" text-anchor="start" dominant-baseline="alphabetic" fill-opacity="1">3</text><text fill="rgb(37,37,37)" stroke="none" font-family="geogebra-sans-serif, sans-serif" font-size="12px" font-style="normal" font-weight="bold" text-decoration="normal" x="681" y="23" text-anchor="start" dominant-baseline="alphabetic" fill-opacity="1">3.5</text><text fill="none" stroke="rgb(255,255,255)" font-family="geogebra-sans-serif, sans-serif" font-size="12px" font-style="normal" font-weight="bold" text-decoration="normal" x="681" y="23" text-anchor="start" dominant-baseline="alphabetic" stroke-opacity="1" stroke-linejoin="bevel" stroke-miterlimit="10" stroke-width="3">3.5</text><text fill="rgb(37,37,37)" stroke="none" font-family="geogebra-sans-serif, sans-serif" font-size="12px" font-style="normal" font-weight="bold" text-decoration="normal" x="681" y="23" text-anchor="start" dominant-baseline="alphabetic" fill-opacity="1">3.5</text><text fill="rgb(37,37,37)" stroke="none" font-family="geogebra-sans-serif, sans-serif" font-size="12px" font-style="normal" font-weight="bold" text-decoration="normal" x="691" y="571" text-anchor="start" dominant-baseline="alphabetic" fill-opacity="1">0</text><text fill="none" stroke="rgb(255,255,255)" font-family="geogebra-sans-serif, sans-serif" font-size="12px" font-style="normal" font-weight="bold" text-decoration="normal" x="691" y="571" text-anchor="start" dominant-baseline="alphabetic" stroke-opacity="1" stroke-linejoin="bevel" stroke-miterlimit="10" stroke-width="3">0</text><text fill="rgb(37,37,37)" stroke="none" font-family="geogebra-sans-serif, sans-serif" font-size="12px" font-style="normal" font-weight="bold" text-decoration="normal" x="691" y="571" text-anchor="start" dominant-baseline="alphabetic" fill-opacity="1">0</text><path fill="none" stroke="rgb(211,47,47)" paint-order="fill stroke markers" d=" M 553 73.81249064247487 L 553 90.09832299302212 L 553 90.09832299302195 L 554 97.74905261966586 L 554 97.74905261966575 L 555 103.50024674411912 L 555 103.50024674411895 L 556 108.3152944553317 L 556 108.31529445533158 L 557 112.54496282818121 L 557 112.54496282818104 L 558 116.36421518297414 L 558 116.36421518297396 L 559 119.8752922080227 L 559 119.87529220802259 L 560 123.14407637382214 L 560 123.14407637382197 L 561 126.21596333387623 L 561 126.21596333387606 L 562 129.12380249376804 L 562 129.12380249376793 L 563 131.8922713021969 L 563 131.89227130219678 L 564 134.5404648890352 L 564 134.5404648890351 L 565 137.08351760839514 L 565 137.08351760839503 L 566 139.53366514111332 L 566 139.53366514111315 L 567 141.9009663692844 L 567 141.90096636928422 L 568 144.19380942707278 L 568 144.1938094270726 L 569 146.4192759038903 L 569 146.41927590389014 L 570 148.58340895798108 L 570 148.58340895798096 L 571 150.69141461550828 L 571 150.6914146155081 L 572 152.74781554035326 L 572 152.74781554035314 L 573 154.75657030809532 L 573 154.7565703080952 L 574 156.7211671937307 L 574 156.72116719373054 L 575 158.6446988274859 L 575 158.6446988274858 L 576 160.5299222817535 L 576 160.52992228175333 L 577 162.37930791937652 L 577 162.37930791937634 L 578 164.19507946972567 L 578 164.19507946972556 L 579 165.97924718384132 L 579 165.97924718384115 L 580 167.73363547525196 L 580 167.7336354752518 L 581 169.45990612727354 L 581 169.45990612727343 L 582 171.1595779058626 L 582 171.15957790586242 L 583 172.83404323568038 L 583 172.83404323568027 L 584 174.4845824594086 L 584 174.4845824594085 L 585 176.11237609492935 L 585 176.11237609492917 L 586 177.71851542347434 L 586 177.71851542347417 L 587 179.30401167828012 L 587 179.30401167827995 L 588 180.86980405332076 L 588 180.86980405332065 L 589 182.41676671211053 L 589 182.41676671211036 L 590 183.9457149450016 L 590 183.9457149450015 L 591 185.45741059805482 L 591 185.4574105980547 L 592 186.95256687607736 L 592 186.95256687607719 L 593 188.431852605777 L 593 188.4318526057769 L 594 189.89589603137438 L 594 189.89589603137426 L 595 191.34528820383304 L 595 191.34528820383292 L 596 192.78058601563748 L 596 192.78058601563737 L 597 194.20231492538358 L 597 194.2023149253834 L 598 195.61097141006206 L 598 195.6109714100619 L 599 197.00702517756878 L 599 197.00702517756866 L 600 198.39092116748037 L 600 198.39092116748026 L 601 199.76308136434187 L 601 199.7630813643417 L 602 201.1239064444988 L 602 201.1239064444987 L 603 202.47377727477573 L 603 202.4737772747756 L 604 203.81305627897143 L 604 203.81305627897132 L 605 205.14208868614776 L 605 205.14208868614764 L 606 206.46120367297465 L 606 206.46120367297453 L 607 207.77071541092164 L 607 207.77071541092153 L 608 209.07092402780808 L 608 209.0709240278079 L 609 210.36211649212538 L 609 210.3621164921252 L 610 211.6445674275813 L 610 211.6445674275812 L 611 212.91853986448655 L 611 212.91853986448643 L 612 214.1842859338699 L 612 214.18428593386977 L 613 215.44204750957653 L 613 215.44204750957635 L 614 216.69205680303855 L 614 216.69205680303844 L 615 217.93453691492095 L 615 217.93453691492078 L 616 219.1697023474082 L 616 219.16970234740802 L 617 220.39775948051812 L 617 220.39775948051795 L 618 221.61890701548776 L 618 221.61890701548765 L 619 222.83333638798 L 619 222.8333363879799 L 620 224.0412321535892 L 620 224.04123215358908 L 621 225.2427723478899 L 621 225.2427723478898 L 622 226.43812882306167 L 622 226.4381288230615 L 623 227.6274675629317 L 623 227.62746756293154 L 624 228.8109489781108 L 624 228.81094897811067 L 625 229.98872818274674 L 625 229.98872818274657 L 626 231.16095525428233 L 626 231.16095525428221 L 627 232.32777547748435 L 627 232.32777547748424 L 628 233.4893295739002 L 628 233.48932957390008 L 629 234.64575391779948 L 629 234.6457539177993 L 630 235.79718073956911 L 630 235.79718073956894 L 631 236.9437383174497 L 631 236.94373831744957 L 632 238.0855511584275 L 632 238.08555115842734 L 633 239.22274016903089 L 633 239.22274016903071 L 634 240.35542281672014 L 634 240.35542281671997 L 635 241.4837132825038 L 635 241.4837132825037 L 636 242.6077226053671 L 636 242.60772260536692 L 637 243.72755881905022 L 637 243.7275588190501 L 638 244.84332708167648 L 638 244.84332708167636 L 639 245.95512979868874 L 639 245.95512979868863 L 640 247.06306673952213 L 640 247.06306673952196 L 641 248.1672351484064 L 641 248.1672351484063 L 642 249.26772984966465 L 642 249.2677298496646 L 643 250.36464334784802 L 643 250.36464334784796 L 644 251.45806592302114 L 644 251.45806592302108 L 645 252.54808572149233 L 645 252.54808572149227 L 646 253.634788842261 L 646 253.63478884226095 L 647 254.7182594194362 L 647 254.71825941943615 L 648 255.7985797008629 L 648 255.79857970086283 L 649 256.87583012317725 L 649 256.8758301231772 L 650 257.9500893834966 L 650 257.95008938349656 L 651 259.02143450793665 L 651 259.0214345079366 L 652 260.0899409171355 L 652 260.08994091713544 L 653 261.1556824889538 L 653 261.15568248895374 L 654 262.21873161850766 L 654 262.2187316185076 L 655 263.2791592756824 L 655 263.2791592756823 L 656 264.3370350602653 L 656 264.33703506026524 L 657 265.3924272548282 L 657 265.39242725482814 L 658 266.44540287548034 L 658 266.4454028754802 L 659 267.49602772060763 L 659 267.4960277206075 L 660 268.54436641770496 L 660 268.5443664177049 L 661 269.59048246840393 L 661 269.5904824684038 L 662 270.6344382917903 L 662 270.6344382917902 L 663 271.67629526610267 L 663 271.67629526610256 L 664 272.71611376889575 L 664 272.71611376889564 L 665 273.75395321574933 L 665 273.7539532157493 L 666 274.7898720975981 L 666 274.789872097598 L 667 275.82392801675365 L 667 275.8239280167536 L 668 276.85617772168683 L 668 276.8561777216868 L 669 277.88667714063365 L 669 277.8866771406336 L 670 278.91548141408595 L 670 278.91548141408583 L 671 279.94264492622347 L 671 279.9426449262234 L 672 280.9682213353427 L 672 280.96822133534266 L 673 281.9922636033335 L 673 281.99226360333347 L 674 283.01482402425273 L 674 283.0148240242527 L 675 284.03595425204134 L 675 284.0359542520413 L 676 285.05570532743025 L 676 285.0557053274302 L 677 286.0741277040761 L 677 286.07412770407603 L 678 287.0912712739678 L 678 287.0912712739677 L 679 288.1071853921423 L 679 288.1071853921422 L 680 289.12191890074627 L 680 289.12191890074615 L 681 290.13552015247876 L 681 290.1355201524787 L 682 291.14803703344836 L 682 291.1480370334483 L 683 292.1595169854769 L 683 292.15951698547684 L 684 293.1700070278811 L 684 293.17000702788107 L 685 294.1795537787607 L 685 294.17955377876063 L 686 295.18820347582283 L 686 295.1882034758227 L 687 296.19600199676853 L 687 296.1960019967684 L 688 297.202994879269 L 688 297.20299487926894 L 689 298.2092273405563 L 689 298.20922734055625 L 690 299.21474429665295 L 690 299.21474429665284 L 691 300.21959038126454 L 691 300.2195903812645 L 692 301.2238099643582 L 692 301.22380996435817 L 693 302.22744717044895 L 693 302.2274471704489 L 694 303.2305458966156 L 694 303.23054589661547 L 695 304.2331498302677 L 695 304.2331498302676 L 696 305.23530246668327 L 696 305.2353024666832 L 697 306.2370471263381 L 697 306.237047126338 L 698 307.2384269720451 L 698 307.2384269720451 L 699 308.2394850259245 L 699 308.2394850259244 L 700 309.2402641862216 L 700 309.24026418622157 L 701 310.24080724399244 L 701 310.2408072439923 L 702 311.241156899674 L 702 311.24115689967397 L 703 312.2413557795587 L 703 312.2413557795586 L 704 313.24144645218837 L 704 313.24144645218837 L 705 314.24147144468805 L 705 314.241471444688 L 706 315.24147325905477 L 706 315.2414732590547 L 707 316.2414943884204 L 707 316.2414943884203 L 708 317.24157733330424 L 708 317.2415773333042 L 709 318.2417646178744 L 709 318.2417646178743 L 710 319.2420988062335 L 710 319.24209880623346 L 711 320.24262251874734 L 711 320.2426225187472 L 712 321.2433784484331 L 712 321.2433784484331 L 713 322.24440937742565 L 713 322.24440937742565 L 714 323.2457581935382 L 714 323.24575819353817 L 715 324.24746790693666 L 715 324.2474679069366 L 716 325.249581666945 L 716 325.2495816669449 L 717 326.25214277900034 L 717 326.25214277900034 L 718 327.2551947217766 L 718 327.25519472177655 L 719 328.2587811644953 L 719 328.2587811644953 L 720 329.26294598444395 L 720 329.26294598444395 L 721 330.267733284721 L 721 330.2677332847209 L 722 331.27318741222814 L 722 331.2731874122281 L 723 332.2793529759317 L 723 332.2793529759316 L 724 333.28627486541325 L 724 333.2862748654132 L 725 334.29399826973275 L 725 334.2939982697327 L 726 335.3025686966266 L 726 335.3025686966265 L 727 336.3120319920646 L 727 336.31203199206453 L 728 337.32243436018996 L 728 337.3224343601899 L 729 338.33382238366755 L 729 338.33382238366744 L 730 339.3462430444673 L 730 339.3462430444672 L 731 340.35974374510903 L 731 340.359743745109 L 732 341.3743723303981 L 732 341.37437233039805 L 733 342.39017710968017 L 733 342.3901771096801 L 734 343.4072068796471 L 734 343.407206879647 L 735 344.42551094772466 L 735 344.42551094772466 L 736 345.44513915607683 L 736 345.4451391560767 L 737 346.4661419062602 L 737 346.46614190626013 L 738 347.4885701845665 L 738 347.48857018456647 L 739 348.51247558809064 L 739 348.5124755880905 L 740 349.53791035156405 L 740 349.537910351564 L 741 350.56492737499707 L 741 350.56492737499696 L 742 351.5935802521723 L 742 351.5935802521722 L 743 352.6239233000374 L 743 352.6239233000374 L 744 353.6560115890453 L 744 353.6560115890452 L 745 354.6899009744924 L 745 354.68990097449233 L 746 355.7256481289114 L 746 355.72564812891136 L 747 356.76331057557286 L 747 356.76331057557275 L 748 357.8029467231581 L 748 357.802946723158 L 749 358.8446159016658 L 749 358.84461590166575 L 750 359.8883783996202 L 750 359.88837839962014 L 751 360.9342955026513 L 751 360.93429550265125 L 752 361.98242953352315 L 752 361.9824295335231 L 753 363.0328438936889 L 753 363.0328438936889 L 754 364.08560310645805 L 754 364.085603106458 L 755 365.14077286186443 L 755 365.1407728618643 L 756 366.19842006333056 L 756 366.19842006333056 L 757 367.2586128762291 L 757 367.2586128762291 L 758 368.32142077844827 L 758 368.3214207784482 L 759 369.3869146130753 L 759 369.3869146130753 L 760 370.4551666433202 L 760 370.4551666433201 L 761 371.52625060980665 L 761 371.5262506098066 L 762 372.6002417903707 L 762 372.60024179037066 L 763 373.6772170625115 L 763 373.67721706251143 L 764 374.757254968652 L 764 374.75725496865186 L 765 375.8404357843769 L 765 375.84043578437684 L 766 376.92684158982655 L 766 376.9268415898265 L 767 378.0165563444375 L 767 378.0165563444374 L 768 379.10966596523565 L 768 379.10966596523554 L 769 380.2062584089004 L 769 380.20625840890034 L 770 381.3064237578358 L 770 381.3064237578357 L 771 382.41025431049974 L 771 382.4102543104997 L 772 383.5178446762644 L 772 383.5178446762643 L 773 384.6292918750968 L 773 384.6292918750967 L 774 385.74469544237445 L 774 385.74469544237434 L 775 386.864157539173 L 775 386.86415753917294 L 776 387.9877830683891 L 776 387.98778306838904 L 777 389.1156797970905 L 777 389.1156797970905 L 778 390.2479584855172 L 778 390.24795848551713 L 779 391.3847330231898 L 779 391.3847330231897 L 780 392.52612057262087 L 780 392.5261205726208 L 781 393.6722417211636 L 781 393.67224172116346 L 782 394.823220641578 L 782 394.823220641578 L 783 395.97918526194564 L 783 395.97918526194564 L 784 397.1402674456129 L 784 397.14026744561284 L 785 398.3066031819093 L 785 398.3066031819092 L 786 399.47833278844735 L 786 399.47833278844723 L 787 400.65560112588423 L 787 400.6556011258841 L 788 401.8385578261081 L 788 401.83855782610806 L 789 403.02735753489577 L 789 403.0273575348957 L 790 404.2221601701903 L 790 404.22216017019025 L 791 405.4231311972538 L 791 405.4231311972537 L 792 406.6304419220715 L 792 406.63044192207144 L 793 407.84426980451826 L 793 407.84426980451826 L 794 409.06479879294716 L 794 409.06479879294716 L 795 410.29221968202813 L 795 410.2922196820281 L 796 411.5267304958503 L 796 411.5267304958503 L 797 412.768536898511 L 797 412.768536898511 L 798 414.01785263464933 L 798 414.0178526346493 L 799 415.2749000026449 L 799 415.2749000026449 L 800 416.53991036350044 L 800 416.53991036350044 L 801 417.8131246887591 L 801 417.8131246887591 L 802 419.09479415118903 L 802 419.0947941511889 L 803 420.3851807623919 L 803 420.38518076239177 L 804 421.6845580619821 L 804 421.68455806198205 L 805 422.99321186353325 L 805 422.99321186353325 L 806 424.3114410631194 L 806 424.31144106311933 L 807 425.63955851699853 L 807 425.6395585169985 L 808 426.9778919958109 L 808 426.97789199581086 L 809 428.3267852236086 L 809 428.3267852236086 L 810 429.6865990111256 L 810 429.68659901112557 L 811 431.0577124939518 L 811 431.0577124939517 L 812 432.4405244877327 L 812 432.44052448773266 L 813 433.83545497420334 L 813 433.83545497420334 L 814 435.2429467338332 L 814 435.24294673383315 L 815 436.6634671431568 L 815 436.6634671431568 L 816 438.09751015755523 L 816 438.0975101575552 L 817 439.5455985034204 L 817 439.54559850342036 L 818 441.0082861073703 L 818 441.0082861073702 L 819 442.4861607946058 L 819 442.4861607946057 L 820 443.9798472937648 L 820 443.9798472937648 L 821 445.4900105919095 L 821 445.4900105919095 L 822 447.0173596908186 L 822 447.0173596908185 L 823 448.56265182483196 L 823 448.56265182483196 L 824 450.12669721148137 L 824 450.12669721148137 L 825 451.71036441950207 L 825 451.710364419502 L 826 453.3145864551634 L 826 453.3145864551634 L 827 454.94036768794996 L 827 454.9403676879499 L 828 456.58879176147883 L 828 456.58879176147883 L 829 458.2610306664776 L 829 458.2610306664776 L 830 459.9583551914059 L 830 459.9583551914059 L 831 461.6821470152094 L 831 461.6821470152094 L 832 463.4339127688665 L 832 463.43391276886643 L 833 465.2153004720442 L 833 465.2153004720442 L 834 467.02811885413655 L 834 467.0281188541365 L 835 468.8743602032232 L 835 468.8743602032232 L 836 470.75622756333104 L 836 470.756227563331 L 837 472.67616733577324 L 837 472.6761673357732 L 838 474.6369086572698 L 838 474.6369086572698 L 839 476.6415113595841 L 839 476.6415113595841 L 840 478.6934249123359 L 840 478.69342491233584 L 841 480.79656158764783 L 841 480.79656158764783 L 842 482.95538827800044 L 842 482.95538827800044 L 843 485.1750431287972 L 843 485.1750431287972 L 844 487.4614857067788 L 844 487.4614857067788 L 845 489.82169329627953 L 845 489.8216932962795 L 846 492.26392191494494 L 846 492.26392191494494 L 847 494.7980602016361 L 847 494.798060201636 L 848 497.4361200559431 L 848 497.4361200559431 L 849 500.19293473583133 L 849 500.1929347358313 L 850 503.08718286159336 L 850 503.08718286159336 L 851 506.14294608520714 L 851 506.14294608520714 L 852 509.3921855660508 L 852 509.3921855660507 L 853 512.8789014791018 L 853 512.8789014791018 L 854 516.6666281132752 L 854 516.6666281132752 L 855 520.8532644458919 L 855 520.8532644458919 L 856 525.6045554286094 L 856 525.6045554286094 L 857 531.2467181587901 L 857 531.2467181587901 L 858 538.6389769804888 L 858 538.6389769804888 L 859 555.7613636363637" stroke-opacity="0.2" stroke-linecap="round" stroke-linejoin="round" stroke-miterlimit="10" stroke-width="15"/><path fill="none" stroke="rgb(211,47,47)" paint-order="fill stroke markers" d=" M 553 73.81249064247487 L 553 90.09832299302212 L 553 90.09832299302195 L 554 97.74905261966586 L 554 97.74905261966575 L 555 103.50024674411912 L 555 103.50024674411895 L 556 108.3152944553317 L 556 108.31529445533158 L 557 112.54496282818121 L 557 112.54496282818104 L 558 116.36421518297414 L 558 116.36421518297396 L 559 119.8752922080227 L 559 119.87529220802259 L 560 123.14407637382214 L 560 123.14407637382197 L 561 126.21596333387623 L 561 126.21596333387606 L 562 129.12380249376804 L 562 129.12380249376793 L 563 131.8922713021969 L 563 131.89227130219678 L 564 134.5404648890352 L 564 134.5404648890351 L 565 137.08351760839514 L 565 137.08351760839503 L 566 139.53366514111332 L 566 139.53366514111315 L 567 141.9009663692844 L 567 141.90096636928422 L 568 144.19380942707278 L 568 144.1938094270726 L 569 146.4192759038903 L 569 146.41927590389014 L 570 148.58340895798108 L 570 148.58340895798096 L 571 150.69141461550828 L 571 150.6914146155081 L 572 152.74781554035326 L 572 152.74781554035314 L 573 154.75657030809532 L 573 154.7565703080952 L 574 156.7211671937307 L 574 156.72116719373054 L 575 158.6446988274859 L 575 158.6446988274858 L 576 160.5299222817535 L 576 160.52992228175333 L 577 162.37930791937652 L 577 162.37930791937634 L 578 164.19507946972567 L 578 164.19507946972556 L 579 165.97924718384132 L 579 165.97924718384115 L 580 167.73363547525196 L 580 167.7336354752518 L 581 169.45990612727354 L 581 169.45990612727343 L 582 171.1595779058626 L 582 171.15957790586242 L 583 172.83404323568038 L 583 172.83404323568027 L 584 174.4845824594086 L 584 174.4845824594085 L 585 176.11237609492935 L 585 176.11237609492917 L 586 177.71851542347434 L 586 177.71851542347417 L 587 179.30401167828012 L 587 179.30401167827995 L 588 180.86980405332076 L 588 180.86980405332065 L 589 182.41676671211053 L 589 182.41676671211036 L 590 183.9457149450016 L 590 183.9457149450015 L 591 185.45741059805482 L 591 185.4574105980547 L 592 186.95256687607736 L 592 186.95256687607719 L 593 188.431852605777 L 593 188.4318526057769 L 594 189.89589603137438 L 594 189.89589603137426 L 595 191.34528820383304 L 595 191.34528820383292 L 596 192.78058601563748 L 596 192.78058601563737 L 597 194.20231492538358 L 597 194.2023149253834 L 598 195.61097141006206 L 598 195.6109714100619 L 599 197.00702517756878 L 599 197.00702517756866 L 600 198.39092116748037 L 600 198.39092116748026 L 601 199.76308136434187 L 601 199.7630813643417 L 602 201.1239064444988 L 602 201.1239064444987 L 603 202.47377727477573 L 603 202.4737772747756 L 604 203.81305627897143 L 604 203.81305627897132 L 605 205.14208868614776 L 605 205.14208868614764 L 606 206.46120367297465 L 606 206.46120367297453 L 607 207.77071541092164 L 607 207.77071541092153 L 608 209.07092402780808 L 608 209.0709240278079 L 609 210.36211649212538 L 609 210.3621164921252 L 610 211.6445674275813 L 610 211.6445674275812 L 611 212.91853986448655 L 611 212.91853986448643 L 612 214.1842859338699 L 612 214.18428593386977 L 613 215.44204750957653 L 613 215.44204750957635 L 614 216.69205680303855 L 614 216.69205680303844 L 615 217.93453691492095 L 615 217.93453691492078 L 616 219.1697023474082 L 616 219.16970234740802 L 617 220.39775948051812 L 617 220.39775948051795 L 618 221.61890701548776 L 618 221.61890701548765 L 619 222.83333638798 L 619 222.8333363879799 L 620 224.0412321535892 L 620 224.04123215358908 L 621 225.2427723478899 L 621 225.2427723478898 L 622 226.43812882306167 L 622 226.4381288230615 L 623 227.6274675629317 L 623 227.62746756293154 L 624 228.8109489781108 L 624 228.81094897811067 L 625 229.98872818274674 L 625 229.98872818274657 L 626 231.16095525428233 L 626 231.16095525428221 L 627 232.32777547748435 L 627 232.32777547748424 L 628 233.4893295739002 L 628 233.48932957390008 L 629 234.64575391779948 L 629 234.6457539177993 L 630 235.79718073956911 L 630 235.79718073956894 L 631 236.9437383174497 L 631 236.94373831744957 L 632 238.0855511584275 L 632 238.08555115842734 L 633 239.22274016903089 L 633 239.22274016903071 L 634 240.35542281672014 L 634 240.35542281671997 L 635 241.4837132825038 L 635 241.4837132825037 L 636 242.6077226053671 L 636 242.60772260536692 L 637 243.72755881905022 L 637 243.7275588190501 L 638 244.84332708167648 L 638 244.84332708167636 L 639 245.95512979868874 L 639 245.95512979868863 L 640 247.06306673952213 L 640 247.06306673952196 L 641 248.1672351484064 L 641 248.1672351484063 L 642 249.26772984966465 L 642 249.2677298496646 L 643 250.36464334784802 L 643 250.36464334784796 L 644 251.45806592302114 L 644 251.45806592302108 L 645 252.54808572149233 L 645 252.54808572149227 L 646 253.634788842261 L 646 253.63478884226095 L 647 254.7182594194362 L 647 254.71825941943615 L 648 255.7985797008629 L 648 255.79857970086283 L 649 256.87583012317725 L 649 256.8758301231772 L 650 257.9500893834966 L 650 257.95008938349656 L 651 259.02143450793665 L 651 259.0214345079366 L 652 260.0899409171355 L 652 260.08994091713544 L 653 261.1556824889538 L 653 261.15568248895374 L 654 262.21873161850766 L 654 262.2187316185076 L 655 263.2791592756824 L 655 263.2791592756823 L 656 264.3370350602653 L 656 264.33703506026524 L 657 265.3924272548282 L 657 265.39242725482814 L 658 266.44540287548034 L 658 266.4454028754802 L 659 267.49602772060763 L 659 267.4960277206075 L 660 268.54436641770496 L 660 268.5443664177049 L 661 269.59048246840393 L 661 269.5904824684038 L 662 270.6344382917903 L 662 270.6344382917902 L 663 271.67629526610267 L 663 271.67629526610256 L 664 272.71611376889575 L 664 272.71611376889564 L 665 273.75395321574933 L 665 273.7539532157493 L 666 274.7898720975981 L 666 274.789872097598 L 667 275.82392801675365 L 667 275.8239280167536 L 668 276.85617772168683 L 668 276.8561777216868 L 669 277.88667714063365 L 669 277.8866771406336 L 670 278.91548141408595 L 670 278.91548141408583 L 671 279.94264492622347 L 671 279.9426449262234 L 672 280.9682213353427 L 672 280.96822133534266 L 673 281.9922636033335 L 673 281.99226360333347 L 674 283.01482402425273 L 674 283.0148240242527 L 675 284.03595425204134 L 675 284.0359542520413 L 676 285.05570532743025 L 676 285.0557053274302 L 677 286.0741277040761 L 677 286.07412770407603 L 678 287.0912712739678 L 678 287.0912712739677 L 679 288.1071853921423 L 679 288.1071853921422 L 680 289.12191890074627 L 680 289.12191890074615 L 681 290.13552015247876 L 681 290.1355201524787 L 682 291.14803703344836 L 682 291.1480370334483 L 683 292.1595169854769 L 683 292.15951698547684 L 684 293.1700070278811 L 684 293.17000702788107 L 685 294.1795537787607 L 685 294.17955377876063 L 686 295.18820347582283 L 686 295.1882034758227 L 687 296.19600199676853 L 687 296.1960019967684 L 688 297.202994879269 L 688 297.20299487926894 L 689 298.2092273405563 L 689 298.20922734055625 L 690 299.21474429665295 L 690 299.21474429665284 L 691 300.21959038126454 L 691 300.2195903812645 L 692 301.2238099643582 L 692 301.22380996435817 L 693 302.22744717044895 L 693 302.2274471704489 L 694 303.2305458966156 L 694 303.23054589661547 L 695 304.2331498302677 L 695 304.2331498302676 L 696 305.23530246668327 L 696 305.2353024666832 L 697 306.2370471263381 L 697 306.237047126338 L 698 307.2384269720451 L 698 307.2384269720451 L 699 308.2394850259245 L 699 308.2394850259244 L 700 309.2402641862216 L 700 309.24026418622157 L 701 310.24080724399244 L 701 310.2408072439923 L 702 311.241156899674 L 702 311.24115689967397 L 703 312.2413557795587 L 703 312.2413557795586 L 704 313.24144645218837 L 704 313.24144645218837 L 705 314.24147144468805 L 705 314.241471444688 L 706 315.24147325905477 L 706 315.2414732590547 L 707 316.2414943884204 L 707 316.2414943884203 L 708 317.24157733330424 L 708 317.2415773333042 L 709 318.2417646178744 L 709 318.2417646178743 L 710 319.2420988062335 L 710 319.24209880623346 L 711 320.24262251874734 L 711 320.2426225187472 L 712 321.2433784484331 L 712 321.2433784484331 L 713 322.24440937742565 L 713 322.24440937742565 L 714 323.2457581935382 L 714 323.24575819353817 L 715 324.24746790693666 L 715 324.2474679069366 L 716 325.249581666945 L 716 325.2495816669449 L 717 326.25214277900034 L 717 326.25214277900034 L 718 327.2551947217766 L 718 327.25519472177655 L 719 328.2587811644953 L 719 328.2587811644953 L 720 329.26294598444395 L 720 329.26294598444395 L 721 330.267733284721 L 721 330.2677332847209 L 722 331.27318741222814 L 722 331.2731874122281 L 723 332.2793529759317 L 723 332.2793529759316 L 724 333.28627486541325 L 724 333.2862748654132 L 725 334.29399826973275 L 725 334.2939982697327 L 726 335.3025686966266 L 726 335.3025686966265 L 727 336.3120319920646 L 727 336.31203199206453 L 728 337.32243436018996 L 728 337.3224343601899 L 729 338.33382238366755 L 729 338.33382238366744 L 730 339.3462430444673 L 730 339.3462430444672 L 731 340.35974374510903 L 731 340.359743745109 L 732 341.3743723303981 L 732 341.37437233039805 L 733 342.39017710968017 L 733 342.3901771096801 L 734 343.4072068796471 L 734 343.407206879647 L 735 344.42551094772466 L 735 344.42551094772466 L 736 345.44513915607683 L 736 345.4451391560767 L 737 346.4661419062602 L 737 346.46614190626013 L 738 347.4885701845665 L 738 347.48857018456647 L 739 348.51247558809064 L 739 348.5124755880905 L 740 349.53791035156405 L 740 349.537910351564 L 741 350.56492737499707 L 741 350.56492737499696 L 742 351.5935802521723 L 742 351.5935802521722 L 743 352.6239233000374 L 743 352.6239233000374 L 744 353.6560115890453 L 744 353.6560115890452 L 745 354.6899009744924 L 745 354.68990097449233 L 746 355.7256481289114 L 746 355.72564812891136 L 747 356.76331057557286 L 747 356.76331057557275 L 748 357.8029467231581 L 748 357.802946723158 L 749 358.8446159016658 L 749 358.84461590166575 L 750 359.8883783996202 L 750 359.88837839962014 L 751 360.9342955026513 L 751 360.93429550265125 L 752 361.98242953352315 L 752 361.9824295335231 L 753 363.0328438936889 L 753 363.0328438936889 L 754 364.08560310645805 L 754 364.085603106458 L 755 365.14077286186443 L 755 365.1407728618643 L 756 366.19842006333056 L 756 366.19842006333056 L 757 367.2586128762291 L 757 367.2586128762291 L 758 368.32142077844827 L 758 368.3214207784482 L 759 369.3869146130753 L 759 369.3869146130753 L 760 370.4551666433202 L 760 370.4551666433201 L 761 371.52625060980665 L 761 371.5262506098066 L 762 372.6002417903707 L 762 372.60024179037066 L 763 373.6772170625115 L 763 373.67721706251143 L 764 374.757254968652 L 764 374.75725496865186 L 765 375.8404357843769 L 765 375.84043578437684 L 766 376.92684158982655 L 766 376.9268415898265 L 767 378.0165563444375 L 767 378.0165563444374 L 768 379.10966596523565 L 768 379.10966596523554 L 769 380.2062584089004 L 769 380.20625840890034 L 770 381.3064237578358 L 770 381.3064237578357 L 771 382.41025431049974 L 771 382.4102543104997 L 772 383.5178446762644 L 772 383.5178446762643 L 773 384.6292918750968 L 773 384.6292918750967 L 774 385.74469544237445 L 774 385.74469544237434 L 775 386.864157539173 L 775 386.86415753917294 L 776 387.9877830683891 L 776 387.98778306838904 L 777 389.1156797970905 L 777 389.1156797970905 L 778 390.2479584855172 L 778 390.24795848551713 L 779 391.3847330231898 L 779 391.3847330231897 L 780 392.52612057262087 L 780 392.5261205726208 L 781 393.6722417211636 L 781 393.67224172116346 L 782 394.823220641578 L 782 394.823220641578 L 783 395.97918526194564 L 783 395.97918526194564 L 784 397.1402674456129 L 784 397.14026744561284 L 785 398.3066031819093 L 785 398.3066031819092 L 786 399.47833278844735 L 786 399.47833278844723 L 787 400.65560112588423 L 787 400.6556011258841 L 788 401.8385578261081 L 788 401.83855782610806 L 789 403.02735753489577 L 789 403.0273575348957 L 790 404.2221601701903 L 790 404.22216017019025 L 791 405.4231311972538 L 791 405.4231311972537 L 792 406.6304419220715 L 792 406.63044192207144 L 793 407.84426980451826 L 793 407.84426980451826 L 794 409.06479879294716 L 794 409.06479879294716 L 795 410.29221968202813 L 795 410.2922196820281 L 796 411.5267304958503 L 796 411.5267304958503 L 797 412.768536898511 L 797 412.768536898511 L 798 414.01785263464933 L 798 414.0178526346493 L 799 415.2749000026449 L 799 415.2749000026449 L 800 416.53991036350044 L 800 416.53991036350044 L 801 417.8131246887591 L 801 417.8131246887591 L 802 419.09479415118903 L 802 419.0947941511889 L 803 420.3851807623919 L 803 420.38518076239177 L 804 421.6845580619821 L 804 421.68455806198205 L 805 422.99321186353325 L 805 422.99321186353325 L 806 424.3114410631194 L 806 424.31144106311933 L 807 425.63955851699853 L 807 425.6395585169985 L 808 426.9778919958109 L 808 426.97789199581086 L 809 428.3267852236086 L 809 428.3267852236086 L 810 429.6865990111256 L 810 429.68659901112557 L 811 431.0577124939518 L 811 431.0577124939517 L 812 432.4405244877327 L 812 432.44052448773266 L 813 433.83545497420334 L 813 433.83545497420334 L 814 435.2429467338332 L 814 435.24294673383315 L 815 436.6634671431568 L 815 436.6634671431568 L 816 438.09751015755523 L 816 438.0975101575552 L 817 439.5455985034204 L 817 439.54559850342036 L 818 441.0082861073703 L 818 441.0082861073702 L 819 442.4861607946058 L 819 442.4861607946057 L 820 443.9798472937648 L 820 443.9798472937648 L 821 445.4900105919095 L 821 445.4900105919095 L 822 447.0173596908186 L 822 447.0173596908185 L 823 448.56265182483196 L 823 448.56265182483196 L 824 450.12669721148137 L 824 450.12669721148137 L 825 451.71036441950207 L 825 451.710364419502 L 826 453.3145864551634 L 826 453.3145864551634 L 827 454.94036768794996 L 827 454.9403676879499 L 828 456.58879176147883 L 828 456.58879176147883 L 829 458.2610306664776 L 829 458.2610306664776 L 830 459.9583551914059 L 830 459.9583551914059 L 831 461.6821470152094 L 831 461.6821470152094 L 832 463.4339127688665 L 832 463.43391276886643 L 833 465.2153004720442 L 833 465.2153004720442 L 834 467.02811885413655 L 834 467.0281188541365 L 835 468.8743602032232 L 835 468.8743602032232 L 836 470.75622756333104 L 836 470.756227563331 L 837 472.67616733577324 L 837 472.6761673357732 L 838 474.6369086572698 L 838 474.6369086572698 L 839 476.6415113595841 L 839 476.6415113595841 L 840 478.6934249123359 L 840 478.69342491233584 L 841 480.79656158764783 L 841 480.79656158764783 L 842 482.95538827800044 L 842 482.95538827800044 L 843 485.1750431287972 L 843 485.1750431287972 L 844 487.4614857067788 L 844 487.4614857067788 L 845 489.82169329627953 L 845 489.8216932962795 L 846 492.26392191494494 L 846 492.26392191494494 L 847 494.7980602016361 L 847 494.798060201636 L 848 497.4361200559431 L 848 497.4361200559431 L 849 500.19293473583133 L 849 500.1929347358313 L 850 503.08718286159336 L 850 503.08718286159336 L 851 506.14294608520714 L 851 506.14294608520714 L 852 509.3921855660508 L 852 509.3921855660507 L 853 512.8789014791018 L 853 512.8789014791018 L 854 516.6666281132752 L 854 516.6666281132752 L 855 520.8532644458919 L 855 520.8532644458919 L 856 525.6045554286094 L 856 525.6045554286094 L 857 531.2467181587901 L 857 531.2467181587901 L 858 538.6389769804888 L 858 538.6389769804888 L 859 555.7613636363637" stroke-opacity="0.8" stroke-linecap="round" stroke-linejoin="round" stroke-miterlimit="10" stroke-width="6.5"/><text fill="rgb(211,47,47)" stroke="none" font-family="geogebra-sans-serif, sans-serif" font-size="16px" font-style="normal" font-weight="normal" text-decoration="normal" x="553" y="97" text-anchor="start" dominant-baseline="alphabetic" fill-opacity="1">f</text><text fill="none" stroke="rgb(255,255,255)" font-family="geogebra-sans-serif, sans-serif" font-size="16px" font-style="normal" font-weight="normal" text-decoration="normal" x="553" y="97" text-anchor="start" dominant-baseline="alphabetic" stroke-opacity="1" stroke-linejoin="bevel" stroke-miterlimit="10" stroke-width="3">f</text><text fill="rgb(211,47,47)" stroke="none" font-family="geogebra-sans-serif, sans-serif" font-size="16px" font-style="normal" font-weight="normal" text-decoration="normal" x="553" y="97" text-anchor="start" dominant-baseline="alphabetic" fill-opacity="1">f</text><path fill="rgb(97,97,97)" stroke="none" paint-order="stroke fill markers" d=" M 710.5454545454543 314.7869271394193 C 710.5454545454543 317.5483508885732 708.3068782946083 319.7869271394193 705.5454545454543 319.7869271394193 C 702.7840307963003 319.7869271394193 700.5454545454543 317.5483508885732 700.5454545454543 314.7869271394193 C 700.5454545454543 312.0255033902653 702.7840307963003 309.7869271394193 705.5454545454543 309.7869271394193 C 708.3068782946083 309.7869271394193 710.5454545454543 312.0255033902653 710.5454545454543 314.7869271394193 Z" fill-opacity="1"/></g></g></svg>