<svg version="1.1" xmlns="http://www.w3.org/2000/svg" xmlns:xlink="http://www.w3.org/1999/xlink" width="852" height="588"><defs><clipPath id="UGWbaVlaqFBg"><path fill="none" stroke="none" d=" M 0 0 L 852 0 L 852 588 L 0 588 L 0 0 Z"/></clipPath></defs><g transform="scale(1,1)" clip-path="url(#UGWbaVlaqFBg)"><g><rect fill="rgb(255,255,255)" stroke="none" x="0" y="0" width="852" height="588" fill-opacity="1"/><path fill="none" stroke="rgb(192,192,192)" paint-order="fill stroke markers" d=" M 9.5 0.5 L 9.5 588.5 M 9.5 0.5 L 9.5 588.5 M 67.5 0.5 L 67.5 588.5 M 126.5 0.5 L 126.5 588.5 M 184.5 0.5 L 184.5 588.5 M 242.5 0.5 L 242.5 588.5 M 301.5 0.5 L 301.5 588.5 M 359.5 0.5 L 359.5 588.5 M 476.5 0.5 L 476.5 588.5 M 534.5 0.5 L 534.5 588.5 M 592.5 0.5 L 592.5 588.5 M 650.5 0.5 L 650.5 588.5 M 709.5 0.5 L 709.5 588.5 M 767.5 0.5 L 767.5 588.5 M 825.5 0.5 L 825.5 588.5" stroke-opacity="1" stroke-linecap="round" stroke-linejoin="round" stroke-miterlimit="10"/><path fill="none" stroke="rgb(192,192,192)" paint-order="fill stroke markers" d=" M 21.5 0.5 L 21.5 588.5 M 32.5 0.5 L 32.5 588.5 M 44.5 0.5 L 44.5 588.5 M 56.5 0.5 L 56.5 588.5 M 79.5 0.5 L 79.5 588.5 M 91.5 0.5 L 91.5 588.5 M 102.5 0.5 L 102.5 588.5 M 114.5 0.5 L 114.5 588.5 M 137.5 0.5 L 137.5 588.5 M 149.5 0.5 L 149.5 588.5 M 161.5 0.5 L 161.5 588.5 M 172.5 0.5 L 172.5 588.5 M 196.5 0.5 L 196.5 588.5 M 207.5 0.5 L 207.5 588.5 M 219.5 0.5 L 219.5 588.5 M 231.5 0.5 L 231.5 588.5 M 254.5 0.5 L 254.5 588.5 M 266.5 0.5 L 266.5 588.5 M 277.5 0.5 L 277.5 588.5 M 289.5 0.5 L 289.5 588.5 M 312.5 0.5 L 312.5 588.5 M 324.5 0.5 L 324.5 588.5 M 336.5 0.5 L 336.5 588.5 M 347.5 0.5 L 347.5 588.5 M 371.5 0.5 L 371.5 588.5 M 382.5 0.5 L 382.5 588.5 M 394.5 0.5 L 394.5 588.5 M 406.5 0.5 L 406.5 588.5 M 429.5 0.5 L 429.5 588.5 M 441.5 0.5 L 441.5 588.5 M 452.5 0.5 L 452.5 588.5 M 464.5 0.5 L 464.5 588.5 M 487.5 0.5 L 487.5 588.5 M 499.5 0.5 L 499.5 588.5 M 511.5 0.5 L 511.5 588.5 M 522.5 0.5 L 522.5 588.5 M 546.5 0.5 L 546.5 588.5 M 557.5 0.5 L 557.5 588.5 M 569.5 0.5 L 569.5 588.5 M 581.5 0.5 L 581.5 588.5 M 604.5 0.5 L 604.5 588.5 M 615.5 0.5 L 615.5 588.5 M 627.5 0.5 L 627.5 588.5 M 639.5 0.5 L 639.5 588.5 M 662.5 0.5 L 662.5 588.5 M 674.5 0.5 L 674.5 588.5 M 685.5 0.5 L 685.5 588.5 M 697.5 0.5 L 697.5 588.5 M 720.5 0.5 L 720.5 588.5 M 732.5 0.5 L 732.5 588.5 M 744.5 0.5 L 744.5 588.5 M 755.5 0.5 L 755.5 588.5 M 779.5 0.5 L 779.5 588.5 M 790.5 0.5 L 790.5 588.5 M 802.5 0.5 L 802.5 588.5 M 814.5 0.5 L 814.5 588.5 M 837.5 0.5 L 837.5 588.5 M 849.5 0.5 L 849.5 588.5" stroke-opacity="0.23529411764705882" stroke-linecap="round" stroke-linejoin="round" stroke-miterlimit="10"/><path fill="none" stroke="rgb(192,192,192)" paint-order="fill stroke markers" d=" M 0.5 16.5 L 852.5 16.5 M 0.5 16.5 L 852.5 16.5 M 0.5 74.5 L 852.5 74.5 M 0.5 133.5 L 852.5 133.5 M 0.5 191.5 L 852.5 191.5 M 0.5 308.5 L 852.5 308.5 M 0.5 366.5 L 852.5 366.5 M 0.5 424.5 L 852.5 424.5 M 0.5 482.5 L 852.5 482.5 M 0.5 541.5 L 852.5 541.5" stroke-opacity="1" stroke-linecap="round" stroke-linejoin="round" stroke-miterlimit="10"/><path fill="none" stroke="rgb(192,192,192)" paint-order="fill stroke markers" d=" M 0.5 4.5 L 852.5 4.5 M 0.5 4.5 L 852.5 4.5 M 0.5 28.5 L 852.5 28.5 M 0.5 39.5 L 852.5 39.5 M 0.5 51.5 L 852.5 51.5 M 0.5 63.5 L 852.5 63.5 M 0.5 86.5 L 852.5 86.5 M 0.5 98.5 L 852.5 98.5 M 0.5 109.5 L 852.5 109.5 M 0.5 121.5 L 852.5 121.5 M 0.5 144.5 L 852.5 144.5 M 0.5 156.5 L 852.5 156.5 M 0.5 168.5 L 852.5 168.5 M 0.5 179.5 L 852.5 179.5 M 0.5 203.5 L 852.5 203.5 M 0.5 214.5 L 852.5 214.5 M 0.5 226.5 L 852.5 226.5 M 0.5 238.5 L 852.5 238.5 M 0.5 261.5 L 852.5 261.5 M 0.5 273.5 L 852.5 273.5 M 0.5 284.5 L 852.5 284.5 M 0.5 296.5 L 852.5 296.5 M 0.5 319.5 L 852.5 319.5 M 0.5 331.5 L 852.5 331.5 M 0.5 343.5 L 852.5 343.5 M 0.5 354.5 L 852.5 354.5 M 0.5 378.5 L 852.5 378.5 M 0.5 389.5 L 852.5 389.5 M 0.5 401.5 L 852.5 401.5 M 0.5 413.5 L 852.5 413.5 M 0.5 436.5 L 852.5 436.5 M 0.5 448.5 L 852.5 448.5 M 0.5 459.5 L 852.5 459.5 M 0.5 471.5 L 852.5 471.5 M 0.5 494.5 L 852.5 494.5 M 0.5 506.5 L 852.5 506.5 M 0.5 517.5 L 852.5 517.5 M 0.5 529.5 L 852.5 529.5 M 0.5 552.5 L 852.5 552.5 M 0.5 564.5 L 852.5 564.5 M 0.5 576.5 L 852.5 576.5 M 0.5 587.5 L 852.5 587.5" stroke-opacity="0.23529411764705882" stroke-linecap="round" stroke-linejoin="round" stroke-miterlimit="10"/><path fill="none" stroke="rgb(37,37,37)" paint-order="fill stroke markers" d=" M 417.5 2.5 L 417.5 588.5" stroke-opacity="1" stroke-miterlimit="10"/><path fill="none" stroke="rgb(37,37,37)" paint-order="fill stroke markers" d=" M 417.5 1.5 L 413.5 5.5" stroke-opacity="1" stroke-miterlimit="10"/><path fill="none" stroke="rgb(37,37,37)" paint-order="fill stroke markers" d=" M 417.5 1.5 L 421.5 5.5" stroke-opacity="1" stroke-miterlimit="10"/><path fill="none" stroke="rgb(37,37,37)" paint-order="fill stroke markers" d=" M 0.5 249.5 L 850.5 249.5" stroke-opacity="1" stroke-miterlimit="10"/><path fill="none" stroke="rgb(37,37,37)" paint-order="fill stroke markers" d=" M 851.5 249.5 L 847.5 245.5" stroke-opacity="1" stroke-miterlimit="10"/><path fill="none" stroke="rgb(37,37,37)" paint-order="fill stroke markers" d=" M 851.5 249.5 L 847.5 253.5" stroke-opacity="1" stroke-miterlimit="10"/><text fill="rgb(37,37,37)" stroke="none" font-family="geogebra-sans-serif, sans-serif" font-size="12px" font-style="normal" font-weight="normal" text-decoration="normal" x="62" y="265" text-anchor="start" dominant-baseline="alphabetic" fill-opacity="1">–6</text><text fill="none" stroke="rgb(255,255,255)" font-family="geogebra-sans-serif, sans-serif" font-size="12px" font-style="normal" font-weight="normal" text-decoration="normal" x="62" y="265" text-anchor="start" dominant-baseline="alphabetic" stroke-opacity="1" stroke-linejoin="bevel" stroke-miterlimit="10" stroke-width="3">–6</text><text fill="rgb(37,37,37)" stroke="none" font-family="geogebra-sans-serif, sans-serif" font-size="12px" font-style="normal" font-weight="normal" text-decoration="normal" x="62" y="265" text-anchor="start" dominant-baseline="alphabetic" fill-opacity="1">–6</text><text fill="rgb(37,37,37)" stroke="none" font-family="geogebra-sans-serif, sans-serif" font-size="12px" font-style="normal" font-weight="normal" text-decoration="normal" x="121" y="265" text-anchor="start" dominant-baseline="alphabetic" fill-opacity="1">–5</text><text fill="none" stroke="rgb(255,255,255)" font-family="geogebra-sans-serif, sans-serif" font-size="12px" font-style="normal" font-weight="normal" text-decoration="normal" x="121" y="265" text-anchor="start" dominant-baseline="alphabetic" stroke-opacity="1" stroke-linejoin="bevel" stroke-miterlimit="10" stroke-width="3">–5</text><text fill="rgb(37,37,37)" stroke="none" font-family="geogebra-sans-serif, sans-serif" font-size="12px" font-style="normal" font-weight="normal" text-decoration="normal" x="121" y="265" text-anchor="start" dominant-baseline="alphabetic" fill-opacity="1">–5</text><text fill="rgb(37,37,37)" stroke="none" font-family="geogebra-sans-serif, sans-serif" font-size="12px" font-style="normal" font-weight="normal" text-decoration="normal" x="179" y="265" text-anchor="start" dominant-baseline="alphabetic" fill-opacity="1">–4</text><text fill="none" stroke="rgb(255,255,255)" font-family="geogebra-sans-serif, sans-serif" font-size="12px" font-style="normal" font-weight="normal" text-decoration="normal" x="179" y="265" text-anchor="start" dominant-baseline="alphabetic" stroke-opacity="1" stroke-linejoin="bevel" stroke-miterlimit="10" stroke-width="3">–4</text><text fill="rgb(37,37,37)" stroke="none" font-family="geogebra-sans-serif, sans-serif" font-size="12px" font-style="normal" font-weight="normal" text-decoration="normal" x="179" y="265" text-anchor="start" dominant-baseline="alphabetic" fill-opacity="1">–4</text><text fill="rgb(37,37,37)" stroke="none" font-family="geogebra-sans-serif, sans-serif" font-size="12px" font-style="normal" font-weight="normal" text-decoration="normal" x="237" y="265" text-anchor="start" dominant-baseline="alphabetic" fill-opacity="1">–3</text><text fill="none" stroke="rgb(255,255,255)" font-family="geogebra-sans-serif, sans-serif" font-size="12px" font-style="normal" font-weight="normal" text-decoration="normal" x="237" y="265" text-anchor="start" dominant-baseline="alphabetic" stroke-opacity="1" stroke-linejoin="bevel" stroke-miterlimit="10" stroke-width="3">–3</text><text fill="rgb(37,37,37)" stroke="none" font-family="geogebra-sans-serif, sans-serif" font-size="12px" font-style="normal" font-weight="normal" text-decoration="normal" x="237" y="265" text-anchor="start" dominant-baseline="alphabetic" fill-opacity="1">–3</text><text fill="rgb(37,37,37)" stroke="none" font-family="geogebra-sans-serif, sans-serif" font-size="12px" font-style="normal" font-weight="normal" text-decoration="normal" x="296" y="265" text-anchor="start" dominant-baseline="alphabetic" fill-opacity="1">–2</text><text fill="none" stroke="rgb(255,255,255)" font-family="geogebra-sans-serif, sans-serif" font-size="12px" font-style="normal" font-weight="normal" text-decoration="normal" x="296" y="265" text-anchor="start" dominant-baseline="alphabetic" stroke-opacity="1" stroke-linejoin="bevel" stroke-miterlimit="10" stroke-width="3">–2</text><text fill="rgb(37,37,37)" stroke="none" font-family="geogebra-sans-serif, sans-serif" font-size="12px" font-style="normal" font-weight="normal" text-decoration="normal" x="296" y="265" text-anchor="start" dominant-baseline="alphabetic" fill-opacity="1">–2</text><text fill="rgb(37,37,37)" stroke="none" font-family="geogebra-sans-serif, sans-serif" font-size="12px" font-style="normal" font-weight="normal" text-decoration="normal" x="354" y="265" text-anchor="start" dominant-baseline="alphabetic" fill-opacity="1">–1</text><text fill="none" stroke="rgb(255,255,255)" font-family="geogebra-sans-serif, sans-serif" font-size="12px" font-style="normal" font-weight="normal" text-decoration="normal" x="354" y="265" text-anchor="start" dominant-baseline="alphabetic" stroke-opacity="1" stroke-linejoin="bevel" stroke-miterlimit="10" stroke-width="3">–1</text><text fill="rgb(37,37,37)" stroke="none" font-family="geogebra-sans-serif, sans-serif" font-size="12px" font-style="normal" font-weight="normal" text-decoration="normal" x="354" y="265" text-anchor="start" dominant-baseline="alphabetic" fill-opacity="1">–1</text><text fill="rgb(37,37,37)" stroke="none" font-family="geogebra-sans-serif, sans-serif" font-size="12px" font-style="normal" font-weight="normal" text-decoration="normal" x="474" y="265" text-anchor="start" dominant-baseline="alphabetic" fill-opacity="1">1</text><text fill="none" stroke="rgb(255,255,255)" font-family="geogebra-sans-serif, sans-serif" font-size="12px" font-style="normal" font-weight="normal" text-decoration="normal" x="474" y="265" text-anchor="start" dominant-baseline="alphabetic" stroke-opacity="1" stroke-linejoin="bevel" stroke-miterlimit="10" stroke-width="3">1</text><text fill="rgb(37,37,37)" stroke="none" font-family="geogebra-sans-serif, sans-serif" font-size="12px" font-style="normal" font-weight="normal" text-decoration="normal" x="474" y="265" text-anchor="start" dominant-baseline="alphabetic" fill-opacity="1">1</text><text fill="rgb(37,37,37)" stroke="none" font-family="geogebra-sans-serif, sans-serif" font-size="12px" font-style="normal" font-weight="normal" text-decoration="normal" x="532" y="265" text-anchor="start" dominant-baseline="alphabetic" fill-opacity="1">2</text><text fill="none" stroke="rgb(255,255,255)" font-family="geogebra-sans-serif, sans-serif" font-size="12px" font-style="normal" font-weight="normal" text-decoration="normal" x="532" y="265" text-anchor="start" dominant-baseline="alphabetic" stroke-opacity="1" stroke-linejoin="bevel" stroke-miterlimit="10" stroke-width="3">2</text><text fill="rgb(37,37,37)" stroke="none" font-family="geogebra-sans-serif, sans-serif" font-size="12px" font-style="normal" font-weight="normal" text-decoration="normal" x="532" y="265" text-anchor="start" dominant-baseline="alphabetic" fill-opacity="1">2</text><text fill="rgb(37,37,37)" stroke="none" font-family="geogebra-sans-serif, sans-serif" font-size="12px" font-style="normal" font-weight="normal" text-decoration="normal" x="590" y="265" text-anchor="start" dominant-baseline="alphabetic" fill-opacity="1">3</text><text fill="none" stroke="rgb(255,255,255)" font-family="geogebra-sans-serif, sans-serif" font-size="12px" font-style="normal" font-weight="normal" text-decoration="normal" x="590" y="265" text-anchor="start" dominant-baseline="alphabetic" stroke-opacity="1" stroke-linejoin="bevel" stroke-miterlimit="10" stroke-width="3">3</text><text fill="rgb(37,37,37)" stroke="none" font-family="geogebra-sans-serif, sans-serif" font-size="12px" font-style="normal" font-weight="normal" text-decoration="normal" x="590" y="265" text-anchor="start" dominant-baseline="alphabetic" fill-opacity="1">3</text><text fill="rgb(37,37,37)" stroke="none" font-family="geogebra-sans-serif, sans-serif" font-size="12px" font-style="normal" font-weight="normal" text-decoration="normal" x="648" y="265" text-anchor="start" dominant-baseline="alphabetic" fill-opacity="1">4</text><text fill="none" stroke="rgb(255,255,255)" font-family="geogebra-sans-serif, sans-serif" font-size="12px" font-style="normal" font-weight="normal" text-decoration="normal" x="648" y="265" text-anchor="start" dominant-baseline="alphabetic" stroke-opacity="1" stroke-linejoin="bevel" stroke-miterlimit="10" stroke-width="3">4</text><text fill="rgb(37,37,37)" stroke="none" font-family="geogebra-sans-serif, sans-serif" font-size="12px" font-style="normal" font-weight="normal" text-decoration="normal" x="648" y="265" text-anchor="start" dominant-baseline="alphabetic" fill-opacity="1">4</text><text fill="rgb(37,37,37)" stroke="none" font-family="geogebra-sans-serif, sans-serif" font-size="12px" font-style="normal" font-weight="normal" text-decoration="normal" x="707" y="265" text-anchor="start" dominant-baseline="alphabetic" fill-opacity="1">5</text><text fill="none" stroke="rgb(255,255,255)" font-family="geogebra-sans-serif, sans-serif" font-size="12px" font-style="normal" font-weight="normal" text-decoration="normal" x="707" y="265" text-anchor="start" dominant-baseline="alphabetic" stroke-opacity="1" stroke-linejoin="bevel" stroke-miterlimit="10" stroke-width="3">5</text><text fill="rgb(37,37,37)" stroke="none" font-family="geogebra-sans-serif, sans-serif" font-size="12px" font-style="normal" font-weight="normal" text-decoration="normal" x="707" y="265" text-anchor="start" dominant-baseline="alphabetic" fill-opacity="1">5</text><text fill="rgb(37,37,37)" stroke="none" font-family="geogebra-sans-serif, sans-serif" font-size="12px" font-style="normal" font-weight="normal" text-decoration="normal" x="765" y="265" text-anchor="start" dominant-baseline="alphabetic" fill-opacity="1">6</text><text fill="none" stroke="rgb(255,255,255)" font-family="geogebra-sans-serif, sans-serif" font-size="12px" font-style="normal" font-weight="normal" text-decoration="normal" x="765" y="265" text-anchor="start" dominant-baseline="alphabetic" stroke-opacity="1" stroke-linejoin="bevel" stroke-miterlimit="10" stroke-width="3">6</text><text fill="rgb(37,37,37)" stroke="none" font-family="geogebra-sans-serif, sans-serif" font-size="12px" font-style="normal" font-weight="normal" text-decoration="normal" x="765" y="265" text-anchor="start" dominant-baseline="alphabetic" fill-opacity="1">6</text><text fill="rgb(37,37,37)" stroke="none" font-family="geogebra-sans-serif, sans-serif" font-size="12px" font-style="normal" font-weight="normal" text-decoration="normal" x="823" y="265" text-anchor="start" dominant-baseline="alphabetic" fill-opacity="1">7</text><text fill="none" stroke="rgb(255,255,255)" font-family="geogebra-sans-serif, sans-serif" font-size="12px" font-style="normal" font-weight="normal" text-decoration="normal" x="823" y="265" text-anchor="start" dominant-baseline="alphabetic" stroke-opacity="1" stroke-linejoin="bevel" stroke-miterlimit="10" stroke-width="3">7</text><text fill="rgb(37,37,37)" stroke="none" font-family="geogebra-sans-serif, sans-serif" font-size="12px" font-style="normal" font-weight="normal" text-decoration="normal" x="823" y="265" text-anchor="start" dominant-baseline="alphabetic" fill-opacity="1">7</text><text fill="rgb(37,37,37)" stroke="none" font-family="geogebra-sans-serif, sans-serif" font-size="12px" font-style="normal" font-weight="normal" text-decoration="normal" x="397" y="546" text-anchor="start" dominant-baseline="alphabetic" fill-opacity="1">–5</text><text fill="none" stroke="rgb(255,255,255)" font-family="geogebra-sans-serif, sans-serif" font-size="12px" font-style="normal" font-weight="normal" text-decoration="normal" x="397" y="546" text-anchor="start" dominant-baseline="alphabetic" stroke-opacity="1" stroke-linejoin="bevel" stroke-miterlimit="10" stroke-width="3">–5</text><text fill="rgb(37,37,37)" stroke="none" font-family="geogebra-sans-serif, sans-serif" font-size="12px" font-style="normal" font-weight="normal" text-decoration="normal" x="397" y="546" text-anchor="start" dominant-baseline="alphabetic" fill-opacity="1">–5</text><text fill="rgb(37,37,37)" stroke="none" font-family="geogebra-sans-serif, sans-serif" font-size="12px" font-style="normal" font-weight="normal" text-decoration="normal" x="397" y="487" text-anchor="start" dominant-baseline="alphabetic" fill-opacity="1">–4</text><text fill="none" stroke="rgb(255,255,255)" font-family="geogebra-sans-serif, sans-serif" font-size="12px" font-style="normal" font-weight="normal" text-decoration="normal" x="397" y="487" text-anchor="start" dominant-baseline="alphabetic" stroke-opacity="1" stroke-linejoin="bevel" stroke-miterlimit="10" stroke-width="3">–4</text><text fill="rgb(37,37,37)" stroke="none" font-family="geogebra-sans-serif, sans-serif" font-size="12px" font-style="normal" font-weight="normal" text-decoration="normal" x="397" y="487" text-anchor="start" dominant-baseline="alphabetic" fill-opacity="1">–4</text><text fill="rgb(37,37,37)" stroke="none" font-family="geogebra-sans-serif, sans-serif" font-size="12px" font-style="normal" font-weight="normal" text-decoration="normal" x="397" y="429" text-anchor="start" dominant-baseline="alphabetic" fill-opacity="1">–3</text><text fill="none" stroke="rgb(255,255,255)" font-family="geogebra-sans-serif, sans-serif" font-size="12px" font-style="normal" font-weight="normal" text-decoration="normal" x="397" y="429" text-anchor="start" dominant-baseline="alphabetic" stroke-opacity="1" stroke-linejoin="bevel" stroke-miterlimit="10" stroke-width="3">–3</text><text fill="rgb(37,37,37)" stroke="none" font-family="geogebra-sans-serif, sans-serif" font-size="12px" font-style="normal" font-weight="normal" text-decoration="normal" x="397" y="429" text-anchor="start" dominant-baseline="alphabetic" fill-opacity="1">–3</text><text fill="rgb(37,37,37)" stroke="none" font-family="geogebra-sans-serif, sans-serif" font-size="12px" font-style="normal" font-weight="normal" text-decoration="normal" x="397" y="371" text-anchor="start" dominant-baseline="alphabetic" fill-opacity="1">–2</text><text fill="none" stroke="rgb(255,255,255)" font-family="geogebra-sans-serif, sans-serif" font-size="12px" font-style="normal" font-weight="normal" text-decoration="normal" x="397" y="371" text-anchor="start" dominant-baseline="alphabetic" stroke-opacity="1" stroke-linejoin="bevel" stroke-miterlimit="10" stroke-width="3">–2</text><text fill="rgb(37,37,37)" stroke="none" font-family="geogebra-sans-serif, sans-serif" font-size="12px" font-style="normal" font-weight="normal" text-decoration="normal" x="397" y="371" text-anchor="start" dominant-baseline="alphabetic" fill-opacity="1">–2</text><text fill="rgb(37,37,37)" stroke="none" font-family="geogebra-sans-serif, sans-serif" font-size="12px" font-style="normal" font-weight="normal" text-decoration="normal" x="397" y="313" text-anchor="start" dominant-baseline="alphabetic" fill-opacity="1">–1</text><text fill="none" stroke="rgb(255,255,255)" font-family="geogebra-sans-serif, sans-serif" font-size="12px" font-style="normal" font-weight="normal" text-decoration="normal" x="397" y="313" text-anchor="start" dominant-baseline="alphabetic" stroke-opacity="1" stroke-linejoin="bevel" stroke-miterlimit="10" stroke-width="3">–1</text><text fill="rgb(37,37,37)" stroke="none" font-family="geogebra-sans-serif, sans-serif" font-size="12px" font-style="normal" font-weight="normal" text-decoration="normal" x="397" y="313" text-anchor="start" dominant-baseline="alphabetic" fill-opacity="1">–1</text><text fill="rgb(37,37,37)" stroke="none" font-family="geogebra-sans-serif, sans-serif" font-size="12px" font-style="normal" font-weight="normal" text-decoration="normal" x="403" y="196" text-anchor="start" dominant-baseline="alphabetic" fill-opacity="1">1</text><text fill="none" stroke="rgb(255,255,255)" font-family="geogebra-sans-serif, sans-serif" font-size="12px" font-style="normal" font-weight="normal" text-decoration="normal" x="403" y="196" text-anchor="start" dominant-baseline="alphabetic" stroke-opacity="1" stroke-linejoin="bevel" stroke-miterlimit="10" stroke-width="3">1</text><text fill="rgb(37,37,37)" stroke="none" font-family="geogebra-sans-serif, sans-serif" font-size="12px" font-style="normal" font-weight="normal" text-decoration="normal" x="403" y="196" text-anchor="start" dominant-baseline="alphabetic" fill-opacity="1">1</text><text fill="rgb(37,37,37)" stroke="none" font-family="geogebra-sans-serif, sans-serif" font-size="12px" font-style="normal" font-weight="normal" text-decoration="normal" x="403" y="138" text-anchor="start" dominant-baseline="alphabetic" fill-opacity="1">2</text><text fill="none" stroke="rgb(255,255,255)" font-family="geogebra-sans-serif, sans-serif" font-size="12px" font-style="normal" font-weight="normal" text-decoration="normal" x="403" y="138" text-anchor="start" dominant-baseline="alphabetic" stroke-opacity="1" stroke-linejoin="bevel" stroke-miterlimit="10" stroke-width="3">2</text><text fill="rgb(37,37,37)" stroke="none" font-family="geogebra-sans-serif, sans-serif" font-size="12px" font-style="normal" font-weight="normal" text-decoration="normal" x="403" y="138" text-anchor="start" dominant-baseline="alphabetic" fill-opacity="1">2</text><text fill="rgb(37,37,37)" stroke="none" font-family="geogebra-sans-serif, sans-serif" font-size="12px" font-style="normal" font-weight="normal" text-decoration="normal" x="403" y="79" text-anchor="start" dominant-baseline="alphabetic" fill-opacity="1">3</text><text fill="none" stroke="rgb(255,255,255)" font-family="geogebra-sans-serif, sans-serif" font-size="12px" font-style="normal" font-weight="normal" text-decoration="normal" x="403" y="79" text-anchor="start" dominant-baseline="alphabetic" stroke-opacity="1" stroke-linejoin="bevel" stroke-miterlimit="10" stroke-width="3">3</text><text fill="rgb(37,37,37)" stroke="none" font-family="geogebra-sans-serif, sans-serif" font-size="12px" font-style="normal" font-weight="normal" text-decoration="normal" x="403" y="79" text-anchor="start" dominant-baseline="alphabetic" fill-opacity="1">3</text><text fill="rgb(37,37,37)" stroke="none" font-family="geogebra-sans-serif, sans-serif" font-size="12px" font-style="normal" font-weight="normal" text-decoration="normal" x="403" y="21" text-anchor="start" dominant-baseline="alphabetic" fill-opacity="1">4</text><text fill="none" stroke="rgb(255,255,255)" font-family="geogebra-sans-serif, sans-serif" font-size="12px" font-style="normal" font-weight="normal" text-decoration="normal" x="403" y="21" text-anchor="start" dominant-baseline="alphabetic" stroke-opacity="1" stroke-linejoin="bevel" stroke-miterlimit="10" stroke-width="3">4</text><text fill="rgb(37,37,37)" stroke="none" font-family="geogebra-sans-serif, sans-serif" font-size="12px" font-style="normal" font-weight="normal" text-decoration="normal" x="403" y="21" text-anchor="start" dominant-baseline="alphabetic" fill-opacity="1">4</text><text fill="rgb(37,37,37)" stroke="none" font-family="geogebra-sans-serif, sans-serif" font-size="12px" font-style="normal" font-weight="normal" text-decoration="normal" x="403" y="265" text-anchor="start" dominant-baseline="alphabetic" fill-opacity="1">0</text><text fill="none" stroke="rgb(255,255,255)" font-family="geogebra-sans-serif, sans-serif" font-size="12px" font-style="normal" font-weight="normal" text-decoration="normal" x="403" y="265" text-anchor="start" dominant-baseline="alphabetic" stroke-opacity="1" stroke-linejoin="bevel" stroke-miterlimit="10" stroke-width="3">0</text><text fill="rgb(37,37,37)" stroke="none" font-family="geogebra-sans-serif, sans-serif" font-size="12px" font-style="normal" font-weight="normal" text-decoration="normal" x="403" y="265" text-anchor="start" dominant-baseline="alphabetic" fill-opacity="1">0</text><path fill="none" stroke="rgb(211,47,47)" paint-order="fill stroke markers" d=" M 126.312744140625 541.2959999999999 L 126.36474609374994 541.2959999999999 L 129.796875 541.2959999999999 L 133.125 541.2959999999999 L 136.453125 541.2959999999999 L 139.78125 541.2959999999999 L 143.109375 541.2959999999999 L 146.4375 541.2959999999999 L 149.765625 541.2959999999999 L 153.09375 541.2959999999999 L 156.421875 541.2959999999999 L 159.75 541.2959999999999 L 163.07812499999997 541.2959999999999 L 166.40624999999997 541.2959999999999 L 169.73437499999997 541.2959999999999 L 173.06249999999997 541.2959999999999 L 176.39062499999997 541.2959999999999 L 179.71874999999997 541.2959999999999 L 183.04687499999994 541.2959999999999 L 183.87890624999997 541.2959999999999 L 184.5029296875 541.2959999999999 M 184.60693359374997 482.996 L 184.65893554687497 482.996 L 186.37499999999997 482.996 L 189.70312499999997 482.996 L 193.03124999999997 482.996 L 196.35937499999997 482.996 L 199.6875 482.996 L 203.015625 482.996 L 206.34374999999997 482.996 L 209.67187499999997 482.996 L 212.99999999999997 482.996 L 216.32812499999997 482.996 L 219.65624999999997 482.996 L 222.98437499999997 482.996 L 226.31249999999997 482.996 L 229.64062499999997 482.996 L 232.96874999999997 482.996 L 236.29687499999994 482.996 L 239.62499999999994 482.996 L 241.2890625 482.996 L 242.12109374999997 482.996 L 242.7451171875 482.996 M 242.90112304687497 424.696 L 242.953125 424.696 L 246.28125 424.696 L 249.609375 424.696 L 252.9375 424.696 L 256.265625 424.696 L 259.59375 424.696 L 262.921875 424.696 L 266.25 424.696 L 269.578125 424.696 L 272.90625 424.696 L 276.234375 424.696 L 279.5625 424.696 L 282.89062499999994 424.696 L 286.21874999999994 424.696 L 289.54687499999994 424.696 L 292.875 424.696 L 296.203125 424.696 L 299.53125 424.696 L 300.36328124999994 424.696 L 300.9873046875 424.696 M 301.1953125 366.396 L 301.24731445312494 366.396 L 302.02734374999994 366.396 L 302.859375 366.396 L 306.1875 366.396 L 309.515625 366.396 L 312.84375 366.396 L 316.171875 366.396 L 319.5 366.396 L 322.828125 366.396 L 326.15624999999994 366.396 L 329.48437499999994 366.396 L 332.81249999999994 366.396 L 336.14062499999994 366.396 L 339.46874999999994 366.396 L 342.79687499999994 366.396 L 346.12499999999994 366.396 L 349.453125 366.396 L 352.78125 366.396 L 356.109375 366.396 L 359.4375 366.396 M 359.48950195312494 308.09600000000006 L 359.54150390625 308.09600000000006 L 360.26953124999994 308.09600000000006 L 361.1015625 308.09600000000006 L 362.765625 308.09600000000006 L 366.09375 308.09600000000006 L 369.421875 308.09600000000006 L 372.74999999999994 308.09600000000006 L 376.07812499999994 308.09600000000006 L 379.40624999999994 308.09600000000006 L 382.73437499999994 308.09600000000006 L 386.06249999999994 308.09600000000006 L 389.39062499999994 308.09600000000006 L 392.71874999999994 308.09600000000006 L 396.04687499999994 308.09600000000006 L 399.375 308.09600000000006 L 402.703125 308.09600000000006 L 406.03125 308.09600000000006 L 409.359375 308.09600000000006 L 412.6875 308.09600000000006 L 416.015625 308.09600000000006 L 417.6796875 308.09600000000006 M 417.78369140625 249.79600000000008 L 417.83569335937494 249.79600000000008 L 418.51171874999994 249.79600000000008 L 419.34374999999994 249.79600000000008 L 422.67187499999994 249.79600000000008 L 425.99999999999994 249.79600000000008 L 429.32812499999994 249.79600000000008 L 432.65624999999994 249.79600000000008 L 435.98437499999994 249.79600000000008 L 439.31249999999994 249.79600000000008 L 442.64062499999994 249.79600000000008 L 445.96874999999994 249.79600000000008 L 449.29687499999994 249.79600000000008 L 452.62499999999994 249.79600000000008 L 455.953125 249.79600000000008 L 459.28125 249.79600000000008 L 462.609375 249.79600000000008 L 465.9375 249.79600000000008 L 469.26562499999994 249.79600000000008 L 472.5937499999999 249.79600000000008 L 475.9218749999999 249.79600000000008 M 476.07788085937494 191.4960000000001 L 476.1298828124999 191.4960000000001 L 476.75390624999994 191.4960000000001 L 477.58593749999994 191.4960000000001 L 479.2499999999999 191.4960000000001 L 482.578125 191.4960000000001 L 485.90625 191.4960000000001 L 489.234375 191.4960000000001 L 492.5625 191.4960000000001 L 495.890625 191.4960000000001 L 499.21875 191.4960000000001 L 502.546875 191.4960000000001 L 505.875 191.4960000000001 L 509.203125 191.4960000000001 L 512.53125 191.4960000000001 L 515.859375 191.4960000000001 L 519.1875 191.4960000000001 L 522.515625 191.4960000000001 L 525.84375 191.4960000000001 L 529.171875 191.4960000000001 L 532.5 191.4960000000001 L 534.1640625 191.4960000000001 M 534.3720703124999 133.19600000000014 L 534.424072265625 133.19600000000014 L 534.9960937499999 133.19600000000014 L 535.828125 133.19600000000014 L 539.15625 133.19600000000014 L 542.484375 133.19600000000014 L 545.8125 133.19600000000014 L 549.140625 133.19600000000014 L 552.46875 133.19600000000014 L 555.796875 133.19600000000014 L 559.125 133.19600000000014 L 562.4531249999999 133.19600000000014 L 565.7812499999999 133.19600000000014 L 569.1093749999999 133.19600000000014 L 572.4374999999999 133.19600000000014 L 575.7656249999999 133.19600000000014 L 579.0937499999999 133.19600000000014 L 582.4218749999999 133.19600000000014 L 585.75 133.19600000000014 L 589.078125 133.19600000000014 L 592.40625 133.19600000000014 M 592.666259765625 74.89600000000016 L 592.71826171875 74.89600000000016 L 593.2382812499999 74.89600000000016 L 594.0703125 74.89600000000016 L 595.734375 74.89600000000016 L 599.0625 74.89600000000016 L 602.390625 74.89600000000016 L 605.71875 74.89600000000016 L 609.046875 74.89600000000016 L 612.375 74.89600000000016 L 615.703125 74.89600000000016 L 619.03125 74.89600000000016 L 622.359375 74.89600000000016 L 625.6875 74.89600000000016 L 629.015625 74.89600000000016 L 632.34375 74.89600000000016 L 635.671875 74.89600000000016 L 639 74.89600000000016 L 642.328125 74.89600000000016 L 645.65625 74.89600000000016 L 648.984375 74.89600000000016 L 650.6484375 74.89600000000016 M 651.0124511718749 16.596000000000174 L 651.0644531249999 16.596000000000174 L 652.3125 16.596000000000174 L 655.640625 16.596000000000174 L 658.96875 16.596000000000174 L 662.2968749999999 16.596000000000174 L 665.6249999999999 16.596000000000174 L 668.9531249999999 16.596000000000174 L 672.2812499999999 16.596000000000174 L 675.6093749999999 16.596000000000174 L 678.9374999999999 16.596000000000174 L 682.2656249999999 16.596000000000174 L 685.5937499999999 16.596000000000174 L 688.9218749999999 16.596000000000174 L 692.2499999999999 16.596000000000174 L 695.578125 16.596000000000174 L 698.90625 16.596000000000174 L 702.234375 16.596000000000174 L 705.5625 16.596000000000174 L 708.890625 16.596000000000174" stroke-opacity="0.2" stroke-linecap="round" stroke-linejoin="round" stroke-miterlimit="10" stroke-width="15"/><path fill="none" stroke="rgb(211,47,47)" paint-order="fill stroke markers" d=" M 126.312744140625 541.2959999999999 L 126.36474609374994 541.2959999999999 L 129.796875 541.2959999999999 L 133.125 541.2959999999999 L 136.453125 541.2959999999999 L 139.78125 541.2959999999999 L 143.109375 541.2959999999999 L 146.4375 541.2959999999999 L 149.765625 541.2959999999999 L 153.09375 541.2959999999999 L 156.421875 541.2959999999999 L 159.75 541.2959999999999 L 163.07812499999997 541.2959999999999 L 166.40624999999997 541.2959999999999 L 169.73437499999997 541.2959999999999 L 173.06249999999997 541.2959999999999 L 176.39062499999997 541.2959999999999 L 179.71874999999997 541.2959999999999 L 183.04687499999994 541.2959999999999 L 183.87890624999997 541.2959999999999 L 184.5029296875 541.2959999999999 M 184.60693359374997 482.996 L 184.65893554687497 482.996 L 186.37499999999997 482.996 L 189.70312499999997 482.996 L 193.03124999999997 482.996 L 196.35937499999997 482.996 L 199.6875 482.996 L 203.015625 482.996 L 206.34374999999997 482.996 L 209.67187499999997 482.996 L 212.99999999999997 482.996 L 216.32812499999997 482.996 L 219.65624999999997 482.996 L 222.98437499999997 482.996 L 226.31249999999997 482.996 L 229.64062499999997 482.996 L 232.96874999999997 482.996 L 236.29687499999994 482.996 L 239.62499999999994 482.996 L 241.2890625 482.996 L 242.12109374999997 482.996 L 242.7451171875 482.996 M 242.90112304687497 424.696 L 242.953125 424.696 L 246.28125 424.696 L 249.609375 424.696 L 252.9375 424.696 L 256.265625 424.696 L 259.59375 424.696 L 262.921875 424.696 L 266.25 424.696 L 269.578125 424.696 L 272.90625 424.696 L 276.234375 424.696 L 279.5625 424.696 L 282.89062499999994 424.696 L 286.21874999999994 424.696 L 289.54687499999994 424.696 L 292.875 424.696 L 296.203125 424.696 L 299.53125 424.696 L 300.36328124999994 424.696 L 300.9873046875 424.696 M 301.1953125 366.396 L 301.24731445312494 366.396 L 302.02734374999994 366.396 L 302.859375 366.396 L 306.1875 366.396 L 309.515625 366.396 L 312.84375 366.396 L 316.171875 366.396 L 319.5 366.396 L 322.828125 366.396 L 326.15624999999994 366.396 L 329.48437499999994 366.396 L 332.81249999999994 366.396 L 336.14062499999994 366.396 L 339.46874999999994 366.396 L 342.79687499999994 366.396 L 346.12499999999994 366.396 L 349.453125 366.396 L 352.78125 366.396 L 356.109375 366.396 L 359.4375 366.396 M 359.48950195312494 308.09600000000006 L 359.54150390625 308.09600000000006 L 360.26953124999994 308.09600000000006 L 361.1015625 308.09600000000006 L 362.765625 308.09600000000006 L 366.09375 308.09600000000006 L 369.421875 308.09600000000006 L 372.74999999999994 308.09600000000006 L 376.07812499999994 308.09600000000006 L 379.40624999999994 308.09600000000006 L 382.73437499999994 308.09600000000006 L 386.06249999999994 308.09600000000006 L 389.39062499999994 308.09600000000006 L 392.71874999999994 308.09600000000006 L 396.04687499999994 308.09600000000006 L 399.375 308.09600000000006 L 402.703125 308.09600000000006 L 406.03125 308.09600000000006 L 409.359375 308.09600000000006 L 412.6875 308.09600000000006 L 416.015625 308.09600000000006 L 417.6796875 308.09600000000006 M 417.78369140625 249.79600000000008 L 417.83569335937494 249.79600000000008 L 418.51171874999994 249.79600000000008 L 419.34374999999994 249.79600000000008 L 422.67187499999994 249.79600000000008 L 425.99999999999994 249.79600000000008 L 429.32812499999994 249.79600000000008 L 432.65624999999994 249.79600000000008 L 435.98437499999994 249.79600000000008 L 439.31249999999994 249.79600000000008 L 442.64062499999994 249.79600000000008 L 445.96874999999994 249.79600000000008 L 449.29687499999994 249.79600000000008 L 452.62499999999994 249.79600000000008 L 455.953125 249.79600000000008 L 459.28125 249.79600000000008 L 462.609375 249.79600000000008 L 465.9375 249.79600000000008 L 469.26562499999994 249.79600000000008 L 472.5937499999999 249.79600000000008 L 475.9218749999999 249.79600000000008 M 476.07788085937494 191.4960000000001 L 476.1298828124999 191.4960000000001 L 476.75390624999994 191.4960000000001 L 477.58593749999994 191.4960000000001 L 479.2499999999999 191.4960000000001 L 482.578125 191.4960000000001 L 485.90625 191.4960000000001 L 489.234375 191.4960000000001 L 492.5625 191.4960000000001 L 495.890625 191.4960000000001 L 499.21875 191.4960000000001 L 502.546875 191.4960000000001 L 505.875 191.4960000000001 L 509.203125 191.4960000000001 L 512.53125 191.4960000000001 L 515.859375 191.4960000000001 L 519.1875 191.4960000000001 L 522.515625 191.4960000000001 L 525.84375 191.4960000000001 L 529.171875 191.4960000000001 L 532.5 191.4960000000001 L 534.1640625 191.4960000000001 M 534.3720703124999 133.19600000000014 L 534.424072265625 133.19600000000014 L 534.9960937499999 133.19600000000014 L 535.828125 133.19600000000014 L 539.15625 133.19600000000014 L 542.484375 133.19600000000014 L 545.8125 133.19600000000014 L 549.140625 133.19600000000014 L 552.46875 133.19600000000014 L 555.796875 133.19600000000014 L 559.125 133.19600000000014 L 562.4531249999999 133.19600000000014 L 565.7812499999999 133.19600000000014 L 569.1093749999999 133.19600000000014 L 572.4374999999999 133.19600000000014 L 575.7656249999999 133.19600000000014 L 579.0937499999999 133.19600000000014 L 582.4218749999999 133.19600000000014 L 585.75 133.19600000000014 L 589.078125 133.19600000000014 L 592.40625 133.19600000000014 M 592.666259765625 74.89600000000016 L 592.71826171875 74.89600000000016 L 593.2382812499999 74.89600000000016 L 594.0703125 74.89600000000016 L 595.734375 74.89600000000016 L 599.0625 74.89600000000016 L 602.390625 74.89600000000016 L 605.71875 74.89600000000016 L 609.046875 74.89600000000016 L 612.375 74.89600000000016 L 615.703125 74.89600000000016 L 619.03125 74.89600000000016 L 622.359375 74.89600000000016 L 625.6875 74.89600000000016 L 629.015625 74.89600000000016 L 632.34375 74.89600000000016 L 635.671875 74.89600000000016 L 639 74.89600000000016 L 642.328125 74.89600000000016 L 645.65625 74.89600000000016 L 648.984375 74.89600000000016 L 650.6484375 74.89600000000016 M 651.0124511718749 16.596000000000174 L 651.0644531249999 16.596000000000174 L 652.3125 16.596000000000174 L 655.640625 16.596000000000174 L 658.96875 16.596000000000174 L 662.2968749999999 16.596000000000174 L 665.6249999999999 16.596000000000174 L 668.9531249999999 16.596000000000174 L 672.2812499999999 16.596000000000174 L 675.6093749999999 16.596000000000174 L 678.9374999999999 16.596000000000174 L 682.2656249999999 16.596000000000174 L 685.5937499999999 16.596000000000174 L 688.9218749999999 16.596000000000174 L 692.2499999999999 16.596000000000174 L 695.578125 16.596000000000174 L 698.90625 16.596000000000174 L 702.234375 16.596000000000174 L 705.5625 16.596000000000174 L 708.890625 16.596000000000174" stroke-opacity="0.8" stroke-linecap="round" stroke-linejoin="round" stroke-miterlimit="10" stroke-width="6.5"/><text fill="rgb(211,47,47)" stroke="none" font-family="geogebra-sans-serif, sans-serif" font-size="16px" font-style="normal" font-weight="normal" text-decoration="normal" x="126" y="541" text-anchor="start" dominant-baseline="alphabetic" fill-opacity="1">f</text><text fill="none" stroke="rgb(255,255,255)" font-family="geogebra-sans-serif, sans-serif" font-size="16px" font-style="normal" font-weight="normal" text-decoration="normal" x="126" y="541" text-anchor="start" dominant-baseline="alphabetic" stroke-opacity="1" stroke-linejoin="bevel" stroke-miterlimit="10" stroke-width="3">f</text><text fill="rgb(211,47,47)" stroke="none" font-family="geogebra-sans-serif, sans-serif" font-size="16px" font-style="normal" font-weight="normal" text-decoration="normal" x="126" y="541" text-anchor="start" dominant-baseline="alphabetic" fill-opacity="1">f</text><path fill="rgb(97,97,97)" stroke="none" paint-order="stroke fill markers" d=" M 422.7660000000003 249.79600000000008 C 422.7660000000003 252.55742374915405 420.52742374915425 254.79600000000008 417.7660000000003 254.79600000000008 C 415.00457625084636 254.79600000000008 412.7660000000003 252.55742374915405 412.7660000000003 249.79600000000008 C 412.7660000000003 247.0345762508461 415.00457625084636 244.79600000000008 417.7660000000003 244.79600000000008 C 420.52742374915425 244.79600000000008 422.7660000000003 247.0345762508461 422.7660000000003 249.79600000000008 Z" fill-opacity="1"/></g></g></svg>