<svg version="1.1" xmlns="http://www.w3.org/2000/svg" xmlns:xlink="http://www.w3.org/1999/xlink" width="1450" height="855"><defs><clipPath id="DMTFMKbZOWXk"><path fill="none" stroke="none" d=" M 0 0 L 1450 0 L 1450 855 L 0 855 L 0 0 Z"/></clipPath></defs><g transform="scale(1,1)" clip-path="url(#DMTFMKbZOWXk)"><g><rect fill="rgb(255,255,255)" stroke="none" x="0" y="0" width="1450" height="855" fill-opacity="1"/><path fill="none" stroke="rgb(37,37,37)" paint-order="fill stroke markers" d=" M 662.5 2.5 L 662.5 855.5" stroke-opacity="1" stroke-miterlimit="10"/><path fill="none" stroke="rgb(37,37,37)" paint-order="fill stroke markers" d=" M 662.5 1.5 L 658.5 5.5" stroke-opacity="1" stroke-miterlimit="10"/><path fill="none" stroke="rgb(37,37,37)" paint-order="fill stroke markers" d=" M 662.5 1.5 L 666.5 5.5" stroke-opacity="1" stroke-miterlimit="10"/><path fill="none" stroke="rgb(37,37,37)" paint-order="fill stroke markers" d=" M 0.5 425.5 L 1448.5 425.5" stroke-opacity="1" stroke-miterlimit="10"/><path fill="none" stroke="rgb(37,37,37)" paint-order="fill stroke markers" d=" M 1449.5 425.5 L 1445.5 421.5" stroke-opacity="1" stroke-miterlimit="10"/><path fill="none" stroke="rgb(37,37,37)" paint-order="fill stroke markers" d=" M 1449.5 425.5 L 1445.5 429.5" stroke-opacity="1" stroke-miterlimit="10"/><text fill="rgb(37,37,37)" stroke="none" font-family="geogebra-sans-serif, sans-serif" font-size="12px" font-style="normal" font-weight="normal" text-decoration="normal" x="27" y="441" text-anchor="start" dominant-baseline="alphabetic" fill-opacity="1">–7</text><text fill="none" stroke="rgb(255,255,255)" font-family="geogebra-sans-serif, sans-serif" font-size="12px" font-style="normal" font-weight="normal" text-decoration="normal" x="27" y="441" text-anchor="start" dominant-baseline="alphabetic" stroke-opacity="1" stroke-linejoin="bevel" stroke-miterlimit="10" stroke-width="3">–7</text><text fill="rgb(37,37,37)" stroke="none" font-family="geogebra-sans-serif, sans-serif" font-size="12px" font-style="normal" font-weight="normal" text-decoration="normal" x="27" y="441" text-anchor="start" dominant-baseline="alphabetic" fill-opacity="1">–7</text><path fill="none" stroke="rgb(37,37,37)" paint-order="fill stroke markers" d=" M 32.5 425.5 L 32.5 428.5" stroke-opacity="1" stroke-miterlimit="10"/><text fill="rgb(37,37,37)" stroke="none" font-family="geogebra-sans-serif, sans-serif" font-size="12px" font-style="normal" font-weight="normal" text-decoration="normal" x="117" y="441" text-anchor="start" dominant-baseline="alphabetic" fill-opacity="1">–6</text><text fill="none" stroke="rgb(255,255,255)" font-family="geogebra-sans-serif, sans-serif" font-size="12px" font-style="normal" font-weight="normal" text-decoration="normal" x="117" y="441" text-anchor="start" dominant-baseline="alphabetic" stroke-opacity="1" stroke-linejoin="bevel" stroke-miterlimit="10" stroke-width="3">–6</text><text fill="rgb(37,37,37)" stroke="none" font-family="geogebra-sans-serif, sans-serif" font-size="12px" font-style="normal" font-weight="normal" text-decoration="normal" x="117" y="441" text-anchor="start" dominant-baseline="alphabetic" fill-opacity="1">–6</text><path fill="none" stroke="rgb(37,37,37)" paint-order="fill stroke markers" d=" M 122.5 425.5 L 122.5 428.5" stroke-opacity="1" stroke-miterlimit="10"/><text fill="rgb(37,37,37)" stroke="none" font-family="geogebra-sans-serif, sans-serif" font-size="12px" font-style="normal" font-weight="normal" text-decoration="normal" x="207" y="441" text-anchor="start" dominant-baseline="alphabetic" fill-opacity="1">–5</text><text fill="none" stroke="rgb(255,255,255)" font-family="geogebra-sans-serif, sans-serif" font-size="12px" font-style="normal" font-weight="normal" text-decoration="normal" x="207" y="441" text-anchor="start" dominant-baseline="alphabetic" stroke-opacity="1" stroke-linejoin="bevel" stroke-miterlimit="10" stroke-width="3">–5</text><text fill="rgb(37,37,37)" stroke="none" font-family="geogebra-sans-serif, sans-serif" font-size="12px" font-style="normal" font-weight="normal" text-decoration="normal" x="207" y="441" text-anchor="start" dominant-baseline="alphabetic" fill-opacity="1">–5</text><path fill="none" stroke="rgb(37,37,37)" paint-order="fill stroke markers" d=" M 212.5 425.5 L 212.5 428.5" stroke-opacity="1" stroke-miterlimit="10"/><text fill="rgb(37,37,37)" stroke="none" font-family="geogebra-sans-serif, sans-serif" font-size="12px" font-style="normal" font-weight="normal" text-decoration="normal" x="297" y="441" text-anchor="start" dominant-baseline="alphabetic" fill-opacity="1">–4</text><text fill="none" stroke="rgb(255,255,255)" font-family="geogebra-sans-serif, sans-serif" font-size="12px" font-style="normal" font-weight="normal" text-decoration="normal" x="297" y="441" text-anchor="start" dominant-baseline="alphabetic" stroke-opacity="1" stroke-linejoin="bevel" stroke-miterlimit="10" stroke-width="3">–4</text><text fill="rgb(37,37,37)" stroke="none" font-family="geogebra-sans-serif, sans-serif" font-size="12px" font-style="normal" font-weight="normal" text-decoration="normal" x="297" y="441" text-anchor="start" dominant-baseline="alphabetic" fill-opacity="1">–4</text><path fill="none" stroke="rgb(37,37,37)" paint-order="fill stroke markers" d=" M 302.5 425.5 L 302.5 428.5" stroke-opacity="1" stroke-miterlimit="10"/><text fill="rgb(37,37,37)" stroke="none" font-family="geogebra-sans-serif, sans-serif" font-size="12px" font-style="normal" font-weight="normal" text-decoration="normal" x="387" y="441" text-anchor="start" dominant-baseline="alphabetic" fill-opacity="1">–3</text><text fill="none" stroke="rgb(255,255,255)" font-family="geogebra-sans-serif, sans-serif" font-size="12px" font-style="normal" font-weight="normal" text-decoration="normal" x="387" y="441" text-anchor="start" dominant-baseline="alphabetic" stroke-opacity="1" stroke-linejoin="bevel" stroke-miterlimit="10" stroke-width="3">–3</text><text fill="rgb(37,37,37)" stroke="none" font-family="geogebra-sans-serif, sans-serif" font-size="12px" font-style="normal" font-weight="normal" text-decoration="normal" x="387" y="441" text-anchor="start" dominant-baseline="alphabetic" fill-opacity="1">–3</text><path fill="none" stroke="rgb(37,37,37)" paint-order="fill stroke markers" d=" M 392.5 425.5 L 392.5 428.5" stroke-opacity="1" stroke-miterlimit="10"/><text fill="rgb(37,37,37)" stroke="none" font-family="geogebra-sans-serif, sans-serif" font-size="12px" font-style="normal" font-weight="normal" text-decoration="normal" x="477" y="441" text-anchor="start" dominant-baseline="alphabetic" fill-opacity="1">–2</text><text fill="none" stroke="rgb(255,255,255)" font-family="geogebra-sans-serif, sans-serif" font-size="12px" font-style="normal" font-weight="normal" text-decoration="normal" x="477" y="441" text-anchor="start" dominant-baseline="alphabetic" stroke-opacity="1" stroke-linejoin="bevel" stroke-miterlimit="10" stroke-width="3">–2</text><text fill="rgb(37,37,37)" stroke="none" font-family="geogebra-sans-serif, sans-serif" font-size="12px" font-style="normal" font-weight="normal" text-decoration="normal" x="477" y="441" text-anchor="start" dominant-baseline="alphabetic" fill-opacity="1">–2</text><path fill="none" stroke="rgb(37,37,37)" paint-order="fill stroke markers" d=" M 482.5 425.5 L 482.5 428.5" stroke-opacity="1" stroke-miterlimit="10"/><text fill="rgb(37,37,37)" stroke="none" font-family="geogebra-sans-serif, sans-serif" font-size="12px" font-style="normal" font-weight="normal" text-decoration="normal" x="567" y="441" text-anchor="start" dominant-baseline="alphabetic" fill-opacity="1">–1</text><text fill="none" stroke="rgb(255,255,255)" font-family="geogebra-sans-serif, sans-serif" font-size="12px" font-style="normal" font-weight="normal" text-decoration="normal" x="567" y="441" text-anchor="start" dominant-baseline="alphabetic" stroke-opacity="1" stroke-linejoin="bevel" stroke-miterlimit="10" stroke-width="3">–1</text><text fill="rgb(37,37,37)" stroke="none" font-family="geogebra-sans-serif, sans-serif" font-size="12px" font-style="normal" font-weight="normal" text-decoration="normal" x="567" y="441" text-anchor="start" dominant-baseline="alphabetic" fill-opacity="1">–1</text><path fill="none" stroke="rgb(37,37,37)" paint-order="fill stroke markers" d=" M 572.5 425.5 L 572.5 428.5" stroke-opacity="1" stroke-miterlimit="10"/><path fill="none" stroke="rgb(37,37,37)" paint-order="fill stroke markers" d=" M 662.5 425.5 L 662.5 428.5" stroke-opacity="1" stroke-miterlimit="10"/><text fill="rgb(37,37,37)" stroke="none" font-family="geogebra-sans-serif, sans-serif" font-size="12px" font-style="normal" font-weight="normal" text-decoration="normal" x="750" y="441" text-anchor="start" dominant-baseline="alphabetic" fill-opacity="1">1</text><text fill="none" stroke="rgb(255,255,255)" font-family="geogebra-sans-serif, sans-serif" font-size="12px" font-style="normal" font-weight="normal" text-decoration="normal" x="750" y="441" text-anchor="start" dominant-baseline="alphabetic" stroke-opacity="1" stroke-linejoin="bevel" stroke-miterlimit="10" stroke-width="3">1</text><text fill="rgb(37,37,37)" stroke="none" font-family="geogebra-sans-serif, sans-serif" font-size="12px" font-style="normal" font-weight="normal" text-decoration="normal" x="750" y="441" text-anchor="start" dominant-baseline="alphabetic" fill-opacity="1">1</text><path fill="none" stroke="rgb(37,37,37)" paint-order="fill stroke markers" d=" M 752.5 425.5 L 752.5 428.5" stroke-opacity="1" stroke-miterlimit="10"/><text fill="rgb(37,37,37)" stroke="none" font-family="geogebra-sans-serif, sans-serif" font-size="12px" font-style="normal" font-weight="normal" text-decoration="normal" x="841" y="441" text-anchor="start" dominant-baseline="alphabetic" fill-opacity="1">2</text><text fill="none" stroke="rgb(255,255,255)" font-family="geogebra-sans-serif, sans-serif" font-size="12px" font-style="normal" font-weight="normal" text-decoration="normal" x="841" y="441" text-anchor="start" dominant-baseline="alphabetic" stroke-opacity="1" stroke-linejoin="bevel" stroke-miterlimit="10" stroke-width="3">2</text><text fill="rgb(37,37,37)" stroke="none" font-family="geogebra-sans-serif, sans-serif" font-size="12px" font-style="normal" font-weight="normal" text-decoration="normal" x="841" y="441" text-anchor="start" dominant-baseline="alphabetic" fill-opacity="1">2</text><path fill="none" stroke="rgb(37,37,37)" paint-order="fill stroke markers" d=" M 843.5 425.5 L 843.5 428.5" stroke-opacity="1" stroke-miterlimit="10"/><text fill="rgb(37,37,37)" stroke="none" font-family="geogebra-sans-serif, sans-serif" font-size="12px" font-style="normal" font-weight="normal" text-decoration="normal" x="931" y="441" text-anchor="start" dominant-baseline="alphabetic" fill-opacity="1">3</text><text fill="none" stroke="rgb(255,255,255)" font-family="geogebra-sans-serif, sans-serif" font-size="12px" font-style="normal" font-weight="normal" text-decoration="normal" x="931" y="441" text-anchor="start" dominant-baseline="alphabetic" stroke-opacity="1" stroke-linejoin="bevel" stroke-miterlimit="10" stroke-width="3">3</text><text fill="rgb(37,37,37)" stroke="none" font-family="geogebra-sans-serif, sans-serif" font-size="12px" font-style="normal" font-weight="normal" text-decoration="normal" x="931" y="441" text-anchor="start" dominant-baseline="alphabetic" fill-opacity="1">3</text><path fill="none" stroke="rgb(37,37,37)" paint-order="fill stroke markers" d=" M 933.5 425.5 L 933.5 428.5" stroke-opacity="1" stroke-miterlimit="10"/><text fill="rgb(37,37,37)" stroke="none" font-family="geogebra-sans-serif, sans-serif" font-size="12px" font-style="normal" font-weight="normal" text-decoration="normal" x="1021" y="441" text-anchor="start" dominant-baseline="alphabetic" fill-opacity="1">4</text><text fill="none" stroke="rgb(255,255,255)" font-family="geogebra-sans-serif, sans-serif" font-size="12px" font-style="normal" font-weight="normal" text-decoration="normal" x="1021" y="441" text-anchor="start" dominant-baseline="alphabetic" stroke-opacity="1" stroke-linejoin="bevel" stroke-miterlimit="10" stroke-width="3">4</text><text fill="rgb(37,37,37)" stroke="none" font-family="geogebra-sans-serif, sans-serif" font-size="12px" font-style="normal" font-weight="normal" text-decoration="normal" x="1021" y="441" text-anchor="start" dominant-baseline="alphabetic" fill-opacity="1">4</text><path fill="none" stroke="rgb(37,37,37)" paint-order="fill stroke markers" d=" M 1023.5 425.5 L 1023.5 428.5" stroke-opacity="1" stroke-miterlimit="10"/><text fill="rgb(37,37,37)" stroke="none" font-family="geogebra-sans-serif, sans-serif" font-size="12px" font-style="normal" font-weight="normal" text-decoration="normal" x="1111" y="441" text-anchor="start" dominant-baseline="alphabetic" fill-opacity="1">5</text><text fill="none" stroke="rgb(255,255,255)" font-family="geogebra-sans-serif, sans-serif" font-size="12px" font-style="normal" font-weight="normal" text-decoration="normal" x="1111" y="441" text-anchor="start" dominant-baseline="alphabetic" stroke-opacity="1" stroke-linejoin="bevel" stroke-miterlimit="10" stroke-width="3">5</text><text fill="rgb(37,37,37)" stroke="none" font-family="geogebra-sans-serif, sans-serif" font-size="12px" font-style="normal" font-weight="normal" text-decoration="normal" x="1111" y="441" text-anchor="start" dominant-baseline="alphabetic" fill-opacity="1">5</text><path fill="none" stroke="rgb(37,37,37)" paint-order="fill stroke markers" d=" M 1113.5 425.5 L 1113.5 428.5" stroke-opacity="1" stroke-miterlimit="10"/><text fill="rgb(37,37,37)" stroke="none" font-family="geogebra-sans-serif, sans-serif" font-size="12px" font-style="normal" font-weight="normal" text-decoration="normal" x="1201" y="441" text-anchor="start" dominant-baseline="alphabetic" fill-opacity="1">6</text><text fill="none" stroke="rgb(255,255,255)" font-family="geogebra-sans-serif, sans-serif" font-size="12px" font-style="normal" font-weight="normal" text-decoration="normal" x="1201" y="441" text-anchor="start" dominant-baseline="alphabetic" stroke-opacity="1" stroke-linejoin="bevel" stroke-miterlimit="10" stroke-width="3">6</text><text fill="rgb(37,37,37)" stroke="none" font-family="geogebra-sans-serif, sans-serif" font-size="12px" font-style="normal" font-weight="normal" text-decoration="normal" x="1201" y="441" text-anchor="start" dominant-baseline="alphabetic" fill-opacity="1">6</text><path fill="none" stroke="rgb(37,37,37)" paint-order="fill stroke markers" d=" M 1203.5 425.5 L 1203.5 428.5" stroke-opacity="1" stroke-miterlimit="10"/><text fill="rgb(37,37,37)" stroke="none" font-family="geogebra-sans-serif, sans-serif" font-size="12px" font-style="normal" font-weight="normal" text-decoration="normal" x="1291" y="441" text-anchor="start" dominant-baseline="alphabetic" fill-opacity="1">7</text><text fill="none" stroke="rgb(255,255,255)" font-family="geogebra-sans-serif, sans-serif" font-size="12px" font-style="normal" font-weight="normal" text-decoration="normal" x="1291" y="441" text-anchor="start" dominant-baseline="alphabetic" stroke-opacity="1" stroke-linejoin="bevel" stroke-miterlimit="10" stroke-width="3">7</text><text fill="rgb(37,37,37)" stroke="none" font-family="geogebra-sans-serif, sans-serif" font-size="12px" font-style="normal" font-weight="normal" text-decoration="normal" x="1291" y="441" text-anchor="start" dominant-baseline="alphabetic" fill-opacity="1">7</text><path fill="none" stroke="rgb(37,37,37)" paint-order="fill stroke markers" d=" M 1293.5 425.5 L 1293.5 428.5" stroke-opacity="1" stroke-miterlimit="10"/><text fill="rgb(37,37,37)" stroke="none" font-family="geogebra-sans-serif, sans-serif" font-size="12px" font-style="normal" font-weight="normal" text-decoration="normal" x="1381" y="441" text-anchor="start" dominant-baseline="alphabetic" fill-opacity="1">8</text><text fill="none" stroke="rgb(255,255,255)" font-family="geogebra-sans-serif, sans-serif" font-size="12px" font-style="normal" font-weight="normal" text-decoration="normal" x="1381" y="441" text-anchor="start" dominant-baseline="alphabetic" stroke-opacity="1" stroke-linejoin="bevel" stroke-miterlimit="10" stroke-width="3">8</text><text fill="rgb(37,37,37)" stroke="none" font-family="geogebra-sans-serif, sans-serif" font-size="12px" font-style="normal" font-weight="normal" text-decoration="normal" x="1381" y="441" text-anchor="start" dominant-baseline="alphabetic" fill-opacity="1">8</text><path fill="none" stroke="rgb(37,37,37)" paint-order="fill stroke markers" d=" M 1383.5 425.5 L 1383.5 428.5" stroke-opacity="1" stroke-miterlimit="10"/><path fill="none" stroke="rgb(37,37,37)" paint-order="fill stroke markers" d=" M 659.5 786.5 L 662.5 786.5" stroke-opacity="1" stroke-miterlimit="10"/><path fill="none" stroke="rgb(37,37,37)" paint-order="fill stroke markers" d=" M 659.5 696.5 L 662.5 696.5" stroke-opacity="1" stroke-miterlimit="10"/><path fill="none" stroke="rgb(37,37,37)" paint-order="fill stroke markers" d=" M 659.5 605.5 L 662.5 605.5" stroke-opacity="1" stroke-miterlimit="10"/><path fill="none" stroke="rgb(37,37,37)" paint-order="fill stroke markers" d=" M 659.5 515.5 L 662.5 515.5" stroke-opacity="1" stroke-miterlimit="10"/><path fill="none" stroke="rgb(37,37,37)" paint-order="fill stroke markers" d=" M 659.5 335.5 L 662.5 335.5" stroke-opacity="1" stroke-miterlimit="10"/><path fill="none" stroke="rgb(37,37,37)" paint-order="fill stroke markers" d=" M 659.5 245.5 L 662.5 245.5" stroke-opacity="1" stroke-miterlimit="10"/><path fill="none" stroke="rgb(37,37,37)" paint-order="fill stroke markers" d=" M 659.5 155.5 L 662.5 155.5" stroke-opacity="1" stroke-miterlimit="10"/><path fill="none" stroke="rgb(37,37,37)" paint-order="fill stroke markers" d=" M 659.5 65.5 L 662.5 65.5" stroke-opacity="1" stroke-miterlimit="10"/><text fill="rgb(37,37,37)" stroke="none" font-family="geogebra-sans-serif, sans-serif" font-size="12px" font-style="normal" font-weight="normal" text-decoration="normal" x="642" y="791" text-anchor="start" dominant-baseline="alphabetic" fill-opacity="1">–4</text><text fill="none" stroke="rgb(255,255,255)" font-family="geogebra-sans-serif, sans-serif" font-size="12px" font-style="normal" font-weight="normal" text-decoration="normal" x="642" y="791" text-anchor="start" dominant-baseline="alphabetic" stroke-opacity="1" stroke-linejoin="bevel" stroke-miterlimit="10" stroke-width="3">–4</text><text fill="rgb(37,37,37)" stroke="none" font-family="geogebra-sans-serif, sans-serif" font-size="12px" font-style="normal" font-weight="normal" text-decoration="normal" x="642" y="791" text-anchor="start" dominant-baseline="alphabetic" fill-opacity="1">–4</text><text fill="rgb(37,37,37)" stroke="none" font-family="geogebra-sans-serif, sans-serif" font-size="12px" font-style="normal" font-weight="normal" text-decoration="normal" x="642" y="701" text-anchor="start" dominant-baseline="alphabetic" fill-opacity="1">–3</text><text fill="none" stroke="rgb(255,255,255)" font-family="geogebra-sans-serif, sans-serif" font-size="12px" font-style="normal" font-weight="normal" text-decoration="normal" x="642" y="701" text-anchor="start" dominant-baseline="alphabetic" stroke-opacity="1" stroke-linejoin="bevel" stroke-miterlimit="10" stroke-width="3">–3</text><text fill="rgb(37,37,37)" stroke="none" font-family="geogebra-sans-serif, sans-serif" font-size="12px" font-style="normal" font-weight="normal" text-decoration="normal" x="642" y="701" text-anchor="start" dominant-baseline="alphabetic" fill-opacity="1">–3</text><text fill="rgb(37,37,37)" stroke="none" font-family="geogebra-sans-serif, sans-serif" font-size="12px" font-style="normal" font-weight="normal" text-decoration="normal" x="642" y="610" text-anchor="start" dominant-baseline="alphabetic" fill-opacity="1">–2</text><text fill="none" stroke="rgb(255,255,255)" font-family="geogebra-sans-serif, sans-serif" font-size="12px" font-style="normal" font-weight="normal" text-decoration="normal" x="642" y="610" text-anchor="start" dominant-baseline="alphabetic" stroke-opacity="1" stroke-linejoin="bevel" stroke-miterlimit="10" stroke-width="3">–2</text><text fill="rgb(37,37,37)" stroke="none" font-family="geogebra-sans-serif, sans-serif" font-size="12px" font-style="normal" font-weight="normal" text-decoration="normal" x="642" y="610" text-anchor="start" dominant-baseline="alphabetic" fill-opacity="1">–2</text><text fill="rgb(37,37,37)" stroke="none" font-family="geogebra-sans-serif, sans-serif" font-size="12px" font-style="normal" font-weight="normal" text-decoration="normal" x="642" y="520" text-anchor="start" dominant-baseline="alphabetic" fill-opacity="1">–1</text><text fill="none" stroke="rgb(255,255,255)" font-family="geogebra-sans-serif, sans-serif" font-size="12px" font-style="normal" font-weight="normal" text-decoration="normal" x="642" y="520" text-anchor="start" dominant-baseline="alphabetic" stroke-opacity="1" stroke-linejoin="bevel" stroke-miterlimit="10" stroke-width="3">–1</text><text fill="rgb(37,37,37)" stroke="none" font-family="geogebra-sans-serif, sans-serif" font-size="12px" font-style="normal" font-weight="normal" text-decoration="normal" x="642" y="520" text-anchor="start" dominant-baseline="alphabetic" fill-opacity="1">–1</text><text fill="rgb(37,37,37)" stroke="none" font-family="geogebra-sans-serif, sans-serif" font-size="12px" font-style="normal" font-weight="normal" text-decoration="normal" x="648" y="340" text-anchor="start" dominant-baseline="alphabetic" fill-opacity="1">1</text><text fill="none" stroke="rgb(255,255,255)" font-family="geogebra-sans-serif, sans-serif" font-size="12px" font-style="normal" font-weight="normal" text-decoration="normal" x="648" y="340" text-anchor="start" dominant-baseline="alphabetic" stroke-opacity="1" stroke-linejoin="bevel" stroke-miterlimit="10" stroke-width="3">1</text><text fill="rgb(37,37,37)" stroke="none" font-family="geogebra-sans-serif, sans-serif" font-size="12px" font-style="normal" font-weight="normal" text-decoration="normal" x="648" y="340" text-anchor="start" dominant-baseline="alphabetic" fill-opacity="1">1</text><text fill="rgb(37,37,37)" stroke="none" font-family="geogebra-sans-serif, sans-serif" font-size="12px" font-style="normal" font-weight="normal" text-decoration="normal" x="648" y="250" text-anchor="start" dominant-baseline="alphabetic" fill-opacity="1">2</text><text fill="none" stroke="rgb(255,255,255)" font-family="geogebra-sans-serif, sans-serif" font-size="12px" font-style="normal" font-weight="normal" text-decoration="normal" x="648" y="250" text-anchor="start" dominant-baseline="alphabetic" stroke-opacity="1" stroke-linejoin="bevel" stroke-miterlimit="10" stroke-width="3">2</text><text fill="rgb(37,37,37)" stroke="none" font-family="geogebra-sans-serif, sans-serif" font-size="12px" font-style="normal" font-weight="normal" text-decoration="normal" x="648" y="250" text-anchor="start" dominant-baseline="alphabetic" fill-opacity="1">2</text><text fill="rgb(37,37,37)" stroke="none" font-family="geogebra-sans-serif, sans-serif" font-size="12px" font-style="normal" font-weight="normal" text-decoration="normal" x="648" y="160" text-anchor="start" dominant-baseline="alphabetic" fill-opacity="1">3</text><text fill="none" stroke="rgb(255,255,255)" font-family="geogebra-sans-serif, sans-serif" font-size="12px" font-style="normal" font-weight="normal" text-decoration="normal" x="648" y="160" text-anchor="start" dominant-baseline="alphabetic" stroke-opacity="1" stroke-linejoin="bevel" stroke-miterlimit="10" stroke-width="3">3</text><text fill="rgb(37,37,37)" stroke="none" font-family="geogebra-sans-serif, sans-serif" font-size="12px" font-style="normal" font-weight="normal" text-decoration="normal" x="648" y="160" text-anchor="start" dominant-baseline="alphabetic" fill-opacity="1">3</text><text fill="rgb(37,37,37)" stroke="none" font-family="geogebra-sans-serif, sans-serif" font-size="12px" font-style="normal" font-weight="normal" text-decoration="normal" x="648" y="70" text-anchor="start" dominant-baseline="alphabetic" fill-opacity="1">4</text><text fill="none" stroke="rgb(255,255,255)" font-family="geogebra-sans-serif, sans-serif" font-size="12px" font-style="normal" font-weight="normal" text-decoration="normal" x="648" y="70" text-anchor="start" dominant-baseline="alphabetic" stroke-opacity="1" stroke-linejoin="bevel" stroke-miterlimit="10" stroke-width="3">4</text><text fill="rgb(37,37,37)" stroke="none" font-family="geogebra-sans-serif, sans-serif" font-size="12px" font-style="normal" font-weight="normal" text-decoration="normal" x="648" y="70" text-anchor="start" dominant-baseline="alphabetic" fill-opacity="1">4</text><text fill="rgb(37,37,37)" stroke="none" font-family="geogebra-sans-serif, sans-serif" font-size="12px" font-style="normal" font-weight="normal" text-decoration="normal" x="648" y="441" text-anchor="start" dominant-baseline="alphabetic" fill-opacity="1">0</text><text fill="none" stroke="rgb(255,255,255)" font-family="geogebra-sans-serif, sans-serif" font-size="12px" font-style="normal" font-weight="normal" text-decoration="normal" x="648" y="441" text-anchor="start" dominant-baseline="alphabetic" stroke-opacity="1" stroke-linejoin="bevel" stroke-miterlimit="10" stroke-width="3">0</text><text fill="rgb(37,37,37)" stroke="none" font-family="geogebra-sans-serif, sans-serif" font-size="12px" font-style="normal" font-weight="normal" text-decoration="normal" x="648" y="441" text-anchor="start" dominant-baseline="alphabetic" fill-opacity="1">0</text><path fill="none" stroke="rgb(211,47,47)" paint-order="fill stroke markers" d=" M 1.0000000000001137 -237.01909448480808 L 1.0000000000001137 -236.01909448480797 L 1.0000000000001137 -236.01909448480797 L 2 -235.01909448480808 L 2 -235.01909448480808 L 3 -234.01909448480808 L 3 -234.01909448480808 L 4 -233.01909448480808 L 4 -233.01909448480808 L 5 -232.01909448480808 L 5 -232.01909448480808 L 6 -231.01909448480808 L 6 -231.01909448480808 L 7 -230.01909448480808 L 7 -230.01909448480808 L 8 -229.01909448480808 L 8 -229.01909448480808 L 9 -228.01909448480808 L 9 -228.01909448480808 L 10 -227.0190944848082 L 10 -227.0190944848082 L 11 -226.01909448480808 L 11 -226.01909448480808 L 12 -225.01909448480808 L 12 -225.01909448480808 L 13 -224.01909448480808 L 13 -224.01909448480808 L 14 -223.01909448480808 L 14 -223.01909448480808 L 15 -222.01909448480808 L 15 -222.01909448480808 L 16 -221.0190944848082 L 16 -221.0190944848082 L 17 -220.01909448480808 L 17 -220.01909448480808 L 18 -219.01909448480808 L 18 -219.01909448480808 L 19 -218.01909448480808 L 19 -218.01909448480808 L 20 -217.01909448480808 L 20 -217.01909448480808 L 21 -216.01909448480808 L 21 -216.01909448480808 L 22 -215.0190944848082 L 22 -215.0190944848082 L 23 -214.0190944848082 L 23 -214.0190944848082 L 24 -213.01909448480808 L 24 -213.01909448480808 L 25 -212.01909448480808 L 25 -212.01909448480808 L 26 -211.01909448480808 L 26 -211.01909448480808 L 27 -210.0190944848082 L 27 -210.0190944848082 L 28 -209.0190944848082 L 28 -209.0190944848082 L 29 -208.0190944848082 L 29 -208.0190944848082 L 30 -207.0190944848082 L 30 -207.0190944848082 L 31 -206.01909448480808 L 31 -206.01909448480808 L 32 -205.01909448480808 L 32 -205.01909448480808 L 33 -204.0190944848082 L 33 -204.0190944848082 L 34 -203.0190944848082 L 34 -203.0190944848082 L 35 -202.0190944848082 L 35 -202.0190944848082 L 36 -201.0190944848082 L 36 -201.0190944848082 L 37 -200.01909448480808 L 37 -200.01909448480808 L 38 -199.01909448480808 L 38 -199.01909448480808 L 39 -198.0190944848082 L 39 -198.0190944848082 L 40 -197.0190944848082 L 40 -197.0190944848082 L 41 -196.0190944848082 L 41 -196.0190944848082 L 42 -195.0190944848082 L 42 -195.0190944848082 L 43 -194.0190944848082 L 43 -194.0190944848082 L 44 -193.0190944848082 L 44 -193.0190944848082 L 45 -192.0190944848082 L 45 -192.0190944848082 L 46 -191.0190944848082 L 46 -191.0190944848082 L 47 -190.0190944848082 L 47 -190.0190944848082 L 48 -189.0190944848082 L 48 -189.0190944848082 L 49 -188.0190944848082 L 49 -188.0190944848082 L 50 -187.0190944848082 L 50 -187.0190944848082 L 51 -186.0190944848082 L 51 -186.0190944848082 L 52 -185.0190944848082 L 52 -185.0190944848082 L 53 -184.0190944848082 L 53 -184.0190944848082 L 54 -183.0190944848082 L 54 -183.0190944848082 L 55 -182.0190944848082 L 55 -182.0190944848082 L 56 -181.0190944848082 L 56 -181.0190944848082 L 57 -180.0190944848082 L 57 -180.0190944848082 L 58 -179.0190944848082 L 58 -179.0190944848082 L 59 -178.0190944848082 L 59 -178.0190944848082 L 60 -177.0190944848082 L 60 -177.0190944848082 L 61 -176.0190944848082 L 61 -176.0190944848082 L 62 -175.0190944848082 L 62 -175.0190944848082 L 63 -174.0190944848082 L 63 -174.0190944848082 L 64 -173.0190944848082 L 64 -173.0190944848082 L 65 -172.0190944848082 L 65 -172.0190944848082 L 66 -171.0190944848082 L 66 -171.0190944848082 L 67 -170.0190944848082 L 67 -170.0190944848082 L 68 -169.0190944848082 L 68 -169.0190944848082 L 69 -168.0190944848083 L 69 -168.0190944848083 L 70 -167.0190944848083 L 70 -167.0190944848083 L 71 -166.0190944848082 L 71 -166.0190944848082 L 72 -165.0190944848082 L 72 -165.0190944848082 L 73 -164.0190944848082 L 73 -164.0190944848082 L 74 -163.0190944848082 L 74 -163.0190944848082 L 75 -162.0190944848083 L 75 -162.0190944848083 L 76 -161.0190944848083 L 76 -161.0190944848083 L 77 -160.0190944848082 L 77 -160.0190944848082 L 78 -159.0190944848082 L 78 -159.0190944848082 L 79 -158.0190944848082 L 79 -158.0190944848082 L 80 -157.0190944848082 L 80 -157.0190944848082 L 81 -156.0190944848083 L 81 -156.0190944848083 L 82 -155.0190944848083 L 82 -155.0190944848083 L 83 -154.0190944848083 L 83 -154.0190944848083 L 84 -153.0190944848082 L 84 -153.0190944848082 L 85 -152.0190944848082 L 85 -152.0190944848082 L 86 -151.0190944848083 L 86 -151.0190944848083 L 87 -150.0190944848083 L 87 -150.0190944848083 L 88 -149.0190944848083 L 88 -149.0190944848083 L 89 -148.0190944848083 L 89 -148.0190944848083 L 90 -147.0190944848082 L 90 -147.0190944848082 L 91 -146.0190944848082 L 91 -146.0190944848082 L 92 -145.0190944848083 L 92 -145.0190944848083 L 93 -144.0190944848083 L 93 -144.0190944848083 L 94 -143.0190944848083 L 94 -143.0190944848083 L 95 -142.0190944848083 L 95 -142.0190944848083 L 96 -141.0190944848083 L 96 -141.0190944848083 L 97 -140.0190944848082 L 97 -140.0190944848082 L 98 -139.0190944848083 L 98 -139.0190944848083 L 99 -138.0190944848083 L 99 -138.0190944848083 L 100 -137.0190944848083 L 100 -137.0190944848083 L 101 -136.0190944848083 L 101 -136.0190944848083 L 102 -135.0190944848083 L 102 -135.0190944848083 L 103 -134.0190944848083 L 103 -134.0190944848083 L 104 -133.0190944848083 L 104 -133.0190944848083 L 105 -132.0190944848083 L 105 -132.0190944848083 L 106 -131.0190944848083 L 106 -131.0190944848083 L 107 -130.0190944848083 L 107 -130.0190944848083 L 108 -129.0190944848083 L 108 -129.0190944848083 L 109 -128.0190944848083 L 109 -128.0190944848083 L 110 -127.0190944848083 L 110 -127.0190944848083 L 111 -126.0190944848083 L 111 -126.0190944848083 L 112 -125.0190944848083 L 112 -125.0190944848083 L 113 -124.0190944848083 L 113 -124.0190944848083 L 114 -123.0190944848083 L 114 -123.0190944848083 L 115 -122.0190944848083 L 115 -122.0190944848083 L 116 -121.0190944848083 L 116 -121.0190944848083 L 117 -120.0190944848083 L 117 -120.0190944848083 L 118 -119.0190944848083 L 118 -119.0190944848083 L 119 -118.0190944848083 L 119 -118.0190944848083 L 120 -117.0190944848083 L 120 -117.0190944848083 L 121 -116.0190944848083 L 121 -116.0190944848083 L 122 -115.0190944848083 L 122 -115.0190944848083 L 123 -114.01909448480842 L 123 -114.01909448480842 L 124 -113.0190944848083 L 124 -113.0190944848083 L 125 -112.0190944848083 L 125 -112.0190944848083 L 126 -111.0190944848083 L 126 -111.0190944848083 L 127 -110.0190944848083 L 127 -110.0190944848083 L 128 -109.01909448480842 L 128 -109.01909448480842 L 129 -108.01909448480842 L 129 -108.01909448480842 L 130 -107.0190944848083 L 130 -107.0190944848083 L 131 -106.0190944848083 L 131 -106.0190944848083 L 132 -105.0190944848083 L 132 -105.0190944848083 L 133 -104.0190944848083 L 133 -104.0190944848083 L 134 -103.01909448480842 L 134 -103.01909448480842 L 135 -102.01909448480842 L 135 -102.01909448480842 L 136 -101.01909448480842 L 136 -101.01909448480842 L 137 -100.0190944848083 L 137 -100.0190944848083 L 138 -99.0190944848083 L 138 -99.0190944848083 L 139 -98.0190944848083 L 139 -98.0190944848083 L 140 -97.01909448480842 L 140 -97.01909448480842 L 141 -96.01909448480842 L 141 -96.01909448480842 L 142 -95.01909448480842 L 142 -95.01909448480842 L 143 -94.01909448480842 L 143 -94.01909448480842 L 144 -93.0190944848083 L 144 -93.0190944848083 L 145 -92.01909448480842 L 145 -92.01909448480842 L 146 -91.01909448480842 L 146 -91.01909448480842 L 147 -90.01909448480842 L 147 -90.01909448480842 L 148 -89.01909448480842 L 148 -89.01909448480842 L 149 -88.01909448480842 L 149 -88.01909448480842 L 150 -87.0190944848083 L 150 -87.0190944848083 L 151 -86.01909448480836 L 151 -86.01909448480836 L 152 -85.01909448480836 L 152 -85.01909448480836 L 153 -84.01909448480842 L 153 -84.01909448480842 L 154 -83.01909448480842 L 154 -83.01909448480842 L 155 -82.01909448480842 L 155 -82.01909448480842 L 155.99999999999994 -81.01909448480842 L 155.99999999999994 -81.01909448480842 L 157.00000000000006 -80.01909448480836 L 157.00000000000006 -80.01909448480836 L 158 -79.01909448480836 L 158 -79.01909448480836 L 159 -78.01909448480842 L 159 -78.01909448480842 L 160 -77.01909448480842 L 160 -77.01909448480842 L 161 -76.01909448480842 L 161 -76.01909448480842 L 161.99999999999994 -75.01909448480842 L 161.99999999999994 -75.01909448480842 L 162.99999999999994 -74.01909448480848 L 162.99999999999994 -74.01909448480848 L 164 -73.01909448480842 L 164 -73.01909448480842 L 165 -72.01909448480842 L 165 -72.01909448480842 L 166 -71.01909448480842 L 166 -71.01909448480842 L 167 -70.01909448480842 L 167 -70.01909448480842 L 168 -69.01909448480848 L 168 -69.01909448480848 L 168.99999999999994 -68.01909448480848 L 168.99999999999994 -68.01909448480848 L 170.00000000000006 -67.01909448480842 L 170.00000000000006 -67.01909448480842 L 171 -66.01909448480842 L 171 -66.01909448480842 L 172 -65.01909448480842 L 172 -65.01909448480842 L 173 -64.01909448480842 L 173 -64.01909448480842 L 174 -63.01909448480848 L 174 -63.01909448480848 L 175 -62.01909448480848 L 175 -62.01909448480848 L 175.99999999999994 -61.01909448480848 L 175.99999999999994 -61.01909448480848 L 177.00000000000006 -60.01909448480842 L 177.00000000000006 -60.01909448480842 L 178 -59.01909448480842 L 178 -59.01909448480842 L 179 -58.01909448480842 L 179 -58.01909448480842 L 180 -57.01909448480848 L 180 -57.01909448480848 L 181 -56.01909448480848 L 181 -56.01909448480848 L 181.99999999999994 -55.01909448480848 L 181.99999999999994 -55.01909448480848 L 182.99999999999994 -54.01909448480848 L 182.99999999999994 -54.01909448480848 L 184 -53.01909448480842 L 184 -53.01909448480842 L 185 -52.01909448480848 L 185 -52.01909448480848 L 186 -51.01909448480848 L 186 -51.01909448480848 L 187 -50.01909448480848 L 187 -50.01909448480848 L 188 -49.01909448480848 L 188 -49.01909448480848 L 188.99999999999994 -48.019094484808534 L 188.99999999999994 -48.019094484808534 L 190.00000000000006 -47.01909448480842 L 190.00000000000006 -47.01909448480842 L 191 -46.01909448480848 L 191 -46.01909448480848 L 192 -45.01909448480848 L 192 -45.01909448480848 L 193 -44.01909448480848 L 193 -44.01909448480848 L 194 -43.01909448480848 L 194 -43.01909448480848 L 195 -42.019094484808534 L 195 -42.019094484808534 L 195.99999999999994 -41.019094484808534 L 195.99999999999994 -41.019094484808534 L 197 -40.01909448480848 L 197 -40.01909448480848 L 198 -39.01909448480848 L 198 -39.01909448480848 L 199 -38.01909448480848 L 199 -38.01909448480848 L 200 -37.01909448480848 L 200 -37.01909448480848 L 201 -36.019094484808534 L 201 -36.019094484808534 L 201.99999999999994 -35.019094484808534 L 201.99999999999994 -35.019094484808534 L 202.99999999999994 -34.019094484808534 L 202.99999999999994 -34.019094484808534 L 204 -33.01909448480848 L 204 -33.01909448480848 L 205 -32.01909448480848 L 205 -32.01909448480848 L 206 -31.019094484808534 L 206 -31.019094484808534 L 207 -30.019094484808534 L 207 -30.019094484808534 L 208 -29.019094484808534 L 208 -29.019094484808534 L 208.99999999999994 -28.019094484808534 L 208.99999999999994 -28.019094484808534 L 210.00000000000006 -27.019094484808477 L 210.00000000000006 -27.019094484808477 L 211 -26.019094484808477 L 211 -26.019094484808477 L 212 -25.019094484808534 L 212 -25.019094484808534 L 213 -24.019094484808534 L 213 -24.019094484808534 L 214 -23.019094484808534 L 214 -23.019094484808534 L 214.99999999999994 -22.019094484808534 L 214.99999999999994 -22.019094484808534 L 215.99999999999994 -21.01909448480859 L 215.99999999999994 -21.01909448480859 L 217 -20.019094484808477 L 217 -20.019094484808477 L 218 -19.019094484808534 L 218 -19.019094484808534 L 219 -18.019094484808534 L 219 -18.019094484808534 L 220 -17.019094484808534 L 220 -17.019094484808534 L 221 -16.019094484808534 L 221 -16.019094484808534 L 221.99999999999994 -15.01909448480859 L 221.99999999999994 -15.01909448480859 L 223.00000000000006 -14.019094484808534 L 223.00000000000006 -14.019094484808534 L 224 -13.019094484808534 L 224 -13.019094484808534 L 225 -12.019094484808534 L 225 -12.019094484808534 L 226 -11.019094484808534 L 226 -11.019094484808534 L 227 -10.01909448480859 L 227 -10.01909448480859 L 228 -9.01909448480859 L 228 -9.01909448480859 L 228.99999999999994 -8.01909448480859 L 228.99999999999994 -8.01909448480859 L 230.00000000000006 -7.019094484808534 L 230.00000000000006 -7.019094484808534 L 231 -6.019094484808534 L 231 -6.019094484808534 L 232 -5.019094484808534 L 232 -5.019094484808534 L 233 -4.0190944848085906 L 233 -4.0190944848085906 L 234 -3.0190944848085906 L 234 -3.0190944848085906 L 234.99999999999994 -2.0190944848085906 L 234.99999999999994 -2.0190944848085906 L 235.99999999999994 -1.0190944848085906 L 235.99999999999994 -1.0190944848085906 L 237 -0.019094484808533707 L 237 -0.019094484808533707 L 238 0.9809055151914663 L 238 0.9809055151914663 L 239 1.9809055151914094 L 239 1.9809055151914094 L 240 2.9809055151914094 L 240 2.9809055151914094 L 241 3.9809055151914094 L 241 3.9809055151914094 L 241.99999999999994 4.9809055151914094 L 241.99999999999994 4.9809055151914094 L 243.00000000000006 5.980905515191466 L 243.00000000000006 5.980905515191466 L 244 6.9809055151914094 L 244 6.9809055151914094 L 245 7.9809055151914094 L 245 7.9809055151914094 L 246 8.98090551519141 L 246 8.98090551519141 L 247 9.98090551519141 L 247 9.98090551519141 L 248 10.980905515191353 L 248 10.980905515191353 L 248.99999999999994 11.980905515191353 L 248.99999999999994 11.980905515191353 L 250 12.98090551519141 L 250 12.98090551519141 L 251 13.98090551519141 L 251 13.98090551519141 L 252 14.98090551519141 L 252 14.98090551519141 L 253 15.98090551519141 L 253 15.98090551519141 L 254 16.980905515191353 L 254 16.980905515191353 L 254.99999999999994 17.980905515191353 L 254.99999999999994 17.980905515191353 L 255.99999999999994 18.980905515191353 L 255.99999999999994 18.980905515191353 L 257 19.98090551519141 L 257 19.98090551519141 L 258 20.98090551519141 L 258 20.98090551519141 L 259 21.98090551519141 L 259 21.98090551519141 L 260 22.980905515191353 L 260 22.980905515191353 L 261 23.980905515191353 L 261 23.980905515191353 L 261.99999999999994 24.980905515191353 L 261.99999999999994 24.980905515191353 L 263.00000000000006 25.98090551519141 L 263.00000000000006 25.98090551519141 L 264 26.98090551519141 L 264 26.98090551519141 L 265 27.980905515191353 L 265 27.980905515191353 L 266 28.980905515191353 L 266 28.980905515191353 L 267 29.980905515191353 L 267 29.980905515191353 L 267.99999999999994 30.980905515191353 L 267.99999999999994 30.980905515191353 L 268.99999999999994 31.980905515191296 L 268.99999999999994 31.980905515191296 L 270 32.98090551519141 L 270 32.98090551519141 L 271 33.98090551519135 L 271 33.98090551519135 L 272 34.98090551519135 L 272 34.98090551519135 L 273 35.98090551519135 L 273 35.98090551519135 L 274 36.98090551519135 L 274 36.98090551519135 L 274.99999999999994 37.980905515191296 L 274.99999999999994 37.980905515191296 L 275.99999999999994 38.980905515191296 L 275.99999999999994 38.980905515191296 L 277 39.98090551519135 L 277 39.98090551519135 L 278 40.98090551519135 L 278 40.98090551519135 L 279 41.98090551519135 L 279 41.98090551519135 L 280 42.98090551519135 L 280 42.98090551519135 L 281 43.980905515191296 L 281 43.980905515191296 L 281.99999999999994 44.980905515191296 L 281.99999999999994 44.980905515191296 L 283.00000000000006 45.98090551519135 L 283.00000000000006 45.98090551519135 L 284 46.98090551519135 L 284 46.98090551519135 L 285 47.98090551519135 L 285 47.98090551519135 L 286 48.980905515191296 L 286 48.980905515191296 L 287 49.980905515191296 L 287 49.980905515191296 L 287.99999999999994 50.980905515191296 L 287.99999999999994 50.980905515191296 L 288.99999999999994 51.980905515191296 L 288.99999999999994 51.980905515191296 L 290 52.98090551519135 L 290 52.98090551519135 L 291 53.98090551519135 L 291 53.98090551519135 L 292 54.980905515191296 L 292 54.980905515191296 L 293 55.980905515191296 L 293 55.980905515191296 L 294 56.980905515191296 L 294 56.980905515191296 L 294.99999999999994 57.980905515191296 L 294.99999999999994 57.980905515191296 L 295.99999999999994 58.98090551519124 L 295.99999999999994 58.98090551519124 L 297 59.98090551519135 L 297 59.98090551519135 L 298 60.980905515191296 L 298 60.980905515191296 L 299 61.980905515191296 L 299 61.980905515191296 L 300 62.980905515191296 L 300 62.980905515191296 L 301 63.980905515191296 L 301 63.980905515191296 L 301.99999999999994 64.98090551519124 L 301.99999999999994 64.98090551519124 L 303 65.9809055151913 L 303 65.9809055151913 L 304 66.9809055151913 L 304 66.9809055151913 L 305 67.9809055151913 L 305 67.9809055151913 L 306 68.9809055151913 L 306 68.9809055151913 L 307 69.98090551519124 L 307 69.98090551519124 L 307.99999999999994 70.98090551519124 L 307.99999999999994 70.98090551519124 L 308.99999999999994 71.98090551519124 L 308.99999999999994 71.98090551519124 L 310 72.9809055151913 L 310 72.9809055151913 L 311 73.9809055151913 L 311 73.9809055151913 L 312 74.9809055151913 L 312 74.9809055151913 L 313 75.98090551519124 L 313 75.98090551519124 L 314 76.98090551519124 L 314 76.98090551519124 L 314.99999999999994 77.98090551519124 L 314.99999999999994 77.98090551519124 L 315.99999999999994 78.98090551519124 L 315.99999999999994 78.98090551519124 L 317 79.9809055151913 L 317 79.9809055151913 L 318 80.9809055151913 L 318 80.9809055151913 L 319 81.98090551519124 L 319 81.98090551519124 L 320 82.98090551519124 L 320 82.98090551519124 L 320.99999999999994 83.98090551519124 L 320.99999999999994 83.98090551519124 L 321.99999999999994 84.98090551519124 L 321.99999999999994 84.98090551519124 L 323 85.9809055151913 L 323 85.9809055151913 L 324 86.98090551519124 L 324 86.98090551519124 L 325 87.98090551519124 L 325 87.98090551519124 L 326 88.98090551519124 L 326 88.98090551519124 L 327 89.98090551519124 L 327 89.98090551519124 L 327.99999999999994 90.98090551519118 L 327.99999999999994 90.98090551519118 L 328.99999999999994 91.98090551519118 L 328.99999999999994 91.98090551519118 L 330 92.98090551519124 L 330 92.98090551519124 L 331 93.98090551519124 L 331 93.98090551519124 L 332 94.98090551519124 L 332 94.98090551519124 L 333 95.98090551519124 L 333 95.98090551519124 L 334 96.98090551519118 L 334 96.98090551519118 L 334.99999999999994 97.98090551519118 L 334.99999999999994 97.98090551519118 L 335.99999999999994 98.98090551519118 L 335.99999999999994 98.98090551519118 L 337 99.98090551519124 L 337 99.98090551519124 L 338 100.98090551519124 L 338 100.98090551519124 L 339 101.98090551519124 L 339 101.98090551519124 L 340 102.98090551519118 L 340 102.98090551519118 L 340.99999999999994 103.98090551519118 L 340.99999999999994 103.98090551519118 L 341.99999999999994 104.98090551519118 L 341.99999999999994 104.98090551519118 L 343 105.98090551519124 L 343 105.98090551519124 L 344 106.98090551519124 L 344 106.98090551519124 L 345 107.98090551519118 L 345 107.98090551519118 L 346 108.98090551519118 L 346 108.98090551519118 L 347 109.98090551519118 L 347 109.98090551519118 L 347.99999999999994 110.98090551519118 L 347.99999999999994 110.98090551519118 L 348.99999999999994 111.98090551519113 L 348.99999999999994 111.98090551519113 L 350 112.98090551519124 L 350 112.98090551519124 L 351 113.98090551519118 L 351 113.98090551519118 L 352 114.98090551519118 L 352 114.98090551519118 L 353 115.98090551519118 L 353 115.98090551519118 L 354 116.98090551519118 L 354 116.98090551519118 L 354.99999999999994 117.98090551519113 L 354.99999999999994 117.98090551519113 L 356 118.98090551519124 L 356 118.98090551519124 L 357 119.98090551519118 L 357 119.98090551519118 L 358 120.98090551519118 L 358 120.98090551519118 L 359 121.98090551519118 L 359 121.98090551519118 L 360 122.98090551519118 L 360 122.98090551519118 L 360.99999999999994 123.98090551519113 L 360.99999999999994 123.98090551519113 L 361.99999999999994 124.98090551519113 L 361.99999999999994 124.98090551519113 L 363 125.98090551519118 L 363 125.98090551519118 L 364 126.98090551519118 L 364 126.98090551519118 L 365 127.98090551519118 L 365 127.98090551519118 L 366 128.98090551519113 L 366 128.98090551519113 L 367 129.98090551519113 L 367 129.98090551519113 L 368 130.98090551519118 L 368 130.98090551519118 L 369 131.98090551519113 L 369 131.98090551519113 L 370 132.98090551519113 L 370 132.98090551519113 L 371 133.98090551519118 L 371 133.98090551519118 L 372 134.98090551519113 L 372 134.98090551519113 L 373 135.98090551519113 L 373 135.98090551519113 L 373.99999999999994 136.98090551519113 L 373.99999999999994 136.98090551519113 L 375 137.98090551519113 L 375 137.98090551519113 L 376 138.98090551519113 L 376 138.98090551519113 L 377 139.98090551519113 L 377 139.98090551519113 L 378 140.98090551519113 L 378 140.98090551519113 L 379 141.98090551519113 L 379 141.98090551519113 L 380 142.98090551519113 L 380 142.98090551519113 L 381 143.98090551519113 L 381 143.98090551519113 L 382 144.98090551519113 L 382 144.98090551519113 L 383 145.98090551519113 L 383 145.98090551519113 L 383.99999999999994 146.98090551519113 L 383.99999999999994 146.98090551519113 L 385 147.98090551519113 L 385 147.98090551519113 L 386 148.98090551519113 L 386 148.98090551519113 L 387 149.98090551519107 L 387 149.98090551519107 L 388 150.98090551519113 L 388 150.98090551519113 L 389 151.98090551519113 L 389 151.98090551519113 L 390 152.98090551519107 L 390 152.98090551519107 L 391 153.98090551519113 L 391 153.98090551519113 L 392 154.98090551519113 L 392 154.98090551519113 L 393 155.98090551519107 L 393 155.98090551519107 L 393.99999999999994 156.98090551519107 L 393.99999999999994 156.98090551519107 L 395 157.98090551519113 L 395 157.98090551519113 L 396 158.98090551519107 L 396 158.98090551519107 L 397 159.98090551519107 L 397 159.98090551519107 L 398 160.98090551519113 L 398 160.98090551519113 L 399 161.98090551519107 L 399 161.98090551519107 L 400 162.98090551519107 L 400 162.98090551519107 L 401 163.98090551519113 L 401 163.98090551519113 L 402 164.98090551519107 L 402 164.98090551519107 L 403 165.98090551519107 L 403 165.98090551519107 L 403.99999999999994 166.98090551519107 L 403.99999999999994 166.98090551519107 L 405 167.98090551519107 L 405 167.98090551519107 L 406 168.98090551519107 L 406 168.98090551519107 L 407 169.98090551519104 L 407 169.98090551519104 L 408 170.98090551519107 L 408 170.98090551519107 L 409 171.98090551519107 L 409 171.98090551519107 L 410 172.98090551519104 L 410 172.98090551519104 L 411 173.98090551519107 L 411 173.98090551519107 L 412 174.98090551519107 L 412 174.98090551519107 L 413 175.98090551519104 L 413 175.98090551519104 L 414 176.98090551519104 L 414 176.98090551519104 L 415 177.98090551519107 L 415 177.98090551519107 L 416 178.98090551519104 L 416 178.98090551519104 L 417 179.98090551519104 L 417 179.98090551519104 L 418 180.98090551519107 L 418 180.98090551519107 L 419 181.98090551519104 L 419 181.98090551519104 L 420 182.98090551519104 L 420 182.98090551519104 L 421 183.98090551519107 L 421 183.98090551519107 L 422 184.98090551519104 L 422 184.98090551519104 L 423 185.98090551519104 L 423 185.98090551519104 L 424 186.980905515191 L 424 186.980905515191 L 425 187.98090551519104 L 425 187.98090551519104 L 426 188.980905515191 L 426 188.980905515191 L 427 189.980905515191 L 427 189.980905515191 L 428 190.98090551519104 L 428 190.98090551519104 L 429 191.980905515191 L 429 191.980905515191 L 430 192.980905515191 L 430 192.980905515191 L 431 193.98090551519104 L 431 193.98090551519104 L 432 194.980905515191 L 432 194.980905515191 L 433 195.980905515191 L 433 195.980905515191 L 434 196.98090551519098 L 434 196.98090551519098 L 435 197.980905515191 L 435 197.980905515191 L 436 198.980905515191 L 436 198.980905515191 L 437 199.98090551519098 L 437 199.98090551519098 L 438 200.980905515191 L 438 200.980905515191 L 439 201.980905515191 L 439 201.980905515191 L 440 202.98090551519098 L 440 202.98090551519098 L 441 203.980905515191 L 441 203.980905515191 L 442 204.980905515191 L 442 204.980905515191 L 443 205.98090551519098 L 443 205.98090551519098 L 444 206.98090551519098 L 444 206.98090551519098 L 445 207.98090551519098 L 445 207.98090551519098 L 446 208.98090551519098 L 446 208.98090551519098 L 447 209.98090551519095 L 447 209.98090551519095 L 448 210.98090551519098 L 448 210.98090551519098 L 449 211.98090551519098 L 449 211.98090551519098 L 450 212.98090551519095 L 450 212.98090551519095 L 451 213.98090551519098 L 451 213.98090551519098 L 452 214.98090551519098 L 452 214.98090551519098 L 453 215.98090551519095 L 453 215.98090551519095 L 454 216.98090551519095 L 454 216.98090551519095 L 455 217.98090551519098 L 455 217.98090551519098 L 456 218.98090551519095 L 456 218.98090551519095 L 457 219.98090551519095 L 457 219.98090551519095 L 458 220.98090551519098 L 458 220.98090551519098 L 459 221.98090551519095 L 459 221.98090551519095 L 460 222.98090551519095 L 460 222.98090551519095 L 461 223.98090551519098 L 461 223.98090551519098 L 462 224.98090551519095 L 462 224.98090551519095 L 463 225.98090551519095 L 463 225.98090551519095 L 464 226.98090551519093 L 464 226.98090551519093 L 465 227.98090551519095 L 465 227.98090551519095 L 466 228.98090551519093 L 466 228.98090551519093 L 467 229.98090551519093 L 467 229.98090551519093 L 468 230.98090551519095 L 468 230.98090551519095 L 469 231.98090551519093 L 469 231.98090551519093 L 470 232.98090551519093 L 470 232.98090551519093 L 471 233.98090551519095 L 471 233.98090551519095 L 472 234.98090551519093 L 472 234.98090551519093 L 473 235.98090551519093 L 473 235.98090551519093 L 474 236.98090551519095 L 474 236.98090551519095 L 475 237.98090551519093 L 475 237.98090551519093 L 476 238.98090551519093 L 476 238.98090551519093 L 477 239.9809055151909 L 477 239.9809055151909 L 478 240.98090551519093 L 478 240.98090551519093 L 479 241.98090551519093 L 479 241.98090551519093 L 480 242.9809055151909 L 480 242.9809055151909 L 481 243.98090551519093 L 481 243.98090551519093 L 482 244.98090551519093 L 482 244.98090551519093 L 483 245.9809055151909 L 483 245.9809055151909 L 484 246.98090551519093 L 484 246.98090551519093 L 485 247.9809055151909 L 485 247.9809055151909 L 486 248.9809055151909 L 486 248.9809055151909 L 487 249.98090551519087 L 487 249.98090551519087 L 488 250.9809055151909 L 488 250.9809055151909 L 489 251.9809055151909 L 489 251.9809055151909 L 490 252.98090551519087 L 490 252.98090551519087 L 491 253.9809055151909 L 491 253.9809055151909 L 492 254.9809055151909 L 492 254.9809055151909 L 493 255.98090551519087 L 493 255.98090551519087 L 494 256.9809055151909 L 494 256.9809055151909 L 495 257.9809055151909 L 495 257.9809055151909 L 496 258.9809055151909 L 496 258.9809055151909 L 497 259.9809055151909 L 497 259.9809055151909 L 498 260.9809055151909 L 498 260.9809055151909 L 499 261.9809055151909 L 499 261.9809055151909 L 500 262.9809055151909 L 500 262.9809055151909 L 501 263.9809055151909 L 501 263.9809055151909 L 502 264.9809055151909 L 502 264.9809055151909 L 503 265.9809055151909 L 503 265.9809055151909 L 504 266.9809055151909 L 504 266.9809055151909 L 505 267.9809055151909 L 505 267.9809055151909 L 506 268.98090551519084 L 506 268.98090551519084 L 507 269.98090551519084 L 507 269.98090551519084 L 508 270.9809055151909 L 508 270.9809055151909 L 509 271.98090551519084 L 509 271.98090551519084 L 510 272.98090551519084 L 510 272.98090551519084 L 511 273.9809055151909 L 511 273.9809055151909 L 512 274.98090551519084 L 512 274.98090551519084 L 513 275.98090551519084 L 513 275.98090551519084 L 514 276.9809055151909 L 514 276.9809055151909 L 515 277.98090551519084 L 515 277.98090551519084 L 516 278.98090551519084 L 516 278.98090551519084 L 517 279.9809055151908 L 517 279.9809055151908 L 518 280.98090551519084 L 518 280.98090551519084 L 519 281.98090551519084 L 519 281.98090551519084 L 520 282.9809055151908 L 520 282.9809055151908 L 521 283.98090551519084 L 521 283.98090551519084 L 522 284.98090551519084 L 522 284.98090551519084 L 523 285.9809055151908 L 523 285.9809055151908 L 524 286.98090551519084 L 524 286.98090551519084 L 525 287.9809055151908 L 525 287.9809055151908 L 526 288.9809055151908 L 526 288.9809055151908 L 527 289.9809055151908 L 527 289.9809055151908 L 528 290.9809055151908 L 528 290.9809055151908 L 529 291.9809055151908 L 529 291.9809055151908 L 530 292.9809055151908 L 530 292.9809055151908 L 531 293.9809055151908 L 531 293.9809055151908 L 532 294.9809055151908 L 532 294.9809055151908 L 533 295.9809055151908 L 533 295.9809055151908 L 534 296.9809055151908 L 534 296.9809055151908 L 535 297.9809055151908 L 535 297.9809055151908 L 536 298.9809055151908 L 536 298.9809055151908 L 537 299.9809055151908 L 537 299.9809055151908 L 538 300.9809055151908 L 538 300.9809055151908 L 539 301.9809055151908 L 539 301.9809055151908 L 540 302.9809055151908 L 540 302.9809055151908 L 541 303.9809055151908 L 541 303.9809055151908 L 542 304.9809055151908 L 542 304.9809055151908 L 543 305.9809055151908 L 543 305.9809055151908 L 544 306.9809055151908 L 544 306.9809055151908 L 545 307.9809055151908 L 545 307.9809055151908 L 546 308.9809055151908 L 546 308.9809055151908 L 547 309.9809055151908 L 547 309.9809055151908 L 548 310.9809055151908 L 548 310.9809055151908 L 549 311.9809055151908 L 549 311.9809055151908 L 550 312.9809055151908 L 550 312.9809055151908 L 551 313.9809055151908 L 551 313.9809055151908 L 552 314.9809055151908 L 552 314.9809055151908 L 553 315.9809055151908 L 553 315.9809055151908 L 554 316.9809055151908 L 554 316.9809055151908 L 555 317.9809055151908 L 555 317.9809055151908 L 556 318.9809055151907 L 556 318.9809055151907 L 557 319.9809055151908 L 557 319.9809055151908 L 558 320.9809055151908 L 558 320.9809055151908 L 559 321.9809055151907 L 559 321.9809055151907 L 560 322.9809055151908 L 560 322.9809055151908 L 561 323.9809055151907 L 561 323.9809055151907 L 562 324.9809055151907 L 562 324.9809055151907 L 563 325.9809055151908 L 563 325.9809055151908 L 564 326.9809055151907 L 564 326.9809055151907 L 565 327.9809055151907 L 565 327.9809055151907 L 566 328.9809055151907 L 566 328.9809055151907 L 567 329.9809055151907 L 567 329.9809055151907 L 568 330.9809055151907 L 568 330.9809055151907 L 569 331.9809055151907 L 569 331.9809055151907 L 570 332.9809055151907 L 570 332.9809055151907 L 571 333.9809055151907 L 571 333.9809055151907 L 572 334.9809055151907 L 572 334.9809055151907 L 573 335.9809055151907 L 573 335.9809055151907 L 574 336.9809055151907 L 574 336.9809055151907 L 575 337.9809055151907 L 575 337.9809055151907 L 576 338.98090551519067 L 576 338.98090551519067 L 577 339.9809055151907 L 577 339.9809055151907 L 578 340.9809055151907 L 578 340.9809055151907 L 579 341.98090551519067 L 579 341.98090551519067 L 580 342.9809055151907 L 580 342.9809055151907 L 581 343.98090551519067 L 581 343.98090551519067 L 582 344.98090551519067 L 582 344.98090551519067 L 583 345.9809055151907 L 583 345.9809055151907 L 584 346.98090551519067 L 584 346.98090551519067 L 585 347.98090551519067 L 585 347.98090551519067 L 586 348.98090551519067 L 586 348.98090551519067 L 587 349.98090551519067 L 587 349.98090551519067 L 588 350.98090551519067 L 588 350.98090551519067 L 589 351.98090551519067 L 589 351.98090551519067 L 590 352.98090551519067 L 590 352.98090551519067 L 591 353.98090551519067 L 591 353.98090551519067 L 592 354.98090551519067 L 592 354.98090551519067 L 593 355.98090551519067 L 593 355.98090551519067 L 594 356.98090551519067 L 594 356.98090551519067 L 595 357.98090551519067 L 595 357.98090551519067 L 596 358.98090551519067 L 596 358.98090551519067 L 597 359.98090551519067 L 597 359.98090551519067 L 598 360.98090551519067 L 598 360.98090551519067 L 599 361.98090551519067 L 599 361.98090551519067 L 600 362.98090551519067 L 600 362.98090551519067 L 601 363.98090551519067 L 601 363.98090551519067 L 602 364.98090551519067 L 602 364.98090551519067 L 603 365.98090551519067 L 603 365.98090551519067 L 604 366.98090551519067 L 604 366.98090551519067 L 605 367.98090551519067 L 605 367.98090551519067 L 606 368.98090551519067 L 606 368.98090551519067 L 607 369.98090551519067 L 607 369.98090551519067 L 608 370.98090551519067 L 608 370.98090551519067 L 609 371.98090551519067 L 609 371.98090551519067 L 610 372.98090551519067 L 610 372.98090551519067 L 611 373.9809055151906 L 611 373.9809055151906 L 612 374.9809055151906 L 612 374.9809055151906 L 613 375.98090551519067 L 613 375.98090551519067 L 614 376.9809055151906 L 614 376.9809055151906 L 615 377.9809055151906 L 615 377.9809055151906 L 616 378.9809055151906 L 616 378.9809055151906 L 617 379.9809055151906 L 617 379.9809055151906 L 618 380.9809055151906 L 618 380.9809055151906 L 619 381.9809055151906 L 619 381.9809055151906 L 620 382.9809055151906 L 620 382.9809055151906 L 621 383.9809055151906 L 621 383.9809055151906 L 622 384.9809055151906 L 622 384.9809055151906 L 623 385.9809055151906 L 623 385.9809055151906 L 624 386.9809055151906 L 624 386.9809055151906 L 625 387.9809055151906 L 625 387.9809055151906 L 626 388.9809055151906 L 626 388.9809055151906 L 627 389.9809055151906 L 627 389.9809055151906 L 628 390.9809055151906 L 628 390.9809055151906 L 629 391.9809055151906 L 629 391.9809055151906 L 630 392.9809055151906 L 630 392.9809055151906 L 631 393.9809055151906 L 631 393.9809055151906 L 632 394.9809055151906 L 632 394.9809055151906 L 633 395.9809055151906 L 633 395.9809055151906 L 634 396.98090551519056 L 634 396.98090551519056 L 635 397.9809055151906 L 635 397.9809055151906 L 636 398.9809055151906 L 636 398.9809055151906 L 637 399.98090551519056 L 637 399.98090551519056 L 638 400.98090551519056 L 638 400.98090551519056 L 639 401.98090551519056 L 639 401.98090551519056 L 640 402.98090551519056 L 640 402.98090551519056 L 641 403.98090551519056 L 641 403.98090551519056 L 642 404.98090551519056 L 642 404.98090551519056 L 643 405.98090551519056 L 643 405.98090551519056 L 644 406.98090551519056 L 644 406.98090551519056 L 645 407.98090551519056 L 645 407.98090551519056 L 646 408.98090551519056 L 646 408.98090551519056 L 647 409.98090551519056 L 647 409.98090551519056 L 648 410.98090551519056 L 648 410.98090551519056 L 649 411.98090551519056 L 649 411.98090551519056 L 650 412.98090551519056 L 650 412.98090551519056 L 651 413.98090551519056 L 651 413.98090551519056 L 652 414.98090551519056 L 652 414.98090551519056 L 653 415.98090551519056 L 653 415.98090551519056 L 654 416.98090551519056 L 654 416.98090551519056 L 655 417.98090551519056 L 655 417.98090551519056 L 656 418.98090551519056 L 656 418.98090551519056 L 657 419.98090551519056 L 657 419.98090551519056 L 658 420.98090551519056 L 658 420.98090551519056 L 659 421.98090551519056 L 659 421.98090551519056 L 660 422.98090551519056 L 660 422.98090551519056 L 661 423.98090551519056 L 661 423.98090551519056 L 662 424.98090551519056 L 662 424.98090551519056 L 663 425.9809055151905 L 663 425.9809055151905 L 664 426.98090551519056 L 664 426.98090551519056 L 665 427.9809055151905 L 665 427.9809055151905 L 666 428.9809055151905 L 666 428.9809055151905 L 667 429.9809055151905 L 667 429.9809055151905 L 668 430.9809055151905 L 668 430.9809055151905 L 669 431.9809055151905 L 669 431.9809055151905 L 670 432.9809055151905 L 670 432.9809055151905 L 671 433.9809055151905 L 671 433.9809055151905 L 672 434.9809055151905 L 672 434.9809055151905 L 673 435.9809055151905 L 673 435.9809055151905 L 674 436.9809055151905 L 674 436.9809055151905 L 675 437.9809055151905 L 675 437.9809055151905 L 676 438.9809055151905 L 676 438.9809055151905 L 677 439.9809055151905 L 677 439.9809055151905 L 678 440.9809055151905 L 678 440.9809055151905 L 679 441.9809055151905 L 679 441.9809055151905 L 680 442.9809055151905 L 680 442.9809055151905 L 681 443.9809055151905 L 681 443.9809055151905 L 682 444.9809055151905 L 682 444.9809055151905 L 683 445.9809055151905 L 683 445.9809055151905 L 684 446.9809055151905 L 684 446.9809055151905 L 685 447.9809055151905 L 685 447.9809055151905 L 686 448.9809055151905 L 686 448.9809055151905 L 687 449.9809055151905 L 687 449.9809055151905 L 688 450.9809055151905 L 688 450.9809055151905 L 689 451.9809055151905 L 689 451.9809055151905 L 690 452.9809055151905 L 690 452.9809055151905 L 691 453.98090551519044 L 691 453.98090551519044 L 692 454.98090551519044 L 692 454.98090551519044 L 693 455.98090551519044 L 693 455.98090551519044 L 694 456.98090551519044 L 694 456.98090551519044 L 695 457.98090551519044 L 695 457.98090551519044 L 696 458.98090551519044 L 696 458.98090551519044 L 697 459.98090551519044 L 697 459.98090551519044 L 698 460.98090551519044 L 698 460.98090551519044 L 699 461.98090551519044 L 699 461.98090551519044 L 700 462.98090551519044 L 700 462.98090551519044 L 701 463.98090551519044 L 701 463.98090551519044 L 702 464.98090551519044 L 702 464.98090551519044 L 703 465.98090551519044 L 703 465.98090551519044 L 704 466.98090551519044 L 704 466.98090551519044 L 705 467.98090551519044 L 705 467.98090551519044 L 706 468.98090551519044 L 706 468.98090551519044 L 707 469.98090551519044 L 707 469.98090551519044 L 708 470.98090551519044 L 708 470.98090551519044 L 709 471.98090551519044 L 709 471.98090551519044 L 710 472.98090551519044 L 710 472.98090551519044 L 711 473.98090551519044 L 711 473.98090551519044 L 712 474.98090551519044 L 712 474.98090551519044 L 713 475.98090551519044 L 713 475.98090551519044 L 714 476.98090551519044 L 714 476.98090551519044 L 715 477.98090551519044 L 715 477.98090551519044 L 716 478.98090551519044 L 716 478.98090551519044 L 717 479.98090551519044 L 717 479.98090551519044 L 718 480.98090551519044 L 718 480.98090551519044 L 719 481.98090551519044 L 719 481.98090551519044 L 720 482.9809055151904 L 720 482.9809055151904 L 721 483.9809055151904 L 721 483.9809055151904 L 722 484.9809055151904 L 722 484.9809055151904 L 723 485.9809055151904 L 723 485.9809055151904 L 724 486.9809055151904 L 724 486.9809055151904 L 725 487.9809055151904 L 725 487.9809055151904 L 726 488.9809055151904 L 726 488.9809055151904 L 727 489.9809055151904 L 727 489.9809055151904 L 728 490.9809055151904 L 728 490.9809055151904 L 729 491.9809055151904 L 729 491.9809055151904 L 730 492.9809055151904 L 730 492.9809055151904 L 731 493.9809055151904 L 731 493.9809055151904 L 732 494.9809055151904 L 732 494.9809055151904 L 733 495.9809055151904 L 733 495.9809055151904 L 734 496.9809055151904 L 734 496.9809055151904 L 735 497.9809055151904 L 735 497.9809055151904 L 736 498.9809055151904 L 736 498.9809055151904 L 737 499.9809055151904 L 737 499.9809055151904 L 738 500.9809055151904 L 738 500.9809055151904 L 739 501.9809055151904 L 739 501.9809055151904 L 740 502.9809055151904 L 740 502.9809055151904 L 741 503.98090551519033 L 741 503.98090551519033 L 742 504.98090551519033 L 742 504.98090551519033 L 743 505.9809055151904 L 743 505.9809055151904 L 744 506.98090551519033 L 744 506.98090551519033 L 745 507.98090551519033 L 745 507.98090551519033 L 746 508.98090551519033 L 746 508.98090551519033 L 747 509.98090551519033 L 747 509.98090551519033 L 748 510.98090551519033 L 748 510.98090551519033 L 749 511.98090551519033 L 749 511.98090551519033 L 750 512.9809055151903 L 750 512.9809055151903 L 751 513.9809055151903 L 751 513.9809055151903 L 752 514.9809055151903 L 752 514.9809055151903 L 753 515.9809055151903 L 753 515.9809055151903 L 754 516.9809055151903 L 754 516.9809055151903 L 755 517.9809055151903 L 755 517.9809055151903 L 756 518.9809055151903 L 756 518.9809055151903 L 757 519.9809055151903 L 757 519.9809055151903 L 758 520.9809055151903 L 758 520.9809055151903 L 759 521.9809055151903 L 759 521.9809055151903 L 760 522.9809055151903 L 760 522.9809055151903 L 761 523.9809055151903 L 761 523.9809055151903 L 762 524.9809055151903 L 762 524.9809055151903 L 763 525.9809055151903 L 763 525.9809055151903 L 764 526.9809055151903 L 764 526.9809055151903 L 765 527.9809055151903 L 765 527.9809055151903 L 766 528.9809055151903 L 766 528.9809055151903 L 767 529.9809055151903 L 767 529.9809055151903 L 768 530.9809055151903 L 768 530.9809055151903 L 769 531.9809055151903 L 769 531.9809055151903 L 770 532.9809055151903 L 770 532.9809055151903 L 771 533.9809055151903 L 771 533.9809055151903 L 772 534.9809055151903 L 772 534.9809055151903 L 773 535.9809055151903 L 773 535.9809055151903 L 774 536.9809055151903 L 774 536.9809055151903 L 775 537.9809055151903 L 775 537.9809055151903 L 776 538.9809055151902 L 776 538.9809055151902 L 777 539.9809055151903 L 777 539.9809055151903 L 778 540.9809055151903 L 778 540.9809055151903 L 779 541.9809055151902 L 779 541.9809055151902 L 780 542.9809055151903 L 780 542.9809055151903 L 781 543.9809055151903 L 781 543.9809055151903 L 782 544.9809055151902 L 782 544.9809055151902 L 783 545.9809055151903 L 783 545.9809055151903 L 784 546.9809055151903 L 784 546.9809055151903 L 785 547.9809055151902 L 785 547.9809055151902 L 786 548.9809055151902 L 786 548.9809055151902 L 787 549.9809055151903 L 787 549.9809055151903 L 788 550.9809055151902 L 788 550.9809055151902 L 789 551.9809055151902 L 789 551.9809055151902 L 790 552.9809055151902 L 790 552.9809055151902 L 791 553.9809055151902 L 791 553.9809055151902 L 792 554.9809055151902 L 792 554.9809055151902 L 793 555.9809055151902 L 793 555.9809055151902 L 794 556.9809055151902 L 794 556.9809055151902 L 795 557.9809055151902 L 795 557.9809055151902 L 796 558.9809055151902 L 796 558.9809055151902 L 797 559.9809055151902 L 797 559.9809055151902 L 798 560.9809055151902 L 798 560.9809055151902 L 799 561.9809055151902 L 799 561.9809055151902 L 800 562.9809055151902 L 800 562.9809055151902 L 801 563.9809055151902 L 801 563.9809055151902 L 802 564.9809055151902 L 802 564.9809055151902 L 803 565.9809055151902 L 803 565.9809055151902 L 804 566.9809055151902 L 804 566.9809055151902 L 805 567.9809055151902 L 805 567.9809055151902 L 806 568.9809055151902 L 806 568.9809055151902 L 807 569.9809055151902 L 807 569.9809055151902 L 808 570.9809055151902 L 808 570.9809055151902 L 809 571.9809055151902 L 809 571.9809055151902 L 810 572.9809055151902 L 810 572.9809055151902 L 811 573.9809055151902 L 811 573.9809055151902 L 812 574.9809055151902 L 812 574.9809055151902 L 813 575.9809055151902 L 813 575.9809055151902 L 814 576.9809055151902 L 814 576.9809055151902 L 815 577.9809055151902 L 815 577.9809055151902 L 816 578.9809055151902 L 816 578.9809055151902 L 817 579.9809055151902 L 817 579.9809055151902 L 818 580.9809055151902 L 818 580.9809055151902 L 819 581.9809055151902 L 819 581.9809055151902 L 820 582.9809055151902 L 820 582.9809055151902 L 821 583.9809055151902 L 821 583.9809055151902 L 822 584.9809055151902 L 822 584.9809055151902 L 823 585.9809055151902 L 823 585.9809055151902 L 824 586.9809055151902 L 824 586.9809055151902 L 825 587.9809055151902 L 825 587.9809055151902 L 826 588.9809055151902 L 826 588.9809055151902 L 827 589.9809055151902 L 827 589.9809055151902 L 828 590.9809055151902 L 828 590.9809055151902 L 829 591.9809055151902 L 829 591.9809055151902 L 830 592.9809055151902 L 830 592.9809055151902 L 831 593.9809055151902 L 831 593.9809055151902 L 832 594.9809055151902 L 832 594.9809055151902 L 833 595.9809055151902 L 833 595.9809055151902 L 834 596.9809055151902 L 834 596.9809055151902 L 835 597.9809055151902 L 835 597.9809055151902 L 836 598.9809055151902 L 836 598.9809055151902 L 837 599.9809055151902 L 837 599.9809055151902 L 838 600.9809055151902 L 838 600.9809055151902 L 839 601.9809055151902 L 839 601.9809055151902 L 840 602.9809055151902 L 840 602.9809055151902 L 841 603.9809055151902 L 841 603.9809055151902 L 842 604.9809055151902 L 842 604.9809055151902 L 843 605.9809055151902 L 843 605.9809055151902 L 844 606.9809055151902 L 844 606.9809055151902 L 845 607.9809055151901 L 845 607.9809055151901 L 846 608.9809055151901 L 846 608.9809055151901 L 847 609.9809055151901 L 847 609.9809055151901 L 848 610.9809055151901 L 848 610.9809055151901 L 849 611.9809055151902 L 849 611.9809055151902 L 850 612.9809055151902 L 850 612.9809055151902 L 851 613.9809055151901 L 851 613.9809055151901 L 852 614.9809055151901 L 852 614.9809055151901 L 853 615.9809055151901 L 853 615.9809055151901 L 854 616.9809055151901 L 854 616.9809055151901 L 855 617.9809055151901 L 855 617.9809055151901 L 856 618.9809055151902 L 856 618.9809055151902 L 857 619.9809055151901 L 857 619.9809055151901 L 858 620.9809055151901 L 858 620.9809055151901 L 859 621.9809055151901 L 859 621.9809055151901 L 860 622.9809055151901 L 860 622.9809055151901 L 861 623.9809055151901 L 861 623.9809055151901 L 862 624.9809055151901 L 862 624.9809055151901 L 863 625.9809055151901 L 863 625.9809055151901 L 864 626.9809055151901 L 864 626.9809055151901 L 865 627.9809055151901 L 865 627.9809055151901 L 866 628.9809055151901 L 866 628.9809055151901 L 867 629.9809055151901 L 867 629.9809055151901 L 868 630.9809055151901 L 868 630.9809055151901 L 869 631.9809055151901 L 869 631.9809055151901 L 870 632.9809055151901 L 870 632.9809055151901 L 871 633.9809055151901 L 871 633.9809055151901 L 872 634.9809055151901 L 872 634.9809055151901 L 873 635.9809055151901 L 873 635.9809055151901 L 874 636.9809055151901 L 874 636.9809055151901 L 875 637.9809055151901 L 875 637.9809055151901 L 876 638.9809055151901 L 876 638.9809055151901 L 877 639.9809055151901 L 877 639.9809055151901 L 878 640.9809055151901 L 878 640.9809055151901 L 879 641.9809055151901 L 879 641.9809055151901 L 880 642.98090551519 L 880 642.98090551519 L 881 643.9809055151901 L 881 643.9809055151901 L 882 644.9809055151901 L 882 644.9809055151901 L 883 645.9809055151901 L 883 645.9809055151901 L 884 646.9809055151901 L 884 646.9809055151901 L 885 647.98090551519 L 885 647.98090551519 L 886 648.98090551519 L 886 648.98090551519 L 887 649.98090551519 L 887 649.98090551519 L 888 650.98090551519 L 888 650.98090551519 L 889 651.9809055151901 L 889 651.9809055151901 L 890 652.9809055151901 L 890 652.9809055151901 L 891 653.98090551519 L 891 653.98090551519 L 892 654.98090551519 L 892 654.98090551519 L 893 655.98090551519 L 893 655.98090551519 L 894 656.98090551519 L 894 656.98090551519 L 895 657.98090551519 L 895 657.98090551519 L 896 658.9809055151901 L 896 658.9809055151901 L 897 659.98090551519 L 897 659.98090551519 L 898 660.98090551519 L 898 660.98090551519 L 899 661.98090551519 L 899 661.98090551519 L 900 662.98090551519 L 900 662.98090551519 L 901 663.98090551519 L 901 663.98090551519 L 902 664.98090551519 L 902 664.98090551519 L 903 665.98090551519 L 903 665.98090551519 L 904 666.98090551519 L 904 666.98090551519 L 905 667.98090551519 L 905 667.98090551519 L 906 668.98090551519 L 906 668.98090551519 L 907 669.98090551519 L 907 669.98090551519 L 908 670.98090551519 L 908 670.98090551519 L 909 671.98090551519 L 909 671.98090551519 L 910 672.98090551519 L 910 672.98090551519 L 911 673.98090551519 L 911 673.98090551519 L 912 674.98090551519 L 912 674.98090551519 L 913 675.98090551519 L 913 675.98090551519 L 914 676.98090551519 L 914 676.98090551519 L 915 677.98090551519 L 915 677.98090551519 L 916 678.98090551519 L 916 678.98090551519 L 917 679.98090551519 L 917 679.98090551519 L 918 680.98090551519 L 918 680.98090551519 L 919 681.98090551519 L 919 681.98090551519 L 920 682.98090551519 L 920 682.98090551519 L 921 683.98090551519 L 921 683.98090551519 L 922 684.98090551519 L 922 684.98090551519 L 923 685.98090551519 L 923 685.98090551519 L 924 686.98090551519 L 924 686.98090551519 L 925 687.98090551519 L 925 687.98090551519 L 926 688.98090551519 L 926 688.98090551519 L 927 689.98090551519 L 927 689.98090551519 L 928 690.98090551519 L 928 690.98090551519 L 929 691.98090551519 L 929 691.98090551519 L 930 692.98090551519 L 930 692.98090551519 L 931 693.98090551519 L 931 693.98090551519 L 932 694.98090551519 L 932 694.98090551519 L 933 695.98090551519 L 933 695.98090551519 L 934 696.98090551519 L 934 696.98090551519 L 935 697.98090551519 L 935 697.98090551519 L 936 698.98090551519 L 936 698.98090551519 L 937 699.98090551519 L 937 699.98090551519 L 938 700.98090551519 L 938 700.98090551519 L 939 701.98090551519 L 939 701.98090551519 L 940 702.98090551519 L 940 702.98090551519 L 941 703.98090551519 L 941 703.98090551519 L 942 704.98090551519 L 942 704.98090551519 L 943 705.98090551519 L 943 705.98090551519 L 944 706.98090551519 L 944 706.98090551519 L 945 707.98090551519 L 945 707.98090551519 L 946 708.98090551519 L 946 708.98090551519 L 947 709.98090551519 L 947 709.98090551519 L 948 710.98090551519 L 948 710.98090551519 L 949 711.98090551519 L 949 711.98090551519 L 950 712.98090551519 L 950 712.98090551519 L 951 713.98090551519 L 951 713.98090551519 L 952 714.98090551519 L 952 714.98090551519 L 953 715.98090551519 L 953 715.98090551519 L 954 716.98090551519 L 954 716.98090551519 L 955 717.98090551519 L 955 717.98090551519 L 956 718.9809055151899 L 956 718.9809055151899 L 957 719.98090551519 L 957 719.98090551519 L 958 720.98090551519 L 958 720.98090551519 L 959 721.9809055151899 L 959 721.9809055151899 L 960 722.98090551519 L 960 722.98090551519 L 961 723.98090551519 L 961 723.98090551519 L 962 724.9809055151899 L 962 724.9809055151899 L 963 725.98090551519 L 963 725.98090551519 L 964 726.9809055151899 L 964 726.9809055151899 L 965 727.9809055151899 L 965 727.9809055151899 L 966 728.9809055151899 L 966 728.9809055151899 L 967 729.9809055151899 L 967 729.9809055151899 L 968 730.9809055151899 L 968 730.9809055151899 L 969 731.9809055151899 L 969 731.9809055151899 L 970 732.9809055151899 L 970 732.9809055151899 L 971 733.9809055151899 L 971 733.9809055151899 L 972 734.9809055151899 L 972 734.9809055151899 L 973 735.9809055151899 L 973 735.9809055151899 L 974 736.9809055151899 L 974 736.9809055151899 L 975 737.9809055151899 L 975 737.9809055151899 L 976 738.9809055151899 L 976 738.9809055151899 L 977 739.9809055151899 L 977 739.9809055151899 L 978 740.9809055151899 L 978 740.9809055151899 L 979 741.9809055151899 L 979 741.9809055151899 L 980 742.9809055151899 L 980 742.9809055151899 L 981 743.9809055151899 L 981 743.9809055151899 L 982 744.9809055151899 L 982 744.9809055151899 L 983 745.9809055151899 L 983 745.9809055151899 L 984 746.9809055151899 L 984 746.9809055151899 L 985 747.9809055151899 L 985 747.9809055151899 L 986 748.9809055151899 L 986 748.9809055151899 L 987 749.9809055151899 L 987 749.9809055151899 L 988 750.9809055151898 L 988 750.9809055151898 L 989 751.9809055151898 L 989 751.9809055151898 L 990 752.9809055151899 L 990 752.9809055151899 L 991 753.9809055151898 L 991 753.9809055151898 L 992 754.9809055151898 L 992 754.9809055151898 L 993 755.9809055151899 L 993 755.9809055151899 L 994 756.9809055151898 L 994 756.9809055151898 L 995 757.9809055151898 L 995 757.9809055151898 L 996 758.9809055151899 L 996 758.9809055151899 L 997 759.9809055151898 L 997 759.9809055151898 L 998 760.9809055151898 L 998 760.9809055151898 L 999 761.9809055151898 L 999 761.9809055151898 L 1000 762.9809055151898 L 1000 762.9809055151898 L 1001 763.9809055151898 L 1001 763.9809055151898 L 1002 764.9809055151898 L 1002 764.9809055151898 L 1003 765.9809055151898 L 1003 765.9809055151898 L 1004 766.9809055151898 L 1004 766.9809055151898 L 1005 767.9809055151898 L 1005 767.9809055151898 L 1006 768.9809055151898 L 1006 768.9809055151898 L 1007 769.9809055151898 L 1007 769.9809055151898 L 1008 770.9809055151898 L 1008 770.9809055151898 L 1009 771.9809055151898 L 1009 771.9809055151898 L 1010 772.9809055151898 L 1010 772.9809055151898 L 1011 773.9809055151898 L 1011 773.9809055151898 L 1012 774.9809055151898 L 1012 774.9809055151898 L 1013 775.9809055151898 L 1013 775.9809055151898 L 1014 776.9809055151898 L 1014 776.9809055151898 L 1015 777.9809055151898 L 1015 777.9809055151898 L 1016 778.9809055151898 L 1016 778.9809055151898 L 1017 779.9809055151898 L 1017 779.9809055151898 L 1018 780.9809055151898 L 1018 780.9809055151898 L 1019 781.9809055151898 L 1019 781.9809055151898 L 1020 782.9809055151898 L 1020 782.9809055151898 L 1021 783.9809055151898 L 1021 783.9809055151898 L 1022 784.9809055151898 L 1022 784.9809055151898 L 1023 785.9809055151898 L 1023 785.9809055151898 L 1024 786.9809055151898 L 1024 786.9809055151898 L 1025 787.9809055151898 L 1025 787.9809055151898 L 1026 788.9809055151898 L 1026 788.9809055151898 L 1027 789.9809055151898 L 1027 789.9809055151898 L 1028 790.9809055151898 L 1028 790.9809055151898 L 1029 791.9809055151898 L 1029 791.9809055151898 L 1030 792.9809055151898 L 1030 792.9809055151898 L 1031 793.9809055151898 L 1031 793.9809055151898 L 1032 794.9809055151898 L 1032 794.9809055151898 L 1033 795.9809055151898 L 1033 795.9809055151898 L 1034 796.9809055151898 L 1034 796.9809055151898 L 1035 797.9809055151898 L 1035 797.9809055151898 L 1036 798.9809055151898 L 1036 798.9809055151898 L 1037 799.9809055151898 L 1037 799.9809055151898 L 1038 800.9809055151898 L 1038 800.9809055151898 L 1039 801.9809055151898 L 1039 801.9809055151898 L 1040 802.9809055151898 L 1040 802.9809055151898 L 1041 803.9809055151898 L 1041 803.9809055151898 L 1042 804.9809055151898 L 1042 804.9809055151898 L 1043 805.9809055151898 L 1043 805.9809055151898 L 1044 806.9809055151898 L 1044 806.9809055151898 L 1045 807.9809055151898 L 1045 807.9809055151898 L 1046 808.9809055151898 L 1046 808.9809055151898 L 1047 809.9809055151898 L 1047 809.9809055151898 L 1048 810.9809055151898 L 1048 810.9809055151898 L 1049 811.9809055151898 L 1049 811.9809055151898 L 1050 812.9809055151898 L 1050 812.9809055151898 L 1051 813.9809055151898 L 1051 813.9809055151898 L 1052 814.9809055151898 L 1052 814.9809055151898 L 1053 815.9809055151898 L 1053 815.9809055151898 L 1054 816.9809055151898 L 1054 816.9809055151898 L 1055 817.9809055151896 L 1055 817.9809055151896 L 1056 818.9809055151898 L 1056 818.9809055151898 L 1057 819.9809055151898 L 1057 819.9809055151898 L 1058 820.9809055151898 L 1058 820.9809055151898 L 1059 821.9809055151898 L 1059 821.9809055151898 L 1060 822.9809055151896 L 1060 822.9809055151896 L 1061 823.9809055151898 L 1061 823.9809055151898 L 1062 824.9809055151896 L 1062 824.9809055151896 L 1063 825.9809055151898 L 1063 825.9809055151898 L 1064 826.9809055151898 L 1064 826.9809055151898 L 1065 827.9809055151898 L 1065 827.9809055151898 L 1066 828.9809055151898 L 1066 828.9809055151898 L 1067 829.9809055151896 L 1067 829.9809055151896 L 1068 830.9809055151898 L 1068 830.9809055151898 L 1069 831.9809055151896 L 1069 831.9809055151896 L 1070 832.9809055151898 L 1070 832.9809055151898 L 1071 833.9809055151896 L 1071 833.9809055151896 L 1072 834.9809055151896 L 1072 834.9809055151896 L 1073 835.9809055151898 L 1073 835.9809055151898 L 1074 836.9809055151896 L 1074 836.9809055151896 L 1075 837.9809055151898 L 1075 837.9809055151898 L 1076 838.9809055151898 L 1076 838.9809055151898 L 1077 839.9809055151896 L 1077 839.9809055151896 L 1078 840.9809055151896 L 1078 840.9809055151896 L 1079 841.9809055151896 L 1079 841.9809055151896 L 1080 842.9809055151898 L 1080 842.9809055151898 L 1081 843.9809055151895 L 1081 843.9809055151895 L 1082 844.9809055151896 L 1082 844.9809055151896 L 1083 845.9809055151896 L 1083 845.9809055151896 L 1084 846.9809055151896 L 1084 846.9809055151896 L 1085 847.9809055151896 L 1085 847.9809055151896 L 1086 848.9809055151896 L 1086 848.9809055151896 L 1087 849.9809055151895 L 1087 849.9809055151895 L 1088 850.9809055151896 L 1088 850.9809055151896 L 1089 851.9809055151896 L 1089 851.9809055151896 L 1090 852.9809055151896 L 1090 852.9809055151896 L 1091 853.9809055151896 L 1091 853.9809055151896 L 1092 854.9809055151895 L 1092 854.9809055151895 L 1093 855.9809055151895 L 1093 855.9809055151895 L 1094 856.9809055151895 L 1094 856.9809055151895 L 1095 857.9809055151896 L 1095 857.9809055151896 L 1096 858.9809055151896 L 1096 858.9809055151896 L 1097 859.9809055151896 L 1097 859.9809055151896 L 1098 860.9809055151895 L 1098 860.9809055151895 L 1099 861.9809055151895 L 1099 861.9809055151895 L 1100 862.9809055151895 L 1100 862.9809055151895 L 1101 863.9809055151896 L 1101 863.9809055151896 L 1102 864.9809055151896 L 1102 864.9809055151896 L 1103 865.9809055151896 L 1103 865.9809055151896 L 1104 866.9809055151895 L 1104 866.9809055151895 L 1105 867.9809055151895 L 1105 867.9809055151895 L 1106 868.9809055151895 L 1106 868.9809055151895 L 1107 869.9809055151895 L 1107 869.9809055151895 L 1108 870.9809055151896 L 1108 870.9809055151896 L 1109 871.9809055151895 L 1109 871.9809055151895 L 1110 872.9809055151895 L 1110 872.9809055151895 L 1111 873.9809055151895 L 1111 873.9809055151895 L 1112 874.9809055151895 L 1112 874.9809055151895 L 1113 875.9809055151895 L 1113 875.9809055151895 L 1114 876.9809055151896 L 1114 876.9809055151896 L 1115 877.9809055151895 L 1115 877.9809055151895 L 1116 878.9809055151895 L 1116 878.9809055151895 L 1117 879.9809055151895 L 1117 879.9809055151895 L 1118 880.9809055151895 L 1118 880.9809055151895 L 1119 881.9809055151895 L 1119 881.9809055151895 L 1120 882.9809055151895 L 1120 882.9809055151895 L 1121 883.9809055151895 L 1121 883.9809055151895 L 1122 884.9809055151895 L 1122 884.9809055151895 L 1123 885.9809055151895 L 1123 885.9809055151895 L 1124 886.9809055151895 L 1124 886.9809055151895 L 1125 887.9809055151895 L 1125 887.9809055151895 L 1126 888.9809055151895 L 1126 888.9809055151895 L 1127 889.9809055151895 L 1127 889.9809055151895 L 1128 890.9809055151895 L 1128 890.9809055151895 L 1129 891.9809055151895 L 1129 891.9809055151895 L 1130 892.9809055151895 L 1130 892.9809055151895 L 1131 893.9809055151895 L 1131 893.9809055151895 L 1132 894.9809055151895 L 1132 894.9809055151895 L 1133 895.9809055151895 L 1133 895.9809055151895 L 1134 896.9809055151895 L 1134 896.9809055151895 L 1135 897.9809055151895 L 1135 897.9809055151895 L 1136 898.9809055151895 L 1136 898.9809055151895 L 1137 899.9809055151895 L 1137 899.9809055151895 L 1138 900.9809055151895 L 1138 900.9809055151895 L 1139 901.9809055151895 L 1139 901.9809055151895 L 1140 902.9809055151895 L 1140 902.9809055151895 L 1141 903.9809055151895 L 1141 903.9809055151895 L 1142 904.9809055151895 L 1142 904.9809055151895 L 1143 905.9809055151895 L 1143 905.9809055151895 L 1144 906.9809055151895 L 1144 906.9809055151895 L 1145 907.9809055151895 L 1145 907.9809055151895 L 1146 908.9809055151895 L 1146 908.9809055151895 L 1147 909.9809055151895 L 1147 909.9809055151895 L 1148 910.9809055151895 L 1148 910.9809055151895 L 1149 911.9809055151895 L 1149 911.9809055151895 L 1150 912.9809055151895 L 1150 912.9809055151895 L 1151 913.9809055151895 L 1151 913.9809055151895 L 1152 914.9809055151895 L 1152 914.9809055151895 L 1153 915.9809055151895 L 1153 915.9809055151895 L 1154 916.9809055151895 L 1154 916.9809055151895 L 1155 917.9809055151895 L 1155 917.9809055151895 L 1156 918.9809055151895 L 1156 918.9809055151895 L 1157 919.9809055151895 L 1157 919.9809055151895 L 1158 920.9809055151895 L 1158 920.9809055151895 L 1159 921.9809055151895 L 1159 921.9809055151895 L 1160 922.9809055151895 L 1160 922.9809055151895 L 1161 923.9809055151895 L 1161 923.9809055151895 L 1162 924.9809055151895 L 1162 924.9809055151895 L 1163 925.9809055151895 L 1163 925.9809055151895 L 1164 926.9809055151895 L 1164 926.9809055151895 L 1165 927.9809055151895 L 1165 927.9809055151895 L 1166 928.9809055151895 L 1166 928.9809055151895 L 1167 929.9809055151894 L 1167 929.9809055151894 L 1168 930.9809055151895 L 1168 930.9809055151895 L 1169 931.9809055151895 L 1169 931.9809055151895 L 1170 932.9809055151895 L 1170 932.9809055151895 L 1171 933.9809055151895 L 1171 933.9809055151895 L 1172 934.9809055151894 L 1172 934.9809055151894 L 1173 935.9809055151894 L 1173 935.9809055151894 L 1174 936.9809055151895 L 1174 936.9809055151895 L 1175 937.9809055151895 L 1175 937.9809055151895 L 1176 938.9809055151894 L 1176 938.9809055151894 L 1177 939.9809055151894 L 1177 939.9809055151894 L 1178 940.9809055151894 L 1178 940.9809055151894 L 1179 941.9809055151894 L 1179 941.9809055151894 L 1180 942.9809055151894 L 1180 942.9809055151894 L 1181 943.9809055151895 L 1181 943.9809055151895 L 1182 944.9809055151894 L 1182 944.9809055151894 L 1183 945.9809055151894 L 1183 945.9809055151894 L 1184 946.9809055151894 L 1184 946.9809055151894 L 1185 947.9809055151894 L 1185 947.9809055151894 L 1186 948.9809055151894 L 1186 948.9809055151894 L 1187 949.9809055151894 L 1187 949.9809055151894 L 1188 950.9809055151894 L 1188 950.9809055151894 L 1189 951.9809055151894 L 1189 951.9809055151894 L 1190 952.9809055151894 L 1190 952.9809055151894 L 1191 953.9809055151894 L 1191 953.9809055151894 L 1192 954.9809055151894 L 1192 954.9809055151894 L 1193 955.9809055151894 L 1193 955.9809055151894 L 1194 956.9809055151894 L 1194 956.9809055151894 L 1195 957.9809055151894 L 1195 957.9809055151894 L 1196 958.9809055151894 L 1196 958.9809055151894 L 1197 959.9809055151894 L 1197 959.9809055151894 L 1198 960.9809055151894 L 1198 960.9809055151894 L 1199 961.9809055151894 L 1199 961.9809055151894 L 1200 962.9809055151894 L 1200 962.9809055151894 L 1201 963.9809055151894 L 1201 963.9809055151894 L 1202 964.9809055151894 L 1202 964.9809055151894 L 1203 965.9809055151894 L 1203 965.9809055151894 L 1204 966.9809055151894 L 1204 966.9809055151894 L 1205 967.9809055151894 L 1205 967.9809055151894 L 1206 968.9809055151894 L 1206 968.9809055151894 L 1207 969.9809055151893 L 1207 969.9809055151893 L 1208 970.9809055151894 L 1208 970.9809055151894 L 1209 971.9809055151894 L 1209 971.9809055151894 L 1210 972.9809055151894 L 1210 972.9809055151894 L 1211 973.9809055151894 L 1211 973.9809055151894 L 1212 974.9809055151893 L 1212 974.9809055151893 L 1213 975.9809055151893 L 1213 975.9809055151893 L 1214 976.9809055151894 L 1214 976.9809055151894 L 1215 977.9809055151894 L 1215 977.9809055151894 L 1216 978.9809055151894 L 1216 978.9809055151894 L 1217 979.9809055151894 L 1217 979.9809055151894 L 1218 980.9809055151893 L 1218 980.9809055151893 L 1219 981.9809055151893 L 1219 981.9809055151893 L 1220 982.9809055151893 L 1220 982.9809055151893 L 1221 983.9809055151894 L 1221 983.9809055151894 L 1222 984.9809055151894 L 1222 984.9809055151894 L 1223 985.9809055151894 L 1223 985.9809055151894 L 1224 986.9809055151893 L 1224 986.9809055151893 L 1225 987.9809055151893 L 1225 987.9809055151893 L 1226 988.9809055151893 L 1226 988.9809055151893 L 1227 989.9809055151893 L 1227 989.9809055151893 L 1228 990.9809055151894 L 1228 990.9809055151894 L 1229 991.9809055151893 L 1229 991.9809055151893 L 1230 992.9809055151893 L 1230 992.9809055151893 L 1231 993.9809055151893 L 1231 993.9809055151893 L 1232 994.9809055151893 L 1232 994.9809055151893 L 1233 995.9809055151893 L 1233 995.9809055151893 L 1234 996.9809055151894 L 1234 996.9809055151894 L 1235 997.9809055151893 L 1235 997.9809055151893 L 1236 998.9809055151893 L 1236 998.9809055151893 L 1237 999.9809055151893 L 1237 999.9809055151893 L 1238 1000.9809055151893 L 1238 1000.9809055151893 L 1239 1001.9809055151893 L 1239 1001.9809055151893 L 1240 1002.9809055151893 L 1240 1002.9809055151893 L 1241 1003.9809055151893 L 1241 1003.9809055151893 L 1242 1004.9809055151893 L 1242 1004.9809055151893 L 1243 1005.9809055151893 L 1243 1005.9809055151893 L 1244 1006.9809055151893 L 1244 1006.9809055151893 L 1245 1007.9809055151893 L 1245 1007.9809055151893 L 1246 1008.9809055151893 L 1246 1008.9809055151893 L 1247 1009.9809055151893 L 1247 1009.9809055151893 L 1248 1010.9809055151893 L 1248 1010.9809055151893 L 1249 1011.9809055151893 L 1249 1011.9809055151893 L 1250 1012.9809055151893 L 1250 1012.9809055151893 L 1251 1013.9809055151893 L 1251 1013.9809055151893 L 1252 1014.9809055151893 L 1252 1014.9809055151893 L 1253 1015.9809055151893 L 1253 1015.9809055151893 L 1254 1016.9809055151893 L 1254 1016.9809055151893 L 1255 1017.9809055151893 L 1255 1017.9809055151893 L 1256 1018.9809055151893 L 1256 1018.9809055151893 L 1257 1019.9809055151893 L 1257 1019.9809055151893 L 1258 1020.9809055151893 L 1258 1020.9809055151893 L 1259 1021.9809055151893 L 1259 1021.9809055151893 L 1260 1022.9809055151892 L 1260 1022.9809055151892 L 1261 1023.9809055151893 L 1261 1023.9809055151893 L 1262 1024.9809055151893 L 1262 1024.9809055151893 L 1263 1025.9809055151893 L 1263 1025.9809055151893 L 1264 1026.9809055151893 L 1264 1026.9809055151893 L 1265 1027.9809055151893 L 1265 1027.9809055151893 L 1266 1028.980905515189 L 1266 1028.980905515189 L 1267 1029.9809055151893 L 1267 1029.9809055151893 L 1268 1030.9809055151893 L 1268 1030.9809055151893 L 1269 1031.9809055151893 L 1269 1031.9809055151893 L 1270 1032.9809055151893 L 1270 1032.9809055151893 L 1271 1033.980905515189 L 1271 1033.980905515189 L 1272 1034.980905515189 L 1272 1034.980905515189 L 1273 1035.980905515189 L 1273 1035.980905515189 L 1274 1036.9809055151893 L 1274 1036.9809055151893 L 1275 1037.9809055151893 L 1275 1037.9809055151893 L 1276 1038.9809055151893 L 1276 1038.9809055151893 L 1277 1039.980905515189 L 1277 1039.980905515189 L 1278 1040.980905515189 L 1278 1040.980905515189 L 1279 1041.980905515189 L 1279 1041.980905515189 L 1280 1042.980905515189 L 1280 1042.980905515189 L 1281 1043.9809055151893 L 1281 1043.9809055151893 L 1282 1044.9809055151893 L 1282 1044.9809055151893 L 1283 1045.980905515189 L 1283 1045.980905515189 L 1284 1046.980905515189 L 1284 1046.980905515189 L 1285 1047.980905515189 L 1285 1047.980905515189 L 1286 1048.980905515189 L 1286 1048.980905515189 L 1287 1049.9809055151893 L 1287 1049.9809055151893 L 1288 1050.980905515189 L 1288 1050.980905515189 L 1289 1051.980905515189 L 1289 1051.980905515189 L 1290 1052.980905515189 L 1290 1052.980905515189 L 1291 1053.980905515189 L 1291 1053.980905515189 L 1292 1054.980905515189 L 1292 1054.980905515189 L 1293 1055.980905515189 L 1293 1055.980905515189 L 1294 1056.980905515189 L 1294 1056.980905515189 L 1295 1057.980905515189 L 1295 1057.980905515189 L 1296 1058.980905515189 L 1296 1058.980905515189 L 1297 1059.980905515189 L 1297 1059.980905515189 L 1298 1060.980905515189 L 1298 1060.980905515189 L 1299 1061.980905515189 L 1299 1061.980905515189 L 1300 1062.980905515189 L 1300 1062.980905515189 L 1301 1063.980905515189 L 1301 1063.980905515189 L 1302 1064.980905515189 L 1302 1064.980905515189 L 1303 1065.980905515189 L 1303 1065.980905515189 L 1304 1066.980905515189 L 1304 1066.980905515189 L 1305 1067.980905515189 L 1305 1067.980905515189 L 1306 1068.980905515189 L 1306 1068.980905515189 L 1307 1069.980905515189 L 1307 1069.980905515189 L 1308 1070.980905515189 L 1308 1070.980905515189 L 1309 1071.980905515189 L 1309 1071.980905515189 L 1310 1072.980905515189 L 1310 1072.980905515189 L 1311 1073.980905515189 L 1311 1073.980905515189 L 1312 1074.980905515189 L 1312 1074.980905515189 L 1313 1075.980905515189 L 1313 1075.980905515189 L 1314 1076.980905515189 L 1314 1076.980905515189 L 1315 1077.980905515189 L 1315 1077.980905515189 L 1316 1078.980905515189 L 1316 1078.980905515189 L 1317 1079.980905515189 L 1317 1079.980905515189 L 1318 1080.980905515189 L 1318 1080.980905515189 L 1319 1081.980905515189 L 1319 1081.980905515189 L 1320 1082.980905515189 L 1320 1082.980905515189 L 1321 1083.980905515189 L 1321 1083.980905515189 L 1322 1084.980905515189 L 1322 1084.980905515189 L 1323 1085.980905515189 L 1323 1085.980905515189 L 1324 1086.980905515189 L 1324 1086.980905515189 L 1325 1087.980905515189 L 1325 1087.980905515189 L 1326 1088.980905515189 L 1326 1088.980905515189 L 1327 1089.980905515189 L 1327 1089.980905515189 L 1328 1090.980905515189 L 1328 1090.980905515189 L 1329 1091.980905515189 L 1329 1091.980905515189 L 1330 1092.980905515189 L 1330 1092.980905515189 L 1331 1093.980905515189 L 1331 1093.980905515189 L 1332 1094.980905515189 L 1332 1094.980905515189 L 1333 1095.980905515189 L 1333 1095.980905515189 L 1334 1096.980905515189 L 1334 1096.980905515189 L 1335 1097.980905515189 L 1335 1097.980905515189 L 1336 1098.980905515189 L 1336 1098.980905515189 L 1337 1099.980905515189 L 1337 1099.980905515189 L 1338 1100.980905515189 L 1338 1100.980905515189 L 1339 1101.980905515189 L 1339 1101.980905515189 L 1340 1102.980905515189 L 1340 1102.980905515189 L 1341 1103.980905515189 L 1341 1103.980905515189 L 1342 1104.980905515189 L 1342 1104.980905515189 L 1343 1105.980905515189 L 1343 1105.980905515189 L 1344 1106.980905515189 L 1344 1106.980905515189 L 1345 1107.980905515189 L 1345 1107.980905515189 L 1346 1108.980905515189 L 1346 1108.980905515189 L 1347 1109.980905515189 L 1347 1109.980905515189 L 1348 1110.980905515189 L 1348 1110.980905515189 L 1349 1111.980905515189 L 1349 1111.980905515189 L 1350 1112.980905515189 L 1350 1112.980905515189 L 1351 1113.980905515189 L 1351 1113.980905515189 L 1352 1114.980905515189 L 1352 1114.980905515189 L 1353 1115.980905515189 L 1353 1115.980905515189 L 1354 1116.980905515189 L 1354 1116.980905515189 L 1355 1117.980905515189 L 1355 1117.980905515189 L 1356 1118.980905515189 L 1356 1118.980905515189 L 1357 1119.980905515189 L 1357 1119.980905515189 L 1358 1120.980905515189 L 1358 1120.980905515189 L 1359 1121.980905515189 L 1359 1121.980905515189 L 1360 1122.980905515189 L 1360 1122.980905515189 L 1361 1123.980905515189 L 1361 1123.980905515189 L 1362 1124.980905515189 L 1362 1124.980905515189 L 1363 1125.980905515189 L 1363 1125.980905515189 L 1364 1126.980905515189 L 1364 1126.980905515189 L 1365 1127.980905515189 L 1365 1127.980905515189 L 1366 1128.980905515189 L 1366 1128.980905515189 L 1367 1129.980905515189 L 1367 1129.980905515189 L 1368 1130.980905515189 L 1368 1130.980905515189 L 1369 1131.980905515189 L 1369 1131.980905515189 L 1370 1132.980905515189 L 1370 1132.980905515189 L 1371 1133.980905515189 L 1371 1133.980905515189 L 1372 1134.980905515189 L 1372 1134.980905515189 L 1373 1135.980905515189 L 1373 1135.980905515189 L 1374 1136.980905515189 L 1374 1136.980905515189 L 1375 1137.980905515189 L 1375 1137.980905515189 L 1376 1138.980905515189 L 1376 1138.980905515189 L 1377 1139.980905515189 L 1377 1139.980905515189 L 1378 1140.980905515189 L 1378 1140.980905515189 L 1379 1141.980905515189 L 1379 1141.980905515189 L 1380 1142.980905515189 L 1380 1142.980905515189 L 1381 1143.980905515189 L 1381 1143.980905515189 L 1382 1144.980905515189 L 1382 1144.980905515189 L 1383 1145.980905515189 L 1383 1145.980905515189 L 1384 1146.980905515189 L 1384 1146.980905515189 L 1385 1147.980905515189 L 1385 1147.980905515189 L 1385.9999999999998 1148.9809055151889 L 1385.9999999999998 1148.9809055151889 L 1387 1149.980905515189 L 1387 1149.980905515189 L 1388 1150.980905515189 L 1388 1150.980905515189 L 1389 1151.980905515189 L 1389 1151.980905515189 L 1390 1152.980905515189 L 1390 1152.980905515189 L 1391 1153.980905515189 L 1391 1153.980905515189 L 1392 1154.980905515189 L 1392 1154.980905515189 L 1393 1155.980905515189 L 1393 1155.980905515189 L 1394 1156.980905515189 L 1394 1156.980905515189 L 1395 1157.980905515189 L 1395 1157.980905515189 L 1396 1158.980905515189 L 1396 1158.980905515189 L 1397 1159.980905515189 L 1397 1159.980905515189 L 1398 1160.980905515189 L 1398 1160.980905515189 L 1399 1161.980905515189 L 1399 1161.980905515189 L 1400 1162.980905515189 L 1400 1162.980905515189 L 1401 1163.980905515189 L 1401 1163.980905515189 L 1402 1164.980905515189 L 1402 1164.980905515189 L 1403 1165.980905515189 L 1403 1165.980905515189 L 1404 1166.980905515189 L 1404 1166.980905515189 L 1405 1167.9809055151889 L 1405 1167.9809055151889 L 1406 1168.980905515189 L 1406 1168.980905515189 L 1407 1169.980905515189 L 1407 1169.980905515189 L 1408 1170.980905515189 L 1408 1170.980905515189 L 1409 1171.980905515189 L 1409 1171.980905515189 L 1410 1172.9809055151889 L 1410 1172.9809055151889 L 1411 1173.980905515189 L 1411 1173.980905515189 L 1412 1174.980905515189 L 1412 1174.980905515189 L 1413 1175.980905515189 L 1413 1175.980905515189 L 1414 1176.980905515189 L 1414 1176.980905515189 L 1415 1177.9809055151889 L 1415 1177.9809055151889 L 1416 1178.980905515189 L 1416 1178.980905515189 L 1417 1179.980905515189 L 1417 1179.980905515189 L 1418 1180.980905515189 L 1418 1180.980905515189 L 1418.9999999999998 1181.9809055151889 L 1418.9999999999998 1181.9809055151889 L 1420 1182.9809055151889 L 1420 1182.9809055151889 L 1421 1183.980905515189 L 1421 1183.980905515189 L 1422 1184.980905515189 L 1422 1184.980905515189 L 1423 1185.980905515189 L 1423 1185.980905515189 L 1424 1186.9809055151889 L 1424 1186.9809055151889 L 1425 1187.980905515189 L 1425 1187.980905515189 L 1426 1188.980905515189 L 1426 1188.980905515189 L 1427 1189.980905515189 L 1427 1189.980905515189 L 1428 1190.980905515189 L 1428 1190.980905515189 L 1429 1191.9809055151889 L 1429 1191.9809055151889 L 1430 1192.980905515189 L 1430 1192.980905515189 L 1431 1193.980905515189 L 1431 1193.980905515189 L 1432 1194.9809055151889 L 1432 1194.9809055151889 L 1432.9999999999998 1195.9809055151889 L 1432.9999999999998 1195.9809055151889 L 1434 1196.9809055151889 L 1434 1196.9809055151889 L 1435 1197.980905515189 L 1435 1197.980905515189 L 1436 1198.980905515189 L 1436 1198.980905515189 L 1437 1199.9809055151889 L 1437 1199.9809055151889 L 1438 1200.9809055151889 L 1438 1200.9809055151889 L 1439 1201.9809055151889 L 1439 1201.9809055151889 L 1440 1202.980905515189 L 1440 1202.980905515189 L 1441 1203.980905515189 L 1441 1203.980905515189 L 1442 1204.980905515189 L 1442 1204.980905515189 L 1443 1205.9809055151889 L 1443 1205.9809055151889 L 1444 1206.9809055151889 L 1444 1206.9809055151889 L 1445 1207.980905515189 L 1445 1207.980905515189 L 1446 1208.980905515189 L 1446 1208.980905515189 L 1446.9999999999998 1209.9809055151886 L 1446.9999999999998 1209.9809055151886 L 1448 1210.9809055151889 L 1448 1210.9809055151889 L 1449 1211.9809055151889 L 1449 1211.9809055151889 L 1450 1212.980905515189" stroke-opacity="0.8" stroke-linecap="round" stroke-linejoin="round" stroke-miterlimit="10" stroke-width="6.5"/><text fill="rgb(211,47,47)" stroke="none" font-family="geogebra-sans-serif, sans-serif" font-size="16px" font-style="normal" font-weight="normal" text-decoration="normal" x="245" y="24" text-anchor="start" dominant-baseline="alphabetic" fill-opacity="1">f</text><text fill="none" stroke="rgb(255,255,255)" font-family="geogebra-sans-serif, sans-serif" font-size="16px" font-style="normal" font-weight="normal" text-decoration="normal" x="245" y="24" text-anchor="start" dominant-baseline="alphabetic" stroke-opacity="1" stroke-linejoin="bevel" stroke-miterlimit="10" stroke-width="3">f</text><text fill="rgb(211,47,47)" stroke="none" font-family="geogebra-sans-serif, sans-serif" font-size="16px" font-style="normal" font-weight="normal" text-decoration="normal" x="245" y="24" text-anchor="start" dominant-baseline="alphabetic" fill-opacity="1">f</text></g></g></svg>