<svg version="1.1" xmlns="http://www.w3.org/2000/svg" xmlns:xlink="http://www.w3.org/1999/xlink" width="1450" height="855"><defs><clipPath id="KvavuoyPTsGo"><path fill="none" stroke="none" d=" M 0 0 L 1450 0 L 1450 855 L 0 855 L 0 0 Z"/></clipPath></defs><g transform="scale(1,1)" clip-path="url(#KvavuoyPTsGo)"><g><rect fill="rgb(255,255,255)" stroke="none" x="0" y="0" width="1450" height="855" fill-opacity="1"/><path fill="none" stroke="rgb(37,37,37)" paint-order="fill stroke markers" d=" M 578 3 L 578 855" stroke-opacity="1" stroke-miterlimit="10" stroke-width="2"/><path fill="rgb(37,37,37)" stroke="none" paint-order="stroke fill markers" fill-rule="evenodd" d=" M 577.819491861212 2 L 572.819491861212 22 L 582.819491861212 22" fill-opacity="1"/><path fill="none" stroke="rgb(37,37,37)" paint-order="fill stroke markers" d=" M 0 402 L 1447 402" stroke-opacity="1" stroke-miterlimit="10" stroke-width="2"/><path fill="rgb(37,37,37)" stroke="none" paint-order="stroke fill markers" fill-rule="evenodd" d=" M 1448 402.2242140748174 L 1428 397.2242140748174 L 1428 407.2242140748174" fill-opacity="1"/><text fill="rgb(37,37,37)" stroke="none" font-family="geogebra-sans-serif, sans-serif" font-size="12px" font-style="normal" font-weight="bold" text-decoration="normal" x="12" y="418" text-anchor="start" dominant-baseline="alphabetic" fill-opacity="1">–3.5</text><text fill="none" stroke="rgb(255,255,255)" font-family="geogebra-sans-serif, sans-serif" font-size="12px" font-style="normal" font-weight="bold" text-decoration="normal" x="12" y="418" text-anchor="start" dominant-baseline="alphabetic" stroke-opacity="1" stroke-linejoin="bevel" stroke-miterlimit="10" stroke-width="3">–3.5</text><text fill="rgb(37,37,37)" stroke="none" font-family="geogebra-sans-serif, sans-serif" font-size="12px" font-style="normal" font-weight="bold" text-decoration="normal" x="12" y="418" text-anchor="start" dominant-baseline="alphabetic" fill-opacity="1">–3.5</text><path fill="none" stroke="rgb(37,37,37)" paint-order="fill stroke markers" d=" M 26 402 L 26 405" stroke-opacity="1" stroke-miterlimit="10" stroke-width="2"/><text fill="rgb(37,37,37)" stroke="none" font-family="geogebra-sans-serif, sans-serif" font-size="12px" font-style="normal" font-weight="bold" text-decoration="normal" x="98" y="418" text-anchor="start" dominant-baseline="alphabetic" fill-opacity="1">–3</text><text fill="none" stroke="rgb(255,255,255)" font-family="geogebra-sans-serif, sans-serif" font-size="12px" font-style="normal" font-weight="bold" text-decoration="normal" x="98" y="418" text-anchor="start" dominant-baseline="alphabetic" stroke-opacity="1" stroke-linejoin="bevel" stroke-miterlimit="10" stroke-width="3">–3</text><text fill="rgb(37,37,37)" stroke="none" font-family="geogebra-sans-serif, sans-serif" font-size="12px" font-style="normal" font-weight="bold" text-decoration="normal" x="98" y="418" text-anchor="start" dominant-baseline="alphabetic" fill-opacity="1">–3</text><path fill="none" stroke="rgb(37,37,37)" paint-order="fill stroke markers" d=" M 105 402 L 105 405" stroke-opacity="1" stroke-miterlimit="10" stroke-width="2"/><text fill="rgb(37,37,37)" stroke="none" font-family="geogebra-sans-serif, sans-serif" font-size="12px" font-style="normal" font-weight="bold" text-decoration="normal" x="170" y="418" text-anchor="start" dominant-baseline="alphabetic" fill-opacity="1">–2.5</text><text fill="none" stroke="rgb(255,255,255)" font-family="geogebra-sans-serif, sans-serif" font-size="12px" font-style="normal" font-weight="bold" text-decoration="normal" x="170" y="418" text-anchor="start" dominant-baseline="alphabetic" stroke-opacity="1" stroke-linejoin="bevel" stroke-miterlimit="10" stroke-width="3">–2.5</text><text fill="rgb(37,37,37)" stroke="none" font-family="geogebra-sans-serif, sans-serif" font-size="12px" font-style="normal" font-weight="bold" text-decoration="normal" x="170" y="418" text-anchor="start" dominant-baseline="alphabetic" fill-opacity="1">–2.5</text><path fill="none" stroke="rgb(37,37,37)" paint-order="fill stroke markers" d=" M 184 402 L 184 405" stroke-opacity="1" stroke-miterlimit="10" stroke-width="2"/><text fill="rgb(37,37,37)" stroke="none" font-family="geogebra-sans-serif, sans-serif" font-size="12px" font-style="normal" font-weight="bold" text-decoration="normal" x="256" y="418" text-anchor="start" dominant-baseline="alphabetic" fill-opacity="1">–2</text><text fill="none" stroke="rgb(255,255,255)" font-family="geogebra-sans-serif, sans-serif" font-size="12px" font-style="normal" font-weight="bold" text-decoration="normal" x="256" y="418" text-anchor="start" dominant-baseline="alphabetic" stroke-opacity="1" stroke-linejoin="bevel" stroke-miterlimit="10" stroke-width="3">–2</text><text fill="rgb(37,37,37)" stroke="none" font-family="geogebra-sans-serif, sans-serif" font-size="12px" font-style="normal" font-weight="bold" text-decoration="normal" x="256" y="418" text-anchor="start" dominant-baseline="alphabetic" fill-opacity="1">–2</text><path fill="none" stroke="rgb(37,37,37)" paint-order="fill stroke markers" d=" M 263 402 L 263 405" stroke-opacity="1" stroke-miterlimit="10" stroke-width="2"/><text fill="rgb(37,37,37)" stroke="none" font-family="geogebra-sans-serif, sans-serif" font-size="12px" font-style="normal" font-weight="bold" text-decoration="normal" x="327" y="418" text-anchor="start" dominant-baseline="alphabetic" fill-opacity="1">–1.5</text><text fill="none" stroke="rgb(255,255,255)" font-family="geogebra-sans-serif, sans-serif" font-size="12px" font-style="normal" font-weight="bold" text-decoration="normal" x="327" y="418" text-anchor="start" dominant-baseline="alphabetic" stroke-opacity="1" stroke-linejoin="bevel" stroke-miterlimit="10" stroke-width="3">–1.5</text><text fill="rgb(37,37,37)" stroke="none" font-family="geogebra-sans-serif, sans-serif" font-size="12px" font-style="normal" font-weight="bold" text-decoration="normal" x="327" y="418" text-anchor="start" dominant-baseline="alphabetic" fill-opacity="1">–1.5</text><path fill="none" stroke="rgb(37,37,37)" paint-order="fill stroke markers" d=" M 341 402 L 341 405" stroke-opacity="1" stroke-miterlimit="10" stroke-width="2"/><text fill="rgb(37,37,37)" stroke="none" font-family="geogebra-sans-serif, sans-serif" font-size="12px" font-style="normal" font-weight="bold" text-decoration="normal" x="413" y="418" text-anchor="start" dominant-baseline="alphabetic" fill-opacity="1">–1</text><text fill="none" stroke="rgb(255,255,255)" font-family="geogebra-sans-serif, sans-serif" font-size="12px" font-style="normal" font-weight="bold" text-decoration="normal" x="413" y="418" text-anchor="start" dominant-baseline="alphabetic" stroke-opacity="1" stroke-linejoin="bevel" stroke-miterlimit="10" stroke-width="3">–1</text><text fill="rgb(37,37,37)" stroke="none" font-family="geogebra-sans-serif, sans-serif" font-size="12px" font-style="normal" font-weight="bold" text-decoration="normal" x="413" y="418" text-anchor="start" dominant-baseline="alphabetic" fill-opacity="1">–1</text><path fill="none" stroke="rgb(37,37,37)" paint-order="fill stroke markers" d=" M 420 402 L 420 405" stroke-opacity="1" stroke-miterlimit="10" stroke-width="2"/><text fill="rgb(37,37,37)" stroke="none" font-family="geogebra-sans-serif, sans-serif" font-size="12px" font-style="normal" font-weight="bold" text-decoration="normal" x="485" y="418" text-anchor="start" dominant-baseline="alphabetic" fill-opacity="1">–0.5</text><text fill="none" stroke="rgb(255,255,255)" font-family="geogebra-sans-serif, sans-serif" font-size="12px" font-style="normal" font-weight="bold" text-decoration="normal" x="485" y="418" text-anchor="start" dominant-baseline="alphabetic" stroke-opacity="1" stroke-linejoin="bevel" stroke-miterlimit="10" stroke-width="3">–0.5</text><text fill="rgb(37,37,37)" stroke="none" font-family="geogebra-sans-serif, sans-serif" font-size="12px" font-style="normal" font-weight="bold" text-decoration="normal" x="485" y="418" text-anchor="start" dominant-baseline="alphabetic" fill-opacity="1">–0.5</text><path fill="none" stroke="rgb(37,37,37)" paint-order="fill stroke markers" d=" M 499 402 L 499 405" stroke-opacity="1" stroke-miterlimit="10" stroke-width="2"/><path fill="none" stroke="rgb(37,37,37)" paint-order="fill stroke markers" d=" M 578 402 L 578 405" stroke-opacity="1" stroke-miterlimit="10" stroke-width="2"/><text fill="rgb(37,37,37)" stroke="none" font-family="geogebra-sans-serif, sans-serif" font-size="12px" font-style="normal" font-weight="bold" text-decoration="normal" x="646" y="418" text-anchor="start" dominant-baseline="alphabetic" fill-opacity="1">0.5</text><text fill="none" stroke="rgb(255,255,255)" font-family="geogebra-sans-serif, sans-serif" font-size="12px" font-style="normal" font-weight="bold" text-decoration="normal" x="646" y="418" text-anchor="start" dominant-baseline="alphabetic" stroke-opacity="1" stroke-linejoin="bevel" stroke-miterlimit="10" stroke-width="3">0.5</text><text fill="rgb(37,37,37)" stroke="none" font-family="geogebra-sans-serif, sans-serif" font-size="12px" font-style="normal" font-weight="bold" text-decoration="normal" x="646" y="418" text-anchor="start" dominant-baseline="alphabetic" fill-opacity="1">0.5</text><path fill="none" stroke="rgb(37,37,37)" paint-order="fill stroke markers" d=" M 657 402 L 657 405" stroke-opacity="1" stroke-miterlimit="10" stroke-width="2"/><text fill="rgb(37,37,37)" stroke="none" font-family="geogebra-sans-serif, sans-serif" font-size="12px" font-style="normal" font-weight="bold" text-decoration="normal" x="732" y="418" text-anchor="start" dominant-baseline="alphabetic" fill-opacity="1">1</text><text fill="none" stroke="rgb(255,255,255)" font-family="geogebra-sans-serif, sans-serif" font-size="12px" font-style="normal" font-weight="bold" text-decoration="normal" x="732" y="418" text-anchor="start" dominant-baseline="alphabetic" stroke-opacity="1" stroke-linejoin="bevel" stroke-miterlimit="10" stroke-width="3">1</text><text fill="rgb(37,37,37)" stroke="none" font-family="geogebra-sans-serif, sans-serif" font-size="12px" font-style="normal" font-weight="bold" text-decoration="normal" x="732" y="418" text-anchor="start" dominant-baseline="alphabetic" fill-opacity="1">1</text><path fill="none" stroke="rgb(37,37,37)" paint-order="fill stroke markers" d=" M 735 402 L 735 405" stroke-opacity="1" stroke-miterlimit="10" stroke-width="2"/><text fill="rgb(37,37,37)" stroke="none" font-family="geogebra-sans-serif, sans-serif" font-size="12px" font-style="normal" font-weight="bold" text-decoration="normal" x="804" y="418" text-anchor="start" dominant-baseline="alphabetic" fill-opacity="1">1.5</text><text fill="none" stroke="rgb(255,255,255)" font-family="geogebra-sans-serif, sans-serif" font-size="12px" font-style="normal" font-weight="bold" text-decoration="normal" x="804" y="418" text-anchor="start" dominant-baseline="alphabetic" stroke-opacity="1" stroke-linejoin="bevel" stroke-miterlimit="10" stroke-width="3">1.5</text><text fill="rgb(37,37,37)" stroke="none" font-family="geogebra-sans-serif, sans-serif" font-size="12px" font-style="normal" font-weight="bold" text-decoration="normal" x="804" y="418" text-anchor="start" dominant-baseline="alphabetic" fill-opacity="1">1.5</text><path fill="none" stroke="rgb(37,37,37)" paint-order="fill stroke markers" d=" M 814 402 L 814 405" stroke-opacity="1" stroke-miterlimit="10" stroke-width="2"/><text fill="rgb(37,37,37)" stroke="none" font-family="geogebra-sans-serif, sans-serif" font-size="12px" font-style="normal" font-weight="bold" text-decoration="normal" x="890" y="418" text-anchor="start" dominant-baseline="alphabetic" fill-opacity="1">2</text><text fill="none" stroke="rgb(255,255,255)" font-family="geogebra-sans-serif, sans-serif" font-size="12px" font-style="normal" font-weight="bold" text-decoration="normal" x="890" y="418" text-anchor="start" dominant-baseline="alphabetic" stroke-opacity="1" stroke-linejoin="bevel" stroke-miterlimit="10" stroke-width="3">2</text><text fill="rgb(37,37,37)" stroke="none" font-family="geogebra-sans-serif, sans-serif" font-size="12px" font-style="normal" font-weight="bold" text-decoration="normal" x="890" y="418" text-anchor="start" dominant-baseline="alphabetic" fill-opacity="1">2</text><path fill="none" stroke="rgb(37,37,37)" paint-order="fill stroke markers" d=" M 893 402 L 893 405" stroke-opacity="1" stroke-miterlimit="10" stroke-width="2"/><text fill="rgb(37,37,37)" stroke="none" font-family="geogebra-sans-serif, sans-serif" font-size="12px" font-style="normal" font-weight="bold" text-decoration="normal" x="962" y="418" text-anchor="start" dominant-baseline="alphabetic" fill-opacity="1">2.5</text><text fill="none" stroke="rgb(255,255,255)" font-family="geogebra-sans-serif, sans-serif" font-size="12px" font-style="normal" font-weight="bold" text-decoration="normal" x="962" y="418" text-anchor="start" dominant-baseline="alphabetic" stroke-opacity="1" stroke-linejoin="bevel" stroke-miterlimit="10" stroke-width="3">2.5</text><text fill="rgb(37,37,37)" stroke="none" font-family="geogebra-sans-serif, sans-serif" font-size="12px" font-style="normal" font-weight="bold" text-decoration="normal" x="962" y="418" text-anchor="start" dominant-baseline="alphabetic" fill-opacity="1">2.5</text><path fill="none" stroke="rgb(37,37,37)" paint-order="fill stroke markers" d=" M 972 402 L 972 405" stroke-opacity="1" stroke-miterlimit="10" stroke-width="2"/><text fill="rgb(37,37,37)" stroke="none" font-family="geogebra-sans-serif, sans-serif" font-size="12px" font-style="normal" font-weight="bold" text-decoration="normal" x="1048" y="418" text-anchor="start" dominant-baseline="alphabetic" fill-opacity="1">3</text><text fill="none" stroke="rgb(255,255,255)" font-family="geogebra-sans-serif, sans-serif" font-size="12px" font-style="normal" font-weight="bold" text-decoration="normal" x="1048" y="418" text-anchor="start" dominant-baseline="alphabetic" stroke-opacity="1" stroke-linejoin="bevel" stroke-miterlimit="10" stroke-width="3">3</text><text fill="rgb(37,37,37)" stroke="none" font-family="geogebra-sans-serif, sans-serif" font-size="12px" font-style="normal" font-weight="bold" text-decoration="normal" x="1048" y="418" text-anchor="start" dominant-baseline="alphabetic" fill-opacity="1">3</text><path fill="none" stroke="rgb(37,37,37)" paint-order="fill stroke markers" d=" M 1051 402 L 1051 405" stroke-opacity="1" stroke-miterlimit="10" stroke-width="2"/><text fill="rgb(37,37,37)" stroke="none" font-family="geogebra-sans-serif, sans-serif" font-size="12px" font-style="normal" font-weight="bold" text-decoration="normal" x="1119" y="418" text-anchor="start" dominant-baseline="alphabetic" fill-opacity="1">3.5</text><text fill="none" stroke="rgb(255,255,255)" font-family="geogebra-sans-serif, sans-serif" font-size="12px" font-style="normal" font-weight="bold" text-decoration="normal" x="1119" y="418" text-anchor="start" dominant-baseline="alphabetic" stroke-opacity="1" stroke-linejoin="bevel" stroke-miterlimit="10" stroke-width="3">3.5</text><text fill="rgb(37,37,37)" stroke="none" font-family="geogebra-sans-serif, sans-serif" font-size="12px" font-style="normal" font-weight="bold" text-decoration="normal" x="1119" y="418" text-anchor="start" dominant-baseline="alphabetic" fill-opacity="1">3.5</text><path fill="none" stroke="rgb(37,37,37)" paint-order="fill stroke markers" d=" M 1130 402 L 1130 405" stroke-opacity="1" stroke-miterlimit="10" stroke-width="2"/><text fill="rgb(37,37,37)" stroke="none" font-family="geogebra-sans-serif, sans-serif" font-size="12px" font-style="normal" font-weight="bold" text-decoration="normal" x="1205" y="418" text-anchor="start" dominant-baseline="alphabetic" fill-opacity="1">4</text><text fill="none" stroke="rgb(255,255,255)" font-family="geogebra-sans-serif, sans-serif" font-size="12px" font-style="normal" font-weight="bold" text-decoration="normal" x="1205" y="418" text-anchor="start" dominant-baseline="alphabetic" stroke-opacity="1" stroke-linejoin="bevel" stroke-miterlimit="10" stroke-width="3">4</text><text fill="rgb(37,37,37)" stroke="none" font-family="geogebra-sans-serif, sans-serif" font-size="12px" font-style="normal" font-weight="bold" text-decoration="normal" x="1205" y="418" text-anchor="start" dominant-baseline="alphabetic" fill-opacity="1">4</text><path fill="none" stroke="rgb(37,37,37)" paint-order="fill stroke markers" d=" M 1208 402 L 1208 405" stroke-opacity="1" stroke-miterlimit="10" stroke-width="2"/><text fill="rgb(37,37,37)" stroke="none" font-family="geogebra-sans-serif, sans-serif" font-size="12px" font-style="normal" font-weight="bold" text-decoration="normal" x="1277" y="418" text-anchor="start" dominant-baseline="alphabetic" fill-opacity="1">4.5</text><text fill="none" stroke="rgb(255,255,255)" font-family="geogebra-sans-serif, sans-serif" font-size="12px" font-style="normal" font-weight="bold" text-decoration="normal" x="1277" y="418" text-anchor="start" dominant-baseline="alphabetic" stroke-opacity="1" stroke-linejoin="bevel" stroke-miterlimit="10" stroke-width="3">4.5</text><text fill="rgb(37,37,37)" stroke="none" font-family="geogebra-sans-serif, sans-serif" font-size="12px" font-style="normal" font-weight="bold" text-decoration="normal" x="1277" y="418" text-anchor="start" dominant-baseline="alphabetic" fill-opacity="1">4.5</text><path fill="none" stroke="rgb(37,37,37)" paint-order="fill stroke markers" d=" M 1287 402 L 1287 405" stroke-opacity="1" stroke-miterlimit="10" stroke-width="2"/><text fill="rgb(37,37,37)" stroke="none" font-family="geogebra-sans-serif, sans-serif" font-size="12px" font-style="normal" font-weight="bold" text-decoration="normal" x="1363" y="418" text-anchor="start" dominant-baseline="alphabetic" fill-opacity="1">5</text><text fill="none" stroke="rgb(255,255,255)" font-family="geogebra-sans-serif, sans-serif" font-size="12px" font-style="normal" font-weight="bold" text-decoration="normal" x="1363" y="418" text-anchor="start" dominant-baseline="alphabetic" stroke-opacity="1" stroke-linejoin="bevel" stroke-miterlimit="10" stroke-width="3">5</text><text fill="rgb(37,37,37)" stroke="none" font-family="geogebra-sans-serif, sans-serif" font-size="12px" font-style="normal" font-weight="bold" text-decoration="normal" x="1363" y="418" text-anchor="start" dominant-baseline="alphabetic" fill-opacity="1">5</text><path fill="none" stroke="rgb(37,37,37)" paint-order="fill stroke markers" d=" M 1366 402 L 1366 405" stroke-opacity="1" stroke-miterlimit="10" stroke-width="2"/><path fill="none" stroke="rgb(37,37,37)" paint-order="fill stroke markers" d=" M 575 796 L 578 796" stroke-opacity="1" stroke-miterlimit="10" stroke-width="2"/><path fill="none" stroke="rgb(37,37,37)" paint-order="fill stroke markers" d=" M 575 717 L 578 717" stroke-opacity="1" stroke-miterlimit="10" stroke-width="2"/><path fill="none" stroke="rgb(37,37,37)" paint-order="fill stroke markers" d=" M 575 639 L 578 639" stroke-opacity="1" stroke-miterlimit="10" stroke-width="2"/><path fill="none" stroke="rgb(37,37,37)" paint-order="fill stroke markers" d=" M 575 560 L 578 560" stroke-opacity="1" stroke-miterlimit="10" stroke-width="2"/><path fill="none" stroke="rgb(37,37,37)" paint-order="fill stroke markers" d=" M 575 481 L 578 481" stroke-opacity="1" stroke-miterlimit="10" stroke-width="2"/><path fill="none" stroke="rgb(37,37,37)" paint-order="fill stroke markers" d=" M 575 323 L 578 323" stroke-opacity="1" stroke-miterlimit="10" stroke-width="2"/><path fill="none" stroke="rgb(37,37,37)" paint-order="fill stroke markers" d=" M 575 245 L 578 245" stroke-opacity="1" stroke-miterlimit="10" stroke-width="2"/><path fill="none" stroke="rgb(37,37,37)" paint-order="fill stroke markers" d=" M 575 166 L 578 166" stroke-opacity="1" stroke-miterlimit="10" stroke-width="2"/><path fill="none" stroke="rgb(37,37,37)" paint-order="fill stroke markers" d=" M 575 87 L 578 87" stroke-opacity="1" stroke-miterlimit="10" stroke-width="2"/><text fill="rgb(37,37,37)" stroke="none" font-family="geogebra-sans-serif, sans-serif" font-size="12px" font-style="normal" font-weight="bold" text-decoration="normal" x="547" y="801" text-anchor="start" dominant-baseline="alphabetic" fill-opacity="1">–2.5</text><text fill="none" stroke="rgb(255,255,255)" font-family="geogebra-sans-serif, sans-serif" font-size="12px" font-style="normal" font-weight="bold" text-decoration="normal" x="547" y="801" text-anchor="start" dominant-baseline="alphabetic" stroke-opacity="1" stroke-linejoin="bevel" stroke-miterlimit="10" stroke-width="3">–2.5</text><text fill="rgb(37,37,37)" stroke="none" font-family="geogebra-sans-serif, sans-serif" font-size="12px" font-style="normal" font-weight="bold" text-decoration="normal" x="547" y="801" text-anchor="start" dominant-baseline="alphabetic" fill-opacity="1">–2.5</text><text fill="rgb(37,37,37)" stroke="none" font-family="geogebra-sans-serif, sans-serif" font-size="12px" font-style="normal" font-weight="bold" text-decoration="normal" x="557" y="722" text-anchor="start" dominant-baseline="alphabetic" fill-opacity="1">–2</text><text fill="none" stroke="rgb(255,255,255)" font-family="geogebra-sans-serif, sans-serif" font-size="12px" font-style="normal" font-weight="bold" text-decoration="normal" x="557" y="722" text-anchor="start" dominant-baseline="alphabetic" stroke-opacity="1" stroke-linejoin="bevel" stroke-miterlimit="10" stroke-width="3">–2</text><text fill="rgb(37,37,37)" stroke="none" font-family="geogebra-sans-serif, sans-serif" font-size="12px" font-style="normal" font-weight="bold" text-decoration="normal" x="557" y="722" text-anchor="start" dominant-baseline="alphabetic" fill-opacity="1">–2</text><text fill="rgb(37,37,37)" stroke="none" font-family="geogebra-sans-serif, sans-serif" font-size="12px" font-style="normal" font-weight="bold" text-decoration="normal" x="547" y="643" text-anchor="start" dominant-baseline="alphabetic" fill-opacity="1">–1.5</text><text fill="none" stroke="rgb(255,255,255)" font-family="geogebra-sans-serif, sans-serif" font-size="12px" font-style="normal" font-weight="bold" text-decoration="normal" x="547" y="643" text-anchor="start" dominant-baseline="alphabetic" stroke-opacity="1" stroke-linejoin="bevel" stroke-miterlimit="10" stroke-width="3">–1.5</text><text fill="rgb(37,37,37)" stroke="none" font-family="geogebra-sans-serif, sans-serif" font-size="12px" font-style="normal" font-weight="bold" text-decoration="normal" x="547" y="643" text-anchor="start" dominant-baseline="alphabetic" fill-opacity="1">–1.5</text><text fill="rgb(37,37,37)" stroke="none" font-family="geogebra-sans-serif, sans-serif" font-size="12px" font-style="normal" font-weight="bold" text-decoration="normal" x="557" y="564" text-anchor="start" dominant-baseline="alphabetic" fill-opacity="1">–1</text><text fill="none" stroke="rgb(255,255,255)" font-family="geogebra-sans-serif, sans-serif" font-size="12px" font-style="normal" font-weight="bold" text-decoration="normal" x="557" y="564" text-anchor="start" dominant-baseline="alphabetic" stroke-opacity="1" stroke-linejoin="bevel" stroke-miterlimit="10" stroke-width="3">–1</text><text fill="rgb(37,37,37)" stroke="none" font-family="geogebra-sans-serif, sans-serif" font-size="12px" font-style="normal" font-weight="bold" text-decoration="normal" x="557" y="564" text-anchor="start" dominant-baseline="alphabetic" fill-opacity="1">–1</text><text fill="rgb(37,37,37)" stroke="none" font-family="geogebra-sans-serif, sans-serif" font-size="12px" font-style="normal" font-weight="bold" text-decoration="normal" x="547" y="486" text-anchor="start" dominant-baseline="alphabetic" fill-opacity="1">–0.5</text><text fill="none" stroke="rgb(255,255,255)" font-family="geogebra-sans-serif, sans-serif" font-size="12px" font-style="normal" font-weight="bold" text-decoration="normal" x="547" y="486" text-anchor="start" dominant-baseline="alphabetic" stroke-opacity="1" stroke-linejoin="bevel" stroke-miterlimit="10" stroke-width="3">–0.5</text><text fill="rgb(37,37,37)" stroke="none" font-family="geogebra-sans-serif, sans-serif" font-size="12px" font-style="normal" font-weight="bold" text-decoration="normal" x="547" y="486" text-anchor="start" dominant-baseline="alphabetic" fill-opacity="1">–0.5</text><text fill="rgb(37,37,37)" stroke="none" font-family="geogebra-sans-serif, sans-serif" font-size="12px" font-style="normal" font-weight="bold" text-decoration="normal" x="553" y="328" text-anchor="start" dominant-baseline="alphabetic" fill-opacity="1">0.5</text><text fill="none" stroke="rgb(255,255,255)" font-family="geogebra-sans-serif, sans-serif" font-size="12px" font-style="normal" font-weight="bold" text-decoration="normal" x="553" y="328" text-anchor="start" dominant-baseline="alphabetic" stroke-opacity="1" stroke-linejoin="bevel" stroke-miterlimit="10" stroke-width="3">0.5</text><text fill="rgb(37,37,37)" stroke="none" font-family="geogebra-sans-serif, sans-serif" font-size="12px" font-style="normal" font-weight="bold" text-decoration="normal" x="553" y="328" text-anchor="start" dominant-baseline="alphabetic" fill-opacity="1">0.5</text><text fill="rgb(37,37,37)" stroke="none" font-family="geogebra-sans-serif, sans-serif" font-size="12px" font-style="normal" font-weight="bold" text-decoration="normal" x="563" y="249" text-anchor="start" dominant-baseline="alphabetic" fill-opacity="1">1</text><text fill="none" stroke="rgb(255,255,255)" font-family="geogebra-sans-serif, sans-serif" font-size="12px" font-style="normal" font-weight="bold" text-decoration="normal" x="563" y="249" text-anchor="start" dominant-baseline="alphabetic" stroke-opacity="1" stroke-linejoin="bevel" stroke-miterlimit="10" stroke-width="3">1</text><text fill="rgb(37,37,37)" stroke="none" font-family="geogebra-sans-serif, sans-serif" font-size="12px" font-style="normal" font-weight="bold" text-decoration="normal" x="563" y="249" text-anchor="start" dominant-baseline="alphabetic" fill-opacity="1">1</text><text fill="rgb(37,37,37)" stroke="none" font-family="geogebra-sans-serif, sans-serif" font-size="12px" font-style="normal" font-weight="bold" text-decoration="normal" x="553" y="170" text-anchor="start" dominant-baseline="alphabetic" fill-opacity="1">1.5</text><text fill="none" stroke="rgb(255,255,255)" font-family="geogebra-sans-serif, sans-serif" font-size="12px" font-style="normal" font-weight="bold" text-decoration="normal" x="553" y="170" text-anchor="start" dominant-baseline="alphabetic" stroke-opacity="1" stroke-linejoin="bevel" stroke-miterlimit="10" stroke-width="3">1.5</text><text fill="rgb(37,37,37)" stroke="none" font-family="geogebra-sans-serif, sans-serif" font-size="12px" font-style="normal" font-weight="bold" text-decoration="normal" x="553" y="170" text-anchor="start" dominant-baseline="alphabetic" fill-opacity="1">1.5</text><text fill="rgb(37,37,37)" stroke="none" font-family="geogebra-sans-serif, sans-serif" font-size="12px" font-style="normal" font-weight="bold" text-decoration="normal" x="563" y="91" text-anchor="start" dominant-baseline="alphabetic" fill-opacity="1">2</text><text fill="none" stroke="rgb(255,255,255)" font-family="geogebra-sans-serif, sans-serif" font-size="12px" font-style="normal" font-weight="bold" text-decoration="normal" x="563" y="91" text-anchor="start" dominant-baseline="alphabetic" stroke-opacity="1" stroke-linejoin="bevel" stroke-miterlimit="10" stroke-width="3">2</text><text fill="rgb(37,37,37)" stroke="none" font-family="geogebra-sans-serif, sans-serif" font-size="12px" font-style="normal" font-weight="bold" text-decoration="normal" x="563" y="91" text-anchor="start" dominant-baseline="alphabetic" fill-opacity="1">2</text><text fill="rgb(37,37,37)" stroke="none" font-family="geogebra-sans-serif, sans-serif" font-size="12px" font-style="normal" font-weight="bold" text-decoration="normal" x="563" y="418" text-anchor="start" dominant-baseline="alphabetic" fill-opacity="1">0</text><text fill="none" stroke="rgb(255,255,255)" font-family="geogebra-sans-serif, sans-serif" font-size="12px" font-style="normal" font-weight="bold" text-decoration="normal" x="563" y="418" text-anchor="start" dominant-baseline="alphabetic" stroke-opacity="1" stroke-linejoin="bevel" stroke-miterlimit="10" stroke-width="3">0</text><text fill="rgb(37,37,37)" stroke="none" font-family="geogebra-sans-serif, sans-serif" font-size="12px" font-style="normal" font-weight="bold" text-decoration="normal" x="563" y="418" text-anchor="start" dominant-baseline="alphabetic" fill-opacity="1">0</text><path fill="none" stroke="rgb(211,47,47)" paint-order="fill stroke markers" d=" M 579 1173.7218386020186 L 579 1469.7416850709192 L 579 1173.721838602019 L 580 1076.9971683113577 L 580 1076.997168311358 L 581 1017.4939896392401 L 581 1017.4939896392402 L 582 974.3988536186575 L 582 974.3988536186577 L 583 940.5915933597992 L 583 940.5915933597994 L 584 912.7700703224041 L 584 912.7700703224042 L 585 889.1301429958713 L 585 889.1301429958714 L 586 868.5775124211345 L 586 868.5775124211348 L 587 850.3981531919887 L 587 850.398153191989 L 588 834.1002694382385 L 588 834.1002694382386 L 589 819.3306815580959 L 589 819.330681558096 L 590 805.8271778737512 L 590 805.8271778737515 L 591 793.3897292746892 L 591 793.3897292746893 L 592 781.8622596785517 L 592 781.8622596785518 L 593 771.1206429702712 L 593 771.1206429702713 L 594 761.0645367471858 L 594 761.0645367471859 L 595 751.6116691610157 L 595 751.6116691610158 L 596 742.6937444753527 L 596 742.6937444753528 L 597 734.2534463702427 L 597 734.253446370243 L 598 726.2422037201436 L 598 726.2422037201438 L 599 718.6184972726796 L 599 718.6184972726799 L 600 711.3465573178046 L 600 711.3465573178046 L 601 704.3953487764875 L 601 704.3953487764876 L 602 697.737770797029 L 602 697.737770797029 L 603 691.350018653398 L 603 691.3500186533981 L 604 685.2110699870327 L 604 685.2110699870327 L 605 679.3022674033353 L 605 679.3022674033355 L 606 673.606976519162 L 606 673.6069765191621 L 607 668.1103036642794 L 607 668.1103036642795 L 608 662.798861168637 L 608 662.7988611686371 L 609 657.6605709229592 L 609 657.6605709229592 L 610 652.6844989593628 L 610 652.6844989593628 L 611 647.8607153534174 L 611 647.8607153534174 L 612 643.1801749342123 L 612 643.1801749342125 L 613 638.634615200564 L 613 638.634615200564 L 614 634.2164685485404 L 614 634.2164685485405 L 615 629.9187864682299 L 615 629.9187864682299 L 616 625.7351738029893 L 616 625.7351738029893 L 617 621.6597315096553 L 617 621.6597315096553 L 618 617.6870066337867 L 618 617.6870066337868 L 619 613.8119484353829 L 619 613.811948435383 L 620 610.0298697793819 L 620 610.0298697793819 L 621 606.336413050564 L 621 606.336413050564 L 622 602.7275199711783 L 622 602.7275199711784 L 623 599.1994047970439 L 623 599.199404797044 L 624 595.7485304482411 L 624 595.7485304482411 L 625 592.3715871970894 L 625 592.3715871970894 L 626 589.0654735915249 L 626 589.065473591525 L 627 585.8272793382822 L 627 585.8272793382822 L 628 582.6542699091342 L 628 582.6542699091342 L 629 579.5438726661498 L 629 579.5438726661499 L 630 576.4936643295736 L 630 576.4936643295737 L 631 573.5013596353751 L 631 573.5013596353751 L 632 570.5648010494699 L 632 570.56480104947 L 633 567.6819494226387 L 633 567.6819494226388 L 634 564.850875484759 L 634 564.850875484759 L 635 562.0697520894839 L 635 562.0697520894839 L 636 559.3368471312931 L 636 559.3368471312931 L 637 556.6505170661522 L 637 556.6505170661524 L 638 554.0092009750886 L 638 554.0092009750887 L 639 551.4114151169894 L 639 551.4114151169894 L 640 548.8557479230269 L 640 548.8557479230269 L 641 546.3408553904296 L 641 546.3408553904296 L 642 543.8654568379663 L 642 543.8654568379663 L 643 541.4283309895852 L 643 541.4283309895852 L 644 539.0283123562266 L 644 539.0283123562266 L 645 536.6642878889744 L 645 536.6642878889745 L 646 534.3351938794898 L 646 534.3351938794899 L 647 532.0400130861202 L 647 532.0400130861203 L 648 529.77777206625 L 648 529.77777206625 L 649 527.5475386973823 L 649 527.5475386973823 L 650 525.3484198711524 L 650 525.3484198711524 L 651 523.1795593459963 L 651 523.1795593459964 L 652 521.0401357455509 L 652 521.040135745551 L 653 518.9293606910785 L 653 518.9293606910785 L 654 516.8464770572873 L 654 516.8464770572873 L 655 514.790757341893 L 655 514.790757341893 L 656 512.7615021401335 L 656 512.7615021401335 L 657 510.7580387162343 L 657 510.75803871623435 L 658 508.77971966452225 L 658 508.7797196645223 L 659 506.82592165352025 L 659 506.82592165352025 L 660 504.89604424692766 L 660 504.8960442469277 L 661 502.9895087959052 L 661 502.98950879590524 L 662 501.10575739755205 L 662 501.1057573975521 L 663 499.2442519148848 L 663 499.2442519148848 L 664 497.40447305401045 L 664 497.4044730540105 L 665 495.5859194945354 L 665 495.58591949453546 L 666 493.788107069565 L 666 493.78810706956506 L 667 492.0105679919409 L 667 492.0105679919409 L 668 490.25285012362025 L 668 490.25285012362025 L 669 488.5145162853433 L 669 488.51451628534335 L 670 486.795143603952 L 670 486.79514360395206 L 671 485.09432289492185 L 671 485.0943228949219 L 672 483.41165807785205 L 672 483.4116580778521 L 673 481.7467656228249 L 673 481.7467656228249 L 674 480.09927402569815 L 674 480.09927402569815 L 675 478.46882331053547 L 675 478.4688233105355 L 676 476.8550645575075 L 676 476.8550645575075 L 677 475.2576594547142 L 677 475.25765945471426 L 678 473.67627987248994 L 678 473.67627987248994 L 679 472.1106074588496 L 679 472.1106074588496 L 680 470.56033325482974 L 680 470.56033325482974 L 681 469.02515732856125 L 681 469.0251573285613 L 682 467.5047884269898 L 682 467.5047884269899 L 683 465.9989436442324 L 683 465.99894364423244 L 684 464.5073481056253 L 684 464.50734810562534 L 685 463.0297346665814 L 685 463.0297346665815 L 686 461.56584362543106 L 686 461.56584362543106 L 687 460.1154224494745 L 687 460.1154224494745 L 688 458.6782255135238 L 688 458.6782255135238 L 689 457.2540138502559 L 689 457.2540138502559 L 690 455.8425549117437 L 690 455.8425549117438 L 691 454.44362234156904 L 691 454.44362234156904 L 692 453.0569957569584 L 692 453.0569957569584 L 693 451.682460540419 L 693 451.682460540419 L 694 450.31980764038053 L 694 450.31980764038053 L 695 448.96883338038 L 695 448.96883338038 L 696 447.62933927635453 L 696 447.62933927635453 L 697 446.301131861632 L 697 446.30113186163203 L 698 444.98402251923284 L 698 444.9840225192329 L 699 443.6778273211209 L 699 443.67782732112096 L 700 442.3823668740593 L 700 442.3823668740593 L 701 441.0974661717491 L 701 441.0974661717491 L 702 439.82295445294574 L 702 439.82295445294574 L 703 438.5586650652655 L 703 438.55866506526553 L 704 437.3044353344103 L 704 437.3044353344103 L 705 436.0601064385544 L 705 436.0601064385544 L 706 434.8255232876502 L 706 434.8255232876502 L 707 433.6005344074241 L 707 433.60053440742416 L 708 432.38499182784494 L 708 432.38499182784494 L 709 431.17875097585966 L 709 431.17875097585966 L 710 429.9816705722028 L 710 429.9816705722028 L 711 428.793612532094 L 711 428.793612532094 L 712 427.61444186965014 L 712 427.61444186965014 L 713 426.4440266058461 L 713 426.4440266058461 L 714 425.2822376798677 L 714 425.2822376798677 L 715 424.1289488637072 L 715 424.1289488637072 L 716 422.98403667986054 L 716 422.98403667986054 L 717 421.8473803219922 L 717 421.8473803219922 L 718 420.7188615784398 L 718 420.7188615784398 L 719 419.59836475843787 L 719 419.59836475843787 L 720 418.48577662094436 L 720 418.48577662094436 L 721 417.3809863059628 L 721 417.3809863059628 L 722 416.28388526825336 L 722 416.28388526825336 L 723 415.1943672133352 L 723 415.1943672133352 L 724 414.11232803568544 L 724 414.11232803568544 L 725 413.0376657590446 L 725 413.0376657590446 L 726 411.97028047874375 L 726 411.97028047874375 L 727 410.9100743059701 L 727 410.9100743059701 L 728 409.8569513138959 L 728 409.8569513138959 L 729 408.81081748559325 L 729 408.81081748559325 L 730 407.7715806636677 L 730 407.7715806636677 L 731 406.7391505015396 L 731 406.7391505015396 L 732 405.71343841631193 L 732 405.71343841631193 L 733 404.6943575431606 L 733 404.6943575431606 L 734 403.6818226911906 L 734 403.6818226911906 L 735 402.67575030069986 L 735 402.67575030069986 L 736 401.6760584017995 L 736 401.6760584017995 L 737 400.68266657433685 L 737 400.68266657433685 L 738 399.69549590907394 L 738 399.69549590907394 L 739 398.71446897007434 L 739 398.71446897007434 L 740 397.7395097582523 L 740 397.7395097582523 L 741 396.7705436760434 L 741 396.7705436760434 L 742 395.80749749315345 L 742 395.80749749315345 L 743 394.8502993133477 L 743 394.8502993133477 L 744 393.8988785422427 L 744 393.8988785422427 L 745 392.9531658560636 L 745 392.9531658560636 L 746 392.0130931713337 L 746 392.0130931713337 L 747 391.0785936154622 L 747 391.0785936154622 L 748 390.14960149819854 L 748 390.14960149819854 L 749 389.2260522839235 L 749 389.2260522839235 L 750 388.3078825647465 L 750 388.3078825647465 L 751 387.3950300343828 L 751 387.3950300343828 L 752 386.48743346278184 L 752 386.48743346278184 L 753 385.58503267148274 L 753 385.58503267148274 L 754 384.68776850967026 L 754 384.68776850967026 L 755 383.7955828309092 L 755 383.7955828309092 L 756 382.9084184705331 L 756 382.9084184705331 L 757 382.02621922366563 L 757 382.02621922366563 L 758 381.1489298238539 L 758 381.1489298238539 L 759 380.2764959222927 L 759 380.2764959222928 L 760 379.408864067621 L 760 379.408864067621 L 761 378.5459816862706 L 761 378.5459816862706 L 762 377.68779706335073 L 762 377.68779706335073 L 763 376.8342593240496 L 763 376.8342593240496 L 764 375.9853184155367 L 764 375.9853184155367 L 765 375.1409250893502 L 765 375.1409250893502 L 766 374.30103088425324 L 766 374.30103088425324 L 767 373.4655881095448 L 767 373.46558810954485 L 768 372.6345498288103 L 768 372.6345498288103 L 769 371.8078698440984 L 769 371.8078698440984 L 770 370.9855026805104 L 770 370.9855026805104 L 771 370.1674035711901 L 771 370.1674035711901 L 772 369.3535284427001 L 772 369.3535284427001 L 773 368.5438339007749 L 773 368.5438339007749 L 774 367.73827721643715 L 774 367.73827721643715 L 775 366.93681631246716 L 775 366.93681631246716 L 776 366.1394097502149 L 776 366.13940975021495 L 777 365.3460167167434 L 777 365.34601671674346 L 778 364.5565970122945 L 778 364.5565970122945 L 779 363.7711110380666 L 779 363.7711110380666 L 780 362.9895197842955 L 780 362.9895197842955 L 781 362.2117848186298 L 781 362.2117848186298 L 782 361.43786827479045 L 782 361.4378682747905 L 783 360.66773284150884 L 783 360.66773284150884 L 784 359.9013417517324 L 784 359.90134175173245 L 785 359.1386587720926 L 785 359.1386587720926 L 786 358.3796481926253 L 786 358.3796481926253 L 787 357.6242748167386 L 787 357.6242748167386 L 788 356.8725039514187 L 788 356.87250395141876 L 789 356.1243013976695 L 789 356.12430139766957 L 790 355.37963344117685 L 790 355.37963344117685 L 791 354.6384668431929 L 791 354.6384668431929 L 792 353.9007688316337 L 792 353.9007688316337 L 793 353.1665070923842 L 793 353.1665070923842 L 794 352.4356497608045 L 794 352.4356497608045 L 795 351.7081654134323 L 795 351.7081654134323 L 796 350.98402305987617 L 796 350.9840230598762 L 797 350.2631921348937 L 797 350.2631921348937 L 798 349.5456424906503 L 798 349.5456424906503 L 799 348.8313443891534 L 799 348.8313443891534 L 800 348.12026849485704 L 800 348.1202684948571 L 801 347.4123858674329 L 801 347.4123858674329 L 802 346.7076679547023 L 802 346.7076679547023 L 803 346.0060865857264 L 803 346.0060865857264 L 804 345.30761396404864 L 804 345.30761396404864 L 805 344.61222266108666 L 805 344.6122226610867 L 806 343.9198856096694 L 806 343.9198856096694 L 807 343.230576097715 L 807 343.230576097715 L 808 342.5442677620472 L 808 342.5442677620472 L 809 341.8609345823448 L 809 341.8609345823448 L 810 341.1805508752225 L 810 341.18055087522254 L 811 340.5030912884385 L 811 340.5030912884385 L 812 339.8285307952259 L 812 339.82853079522596 L 813 339.1568446887457 L 813 339.15684468874576 L 814 338.48800857665634 L 814 338.48800857665634 L 815 337.8219983757986 L 815 337.8219983757986 L 816 337.1587903069926 L 816 337.1587903069926 L 817 336.4983608899431 L 817 336.4983608899431 L 818 335.84068693825145 L 818 335.84068693825145 L 819 335.1857455545313 L 819 335.1857455545313 L 820 334.5335141256249 L 820 334.5335141256249 L 821 333.8839703179185 L 821 333.88397031791857 L 822 333.2370920727537 L 822 333.23709207275374 L 823 332.59285760193205 L 823 332.5928576019321 L 824 331.951245383312 L 824 331.9512453833121 L 825 331.3122341564946 L 825 331.31223415649464 L 826 330.6758029185961 L 826 330.67580291859616 L 827 330.0419309201062 L 827 330.0419309201062 L 828 329.4105976608286 L 828 329.41059766082867 L 829 328.7817828859029 L 829 328.7817828859029 L 830 328.1554665819052 L 830 328.1554665819052 L 831 327.5316289730265 L 831 327.53162897302656 L 832 326.9102505173256 L 832 326.9102505173256 L 833 326.29131190305606 L 833 326.29131190305606 L 834 325.6747940450649 L 834 325.6747940450649 L 835 325.0606780812616 L 835 325.06067808126164 L 836 324.44894536915524 L 836 324.44894536915524 L 837 323.8395774824588 L 837 323.8395774824589 L 838 323.2325562077591 L 838 323.2325562077591 L 839 322.6278635412499 L 839 322.62786354124995 L 840 322.0254816855283 L 840 322.02548168552835 L 841 321.4253930464514 L 841 321.42539304645146 L 842 320.8275802300531 L 842 320.8275802300532 L 843 320.23202603951864 L 843 320.23202603951864 L 844 319.6387134722164 L 844 319.6387134722164 L 845 319.0476257167855 L 845 319.04762571678555 L 846 318.4587461502773 L 846 318.45874615027736 L 847 317.87205833535063 L 847 317.87205833535063 L 848 317.2875460175185 L 848 317.2875460175185 L 849 316.7051931224462 L 849 316.70519312244625 L 850 316.1249837532988 L 850 316.1249837532988 L 851 315.54690218813727 L 851 315.5469021881373 L 852 314.97093287736243 L 852 314.97093287736243 L 853 314.39706044120487 L 853 314.3970604412049 L 854 313.8252696672615 L 854 313.8252696672615 L 855 313.25554550807504 L 855 313.2555455080751 L 856 312.6878730787587 L 856 312.6878730787587 L 857 312.1222376546622 L 857 312.1222376546622 L 858 311.55862466908036 L 858 311.55862466908036 L 859 310.99701971100217 L 859 310.99701971100217 L 860 310.4374085228996 L 860 310.43740852289966 L 861 309.8797769985563 L 861 309.8797769985563 L 862 309.3241111809332 L 862 309.3241111809332 L 863 308.7703972600733 L 863 308.7703972600733 L 864 308.21862157104175 L 864 308.2186215710418 L 865 307.66877059190256 L 865 307.6687705919026 L 866 307.1208309417302 L 866 307.1208309417302 L 867 306.57478937865574 L 867 306.5747893786558 L 868 306.0306327979468 L 868 306.0306327979468 L 869 305.48834823012027 L 869 305.4883482301203 L 870 304.94792283908777 L 870 304.9479228390878 L 871 304.4093439203323 L 871 304.4093439203323 L 872 303.8725988991163 L 872 303.8725988991164 L 873 303.3376753287203 L 873 303.33767532872037 L 874 302.80456088871045 L 874 302.8045608887105 L 875 302.2732433832365 L 875 302.2732433832365 L 876 301.7437107393572 L 876 301.7437107393572 L 877 301.2159510053947 L 877 301.21595100539474 L 878 300.68995234931583 L 878 300.6899523493159 L 879 300.16570305714026 L 879 300.1657030571403 L 880 299.64319153137546 L 880 299.64319153137546 L 881 299.1224062894771 L 881 299.12240628947717 L 882 298.60333596233517 L 882 298.6033359623352 L 883 298.0859692927845 L 883 298.0859692927845 L 884 297.57029513414017 L 884 297.5702951341402 L 885 297.0563024487563 L 885 297.05630244875636 L 886 296.54398030660866 L 886 296.54398030660866 L 887 296.03331788389977 L 887 296.03331788389977 L 888 295.52430446168717 L 888 295.5243044616872 L 889 295.0169294245333 L 889 295.0169294245334 L 890 294.51118225917696 L 890 294.51118225917696 L 891 294.00705255322634 L 891 294.0070525532264 L 892 293.5045299938729 L 892 293.5045299938729 L 893 293.0036043666251 L 893 293.00360436662515 L 894 292.50426555406324 L 894 292.5042655540633 L 895 292.0065035346127 L 895 292.00650353461276 L 896 291.51030838133755 L 896 291.5103083813376 L 897 291.0156702607525 L 897 291.01567026075253 L 898 290.52257943165364 L 898 290.52257943165364 L 899 290.03102624396723 L 899 290.0310262439673 L 900 289.54100113761683 L 900 289.5410011376169 L 901 289.0524946414074 L 901 289.05249464140746 L 902 288.565497371927 L 902 288.565497371927 L 903 288.08000003246514 L 903 288.0800000324652 L 904 287.59599341194837 L 904 287.5959934119484 L 905 287.1134683838912 L 905 287.11346838389125 L 906 286.6324159053638 L 906 286.6324159053638 L 907 286.1528270159751 L 907 286.15282701597516 L 908 285.6746928368713 L 908 285.6746928368714 L 909 285.1980045697496 L 909 285.1980045697497 L 910 284.7227534958868 L 910 284.7227534958869 L 911 284.24893097518236 L 911 284.24893097518236 L 912 283.77652844521594 L 912 283.77652844521594 L 913 283.30553742031907 L 913 283.30553742031907 L 914 282.8359494906606 L 914 282.8359494906606 L 915 282.3677563213455 L 915 282.3677563213455 L 916 281.9009496515273 L 916 281.9009496515273 L 917 281.4355212935336 L 917 281.43552129353367 L 918 280.9714631320043 L 918 280.9714631320044 L 919 280.5087671230427 L 919 280.50876712304273 L 920 280.0474252933785 L 920 280.0474252933786 L 921 279.58742973954406 L 921 279.58742973954406 L 922 279.1287726270612 L 922 279.12877262706127 L 923 278.6714461896413 L 923 278.6714461896413 L 924 278.2154427283957 L 924 278.2154427283958 L 925 277.7607546110585 L 925 277.76075461105853 L 926 277.30737427121954 L 926 277.3073742712196 L 927 276.8552942075695 L 927 276.8552942075695 L 928 276.4045069831547 L 928 276.40450698315476 L 929 275.9550052246434 L 929 275.95500522464346 L 930 275.50678162160193 L 930 275.506781621602 L 931 275.05982892578146 L 931 275.0598289257815 L 932 274.61413995041454 L 932 274.6141399504146 L 933 274.169707569522 L 933 274.1697075695221 L 934 273.72652471722904 L 934 273.72652471722904 L 935 273.2845843870913 L 935 273.2845843870913 L 936 272.84387963143024 L 936 272.8438796314303 L 937 272.4044035606779 L 937 272.40440356067796 L 938 271.96614934273043 L 938 271.9661493427305 L 939 271.5291102023109 L 939 271.5291102023109 L 940 271.09327942034076 L 940 271.0932794203408 L 941 270.65865033332034 L 941 270.65865033332034 L 942 270.225216332717 L 942 270.2252163327171 L 943 269.7929708643628 L 943 269.7929708643628 L 944 269.36190742785936 L 944 269.36190742785936 L 945 268.9320195759916 L 945 268.9320195759916 L 946 268.503300914149 L 946 268.50330091414907 L 947 268.07574509975507 L 947 268.07574509975507 L 948 267.64934584170396 L 948 267.64934584170396 L 949 267.22409689980543 L 949 267.22409689980543 L 950 266.7999920842367 L 950 266.79999208423675 L 951 266.37702525500185 L 951 266.3770252550019 L 952 265.9551903213986 L 952 265.9551903213986 L 953 265.5344812414918 L 953 265.5344812414918 L 954 265.1148920215944 L 954 265.1148920215944 L 955 264.69641671575505 L 955 264.69641671575505 L 956 264.27904942525254 L 956 264.2790494252526 L 957 263.8627842980969 L 957 263.8627842980969 L 958 263.44761552853697 L 958 263.447615528537 L 959 263.0335373565748 L 959 263.0335373565748 L 960 262.6205440674858 L 960 262.62054406748587 L 961 262.20862999134584 L 961 262.2086299913459 L 962 261.797789502564 L 962 261.79778950256406 L 963 261.38801701942174 L 963 261.3880170194218 L 964 260.97930700361763 L 964 260.9793070036177 L 965 260.5716539598185 L 965 260.5716539598185 L 966 260.1650524352159 L 966 260.16505243521596 L 967 259.75949701908866 L 967 259.7594970190887 L 968 259.3549823423706 L 968 259.35498234237065 L 969 258.95150307722434 L 969 258.9515030772244 L 970 258.54905393662006 L 970 258.5490539366201 L 971 258.1476296739198 L 971 258.1476296739199 L 972 257.7472250824673 L 972 257.74722508246737 L 973 257.34783499518244 L 973 257.3478349951825 L 974 256.94945428416145 L 974 256.94945428416156 L 975 256.55207786028177 L 975 256.55207786028177 L 976 256.1557006728118 L 976 256.1557006728118 L 977 255.76031770902603 L 977 255.76031770902605 L 978 255.3659239938245 L 978 255.36592399382454 L 979 254.97251458935716 L 979 254.97251458935722 L 980 254.58008459465304 L 980 254.58008459465307 L 981 254.18862914525377 L 981 254.1886291452538 L 982 253.79814341285189 L 982 253.7981434128519 L 983 253.40862260493347 L 983 253.40862260493353 L 984 253.0200619644253 L 984 253.02006196442534 L 985 252.63245676934613 L 985 252.63245676934616 L 986 252.24580233246238 L 986 252.2458023324624 L 987 251.86009400094824 L 987 251.86009400094827 L 988 251.47532715604947 L 988 251.4753271560495 L 989 251.09149721275173 L 989 251.09149721275176 L 990 250.70859961945266 L 990 250.7085996194527 L 991 250.326629857638 L 991 250.32662985763804 L 992 249.94558344156187 L 992 249.9455834415619 L 993 249.56545591793028 L 993 249.5654559179303 L 994 249.1862428655892 L 994 249.18624286558924 L 995 248.807939895216 L 995 248.80793989521604 L 996 248.43054264901434 L 996 248.43054264901437 L 997 248.0540468004133 L 997 248.05404680041332 L 998 247.67844805376953 L 998 247.67844805376959 L 999 247.30374214407337 L 999 247.3037421440734 L 1000 246.92992483665805 L 1000 246.9299248366581 L 1001 246.55699192691276 L 1001 246.5569919269128 L 1002 246.18493923999867 L 1002 246.18493923999873 L 1003 245.8137626305688 L 1003 245.81376263056882 L 1004 245.4434579824905 L 1004 245.44345798249051 L 1005 245.0740212085719 L 1005 245.07402120857193 L 1006 244.70544825029123 L 1006 244.70544825029125 L 1007 244.33773507752898 L 1007 244.33773507752903 L 1008 243.97087768830391 L 1008 243.97087768830397 L 1009 243.60487210851133 L 1009 243.60487210851142 L 1010 243.23971439166516 L 1010 243.23971439166525 L 1011 242.87540061864232 L 1011 242.8754006186424 L 1012 242.51192689743038 L 1012 242.51192689743047 L 1013 242.1492893628783 L 1013 242.14928936287836 L 1014 241.78748417644957 L 1014 241.78748417644962 L 1015 241.4265075259785 L 1015 241.4265075259786 L 1016 241.06635562542934 L 1016 241.06635562542942 L 1017 240.7070247146578 L 1017 240.70702471465785 L 1018 240.34851105917562 L 1018 240.34851105917568 L 1019 239.99081094991774 L 1019 239.99081094991783 L 1020 239.63392070301197 L 1020 239.63392070301205 L 1021 239.2778366595514 L 1021 239.27783665955147 L 1022 238.9225551853693 L 1022 238.92255518536936 L 1023 238.56807267081655 L 1023 238.56807267081663 L 1024 238.21438553054168 L 1024 238.21438553054176 L 1025 237.8614902032732 L 1025 237.8614902032733 L 1026 237.5093831516045 L 1026 237.5093831516046 L 1027 237.1580608617811 L 1027 237.15806086178117 L 1028 236.80751984349016 L 1028 236.80751984349024 L 1029 236.4577566296525 L 1029 236.45775662965255 L 1030 236.10876777621692 L 1030 236.10876777621698 L 1031 235.7605498619566 L 1031 235.76054986195666 L 1032 235.41309948826782 L 1032 235.4130994882679 L 1033 235.06641327897123 L 1033 235.0664132789713 L 1034 234.72048788011455 L 1034 234.72048788011463 L 1035 234.37531995977827 L 1035 234.37531995977832 L 1036 234.0309062078829 L 1036 234.030906207883 L 1037 233.6872433359987 L 1037 233.68724333599874 L 1038 233.34432807715686 L 1038 233.34432807715694 L 1039 233.00215718566375 L 1039 233.0021571856638 L 1040 232.6607274369161 L 1040 232.66072743691618 L 1041 232.3200356272189 L 1041 232.32003562721897 L 1042 231.9800785736051 L 1042 231.9800785736052 L 1043 231.64085311365696 L 1043 231.64085311365702 L 1044 231.30235610532958 L 1044 231.30235610532966 L 1045 230.96458442677658 L 1045 230.96458442677664 L 1046 230.6275349761769 L 1046 230.62753497617695 L 1047 230.29120467156417 L 1047 230.29120467156423 L 1048 229.9555904506576 L 1048 229.9555904506577 L 1049 229.6206892706947 L 1049 229.62068927069475 L 1050 229.28649810826553 L 1050 229.2864981082656 L 1051 228.95301395914927 L 1051 228.95301395914933 L 1052 228.62023383815182 L 1052 228.6202338381519 L 1053 228.28815477894585 L 1053 228.28815477894594 L 1054 227.95677383391188 L 1054 227.95677383391197 L 1055 227.62608807398135 L 1055 227.62608807398144 L 1056 227.29609458848128 L 1056 227.29609458848134 L 1057 226.96679048498063 L 1057 226.9667904849807 L 1058 226.63817288913808 L 1058 226.63817288913813 L 1059 226.31023894455154 L 1059 226.3102389445516 L 1060 225.9829858126092 L 1060 225.98298581260926 L 1061 225.65641067234205 L 1061 225.6564106723421 L 1062 225.33051072027797 L 1062 225.33051072027803 L 1063 225.00528317029745 L 1063 225.00528317029753 L 1064 224.68072525349052 L 1064 224.68072525349058 L 1065 224.35683421801534 L 1065 224.35683421801542 L 1066 224.0336073289583 L 1066 224.03360732895837 L 1067 223.71104186819542 L 1067 223.71104186819548 L 1068 223.3891351342551 L 1068 223.38913513425516 L 1069 223.06788444218247 L 1069 223.06788444218253 L 1070 222.74728712340502 L 1070 222.74728712340507 L 1071 222.42734052559953 L 1071 222.4273405255996 L 1072 222.10804201256053 L 1072 222.1080420125606 L 1073 221.78938896406973 L 1073 221.78938896406981 L 1074 221.47137877576742 L 1074 221.4713787757675 L 1075 221.1540088590243 L 1075 221.15400885902437 L 1076 220.83727664081536 L 1076 220.83727664081542 L 1077 220.52117956359447 L 1077 220.52117956359456 L 1078 220.20571508517085 L 1078 220.2057150851709 L 1079 219.89088067858592 L 1079 219.890880678586 L 1080 219.5766738319922 L 1080 219.57667383199225 L 1081 219.26309204853294 L 1081 219.263092048533 L 1082 218.95013284622303 L 1082 218.95013284622308 L 1083 218.63779375783125 L 1083 218.63779375783133 L 1084 218.32607233076348 L 1084 218.32607233076354 L 1085 218.0149661269471 L 1085 218.01496612694717 L 1086 217.70447272271664 L 1086 217.7044727227167 L 1087 217.3945897087006 L 1087 217.39458970870066 L 1088 217.08531468970907 L 1088 217.08531468970912 L 1089 216.77664528462273 L 1089 216.7766452846228 L 1090 216.4685791262828 L 1090 216.46857912628286 L 1091 216.16111386138238 L 1091 216.16111386138246 L 1092 215.8542471503582 L 1092 215.85424715035825 L 1093 215.54797666728402 L 1093 215.54797666728408 L 1094 215.24230009976486 L 1094 215.24230009976495 L 1095 214.93721514883225 L 1095 214.93721514883234 L 1096 214.63271952884037 L 1096 214.63271952884043 L 1097 214.32881096736332 L 1097 214.3288109673634 L 1098 214.0254872050936 L 1098 214.0254872050937 L 1099 213.72274599574104 L 1099 213.72274599574112 L 1100 213.42058510593316 L 1100 213.4205851059332 L 1101 213.11900231511612 L 1101 213.11900231511618 L 1102 212.81799541545718 L 1102 212.81799541545723 L 1103 212.51756221174725 L 1103 212.51756221174733 L 1104 212.21770052130523 L 1104 212.21770052130532 L 1105 211.91840817388265 L 1105 211.9184081738827 L 1106 211.61968301156946 L 1106 211.61968301156955 L 1107 211.32152288870077 L 1107 211.32152288870085 L 1108 211.02392567176418 L 1108 211.02392567176423 L 1109 210.72688923930835 L 1109 210.72688923930843 L 1110 210.43041148185225 L 1110 210.43041148185233 L 1111 210.13449030179527 L 1111 210.13449030179535 L 1112 209.8391236133281 L 1112 209.83912361332816 L 1113 209.54430934234446 L 1113 209.54430934234452 L 1114 209.25004542635395 L 1114 209.250045426354 L 1115 208.95632981439525 L 1115 208.95632981439533 L 1116 208.66316046695056 L 1116 208.66316046695064 L 1117 208.37053535586037 L 1117 208.37053535586045 L 1118 208.07845246423943 L 1118 208.0784524642395 L 1119 207.78690978639332 L 1119 207.7869097863934 L 1120 207.49590532773595 L 1120 207.495905327736 L 1121 207.20543710470727 L 1121 207.20543710470733 L 1122 206.91550314469265 L 1122 206.91550314469274 L 1123 206.6261014859422 L 1123 206.62610148594229 L 1124 206.3372301774912 L 1124 206.33723017749125 L 1125 206.04888727908113 L 1125 206.0488872790812 L 1126 205.76107086108158 L 1126 205.76107086108166 L 1127 205.4737790044128 L 1127 205.47377900441288 L 1128 205.18700980046864 L 1128 205.18700980046873 L 1129 204.9007613510409 L 1129 204.90076135104096 L 1130 204.61503176824357 L 1130 204.61503176824363 L 1131 204.32981917443834 L 1131 204.3298191744384 L 1132 204.0451217021604 L 1132 204.0451217021605 L 1133 203.76093749404532 L 1133 203.76093749404538 L 1134 203.477264702756 L 1134 203.4772647027561 L 1135 203.194101490911 L 1135 203.19410149091107 L 1136 202.91144603101287 L 1136 202.91144603101293 L 1137 202.62929650537743 L 1137 202.62929650537748 L 1138 202.34765110606367 L 1138 202.34765110606375 L 1139 202.0665080348043 L 1139 202.06650803480434 L 1140 201.78586550293667 L 1140 201.78586550293673 L 1141 201.50572173133472 L 1141 201.50572173133477 L 1142 201.22607495034117 L 1142 201.22607495034123 L 1143 200.9469233997005 L 1143 200.94692339970058 L 1144 200.66826532849237 L 1144 200.66826532849242 L 1145 200.3900989950658 L 1145 200.3900989950659 L 1146 200.11242266697403 L 1146 200.11242266697408 L 1147 199.83523462090943 L 1147 199.8352346209095 L 1148 199.5585331426395 L 1148 199.55853314263956 L 1149 199.28231652694342 L 1149 199.28231652694348 L 1150 199.0065830775487 L 1150 199.00658307754875 L 1151 198.73133110706888 L 1151 198.73133110706894 L 1152 198.4565589369415 L 1152 198.45655893694155 L 1153 198.18226489736668 L 1153 198.18226489736674 L 1154 197.9084473272463 L 1154 197.9084473272464 L 1155 197.63510457412357 L 1155 197.63510457412366 L 1156 197.36223499412318 L 1156 197.36223499412327 L 1157 197.08983695189204 L 1157 197.0898369518921 L 1158 196.8179088205405 L 1158 196.8179088205406 L 1159 196.54644898158395 L 1159 196.546448981584 L 1160 196.27545582488509 L 1160 196.27545582488514 L 1161 196.00492774859654 L 1161 196.00492774859663 L 1162 195.7348631591043 L 1162 195.73486315910435 L 1163 195.465260470971 L 1163 195.4652604709711 L 1164 195.19611810688045 L 1164 195.1961181068805 L 1165 194.9274344975819 L 1165 194.927434497582 L 1166 194.6592080818356 L 1166 194.65920808183566 L 1167 194.39143730635791 L 1167 194.39143730635797 L 1168 194.12412062576757 L 1168 194.12412062576763 L 1169 193.85725650253224 L 1169 193.8572565025323 L 1170 193.59084340691516 L 1170 193.5908434069152 L 1171 193.32487981692296 L 1171 193.32487981692302 L 1172 193.059364218253 L 1172 193.05936421825308 L 1173 192.7942951042421 L 1173 192.79429510424217 L 1174 192.52967097581492 L 1174 192.529670975815 L 1175 192.2654903414332 L 1175 192.2654903414333 L 1176 192.00175171704538 L 1176 192.00175171704547 L 1177 191.73845362603646 L 1177 191.73845362603652 L 1178 191.47559459917844 L 1178 191.4755945991785 L 1179 191.21317317458124 L 1179 191.2131731745813 L 1180 190.9511878976437 L 1180 190.9511878976438 L 1181 190.68963732100548 L 1181 190.68963732100556 L 1182 190.42852000449875 L 1182 190.42852000449884 L 1183 190.1678345151009 L 1183 190.16783451510096 L 1184 189.90757942688722 L 1184 189.9075794268873 L 1185 189.64775332098415 L 1185 189.64775332098424 L 1186 189.38835478552272 L 1186 189.3883547855228 L 1187 189.1293824155928 L 1187 189.1293824155929 L 1188 188.87083481319715 L 1188 188.87083481319723 L 1189 188.61271058720632 L 1189 188.61271058720638 L 1190 188.35500835331374 L 1190 188.3550083533138 L 1191 188.097726733991 L 1191 188.09772673399107 L 1192 187.84086435844392 L 1192 187.840864358444 L 1193 187.58441986256855 L 1193 187.58441986256864 L 1194 187.3283918889078 L 1194 187.32839188890787 L 1195 187.07277908660816 L 1195 187.07277908660822 L 1196 186.81758011137717 L 1196 186.81758011137723 L 1197 186.5627936254409 L 1197 186.56279362544095 L 1198 186.30841829750173 L 1198 186.30841829750182 L 1199 186.05445280269697 L 1199 186.05445280269703 L 1200 185.80089582255704 L 1200 185.80089582255712 L 1201 185.5477460449646 L 1201 185.54774604496467 L 1202 185.29500216411398 L 1202 185.29500216411404 L 1203 185.04266288047035 L 1203 185.0426628804704 L 1204 184.79072690073005 L 1204 184.7907269007301 L 1205 184.53919293778057 L 1205 184.53919293778063 L 1206 184.28805971066112 L 1206 184.28805971066117 L 1207 184.03732594452362 L 1207 184.0373259445237 L 1208 183.78699037059368 L 1208 183.78699037059377 L 1209 183.53705172613235 L 1209 183.5370517261324 L 1210 183.28750875439746 L 1210 183.28750875439752 L 1211 183.03836020460625 L 1211 183.03836020460633 L 1212 182.78960483189726 L 1212 182.78960483189732 L 1213 182.54124139729348 L 1213 182.54124139729353 L 1214 182.2932686676647 L 1214 182.2932686676648 L 1215 182.04568541569162 L 1215 182.0456854156917 L 1216 181.79849041982848 L 1216 181.79849041982854 L 1217 181.5516824642677 L 1217 181.5516824642678 L 1218 181.3052603389034 L 1218 181.30526033890345 L 1219 181.0592228392962 L 1219 181.0592228392963 L 1220 180.8135687666377 L 1220 180.8135687666378 L 1221 180.5682969277155 L 1221 180.56829692771558 L 1222 180.32340613487838 L 1222 180.32340613487844 L 1223 180.0788952060018 L 1223 180.07889520600187 L 1224 179.83476296445374 L 1224 179.8347629644538 L 1225 179.5910082390606 L 1225 179.5910082390607 L 1226 179.34762986407367 L 1226 179.34762986407375 L 1227 179.1046266791355 L 1227 179.10462667913558 L 1228 178.8619975292467 L 1228 178.86199752924676 L 1229 178.61974126473325 L 1229 178.6197412647333 L 1230 178.37785674121344 L 1230 178.3778567412135 L 1231 178.13634281956578 L 1231 178.13634281956587 L 1232 177.89519836589662 L 1232 177.8951983658967 L 1233 177.65442225150824 L 1233 177.65442225150832 L 1234 177.4140133528672 L 1234 177.41401335286724 L 1235 177.17397055157278 L 1235 177.17397055157284 L 1236 176.9342927343259 L 1236 176.93429273432596 L 1237 176.69497879289813 L 1237 176.69497879289818 L 1238 176.4560276241007 L 1238 176.45602762410078 L 1239 176.21743812975433 L 1239 176.21743812975438 L 1240 175.97920921665877 L 1240 175.97920921665883 L 1241 175.74133979656264 L 1241 175.74133979656273 L 1242 175.50382878613394 L 1242 175.503828786134 L 1243 175.26667510693008 L 1243 175.26667510693014 L 1244 175.02987768536866 L 1244 175.02987768536875 L 1245 174.7934354526984 L 1245 174.79343545269847 L 1246 174.55734734497 L 1246 174.55734734497005 L 1247 174.32161230300756 L 1247 174.3216123030076 L 1248 174.08622927238002 L 1248 174.08622927238008 L 1249 173.85119720337292 L 1249 173.85119720337298 L 1250 173.61651505096012 L 1250 173.6165150509602 L 1251 173.38218177477623 L 1251 173.38218177477629 L 1252 173.14819633908863 L 1252 173.1481963390887 L 1253 172.91455771277023 L 1253 172.9145577127703 L 1254 172.681264869272 L 1254 172.68126486927207 L 1255 172.44831678659622 L 1255 172.44831678659628 L 1256 172.2157124472692 L 1256 172.21571244726925 L 1257 171.98345083831492 L 1257 171.983450838315 L 1258 171.7515309512286 L 1258 171.7515309512287 L 1259 171.51995178195006 L 1259 171.51995178195014 L 1260 171.28871233083814 L 1260 171.2887123308382 L 1261 171.05781160264428 L 1261 171.05781160264434 L 1262 170.82724860648736 L 1262 170.82724860648742 L 1263 170.59702235582768 L 1263 170.59702235582773 L 1264 170.36713186844202 L 1264 170.36713186844207 L 1265 170.13757616639822 L 1265 170.13757616639828 L 1266 169.90835427603056 L 1266 169.90835427603062 L 1267 169.67946522791442 L 1267 169.67946522791448 L 1268 169.4509080568424 L 1268 169.45090805684248 L 1269 169.2226818017992 L 1269 169.22268180179927 L 1270 168.99478550593798 L 1270 168.99478550593807 L 1271 168.76721821655576 L 1271 168.76721821655582 L 1272 168.53997898506992 L 1272 168.53997898506998 L 1273 168.3130668669943 L 1273 168.31306686699435 L 1274 168.08648092191564 L 1274 168.08648092191572 L 1275 167.86022021347023 L 1275 167.8602202134703 L 1276 167.63428380932083 L 1276 167.63428380932092 L 1277 167.40867078113322 L 1277 167.40867078113328 L 1278 167.1833802045538 L 1278 167.18338020455386 L 1279 166.9584111591865 L 1279 166.95841115918657 L 1280 166.73376272857053 L 1280 166.73376272857058 L 1281 166.50943400015748 L 1281 166.50943400015757 L 1282 166.28542406528993 L 1282 166.28542406529 L 1283 166.06173201917827 L 1283 166.06173201917832 L 1284 165.83835696087976 L 1284 165.83835696087982 L 1285 165.61529799327613 L 1285 165.6152979932762 L 1286 165.39255422305231 L 1286 165.39255422305237 L 1287 165.1701247606747 L 1287 165.17012476067478 L 1288 164.94800872037018 L 1288 164.94800872037027 L 1289 164.72620522010448 L 1289 164.72620522010453 L 1290 164.50471338156171 L 1290 164.50471338156177 L 1291 164.28353233012297 L 1291 164.28353233012305 L 1292 164.06266119484613 L 1292 164.06266119484619 L 1293 163.84209910844478 L 1293 163.84209910844487 L 1294 163.6218452072682 L 1294 163.62184520726825 L 1295 163.40189863128066 L 1295 163.40189863128074 L 1296 163.18225852404174 L 1296 163.18225852404183 L 1297 162.96292403268592 L 1297 162.962924032686 L 1298 162.7438943079029 L 1298 162.74389430790296 L 1299 162.52516850391785 L 1299 162.52516850391794 L 1300 162.3067457784718 L 1300 162.30674577847188 L 1301 162.08862529280216 L 1301 162.08862529280222 L 1302 161.87080621162343 L 1302 161.87080621162352 L 1303 161.65328770310796 L 1303 161.65328770310805 L 1304 161.43606893886698 L 1304 161.43606893886707 L 1305 161.21914909393155 L 1305 161.2191490939316 L 1306 161.0025273467338 L 1306 161.00252734673387 L 1307 160.78620287908842 L 1307 160.78620287908848 L 1308 160.57017487617378 L 1308 160.57017487617387 L 1309 160.35444252651388 L 1309 160.35444252651394 L 1310 160.13900502195983 L 1310 160.1390050219599 L 1311 159.92386155767176 L 1311 159.92386155767184 L 1312 159.70901133210074 L 1312 159.7090113321008 L 1313 159.49445354697096 L 1313 159.49445354697104 L 1314 159.28018740726182 L 1314 159.28018740726188 L 1315 159.0662121211903 L 1315 159.06621212119038 L 1316 158.8525269001934 L 1316 158.85252690019345 L 1317 158.63913095891073 L 1317 158.63913095891078 L 1318 158.4260235151672 L 1318 158.42602351516726 L 1319 158.21320378995574 L 1319 158.21320378995583 L 1320 158.00067100742027 L 1320 158.00067100742032 L 1321 157.7884243948387 L 1321 157.78842439483876 L 1322 157.57646318260618 L 1322 157.57646318260623 L 1323 157.36478660421818 L 1323 157.36478660421824 L 1324 157.15339389625402 L 1324 157.15339389625407 L 1325 156.9422842983602 L 1325 156.94228429836028 L 1326 156.73145705323415 L 1326 156.73145705323424 L 1327 156.52091140660784 L 1327 156.5209114066079 L 1328 156.3106466072315 L 1328 156.31064660723158 L 1329 156.10066190685782 L 1329 156.10066190685788 L 1330 155.89095656022556 L 1330 155.89095656022562 L 1331 155.68152982504418 L 1331 155.68152982504424 L 1332 155.47238096197754 L 1332 155.4723809619776 L 1333 155.26350923462869 L 1333 155.26350923462874 L 1334 155.054913909524 L 1334 155.05491390952406 L 1335 154.846594256098 L 1335 154.8465942560981 L 1336 154.6385495466777 L 1336 154.63854954667775 L 1337 154.43077905646754 L 1337 154.43077905646763 L 1338 154.2232820635342 L 1338 154.22328206353427 L 1339 154.01605784879163 L 1339 154.0160578487917 L 1340 153.8091056959859 L 1340 153.80910569598598 L 1341 153.60242489168056 L 1341 153.60242489168064 L 1342 153.39601472524166 L 1342 153.39601472524174 L 1343 153.18987448882342 L 1343 153.18987448882348 L 1344 152.98400347735324 L 1344 152.9840034773533 L 1345 152.7784009885176 L 1345 152.7784009885177 L 1346 152.57306632274745 L 1346 152.5730663227475 L 1347 152.3679987832041 L 1347 152.36799878320417 L 1348 152.16319767576476 L 1348 152.16319767576485 L 1349 151.958662309009 L 1349 151.95866230900904 L 1350 151.75439199420387 L 1350 151.75439199420396 L 1351 151.55038604529094 L 1351 151.550386045291 L 1352 151.3466437788717 L 1352 151.34664377887177 L 1353 151.14316451419444 L 1353 151.1431645141945 L 1354 150.93994757313993 L 1354 150.93994757314 L 1355 150.73699228020863 L 1355 150.7369922802087 L 1356 150.53429796250654 L 1356 150.53429796250663 L 1357 150.3318639497323 L 1357 150.33186394973237 L 1358 150.12968957416354 L 1358 150.1296895741636 L 1359 149.92777417064383 L 1359 149.92777417064391 L 1360 149.72611707656972 L 1360 149.72611707656978 L 1361 149.52471763187725 L 1361 149.52471763187734 L 1362 149.3235751790294 L 1362 149.32357517902946 L 1363 149.12268906300304 L 1363 149.1226890630031 L 1364 148.92205863127612 L 1364 148.9220586312762 L 1365 148.72168323381496 L 1365 148.721683233815 L 1366 148.52156222306166 L 1366 148.52156222306175 L 1367 148.32169495392154 L 1367 148.32169495392162 L 1368 148.12208078375062 L 1368 148.1220807837507 L 1369 147.92271907234317 L 1369 147.92271907234326 L 1370 147.7236091819196 L 1370 147.72360918191967 L 1371 147.524750477114 L 1371 147.52475047711405 L 1372 147.32614232496198 L 1372 147.32614232496206 L 1373 147.12778409488882 L 1373 147.1277840948889 L 1374 146.9296751586972 L 1374 146.92967515869728 L 1375 146.7318148905553 L 1375 146.7318148905554 L 1376 146.53420266698515 L 1376 146.53420266698524 L 1377 146.33683786685054 L 1377 146.3368378668506 L 1378 146.1397198713455 L 1378 146.13971987134562 L 1379 145.9428480639827 L 1379 145.94284806398275 L 1380 145.74622183058165 L 1380 145.7462218305817 L 1381 145.5498405592574 L 1381 145.54984055925746 L 1382 145.35370364040904 L 1382 145.35370364040915 L 1383 145.15781046670855 L 1383 145.1578104667086 L 1384 144.96216043308902 L 1384 144.96216043308908 L 1385 144.76675293673395 L 1385 144.76675293673406 L 1386 144.57158737706595 L 1386 144.57158737706607 L 1387 144.3766631557355 L 1387 144.37666315573563 L 1388 144.18197967661013 L 1388 144.18197967661018 L 1389 143.98753634576332 L 1389 143.98753634576337 L 1390 143.79333257146385 L 1390 143.7933325714639 L 1391 143.5993677641648 L 1391 143.59936776416487 L 1392 143.40564133649292 L 1392 143.40564133649298 L 1393 143.21215270323785 L 1393 143.2121527032379 L 1394 143.0189012813417 L 1394 143.01890128134175 L 1395 142.82588648988832 L 1395 142.82588648988838 L 1396 142.6331077500928 L 1396 142.63310775009285 L 1397 142.44056448529136 L 1397 142.44056448529142 L 1398 142.2482561209306 L 1398 142.24825612093065 L 1399 142.05618208455746 L 1399 142.05618208455752 L 1400 141.86434180580898 L 1400 141.86434180580903 L 1401 141.67273471640215 L 1401 141.6727347164022 L 1402 141.48136025012354 L 1402 141.4813602501236 L 1403 141.2902178428197 L 1403 141.29021784281974 L 1404 141.0993069323868 L 1404 141.09930693238687 L 1405 140.90862695876098 L 1405 140.9086269587611 L 1406 140.71817736390835 L 1406 140.71817736390847 L 1407 140.5279575918152 L 1407 140.52795759181527 L 1408 140.33796708847825 L 1408 140.3379670884783 L 1409 140.1482053018952 L 1409 140.14820530189525 L 1410 139.9586716820545 L 1410 139.95867168205456 L 1411 139.76936568092663 L 1411 139.76936568092674 L 1412 139.58028675245396 L 1412 139.58028675245401 L 1413 139.39143435254147 L 1413 139.39143435254152 L 1414 139.20280793904743 L 1414 139.20280793904755 L 1415 139.01440697177406 L 1415 139.01440697177412 L 1416 138.82623091245807 L 1416 138.82623091245813 L 1417 138.63827922476167 L 1417 138.63827922476173 L 1418 138.45055137426328 L 1418 138.45055137426334 L 1419 138.26304682844835 L 1419 138.2630468284484 L 1420 138.0757650567005 L 1420 138.07576505670056 L 1421 137.88870553029227 L 1421 137.88870553029233 L 1422 137.70186772237633 L 1422 137.7018677223764 L 1423 137.5152511079765 L 1423 137.51525110797655 L 1424 137.32885516397891 L 1424 137.32885516397903 L 1425 137.1426793691233 L 1425 137.14267936912336 L 1426 136.95672320399404 L 1426 136.9567232039941 L 1427 136.7709861510117 L 1427 136.7709861510118 L 1428 136.58546769442427 L 1428 136.58546769442432 L 1429 136.40016732029852 L 1429 136.40016732029858 L 1430 136.21508451651164 L 1430 136.2150845165117 L 1431 136.03021877274244 L 1431 136.0302187727425 L 1432 135.84556958046335 L 1432 135.8455695804634 L 1433 135.66113643293158 L 1433 135.6611364329317 L 1434 135.4769188251811 L 1434 135.47691882518114 L 1435 135.29291625401402 L 1435 135.29291625401413 L 1436 135.1091282179928 L 1436 135.10912821799292 L 1437 134.92555421743162 L 1437 134.92555421743168 L 1438 134.7421937543885 L 1438 134.74219375438855 L 1439 134.55904633265692 L 1439 134.55904633265698 L 1440 134.37611145775816 L 1440 134.3761114577582 L 1441 134.19338863693287 L 1441 134.19338863693292 L 1442 134.01087737913343 L 1442 134.0108773791335 L 1443 133.8285771950159 L 1443 133.82857719501595 L 1444 133.6464875969321 L 1444 133.64648759693216 L 1445 133.46460809892181 L 1445 133.46460809892187 L 1446 133.28293821670513 L 1446 133.2829382167052 L 1447 133.1014774676746 L 1447 133.10147746767467 L 1448 132.9202253708874 L 1448 132.92022537088747 L 1449 132.73918144705794 L 1449 132.73918144705806 L 1450 132.55834521855024" stroke-opacity="0.8" stroke-linecap="round" stroke-linejoin="round" stroke-miterlimit="10" stroke-width="6.5"/><text fill="rgb(211,47,47)" stroke="none" font-family="geogebra-sans-serif, sans-serif" font-size="16px" font-style="normal" font-weight="normal" text-decoration="normal" x="588" y="834" text-anchor="start" dominant-baseline="alphabetic" fill-opacity="1">f</text><text fill="none" stroke="rgb(255,255,255)" font-family="geogebra-sans-serif, sans-serif" font-size="16px" font-style="normal" font-weight="normal" text-decoration="normal" x="588" y="834" text-anchor="start" dominant-baseline="alphabetic" stroke-opacity="1" stroke-linejoin="bevel" stroke-miterlimit="10" stroke-width="3">f</text><text fill="rgb(211,47,47)" stroke="none" font-family="geogebra-sans-serif, sans-serif" font-size="16px" font-style="normal" font-weight="normal" text-decoration="normal" x="588" y="834" text-anchor="start" dominant-baseline="alphabetic" fill-opacity="1">f</text></g></g></svg>